<svg xmlns:dc="http://purl.org/dc/elements/1.1/" xmlns:cc="http://creativecommons.org/ns#" xmlns:rdf="http://www.w3.org/1999/02/22-rdf-syntax-ns#" xmlns:svg="http://www.w3.org/2000/svg" xmlns="http://www.w3.org/2000/svg" xmlns:sodipodi="http://sodipodi.sourceforge.net/DTD/sodipodi-0.dtd" xmlns:inkscape="http://www.inkscape.org/namespaces/inkscape" version="1.1" x="0px" y="0px" viewBox="0 0 100 125"><g transform="translate(0,-952.36218)"><path style="text-indent:0;text-transform:none;direction:ltr;block-progression:tb;baseline-shift:baseline;color:#000000;enable-background:accumulate;" d="M 20.8125 8 C 15.798952 8 11.71875 12.04895 11.71875 17.0625 L 11.71875 36.71875 C 11.71875 41.7323 15.798952 45.78125 20.8125 45.78125 L 37.5 45.78125 C 42.513548 45.78125 46.59375 41.7323 46.59375 36.71875 L 46.59375 17.0625 C 46.59375 12.04895 42.513548 8 37.5 8 L 20.8125 8 z M 62.5 8 C 57.486452 8 53.40625 12.04895 53.40625 17.0625 L 53.40625 36.71875 C 53.40625 41.7323 57.486452 45.78125 62.5 45.78125 L 79.1875 45.78125 C 84.201048 45.78125 88.28125 41.7323 88.28125 36.71875 L 88.28125 17.0625 C 88.28125 12.04895 84.201048 8 79.1875 8 L 62.5 8 z M 20.8125 10 L 37.5 10 C 41.440143 10 44.59375 13.12236 44.59375 17.0625 L 44.59375 36.71875 C 44.59375 40.65889 41.440143 43.78125 37.5 43.78125 L 20.8125 43.78125 C 16.872357 43.78125 13.71875 40.65889 13.71875 36.71875 L 13.71875 17.0625 C 13.71875 13.12236 16.872357 10 20.8125 10 z M 62.5 10 L 79.1875 10 C 83.127643 10 86.28125 13.12236 86.28125 17.0625 L 86.28125 36.71875 C 86.28125 40.65889 83.127643 43.78125 79.1875 43.78125 L 62.5 43.78125 C 58.559857 43.78125 55.40625 40.65889 55.40625 36.71875 L 55.40625 17.0625 C 55.40625 13.12236 58.559857 10 62.5 10 z M 20.8125 54.1875 C 15.798952 54.1875 11.71875 58.2365 11.71875 63.25 L 11.71875 82.90625 C 11.71875 87.91985 15.798952 92 20.8125 92 L 37.5 92 C 42.513548 92 46.59375 87.91985 46.59375 82.90625 L 46.59375 63.25 C 46.59375 58.2365 42.513548 54.1875 37.5 54.1875 L 20.8125 54.1875 z M 70.09375 55.59375 A 1.0001 1.0001 0 0 0 69.21875 56.625 L 69.21875 71.25 L 54.53125 71.25 A 1.0001 1.0001 0 0 0 54.34375 71.25 A 1.0043849 1.0043849 0 0 0 54.53125 73.25 L 69.21875 73.25 L 69.21875 87.875 A 1.0001 1.0001 0 1 0 71.21875 87.875 L 71.21875 73.25 L 85.875 73.25 A 1.0001 1.0001 0 1 0 85.875 71.25 L 71.21875 71.25 L 71.21875 56.625 A 1.0001 1.0001 0 0 0 70.09375 55.59375 z M 20.8125 56.1875 L 37.5 56.1875 C 41.440143 56.1875 44.59375 59.3099 44.59375 63.25 L 44.59375 82.90625 C 44.59375 86.84645 41.440143 90 37.5 90 L 20.8125 90 C 16.872357 90 13.71875 86.84645 13.71875 82.90625 L 13.71875 63.25 C 13.71875 59.3099 16.872357 56.1875 20.8125 56.1875 z " transform="translate(0,952.36218)" fill="#000000" fill-opacity="1" stroke="none" marker="none" visibility="visible" display="inline" overflow="visible"/></g><text x="0" y="115" fill="#000000" font-size="5px" font-weight="bold" font-family="'Helvetica Neue', Helvetica, Arial-Unicode, Arial, Sans-serif">Created by Artdabana@Design</text><text x="0" y="120" fill="#000000" font-size="5px" font-weight="bold" font-family="'Helvetica Neue', Helvetica, Arial-Unicode, Arial, Sans-serif">from the Noun Project</text></svg>