<svg xmlns="http://www.w3.org/2000/svg" xmlns:xlink="http://www.w3.org/1999/xlink" version="1.1" x="0px" y="0px" viewBox="7.5 7.5 50 62.5" enable-background="new 7.5 7.5 50 50" xml:space="preserve"><path d="M56.121,56.658c0.003-0.023,0.014-0.044,0.014-0.068V27.016c0-0.012-0.006-0.023-0.007-0.035  c-0.001-0.014,0.002-0.027,0-0.042c-0.004-0.021-0.015-0.04-0.021-0.061c-0.01-0.031-0.019-0.061-0.034-0.089  c-0.005-0.01-0.005-0.021-0.011-0.031L49.686,16.19v-7.78c0-0.276-0.224-0.5-0.5-0.5H15.814c-0.276,0-0.5,0.224-0.5,0.5v7.777  L8.937,26.757c-0.006,0.01-0.006,0.022-0.012,0.033c-0.014,0.028-0.023,0.057-0.032,0.087c-0.006,0.021-0.018,0.04-0.021,0.061  c-0.002,0.015,0,0.029,0,0.043c-0.001,0.012-0.007,0.022-0.007,0.034V56.59c0,0.024,0.01,0.046,0.014,0.069  c0.005,0.035,0.008,0.069,0.021,0.104c0.013,0.034,0.033,0.063,0.053,0.093c0.013,0.02,0.018,0.042,0.034,0.061  c0.004,0.005,0.01,0.006,0.014,0.01c0.036,0.04,0.08,0.069,0.126,0.096c0.014,0.007,0.025,0.02,0.039,0.025  c0.062,0.027,0.128,0.043,0.2,0.043h46.27c0.071,0,0.139-0.016,0.199-0.043c0.016-0.006,0.026-0.019,0.041-0.027  c0.046-0.025,0.09-0.055,0.125-0.094c0.004-0.004,0.01-0.005,0.014-0.01c0.016-0.019,0.021-0.041,0.034-0.061  c0.02-0.03,0.039-0.059,0.052-0.093S56.116,56.693,56.121,56.658z M15.314,30.226l-4.239-2.71h4.239V30.226z M9.865,27.929  l18.384,11.752L9.865,55.5V27.929z M29.128,40.243l3.102,1.982c0.005,0.003,0.012,0.002,0.017,0.005  c0.075,0.045,0.159,0.071,0.247,0.072c0.001,0,0.003,0.002,0.005,0.002h0h0c0.002,0,0.004-0.002,0.005-0.002  c0.087-0.001,0.171-0.027,0.247-0.072c0.005-0.003,0.012-0.002,0.017-0.005l3.102-1.983L54.287,56.09H10.712L29.128,40.243z   M36.751,39.68l18.384-11.751V55.5L36.751,39.68z M49.686,27.516h4.238l-4.238,2.709V27.516z M54.749,26.516h-5.063v-8.391  L54.749,26.516z M48.686,8.911v21.954L32.5,41.212L16.314,30.865V8.911H48.686z M15.314,26.516H10.25l5.064-8.392V26.516z"/><path d="M21.884,28.698c0.065,0.031,0.136,0.052,0.214,0.052h1.396c0.049,0,0.094-0.015,0.139-0.028  c0.039,0.009,0.075,0.028,0.115,0.028c0.276,0,0.5-0.224,0.5-0.5c0-0.219-0.141-0.405-0.336-0.473  c-0.286-0.438-0.759-2.845-0.801-7.136c3.726,0.298,5.924,1.328,8.035,2.334c1.858,0.886,3.613,1.722,6.186,1.906  c0.013,0.001,0.023,0.001,0.036,0.001l0,0l0,0c0.001,0,0.001,0,0.001,0c0.066,0,0.131-0.014,0.189-0.038  c0.021-0.009,0.036-0.024,0.055-0.035c0.035-0.021,0.071-0.04,0.101-0.068c0.019-0.018,0.031-0.042,0.047-0.063  c0.021-0.029,0.045-0.056,0.061-0.09c0.011-0.025,0.014-0.052,0.021-0.079c0.008-0.031,0.022-0.059,0.024-0.091  c0-0.006-0.003-0.012-0.002-0.019c0-0.006,0.003-0.011,0.003-0.017V12.417c0-0.006-0.003-0.011-0.003-0.017  c-0.001-0.006,0.002-0.012,0.002-0.019c-0.002-0.027-0.016-0.049-0.021-0.075c-0.008-0.035-0.014-0.07-0.029-0.102  c-0.011-0.024-0.028-0.043-0.043-0.065c-0.022-0.032-0.043-0.063-0.071-0.089c-0.021-0.019-0.046-0.031-0.069-0.047  c-0.029-0.019-0.056-0.039-0.089-0.051c-0.033-0.013-0.068-0.016-0.104-0.021c-0.024-0.004-0.047-0.015-0.072-0.015  c-0.007,0-0.012,0.003-0.019,0.003c-0.006,0-0.012-0.002-0.018-0.002c-2.572,0.184-4.328,1.021-6.186,1.906  c-2.502,1.193-5.089,2.426-10.193,2.426c-0.276,0-0.5,0.224-0.5,0.5v3.3C20.453,23.129,20.646,28.175,21.884,28.698z M31.577,14.727  c1.703-0.812,3.201-1.515,5.292-1.755v10.857c-2.092-0.24-3.589-0.943-5.292-1.755c-2.108-1.005-4.504-2.13-8.473-2.435v-2.47  C27.082,16.864,29.453,15.739,31.577,14.727z M21.453,17.242c0.22-0.004,0.439-0.008,0.65-0.016v2.824  c0,2.394,0.118,5.976,0.751,7.7h-0.605c-0.3-0.506-0.796-3.081-0.796-7.7V17.242z"/><path d="M39.39,20.272c0.049,0.015,0.098,0.022,0.146,0.022c0.214,0,0.412-0.138,0.478-0.353c0.311-1.008,0.311-2.074,0-3.082  c-0.08-0.264-0.361-0.411-0.624-0.331c-0.265,0.081-0.412,0.361-0.331,0.625c0.251,0.816,0.251,1.678,0,2.494  C38.978,19.911,39.125,20.191,39.39,20.272z"/><path d="M41.389,21.324c0.05,0.015,0.099,0.022,0.147,0.022c0.214,0,0.412-0.138,0.478-0.353c0.522-1.696,0.522-3.489,0-5.186  c-0.08-0.264-0.357-0.412-0.625-0.331c-0.264,0.082-0.412,0.361-0.33,0.625c0.462,1.504,0.462,3.094,0,4.598  C40.977,20.962,41.125,21.242,41.389,21.324z"/><path d="M43.39,22.281c0.049,0.015,0.098,0.022,0.146,0.022c0.214,0,0.412-0.138,0.478-0.353c0.715-2.322,0.715-4.777,0-7.099  c-0.08-0.264-0.36-0.413-0.624-0.331c-0.265,0.081-0.412,0.361-0.331,0.625c0.654,2.13,0.654,4.381,0,6.511  C42.978,21.92,43.125,22.2,43.39,22.281z"/><text x="7.5" y="72.5" fill="#000000" font-size="5px" font-weight="bold" font-family="'Helvetica Neue', Helvetica, Arial-Unicode, Arial, Sans-serif">Created by Abd Majd</text><text x="7.5" y="77.5" fill="#000000" font-size="5px" font-weight="bold" font-family="'Helvetica Neue', Helvetica, Arial-Unicode, Arial, Sans-serif">from the Noun Project</text></svg>