<svg xmlns="http://www.w3.org/2000/svg" xmlns:xlink="http://www.w3.org/1999/xlink" version="1.1" x="0px" y="0px" viewBox="0 0 100 125" style="enable-background:new 0 0 100 100;" xml:space="preserve"><path d="M94.9,56.4c0-5-2.2-9.5-5.7-12.5v-1c0-9.7-3.8-19.7-10.4-27.5c-7-8.3-16.1-12.9-25.5-12.9h-6.5c-20.6,0-35.9,21.3-35.9,40.4  v0.9c-3.6,3.1-5.8,7.6-5.8,12.6c0,7.2,4.6,13.5,11.4,15.7c1.6,3.4,5.1,5.7,9.1,5.7c5.5,0,10-4.5,10-10V45.6c0-5.5-4.5-10-10-10  c-3.7,0-7,2-8.7,5.1c-0.7,0.2-1.4,0.5-2.1,0.8C15.5,24.8,29.2,6.3,46.8,6.3h6.5c17.5,0,31.3,18.5,32.1,35.1c-0.8-0.4-1.7-0.7-2.7-1  c-1.8-2.9-5-4.9-8.6-4.9c-5.5,0-10,4.5-10,10v22.3c0,5,3.6,9.1,8.4,9.9v5c0,3.9-3.2,7.1-7.1,7.1h-7.1c-1.1-2.3-4.2-3.9-8-3.9  c-4.7,0-8.4,2.6-8.4,5.8c0,3.3,3.7,5.8,8.4,5.8c3.8,0,6.9-1.6,8-3.9h7.1c6,0,10.9-4.9,10.9-10.9v-5.1c3-0.7,5.5-2.7,6.8-5.3  C90,70.2,94.9,63.8,94.9,56.4z M25.6,39.3c3.4,0,6.2,2.8,6.2,6.2v22.3c0,3.4-2.8,6.2-6.2,6.2s-6.2-2.8-6.2-6.2V45.6  C19.3,42.1,22.1,39.3,25.6,39.3z M15.5,45.6v22c-4-2.2-6.6-6.5-6.6-11.2c0-4.8,2.6-9,6.6-11.2C15.5,45.3,15.5,45.4,15.5,45.6z   M50.2,93.7c-2.9,0-4.6-1.3-4.6-2c0-0.7,1.8-2,4.6-2c2.9,0,4.6,1.3,4.6,2C54.9,92.4,53.1,93.7,50.2,93.7z M74.1,74.1  c-3.4,0-6.2-2.8-6.2-6.2V45.6c0-3.4,2.8-6.2,6.2-6.2s6.2,2.8,6.2,6.2v22.3C80.3,71.3,77.5,74.1,74.1,74.1z M84.1,67.8V45.6  c0-0.2,0-0.4,0-0.6c4.2,2.1,7,6.5,7,11.4C91.1,61.3,88.3,65.7,84.1,67.8z"/><text x="0" y="115" fill="#000000" font-size="5px" font-weight="bold" font-family="'Helvetica Neue', Helvetica, Arial-Unicode, Arial, Sans-serif">Created by Debashis Howlader</text><text x="0" y="120" fill="#000000" font-size="5px" font-weight="bold" font-family="'Helvetica Neue', Helvetica, Arial-Unicode, Arial, Sans-serif">from the Noun Project</text></svg>