<svg xmlns="http://www.w3.org/2000/svg" version="1.1" viewBox="-5.0 -10.0 110.0 135.0">
 <g>
  <path d="m50 100c-27.5 0-50-22.5-50-50s22.5-50 50-50 50 22.5 50 50-22.5 50-50 50zm0-97.031c-25.938 0-47.031 21.094-47.031 47.031s21.094 47.031 47.031 47.031 47.031-21.094 47.031-47.031-21.094-47.031-47.031-47.031z"/>
  <path d="m50 88.125c-20.938 0-38.125-17.188-38.125-38.125s17.188-38.125 38.125-38.125 38.125 17.031 38.125 38.125-17.188 38.125-38.125 38.125zm0-73.125c-19.375 0-35 15.625-35 35s15.625 35 35 35 35-15.781 35-35-15.625-35-35-35z"/>
  <path d="m50 22.812c-0.78125 0-1.5625-0.625-1.5625-1.5625v-7.8125c0-0.78125 0.625-1.5625 1.5625-1.5625s1.5625 0.625 1.5625 1.5625v7.9688c0 0.78125-0.78125 1.4062-1.5625 1.4062z"/>
  <path d="m50 88.125c-0.78125 0-1.5625-0.625-1.5625-1.5625v-7.9688c0-0.78125 0.625-1.5625 1.5625-1.5625s1.5625 0.625 1.5625 1.5625v7.9688c0 0.78125-0.78125 1.5625-1.5625 1.5625z"/>
  <path d="m21.406 51.562h-7.9688c-0.78125 0-1.5625-0.625-1.5625-1.5625s0.625-1.5625 1.5625-1.5625h7.9688c0.78125 0 1.5625 0.625 1.5625 1.5625s-0.78125 1.5625-1.5625 1.5625z"/>
  <path d="m86.562 51.562h-7.9688c-0.78125 0-1.5625-0.625-1.5625-1.5625s0.625-1.5625 1.5625-1.5625h7.9688c0.78125 0 1.5625 0.625 1.5625 1.5625s-0.78125 1.5625-1.5625 1.5625z"/>
  <path d="m57.031 58.75c-0.46875 0-0.78125-0.15625-1.0938-0.46875l-14.062-14.062c-0.3125-0.3125-0.46875-0.78125-0.46875-1.25 0.15625-0.46875 0.46875-0.9375 0.78125-1.0938l27.031-13.125c0.625-0.3125 1.25-0.15625 1.7188 0.3125s0.625 1.0938 0.3125 1.7188l-12.969 27.188c-0.15625 0.46875-0.625 0.78125-1.0938 0.78125h-0.15625zm-11.562-15 10.938 10.938 10.156-21.25z"/>
  <path d="m30.312 71.562c-0.46875 0-0.78125-0.15625-1.0938-0.46875-0.46875-0.46875-0.625-1.0938-0.3125-1.7188l12.656-26.719c0.3125-0.78125 1.25-1.0938 2.0312-0.78125s1.0938 1.25 0.78125 2.0312l-10.938 22.969 22.969-10.938c0.78125-0.3125 1.7188 0 2.0312 0.78125s0 1.7188-0.78125 2.0312l-26.719 12.812h-0.625z"/>
 </g>
<text x="0.0" y="117.5" font-size="5.0" font-weight="bold" font-family="Arbeit Regular, Helvetica, Arial-Unicode, Arial, Sans-serif" fill="#000000">Created by Haider Ali</text><text x="0.0" y="122.5" font-size="5.0" font-weight="bold" font-family="Arbeit Regular, Helvetica, Arial-Unicode, Arial, Sans-serif" fill="#000000">from Noun Project</text></svg>