<svg xmlns="http://www.w3.org/2000/svg" xmlns:xlink="http://www.w3.org/1999/xlink" version="1.1" x="0px" y="0px" viewBox="0 0 100 125" style="enable-background:new 0 0 100 100;" xml:space="preserve"><path d="M34.7304611,40.6859131c0-0.5787315,0.4691429-1.0477715,1.0477715-1.0477715h13.8532562  c0.5786285,0,1.0477715,0.4690399,1.0477715,1.0477715c0,0.5787277-0.4691429,1.0477676-1.0477715,1.0477676H35.7782326  C35.199604,41.7336807,34.7304611,41.2646408,34.7304611,40.6859131z M39.6505737,8.0900793  c-4.1442108,1.218236-7.1644211,4.7755327-7.6941395,9.0623789c-0.0710106,0.5742264,0.3369427,1.0972919,0.911272,1.1683025  c0.0436897,0.0055256,0.0869713,0.0079803,0.1298447,0.0079803c0.521328,0,0.9729729-0.3886147,1.0384598-0.9192524  c0.4272919-3.4574308,2.8631477-6.3263111,6.2055702-7.3090038c0.5551949-0.1630993,0.8729019-0.745512,0.7097015-1.3007059  C40.7880783,8.2445841,40.2061768,7.9265699,39.6505737,8.0900793z M35.7782326,45.5578308h13.8532562  c0.5786285,0,1.0477715-0.4690399,1.0477715-1.0477676c0-0.5787315-0.4691429-1.0477715-1.0477715-1.0477715H35.7782326  c-0.5786285,0-1.0477715,0.4690399-1.0477715,1.0477715C34.7304611,45.0887909,35.199604,45.5578308,35.7782326,45.5578308z   M38.4811478,47.2862396c-0.5786285,0-1.0477715,0.4690399-1.0477715,1.0477676s0.4691429,1.0477676,1.0477715,1.0477676h8.4475288  c0.5786285,0,1.0477676-0.4690399,1.0477676-1.0477676s-0.4691391-1.0477676-1.0477676-1.0477676H38.4811478z   M66.5551987,34.4516869c-0.6223145,0.3591499-1.0081635,1.0295563-1.0071411,1.7492828  c0.0017395,1.2921143-0.925087,2.3632088-2.2035904,2.54739c-0.6282501,0.0904503-1.2707253,0.1364937-1.9094162,0.1364937  c-0.6386871,0-1.2811623-0.0460434-1.9097214-0.1366997c-1.2781944-0.1839752-2.2050209-1.2550697-2.2032814-2.547184  c0.0010262-0.7197266-0.3848267-1.3901329-1.0070419-1.7492828c-0.6219101-0.3591461-1.3951492-0.358532-2.0180817,0.0018425  c-0.2807159,0.1626396-0.5788307,0.2672119-0.8805237,0.3169937c-0.3492241,1.7863197-1.9248161,3.1392097-3.811924,3.1392097  H35.8052444c-2.1425018,0-3.8855438-1.7431412-3.8855438-3.88554c0-1.7241135-0.5561142-3.1891479-1.7001686-4.4792118  c-2.7069054-3.0522404-4.1976223-6.9815769-4.1976223-11.0639858c0-9.1990795,7.4839725-16.6830521,16.683054-16.6830521  c4.0097618,0,7.885582,1.4435465,10.9136734,4.0648098c2.1876259,1.8937082,3.8301888,4.3116083,4.7922134,6.9948263  c0.3214417-0.2245436,0.6988525-0.3794575,1.1144791-0.4393158c1.2602921-0.1815176,2.5659103-0.1811085,3.8194466,0  c1.2786064,0.1841784,2.2052269,1.2556849,2.2033806,2.5473871c-0.0011215,0.7197266,0.3847275,1.3899307,1.0070419,1.7492828  c0.6222153,0.3591461,1.3953552,0.3581238,2.0179825-0.0020466c1.1157074-0.645237,2.5050278-0.3800201,3.3038483,0.6309109  c0.796669,1.0080681,1.4414978,2.1223469,1.9162674,3.3113174c0.4786606,1.1998177,0.013504,2.5373592-1.1059875,3.1809597  c-0.624054,0.358942-1.0118561,1.0283279-1.0118561,1.7472363s0.3876953,1.3882923,1.0118561,1.7470303  c1.1195984,0.6440105,1.5845413,1.9817562,1.1057816,3.1809597c-0.4744644,1.1887684-1.1191864,2.3028393-1.9160614,3.3115215  c-0.7990265,1.0111389-2.188652,1.2763557-3.3037491,0.6309128C67.9504547,34.0935631,67.1774139,34.0925407,66.5551987,34.4516869z   M51.3834343,34.2187042c-0.1406937-0.1161346-0.2725334-0.2470055-0.390358-0.3960876  c-0.796772-1.0084763-1.4414978-2.1225471-1.9160652-3.3115196c-0.4786568-1.1992035-0.013607-2.5369511,1.1057854-3.1805496  c0.6242599-0.3589439,1.0119553-1.0283279,1.0119553-1.7472363s-0.3877945-1.3882942-1.0120583-1.7474403  c-1.1193924-0.6433964-1.5844421-1.981142-1.1056824-3.1805515c0.4746704-1.1891747,1.1193962-2.3034534,1.9161682-3.3117256  c0.7986183-1.0109329,2.1879349-1.276762,3.3037453-0.6307068c0.6227264,0.3603745,1.3958664,0.3611927,2.0181808,0.0020466  c0.3219566-0.1858158,0.5787811-0.4558926,0.7533417-0.7721157C55.8570137,9.0525122,49.7391815,3.8934801,42.7049637,3.8934801  c-8.0435677,0-14.5875168,6.5438461-14.5875168,14.5875149c0,3.5695763,1.3032646,7.0051098,3.6698513,9.673645  c1.4783344,1.6668129,2.2279415,3.6416111,2.2279415,5.8695526c0,0.9869881,0.8030128,1.7900047,1.7900047,1.7900047h13.7992325  C50.5257263,35.8141975,51.2860756,35.1144753,51.3834343,34.2187042z M69.6229935,32.6401939  c0.2091446,0.120945,0.4600372,0.0730591,0.6098328-0.1166458c0.6715393-0.8496742,1.2145538-1.7881641,1.6141205-2.7890682  c0,0,0,0,0-0.000206c0.0898361-0.2249012,0.0059357-0.4663792-0.2042313-0.5873222  c-1.2722626-0.7313919-2.0627975-2.0969696-2.0627975-3.5636406s0.790535-2.8322487,2.0628967-3.5638447  c0.2101669-0.120945,0.2940674-0.3624229,0.2042313-0.5875282c-0.3996658-1.000906-0.9427872-1.9393959-1.6142197-2.788866  c-0.1498947-0.189703-0.4004822-0.2373848-0.6099319-0.1166458c-1.2689896,0.7348709-2.8458633,0.7360992-4.1152573,0.0032749  c-1.2698059-0.7330284-2.0572662-2.0998344-2.0550156-3.5673246c0.0004082-0.2420921-0.1669884-0.4354792-0.4069328-0.4702682  c-1.0565681-0.1520491-2.1594849-0.1526632-3.2215805,0.000205c-0.2395325,0.034584-0.4068298,0.2279711-0.4065208,0.4702673  c0.0022507,1.4672861-0.7851105,2.8340921-2.0549164,3.5671206c-1.2691917,0.7330284-2.8462677,0.731596-4.1154594-0.0032749  c-0.2093468-0.120739-0.4602394-0.0732613-0.6098328,0.1164417c-0.6714325,0.8494701-1.2145538,1.7879601-1.6142197,2.7892742  c-0.0898361,0.2251072-0.0059319,0.4663792,0.2040291,0.5871181c1.2725677,0.731802,2.0631027,2.0973797,2.0631027,3.5640507  s-0.790535,2.8322487-2.0628967,3.5638447c-0.2099648,0.120739-0.2939682,0.3622169-0.2042351,0.5871181  c0.3996658,1.0011101,0.9426842,1.9393959,1.6141167,2.7892742c0.1497993,0.1897049,0.400692,0.2377968,0.6098328,0.1164436  c0.6357231-0.3677444,1.3485947-0.5517159,2.061058-0.5517159c0.7106171,0,1.4209328,0.1827431,2.0545044,0.548645  c1.2695999,0.7328224,2.0570641,2.0996284,2.0549164,3.5669136c-0.000309,0.2425041,0.1668854,0.4358902,0.4066238,0.4702682  c1.0600471,0.1530724,2.1619415,0.1528702,3.2213745,0.000206c0.2400475-0.034584,0.407238-0.2279701,0.4069328-0.4704742  c-0.0021477-1.4672852,0.7853127-2.8340912,2.0550194-3.5669136C66.7765198,31.9040966,68.3535995,31.905529,69.6229935,32.6401939z   M66.6536331,25.5833111c0,2.8774757-2.3411026,5.2185822-5.2185822,5.2185822  c-1.3939209,0-2.7044487-0.5429153-3.6901093-1.5284729c-0.9856567-0.9857616-1.5283699-2.2962914-1.5283699-3.6901093  c0-2.8774757,2.3410072-5.2185822,5.2184792-5.2185822C64.3125305,20.3647289,66.6536331,22.7058353,66.6536331,25.5833111z   M64.5580978,25.5833111c0-1.722065-1.4009819-3.1230469-3.1230469-3.1230469c-1.721962,0-3.1229401,1.4009819-3.1229401,3.1230469  c-0.000103,0.8341217,0.3247643,1.618515,0.9146461,2.2082939c0.5898819,0.5899849,1.374073,0.9147511,2.2082939,0.9147511  C63.1571159,28.706356,64.5580978,27.3053761,64.5580978,25.5833111z M33.0492249,97.1542892  c0,0.5787277-0.4691429,1.0477676-1.0477676,1.0477676H2.8504696c-0.5786262,0-1.0477686-0.4690399-1.0477686-1.0477676  c0-7.0214844,4.6563792-12.9746246,11.0428553-14.9370422c-2.1621475-1.470459-3.5852814-3.9502106-3.5852814-6.7564697  c0-4.5023346,3.6630974-8.1654358,8.1657391-8.1654358c4.5024376,0,8.1655331,3.6631012,8.1655331,8.1654358  c0,2.8062592-1.4231339,5.2860107-3.5852299,6.7564697C28.3928452,84.1796646,33.0492249,90.1328049,33.0492249,97.1542892z   M17.4219208,81.5309753c0.0013294,0,0.0026608-0.0000992,0.0039902-0.0000992c0.0013809,0,0.0027122,0.0000992,0.0040932,0.0000992  c3.3451843-0.0021515,6.0660057-2.7244034,6.0660057-6.0701981c0-3.3469315-2.7229691-6.0699005-6.0699959-6.0699005  c-3.3471298,0-6.0702019,2.7229691-6.0702019,6.0699005C11.3558121,78.8065186,14.076685,81.5287247,17.4219208,81.5309753z   M30.913578,96.1065216c-0.5362663-6.9703751-6.3784962-12.4778595-13.4834709-12.480011  c-0.0013828,0-0.0027122,0.0001068-0.0040932,0.0001068s-0.0027637-0.0001068-0.0041962-0.0001068  c-7.1049232,0.0021515-12.9472046,5.5095825-13.48347,12.480011H30.913578z M65.6232605,97.1542892  c0,0.5787277-0.4691391,1.0477676-1.0477676,1.0477676H35.4245071c-0.5786247,0-1.0477676-0.4690399-1.0477676-1.0477676  c0-7.0214844,4.6563797-12.9746246,11.0428543-14.9370422c-2.1621475-1.470459-3.5852814-3.9502106-3.5852814-6.7564697  c0-4.5023346,3.6630974-8.1654358,8.1657372-8.1654358c4.5025406,0,8.165638,3.6631012,8.165638,8.1654358  c0,2.8062592-1.4231339,5.2860107-3.5852814,6.7565155C60.9669342,84.1797104,65.6232605,90.1328049,65.6232605,97.1542892z   M49.9959564,81.5309753c0.0013313,0,0.0026627-0.0000992,0.003994-0.0000992c0.0013809,0,0.0027084,0.0000992,0.0040932,0.0000992  c3.3451843-0.0021515,6.0661087-2.7244034,6.0661087-6.0701981c0-3.3469315-2.7230759-6.0699005-6.0701027-6.0699005  c-3.347126,0-6.0702019,2.7229691-6.0702019,6.0699005C43.9298477,78.8065186,46.6507225,81.5287247,49.9959564,81.5309753z   M63.4876137,96.1065216c-0.5362625-6.9703751-6.3785973-12.4778595-13.4834709-12.480011  c-0.0013809,0-0.0027084,0.0001068-0.0040932,0.0001068c-0.0013809,0-0.0027618-0.0001068-0.0041924-0.0001068  c-7.1049271,0.0021515-12.9472084,5.5095825-13.4834709,12.480011H63.4876137z M98.1972961,97.1542892  c0,0.5787277-0.4691391,1.0477676-1.0477676,1.0477676H67.9985428c-0.5786209,0-1.0477676-0.4690399-1.0477676-1.0477676  c0-7.0214844,4.6563797-12.9745789,11.0428543-14.9369965c-2.1621475-1.4705048-3.5852814-3.9502563-3.5852814-6.7565155  c0-4.5023346,3.6631012-8.1654358,8.165741-8.1654358c4.5025406,0,8.1656342,3.6631012,8.1656342,8.1654358  c0,2.8062592-1.4231339,5.2860107-3.5852814,6.7564697C93.5409164,84.1796646,98.1972961,90.1328049,98.1972961,97.1542892z   M82.5700455,81.5309753c0.0013809,0,0.0026627-0.0000992,0.0040436-0.0000992s0.0026627,0.0000992,0.0040436,0.0000992  c3.3451309-0.0021973,6.0660553-2.7244034,6.0660553-6.0701981c0-3.3469315-2.7230759-6.0699005-6.0700989-6.0699005  c-3.3471298,0-6.0702057,2.7229691-6.0702057,6.0699005C76.5038834,78.806572,79.2248077,81.5287781,82.5700455,81.5309753z   M96.0616531,96.1065216c-0.5362625-6.9704285-6.3784943-12.4778595-13.4834213-12.480011  c-0.0013809,0-0.0027618,0.0001068-0.0041428,0.0001068s-0.0027618-0.0001068-0.0041428-0.0001068  c-7.1049271,0.0021515-12.947258,5.5095825-13.4835205,12.480011H96.0616531z M76.9115372,26.8809471h4.6147842v35.1096573  c0,0.5787277,0.4691391,1.0477676,1.0477676,1.0477676s1.0477676-0.4690399,1.0477676-1.0477676V25.8331795  c0-0.5787296-0.4691391-1.0477695-1.0477676-1.0477695h-5.6625519c-0.5786285,0-1.0477676,0.4690399-1.0477676,1.0477695  C75.8637695,26.4119072,76.3329086,26.8809471,76.9115372,26.8809471z M48.952282,54.5880814v7.402523  c0,0.5787277,0.4691429,1.0477676,1.0477676,1.0477676c0.5786285,0,1.0477715-0.4690399,1.0477715-1.0477676v-7.402523  c0-0.5787315-0.4691429-1.0477715-1.0477715-1.0477715C49.4214249,53.5403099,48.952282,54.0093498,48.952282,54.5880814z   M17.4260139,63.038372c0.5786266,0,1.0477676-0.4690399,1.0477676-1.0477676V26.8809471h4.6146832  c0.5786266,0,1.0477695-0.4690399,1.0477695-1.0477676c0-0.5787296-0.4691429-1.0477695-1.0477695-1.0477695h-5.6624508  c-0.5786266,0-1.0477695,0.4690399-1.0477695,1.0477695v36.1574249  C16.3782444,62.5693321,16.8473873,63.038372,17.4260139,63.038372z"/><text x="0" y="115" fill="#000000" font-size="5px" font-weight="bold" font-family="'Helvetica Neue', Helvetica, Arial-Unicode, Arial, Sans-serif">Created by miftakhudin</text><text x="0" y="120" fill="#000000" font-size="5px" font-weight="bold" font-family="'Helvetica Neue', Helvetica, Arial-Unicode, Arial, Sans-serif">from the Noun Project</text></svg>