<svg xmlns="http://www.w3.org/2000/svg" data-name="Layer 1" viewBox="0 0 100 125" x="0px" y="0px"><path d="M51.884,33.134a1.332,1.332,0,0,1,1.676-.856,11.509,11.509,0,0,1,7.978,10.979,1.331,1.331,0,0,1-2.661,0A8.853,8.853,0,0,0,52.74,34.81,1.332,1.332,0,0,1,51.884,33.134ZM92.075,79.349a10.011,10.011,0,0,1-10,10H17.925a10,10,0,1,1,0-20h2.381A16.934,16.934,0,0,1,33.864,46.53a21.745,21.745,0,0,1-.243-3.409,16.379,16.379,0,0,1,32.758,0A15.761,15.761,0,0,1,65.231,49.7a16.808,16.808,0,0,1,.461,2.034A16.941,16.941,0,0,1,78.2,68.079q0,.635-.047,1.27h3.918A10.011,10.011,0,0,1,92.075,79.349ZM36.282,43.121a18.156,18.156,0,0,0,.283,3.446,1.391,1.391,0,0,1,.047.231,8.61,8.61,0,0,0,3.138,4.99c2.209,2.076,4.7,4.415,4.951,12.123H55.3c.255-7.709,2.743-10.047,4.951-12.123a10.827,10.827,0,0,0,2.343-2.762c.019-.042.041-.083.064-.124a12.357,12.357,0,0,0,1.062-5.781,13.719,13.719,0,0,0-27.437,0Zm6.458,29.8a1.232,1.232,0,0,0,1.231,1.23h8.152c0-.105-.008-.21-.008-.315a9.971,9.971,0,0,1,.235-2.145H43.971A1.232,1.232,0,0,0,42.74,72.923Zm5.826,3.891.166.686c.14.576.491,1.544,1.268,1.544s1.128-.968,1.268-1.544l.166-.686Zm6.21-2.976a7.329,7.329,0,1,0,7.329-7.329A7.338,7.338,0,0,0,54.776,73.838Zm.484-7.266H43.971a1.23,1.23,0,1,0,0,2.46H53.35A10.04,10.04,0,0,1,55.26,66.572ZM89.414,79.349a7.347,7.347,0,0,0-7.339-7.339H76.657a1.33,1.33,0,0,1-1.312-1.551A14.289,14.289,0,0,0,64.221,54.111a1.331,1.331,0,0,1-1.05-1.164c-.009-.086-.02-.171-.03-.257-.351.362-.711.7-1.069,1.037-2.047,1.924-3.984,3.749-4.125,10.692a3.72,3.72,0,0,1,.316.2,9.99,9.99,0,1,1-4.695,14.4A3.826,3.826,0,0,1,50,81.705c-1.869,0-3.309-1.337-3.853-3.577l-.32-1.314H43.971a3.888,3.888,0,0,1-2.926-6.452,3.883,3.883,0,0,1,1.008-5.943c-.141-6.943-2.078-8.768-4.125-10.692a11.674,11.674,0,0,1-3.394-4.6,14.276,14.276,0,0,0-10.99,20.92,1.33,1.33,0,0,1-1.172,1.96H17.925a7.339,7.339,0,1,0,0,14.677h64.15A7.347,7.347,0,0,0,89.414,79.349ZM60,77.679a1.329,1.329,0,0,0,1.881,0l5.8-5.8A1.33,1.33,0,0,0,65.8,70l-4.859,4.86-1.7-1.7a1.33,1.33,0,1,0-1.882,1.881ZM50.831,23.125a1.33,1.33,0,0,0,1.33-1.331V11.982a1.33,1.33,0,0,0-2.66,0v9.812A1.33,1.33,0,0,0,50.831,23.125Zm14.907,6.462a1.326,1.326,0,0,0,.941-.39l6.938-6.938a1.33,1.33,0,0,0-1.881-1.881L64.8,27.316a1.331,1.331,0,0,0,.94,2.271Zm4.135,14.492a1.33,1.33,0,0,0,1.33,1.33h9.812a1.331,1.331,0,0,0,0-2.661H71.2A1.33,1.33,0,0,0,69.873,44.079ZM33.675,29.2a1.33,1.33,0,1,0,1.882-1.881l-6.938-6.938a1.33,1.33,0,1,0-1.882,1.881ZM19.34,45.409h9.812a1.331,1.331,0,0,0,0-2.661H19.34a1.331,1.331,0,1,0,0,2.661ZM33.285,75.3H21.644a1.331,1.331,0,0,0,0,2.661H33.285a1.331,1.331,0,1,0,0-2.661Zm0,5.987H21.644a1.331,1.331,0,0,0,0,2.661H33.285a1.331,1.331,0,1,0,0-2.661Z"/><text x="0" y="115" fill="#000000" font-size="5px" font-weight="bold" font-family="'Helvetica Neue', Helvetica, Arial-Unicode, Arial, Sans-serif">Created by ramacae</text><text x="0" y="120" fill="#000000" font-size="5px" font-weight="bold" font-family="'Helvetica Neue', Helvetica, Arial-Unicode, Arial, Sans-serif">from the Noun Project</text></svg>