<svg xmlns="http://www.w3.org/2000/svg" data-name="Layer 1" viewBox="0 0 100 125" x="0px" y="0px"><path d="M50,49.042A14.761,14.761,0,1,0,64.761,63.8,14.778,14.778,0,0,0,50,49.042Zm-8.244,24.29A9.421,9.421,0,0,1,50,68.45H50a9.427,9.427,0,0,1,8.24,4.882,12.573,12.573,0,0,1-16.488,0Zm4.691-10.586A3.553,3.553,0,1,1,50,66.3H50A3.557,3.557,0,0,1,46.447,62.746ZM59.8,71.73a11.593,11.593,0,0,0-5.956-4.77,5.7,5.7,0,1,0-7.681,0A11.581,11.581,0,0,0,40.2,71.73a12.609,12.609,0,1,1,19.592,0Zm15.54-12.462-5.485-.756a20.388,20.388,0,0,0-2.074-5l3.345-4.414a1.076,1.076,0,0,0-.1-1.41l-4.906-4.906a1.075,1.075,0,0,0-1.411-.1l-4.414,3.345a20.359,20.359,0,0,0-5-2.075l-.755-5.484a1.076,1.076,0,0,0-1.066-.929H46.531a1.075,1.075,0,0,0-1.066.929l-.755,5.485a20.372,20.372,0,0,0-5,2.074l-4.414-3.345a1.077,1.077,0,0,0-1.411.1l-4.906,4.907a1.075,1.075,0,0,0-.1,1.41l3.345,4.414a20.388,20.388,0,0,0-2.074,5l-5.485.756a1.075,1.075,0,0,0-.929,1.065v6.939a1.076,1.076,0,0,0,.929,1.066l5.485.755a20.356,20.356,0,0,0,2.074,5l-3.345,4.414a1.076,1.076,0,0,0,.1,1.411l4.906,4.906a1.077,1.077,0,0,0,1.411.1l4.414-3.346a20.378,20.378,0,0,0,5,2.076l.755,5.484a1.076,1.076,0,0,0,1.066.929h6.938a1.076,1.076,0,0,0,1.066-.929l.755-5.485a20.32,20.32,0,0,0,5-2.075l4.414,3.346a1.077,1.077,0,0,0,1.411-.1l4.906-4.906a1.076,1.076,0,0,0,.1-1.411L67.777,74.1a20.372,20.372,0,0,0,2.074-5l5.485-.755a1.076,1.076,0,0,0,.929-1.066V60.333A1.075,1.075,0,0,0,75.336,59.268Zm-1.223,7.066-5.278.728a1.078,1.078,0,0,0-.9.827,18.236,18.236,0,0,1-2.364,5.7,1.078,1.078,0,0,0,.053,1.223l3.22,4.249-3.58,3.58-4.249-3.22a1.074,1.074,0,0,0-1.223-.053,18.227,18.227,0,0,1-5.7,2.364,1.076,1.076,0,0,0-.827.9l-.727,5.279H47.468l-.727-5.278a1.075,1.075,0,0,0-.827-.9,18.248,18.248,0,0,1-5.7-2.365,1.078,1.078,0,0,0-1.223.053l-4.249,3.22-3.58-3.58,3.22-4.249a1.076,1.076,0,0,0,.052-1.223,18.248,18.248,0,0,1-2.363-5.7,1.078,1.078,0,0,0-.9-.827l-5.278-.728V61.271l5.278-.727a1.077,1.077,0,0,0,.9-.828,18.217,18.217,0,0,1,2.364-5.7,1.078,1.078,0,0,0-.053-1.223l-3.22-4.249,3.58-3.58,4.249,3.22a1.076,1.076,0,0,0,1.223.052,18.258,18.258,0,0,1,5.7-2.363,1.076,1.076,0,0,0,.827-.9l.727-5.279h5.064l.727,5.279a1.075,1.075,0,0,0,.827.9,18.26,18.26,0,0,1,5.7,2.364,1.076,1.076,0,0,0,1.223-.052l4.249-3.22,3.58,3.58-3.22,4.249a1.076,1.076,0,0,0-.052,1.223,18.252,18.252,0,0,1,2.363,5.7,1.077,1.077,0,0,0,.9.828l5.278.727ZM24.567,44.89l-1.318-6.885,5.113-4.8a1.076,1.076,0,0,0-.6-1.852l-6.956-.874-2.98-6.345a1.077,1.077,0,0,0-1.948,0L12.9,30.483l-6.955.874a1.076,1.076,0,0,0-.6,1.852l5.113,4.8L9.135,44.89a1.075,1.075,0,0,0,1.575,1.144l6.141-3.381,6.141,3.381a1.075,1.075,0,0,0,1.575-1.144Zm-3.542-7.063,1,5.218L17.37,40.483a1.079,1.079,0,0,0-1.038,0l-4.654,2.562,1-5.218a1.074,1.074,0,0,0-.32-.986L8.482,33.206l5.271-.662a1.077,1.077,0,0,0,.839-.61l2.259-4.808,2.259,4.808a1.078,1.078,0,0,0,.84.61l5.27.662-3.874,3.635A1.075,1.075,0,0,0,21.025,37.827Zm73.922-5.473a1.075,1.075,0,0,0-.889-.735L87.1,30.745,84.123,24.4a1.077,1.077,0,0,0-1.948,0l-2.98,6.345-6.956.874a1.075,1.075,0,0,0-.6,1.852l5.113,4.8-1.318,6.885A1.076,1.076,0,0,0,77.008,46.3l6.141-3.381L89.29,46.3a1.075,1.075,0,0,0,1.575-1.145l-1.318-6.885,5.113-4.8A1.076,1.076,0,0,0,94.947,32.354Zm-7.3,4.748a1.077,1.077,0,0,0-.32.987l1,5.218-4.653-2.562a1.076,1.076,0,0,0-1.038,0l-4.654,2.562,1-5.218a1.078,1.078,0,0,0-.321-.987l-3.875-3.634,5.271-.663a1.077,1.077,0,0,0,.84-.609l2.259-4.809L85.408,32.2a1.076,1.076,0,0,0,.839.609l5.271.663ZM43.6,24.417,42.284,31.3a1.075,1.075,0,0,0,1.575,1.144L50,29.065l6.141,3.381A1.075,1.075,0,0,0,57.716,31.3L56.4,24.417l5.113-4.8a1.076,1.076,0,0,0-.6-1.852L53.954,16.9l-2.98-6.344a1.076,1.076,0,0,0-1.948,0L46.046,16.9l-6.956.874a1.076,1.076,0,0,0-.6,1.852Zm3.3-5.461a1.076,1.076,0,0,0,.839-.61L50,13.538l2.259,4.808a1.076,1.076,0,0,0,.839.61l5.271.662L54.5,23.253a1.075,1.075,0,0,0-.321.986l1,5.218L50.519,26.9a1.079,1.079,0,0,0-1.038,0l-4.654,2.562,1-5.218a1.075,1.075,0,0,0-.321-.986l-3.874-3.635Z"/><text x="0" y="115" fill="#000000" font-size="5px" font-weight="bold" font-family="'Helvetica Neue', Helvetica, Arial-Unicode, Arial, Sans-serif">Created by loviana</text><text x="0" y="120" fill="#000000" font-size="5px" font-weight="bold" font-family="'Helvetica Neue', Helvetica, Arial-Unicode, Arial, Sans-serif">from the Noun Project</text></svg>