<svg xmlns="http://www.w3.org/2000/svg" xmlns:xlink="http://www.w3.org/1999/xlink" version="1.1" x="0px" y="0px" viewBox="0 0 512 640" style="enable-background:new 0 0 512 512;" xml:space="preserve"><g><g><path d="M387.865,103.554c1.685-2.049,1.389-5.079-0.657-6.767c-36.85-30.341-83.43-47.05-131.161-47.05    c-47.787,0-94.387,16.728-131.213,47.102c-2.047,1.69-2.338,4.72-0.648,6.767c0.953,1.152,2.324,1.749,3.713,1.749    c1.075,0,2.159-0.359,3.056-1.098c35.103-28.956,79.53-44.905,125.092-44.905c45.511,0,89.918,15.93,125.049,44.858    C383.152,105.899,386.176,105.603,387.865,103.554z"/><path d="M399.244,397.736c-1.84-1.911-4.882-1.962-6.797-0.12c-36.765,35.491-85.205,55.035-136.4,55.035    c-51.176,0-99.654-19.563-136.494-55.087c-1.911-1.842-4.948-1.784-6.797,0.122c-1.845,1.913-1.789,4.955,0.122,6.797    c38.648,37.26,89.491,57.781,143.169,57.781c53.697,0,104.512-20.504,143.075-57.734    C401.033,402.689,401.089,399.644,399.244,397.736z"/><path d="M72.024,173.599c-2.465-1.019-5.267,0.127-6.295,2.577c-10.614,25.344-15.993,52.186-15.993,79.776    c0,27.785,5.431,54.742,16.148,80.126c0.775,1.835,2.554,2.941,4.427,2.941c0.624,0,1.258-0.122,1.868-0.38    c2.446-1.033,3.591-3.852,2.558-6.297c-10.21-24.196-15.388-49.897-15.388-76.389c0-26.309,5.131-51.902,15.252-76.063    C75.624,177.441,74.47,174.624,72.024,173.599z"/><path d="M439.821,338.638c0.61,0.258,1.244,0.38,1.868,0.38c1.873,0,3.652-1.105,4.427-2.941    c10.717-25.384,16.148-52.341,16.148-80.126c0-27.59-5.38-54.432-15.993-79.776c-1.028-2.45-3.83-3.591-6.295-2.577    c-2.446,1.026-3.6,3.842-2.577,6.29c10.121,24.161,15.252,49.754,15.252,76.063c0,26.492-5.178,52.193-15.388,76.389    C436.23,334.787,437.375,337.606,439.821,338.638z"/><path d="M348.378,286.267c8.501,0,15.421-6.917,15.421-15.421v-29.691c0-8.504-6.919-15.421-15.421-15.421h-6.102    c-1.117-3.187-2.403-6.311-3.859-9.346l4.314-4.314c6.009-6.013,6.009-15.798,0-21.814l-20.993-20.986    c-5.811-5.826-15.993-5.823-21.814-0.002l-4.309,4.312c-3.032-1.451-6.159-2.741-9.351-3.861v-6.1    c0-8.504-6.915-15.421-15.416-15.421h-29.696c-8.501,0-15.416,6.917-15.416,15.421v6.088c-3.14,1.094-6.267,2.387-9.351,3.87    l-4.309-4.309c-5.995-5.995-15.773-6.004-21.814,0l-20.993,20.99c-6.009,6.013-6.009,15.798,0,21.816l4.309,4.307    c-1.469,3.07-2.765,6.196-3.863,9.349h-6.093c-8.501,0-15.421,6.917-15.421,15.421v29.691c0,8.504,6.919,15.421,15.421,15.421    h6.088c1.103,3.187,2.394,6.316,3.863,9.356l-4.305,4.305c-5.99,5.995-5.995,15.775,0,21.814l21.002,21    c6.032,5.99,15.81,5.978,21.805-0.012l4.3-4.302c3.047,1.467,6.178,2.76,9.36,3.866v6.086c0,8.504,6.915,15.421,15.416,15.421    h29.696c8.501,0,15.416-6.917,15.416-15.421v-6.091c3.155-1.101,6.281-2.394,9.351-3.868l4.309,4.312    c5.821,5.816,16.003,5.814,21.814-0.002l21.007-21c5.98-6.027,5.976-15.808-0.014-21.805l-4.309-4.309    c1.479-3.082,2.774-6.208,3.868-9.349H348.378z M334.196,280.073c-1.446,4.79-3.427,9.581-5.887,14.24    c-0.981,1.864-0.638,4.152,0.854,5.642l6.769,6.764c2.258,2.26,2.253,5.957,0,8.224l-20.993,20.988    c-2.188,2.195-6.032,2.185-8.22,0l-6.764-6.767c-1.493-1.495-3.779-1.84-5.642-0.852c-4.633,2.443-9.431,4.424-14.252,5.887    c-2.028,0.615-3.413,2.483-3.413,4.6v9.579c0,3.201-2.601,5.807-5.802,5.807h-29.696c-3.201,0-5.802-2.605-5.802-5.807V338.8    c0-2.119-1.389-3.99-3.417-4.603c-4.901-1.479-9.689-3.455-14.228-5.875c-0.714-0.38-1.493-0.566-2.263-0.566    c-1.244,0-2.474,0.483-3.399,1.408l-6.764,6.764c-2.267,2.26-5.952,2.249-8.22,0.002l-20.979-20.976    c-2.267-2.279-2.272-5.976-0.014-8.234l6.769-6.767c1.497-1.495,1.84-3.795,0.84-5.664c-2.418-4.528-4.389-9.311-5.872-14.219    c-0.61-2.03-2.479-3.42-4.6-3.42h-9.581c-3.201,0-5.807-2.605-5.807-5.807v-29.691c0-3.201,2.605-5.807,5.807-5.807h9.581    c2.117,0,3.985-1.387,4.6-3.413c1.46-4.826,3.441-9.618,5.887-14.249c0.981-1.866,0.638-4.154-0.854-5.645l-6.769-6.76    c-2.263-2.267-2.263-5.959,0-8.224l20.983-20.979c2.281-2.267,5.976-2.263,8.229-0.009l6.764,6.767    c1.493,1.495,3.784,1.84,5.642,0.852c4.671-2.464,9.464-4.443,14.242-5.884c2.033-0.613,3.422-2.483,3.422-4.603v-9.579    c0-3.201,2.601-5.807,5.802-5.807h29.696c3.202,0,5.802,2.605,5.802,5.807v9.579c0,2.11,1.375,3.974,3.394,4.593    c4.943,1.523,9.745,3.507,14.27,5.894c1.864,0.988,4.15,0.643,5.642-0.852l6.764-6.767c2.183-2.188,6.027-2.192,8.22,0    l20.993,20.986c2.263,2.267,2.263,5.959,0,8.222l-6.769,6.764c-1.493,1.49-1.836,3.779-0.854,5.645    c2.394,4.532,4.375,9.332,5.891,14.268c0.62,2.016,2.483,3.394,4.596,3.394h9.581c3.201,0,5.807,2.605,5.807,5.807v29.691    c0,3.201-2.605,5.807-5.807,5.807h-9.581C336.675,276.653,334.807,278.043,334.196,280.073z"/><path d="M256.014,209.254c-25.79,0-46.773,20.971-46.773,46.747c0,25.776,20.983,46.745,46.773,46.745    c25.776,0,46.745-20.969,46.745-46.745C302.759,230.225,281.79,209.254,256.014,209.254z M256.014,293.133    c-20.49,0-37.159-16.657-37.159-37.131c0-20.476,16.669-37.134,37.159-37.134c20.476,0,37.131,16.657,37.131,37.134    C293.145,276.475,276.49,293.133,256.014,293.133z"/><path d="M455.204,91.001h-17.059c-25.325,0-45.928,20.603-45.928,45.926c0,12.069,9.82,21.887,21.889,21.887h65.132    c12.069,0,21.889-9.818,21.889-21.887C501.128,111.604,480.525,91.001,455.204,91.001z M479.239,149.201h-65.132    c-6.769,0-12.275-5.506-12.275-12.273c0-20.023,16.289-36.312,36.315-36.312h17.059c20.021,0,36.31,16.289,36.31,36.312    C491.514,143.694,486.008,149.201,479.239,149.201z"/><path d="M413.055,44.479c0,18.542,15.087,33.629,33.629,33.629c18.528,0,33.606-15.087,33.606-33.629S465.212,10.85,446.684,10.85    C428.142,10.85,413.055,25.937,413.055,44.479z M470.676,44.479c0,13.242-10.764,24.016-23.992,24.016    c-13.242,0-24.016-10.773-24.016-24.016s10.773-24.016,24.016-24.016C459.912,20.464,470.676,31.237,470.676,44.479z"/><path d="M119.783,136.927c0-25.323-20.603-45.926-45.928-45.926H56.796c-25.321,0-45.924,20.603-45.924,45.926    c0,12.069,9.82,21.887,21.889,21.887h65.132C109.963,158.814,119.783,148.996,119.783,136.927z M97.894,149.201H32.761    c-6.769,0-12.275-5.506-12.275-12.273c0-20.023,16.289-36.312,36.31-36.312h17.059c20.026,0,36.315,16.289,36.315,36.312    C110.169,143.694,104.663,149.201,97.894,149.201z"/><path d="M98.945,44.479c0-18.542-15.078-33.629-33.606-33.629c-18.542,0-33.629,15.087-33.629,33.629s15.087,33.629,33.629,33.629    C83.867,78.109,98.945,63.022,98.945,44.479z M41.324,44.479c0-13.242,10.773-24.016,24.016-24.016    c13.228,0,23.992,10.773,23.992,24.016S78.568,68.495,65.339,68.495C52.097,68.495,41.324,57.722,41.324,44.479z"/><path d="M455.204,433.337h-17.059c-25.325,0-45.928,20.603-45.928,45.926c0,12.069,9.82,21.887,21.889,21.887h65.132    c12.069,0,21.889-9.818,21.889-21.887C501.128,453.94,480.525,433.337,455.204,433.337z M479.239,491.536h-65.132    c-6.769,0-12.275-5.506-12.275-12.273c0-20.023,16.289-36.312,36.315-36.312h17.059c20.021,0,36.31,16.289,36.31,36.312    C491.514,486.03,486.008,491.536,479.239,491.536z"/><path d="M413.055,386.815c0,18.542,15.087,33.629,33.629,33.629c18.528,0,33.606-15.087,33.606-33.629    c0-18.542-15.078-33.629-33.606-33.629C428.142,353.186,413.055,368.273,413.055,386.815z M446.684,362.799    c13.228,0,23.992,10.773,23.992,24.016s-10.764,24.016-23.992,24.016c-13.242,0-24.016-10.773-24.016-24.016    S433.442,362.799,446.684,362.799z"/><path d="M32.761,501.15h65.132c12.069,0,21.889-9.818,21.889-21.887c0-25.323-20.603-45.926-45.928-45.926H56.796    c-25.321,0-45.924,20.603-45.924,45.926C10.872,491.332,20.693,501.15,32.761,501.15z M56.796,442.951h17.059    c20.026,0,36.315,16.289,36.315,36.312c0,6.767-5.506,12.273-12.275,12.273H32.761c-6.769,0-12.275-5.506-12.275-12.273    C20.486,459.24,36.775,442.951,56.796,442.951z"/><path d="M31.71,386.815c0,18.542,15.087,33.629,33.629,33.629c18.528,0,33.606-15.087,33.606-33.629    c0-18.542-15.078-33.629-33.606-33.629C46.797,353.186,31.71,368.273,31.71,386.815z M65.339,362.799    c13.228,0,23.992,10.773,23.992,24.016s-10.764,24.016-23.992,24.016c-13.242,0-24.016-10.773-24.016-24.016    S52.097,362.799,65.339,362.799z"/></g></g><text x="0" y="527" fill="#000000" font-size="5px" font-weight="bold" font-family="'Helvetica Neue', Helvetica, Arial-Unicode, Arial, Sans-serif">Created by Icons Field</text><text x="0" y="532" fill="#000000" font-size="5px" font-weight="bold" font-family="'Helvetica Neue', Helvetica, Arial-Unicode, Arial, Sans-serif">from the Noun Project</text></svg>