<svg xmlns="http://www.w3.org/2000/svg" xmlns:xlink="http://www.w3.org/1999/xlink" version="1.1" x="0px" y="0px" viewBox="0 0 98 122.5" style="enable-background:new 0 0 98 98;" xml:space="preserve"><path d="M67.248,64.919c1.858-3.199,2.84-6.857,2.84-10.577c0-11.628-9.46-21.088-21.088-21.088s-21.088,9.46-21.088,21.088  c0,3.72,0.982,7.377,2.84,10.577c1.802,3.103,4.384,5.714,7.467,7.551c0.812,0.484,1.259,1.27,1.259,2.215v4.798  c0,1.775,1.129,3.291,2.707,3.868c0.052,2.934,2.453,5.306,5.399,5.306h2.83c2.946,0,5.348-2.372,5.4-5.306  c1.578-0.577,2.707-2.093,2.707-3.868v-4.798c0-0.945,0.447-1.731,1.259-2.215C62.863,70.634,65.445,68.023,67.248,64.919z   M54.405,80.776h-10.81c-0.713,0-1.293-0.58-1.293-1.293v-0.564h13.396v0.564C55.698,80.196,55.118,80.776,54.405,80.776z   M50.415,85.833h-2.83c-1.305,0-2.383-0.975-2.553-2.234h7.935C52.798,84.859,51.719,85.833,50.415,85.833z M58.335,70.045  c-1.676,0.999-2.637,2.69-2.637,4.64v1.41H42.302v-1.41c0-1.95-0.961-3.642-2.637-4.64c-5.508-3.282-8.929-9.298-8.929-15.702  c0-10.071,8.193-18.264,18.264-18.264c10.071,0,18.264,8.193,18.264,18.264C67.264,60.747,63.843,66.763,58.335,70.045z M49,38.162  c-8.922,0-16.181,7.259-16.181,16.181S40.078,70.524,49,70.524c8.922,0,16.181-7.259,16.181-16.181S57.922,38.162,49,38.162z   M49,67.701c-7.365,0-13.358-5.992-13.358-13.358S41.635,40.985,49,40.985s13.358,5.992,13.358,13.358S56.365,67.701,49,67.701z   M49,42.162c-6.717,0-12.181,5.464-12.181,12.181S42.283,66.524,49,66.524s12.181-5.464,12.181-12.181S55.717,42.162,49,42.162z   M49,63.701c-5.16,0-9.358-4.198-9.358-9.358S43.84,44.986,49,44.986s9.358,4.198,9.358,9.358S54.16,63.701,49,63.701z   M52.977,56.651c0,1.648-1.078,3.05-2.566,3.536v0.283c0,0.78-0.632,1.412-1.412,1.412s-1.412-0.632-1.412-1.412v-0.223  c-0.823-0.218-1.561-0.716-2.072-1.422c-0.457-0.632-0.315-1.514,0.317-1.971s1.514-0.315,1.971,0.317  c0.17,0.236,0.442,0.376,0.727,0.376h0.726c0.486,0,0.896-0.41,0.896-0.896s-0.41-0.896-0.896-0.896h-0.516  c-2.051,0-3.719-1.669-3.719-3.719c0-1.648,1.078-3.05,2.566-3.536v-0.283c0-0.78,0.632-1.412,1.412-1.412s1.412,0.632,1.412,1.412  v0.223c0.823,0.218,1.561,0.716,2.072,1.422c0.457,0.632,0.315,1.514-0.317,1.971c-0.632,0.457-1.514,0.315-1.971-0.317  c-0.17-0.236-0.442-0.376-0.727-0.376h-0.726c-0.486,0-0.896,0.41-0.896,0.896c0,0.486,0.41,0.896,0.896,0.896h0.516  C51.309,52.931,52.977,54.6,52.977,56.651z M43.579,20.638C43.579,20.638,43.579,20.638,43.579,20.638h1.268v8.253  c0,1.304,1.061,2.366,2.366,2.366h3.575c1.304,0,2.366-1.061,2.366-2.366v-8.253h1.266c0.001,0,0.001,0,0.001,0  c0.823,0,1.56-0.46,1.923-1.2c0.361-0.736,0.273-1.597-0.23-2.249l-5.421-7.015C50.284,9.646,49.667,9.343,49,9.343  c-0.668,0-1.284,0.303-1.693,0.832l-5.421,7.015c-0.503,0.651-0.592,1.513-0.23,2.248C42.019,20.178,42.756,20.638,43.579,20.638z   M49,12.601l4.028,5.213h-1.287c-0.78,0-1.412,0.632-1.412,1.412v9.207H47.67v-9.207c0-0.78-0.632-1.412-1.412-1.412h-1.287  L49,12.601z M17.698,33.102c0.104,0.817,0.651,1.488,1.427,1.753c0.781,0.266,1.627,0.07,2.208-0.512l0.896-0.896l5.836,5.836  c0.461,0.461,1.067,0.692,1.673,0.691c0.606,0,1.212-0.231,1.673-0.692l2.527-2.527c0.447-0.446,0.692-1.04,0.692-1.673  c0-0.632-0.246-1.227-0.692-1.673l-5.836-5.836l0.896-0.896c0.582-0.582,0.779-1.428,0.512-2.209  c-0.265-0.776-0.936-1.322-1.753-1.427l-8.793-1.127c-0.662-0.086-1.313,0.137-1.785,0.609c-0.472,0.472-0.694,1.123-0.609,1.785  L17.698,33.102z M26.019,25.665l-0.91,0.91c-0.265,0.265-0.414,0.624-0.414,0.998s0.149,0.733,0.414,0.998l6.51,6.51l-1.88,1.88  l-6.51-6.51c-0.276-0.276-0.637-0.413-0.998-0.413c-0.361,0-0.723,0.138-0.998,0.413l-0.91,0.91l-0.838-6.535L26.019,25.665z   M25.913,56.13v-3.575c0-1.305-1.061-2.366-2.366-2.366h-8.253v-1.266c0-0.823-0.459-1.561-1.2-1.925  c-0.736-0.362-1.597-0.273-2.249,0.23L4.832,52.65C4.303,53.058,4,53.676,4,54.343c0,0.667,0.303,1.285,0.832,1.693l7.015,5.421  c0.385,0.298,0.844,0.45,1.308,0.45c0.319,0,0.641-0.073,0.941-0.22c0.74-0.364,1.2-1.101,1.2-1.924v-1.268h8.253  C24.852,58.496,25.913,57.435,25.913,56.13z M23.09,55.673h-9.207c-0.78,0-1.412,0.632-1.412,1.412v1.287l-5.213-4.028l5.213-4.028  v1.287c0,0.78,0.632,1.412,1.412,1.412h9.207V55.673z M31.412,69.404c-0.446-0.447-1.041-0.693-1.673-0.693  c-0.633,0-1.227,0.246-1.673,0.692L22.23,75.24l-0.896-0.896c-0.582-0.582-1.428-0.779-2.209-0.512  c-0.776,0.265-1.323,0.936-1.427,1.753l-1.127,8.793c-0.085,0.662,0.137,1.313,0.609,1.785c0.406,0.406,0.944,0.627,1.509,0.627  c0.092,0,0.184-0.006,0.277-0.018l8.793-1.127c0.817-0.105,1.488-0.651,1.753-1.427c0.266-0.781,0.07-1.627-0.512-2.209  l-0.896-0.896l5.836-5.836c0.446-0.446,0.692-1.04,0.692-1.673c0-0.632-0.246-1.227-0.692-1.673L31.412,69.404z M25.109,80.115  c-0.551,0.551-0.551,1.445,0,1.997l0.91,0.91l-6.535,0.838l0.838-6.535l0.91,0.91c0.551,0.551,1.445,0.551,1.996,0l6.51-6.51  l1.88,1.88L25.109,80.115z M66.588,39.282c0.446,0.446,1.04,0.692,1.673,0.692c0.632,0,1.227-0.246,1.673-0.692l5.836-5.836  l0.895,0.895c0.582,0.583,1.428,0.779,2.209,0.513c0.776-0.265,1.323-0.936,1.427-1.753l1.127-8.793  c0.085-0.663-0.137-1.313-0.609-1.785c-0.472-0.472-1.123-0.695-1.785-0.609l-8.793,1.127c-0.817,0.105-1.488,0.652-1.753,1.427  c-0.266,0.781-0.07,1.627,0.512,2.208l0.896,0.896l-5.836,5.836c-0.922,0.922-0.922,2.423,0,3.346L66.588,39.282z M72.891,28.571  c0.551-0.551,0.551-1.445,0-1.997l-0.91-0.91l6.535-0.838l-0.838,6.535l-0.91-0.91c-0.551-0.551-1.445-0.551-1.996,0l-6.51,6.51  l-1.88-1.88L72.891,28.571z M93.168,52.65l-7.015-5.421c-0.652-0.504-1.513-0.592-2.249-0.23c-0.74,0.364-1.2,1.101-1.2,1.923v1.268  h-8.253c-1.304,0-2.366,1.061-2.366,2.366v3.575c0,1.305,1.061,2.366,2.366,2.366h8.253v1.266c0,0.823,0.459,1.561,1.199,1.924  c0.3,0.148,0.622,0.22,0.941,0.22c0.463,0,0.922-0.153,1.307-0.45l7.015-5.421C93.697,55.627,94,55.01,94,54.342  C94,53.675,93.697,53.058,93.168,52.65z M85.529,58.371v-1.287c0-0.78-0.632-1.412-1.412-1.412H74.91v-2.659h9.207  c0.78,0,1.412-0.632,1.412-1.412v-1.287l5.213,4.028L85.529,58.371z M80.302,75.584c-0.105-0.817-0.651-1.488-1.427-1.753  c-0.781-0.266-1.627-0.07-2.208,0.512L75.77,75.24l-5.836-5.836c-0.446-0.446-1.04-0.692-1.673-0.692  c-0.632,0-1.227,0.246-1.673,0.692l-2.528,2.528c-0.922,0.922-0.922,2.423,0,3.346l5.836,5.836l-0.896,0.895  c-0.582,0.582-0.779,1.428-0.513,2.209c0.265,0.776,0.936,1.323,1.753,1.427l8.793,1.127c0.093,0.012,0.185,0.018,0.277,0.018  c0.564,0,1.102-0.221,1.508-0.627c0.472-0.472,0.694-1.123,0.609-1.786L80.302,75.584z M71.981,83.021l0.91-0.91  c0.551-0.551,0.551-1.445,0-1.997l-6.51-6.51l1.88-1.88l6.51,6.51c0.551,0.551,1.445,0.551,1.996,0l0.91-0.91l0.838,6.535  L71.981,83.021z"/><text x="0" y="113" fill="#000000" font-size="5px" font-weight="bold" font-family="'Helvetica Neue', Helvetica, Arial-Unicode, Arial, Sans-serif">Created by MUHAMMAT SUKIRMAN</text><text x="0" y="118" fill="#000000" font-size="5px" font-weight="bold" font-family="'Helvetica Neue', Helvetica, Arial-Unicode, Arial, Sans-serif">from the Noun Project</text></svg>