<svg xmlns="http://www.w3.org/2000/svg" xmlns:xlink="http://www.w3.org/1999/xlink" version="1.1" x="0px" y="0px" viewBox="0 0 72 90" style="enable-background:new 0 0 72 72;" xml:space="preserve"><style type="text/css">
	.st0{fill-rule:evenodd;clip-rule:evenodd;}
</style><path d="M67.17,34.01c1.13,0,1.13,1.7,0,1.7h-5.2c-1.04,0-1.04-1.7,0-1.7H67.17z M57.71,11.89c0.76-0.76,1.99,0.47,1.13,1.23  l-3.69,3.59c-0.76,0.76-1.89-0.38-1.13-1.13L57.71,11.89z M13.18,13.12c-0.85-0.76,0.38-1.99,1.13-1.23L18,15.58  c0.76,0.76-0.38,1.89-1.13,1.13L13.18,13.12z M35.21,3.19c0-1.13,1.61-1.13,1.61,0v5.11c0,1.13-1.61,1.13-1.61,0V3.19z M44.76,63.23  V60.3H27.27v2.93H44.76z M44.76,58.69v-1.8c0-0.57-0.47-1.04-1.04-1.04h-6.9v2.84H44.76z M35.21,55.86h-6.9  c-0.57,0-1.04,0.47-1.04,1.04v1.8h7.94V55.86z M27.93,64.94l1.89,3.03h12.39l1.89-3.03H27.93z M46.37,56.9v7.19  c0,0.19,0,0.28-0.09,0.47l-2.84,4.63c-0.19,0.28-0.47,0.47-0.76,0.47H29.35c-0.28,0-0.57-0.19-0.66-0.47l-2.93-4.63  c-0.09-0.09-0.09-0.28-0.09-0.47V56.9c0-0.76,0.28-1.42,0.76-1.89c-5.11-2.46-9.17-6.71-11.44-11.91c-0.09-0.47,0.09-0.95,0.47-1.13  l4.44-1.8c-1.32-1.04-4.35-1.13-5.58-1.13c-0.47,0-0.85-0.38-0.85-0.85v-7.66c0-0.47,0.38-0.85,0.85-0.85  c7.09,0,8.04-2.36,3.03-7.38c-0.28-0.28-0.28-0.85,0-1.13l5.48-5.48c0.28-0.28,0.85-0.28,1.13,0c4.92,5.3,7.38,3.59,7.38-3.03  c0-0.47,0.38-0.85,0.85-0.85h7.66c0.47,0,0.85,0.38,0.85,0.85c0,7.09,2.36,8.04,7.38,3.03c0.28-0.28,0.85-0.28,1.13,0.09l5.48,5.39  c0.28,0.28,0.28,0.85,0,1.13c-0.95,0.85-2.93,3.12-3.12,4.73l4.35-1.8c0.47-0.19,0.95,0,1.13,0.47c2.93,7.19,2.08,15.32-2.46,21.75  c-2.27,3.22-5.39,5.86-8.98,7.56C46.08,55.48,46.37,56.14,46.37,56.9L46.37,56.9z M28.87,54.16h6.34v-9.83  c-2.08-0.19-3.97-0.95-5.67-2.36c-0.76-0.66,0.28-1.99,1.13-1.23c3.12,2.65,7.85,2.55,10.87-0.19c1.51-1.32,2.46-3.21,2.74-5.3  c0.09-1.04,1.8-0.85,1.61,0.19c-0.28,2.55-1.42,4.73-3.22,6.34c-1.7,1.51-3.78,2.36-5.86,2.55v9.83h6.34  c4.26-1.51,7.85-4.35,10.4-8.13c3.69-5.58,4.54-12.67,2.27-19.01L40.5,33.35c0.09,0.38,0.09,0.66,0.09,1.04  c0,2.55-2.08,4.54-4.63,4.54c-1.61,0-3.03-0.76-3.88-2.08l-15.22,6.34C19.23,48.29,23.58,52.26,28.87,54.16L28.87,54.16z   M35.96,29.76c1.7,0,3.12,0.85,3.97,2.08l3.4-1.42c-0.66-1.23-1.61-2.27-2.74-3.03c-3.22-2.17-7.66-1.7-10.5,1.04  c-1.51,1.51-2.36,3.59-2.36,5.96c0,0.76,0.09,1.61,0.28,2.36l3.5-1.42c-0.09-0.28-0.09-0.66-0.09-0.95  C31.43,31.84,33.41,29.76,35.96,29.76L35.96,29.76z M35.96,31.37c-1.61,0-2.93,1.32-2.93,3.03c0,1.61,1.32,2.93,2.93,2.93  c1.7,0,3.03-1.32,3.03-2.93C38.99,32.69,37.67,31.37,35.96,31.37L35.96,31.37z M44.85,29.76l5.01-2.08  c-0.28-2.17,1.7-4.54,3.03-5.96l-4.26-4.26c-5.58,5.2-9.36,3.59-9.65-3.97h-6.05c-0.19,7.56-3.97,9.17-9.55,3.97l-4.26,4.26  c5.2,5.58,3.59,9.36-3.97,9.65v6.05c1.99,0,5.01,0.38,6.34,2.08l5.01-2.08c-0.28-1.04-0.47-1.99-0.47-3.03  c0-2.84,1.13-5.3,2.93-7.09c3.31-3.31,8.6-3.88,12.58-1.23C42.96,27.02,44.1,28.25,44.85,29.76L44.85,29.76z M46.08,49.33  c-0.28,0.38-0.76,0.38-1.13,0.09c-0.38-0.38-0.38-0.85-0.09-1.23l0.85-0.85l0,0c0.28-0.38,0.47-0.66,0.76-0.95  c0.28-0.38,0.85-0.38,1.23-0.09c0.28,0.28,0.38,0.85,0.09,1.13c-0.28,0.38-0.57,0.66-0.85,0.95l0,0l0,0L46.08,49.33z M50.15,44.42  c-0.28,0.38-0.76,0.47-1.13,0.19s-0.47-0.76-0.28-1.13c1.13-1.61,1.99-3.21,2.46-4.82l0,0l0,0c0.57-1.61,0.76-3.31,0.66-5.2  c0-0.47,0.28-0.85,0.76-0.85c0.47,0,0.85,0.28,0.95,0.76c0.09,2.08-0.19,3.97-0.76,5.77l0,0C52.23,41.01,51.38,42.71,50.15,44.42  L50.15,44.42z M4.76,35.72c-1.04,0-1.04-1.7,0-1.7h5.2c1.13,0,1.13,1.7,0,1.7H4.76z"/><text x="0" y="87" fill="#000000" font-size="5px" font-weight="bold" font-family="'Helvetica Neue', Helvetica, Arial-Unicode, Arial, Sans-serif">Created by Dan's</text><text x="0" y="92" fill="#000000" font-size="5px" font-weight="bold" font-family="'Helvetica Neue', Helvetica, Arial-Unicode, Arial, Sans-serif">from the Noun Project</text></svg>