<svg xmlns="http://www.w3.org/2000/svg" xmlns:xlink="http://www.w3.org/1999/xlink" xml:space="preserve" style="shape-rendering:geometricPrecision;text-rendering:geometricPrecision;image-rendering:optimizeQuality;" viewBox="0 0 173.397 216.74624999999997" x="0px" y="0px" fill-rule="evenodd" clip-rule="evenodd"><defs><style type="text/css">
   
    .fil0 {fill:black}
   
  </style></defs><g><g><path class="fil0" d="M140.04 131.593l-106.683 0c-6.5548,0 -11.8925,-5.335 -11.8925,-11.8928l0.0006 -68.7959c0,-6.5579 5.3369,-11.8921 11.8915,-11.8921l30.2725 -0.0006c0.9342,0 1.6926,0.7588 1.6926,1.694 0.0004,0.9349 -0.7584,1.6934 -1.6932,1.6934l-30.2715 -0.0005c-4.6887,0 -8.5059,3.816 -8.5059,8.5058l0.0001 68.7959c0,4.6895 3.817,8.5059 8.5054,8.5059l106.684 0c4.6919,0 8.5054,-3.8157 8.5054,-8.5059l0.0004 -68.7959c0,-4.6902 -3.8139,-8.5053 -8.5059,-8.5053l-30.268 -0.0005c-0.935,0 -1.6936,-0.7577 -1.6936,-1.6929 0.0006,-0.9352 0.7585,-1.6934 1.6932,-1.6934l30.2685 -0.0006c6.5588,0 11.8921,5.3354 11.8921,11.8927l0.0007 68.7959c0,6.5572 -5.3347,11.8929 -11.8928,11.8928z"/><path class="fil0" d="M135.13 116.482l-96.859 0c-0.9382,0 -1.6936,-0.7579 -1.6936,-1.6928l0.0006 -58.9743c0,-0.9351 0.7543,-1.6929 1.6927,-1.6929l23.0683 -0.0002c0.9382,0 1.6932,0.7583 1.6932,1.6935 0.0007,0.9346 -0.755,1.6933 -1.6934,1.6933l-21.3747 -0.0007 0 55.5879 93.472 0 0 -55.5879 -21.3781 0c-0.935,0 -1.6936,-0.7574 -1.6936,-1.6926 0.0006,-0.9355 0.7585,-1.6933 1.6932,-1.6933l23.0724 -0.0002c0.9342,0 1.6927,0.7583 1.6927,1.6935l0.0003 58.9736c0,0.9351 -0.7588,1.6933 -1.693,1.6931z"/><path class="fil0" d="M71.3791 146.036c-0.935,0 -1.6935,-0.7585 -1.6935,-1.6937l0.0005 -14.4441c0,-0.935 0.7579,-1.693 1.6928,-1.693 0.9353,0 1.6933,0.7581 1.6933,1.6933l0 14.4436c0,0.935 -0.7584,1.6939 -1.6931,1.6939zm30.6428 0c-0.9351,0 -1.6941,-0.7585 -1.6941,-1.6937l0.0002 -14.4441c0,-0.935 0.7583,-1.693 1.6932,-1.693 0.9349,0 1.6933,0.7581 1.6933,1.6933l0.0004 14.4436c0,0.935 -0.7588,1.6939 -1.693,1.6939z"/><path class="fil0" d="M60.4079 160.87l52.5852 0 0 -14.8336 -52.5852 0 0 14.8336zm54.2782 3.3869l-55.9752 0c-0.9351,0 -1.6901,-0.758 -1.6901,-1.6933l0.0002 -18.2211c0,-0.935 0.7548,-1.6928 1.6896,-1.6928l55.9755 -0.0003c0.9351,0 1.6931,0.7585 1.6931,1.6933l0 18.2203c0,0.9359 -0.7584,1.6944 -1.6931,1.6939z"/><path class="fil0" d="M86.7001 30.9427c-5.2522,0 -9.5251,4.2732 -9.5251,9.5256 0.0001,5.2517 4.2722,9.5258 9.525,9.5258 5.2531,-0.0006 9.5251,-4.2735 9.5251,-9.5258 0,-5.2528 -4.2723,-9.5254 -9.525,-9.5256zm0 22.4377c-7.1184,0 -12.9117,-5.7922 -12.9117,-12.9121 0.0006,-7.1205 5.7926,-12.9122 12.9116,-12.9122 7.1192,-0.0003 12.9116,5.7924 12.9116,12.9122 0.0004,7.1194 -5.7926,12.9125 -12.9115,12.9121z"/><path class="fil0" d="M81.1407 68.4093l11.1156 0 0 -6.0317c0,-0.7302 0.4692,-1.3778 1.1606,-1.6071 2.7804,-0.9194 5.3024,-2.3781 7.5001,-4.3361 0.5437,-0.4862 1.3405,-0.5672 1.972,-0.2021l5.2289 3.0187 5.5594 -9.625 -5.2245 -3.0162c-0.6318,-0.3644 -0.96,-1.0927 -0.8155,-1.8075 0.2932,-1.4175 0.4411,-2.875 0.4411,-4.334 0.0006,-1.4595 -0.1482,-2.9171 -0.4411,-4.334 -0.1441,-0.7148 0.1835,-1.4431 0.815,-1.8077l5.225 -3.0164 -5.5594 -9.625 -5.2285 3.0186c-0.6318,0.3652 -1.4291,0.2841 -1.9724,-0.2016 -2.1971,-1.9581 -4.7202,-3.4165 -7.5001,-4.3355 -0.6907,-0.2293 -1.1606,-0.8773 -1.1606,-1.6077l0 -6.0329 -11.1156 0 0 6.0325c0,0.7303 -0.4662,1.3789 -1.1611,1.6081 -2.7759,0.9184 -5.2988,2.3777 -7.4966,4.3355 -0.5467,0.4858 -1.3405,0.5671 -1.9755,0.2022l-5.2275 -3.0192 -5.5563 9.625 5.2245 3.0163c0.631,0.3643 0.9591,1.0932 0.8109,1.8078 -0.2926,1.4164 -0.4409,2.8752 -0.4409,4.334 0.0007,1.4583 0.1482,2.9172 0.4409,4.334 0.1487,0.7145 -0.1799,1.4432 -0.8113,1.8077l-5.2241 3.016 5.5563 9.625 5.2276 -3.0186c0.635,-0.3651 1.4286,-0.2838 1.9754,0.202 2.1981,1.9578 4.7203,3.4167 7.4966,4.3357 0.6951,0.2288 1.1607,0.877 1.1607,1.6076l0.0004 6.0316zm12.8095 3.3869l-14.4994 0c-0.9382,0 -1.6973,-0.7578 -1.6973,-1.693l0.0002 -6.5342c-2.3812,-0.9215 -4.5862,-2.1971 -6.5829,-3.8075l-5.6654 3.2694c-0.8081,0.4683 -1.8453,0.1907 -2.311,-0.6197l-7.2529 -12.5582c-0.2223,-0.3889 -0.2824,-0.8509 -0.1659,-1.2845 0.1135,-0.4339 0.3986,-0.8039 0.7867,-1.0283l5.6625 -3.2688c-0.1945,-1.2542 -0.2933,-2.5285 -0.2933,-3.8031 0.0004,-1.2745 0.0988,-2.549 0.2928,-3.8035l-5.6613 -3.2686c-0.3881,-0.2246 -0.6746,-0.5941 -0.7874,-1.028 -0.1159,-0.4341 -0.0566,-0.8958 0.1658,-1.2848l7.2534 -12.5581c0.4659,-0.8104 1.5024,-1.0872 2.3103,-0.6196l5.6661 3.2691c1.9931,-1.6105 4.2011,-2.886 6.5823,-3.8072l0.0002 -6.5345c0,-0.9351 0.7584,-1.6931 1.6968,-1.6931l14.4997 0c0.9343,0 1.6927,0.7582 1.6927,1.6935l0.0004 6.5337c2.3812,0.9216 4.5892,2.1977 6.586,3.8082l5.6623 -3.27c0.8112,-0.4675 1.8448,-0.1898 2.314,0.6201l7.2499 12.5577c0.2262,0.389 0.2855,0.8513 0.169,1.285 -0.1158,0.4335 -0.3986,0.8038 -0.7902,1.0282l-5.6581 3.2677c0.1905,1.2549 0.2888,2.5298 0.2888,3.8042 0.0001,1.2742 -0.0987,2.5492 -0.2892,3.8036l5.659 3.2681c0.3913,0.2239 0.6733,0.5947 0.7897,1.0285 0.1168,0.4336 0.0565,0.8958 -0.1693,1.2849l-7.249 12.5575c-0.4691,0.8097 -1.5035,1.0872 -2.3148,0.6205l-5.6616 -3.2708c-1.9971,1.6113 -4.2057,2.8873 -6.5869,3.8088l0.0004 6.5338c0,0.935 -0.7588,1.6933 -1.6931,1.693z"/><path class="fil0" d="M63.6075 85.1725c-2.3669,0 -4.2901,1.9251 -4.2901,4.2907 0.0007,2.3657 1.9227,4.2909 4.2898,4.2909 2.3641,-0.0004 4.2898,-1.9248 4.2898,-4.2909 0,-2.3658 -1.9262,-4.2904 -4.2895,-4.2907zm0 11.9682c-4.233,0 -7.6767,-3.4441 -7.6767,-7.6775 0.0004,-4.2335 3.4431,-7.6771 7.6764,-7.6771 4.2334,-0.0005 7.6765,3.4439 7.6765,7.6771 0.0002,4.2334 -3.4431,7.6776 -7.6762,7.6775z"/><path class="fil0" d="M67.5096 100.512c0.4866,0 0.9554,0.2087 1.2834,0.5872l2.6282 3.0434 3.9973 -3.4536 -2.1447 -2.486c-0.508,-0.5882 -0.5508,-1.4454 -0.1028,-2.0808 1.3871,-1.9721 2.1202,-4.294 2.1202,-6.7151 0.0003,-0.1028 -0.0035,-0.2046 -0.0035,-0.3065 -0.0176,-0.7234 0.4232,-1.378 1.1007,-1.6299l3.3061 -1.2295 -1.8455 -4.9522 -3.302 1.2287c-0.6771,0.2524 -1.443,0.0466 -1.9016,-0.5129 -1.3829,-1.6889 -3.1996,-2.9521 -5.2529,-3.6548 -0.6838,-0.2352 -1.143,-0.8784 -1.143,-1.6023l0.0004 -3.5224 -5.2848 0 0 3.5219c0,0.7239 -0.4623,1.3682 -1.1467,1.6028 -2.0529,0.7022 -3.87,1.9664 -5.2529,3.6548 -0.4584,0.559 -1.2241,0.7655 -1.9014,0.5133l-3.302 -1.2291 -1.8415 4.9522 3.302 1.2295c0.681,0.2516 1.1218,0.9085 1.1041,1.6324 -0.0032,0.1012 -0.007,0.2024 -0.007,0.304 0.0007,2.4205 0.7338,4.7427 2.1236,6.7151 0.4488,0.6354 0.4058,1.4933 -0.1023,2.0811l-2.1476 2.4857 4.0005 3.4536 2.6281 -3.044c0.4373,-0.5072 1.1318,-0.7074 1.7738,-0.5122 2.2052,0.671 4.6179,0.6713 6.8228,0 0.1624,-0.0498 0.328,-0.0739 0.491,-0.0744zm3.7354 7.7121c-0.4723,0 -0.9456,-0.198 -1.2807,-0.5862l-3.0445 -3.5262c-2.1693,0.4874 -4.4591,0.4875 -6.6252,0.0006l-3.0442 3.5252c-0.2961,0.3398 -0.7129,0.5497 -1.1609,0.5825 -0.448,0.0343 -0.889,-0.1136 -1.2276,-0.4071l-6.565 -5.6673c-0.7057,-0.6112 -0.7834,-1.6803 -0.1732,-2.3883l2.4274 -2.8132c-1.185,-2.0463 -1.8664,-4.3288 -1.9935,-6.703l-3.8056 -1.4162c-0.8755,-0.3263 -1.3237,-1.3009 -0.9956,-2.1772l3.0236 -8.1273c0.1556,-0.4207 0.4724,-0.7616 0.8817,-0.9486 0.4058,-0.1873 0.8749,-0.2039 1.2947,-0.0473l3.8069 1.4158c1.3724,-1.424 3.0087,-2.5609 4.8149,-3.3497l0 -4.0584c0,-0.935 0.7584,-1.6929 1.6934,-1.6929l8.6714 -0.0001c0.935,0 1.6932,0.7582 1.6932,1.6934l0.0007 4.0573c1.8057,0.789 3.4389,1.9268 4.8147,3.3507l3.807 -1.4164c0.8747,-0.3262 1.848,0.1203 2.1761,0.9969l3.0237 8.1265c0.1548,0.4207 0.1371,0.8866 -0.0463,1.2951 -0.1862,0.4083 -0.5291,0.7257 -0.9524,0.8824l-3.8027 1.4158c-0.1301,2.3741 -0.8117,4.6575 -1.997,6.7036l2.4312 2.8127c0.6104,0.708 0.5321,1.7774 -0.177,2.3884l-6.5611 5.6673c-0.3215,0.2763 -0.7131,0.4117 -1.1081,0.4112z"/><path class="fil0" d="M109.793 85.1725c-2.3678,0 -4.2904,1.9251 -4.2904,4.2907 0.0001,2.3657 1.9226,4.2909 4.2898,4.2909 2.3636,-0.0004 4.2897,-1.9248 4.2897,-4.2909 0.0003,-2.3658 -1.9261,-4.2904 -4.2891,-4.2907zm0 11.9682c-4.2339,0 -7.6771,-3.4441 -7.6771,-7.6775 0.0007,-4.2335 3.4431,-7.6771 7.6765,-7.6771 4.2336,-0.0005 7.6764,3.4439 7.6764,7.6771 0.0005,4.2334 -3.4431,7.6776 -7.6758,7.6775z"/><path class="fil0" d="M113.695 100.512c0.4874,0 0.9559,0.2087 1.284,0.5872l2.6284 3.0434 3.9974 -3.4536 -2.1455 -2.486c-0.508,-0.5882 -0.5503,-1.4454 -0.1022,-2.0808 1.3864,-1.9721 2.1201,-4.294 2.1201,-6.7151 0.0006,-0.1028 -0.0035,-0.2046 -0.0035,-0.3065 -0.0174,-0.7234 0.4233,-1.378 1.1006,-1.6299l3.3056 -1.2295 -1.8415 -4.9522 -3.3052 1.2287c-0.677,0.2524 -1.4397,0.0466 -1.8983,-0.5129 -1.3862,-1.6889 -3.2032,-2.9521 -5.2564,-3.6548 -0.6844,-0.2352 -1.143,-0.8784 -1.143,-1.6023l0.0007 -3.5224 -5.2848 0 0 3.5219c0,0.7239 -0.4627,1.3682 -1.1471,1.6028 -2.0525,0.7022 -3.8699,1.9664 -5.2527,3.6548 -0.4582,0.559 -1.2207,0.7655 -1.9016,0.5133l-3.3017 -1.2291 -1.8415 4.9522 3.302 1.2295c0.6811,0.2516 1.1215,0.9085 1.1038,1.6324 -0.0028,0.1012 -0.0034,0.2024 -0.0034,0.304 0.0006,2.4205 0.7302,4.7431 2.1202,6.7151 0.4481,0.6346 0.4057,1.4933 -0.1023,2.0811l-2.1483 2.4857 4.0005 3.4536 2.6281 -3.044c0.4374,-0.5072 1.1324,-0.7074 1.7744,-0.5122 2.2055,0.671 4.6179,0.6716 6.8227,0 0.1627,-0.0498 0.3281,-0.0739 0.4905,-0.0744zm3.7362 7.7121c-0.4731,0 -0.9458,-0.198 -1.281,-0.5862l-3.0441 -3.5262c-2.1693,0.4874 -4.4595,0.4875 -6.6255,0.0006l-3.044 3.5252c-0.6143,0.7081 -1.6832,0.7868 -2.3888,0.1754l-6.5647 -5.6673c-0.3389,-0.2937 -0.5473,-0.7098 -0.5826,-1.1578 -0.031,-0.4488 0.1165,-0.8905 0.4093,-1.2305l2.4276 -2.8132c-1.1851,-2.0463 -1.8667,-4.3285 -1.9937,-6.703l-3.8063 -1.4162c-0.8747,-0.3263 -1.3231,-1.3009 -0.995,-2.1772l3.0239 -8.1273c0.1547,-0.4207 0.472,-0.7616 0.8813,-0.9486 0.4093,-0.1873 0.8749,-0.2039 1.2947,-0.0473l3.8065 1.4158c1.3723,-1.424 3.0092,-2.5609 4.8153,-3.3497l0.0003 -4.0584c0,-0.935 0.7583,-1.6929 1.6931,-1.6929l8.6717 -0.0001c0.9351,0 1.693,0.7582 1.693,1.6934l0.0001 4.0573c1.8066,0.789 3.4394,1.9268 4.8153,3.3507l3.8064 -1.4164c0.8755,-0.3262 1.8521,0.1203 2.1767,0.9969l3.024 8.1265c0.1547,0.4207 0.1403,0.8866 -0.0466,1.2951 -0.1868,0.4083 -0.5292,0.7257 -0.9525,0.8824l-3.8023 1.4158c-0.131,2.3741 -0.812,4.6575 -1.9973,6.7036l2.4306 2.8127c0.6104,0.708 0.5327,1.7774 -0.1765,2.3884l-6.5616 5.6673c-0.3207,0.2763 -0.7126,0.4117 -1.1073,0.4112z"/></g></g><text x="0" y="188.397" fill="#000000" font-size="5px" font-weight="bold" font-family="'Helvetica Neue', Helvetica, Arial-Unicode, Arial, Sans-serif">Created by Maan Icons</text><text x="0" y="193.397" fill="#000000" font-size="5px" font-weight="bold" font-family="'Helvetica Neue', Helvetica, Arial-Unicode, Arial, Sans-serif">from the Noun Project</text></svg>