<svg xmlns="http://www.w3.org/2000/svg" xmlns:xlink="http://www.w3.org/1999/xlink" version="1.1" x="0px" y="0px" viewBox="0 0 100 125" style="enable-background:new 0 0 100 100;" xml:space="preserve"><style type="text/css">
	.st0{fill-rule:evenodd;clip-rule:evenodd;}
</style><path class="st0" d="M95.442,63.366L82.068,40.202c-0.556-0.963-1.455-1.652-2.533-1.941c-1.077-0.288-2.201-0.142-3.164,0.414  l-6.555,3.784c-1.991,1.15-2.676,3.705-1.526,5.696l0.586,1.015l-1.708,0.798c-0.87,0.406-1.904,0.547-3.073,0.415  c-1.738-0.195-3.331-0.508-5.018-0.839c-2.042-0.401-4.154-0.816-6.553-1.008l-0.03-0.002c-2.86-0.229-4.128-0.214-6.827,2.489  l-1.63,1.633c-6.279-0.707-10.715-2.383-12.952-3.416l0.625-1.083c1.15-1.991,0.465-4.547-1.526-5.697l-6.555-3.785  c-1.992-1.149-4.547-0.465-5.696,1.526L4.558,63.365c-0.556,0.963-0.703,2.086-0.414,3.164c0.289,1.077,0.978,1.977,1.941,2.533  l6.555,3.784c0.641,0.37,1.352,0.559,2.074,0.559c0.363,0,0.729-0.048,1.089-0.144c1.077-0.289,1.977-0.978,2.533-1.941l0.357-0.618  c1.052,1.934,2.544,3.971,4.051,5.295l-1.411,2.443c-0.668,1.157-0.844,2.508-0.497,3.805c0.348,1.297,1.176,2.379,2.333,3.047  c0.784,0.453,1.643,0.668,2.493,0.668c0.524,0,1.041-0.091,1.538-0.25c0.02,0.094,0.022,0.189,0.047,0.282  c0.348,1.297,1.176,2.379,2.333,3.047c0.785,0.453,1.645,0.669,2.495,0.669c0.525,0,1.044-0.092,1.541-0.251  c0.283,1.348,1.097,2.578,2.381,3.319c0.788,0.455,1.649,0.671,2.5,0.671c1,0,1.98-0.308,2.813-0.869  c0.416,0.932,1.104,1.751,2.05,2.297c0.769,0.444,1.624,0.671,2.492,0.671c0.438,0,0.879-0.058,1.313-0.174  c1.297-0.348,2.379-1.176,3.047-2.333l0.045-0.078l4.104,2.37C55.131,95.773,55.986,96,56.854,96c0.437,0,0.878-0.058,1.313-0.174  c1.297-0.348,2.379-1.176,3.047-2.333c0.483-0.836,0.695-1.76,0.664-2.665c0.777,0.172,1.591,0.155,2.384-0.057  c1.297-0.348,2.379-1.176,3.047-2.333c0.484-0.839,0.698-1.761,0.668-2.665c2.078,0.458,4.307-0.451,5.427-2.39  c0.484-0.839,0.7-1.76,0.672-2.663c0.775,0.17,1.585,0.153,2.376-0.059c1.297-0.348,2.379-1.176,3.047-2.333  c0.668-1.157,0.844-2.508,0.497-3.805c-0.098-0.366-0.235-0.715-0.406-1.043c0.647-0.688,1.314-1.547,1.934-2.401l0.14,0.242  c0.556,0.963,1.455,1.652,2.533,1.941c0.361,0.097,0.726,0.144,1.089,0.144c0.722,0,1.434-0.189,2.074-0.559l6.555-3.784  c0.963-0.556,1.652-1.455,1.941-2.533S95.998,64.328,95.442,63.366z M15.128,70.742c-0.404,0.108-0.825,0.054-1.185-0.154  l-6.555-3.784c-0.36-0.208-0.618-0.545-0.726-0.95c-0.108-0.404-0.054-0.826,0.154-1.185l13.373-23.163  c0.289-0.501,0.816-0.781,1.356-0.781c0.265,0,0.533,0.067,0.779,0.209l6.555,3.784c0.746,0.431,1.003,1.389,0.572,2.135  L16.078,70.016C15.87,70.376,15.533,70.634,15.128,70.742z M24.474,83.034c-0.554-0.32-0.951-0.839-1.118-1.464  c-0.167-0.624-0.083-1.273,0.236-1.827l3.729-6.459c0.32-0.554,0.84-0.951,1.464-1.118c0.624-0.167,1.273-0.083,1.827,0.236  c1.139,0.657,1.54,2.124,0.894,3.269l0,0l-3.754,6.503l0,0C27.082,83.306,25.612,83.691,24.474,83.034z M30.884,86.781  c-0.554-0.32-0.951-0.839-1.118-1.464c-0.167-0.624-0.083-1.273,0.237-1.827l5.104-8.841c0.32-0.554,0.839-0.951,1.464-1.118  c0.624-0.167,1.273-0.083,1.827,0.236c1.139,0.657,1.54,2.124,0.894,3.269l0,0l-5.126,8.879  C33.498,87.052,32.026,87.44,30.884,86.781z M37.301,90.517c-1.15-0.664-1.546-2.14-0.882-3.291l5.792-10.032  c0.32-0.554,0.84-0.951,1.464-1.118c0.21-0.056,0.423-0.084,0.634-0.084c0.416,0,0.826,0.108,1.193,0.321  c0.553,0.32,0.951,0.839,1.118,1.464c0.167,0.624,0.083,1.273-0.236,1.827l-5.792,10.032C39.928,90.786,38.452,91.182,37.301,90.517  z M46.491,92.852c-0.624,0.168-1.273,0.083-1.827-0.236c-1.138-0.657-1.54-2.123-0.895-3.268l3.754-6.502l0,0  c0.669-1.133,2.14-1.519,3.279-0.861c0.554,0.32,0.951,0.839,1.118,1.464c0.167,0.625,0.083,1.273-0.237,1.827l-3.729,6.459  C47.635,92.287,47.115,92.685,46.491,92.852z M77.242,77.024c-0.32,0.554-0.84,0.951-1.464,1.118  c-0.625,0.167-1.273,0.083-1.827-0.236l-9.081-5.243c-0.624-0.36-1.421-0.146-1.781,0.477c-0.36,0.623-0.146,1.421,0.477,1.781  l6.762,3.904c0.012,0.008,0.024,0.017,0.037,0.025c1.064,0.685,1.415,2.134,0.782,3.23c-0.664,1.15-2.141,1.546-3.291,0.882  l-6.699-3.868c-0.623-0.36-1.421-0.146-1.781,0.477c-0.36,0.623-0.146,1.421,0.477,1.781l4.307,2.487  c0.003,0.002,0.006,0.004,0.009,0.005c1.15,0.664,1.546,2.14,0.881,3.291c-0.32,0.554-0.839,0.951-1.464,1.118  c-0.624,0.167-1.273,0.083-1.827-0.236l-4.316-2.492c-0.624-0.36-1.421-0.146-1.781,0.477c-0.36,0.623-0.146,1.421,0.477,1.781  l1.945,1.123c0.005,0.003,0.011,0.007,0.016,0.01c1.126,0.67,1.51,2.139,0.854,3.275c-0.32,0.554-0.84,0.951-1.464,1.118  c-0.624,0.167-1.273,0.083-1.827-0.236l-4.104-2.37l2.38-4.123c0.668-1.157,0.844-2.508,0.497-3.805  c-0.348-1.297-1.176-2.379-2.333-3.047c-0.89-0.514-1.878-0.721-2.837-0.656c0.087-0.649,0.046-1.316-0.129-1.969  c-0.348-1.297-1.176-2.379-2.333-3.047c-1.157-0.668-2.508-0.844-3.805-0.497c-0.414,0.111-0.795,0.286-1.158,0.49  c-0.399-1.032-1.116-1.947-2.141-2.539c-1.157-0.668-2.509-0.844-3.805-0.497c-0.787,0.211-1.48,0.617-2.064,1.148  c-0.426-0.814-1.068-1.525-1.917-2.015c-1.157-0.668-2.508-0.844-3.805-0.497c-1.297,0.348-2.379,1.176-3.047,2.333l-0.979,1.695  c-1.515-1.474-3.048-3.849-3.811-5.712l9.498-16.451c2.131,1.011,6.185,2.596,11.944,3.467l-3.352,3.357  c-0.686,0.686-1.009,1.596-0.91,2.561c0.099,0.965,0.599,1.79,1.409,2.323c3.27,2.154,6.753,2.04,9.09-0.296l2.974-2.974  c1.827,2.155,5.378,5.559,11.99,6.02l13.446,7.763c0.206,0.119,0.39,0.265,0.549,0.434c0.011,0.013,0.022,0.025,0.034,0.037  c0.251,0.279,0.435,0.617,0.535,0.992C77.646,75.821,77.562,76.47,77.242,77.024z M77.811,71.564  c-0.048-0.03-0.098-0.06-0.147-0.088l-13.711-7.916c-0.177-0.102-0.376-0.161-0.581-0.173c-6.694-0.366-9.811-4.287-11.142-5.961  l-0.188-0.236c-0.232-0.288-0.576-0.465-0.945-0.485c-0.372-0.019-0.731,0.118-0.992,0.38l-3.997,3.996  c-2.062,2.063-4.751,0.661-5.812-0.038c-0.158-0.104-0.23-0.223-0.249-0.411c-0.019-0.185,0.029-0.321,0.161-0.453l7.304-7.313  c1.956-1.959,2.386-1.924,4.774-1.733l0.03,0.002c2.251,0.18,4.288,0.58,6.259,0.967c1.664,0.327,3.385,0.665,5.23,0.872  c1.652,0.185,3.156-0.031,4.467-0.644l1.914-0.894l9.903,17.152C79.247,69.818,78.452,70.86,77.811,71.564z M93.338,65.854  c-0.108,0.405-0.366,0.742-0.726,0.949l-6.555,3.785c-0.36,0.208-0.78,0.262-1.185,0.154c-0.405-0.108-0.742-0.366-0.949-0.726  L70.549,46.853c-0.431-0.746-0.174-1.704,0.572-2.135l6.555-3.784c0.36-0.208,0.78-0.262,1.185-0.154  c0.405,0.108,0.742,0.366,0.949,0.726l13.374,23.164C93.392,65.029,93.446,65.45,93.338,65.854z M30.309,17.852  c3.819,0,6.926-3.107,6.926-6.926C37.235,7.107,34.128,4,30.309,4s-6.926,3.107-6.926,6.926  C23.383,14.745,26.49,17.852,30.309,17.852z M30.309,6.607c2.381,0,4.319,1.937,4.319,4.319c0,2.381-1.937,4.319-4.319,4.319  c-2.381,0-4.319-1.937-4.319-4.319C25.991,8.545,27.928,6.607,30.309,6.607z M18.308,35.162h15.528  c-0.174,0.958-0.279,1.939-0.279,2.946v3.311c0,0.72,0.584,1.304,1.304,1.304H65.22c0.72,0,1.303-0.584,1.303-1.304v-3.311  c0-1.007-0.105-1.988-0.279-2.946h15.448c0.72,0,1.304-0.584,1.304-1.304v-2.617c0-7.337-5.969-13.305-13.305-13.305  c-4.553,0-8.703,2.299-11.151,6.077c-2.486-1.505-5.388-2.387-8.5-2.387c-3.136,0-6.059,0.896-8.557,2.422  c-2.444-3.8-6.602-6.112-11.173-6.112c-7.337,0-13.305,5.969-13.305,13.305v2.617C17.004,34.578,17.588,35.162,18.308,35.162z   M69.691,20.543c5.899,0,10.698,4.799,10.698,10.698v1.314H65.54c-0.988-2.749-2.676-5.164-4.864-7.018  C62.638,22.441,65.994,20.543,69.691,20.543z M63.916,38.108v2.007H36.165v-2.007c0-7.651,6.225-13.876,13.876-13.876  S63.916,30.457,63.916,38.108z M19.611,31.241c0-5.899,4.799-10.698,10.698-10.698c3.719,0,7.086,1.916,9.043,5.041  c-2.162,1.848-3.832,4.244-4.812,6.971H19.611V31.241z M69.691,17.852c3.819,0,6.926-3.107,6.926-6.926  C76.617,7.107,73.51,4,69.691,4s-6.926,3.107-6.926,6.926C62.765,14.745,65.872,17.852,69.691,17.852z M69.691,6.607  c2.381,0,4.319,1.937,4.319,4.319c0,2.381-1.938,4.319-4.319,4.319s-4.319-1.937-4.319-4.319  C65.372,8.545,67.309,6.607,69.691,6.607z M50.04,20.829c4.64,0,8.415-3.775,8.415-8.415C58.455,7.775,54.68,4,50.04,4  c-4.64,0-8.415,3.775-8.415,8.415C41.626,17.055,45.401,20.829,50.04,20.829z M50.04,6.607c3.202,0,5.807,2.605,5.807,5.807  c0,3.202-2.605,5.807-5.807,5.807s-5.807-2.605-5.807-5.807C44.233,9.212,46.838,6.607,50.04,6.607z M15.243,64.553  c0,1.207-0.978,2.185-2.185,2.185s-2.185-0.978-2.185-2.185s0.978-2.185,2.185-2.185S15.243,63.346,15.243,64.553z M89.127,64.553  c0,1.207-0.978,2.185-2.185,2.185s-2.185-0.978-2.185-2.185c0-1.207,0.978-2.185,2.185-2.185S89.127,63.346,89.127,64.553z"/><text x="0" y="115" fill="#000000" font-size="5px" font-weight="bold" font-family="'Helvetica Neue', Helvetica, Arial-Unicode, Arial, Sans-serif">Created by Hanbai</text><text x="0" y="120" fill="#000000" font-size="5px" font-weight="bold" font-family="'Helvetica Neue', Helvetica, Arial-Unicode, Arial, Sans-serif">from the Noun Project</text></svg>