<svg xmlns="http://www.w3.org/2000/svg" xmlns:xlink="http://www.w3.org/1999/xlink" version="1.1" x="0px" y="0px" viewBox="0 0 100 125" enable-background="new 0 0 100 100" xml:space="preserve"><g display="none"><rect x="-883.9" y="-32.1" display="inline" fill="#000000" width="1789.9" height="168.4"/></g><g><path d="M697.6,8.1c6.1,0,11,4.9,11,11s-4.9,11-11,11s-11-4.9-11-11S691.5,8.1,697.6,8.1 M697.6,4.1c-8.3,0-15,6.7-15,15   s6.7,15,15,15c8.3,0,15-6.7,15-15S705.9,4.1,697.6,4.1L697.6,4.1z"/><path d="M729.4,59.9c6.1,0,11,4.9,11,11s-4.9,11-11,11s-11-4.9-11-11S723.3,59.9,729.4,59.9 M729.4,55.9c-8.3,0-15,6.7-15,15   s6.7,15,15,15s15-6.7,15-15S737.7,55.9,729.4,55.9L729.4,55.9z"/><path d="M665.7,59.9c6.1,0,11,4.9,11,11s-4.9,11-11,11s-11-4.9-11-11S659.6,59.9,665.7,59.9 M665.7,55.9c-8.3,0-15,6.7-15,15   s6.7,15,15,15c8.3,0,15-6.7,15-15S673.9,55.9,665.7,55.9L665.7,55.9z"/><g><path d="M-831.1,8.5c13.3,0,24.1,10.8,24.1,24.1s-10.8,24.1-24.1,24.1s-24.1-10.8-24.1-24.1S-844.4,8.5-831.1,8.5 M-831.1,4.5    c-15.5,0-28.1,12.6-28.1,28.1s12.6,28.1,28.1,28.1s28.1-12.6,28.1-28.1S-815.5,4.5-831.1,4.5L-831.1,4.5z"/><path d="M-791.3,8.5c13.3,0,24.1,10.8,24.1,24.1s-10.8,24.1-24.1,24.1c-13.3,0-24.1-10.8-24.1-24.1S-804.6,8.5-791.3,8.5     M-791.3,4.5c-15.5,0-28.1,12.6-28.1,28.1s12.6,28.1,28.1,28.1s28.1-12.6,28.1-28.1S-775.8,4.5-791.3,4.5L-791.3,4.5z"/><path d="M-812.2,43.3c13.3,0,24.1,10.8,24.1,24.1c0,13.3-10.8,24.1-24.1,24.1c-13.3,0-24.1-10.8-24.1-24.1    C-836.3,54.1-825.5,43.3-812.2,43.3 M-812.2,39.3c-15.5,0-28.1,12.6-28.1,28.1s12.6,28.1,28.1,28.1c15.5,0,28.1-12.6,28.1-28.1    S-796.7,39.3-812.2,39.3L-812.2,39.3z"/></g><path fill="none" stroke="#000000" stroke-width="4" stroke-miterlimit="10" d="M-602.5,33.2c6.3-17.3,22.9-29.7,42.4-29.7   c24.9,0,45.1,20.2,45.1,45.1s-20.2,45.1-45.1,45.1c-20.2,0-37.4-13.3-43.1-31.7"/><path fill="none" stroke="#000000" stroke-width="4" stroke-linecap="round" stroke-miterlimit="10" d="M-597.9,56.6   c-1.2,3.4-3.2,5.5-5.3,5.5c-3.8,0-6.8-6.5-6.8-14.5s3-14.5,6.8-14.5c2.2,0,4.1,2.2,5.3,5.5"/><circle cx="-531.1" cy="39" r="4.5"/><path fill="none" stroke="#000000" stroke-width="4" stroke-linecap="round" stroke-miterlimit="10" d="M-522.3,72.7   c-14.9,0-27.1-7.5-27.8-16.9"/><path fill="none" stroke="#000000" stroke-width="4" stroke-miterlimit="10" d="M-671,55.5h1.6c16.2,0,29.4,11.2,29.4,27.4v1   c0,6.6-7.4,14-14,14H-716c-6.6,0-14-7.4-14-14v-1c0-16.2,13.2-27.4,29.4-27.4"/><path fill="none" stroke="#000000" stroke-width="4" stroke-miterlimit="10" d="M-700.6,55.5h1.9"/><path d="M-685,5.8c14.2,0,25.8,11.6,25.8,25.8s-11.6,25.8-25.8,25.8s-25.8-11.6-25.8-25.8S-699.2,5.8-685,5.8 M-685,1.8   c-16.5,0-29.8,13.4-29.8,29.8s13.4,29.8,29.8,29.8s29.8-13.4,29.8-29.8S-668.5,1.8-685,1.8L-685,1.8z"/><g><path d="M-474.7,10.1c1.7,0,3.1,1.4,3.1,3.1s-1.4,3.1-3.1,3.1s-3.1-1.4-3.1-3.1S-476.4,10.1-474.7,10.1 M-474.7,6.1    c-3.9,0-7.1,3.2-7.1,7.1s3.2,7.1,7.1,7.1c3.9,0,7.1-3.2,7.1-7.1S-470.8,6.1-474.7,6.1L-474.7,6.1z"/><path d="M-400.9,10.1c1.7,0,3.1,1.4,3.1,3.1s-1.4,3.1-3.1,3.1s-3.1-1.4-3.1-3.1S-402.6,10.1-400.9,10.1 M-400.9,6.1    c-3.9,0-7.1,3.2-7.1,7.1s3.2,7.1,7.1,7.1s7.1-3.2,7.1-7.1S-397,6.1-400.9,6.1L-400.9,6.1z"/><path d="M-474.7,83c1.7,0,3.1,1.4,3.1,3.1s-1.4,3.1-3.1,3.1s-3.1-1.4-3.1-3.1S-476.4,83-474.7,83 M-474.7,79    c-3.9,0-7.1,3.2-7.1,7.1c0,3.9,3.2,7.1,7.1,7.1c3.9,0,7.1-3.2,7.1-7.1C-467.6,82.2-470.8,79-474.7,79L-474.7,79z"/><path d="M-400.9,83c1.7,0,3.1,1.4,3.1,3.1s-1.4,3.1-3.1,3.1s-3.1-1.4-3.1-3.1S-402.6,83-400.9,83 M-400.9,79    c-3.9,0-7.1,3.2-7.1,7.1c0,3.9,3.2,7.1,7.1,7.1s7.1-3.2,7.1-7.1C-393.8,82.2-397,79-400.9,79L-400.9,79z"/><g><line fill="none" stroke="#000000" stroke-width="4" stroke-linecap="round" stroke-miterlimit="10" x1="-468" y1="13" x2="-463" y2="13"/><line fill="none" stroke="#000000" stroke-width="4" stroke-linecap="round" stroke-miterlimit="10" stroke-dasharray="12,9" x1="-453" y1="13" x2="-416" y2="13"/><line fill="none" stroke="#000000" stroke-width="4" stroke-linecap="round" stroke-miterlimit="10" x1="-412" y1="13" x2="-407" y2="13"/></g><g><line fill="none" stroke="#000000" stroke-width="4" stroke-linecap="round" stroke-miterlimit="10" x1="-470.2" y1="81.8" x2="-466.7" y2="78.2"/><line fill="none" stroke="#000000" stroke-width="4" stroke-linecap="round" stroke-miterlimit="10" stroke-dasharray="9.7363,7.7891" x1="-461.2" y1="72.7" x2="-414.4" y2="25.9"/><line fill="none" stroke="#000000" stroke-width="4" stroke-linecap="round" stroke-miterlimit="10" x1="-411.6" y1="23.2" x2="-408.1" y2="19.6"/></g><g><line fill="none" stroke="#000000" stroke-width="4" stroke-linecap="round" stroke-miterlimit="10" x1="-468" y1="86" x2="-463" y2="86"/><line fill="none" stroke="#000000" stroke-width="4" stroke-linecap="round" stroke-miterlimit="10" stroke-dasharray="12,9" x1="-453" y1="86" x2="-416" y2="86"/><line fill="none" stroke="#000000" stroke-width="4" stroke-linecap="round" stroke-miterlimit="10" x1="-412" y1="86" x2="-407" y2="86"/></g></g><g><path d="M-272.6,26.7v13.1h-87V26.7H-272.6 M-272.6,22.7h-87c-2.2,0-4,1.8-4,4v13.1c0,2.2,1.8,4,4,4h87c2.2,0,4-1.8,4-4V26.7    C-268.6,24.5-270.4,22.7-272.6,22.7L-272.6,22.7z"/><path d="M-278.4,43.9v49.4h-75.4V43.9H-278.4 M-274.4,39.9h-83.4v53.4c0,2.2,1.8,4,4,4h75.4c2.2,0,4-1.8,4-4V39.9L-274.4,39.9z"/><line fill="none" stroke="#000000" stroke-width="4" stroke-linecap="round" stroke-linejoin="round" stroke-miterlimit="10" x1="-317" y1="95" x2="-317" y2="25"/><g><path fill="none" stroke="#000000" stroke-width="4" stroke-linecap="round" stroke-linejoin="round" stroke-miterlimit="10" d="     M-297,4.3c5.6,0,10.2,4.6,10.2,10.2s-4.6,10.2-10.2,10.2"/><path fill="none" stroke="#000000" stroke-width="4" stroke-linecap="round" stroke-linejoin="round" stroke-miterlimit="10" d="     M-316.5,22.6c0,0,7.3-18.3,19.6-18.3"/></g><g><path fill="none" stroke="#000000" stroke-width="4" stroke-linecap="round" stroke-linejoin="round" stroke-miterlimit="10" d="     M-336,4.3c-5.6,0-10.2,4.6-10.2,10.2s4.6,10.2,10.2,10.2"/><path fill="none" stroke="#000000" stroke-width="4" stroke-linecap="round" stroke-linejoin="round" stroke-miterlimit="10" d="     M-316.5,22.6c0,0-7.3-18.3-19.6-18.3"/></g></g><path d="M-158,9c3.3,0,6,2.7,6,6v70c0,3.3-2.7,6-6,6h-70c-3.3,0-6-2.7-6-6V15c0-3.3,2.7-6,6-6H-158 M-158,5h-70   c-5.5,0-10,4.5-10,10v70c0,5.5,4.5,10,10,10h70c5.5,0,10-4.5,10-10V15C-148,9.5-152.5,5-158,5L-158,5z"/><line fill="none" stroke="#000000" stroke-width="4" stroke-linejoin="round" stroke-miterlimit="10" x1="-194" y1="6" x2="-194" y2="93"/><line fill="none" stroke="#000000" stroke-width="4" stroke-linejoin="round" stroke-miterlimit="10" x1="-149" y1="50" x2="-193" y2="50"/><path d="M-67.5,30.9L-41.7,50l-25.8,19.1L-93.3,50L-67.5,30.9 M-67.5,26.9c-0.8,0-1.7,0.3-2.4,0.8l-25.8,19.1   c-1,0.8-1.6,1.9-1.6,3.2s0.6,2.5,1.6,3.2l25.8,19.1c0.7,0.5,1.5,0.8,2.4,0.8s1.7-0.3,2.4-0.8l25.8-19.1c1-0.8,1.6-1.9,1.6-3.2   s-0.6-2.5-1.6-3.2l-25.8-19.1C-65.8,27.2-66.6,26.9-67.5,26.9L-67.5,26.9z"/><path d="M-67.5,7c1.9,0,3.5,1.6,3.5,3.5s-1.6,3.5-3.5,3.5c-1.9,0-3.5-1.6-3.5-3.5S-69.4,7-67.5,7 M-67.5,3c-4.2,0-7.5,3.4-7.5,7.5   s3.4,7.5,7.5,7.5c4.2,0,7.5-3.4,7.5-7.5S-63.3,3-67.5,3L-67.5,3z"/><path d="M-106.5,86c1.9,0,3.5,1.6,3.5,3.5c0,1.9-1.6,3.5-3.5,3.5c-1.9,0-3.5-1.6-3.5-3.5C-110,87.5-108.4,86-106.5,86 M-106.5,82   c-4.2,0-7.5,3.4-7.5,7.5c0,4.2,3.4,7.5,7.5,7.5c4.2,0,7.5-3.4,7.5-7.5C-99,85.3-102.3,82-106.5,82L-106.5,82z"/><path d="M-27.5,86c1.9,0,3.5,1.6,3.5,3.5c0,1.9-1.6,3.5-3.5,3.5c-1.9,0-3.5-1.6-3.5-3.5C-31,87.5-29.5,86-27.5,86 M-27.5,82   c-4.2,0-7.5,3.4-7.5,7.5c0,4.2,3.4,7.5,7.5,7.5c4.2,0,7.5-3.4,7.5-7.5C-20,85.3-23.4,82-27.5,82L-27.5,82z"/><line fill="none" stroke="#000000" stroke-width="4" stroke-linecap="round" stroke-miterlimit="10" x1="-68" y1="17" x2="-68" y2="29"/><g><line fill="none" stroke="#000000" stroke-width="4" stroke-linecap="round" stroke-linejoin="round" x1="-107" y1="83" x2="-107" y2="79"/><line fill="none" stroke="#000000" stroke-width="4" stroke-linecap="round" stroke-linejoin="round" stroke-dasharray="8,8" x1="-107" y1="71" x2="-107" y2="58"/><polyline fill="none" stroke="#000000" stroke-width="4" stroke-linecap="round" stroke-linejoin="round" points="-107,54     -107,50 -103,50   "/><line fill="none" stroke="#000000" stroke-width="4" stroke-linecap="round" stroke-linejoin="round" x1="-98.4" y1="49.9" x2="-94.4" y2="49.9"/></g><g><line fill="none" stroke="#000000" stroke-width="4" stroke-linecap="round" stroke-linejoin="round" x1="-28" y1="83" x2="-28" y2="79"/><line fill="none" stroke="#000000" stroke-width="4" stroke-linecap="round" stroke-linejoin="round" stroke-dasharray="8,8" x1="-28" y1="71" x2="-28" y2="58"/><polyline fill="none" stroke="#000000" stroke-width="4" stroke-linecap="round" stroke-linejoin="round" points="-28,54 -28,50     -32,50   "/><line fill="none" stroke="#000000" stroke-width="4" stroke-linecap="round" stroke-linejoin="round" x1="-36.2" y1="49.9" x2="-40.2" y2="49.9"/></g><g><path d="M84.7,9.1c3.3,0,6,2.7,6,6v50.7c0,3.3-2.7,6-6,6H15.3c-3.3,0-6-2.7-6-6V15.1c0-3.3,2.7-6,6-6H84.7 M84.7,5.1H15.3    c-5.5,0-10,4.5-10,10v50.7c0,5.5,4.5,10,10,10h69.3c5.5,0,10-4.5,10-10V15.1C94.7,9.6,90.2,5.1,84.7,5.1L84.7,5.1z"/><line fill="none" stroke="#000000" stroke-width="4" stroke-linecap="round" stroke-linejoin="round" stroke-miterlimit="10" x1="94" y1="85" x2="7" y2="85"/><line fill="none" stroke="#000000" stroke-width="4" stroke-linecap="round" stroke-linejoin="round" stroke-miterlimit="10" x1="94" y1="95" x2="7" y2="95"/><line fill="none" stroke="#000000" stroke-width="4" stroke-miterlimit="10" x1="9" y1="9.1" x2="91.3" y2="71.2"/><line fill="none" stroke="#000000" stroke-width="4" stroke-miterlimit="10" x1="90.4" y1="10" x2="9" y2="71.3"/></g><path d="M194.6,7c2.2,0,4,1.8,4,4v78c0,2.2-1.8,4-4,4h-33.1c-2.2,0-4-1.8-4-4V11c0-2.2,1.8-4,4-4H194.6 M194.6,3h-33.1   c-4.4,0-8,3.6-8,8v78c0,4.4,3.6,8,8,8h33.1c4.4,0,8-3.6,8-8V11C202.6,6.6,199,3,194.6,3L194.6,3z"/><path d="M194.6,7.3c2.2,0,4,1.8,4,4v66h-41.1v-66c0-2.2,1.8-4,4-4H194.6 M194.6,3.3h-33.1c-4.4,0-8,3.6-8,8v70h49.1v-70   C202.6,6.9,199,3.3,194.6,3.3L194.6,3.3z"/><circle cx="177.9" cy="87" r="4.1"/><polyline fill="none" stroke="#000000" stroke-width="4" stroke-miterlimit="10" points="322,80 320.3,80 346,80  "/><path fill="none" stroke="#000000" stroke-width="4" stroke-linejoin="round" stroke-miterlimit="10" d="M296.2,20.8   c-16.2,0-28.5,13.1-28.5,29.2c0,10.1,5,19,12.7,24.2c0.3,0.2,0.6,0.4,0.9,0.6"/><polyline fill="none" stroke="#000000" stroke-width="4" stroke-linecap="round" stroke-linejoin="round" stroke-miterlimit="10" points="   342.6,72.9 349,79.2 342.6,85.6  "/><polyline fill="none" stroke="#000000" stroke-width="4" stroke-linecap="round" stroke-linejoin="round" stroke-miterlimit="10" points="   307.7,27.1 301.3,20.8 307.7,14.4  "/><path fill="none" stroke="#000000" stroke-width="4" stroke-linecap="round" stroke-linejoin="round" stroke-miterlimit="10" d="   M302.3,21.2c16.2,0,29.4,13.2,29.4,29.4S318.6,80,302.5,80H253"/><path d="M428.4,14.7c21.5,0,39,17.5,39,39s-17.5,39-39,39s-39-17.5-39-39S406.9,14.7,428.4,14.7 M428.4,10.7c-23.7,0-43,19.3-43,43   s19.3,43,43,43c23.7,0,43-19.3,43-43S452.1,10.7,428.4,10.7L428.4,10.7z"/><path d="M428.4,27.7c14.3,0,26,11.7,26,26s-11.7,26-26,26s-26-11.7-26-26S414.1,27.7,428.4,27.7 M428.4,23.7c-16.6,0-30,13.4-30,30   s13.4,30,30,30c16.6,0,30-13.4,30-30S445,23.7,428.4,23.7L428.4,23.7z"/><path d="M428.4,41.7c6.6,0,12,5.4,12,12s-5.4,12-12,12s-12-5.4-12-12S421.8,41.7,428.4,41.7 M428.4,37.7c-8.8,0-16,7.2-16,16   s7.2,16,16,16s16-7.2,16-16S437.2,37.7,428.4,37.7L428.4,37.7z"/><line fill="none" stroke="#000000" stroke-width="4" stroke-linecap="round" stroke-linejoin="round" stroke-miterlimit="10" x1="428.4" y1="53.5" x2="462.2" y2="19.7"/><polygon fill="none" stroke="#000000" stroke-width="4" stroke-linejoin="round" stroke-miterlimit="10" points="471.7,19.4    462.5,19.4 462.5,10.2 469.4,3.3 469.4,12.5 478.6,12.5  "/><circle cx="428.3" cy="53.7" r="4"/><path stroke="#000000" stroke-miterlimit="10" d="M540.8,23.2l7.9,13.1l-8.2,13.1h-16.1l-8-13l8-13H541 M540.4,20.5h-16.1   c-1,0-2,0.2-2.6,1.1l-8,13c-0.6,1-0.6,2.1,0,3l8,13.3c0.5,0.9,1.5,1.5,2.6,1.5h16.1c1,0,2-0.7,2.6-1.6l8-13.2c0.6-1,0.6-2.2,0-3.1   l-8-12.9C542.4,20.8,541.5,20.5,540.4,20.5L540.4,20.5z"/><path stroke="#000000" stroke-miterlimit="10" d="M567.3,8.2l7.9,13.1l-8.1,13.1h-16.1l-8-13l8-13H567 M567.1,5.5h-16.1   c-1,0-2,0.3-2.6,1.2l-8,13.1c-0.6,1-0.6,2.1,0,3.1l8,13.2c0.5,0.9,1.5,1.5,2.6,1.5h16.1c1,0,2-0.6,2.6-1.5l8-13.2   c0.6-1,0.6-2.2,0-3.1l-8-12.9C569.1,5.8,568.2,5.5,567.1,5.5L567.1,5.5z"/><path stroke="#000000" stroke-miterlimit="10" d="M567.6,37.2l8,13.1l-8,13.1h-16.1l-8-13l8-13H568 M567.6,34.5h-16.1   c-1,0-2,0.2-2.6,1.1l-8,13c-0.6,1-0.6,2.1,0,3l8,13.3c0.5,0.9,1.5,1.6,2.6,1.6h16.1c1,0,2-0.7,2.6-1.6l8-13.3c0.6-1,0.6-2.2,0-3.2   l-8-12.9C569.6,34.7,568.6,34.5,567.6,34.5L567.6,34.5z"/><path stroke="#000000" stroke-miterlimit="10" d="M594,22.5l8,13.1l-8,12.9h-16.1l-8-13l8-13H594 M594,19.5h-16.1   c-1,0-2,0.5-2.6,1.4l-8,13.2c-0.6,1-0.6,2.1,0,3.1l8,13c0.5,0.9,1.5,1.3,2.6,1.3H594c1,0,2-0.4,2.6-1.3l8-13.1c0.6-1,0.6-2.1,0-3.1   l-8-13.1C596,20,595,19.5,594,19.5L594,19.5z"/><path stroke="#000000" stroke-miterlimit="10" d="M594.9,51.2l8,13.1l-8.1,13.1h-16.1l-8-13l8-13H595 M594.7,48.5h-16.1   c-1,0-2,0.2-2.6,1.1l-8,13c-0.6,1-0.6,2.1,0,3l8,13.3c0.5,0.9,1.5,1.6,2.6,1.6h16.1c1,0,2-0.7,2.6-1.6l8-13.3c0.6-1,0.6-2.2,0-3.2   l-8-12.8C596.7,48.7,595.8,48.5,594.7,48.5L594.7,48.5z"/><path stroke="#000000" stroke-miterlimit="10" d="M568.4,66.2l7.9,13.1l-8.1,13.1h-16.1l-8-13l8-13H569 M568.2,63.5h-16.1   c-1,0-2,0.1-2.6,1l-8,13c-0.6,1-0.6,2.1,0,3l8,13.4c0.5,0.9,1.5,1.6,2.6,1.6h16.1c1,0,2-0.8,2.6-1.7l8-13.3c0.6-1,0.6-2.2,0-3.2   l-8-12.8C570.2,63.6,569.3,63.5,568.2,63.5L568.2,63.5z"/><path stroke="#000000" stroke-miterlimit="10" d="M541.1,52.2l8,13.1l-8,13.1H525l-8-13l8-13h16 M541.1,49.5H525   c-1,0-2,0.2-2.6,1.1l-8,13c-0.6,1-0.6,2.1,0,3l8,13.3c0.5,0.9,1.5,1.6,2.6,1.6h16.1c1,0,2-0.7,2.6-1.6l8-13.3c0.6-1,0.6-2.2,0-3.2   l-8-12.8C543.1,49.7,542.1,49.5,541.1,49.5L541.1,49.5z"/><path fill="none" stroke="#000000" stroke-width="4" stroke-miterlimit="10" d="M662.1,58.5c-0.2-1.5-0.3-3.1-0.3-4.7   c0-15.3,9.5-28.3,23-33.5"/><path fill="none" stroke="#000000" stroke-width="4" stroke-miterlimit="10" d="M662.1,58.5"/><path fill="none" stroke="#000000" stroke-width="4" stroke-miterlimit="10" d="M721.2,80.7c-6.3,5.5-14.6,8.9-23.6,8.9   c-9,0-17.3-3.4-23.6-8.9"/><path fill="none" stroke="#000000" stroke-width="4" stroke-miterlimit="10" d="M721.2,80.7"/><path fill="none" stroke="#000000" stroke-width="4" stroke-miterlimit="10" d="M710.4,20.3c13.4,5.2,23,18.2,23,33.5   c0,1.6-0.1,3.1-0.3,4.6"/><g><path d="M865,14.8c3.3,0,6,2.7,6,6v58.4c0,3.3-2.7,6-6,6h-78c-3.3,0-6-2.7-6-6V20.8c0-3.3,2.7-6,6-6H865 M865,10.8h-78    c-5.5,0-10,4.5-10,10v58.4c0,5.5,4.5,10,10,10h78c5.5,0,10-4.5,10-10V20.8C875,15.3,870.5,10.8,865,10.8L865,10.8z"/><line fill="none" stroke="#000000" stroke-width="4" stroke-linejoin="round" stroke-miterlimit="10" x1="842" y1="50" x2="810" y2="50"/><path d="M865,14.8c3.3,0,6,2.7,6,6v58.4c0,3.3-2.7,6-6,6h-20.8V14.8H865 M865,10.8h-24.8v78.4H865c5.5,0,10-4.5,10-10V20.8    C875,15.3,870.5,10.8,865,10.8L865,10.8z"/><path d="M807.8,14.8v70.4H787c-3.3,0-6-2.7-6-6V20.8c0-3.3,2.7-6,6-6H807.8 M811.8,10.8H787c-5.5,0-10,4.5-10,10v58.4    c0,5.5,4.5,10,10,10h24.8V10.8L811.8,10.8z"/></g></g><text x="0" y="115" fill="#000000" font-size="5px" font-weight="bold" font-family="'Helvetica Neue', Helvetica, Arial-Unicode, Arial, Sans-serif">Created by Bê Sabino</text><text x="0" y="120" fill="#000000" font-size="5px" font-weight="bold" font-family="'Helvetica Neue', Helvetica, Arial-Unicode, Arial, Sans-serif">from the Noun Project</text></svg>