<svg xmlns="http://www.w3.org/2000/svg" viewBox="0 0 64 80" x="0px" y="0px"><title>design-graphic-illustration-seo-web</title><g><path d="M48.868,35.5l-16-28a1.04,1.04,0,0,0-1.736,0l-16,28a1,1,0,0,0,.046,1.065l7.978,11.525A3.988,3.988,0,0,0,23,55.858V61a1,1,0,0,0,1,1H40a1,1,0,0,0,1-1V55.858a3.988,3.988,0,0,0-.156-7.764l7.978-11.525A1,1,0,0,0,48.868,35.5ZM25,60V56H39v4Zm17-8a2,2,0,0,1-2,2H24a2,2,0,0,1,0-4H40A2,2,0,0,1,42,52ZM34.246,28.813a3.5,3.5,0,0,1,.674,4.643l-1.752,2.629A1,1,0,0,0,33,36.64v2H31v-2a1,1,0,0,0-.168-.555L29.08,33.456a3.509,3.509,0,0,1,5.166-4.643ZM30.5,41.64a.5.5,0,0,1,0-1h3a.5.5,0,0,1,0,1Zm.5,2h2V48H31ZM38.476,48H35V43.281a.835.835,0,0,0-.027-.132,2.477,2.477,0,0,0,.027-4v-2.21l.4-.6,2.134,1.113a1,1,0,1,0,.925-1.773l-1.944-1.014.066-.1a5.477,5.477,0,0,0,.818-4.073l2.071-1.111a1,1,0,0,0-.946-1.762l-1.857,1a5.375,5.375,0,0,0-3.688-2.525A.915.915,0,0,0,33,26V23a1,1,0,0,0-2,0v3a.915.915,0,0,0,.018.091,5.375,5.375,0,0,0-3.688,2.525l-1.857-1a1,1,0,1,0-.946,1.762L26.6,30.493a5.474,5.474,0,0,0,.818,4.072l.065.1-1.944,1.014a1,1,0,0,0,.926,1.773L28.6,36.338l.4.6v2.21a2.476,2.476,0,0,0,.016,3.988c0,.028-.016.051-.016.079V48H25.524L17.181,35.949,32,10.016,46.819,35.949Z"/><path d="M56,8a3,3,0,1,0-2.816-4H10.816a3,3,0,1,0,0,2H27.122A38.734,38.734,0,0,0,7.254,30H6a1,1,0,0,0-1,1v4a1,1,0,0,0,1,1h4a1,1,0,0,0,1-1V31a1,1,0,0,0-1-1H9.338A36.741,36.741,0,0,1,31.781,6.146L32,6.066l.219.08A36.741,36.741,0,0,1,54.662,30H54a1,1,0,0,0-1,1v4a1,1,0,0,0,1,1h4a1,1,0,0,0,1-1V31a1,1,0,0,0-1-1H56.746A38.734,38.734,0,0,0,36.878,6H53.184A3,3,0,0,0,56,8ZM9,34H7V32H9Zm48,0H55V32h2ZM56,4a1,1,0,1,1-1,1A1,1,0,0,1,56,4ZM8,6A1,1,0,1,1,9,5,1,1,0,0,1,8,6Z"/></g><text x="0" y="79" fill="#000000" font-size="5px" font-weight="bold" font-family="'Helvetica Neue', Helvetica, Arial-Unicode, Arial, Sans-serif">Created by supalerk laipawat</text><text x="0" y="84" fill="#000000" font-size="5px" font-weight="bold" font-family="'Helvetica Neue', Helvetica, Arial-Unicode, Arial, Sans-serif">from the Noun Project</text></svg>