<svg xmlns="http://www.w3.org/2000/svg" xmlns:xlink="http://www.w3.org/1999/xlink" version="1.1" x="0px" y="0px" viewBox="0 0 512 640" enable-background="new 0 0 512 512" xml:space="preserve"><path d="M380.189,96.516H162.246c-2.762,0-5,2.239-5,5s2.238,5,5,5h217.943c2.762,0,5-2.239,5-5S382.951,96.516,380.189,96.516z"/><path d="M102.248,512h307.504c19.078,0,34.6-15.521,34.6-34.599V210.594V100.702c0-17.5-13.063-31.997-29.946-34.278v-2.652  c0-0.335-0.034-0.666-0.1-0.989c-0.041-0.204-0.114-0.394-0.179-0.587c-0.038-0.115-0.061-0.235-0.107-0.347  c-0.089-0.213-0.207-0.41-0.324-0.607c-0.049-0.082-0.083-0.172-0.137-0.251c-0.182-0.271-0.389-0.525-0.619-0.755L354.172,1.466  c-0.23-0.23-0.484-0.438-0.756-0.62c-0.076-0.051-0.16-0.083-0.238-0.129c-0.201-0.12-0.402-0.24-0.62-0.331  c-0.105-0.044-0.219-0.065-0.327-0.102c-0.2-0.068-0.396-0.143-0.607-0.185c-0.322-0.065-0.653-0.1-0.988-0.1H123.278  c-2.762,0-5,2.239-5,5v61.102h-16.03c-19.078,0-34.6,15.521-34.6,34.6v38.635v338.064C67.648,496.479,83.17,512,102.248,512z   M102.248,76.102h16.03v43.436h-30.83c-3.566,0-6.906,0.961-9.8,2.618v-21.454C77.648,87.137,88.684,76.102,102.248,76.102z   M355.635,58.771v-41.7l41.699,41.7H355.635z M434.352,193.413c-2.894-1.657-6.233-2.618-9.8-2.618h-10.146V76.549  c11.347,2.182,19.946,12.179,19.946,24.152V193.413z M345.635,41.287H162.246c-2.762,0-5,2.239-5,5s2.238,5,5,5h183.389v12.485  c0,2.761,2.238,5,5,5h53.771v122.023h-81.534c-6.742,0-16.741-4.28-21.396-9.159l-47.54-49.839  c-6.556-6.874-19.133-12.259-28.632-12.259h-97.024V10h217.356V41.287z M77.648,139.337c0-5.403,4.396-9.799,9.8-9.799h137.854  c6.743,0,16.741,4.281,21.396,9.161l47.541,49.84c6.558,6.873,19.135,12.256,28.632,12.256h101.681c5.403,0,9.8,4.396,9.8,9.8  v266.807c0,13.564-11.035,24.599-24.6,24.599H102.248c-13.564,0-24.6-11.035-24.6-24.599V139.337z"/><path d="M123.278,187.393c-2.762,0-5,2.239-5,5v113.031c0,2.761,2.238,5,5,5h104.767c2.762,0,5-2.239,5-5V192.393  c0-2.761-2.238-5-5-5H123.278z M223.045,300.424h-94.767V197.393h94.767V300.424z"/><path d="M228.045,332.507H123.278c-2.762,0-5,2.239-5,5s2.238,5,5,5h104.767c2.762,0,5-2.239,5-5S230.807,332.507,228.045,332.507z"/><text x="0" y="527" fill="#000000" font-size="5px" font-weight="bold" font-family="'Helvetica Neue', Helvetica, Arial-Unicode, Arial, Sans-serif">Created by Ainun Nadliroh</text><text x="0" y="532" fill="#000000" font-size="5px" font-weight="bold" font-family="'Helvetica Neue', Helvetica, Arial-Unicode, Arial, Sans-serif">from the Noun Project</text></svg>