<svg xmlns="http://www.w3.org/2000/svg" data-name="Layer 1" viewBox="0 0 100 125" x="0px" y="0px"><title>a</title><path d="M92.594,40.281H86.159a2.3,2.3,0,0,0-.749.127,9.254,9.254,0,0,0-1.721-1.486c-1.786-1.3-3.633-2.649-2.683-7.255l.009-.048c.5-3.055-.721-4.462-1.5-5.029a3.662,3.662,0,0,0-1.351-.612V12.509a3.838,3.838,0,0,0-3.834-3.834H24.323a3.838,3.838,0,0,0-3.834,3.834V62.3L19.13,63.824a30.231,30.231,0,0,1-4.17,4.06,1.094,1.094,0,0,0-.182.131,24.3,24.3,0,0,1-3.9,2.044c-.73.336-1.557.717-2.543,1.187A5.694,5.694,0,0,0,5.45,74.341,5.221,5.221,0,0,0,5.585,78.5L7.6,82.738a5.226,5.226,0,0,0,3.148,2.728,5.654,5.654,0,0,0,1.739.275,5.792,5.792,0,0,0,2.492-.571c.354-.172.684-.335,1-.491l3.99,5.174a3.129,3.129,0,0,0,2.469,1.472,3.459,3.459,0,0,0,1.668-.52c.081-.044.159-.088.235-.124l1.767-.842a2.376,2.376,0,0,0,1.318-1.595,2.437,2.437,0,0,0-.493-2.062l-3.478-4.418c1.022-.129,2.3-.211,4.075-.3l13.357-.718a3.865,3.865,0,0,0,2.2,1.966,3.929,3.929,0,0,0,1.309.227,3.9,3.9,0,0,0,3.507-5.57l-3.2-6.717a4.58,4.58,0,0,0,2.207-3.746c.019-.182.031-.367.037-.553H74.335a3.839,3.839,0,0,0,3.834-3.835v-3.08h3.1a5.3,5.3,0,0,0,3.276-1.106,2.312,2.312,0,0,0,1.613.655h6.435a2.326,2.326,0,0,0,2.323-2.323V42.6A2.326,2.326,0,0,0,92.594,40.281ZM44.014,11.066h10.63V24.344L50.25,19.031a1.194,1.194,0,0,0-1.842,0l-4.394,5.313ZM13.944,83.017a3.317,3.317,0,0,1-2.456.174A2.851,2.851,0,0,1,9.762,81.71L7.744,77.475A2.854,2.854,0,0,1,7.681,75.2a3.319,3.319,0,0,1,1.683-1.8c.971-.463,1.791-.84,2.514-1.173,1.337-.615,2.319-1.068,3.192-1.568l4.573,9.6c-.905.356-1.859.831-3.137,1.477l-.7.354-.012.006C15.241,82.377,14.634,82.68,13.944,83.017Zm11.11,4.644.017.023-1.758.838c-.127.061-.244.125-.357.187-.563.309-.6.328-1.094-.316l-3.707-4.808a24.324,24.324,0,0,1,2.718-1.235Zm2.354-8.582a39.889,39.889,0,0,0-5.439.505l-4.91-10.305a41.862,41.862,0,0,0,3.846-3.853l8.259-9.276L39.773,78.415Zm18.394.469a1.5,1.5,0,0,1-2.771.146l-.334-.7,0-.008L30.552,53.505l-.007-.015-.3-.625a1.5,1.5,0,1,1,2.715-1.293l3.6,7.55,0,.006,0,.005,5.449,11.435,0,.011,0,.008L45.746,78.4A1.494,1.494,0,0,1,45.8,79.548Zm-6.58-20.4a2.483,2.483,0,0,1,1.966.485,8.262,8.262,0,0,1,3.345,7.019,2.485,2.485,0,0,1-.862,1.833Zm36.556,3.37a1.445,1.445,0,0,1-1.443,1.444H46.7a11.2,11.2,0,0,0-.8-2.266,9.954,9.954,0,0,0-3.408-4.07,4.575,4.575,0,0,0-4.3-.645l-3.069-6.441a3.894,3.894,0,0,0-7.071,3.263l-5.17,5.806v-47.1a1.444,1.444,0,0,1,1.443-1.443h17.3v16.6a1.2,1.2,0,0,0,2.117.762l5.589-6.758,5.589,6.758a1.2,1.2,0,0,0,2.117-.762v-16.6h17.3a1.444,1.444,0,0,1,1.443,1.443v13.61a5.748,5.748,0,0,0-.837.344,7.3,7.3,0,0,0-3.773,6.694v6.112h-7.3a4.8,4.8,0,0,0-4.565,5.1l1.948,10.784a4.9,4.9,0,0,0,4.8,4.288h9.725ZM81.27,57.05H66.053a2.576,2.576,0,0,1-2.444-2.322L61.661,43.944a2.342,2.342,0,0,1,.618-1.46,2.1,2.1,0,0,1,1.594-.824h8.491a1.2,1.2,0,0,0,1.195-1.195V33.157A4.932,4.932,0,0,1,76.022,28.6a2.051,2.051,0,0,1,2.085-.077c.561.411.762,1.391.552,2.69-1.247,6.1,1.682,8.231,3.622,9.645,1.1.8,1.555,1.19,1.555,1.75V55.022A2.378,2.378,0,0,1,81.27,57.05ZM92.526,56.6h-6.3V42.672h6.3ZM55.056,41.786l4.215-3.954a1.195,1.195,0,0,0-.668-2.058l-5.734-.721-2.458-5.231a1.2,1.2,0,0,0-2.164,0l-2.458,5.231-5.734.721a1.195,1.195,0,0,0-.668,2.058L43.6,41.786l-1.086,5.676a1.195,1.195,0,0,0,1.75,1.272l5.063-2.787,5.063,2.787a1.2,1.2,0,0,0,1.751-1.272ZM52.94,40.492a1.2,1.2,0,0,0-.356,1.1l.732,3.823-3.41-1.877a1.2,1.2,0,0,0-1.154,0l-3.41,1.877.732-3.823a1.2,1.2,0,0,0-.356-1.1l-2.84-2.663,3.863-.486a1.2,1.2,0,0,0,.933-.677l1.655-3.524,1.655,3.524a1.2,1.2,0,0,0,.933.677l3.863.486Z"/><text x="0" y="115" fill="#000000" font-size="5px" font-weight="bold" font-family="'Helvetica Neue', Helvetica, Arial-Unicode, Arial, Sans-serif">Created by Good Wife</text><text x="0" y="120" fill="#000000" font-size="5px" font-weight="bold" font-family="'Helvetica Neue', Helvetica, Arial-Unicode, Arial, Sans-serif">from the Noun Project</text></svg>