<svg xmlns="http://www.w3.org/2000/svg" xmlns:xlink="http://www.w3.org/1999/xlink" version="1.1" x="0px" y="0px" viewBox="0 0 5000 6250" style="enable-background:new 0 0 5000 5000;" xml:space="preserve"><g><g><g><path d="M2085.5,3290.5c-23.8,0-47.7-6.5-69.3-19.5c0,0,0,0-0.1,0l-435.3-263.9c-8.1-4.9-13.1-13.7-13.3-23.1     c0-2.2-3.8-220.4-6-437.2c-1.3-127.5-1.8-229.5-1.5-303.5c0.1-44,0.6-78.5,1.4-102.5c1.3-41.4,2.4-51.1,11.5-60.2     c1.6-1.6,3.3-3,5.2-4.1l438-263.9c42.1-25.3,92.7-26,135.4-1.9c42.8,24.2,68.3,67.8,68.3,117v1228c0,49.1-25.5,92.8-68.3,117     C2130.8,3284.6,2108.1,3290.5,2085.5,3290.5z M2044.6,3223.7c24.7,14.9,54.6,15.4,79.8,1.1s40.2-40,40.2-69v-1228     c0-29-15-54.7-40.2-69s-55.1-13.8-79.8,1.1l-427,257.3c-1.9,27.2-4.1,122.1-0.7,446.3c1.9,177.7,4.7,352.6,5.6,404.2     L2044.6,3223.7z"/><path d="M1596.2,3010.4h-378.8c-71.3,0-138.2-27.7-188.6-78.1c-50.4-50.4-78.1-117.3-78.1-188.6V2339     c0-71.3,27.7-138.2,78.1-188.6c50.4-50.4,117.3-78.1,188.6-78.1h376.1c15.3,0,27.6,12.3,27.6,27.6s-12.3,27.6-27.6,27.6h-376.1     c-116.6,0-211.5,94.8-211.5,211.5v404.8c0,116.6,94.8,211.5,211.5,211.5h378.8c15.3,0,27.6,12.3,27.6,27.6     S1611.4,3010.4,1596.2,3010.4z"/><path d="M978.3,2734.4H850c-81.4,0-147.6-66.2-147.6-147.6v-173.7c0-81.4,66.2-147.6,147.6-147.6h128.3     c15.3,0,27.6,12.3,27.6,27.6s-12.3,27.6-27.6,27.6H850c-51,0-92.5,41.5-92.5,92.5v173.7c0,51,41.5,92.5,92.5,92.5h128.3     c15.3,0,27.6,12.3,27.6,27.6S993.6,2734.4,978.3,2734.4z"/><path d="M1366.9,3877.4h-4.7c-120.4,0-218.4-97.9-218.4-218.4v-679.2c0-15.3,12.3-27.6,27.6-27.6s27.6,12.3,27.6,27.6V3659     c0,89.9,73.2,163.2,163.2,163.2h4.7c89.9,0,163.2-73.2,163.2-163.2v-673.7c0-15.3,12.3-27.6,27.6-27.6     c15.3,0,27.6,12.3,27.6,27.6V3659C1585.3,3779.4,1487.3,3877.4,1366.9,3877.4z"/></g><path d="M3925.8,1851.5h-597.4c-78.7,0-142.7-64.1-142.7-142.7V1139c0-78.7,64.1-142.7,142.7-142.7h597.4    c78.7,0,142.7,64.1,142.7,142.7v569.8C4068.5,1787.6,4004.4,1851.5,3925.8,1851.5z M3328.3,1051.5c-48.3,0-87.6,39.3-87.6,87.6    v569.8c0,48.3,39.3,87.6,87.6,87.6h597.4c48.3,0,87.6-39.3,87.6-87.6V1139c0-48.3-39.3-87.6-87.6-87.6H3328.3L3328.3,1051.5z"/><path d="M3925.8,2927.7h-597.4c-78.7,0-142.7-64.1-142.7-142.7v-569.8c0-78.7,64.1-142.7,142.7-142.7h597.4    c78.7,0,142.7,64.1,142.7,142.7v569.8C4068.5,2863.6,4004.4,2927.7,3925.8,2927.7z M3328.3,2127.5c-48.3,0-87.6,39.3-87.6,87.6    v569.8c0,48.3,39.3,87.6,87.6,87.6h597.4c48.3,0,87.6-39.3,87.6-87.6v-569.8c0-48.3-39.3-87.6-87.6-87.6H3328.3z"/><path d="M3516.7,1630.8c-4.6,0-9.1-1.1-13.2-3.4c-8.8-4.9-14.4-14.1-14.4-24.2v-358.6c0-9.7,5.1-18.8,13.5-23.7    c8.3-5,18.7-5.1,27.2-0.5l303.5,165.5c8.6,4.7,14,13.6,14.4,23.3c0.3,9.8-4.6,18.9-12.8,24.2l-303.5,193.1    C3527,1629.4,3521.9,1630.8,3516.7,1630.8z M3544.3,1291.1v262l221.6-141L3544.3,1291.1z"/><path d="M3803.7,2742.9c-46.4,0-87.6-20.3-126-61.9c-31.6-34.3-57.9-79.3-83.4-122.9c-50.2-85.8-97.6-166.9-176.4-160.9    c-23.9,1.8-47.9,17.6-71.3,46.6c-20.9,26.2-40.8,62.5-59.1,108c-31.9,79.6-47.4,159.4-47.5,160.2c-2.8,14.9-17.3,24.7-32.3,21.9    s-24.7-17.3-21.9-32.3c0.7-3.4,16.5-85.2,50.3-169.5c48.2-120.6,108-184.6,177.5-189.8c51.8-4,97.2,15.3,139.2,58.8    c34.2,35.6,62,83.1,88.9,129.2c47.4,80.9,92.1,157.4,161.8,157.4c0.2,0,0.5,0,0.7,0c26.6-0.2,47.3-10.7,67.3-34.2    c19.8-23.4,35.8-56.3,51.2-88.4c26.9-55.7,54.7-113.4,108.6-132.2c14.4-5,30.1,2.5,35.1,16.9c5,14.4-2.5,30.1-16.9,35.1    c-32.4,11.3-54.1,56.4-77.2,104.2c-16.9,35.1-34.4,71.4-58.8,100.1c-30.4,35.8-66.1,53.5-109,53.7    C3804.5,2742.9,3804,2742.9,3803.7,2742.9z"/><path d="M3820.2,2431c-60.9,0-110.4-49.5-110.4-110.4s49.5-110.4,110.4-110.4s110.4,49.5,110.4,110.4S3881.1,2431,3820.2,2431z     M3820.2,2265.4c-30.4,0-55.2,24.7-55.2,55.2c0,30.4,24.7,55.2,55.2,55.2s55.2-24.7,55.2-55.2    C3875.4,2290.2,3850.6,2265.4,3820.2,2265.4z"/><g><path d="M2331,2928.7c-50.6,0-99.9-9.2-146.6-27.5c-14.3-5.6-21.2-21.5-15.6-35.7c5.6-14.3,21.5-21.2,35.7-15.6     c40.2,15.7,82.9,23.7,126.5,23.7c99.4,0,194.4-42.5,260.7-116.6c67.3-75.1,97.9-172.3,86.6-273.5     c-17.7-157.9-144.9-286.8-302.6-306.3c-59.5-7.4-117.4-0.2-172,21.2c-14.1,5.6-30.2-1.4-35.8-15.6c-5.6-14.1,1.4-30.2,15.6-35.8     c63.3-24.9,130.2-33.2,199-24.6c88.6,10.9,172.5,52.7,236.3,117.3c63.8,64.6,104.4,149,114.3,237.7     c6.6,59.2,0.7,117.4-17.4,172.9c-17.4,53.2-45.4,101.5-82.9,143.4c-37.6,42.1-82.7,75.2-133.7,98.6     C2446.2,2916.5,2389.6,2928.7,2331,2928.7z"/></g><path d="M2582.7,2051.2c-7.1,0-14.1-2.7-19.5-8.1c-10.8-10.8-10.8-28.3,0-39l162.4-162.5c10.8-10.8,28.3-10.8,39,0    c10.8,10.8,10.8,28.3,0,39l-162.4,162.5C2596.9,2048.5,2589.8,2051.2,2582.7,2051.2z"/><path d="M2745.2,3210c-7.1,0-14.1-2.7-19.5-8.1l-162.4-162.5c-10.8-10.8-10.8-28.3,0-39c10.8-10.8,28.3-10.8,39,0l162.4,162.4    c10.8,10.8,10.8,28.3,0,39C2759.3,3207.4,2752.2,3210,2745.2,3210z"/><path d="M2426.8,2757c-53.2,0-96.6-43.3-96.6-96.6v-64h-137.9c-15.3,0-27.6-12.3-27.6-27.6s12.3-27.6,27.6-27.6h137.9v-55.2    h-137.9c-15.3,0-27.6-12.3-27.6-27.6c0-15.3,12.3-27.6,27.6-27.6h137.9v-69c0-49.8,38-91,86.4-96c1.7-0.3,3.5-0.6,5.5-0.6h4.8    c1.7,0,3.5,0.1,5.1,0.5c51.2,5,91.4,48.3,91.4,100.9v18.1c0,55.9-45.5,101.3-101.3,101.3h-36.6v55.2h41.4    c53.2,0,96.6,43.3,96.6,96.6v22.6C2523.4,2713.7,2480.1,2757,2426.8,2757z M2385.4,2596.5v64c0,22.8,18.6,41.4,41.4,41.4    s41.4-18.6,41.4-41.4v-22.6c0-22.8-18.6-41.4-41.4-41.4H2385.4z M2385.4,2431h36.6c25.4,0,46.2-20.7,46.2-46.2v-18.1    c0-24.6-19.4-44.8-43.7-46.1c-21.8,1.3-39.1,19.3-39.1,41.3V2431L2385.4,2431z"/><path d="M3047.6,2541.3h-220.7c-15.3,0-27.6-12.3-27.6-27.6s12.3-27.6,27.6-27.6h220.7c15.3,0,27.6,12.3,27.6,27.6    S3062.9,2541.3,3047.6,2541.3z"/><g><path d="M3925.8,4003.7h-597.4c-78.7,0-142.7-64.1-142.7-142.7v-569.9c0-78.7,64.1-142.7,142.7-142.7h597.4     c78.7,0,142.7,64.1,142.7,142.7v569.8C4068.5,3939.6,4004.4,4003.7,3925.8,4003.7z M3328.3,3203.6c-48.3,0-87.6,39.3-87.6,87.6     v569.8c0,48.3,39.3,87.6,87.6,87.6h597.4c48.3,0,87.6-39.3,87.6-87.6v-569.8c0-48.3-39.3-87.6-87.6-87.6H3328.3z"/><g><path d="M3621.6,3778.9c-4.7,0-9.5-1.1-13.8-3.8c-27.8-16.1-122.1-74.1-170.7-146.7c-38.3-57.6-49.5-126.1-28.5-174.6      c13.7-31.7,39.9-52.2,73.5-57.9c45.1-7.5,85.6,1.6,117.2,26.2c26.2,20.5,41.2,47.5,49,66.5c5.8,14.1-0.9,30.2-14.9,36      c-14.1,5.8-30.2-0.9-36-14.9c-13.7-32.9-43.1-69.9-106.1-59.4c-15.3,2.5-25.6,10.8-32,25.4c-11.3,26.1-8.3,74,23.7,122.1      c41.8,62.7,127.1,115,152.3,129.6c13.2,7.6,17.7,24.5,10,37.7C3640.4,3773.9,3631.1,3778.9,3621.6,3778.9z"/><path d="M3622.6,3779.4c-9.6,0-18.8-5-23.9-13.8c-7.6-13.2-3.1-30.1,10.1-37.6c52.1-30,119.6-79.8,153.1-130.1      c32.1-48.1,35.1-96,23.7-122.1c-6.3-14.6-16.8-22.8-32-25.4c-63-10.5-92.5,26.4-106.1,59.4c-5.8,14-22,20.7-36,14.9      s-20.7-22-14.9-36c7.9-19,22.8-45.9,49-66.5c31.6-24.6,72-33.7,117.1-26.2c33.7,5.6,59.9,26.2,73.5,57.9      c21.1,48.6,9.9,117.2-28.5,174.6c-48.8,73.2-143.6,131.2-171.5,147.3C3632.1,3778.1,3627.3,3779.4,3622.6,3779.4z"/></g></g></g></g><text x="0" y="5015" fill="#000000" font-size="5px" font-weight="bold" font-family="'Helvetica Neue', Helvetica, Arial-Unicode, Arial, Sans-serif">Created by bsd studio</text><text x="0" y="5020" fill="#000000" font-size="5px" font-weight="bold" font-family="'Helvetica Neue', Helvetica, Arial-Unicode, Arial, Sans-serif">from the Noun Project</text></svg>