<svg xmlns="http://www.w3.org/2000/svg" version="1.1" viewBox="-5.0 -10.0 110.0 135.0">
 <path d="m46.094 66.586h13.766v-12.691c0-0.30469 0.12109-0.60156 0.33984-0.81641 0.21875-0.21875 0.51172-0.33984 0.82031-0.33594h13.754v-9.7383c0-0.30469 0.12109-0.59766 0.33594-0.81641 0.21875-0.21484 0.51172-0.33594 0.81641-0.33594h14.918c0.30469 0 0.59766 0.12109 0.8125 0.33594 0.21875 0.21875 0.33984 0.51172 0.33984 0.81641v46.688c-0.003906 0.63281-0.51953 1.1484-1.1523 1.1523h-44.75c-0.63672-0.003906-1.1523-0.52344-1.1523-1.1602v-21.945c0-0.63672 0.51562-1.1523 1.1523-1.1523zm16.496-34.375c-0.32031 0.027343-0.64453-0.078126-0.88281-0.29688-0.24219-0.22266-0.37891-0.53125-0.37891-0.85547 0-0.32812 0.13672-0.63672 0.37891-0.85547 0.23828-0.21875 0.5625-0.32812 0.88281-0.30078h2.1406c0.59766 0.054687 1.0547 0.55469 1.0547 1.1562 0 0.59766-0.45703 1.0977-1.0547 1.1523zm-1.9219-9.457c-0.54688 0.30859-1.2422 0.11719-1.5586-0.42969-0.3125-0.54688-0.12891-1.2461 0.41406-1.5625l1.8555-1.0703c0.26172-0.15234 0.57812-0.19531 0.87109-0.11719s0.54297 0.27344 0.69531 0.53906c0.3125 0.55078 0.125 1.25-0.42187 1.5703zm-6.3906-7.2344 0.003906-0.003906c-0.31641 0.55078-1.0195 0.74219-1.5703 0.42578-0.55078-0.32031-0.74219-1.0234-0.42188-1.5703l1.0703-1.8477v-0.003907c0.32031-0.54688 1.0195-0.73438 1.5703-0.42188 0.26562 0.15234 0.45703 0.40234 0.53516 0.69922 0.082031 0.29297 0.039062 0.60547-0.11328 0.87109zm-28.902 14.383c0.59375 0.054687 1.0508 0.55469 1.0508 1.1562 0 0.59766-0.45703 1.0977-1.0508 1.1523h-2.1406c-0.59766-0.054688-1.0547-0.55469-1.0547-1.1523 0-0.60156 0.45703-1.1016 1.0547-1.1562zm3.0625-9.1445v0.003907c0.53125 0.32031 0.71094 1.0117 0.40234 1.5508-0.3125 0.54297-0.99609 0.73828-1.5469 0.44141l-1.8555-1.0703c-0.52734-0.32422-0.70312-1.0117-0.39062-1.5508 0.30859-0.53906 0.99219-0.73437 1.5391-0.44141zm7.2344-6.3906v0.003906c0.27344 0.54297 0.074219 1.2031-0.45312 1.5078-0.52734 0.30469-1.1992 0.14453-1.5352-0.36328l-1.0703-1.8555c-0.3125-0.55078-0.125-1.25 0.42578-1.5664 0.55078-0.3125 1.2539-0.125 1.5664 0.42578zm9.4648-1.9219-0.003907 0.003907c0 0.63672-0.51562 1.1523-1.1523 1.1523s-1.1523-0.51562-1.1523-1.1523v-2.1406c0-0.63672 0.51562-1.1523 1.1523-1.1523s1.1523 0.51562 1.1523 1.1523zm-9.0469 31.234h6.7383v-9.375l-2.8828-2.8867h-0.003906c-0.4375-0.44922-0.43359-1.1719 0.007813-1.6172 0.44531-0.44531 1.168-0.45312 1.6211-0.015625l2.4102 2.4062 2.4062-2.4023c0.46094-0.38672 1.1406-0.35937 1.5664 0.066407s0.45312 1.1055 0.066406 1.5664l-2.8867 2.8867v9.375h6.7383l2.9609-6.2773v-0.003906c0.011719-0.027344 0.027344-0.054688 0.042969-0.082032 2.25-3.8906 2.25-8.6875 0.003906-12.578-2.2422-3.8945-6.3945-6.2969-10.891-6.3008-4.4922-0.003906-8.6484 2.3906-10.898 6.2812-2.2539 3.8906-2.2578 8.6836-0.015625 12.582 0.019531 0.03125 0.035156 0.0625 0.054687 0.10156zm17.664 1.4023v4.2383-0.003906c0 1.0742-0.42578 2.1055-1.1875 2.8633-0.48438 0.48047-1.0781 0.83594-1.7344 1.0273-0.49219 3.4023-3.4102 5.9258-6.8477 5.9258-3.4414 0-6.3594-2.5234-6.8516-5.9258-1.7305-0.50781-2.918-2.0938-2.9219-3.8945v-4.2344l-3.1445-6.6562c-0.64062-1.1133-1.1328-2.3047-1.4648-3.543-0.33594-1.2578-0.50391-2.5547-0.50391-3.8594-0.003906-4.625 2.1406-8.9922 5.8086-11.816 3.668-2.8203 8.4375-3.7773 12.91-2.5859 4.4727 1.1914 8.1328 4.3906 9.9141 8.6641 1.7773 4.2734 1.4688 9.1289-0.83594 13.141zm-17.238 0.90234v3.332c0.003906 0.96094 0.77734 1.7383 1.7383 1.7461h11.457c0.95703-0.011719 1.7305-0.78906 1.7383-1.7461v-3.332zm10.73 9.4883c0.58203-0.58203 1-1.3086 1.207-2.1055h-8.9492c0.41406 1.6055 1.6602 2.8672 3.2578 3.3008 1.6016 0.4375 3.3125-0.019531 4.4844-1.1953zm-23.773 12.848c3.3672 0 6.2656 2.375 6.9258 5.6758 0.65625 3.3008-1.1094 6.6055-4.2188 7.8945-3.1094 1.2891-6.6953 0.19922-8.5625-2.5977-1.8711-2.8008-1.5039-6.5273 0.87891-8.9062 1.3164-1.3242 3.1094-2.0664 4.9766-2.0664zm3.3594 3.6953c-1.5977-1.6094-4.1133-1.8672-6.0039-0.60938-1.8867 1.2539-2.6289 3.668-1.7656 5.7656s3.0898 3.293 5.3164 2.8555c2.2227-0.4375 3.8281-2.3906 3.832-4.6602 0-1.2539-0.49609-2.4609-1.3828-3.3516zm8-2.7891c0.21094 0.39063 0.40234 0.79297 0.57422 1.1992 0.16797 0.41016 0.31641 0.82812 0.44141 1.2539l3.0898 1.0039v5.3672l-3.0898 1.0039v0.003906c-0.125 0.42578-0.27344 0.84375-0.44141 1.2539-0.17188 0.40625-0.35938 0.80859-0.57422 1.1992l1.4727 2.9023-3.7891 3.7969-2.8984-1.4727c-0.39063 0.21094-0.79297 0.39844-1.2031 0.56641-0.41016 0.17187-0.82812 0.32031-1.2539 0.44141l-1.0078 3.0977h-5.3672l-1.0039-3.0898c-0.42188-0.12891-0.84375-0.27734-1.2461-0.44141v-0.003906c-0.41406-0.17188-0.81641-0.36328-1.207-0.57422l-2.8984 1.4766-3.793-3.793 1.4727-2.9023c-0.21094-0.39062-0.40234-0.79297-0.57422-1.1992v-0.003906c-0.16797-0.40625-0.31641-0.82812-0.44141-1.2539l-3.0898-1.0039v-5.3672l3.0898-1.0039c0.125-0.42578 0.27344-0.84375 0.44141-1.2539 0.17188-0.40625 0.35938-0.80859 0.57422-1.1992l-1.4727-2.9023 3.793-3.8008 2.8984 1.4727c0.39062-0.21094 0.79688-0.39844 1.207-0.56641 0.40625-0.17188 0.82422-0.32031 1.2461-0.44531l1.0039-3.0977h5.3672l1.0039 3.0977h0.003906c0.42578 0.125 0.84375 0.27344 1.2539 0.44531 0.41406 0.16797 0.80859 0.35938 1.207 0.56641l2.8984-1.4727 3.793 3.793zm-1.5547 2.0742c-0.21094-0.5-0.45703-0.98438-0.73828-1.4492l-0.33594-0.55078 1.2891-2.5273-1.4258-1.4297-2.5312 1.2891-0.55078-0.33203c-0.46094-0.28516-0.94531-0.53125-1.4492-0.73828-0.5-0.20703-1.0195-0.375-1.5469-0.5l-0.625-0.15234-0.88281-2.707-2.0156-0.003906-0.88281 2.707-0.625 0.15234v0.003906c-0.53125 0.125-1.0508 0.29297-1.5547 0.5-0.5 0.20703-0.98047 0.45312-1.4414 0.73828l-0.55469 0.33203-2.5273-1.2891-1.4258 1.4297 1.2852 2.5312-0.33594 0.55078-0.003906-0.003907c-0.28125 0.46484-0.52734 0.94922-0.73438 1.4492-0.21094 0.50391-0.37891 1.0195-0.50781 1.5469l-0.15234 0.63281-2.707 0.88281v2.0195l2.707 0.88281 0.15234 0.625c0.12891 0.52734 0.29688 1.0469 0.50781 1.5469 0.20703 0.50391 0.45313 0.98438 0.73438 1.4492l0.33594 0.55078-1.2891 2.5273 1.4258 1.4297 2.5273-1.2891 0.55469 0.33594h0.003906c0.46094 0.28516 0.94141 0.53125 1.4414 0.73828 0.50391 0.20703 1.0234 0.375 1.5547 0.50781l0.625 0.14844 0.88281 2.707h2.0156l0.88281-2.707 0.625-0.15234c0.52734-0.12891 1.0508-0.29688 1.5547-0.50391 0.49609-0.21094 0.98047-0.45703 1.4414-0.73828l0.55078-0.33203 2.5352 1.2891 1.4258-1.4297-1.2891-2.5273 0.33594-0.55078v0.003906c0.28125-0.46484 0.52734-0.94922 0.73828-1.4492 0.20703-0.50391 0.37891-1.0195 0.50781-1.5469l0.15234-0.625 2.707-0.88281v-2.0312l-2.707-0.88672-0.15234-0.63281v0.003906c-0.12891-0.53125-0.30078-1.0469-0.50781-1.5508zm43.801-17.406v34.645h12.605v-44.383h-12.605zm-14.914 13.844v20.801h12.609v-33.492h-12.609zm-2.3047 1.1523h-12.613v19.648h12.613z"/>
<text x="0.0" y="117.5" font-size="5.0" font-weight="bold" font-family="Arbeit Regular, Helvetica, Arial-Unicode, Arial, Sans-serif" fill="#000000">Created by feri ulan taufiq</text><text x="0.0" y="122.5" font-size="5.0" font-weight="bold" font-family="Arbeit Regular, Helvetica, Arial-Unicode, Arial, Sans-serif" fill="#000000">from Noun Project</text></svg>