<svg xmlns="http://www.w3.org/2000/svg" xmlns:xlink="http://www.w3.org/1999/xlink" version="1.1" x="0px" y="0px" viewBox="0 0 98 122.5" style="enable-background:new 0 0 98 98;" xml:space="preserve"><path d="M85.711,32.262c-3.006,0-5.651,1.571-7.161,3.934l-1.926-2.014c-1.728-1.808-3.957-2.644-6.449-2.42l-4.104,0.369  c-0.886-0.737-1.821-1.418-2.798-2.037l-0.916-4.012c-0.556-2.438-2.042-4.3-4.295-5.385l-2.509-1.209  c1.213-1.469,1.943-3.352,1.943-5.402c0-4.685-3.811-8.496-8.496-8.496s-8.496,3.811-8.496,8.496c0,2.05,0.73,3.933,1.943,5.402  l-2.51,1.209c-2.253,1.085-3.738,2.947-4.295,5.385l-0.916,4.012c-0.977,0.62-1.912,1.3-2.798,2.038l-4.104-0.369  c-2.49-0.225-4.721,0.613-6.449,2.42l-1.926,2.014c-1.51-2.363-4.155-3.934-7.161-3.934c-4.685,0-8.496,3.811-8.496,8.496  s3.811,8.496,8.496,8.496c1.099,0,2.148-0.212,3.113-0.593l0.374,2.759c0.336,2.478,1.648,4.466,3.795,5.749l3.519,2.103  c0.289,1.135,0.65,2.241,1.079,3.314l-1.613,3.773c-0.983,2.3-0.876,4.679,0.309,6.881l1.318,2.449  c-3.658,0.947-6.367,4.276-6.367,8.226c0,4.685,3.811,8.496,8.496,8.496c4.685,0,8.496-3.811,8.496-8.496  c0-0.174-0.007-0.347-0.017-0.518l2.738,0.497c0.512,0.093,1.017,0.139,1.512,0.139c1.886,0,3.636-0.669,5.128-1.972l3.091-2.701  c0.575,0.037,1.155,0.058,1.74,0.058s1.165-0.021,1.74-0.058l3.092,2.701c1.491,1.303,3.242,1.972,5.128,1.972  c0.496,0,1-0.046,1.513-0.139l2.738-0.497c-0.01,0.172-0.017,0.344-0.017,0.518c0,4.685,3.811,8.496,8.496,8.496  s8.496-3.811,8.496-8.496c0-3.95-2.709-7.279-6.367-8.226l1.318-2.449c1.185-2.202,1.292-4.582,0.309-6.881l-1.613-3.773  c0.429-1.072,0.791-2.178,1.079-3.314l3.519-2.103c2.147-1.283,3.459-3.271,3.795-5.749l0.374-2.759  c0.965,0.381,2.014,0.593,3.113,0.593c4.685,0,8.496-3.811,8.496-8.496S90.395,32.262,85.711,32.262z M49,8.077  c3.313,0,6.009,2.696,6.009,6.009S52.313,20.095,49,20.095s-6.009-2.696-6.009-6.009S45.687,8.077,49,8.077z M38.067,26.635  c0.382-1.674,1.402-2.953,2.949-3.698l3.459-1.666c1.311,0.829,2.862,1.31,4.525,1.31s3.214-0.482,4.525-1.31l3.458,1.666  c1.547,0.745,2.567,2.024,2.949,3.698l0.423,1.855c-3.449-1.625-7.298-2.536-11.356-2.536s-7.907,0.911-11.356,2.536L38.067,26.635z   M6.28,40.758c0-3.313,2.696-6.009,6.009-6.009s6.009,2.696,6.009,6.009c0,3.313-2.696,6.009-6.009,6.009S6.28,44.071,6.28,40.758z   M20.846,55.033c-1.474-0.881-2.375-2.246-2.606-3.948l-0.515-3.804c1.869-1.56,3.06-3.905,3.06-6.524  c0-0.72-0.091-1.419-0.26-2.087l2.649-2.771c1.187-1.241,2.72-1.816,4.428-1.662l1.908,0.172  c-4.489,4.784-7.243,11.214-7.243,18.276c0,1.124,0.071,2.232,0.206,3.32L20.846,55.033z M26.312,89.923  c-3.313,0-6.009-2.696-6.009-6.009c0-3.313,2.696-6.009,6.009-6.009c3.313,0,6.009,2.696,6.009,6.009  C32.321,87.227,29.625,89.923,26.312,89.923z M42.532,80.187c-1.294,1.13-2.87,1.565-4.56,1.258l-3.774-0.685  c-1.189-2.962-3.998-5.104-7.325-5.322l-1.818-3.378c-0.814-1.512-0.887-3.146-0.212-4.725l0.749-1.752  c3.779,6.831,10.46,11.841,18.369,13.356L42.532,80.187z M24.755,52.686c0-13.369,10.876-24.245,24.245-24.245  s24.245,10.876,24.245,24.245S62.369,76.931,49,76.931S24.755,66.055,24.755,52.686z M77.697,83.914  c0,3.313-2.696,6.009-6.009,6.009c-3.313,0-6.009-2.696-6.009-6.009s2.696-6.009,6.009-6.009  C75.002,77.905,77.697,80.601,77.697,83.914z M73.157,67.335c0.675,1.579,0.601,3.213-0.212,4.725l-1.818,3.378  c-3.328,0.218-6.137,2.36-7.325,5.322l-3.774,0.685c-1.69,0.307-3.267-0.128-4.56-1.258l-1.429-1.248  c7.909-1.515,14.59-6.525,18.369-13.356L73.157,67.335z M79.76,51.086c-0.231,1.702-1.132,3.067-2.606,3.948l-1.628,0.973  c0.135-1.088,0.206-2.196,0.206-3.32c0-7.062-2.754-13.492-7.243-18.276l1.908-0.172c1.712-0.154,3.242,0.421,4.429,1.662  l2.649,2.77c-0.169,0.668-0.26,1.367-0.26,2.087c0,2.619,1.192,4.964,3.06,6.524L79.76,51.086z M85.711,46.767  c-3.313,0-6.009-2.696-6.009-6.009s2.696-6.009,6.009-6.009c3.313,0,6.009,2.696,6.009,6.009S89.024,46.767,85.711,46.767z   M66.525,54.78c0.211,0.148,0.448,0.26,0.706,0.326c0.177,0.045,0.357,0.068,0.535,0.068c0.38,0,0.755-0.102,1.09-0.301l2.661-1.579  c1.017-0.604,1.354-1.922,0.75-2.94l-7.026-11.841c-0.604-1.017-1.922-1.354-2.94-0.75l0,0l-2.662,1.579  c-0.638,0.379-1.008,1.039-1.046,1.73l-0.572,0.253h-5.916c-0.218,0-0.433,0.057-0.622,0.167l-1.834,1.059h-9.091l-0.699-0.403  c0.149-0.853-0.228-1.749-1.016-2.217l-2.661-1.579c-1.017-0.604-2.336-0.267-2.94,0.75l-7.509,12.655  c-0.292,0.492-0.375,1.07-0.233,1.625c0.142,0.556,0.491,1.023,0.983,1.315l2.661,1.579c0.335,0.199,0.71,0.301,1.09,0.301  c0.178,0,0.358-0.022,0.535-0.068c0.355-0.091,0.673-0.266,0.932-0.509l1.991,1.15c-0.123,0.343-0.19,0.707-0.19,1.083  c0,0.853,0.329,1.652,0.927,2.25c0.6,0.6,1.399,0.93,2.25,0.93c0.1,0,0.199-0.005,0.297-0.014c0.151,0.457,0.407,0.887,0.77,1.25  c0.696,0.696,1.638,1.002,2.548,0.917c0.151,0.457,0.407,0.887,0.77,1.25c0.696,0.696,1.637,1.001,2.548,0.917  c0.151,0.457,0.407,0.886,0.77,1.249c0.621,0.62,1.435,0.931,2.25,0.931c0.815,0,1.63-0.31,2.25-0.931l0.672-0.673l1.272,0.735  c0.52,0.3,1.098,0.453,1.684,0.453c0.295,0,0.593-0.039,0.886-0.117c0.876-0.235,1.606-0.794,2.058-1.576  c0.222-0.384,0.36-0.795,0.419-1.209c1.243,0.074,2.479-0.539,3.141-1.687c0.218-0.379,0.359-0.788,0.419-1.209  c1.242,0.075,2.479-0.539,3.141-1.687c0.222-0.384,0.36-0.795,0.419-1.209c0.359,0.021,0.724-0.016,1.083-0.112  c0.876-0.235,1.607-0.794,2.058-1.575C66.549,56.402,66.681,55.582,66.525,54.78z M63.276,40.075l6.678,11.254L67.88,52.56  l-6.678-11.254L63.276,40.075z M52.438,43.811h5.846c0.173,0,0.345-0.036,0.503-0.106l0.749-0.332l5.384,9.073l-0.046,0.027  l-10.538-6.084c-0.385-0.222-0.859-0.222-1.243,0l-4.601,2.656c-0.611,0.353-1.395,0.143-1.748-0.468  c-0.353-0.611-0.143-1.396,0.468-1.749L52.438,43.811z M28.046,52.731l7.161-12.068l2.074,1.231L30.12,53.962L28.046,52.731z   M37.172,58.723c-0.267,0.267-0.717,0.266-0.984,0c-0.173-0.173-0.199-0.382-0.199-0.492c0-0.109,0.026-0.319,0.199-0.492  l3.574-3.574c0.267-0.266,0.717-0.267,0.984,0c0.267,0.267,0.267,0.717,0,0.984c-0.001,0.001-0.001,0.001-0.002,0.002L37.172,58.723  z M40.49,60.889c-0.266,0.266-0.717,0.267-0.983,0s-0.267-0.717,0-0.984c0,0,0.001-0.001,0.001-0.001l2.996-2.996  c0.001-0.001,0.001-0.001,0.002-0.002c0.13-0.13,0.304-0.201,0.492-0.201c0.187,0,0.362,0.072,0.492,0.201  c0.173,0.173,0.199,0.382,0.199,0.492c0,0.109-0.026,0.318-0.199,0.492c0,0,0,0,0,0l0,0L40.49,60.889z M43.808,63.055  c-0.266,0.266-0.717,0.267-0.983,0c-0.267-0.267-0.267-0.717,0-0.984l2.423-2.423v0c0.267-0.266,0.717-0.266,0.983,0  c0.173,0.173,0.199,0.382,0.199,0.492s-0.026,0.319-0.199,0.492c-0.001,0.001-0.001,0.001-0.002,0.002L43.808,63.055z   M46.143,65.222c-0.267-0.267-0.267-0.717,0-0.984c0,0,0.001-0.001,0.001-0.001l1.844-1.844c0.001-0.001,0.001-0.001,0.002-0.002  c0.266-0.267,0.717-0.267,0.983,0c0.267,0.267,0.267,0.717,0,0.984l-1.847,1.847C46.86,65.488,46.409,65.488,46.143,65.222z   M53.304,64.559c-0.119,0.206-0.313,0.354-0.547,0.417c-0.234,0.063-0.477,0.032-0.683-0.088l-0.808-0.467  c0.256-0.465,0.394-0.99,0.394-1.539c0-0.109-0.006-0.216-0.016-0.323l1.331,0.768C53.397,63.573,53.548,64.136,53.304,64.559z   M63.984,55.871c-0.119,0.206-0.313,0.353-0.548,0.416c-0.235,0.063-0.477,0.032-0.682-0.087l-8.956-5.171  c-0.594-0.343-1.355-0.14-1.699,0.455c-0.343,0.595-0.139,1.355,0.455,1.699l7.54,4.353c0,0,0,0,0,0c0,0,0,0,0,0l0.002,0.001  c0.42,0.245,0.57,0.807,0.327,1.229c-0.248,0.43-0.8,0.578-1.23,0.33l-1.408-0.813c-0.003-0.002-5.776-3.335-5.776-3.335  c-0.594-0.343-1.355-0.14-1.699,0.455c-0.343,0.595-0.139,1.355,0.455,1.699l5.772,3.333c0.419,0.245,0.569,0.806,0.325,1.228  c-0.248,0.43-0.801,0.578-1.23,0.33l-3.414-1.971c-0.586-0.339-1.333-0.144-1.683,0.431c-0.468-0.397-1.035-0.646-1.643-0.724  c-0.087-0.673-0.388-1.323-0.904-1.839c-0.516-0.516-1.167-0.817-1.841-0.904c-0.088-0.696-0.401-1.337-0.902-1.838  c-0.502-0.502-1.143-0.815-1.838-0.903c-0.087-0.673-0.388-1.323-0.904-1.839c-1.241-1.241-3.26-1.24-4.501,0l-2.764,2.764  l-2.194-1.267l5.666-9.548l0.891,0.514c0.189,0.109,0.403,0.167,0.622,0.167h5.23c-1.391,1.149-1.796,3.17-0.865,4.784  c1.039,1.799,3.346,2.417,5.146,1.379l3.979-2.297l9.939,5.739v0c0.206,0.119,0.354,0.313,0.417,0.547  C64.134,55.422,64.103,55.664,63.984,55.871z"/><text x="0" y="113" fill="#000000" font-size="5px" font-weight="bold" font-family="'Helvetica Neue', Helvetica, Arial-Unicode, Arial, Sans-serif">Created by supeni</text><text x="0" y="118" fill="#000000" font-size="5px" font-weight="bold" font-family="'Helvetica Neue', Helvetica, Arial-Unicode, Arial, Sans-serif">from the Noun Project</text></svg>