<svg xmlns="http://www.w3.org/2000/svg" xmlns:xlink="http://www.w3.org/1999/xlink" version="1.1" x="0px" y="0px" viewBox="0 0 96 120" enable-background="new 0 0 96 96" xml:space="preserve"><path d="M88.5,32.086h-2.08l1.471-1.471L65.385,8.109L63.914,9.58V7.5H32.086v2.081l-1.471-1.471L8.109,30.615l1.471,1.471H7.5  v31.828h2.08l-1.471,1.471l22.505,22.506l1.471-1.471v2.08h31.828v-2.08l1.471,1.471l22.506-22.506l-1.471-1.471h2.08V32.086z   M8.5,62.914V33.086h2.081L25.494,48L10.58,62.914H8.5z M32.086,85.006l-1.471,1.471L9.523,65.385l1.471-1.471h21.092V85.006z   M32.086,62.914H11.994l14.207-14.207l5.885,5.885V62.914z M32.086,53.178L26.908,48l5.178-5.178V53.178z M32.086,41.408  l-5.885,5.885L11.995,33.086h20.091V41.408z M32.086,32.086H10.995l-1.471-1.471L30.615,9.523l1.471,1.471V32.086z M33.086,11.995  l14.207,14.207l-5.885,5.885h-8.322V11.995z M48,26.908l5.178,5.178H42.822L48,26.908z M33.086,33.086h7.322l-7.322,7.322V33.086z   M33.086,55.592l7.322,7.322h-7.322V55.592z M33.086,63.914h8.322l5.885,5.885L33.086,84.006V63.914z M42.822,63.914h10.355  L48,69.092L42.822,63.914z M62.914,87.5H33.086v-2.08L48,70.506L62.914,85.42V87.5z M62.914,84.006L48.707,69.799l5.885-5.885h8.322  V84.006z M62.914,62.914h-7.322l7.322-7.322V62.914z M62.914,54.178l-8.736,8.736H41.822l-8.736-8.736V41.822l8.736-8.736h12.355  l8.736,8.736V54.178z M62.914,40.408l-7.322-7.322h7.322V40.408z M62.914,32.086h-8.322l-5.885-5.885l14.207-14.207V32.086z   M62.914,10.58L48,25.494L33.086,10.581V8.5h29.828V10.58z M63.914,10.994l1.471-1.471l21.092,21.091l-1.471,1.471H63.914V10.994z   M63.914,33.086h20.092L69.799,47.293l-5.885-5.885V33.086z M63.914,42.822L69.092,48l-5.178,5.178V42.822z M63.914,54.592  l5.885-5.885l14.207,14.207H63.914V54.592z M86.477,65.385L65.385,86.477l-1.471-1.471V63.914h21.092L86.477,65.385z M87.5,62.914  h-2.08L70.506,48L85.42,33.086h2.08V62.914z"/><text x="0" y="111" fill="#000000" font-size="5px" font-weight="bold" font-family="'Helvetica Neue', Helvetica, Arial-Unicode, Arial, Sans-serif">Created by projecthayat</text><text x="0" y="116" fill="#000000" font-size="5px" font-weight="bold" font-family="'Helvetica Neue', Helvetica, Arial-Unicode, Arial, Sans-serif">from the Noun Project</text></svg>