<svg xmlns="http://www.w3.org/2000/svg" xmlns:xlink="http://www.w3.org/1999/xlink" version="1.1" x="0px" y="0px" viewBox="0 0 67 83.75" enable-background="new 0 0 67 67" xml:space="preserve"><g><path d="M32.0776367,57.4435387c1.296875,0,2.3525391-1.0512695,2.3525391-2.3432617   c0-1.2973633-1.0556641-2.3525391-2.3525391-2.3525391c-1.2919922,0-2.34375,1.0551758-2.34375,2.3525391   C29.7338867,56.3922691,30.7856445,57.4435387,32.0776367,57.4435387z M32.0776367,54.2477379   c0.4785156,0,0.8525391,0.3745117,0.8525391,0.8525391c0,0.4648438-0.3828125,0.8432617-0.8525391,0.8432617   c-0.4648438,0-0.84375-0.378418-0.84375-0.8432617C31.2338867,54.6300621,31.612793,54.2477379,32.0776367,54.2477379z"/><path d="M61.8969727,11.845396c-0.1630859-0.5952148-0.3671875-1.1586914-0.609375-1.6845703l1.8369141-1.8701172   c0.2851563-0.2905273,0.2871094-0.7553716,0.0029297-1.047852l-3.9501953-4.0698242   c-0.140625-0.1450195-0.3339844-0.2270508-0.5361328-0.2275391c-0.2226563-0.0048828-0.3955078,0.0805664-0.5380859,0.2255859   l-1.6826172,1.7197263c-0.5712891-0.3139648-1.1669922-0.5771484-1.78125-0.7866211V1.6954935   c0-0.4140625-0.3359375-0.75-0.75-0.75h-5.5791016c-0.4140625,0-0.75,0.3359375-0.75,0.75v2.4096677   c-0.6191406,0.2119141-1.2109375,0.4741211-1.7666016,0.7836914l-1.6777344-1.7172849   c-0.140625-0.1445313-0.3339844-0.2260742-0.5361328-0.2260742c0,0,0,0-0.0009766,0   c-0.2021484,0-0.3955078,0.0820313-0.5361328,0.2270508l-3.9599609,4.0698242   c-0.2841797,0.2915039-0.2832031,0.7563477,0.0009766,1.0473638l1.8310547,1.8730469   c-0.2363281,0.5214844-0.4394531,1.0786133-0.6123047,1.6826172h-2.6523438c-0.4140625,0-0.75,0.3359375-0.75,0.75v1.4599609   h-9.3203125V8.1154156c0-0.414063-0.3359375-0.7500005-0.75-0.7500005h-6.9697266c-0.4140625,0-0.75,0.3359375-0.75,0.7500005   v5.9399414H5.2192383c-1.9462891,0-3.5292969,1.5834961-3.5292969,3.5302734c0,15.5892315,0,31.9082012,0,38.1245117   c0,1.9462891,1.5830078,3.5292969,3.5292969,3.5292969h19.6201172v5.3149452h-2.9941406c-0.4140625,0-0.75,0.3359375-0.75,0.75   s0.3359375,0.75,0.75,0.75c7.4008179,0,13.0490723,0,20.4736328,0c0.4140625,0,0.75-0.3359375,0.75-0.75s-0.3359375-0.75-0.75-0.75   H39.324707v-5.3149452h19.6210938c1.9453125,0,3.5283203-1.5830078,3.5283203-3.5292969   c-0.0053101-33.9346924-0.0048218-31.0910625-0.0048828-31.3391094l0.65625-0.6711426   c0.2841797-0.2905273,0.2851563-0.7539063,0.0029297-1.0458984l-0.6591797-0.6802979v-2.8983154h2.0908203   c0.4140625,0,0.75-0.3359375,0.75-0.75V12.595396c0-0.4140625-0.3359375-0.75-0.75-0.75H61.8969727z M27.5795898,15.555357   h9.3203125v2.2001953h-9.3203125V15.555357z M27.5795898,19.2555523h13.0917969   c0.0145264,0.0375977,0.0362549,0.0751953,0.0512695,0.112793c0.1437988,0.3601074,0.3029175,0.7196045,0.4926758,1.0830078   l-2.1337891,2.2021484c-0.2832031,0.2919922-0.2822266,0.7563477,0.0029297,1.046875l3.9599609,4.0400391   c0.140625,0.144043,0.3339844,0.2250977,0.5351563,0.2250977h0.0009766   c0.2021484-0.0004883,0.3955078-0.0820313,0.5361328-0.2265625l2.265625-2.3256836   c0.3876953,0.184082,0.78125,0.34375,1.1777344,0.4770508v2.9287109l-4.682373,3.0545654   c-0.3167114-0.2073975-0.6930542-0.3309326-1.1000977-0.3309326c-0.4100342,0-0.7893677,0.1247559-1.1075439,0.3349609   l-7.6021729-5.859375c-0.2548828-0.1958008-0.6064453-0.2089844-0.875-0.0292969l-8.7729492,5.8620605   c-0.3084717-0.1918945-0.6687622-0.3083496-1.059021-0.3083496c-0.2702637,0-0.5266724,0.0556641-0.7619629,0.1520996   l-4.6334839-4.3730469c0.1137085-0.2529297,0.1803589-0.5307617,0.1803589-0.8239746   c0-1.1218262-0.9028931-2.0383301-2.0245972-2.0383301c-1.1217651,0-2.0247192,0.9165039-2.0247192,2.0383301   c0,1.1080322,0.9029541,2.0246582,2.0247192,2.0246582c0.272583,0,0.5313721-0.0561523,0.7683105-0.1539307l4.6317749,4.3715801   c-0.116394,0.2573242-0.1851196,0.5406494-0.1851196,0.8409424c0,1.1081543,0.9029541,2.0246582,2.0247192,2.0246582   c1.1217041,0,2.0246582-0.9165039,2.0246582-2.0246582c0-0.1809082-0.0310669-0.3533936-0.0751953-0.520752l8.2682495-5.5249004   l7.2339478,5.5754375c-0.0358276,0.1516113-0.0596924,0.3078613-0.0596924,0.4702148   c0,1.1081543,0.9029541,2.0246582,2.0247192,2.0246582c1.1217041,0,2.0245972-0.9165039,2.0245972-2.0246582   c0-0.1654053-0.0250854-0.3242188-0.0621948-0.4783936l4.7938232-3.1268291h5.3553467c0.4140625,0,0.75-0.3359375,0.75-0.75   V25.892271c0.3994141-0.1337891,0.796875-0.2939453,1.1884766-0.4794922l1.4423828,1.4780273v20.3544903H6.8999023V19.2555523   h12.2099609v0.8100586h-2.9902344c-0.3037109,0-0.5771484,0.1826172-0.6923828,0.4628906   c-0.1162109,0.2797852-0.0527344,0.6025391,0.1621094,0.8168945l7.2294922,7.2397461   c0.140625,0.1411133,0.3310547,0.2202148,0.5302734,0.2202148s0.3896484-0.0791016,0.5302734-0.2202148l7.2207031-7.2299805   c0.2148438-0.2143555,0.2783203-0.5371094,0.1621094-0.8168945c-0.1152344-0.2802734-0.3886719-0.4628906-0.6923828-0.4628906   h-2.9902344V19.2555523z M19.8598633,21.5656109c0.4140625,0,0.75-0.3359375,0.75-0.75c0-4.2668457,0-7.666626,0-11.9501953   h5.4697266c0,4.28125,0,7.6782227,0,11.9599609c0,0.4140625,0.3359375,0.75,0.75,0.75h1.9316406l-5.4121094,5.418457   l-5.4208984-5.4282227H19.8598633z M3.1899414,17.5856304c0-1.1196289,0.9101563-2.0302734,2.0292969-2.0302734h13.890625   v2.2001953H6.1499023c-0.4140625,0-0.75,0.3359375-0.75,0.75v29.4897442c0,0.4140625,0.3359375,0.75,0.75,0.75h51.8701172   c0.4140625,0,0.75-0.3359375,0.75-0.75V27.939146c0.1517334-0.0275879,0.2960815-0.0874023,0.4052734-0.1992188   l1.7939453-1.8344727v25.0400372H3.1899414V17.5856304z M37.824707,64.5543823H26.3393555v-5.3149452H37.824707V64.5543823z    M60.9741211,55.7101402c0,1.1191406-0.9101563,2.0292969-2.0283203,2.0292969c-11.2667847,0-42.1184082,0-53.7265625,0   c-1.1191406,0-2.0292969-0.9101563-2.0292969-2.0292969v-3.2583008h57.7841797V55.7101402z M63.8100586,17.5753765h-2.0908203   h-0.6494141c-0.328125,0-0.6181641,0.2133789-0.7158203,0.5263672c-0.2207031,0.7070313-0.5263672,1.3935547-0.9335938,2.0986328   c-0.1679688,0.2900391-0.1220703,0.6567383,0.1113281,0.8974609l2.0117188,2.074707l-2.9052734,2.9716797l-2.1211166-2.1728516   c-0.2343521-0.2392578-0.5966568-0.2954102-0.8925552-0.1362305c-0.6308594,0.3388672-1.2802734,0.6005859-1.9316406,0.7763672   c-0.2446289,0.0662842-0.4337769,0.2498779-0.5130615,0.4804688c-0.0264282,0.0769043-0.0406494,0.1589355-0.0406494,0.2436523   v3.1401367h-4.0791016v-3.1401367c0-0.3378906-0.2255859-0.6337891-0.5517578-0.7231445   c-0.6484375-0.1782227-1.2958984-0.4394531-1.9228516-0.7773438c-0.2919922-0.1591797-0.6591797-0.1025391-0.8925781,0.1367188   l-2.1152344,2.1704102l-2.9101563-2.9697266l2.0107422-2.0756836c0.2324219-0.2402344,0.2783203-0.605957,0.1113281-0.8959961   c-0.3798828-0.6591797-0.6669922-1.2905273-0.9082031-2.0224609c-0.0009766-0.0019531-0.0322266-0.09375-0.0322266-0.0952148   c-0.1035156-0.3037109-0.3896484-0.5078125-0.7099609-0.5078125h-2.7392578V14.805357V13.345396h2.4794922   c0.3457031,0,0.6464844-0.2363281,0.7285156-0.5722656c0.2236328-0.9155273,0.5107422-1.7045898,0.8779297-2.4125977   c0.1484375-0.2875977,0.0966797-0.6381836-0.1298828-0.8696289l-1.6884766-1.7270513l2.9130859-2.9936523l1.5527344,1.5893555   c0.2480469,0.2548828,0.6416016,0.2988281,0.9394531,0.1083984c0.7373047-0.4702148,1.5595703-0.8374023,2.444313-1.0917969   c0.321312-0.0922852,0.5429916-0.3862305,0.5429916-0.7207031V2.4454935h4.0791016v2.2099607   c0,0.3354492,0.2226563,0.6298828,0.5449219,0.7216797c0.8662109,0.2460938,1.6972656,0.6142578,2.46875,1.0952148   c0.2988281,0.1865234,0.6914063,0.1391602,0.9375-0.1171875l1.546875-1.5849609l2.9042969,2.9921875l-1.6972656,1.7275395   c-0.2294922,0.2333984-0.2802734,0.5883789-0.1269531,0.8774414c0.375,0.7060547,0.6650391,1.5102539,0.8603516,2.3911133   c0.0761719,0.3427734,0.3808594,0.5869141,0.7324219,0.5869141h2.5V17.5753765z"/><path d="M51.1293945,6.2658057c-4.7662964,0-8.5400391,3.9300542-8.5400391,8.7075195   c0,4.8203125,3.8310547,8.7416992,8.5400391,8.7416992c4.7901001,0,8.5332031-3.9891357,8.5332031-8.7416992   C59.6625977,10.2468853,55.9361572,6.2658057,51.1293945,6.2658057z M51.1293945,22.2150249   c-3.8818359,0-7.0400391-3.2485352-7.0400391-7.2416992c0-3.9597168,3.1240845-7.20752,7.0400391-7.20752   c3.9595337,0,7.0332031,3.2941899,7.0332031,7.20752C58.1625977,18.9193707,55.0635376,22.2150249,51.1293945,22.2150249z"/><path d="M19.862793,6.1549659h6.9707031c0.4140625,0,0.75-0.3359375,0.75-0.75V1.7697122c0-0.4140625-0.3359375-0.75-0.75-0.75   H19.862793c-0.4140625,0-0.75,0.3359375-0.75,0.75v3.6352537C19.112793,5.8190284,19.4487305,6.1549659,19.862793,6.1549659z    M20.612793,2.5197122h5.4707031v2.1352537H20.612793V2.5197122z"/><path d="M8.9926758,39.4738121v5.1025391c0,0.4140625,0.3359375,0.75,0.75,0.75h43.0097656c0.4140625,0,0.75-0.3359375,0.75-0.75   V31.6764507c0-0.2807617-0.1572266-0.5380859-0.40625-0.6665039c-0.25-0.1298828-0.5517578-0.1069336-0.7783203,0.0556641   l-10.6552734,7.5844707l-8.5888672-6.6235352c-0.2548828-0.1967754-0.6074219-0.2089825-0.8740234-0.0302715l-9.75,6.5082989   l-6.8164063-6.4296875c-0.1533203-0.1445293-0.3603516-0.2207012-0.5703125-0.2026348   c-0.2109375,0.015625-0.4042969,0.1191406-0.5341797,0.2851543L9.152832,39.0109215   C9.0493164,39.1427574,8.9926758,39.3058434,8.9926758,39.4738121z M10.4926758,39.7330894l4.7089844-6.003418l6.6533203,6.2758789   c0.2539063,0.2397461,0.6416016,0.2714844,0.9306641,0.0786133l9.7988281-6.5410156l8.6025391,6.6337891   c0.2617188,0.2016602,0.6240234,0.2089844,0.8925781,0.0170898l9.9228516-7.0629883v10.6953125H10.4926758V39.7330894z"/></g><text x="0" y="82" fill="#000000" font-size="5px" font-weight="bold" font-family="'Helvetica Neue', Helvetica, Arial-Unicode, Arial, Sans-serif">Created by Vectors Point</text><text x="0" y="87" fill="#000000" font-size="5px" font-weight="bold" font-family="'Helvetica Neue', Helvetica, Arial-Unicode, Arial, Sans-serif">from the Noun Project</text></svg>