<svg xmlns="http://www.w3.org/2000/svg" data-name="Layer 1" viewBox="0 0 95 118.75" x="0px" y="0px"><defs><style>.cls-1{fill-rule:evenodd;}</style></defs><title>a</title><path class="cls-1" d="M16.109,55.512l.241.013c.345.018.68.028.994.026,9.4-1.653,13.393,1.513,17.021,4.39A16.967,16.967,0,0,0,39,62.879L56.569,65.7a1.143,1.143,0,0,1,.119.027v0a8.148,8.148,0,0,1,3.964,2.7,5.278,5.278,0,0,1,1.261,4.117,4.909,4.909,0,0,1-1.338,2.63l2.728-1.05L82.8,62.04a8.34,8.34,0,0,1,6.576-.677,5.368,5.368,0,0,1,2.04,1.133,3.253,3.253,0,0,1,1.075,2.122c.106,1.213-.472,2.645-2.092,4.235a1.1,1.1,0,0,1-.162.13L62.475,88.975a5.972,5.972,0,0,1-2.88,1.137L48.464,91.548a6.173,6.173,0,0,1-1.134.049,6.289,6.289,0,0,1-1.128-.164L22.167,85.72l-5.979-.089v.013a2.038,2.038,0,0,1-.6,1.444l0,0a2.038,2.038,0,0,1-1.443.6H4.548A2.052,2.052,0,0,1,2.5,85.644V56.075a2.045,2.045,0,0,1,.6-1.443l.007-.006a2.04,2.04,0,0,1,1.44-.6H14.14a2.055,2.055,0,0,1,1.969,1.485ZM70.891,42.19a7.6,7.6,0,1,0,5.376,2.227,7.576,7.576,0,0,0-5.376-2.227Zm3.885,3.718a5.495,5.495,0,1,0,1.609,3.885,5.478,5.478,0,0,0-1.609-3.885ZM72.528,39.08,72.2,37.372H69.581l-.328,1.708a1.052,1.052,0,0,1-.843.837,10.165,10.165,0,0,0-2.8,1.17,1.05,1.05,0,0,1-1.141-.035l-1.431-.97L61.18,41.938l.975,1.44a1.047,1.047,0,0,1,.014,1.157A10.194,10.194,0,0,0,61,47.369a1.051,1.051,0,0,1-.824.785h0l-1.707.329V51.1l1.707.328a1.053,1.053,0,0,1,.838.843,10.2,10.2,0,0,0,1.169,2.8,1.048,1.048,0,0,1-.034,1.141l-.97,1.431L63.036,59.5l1.439-.975a1.051,1.051,0,0,1,1.158-.015,10.038,10.038,0,0,0,1.358.686,10.216,10.216,0,0,0,1.475.483,1.052,1.052,0,0,1,.786.824h0l.328,1.707H72.2l.328-1.707a1.054,1.054,0,0,1,.843-.838A10.12,10.12,0,0,0,74.79,59.2a10.01,10.01,0,0,0,1.383-.7,1.049,1.049,0,0,1,1.142.034l1.431.97L80.6,57.648l-.976-1.439a1.053,1.053,0,0,1-.014-1.158,10.166,10.166,0,0,0,1.169-2.833,1.048,1.048,0,0,1,.824-.786h0l1.708-.328V48.484L81.6,48.155a1.05,1.05,0,0,1-.837-.842,10.177,10.177,0,0,0-.469-1.42,10.06,10.06,0,0,0-.7-1.382,1.051,1.051,0,0,1,.035-1.142l.97-1.431-1.856-1.856-1.44.976a1.051,1.051,0,0,1-1.157.014A10.189,10.189,0,0,0,73.315,39.9a1.049,1.049,0,0,1-.785-.824Zm1.685-2.388a1.752,1.752,0,0,0-1.726-1.429H69.294a1.754,1.754,0,0,0-1.726,1.429l-.259,1.35q-.572.174-1.117.4t-1.079.511l-1.139-.772a1.747,1.747,0,0,0-.987-.3q.036-.6.063-1.2.05-1.151.067-2.259h15.5q-.03.87-.111,1.7-.092.921-.246,1.848a1.808,1.808,0,0,0-.455.222l-1.139.772c-.351-.188-.712-.359-1.08-.511s-.735-.284-1.116-.4l-.26-1.35Zm6.071,1.945q.2-1.131.317-2.328.147-1.489.147-2.948A29.949,29.949,0,1,0,61.787,61.236a1.755,1.755,0,0,0,2.187.169l1.139-.771q.526.282,1.079.511t1.117.4l.259,1.35a1.754,1.754,0,0,0,1.726,1.428h3.193A1.752,1.752,0,0,0,74.213,62.9l.26-1.35q.572-.174,1.117-.4c.367-.153.728-.323,1.079-.511l1.139.771a1.754,1.754,0,0,0,2.228-.209l2.258-2.257A1.756,1.756,0,0,0,82.5,56.71l-.772-1.139q.282-.526.511-1.079t.4-1.117l1.35-.259a1.754,1.754,0,0,0,1.429-1.726V48.2a1.754,1.754,0,0,0-1.429-1.727l-1.35-.259q-.174-.572-.4-1.117t-.511-1.079l.772-1.139a1.754,1.754,0,0,0-.209-2.228l-2.01-2.011ZM60.155,59.606l-.667-.667a1.756,1.756,0,0,1-.209-2.229l.771-1.139q-.255-.477-.468-.977a21.119,21.119,0,0,1-3.326,5.774q-.168.2-.341.382c.139-.026.278-.053.416-.081a27.6,27.6,0,0,0,3.824-1.063Zm-2.261-6.47-.1-.02a1.754,1.754,0,0,1-1.428-1.726V48.2a1.754,1.754,0,0,1,1.428-1.727l1.35-.259.008-.023q-1.677-.2-3.447-.322-1.875-.126-3.863-.155V61.054A6.332,6.332,0,0,0,54.658,59a20,20,0,0,0,3.236-5.864Zm2.075-8.967c-1.34-.172-2.719-.308-4.129-.4-1.317-.089-2.654-.144-4-.164V34.415h9.172q-.015,1.13-.06,2.168-.063,1.431-.176,2.779l-1.285,1.286a1.754,1.754,0,0,0-.209,2.228l.771,1.139-.081.154ZM28.41,16.762A27.894,27.894,0,0,1,45.659,5.975a20.715,20.715,0,0,0-3.839,6.559,45.155,45.155,0,0,0-2.152,7.609q-1.122-.186-2.19-.407a37.286,37.286,0,0,1-9.068-2.974ZM41.753,20.45A42.83,42.83,0,0,1,43.781,13.3c1.628-4.169,3.707-6.961,5.947-7.637V21.011a69.623,69.623,0,0,1-7.975-.561Zm10.084.561V5.664c2.241.676,4.319,3.468,5.947,7.637a42.735,42.735,0,0,1,2.028,7.149,69.623,69.623,0,0,1-7.975.561Zm10.06-.868a45.062,45.062,0,0,0-2.152-7.609,20.7,20.7,0,0,0-3.839-6.559A27.894,27.894,0,0,1,73.155,16.762a37.286,37.286,0,0,1-9.068,2.974q-1.068.222-2.19.407Zm12.46-1.628a27.707,27.707,0,0,1,4.262,13.791h-15.5a70.122,70.122,0,0,0-.851-10.093q1.146-.191,2.241-.417a39.033,39.033,0,0,0,9.849-3.281ZM60.184,22.524a68,68,0,0,1,.824,9.782H51.837V23.12a71.376,71.376,0,0,0,8.347-.6Zm-10.456.6v9.186H40.557a68.148,68.148,0,0,1,.824-9.782,71.392,71.392,0,0,0,8.347.6ZM39.3,22.213a70.126,70.126,0,0,0-.85,10.093h-15.5a27.708,27.708,0,0,1,4.263-13.791A39.005,39.005,0,0,0,37.058,21.8q1.093.227,2.24.417Zm10.43,12.2V43.6a71.371,71.371,0,0,0-8.347.6,68.174,68.174,0,0,1-.824-9.783Zm-11.281,0A70.252,70.252,0,0,0,39.3,44.508q-1.145.19-2.24.417a39,39,0,0,0-9.849,3.282,27.711,27.711,0,0,1-4.263-13.792ZM49.728,61.058V45.711a69.629,69.629,0,0,0-7.975.56,42.843,42.843,0,0,0,2.028,7.15c1.628,4.169,3.707,6.961,5.947,7.637Zm-10.06-14.48q-1.122.186-2.19.407a37.329,37.329,0,0,0-9.068,2.974A27.894,27.894,0,0,0,45.659,60.746a20.7,20.7,0,0,1-3.839-6.559,45.129,45.129,0,0,1-2.152-7.609ZM16.188,83.53l6.052.09a1.078,1.078,0,0,1,.318.026l24.13,5.735a4.287,4.287,0,0,0,.749.115,4.214,4.214,0,0,0,.764-.032l11.13-1.436a4.15,4.15,0,0,0,1.006-.256,4.2,4.2,0,0,0,.911-.5L88.974,67.3c1.071-1.065,1.466-1.891,1.413-2.5a1.19,1.19,0,0,0-.408-.763,3.288,3.288,0,0,0-1.24-.672,6.1,6.1,0,0,0-4.8.439h0L64.33,75.96h0a1.067,1.067,0,0,1-.176.087l-3.6,1.386a1.046,1.046,0,0,1-.554.106l-4.807-.413c-.115-.006-.229-.016-.343-.029L35.929,75.472a1.054,1.054,0,1,1,.173-2.1L55.49,75.035a5.264,5.264,0,0,0,2.823-.731A3.086,3.086,0,0,0,59.838,72.2a3.24,3.24,0,0,0-.833-2.461,5.962,5.962,0,0,0-2.842-1.969L38.6,64.945a1.133,1.133,0,0,1-.209-.05,18.241,18.241,0,0,1-5.34-3.306c-3.28-2.6-6.89-5.465-15.415-3.95v0a.921.921,0,0,1-.168.015c-.417.006-.829,0-1.229-.024l-.054,0V83.53ZM14.079,56.137H4.61V85.583h9.469Z"/><text x="0" y="110" fill="#000000" font-size="5px" font-weight="bold" font-family="'Helvetica Neue', Helvetica, Arial-Unicode, Arial, Sans-serif">Created by dewi persik</text><text x="0" y="115" fill="#000000" font-size="5px" font-weight="bold" font-family="'Helvetica Neue', Helvetica, Arial-Unicode, Arial, Sans-serif">from the Noun Project</text></svg>