<svg xmlns="http://www.w3.org/2000/svg" data-name="Layer 1" viewBox="0 0 100 125" x="0px" y="0px"><defs><style>
      .cls-1 {
        fill-rule: evenodd;
      }
    </style></defs><path class="cls-1" d="m62.979,49.833c1.49,0,2.697,1.208,2.697,2.697s-1.208,2.697-2.697,2.697-2.697-1.208-2.697-2.697,1.208-2.697,2.697-2.697h0Zm24.375-37.434l-2.138-.886-1.123,1.325h-.001c-.217.255-.555.399-.913.354-.381-.048-.762-.072-1.14-.072-.362,0-.723.022-1.08.065-.351.065-.726-.055-.972-.347l-1.124-1.327-2.137.885.143,1.734h-.003c.027.335-.11.677-.396.898-.298.231-.585.483-.857.755-.251.251-.488.517-.709.798-.201.3-.555.484-.94.453l-1.733-.144-.886,2.138,1.325,1.123h-.001c.256.218.401.556.355.914-.048.381-.072.762-.072,1.14,0,.362.022.723.065,1.08.065.351-.055.726-.347.972l-1.327,1.124.885,2.137,1.734-.143v.003c.335-.027.677.11.898.396.231.298.483.585.755.857.251.251.517.488.798.709.3.201.484.555.453.94l-.144,1.733,2.138.886,1.123-1.325h.001c.217-.255.555-.399.913-.354.381.048.762.072,1.14.072.362,0,.723-.022,1.08-.065.351-.065.726.055.972.347l1.124,1.327,2.137-.885-.143-1.734h.003c-.027-.335.11-.677.396-.898.298-.231.585-.483.857-.755.251-.251.488-.517.709-.798.201-.3.555-.484.94-.453l1.733.144.886-2.138-1.325-1.123h.001c-.256-.218-.401-.556-.355-.914.048-.381.072-.762.072-1.14,0-.362-.022-.723-.065-1.08-.065-.351.055-.726.347-.972l1.327-1.124-.885-2.137-1.734.143v-.003c-.335.027-.677-.11-.898-.396-.231-.298-.483-.585-.755-.857-.251-.251-.517-.488-.798-.709-.3-.201-.484-.555-.453-.94l.144-1.733h0Zm-2.042-3.073l3.525,1.461c.423.176.667.601.631,1.034h.001s-.161,1.944-.161,1.944c.212.182.415.371.611.567.195.195.383.398.563.608l1.943-.16c.485-.04.919.263,1.064.707l1.43,3.455c.174.423.045.895-.286,1.175h0s-1.488,1.261-1.488,1.261c.021.276.031.553.031.831,0,.277-.01.555-.031.832l1.487,1.26c.35.296.453.777.286,1.179l-1.461,3.525c-.176.423-.601.667-1.034.631h0s-1.944-.16-1.944-.16c-.182.212-.371.415-.567.611-.195.195-.398.383-.608.563l.16,1.943c.04.485-.263.919-.707,1.064l-3.455,1.43c-.423.174-.895.045-1.175-.286h0s-1.26-1.487-1.26-1.487c-.276.021-.553.031-.831.031-.277,0-.555-.01-.832-.031l-1.26,1.486c-.296.35-.777.453-1.179.286l-3.525-1.461c-.423-.176-.667-.601-.631-1.034h-.001s.161-1.944.161-1.944c-.212-.182-.415-.371-.611-.567-.195-.195-.383-.398-.563-.608l-1.943.16c-.485.04-.919-.263-1.064-.707l-1.43-3.455c-.174-.423-.045-.895.286-1.175h0s1.488-1.261,1.488-1.261c-.021-.276-.031-.553-.031-.831,0-.277.01-.555.031-.832l-1.486-1.26c-.35-.296-.453-.777-.286-1.179l1.461-3.525c.176-.423.601-.667,1.034-.631h0s1.944.16,1.944.16c.182-.212.371-.415.567-.611.195-.195.398-.383.608-.563l-.16-1.943c-.04-.485.263-.919.707-1.064l3.455-1.43c.423-.174.895-.045,1.175.286h0s1.26,1.487,1.26,1.487c.276-.021.553-.031.831-.031.277,0,.555.01.832.031l1.26-1.486c.296-.35.777-.453,1.179-.286h0Zm.635,11.259c.414,1.001.447,2.16,0,3.24-.448,1.081-1.289,1.877-2.287,2.29-1.001.414-2.16.447-3.24,0h0c-1.08-.448-1.876-1.29-2.289-2.287-.414-1.001-.447-2.16,0-3.24h0c.448-1.081,1.289-1.877,2.287-2.29,1.001-.414,2.16-.447,3.24,0,1.081.448,1.877,1.289,2.29,2.287h0Zm-1.501-4.187c1.602.664,2.785,1.917,3.401,3.406.615,1.486.663,3.207,0,4.81-.664,1.602-1.917,2.785-3.406,3.401-1.465.606-3.158.662-4.742.027-.046-.015-.09-.034-.133-.055-1.569-.671-2.728-1.91-3.336-3.379-.606-1.465-.662-3.158-.027-4.742.015-.046.034-.09.055-.133.671-1.569,1.91-2.728,3.379-3.336,1.486-.615,3.207-.664,4.81,0h0Zm-21.444,62.911h-7.653c-.074,0-.143.031-.193.081s-.081.118-.081.193v8.35c1.37-1.466,4.242-4.77,6.688-7.328.44-.46.857-.896,1.24-1.296h0Zm-3.998-61.451H12.79c-.643,0-1.227.263-1.65.685-.423.423-.685,1.007-.685,1.65v63.286h-3.119c-.074,0-.143-.031-.193-.081-.05-.05-.081-.118-.081-.193V14.979c0-.074.031-.143.081-.193.05-.05.119-.081.193-.081h51.147c.143,0,.273.059.368.153.095.095.154.225.154.368v2.631h0Zm-38.221,30.672h20.724c.569,0,1.031-.461,1.031-1.031s-.461-1.031-1.031-1.031h-20.724c-.569,0-1.031.461-1.031,1.031s.461,1.031,1.031,1.031h0Zm0,6.807h20.724c.569,0,1.031-.461,1.031-1.031s-.461-1.031-1.031-1.031h-20.724c-.569,0-1.031.461-1.031,1.031s.461,1.031,1.031,1.031h0Zm-3.902-6.807h.714c.569,0,1.031-.461,1.031-1.031s-.461-1.031-1.031-1.031h-.714c-.569,0-1.031.461-1.031,1.031s.461,1.031,1.031,1.031h0Zm0,6.807h.714c.569,0,1.031-.461,1.031-1.031s-.461-1.031-1.031-1.031h-.714c-.569,0-1.031.461-1.031,1.031s.461,1.031,1.031,1.031h0Zm46.098-19.736c-4.333,0-8.666,1.653-11.972,4.959-3.306,3.306-4.959,7.639-4.959,11.972s1.653,8.666,4.959,11.972c3.306,3.306,7.639,4.959,11.972,4.959s8.666-1.653,11.972-4.959c3.306-3.306,4.959-7.639,4.959-11.972s-1.653-8.666-4.959-11.972c-3.306-3.306-7.639-4.959-11.972-4.959h0Zm-13.429,3.502c3.708-3.708,8.569-5.563,13.429-5.563.493,0,.987.019,1.479.058v-13.157c0-.143-.059-.273-.153-.368-.095-.095-.225-.153-.368-.153H12.79c-.074,0-.143.031-.193.081-.05.05-.081.119-.081.193v68.225c0,.074.031.143.081.193.05.05.118.081.193.081h40.224v-9.109c0-.643.263-1.227.685-1.65.423-.423,1.007-.685,1.65-.685h9.109v-5.782c-.492.038-.986.058-1.479.058-4.86,0-9.721-1.854-13.429-5.563-3.708-3.708-5.563-8.569-5.563-13.429s1.854-9.721,5.563-13.429h0Zm26.067,27.606c.269-.24.533-.489.791-.747.258-.258.507-.522.747-.791l3.203,3.203-1.538,1.538-3.203-3.203h0Zm2.104,5.018c-.069.279-.103.564-.103.85,0,.902.343,1.805,1.029,2.491l8.456,8.456c.686.686,1.589,1.029,2.491,1.029s1.805-.343,2.491-1.029l1.885-1.885c.686-.686,1.029-1.589,1.029-2.491s-.343-1.805-1.029-2.491l-8.456-8.456c-.686-.686-1.589-1.029-2.491-1.029-.285,0-.571.034-.85.103l-3.723-3.723c2.347-3.286,3.52-7.153,3.52-11.019,0-4.86-1.854-9.721-5.563-13.429-2.804-2.804-6.266-4.547-9.889-5.231v-13.431c0-.712-.29-1.358-.757-1.825-.467-.468-1.113-.757-1.825-.757h-2.872v-2.631c0-.712-.29-1.358-.757-1.825-.468-.468-1.113-.757-1.825-.757H7.335c-.643,0-1.227.263-1.65.685-.423.423-.685,1.007-.685,1.65v68.225c0,.643.262,1.227.685,1.65.423.423,1.007.685,1.65.685h3.119v2.878c0,.643.262,1.227.685,1.65.423.423,1.007.685,1.65.685h41.492c.622,0,5.473-5.073,8.97-8.732,1.303-1.363,2.413-2.524,2.974-3.1.194-.2.291-.458.291-.717h.003v-7.014c2.643-.499,5.2-1.562,7.479-3.189l3.723,3.723h0Zm2.17.088c.059-.097.13-.189.214-.272l1.885-1.885c.083-.083.175-.155.272-.214.076-.027.149-.063.218-.108.174-.069.359-.103.544-.103.376,0,.751.142,1.034.425l8.456,8.456c.283.283.425.658.425,1.034s-.142.751-.425,1.034l-1.885,1.885c-.283.283-.658.425-1.034.425s-.751-.142-1.034-.425l-8.456-8.456c-.283-.283-.425-.658-.425-1.034,0-.185.034-.37.103-.544.045-.069.081-.142.108-.218h0Zm-16.912-32.426c-3.364,0-6.728,1.283-9.294,3.85-2.566,2.566-3.85,5.93-3.85,9.294s1.283,6.728,3.85,9.294c2.566,2.566,5.93,3.85,9.294,3.85s6.728-1.283,9.294-3.85c2.566-2.566,3.85-5.93,3.85-9.294s-1.283-6.728-3.85-9.294-5.93-3.85-9.294-3.85h0Zm-10.751,2.392c-2.969,2.969-4.454,6.86-4.454,10.751s1.485,7.782,4.454,10.751c2.969,2.969,6.86,4.454,10.751,4.454s7.782-1.485,10.751-4.454c2.969-2.969,4.454-6.86,4.454-10.751s-1.485-7.782-4.454-10.751c-2.969-2.969-6.86-4.454-10.751-4.454s-7.782,1.485-10.751,4.454h0Zm22.685,11.284c.188-.311.205-.712.01-1.048-1.211-2.094-2.961-3.841-5.062-5.054-2.03-1.172-4.38-1.842-6.882-1.842s-4.852.671-6.882,1.842c-2.095,1.209-3.841,2.95-5.052,5.036-.188.311-.205.712-.01,1.048,1.211,2.094,2.961,3.841,5.062,5.054,2.03,1.172,4.38,1.842,6.882,1.842s4.852-.671,6.882-1.842c2.095-1.209,3.841-2.95,5.052-5.036h0Zm-8.225-4.242c-.949-.949-2.26-1.536-3.709-1.536s-2.76.587-3.709,1.536c-.949.949-1.536,2.26-1.536,3.709s.587,2.76,1.536,3.709,2.26,1.536,3.709,1.536,2.76-.587,3.709-1.536,1.536-2.26,1.536-3.709-.587-2.76-1.536-3.709h0Zm-10.166,7.129c-.542-1.02-.849-2.184-.849-3.42s.307-2.4.849-3.42c-1.351.892-2.507,2.058-3.391,3.42.884,1.362,2.04,2.528,3.391,3.42h0Zm12.915-6.84c1.351.892,2.507,2.058,3.391,3.42-.884,1.362-2.04,2.528-3.391,3.42.542-1.02.848-2.184.848-3.42s-.307-2.4-.849-3.42h0Zm-48.654,13.032h20.724c.569,0,1.031-.461,1.031-1.031s-.461-1.031-1.031-1.031h-20.724c-.569,0-1.031.461-1.031,1.031s.461,1.031,1.031,1.031h0Zm0,6.807h26.473c.569,0,1.031-.461,1.031-1.031s-.461-1.031-1.031-1.031h-26.473c-.569,0-1.031.461-1.031,1.031s.461,1.031,1.031,1.031h0Zm-3.902-6.807h.714c.569,0,1.031-.461,1.031-1.031s-.461-1.031-1.031-1.031h-.714c-.569,0-1.031.461-1.031,1.031s.461,1.031,1.031,1.031h0Zm0,6.807h.714c.569,0,1.031-.461,1.031-1.031s-.461-1.031-1.031-1.031h-.714c-.569,0-1.031.461-1.031,1.031s.461,1.031,1.031,1.031h0Zm3.902,6.807h30.004c.569,0,1.031-.461,1.031-1.031s-.461-1.031-1.031-1.031h-30.004c-.569,0-1.031.461-1.031,1.031s.461,1.031,1.031,1.031h0Zm0,6.807h28.349c.569,0,1.031-.461,1.031-1.031s-.461-1.031-1.031-1.031h-28.349c-.569,0-1.031.461-1.031,1.031s.461,1.031,1.031,1.031h0Zm-3.902-6.807h.714c.569,0,1.031-.461,1.031-1.031s-.461-1.031-1.031-1.031h-.714c-.569,0-1.031.461-1.031,1.031s.461,1.031,1.031,1.031h0Zm0,6.807h.714c.569,0,1.031-.461,1.031-1.031s-.461-1.031-1.031-1.031h-.714c-.569,0-1.031.461-1.031,1.031s.461,1.031,1.031,1.031h0ZM51.576,25.769h-26.178v2.581h26.178v-2.581h0Zm-27.208-2.061c-.569,0-1.031.461-1.031,1.031v4.642c0,.569.461,1.031,1.031,1.031h28.239c.569,0,1.031-.461,1.031-1.031v-4.642c0-.569-.461-1.031-1.031-1.031h-28.239Zm-3.584,12.359h28.349c.569,0,1.031-.461,1.031-1.031s-.461-1.031-1.031-1.031h-28.349c-.569,0-1.031.461-1.031,1.031s.461,1.031,1.031,1.031h0Zm0,6.807h20.724c.569,0,1.031-.461,1.031-1.031s-.461-1.031-1.031-1.031h-20.724c-.569,0-1.031.461-1.031,1.031s.461,1.031,1.031,1.031h0Zm-3.902-6.807h.714c.569,0,1.031-.461,1.031-1.031s-.461-1.031-1.031-1.031h-.714c-.569,0-1.031.461-1.031,1.031s.461,1.031,1.031,1.031h0Zm0,6.807h.714c.569,0,1.031-.461,1.031-1.031s-.461-1.031-1.031-1.031h-.714c-.569,0-1.031.461-1.031,1.031s.461,1.031,1.031,1.031Z"/><text x="0" y="115" fill="#000000" font-size="5px" font-weight="bold" font-family="'Helvetica Neue', Helvetica, Arial-Unicode, Arial, Sans-serif">Created by Kids Boy</text><text x="0" y="120" fill="#000000" font-size="5px" font-weight="bold" font-family="'Helvetica Neue', Helvetica, Arial-Unicode, Arial, Sans-serif">from the Noun Project</text></svg>