<svg xmlns="http://www.w3.org/2000/svg" xmlns:xlink="http://www.w3.org/1999/xlink" version="1.1" x="0px" y="0px" viewBox="0 0 64 80" style="enable-background:new 0 0 64 64;" xml:space="preserve"><g><path d="M24.336,4.567c-2.962-2.652-6.949-3.92-10.93-3.479C6.931,1.806,1.745,7.032,1.077,13.517   c-0.426,4.129,0.97,8.202,3.829,11.174C6.588,26.44,7.624,28.644,7.91,31H6v2h2v3c0,0.552,0.448,1,1,1h1.101   c0.399,1.956,1.943,3.5,3.899,3.899V43h2v-2.101c1.956-0.399,3.5-1.943,3.899-3.899H21c0.552,0,1-0.448,1-1v-3h2v-2h-1.917   c0.284-2.314,1.359-4.555,3.11-6.413C27.648,21.982,29,18.577,29,15C29,11.024,27.3,7.221,24.336,4.567z M15,39   c-1.302,0-2.402-0.839-2.816-2h5.631C17.402,38.161,16.302,39,15,39z M20,35H10v-2h10V35z M23.738,23.215   c-2.107,2.235-3.386,4.961-3.675,7.785H16v-6h2v-2h-2v-2.09c2.833-0.478,5-2.942,5-5.91c0-3.309-2.691-6-6-6s-6,2.691-6,6   c0,2.967,2.167,5.431,5,5.91V23h-2v2h2v6H9.929c-0.294-2.877-1.538-5.571-3.582-7.695c-2.45-2.547-3.646-6.04-3.281-9.583   C3.639,8.167,8.08,3.69,13.626,3.077c3.47-0.384,6.799,0.673,9.375,2.98C25.542,8.332,27,11.592,27,15   C27,18.065,25.841,20.983,23.738,23.215z M15,19c-2.206,0-4-1.794-4-4s1.794-4,4-4s4,1.794,4,4S17.206,19,15,19z"/><path d="M52,35.336v-0.922l1.707-1.707C53.895,32.52,54,32.265,54,32v-6c0-0.404-0.244-0.769-0.617-0.924   c-0.375-0.155-0.804-0.07-1.09,0.217L49,28.586l-3.293-3.293c-0.287-0.287-0.716-0.372-1.09-0.217C44.244,25.231,44,25.596,44,26v6   c0,0.265,0.105,0.52,0.293,0.707L46,34.414v0.922C39.674,36.727,35,42.446,35,49c0,7.72,6.28,14,14,14s14-6.28,14-14   C63,42.446,58.326,36.727,52,35.336z M48,36.414l0.293,0.293C48.488,36.902,48.744,37,49,37s0.512-0.098,0.707-0.293L50,36.414V48   c0,0.551-0.449,1-1,1s-1-0.449-1-1V36.414z M49,51c1.654,0,3-1.346,3-3v-6.416c2.966,1.203,5,4.124,5,7.416c0,4.411-3.589,8-8,8   s-8-3.589-8-8c0-3.328,2.003-6.219,5-7.418V48C46,49.654,47.346,51,49,51z M46,28.414l2.293,2.293c0.391,0.391,1.023,0.391,1.414,0   L52,28.414v3.172l-3,3l-3-3V28.414z M49,61c-6.617,0-12-5.383-12-12c0-5.47,3.796-10.268,9-11.617v2.077   c-4.159,1.296-7,5.109-7,9.54c0,5.514,4.486,10,10,10s10-4.486,10-10c0-4.386-2.89-8.243-7-9.536v-2.081   c5.204,1.349,9,6.147,9,11.617C61,55.617,55.617,61,49,61z"/><rect x="48" y="23" width="2" height="2"/><rect x="48" y="19" width="2" height="2"/><rect x="48" y="15" width="2" height="2"/><rect x="48" y="11" width="2" height="2"/><path d="M47.884,9.175l1.969-0.351c-0.137-0.771-0.371-1.524-0.694-2.237l-1.821,0.825C47.592,7.975,47.775,8.567,47.884,9.175z"/><path d="M46.219,5.647l1.524-1.295c-0.636-0.749-1.38-1.392-2.213-1.913L44.47,4.135C45.128,4.547,45.716,5.056,46.219,5.647z"/><path d="M43.293,1.417c-0.724-0.222-1.476-0.357-2.236-0.401l-0.115,1.997c0.6,0.035,1.193,0.141,1.764,0.316L43.293,1.417z"/><path d="M39.175,3.116l-0.351-1.969c-0.771,0.137-1.524,0.371-2.237,0.694l0.825,1.821C37.975,3.408,38.567,3.225,39.175,3.116z"/><path d="M34.353,3.257c-0.749,0.636-1.392,1.38-1.913,2.213l1.695,1.061c0.412-0.658,0.92-1.247,1.512-1.749L34.353,3.257z"/><path d="M31.016,9.942l1.997,0.115c0.035-0.6,0.141-1.193,0.316-1.764l-1.912-0.587C31.195,8.431,31.06,9.183,31.016,9.942z"/><rect x="31" y="12" width="2" height="2"/><rect x="31" y="16" width="2" height="2"/><rect x="31" y="20" width="2" height="2"/><rect x="31" y="24" width="2" height="2"/><rect x="31" y="28" width="2" height="2"/><rect x="31" y="32" width="2" height="2"/><rect x="31" y="36" width="2" height="2"/><rect x="31" y="40" width="2" height="2"/><rect x="31" y="44" width="2" height="2"/><rect x="31" y="48" width="2" height="2"/><path d="M31,53.5c0,0.148-0.004,0.295-0.013,0.441l1.996,0.118C32.995,53.874,33,53.688,33,53.5V52h-2V53.5z"/><path d="M29.865,57.47l1.695,1.061c0.437-0.698,0.78-1.45,1.022-2.236l-1.911-0.588C30.48,56.326,30.208,56.919,29.865,57.47z"/><path d="M26.588,60.337l0.824,1.822c0.796-0.36,1.54-0.829,2.209-1.394l-1.289-1.529C27.803,59.682,27.216,60.053,26.588,60.337z"/><path d="M23.059,60.987l-0.118,1.996C23.126,62.995,23.312,63,23.5,63c0.561,0,1.125-0.049,1.675-0.147l-0.35-1.969   C24.246,60.986,23.644,61.021,23.059,60.987z"/><path d="M18.47,61.56c0.698,0.437,1.45,0.78,2.236,1.022l0.588-1.911c-0.62-0.191-1.213-0.462-1.764-0.806L18.47,61.56z"/><path d="M14.841,57.412c0.36,0.796,0.829,1.54,1.394,2.209l1.529-1.289c-0.446-0.529-0.817-1.116-1.101-1.745L14.841,57.412z"/><path d="M16,53.5V53h-2v0.5c0,0.561,0.049,1.125,0.147,1.675l1.969-0.35C16.039,54.39,16,53.944,16,53.5z"/><rect x="14" y="49" width="2" height="2"/><rect x="14" y="45" width="2" height="2"/></g><text x="0" y="79" fill="#000000" font-size="5px" font-weight="bold" font-family="'Helvetica Neue', Helvetica, Arial-Unicode, Arial, Sans-serif">Created by Template</text><text x="0" y="84" fill="#000000" font-size="5px" font-weight="bold" font-family="'Helvetica Neue', Helvetica, Arial-Unicode, Arial, Sans-serif">from the Noun Project</text></svg>