<svg xmlns="http://www.w3.org/2000/svg" xmlns:xlink="http://www.w3.org/1999/xlink" version="1.1" x="0px" y="0px" viewBox="0 0 98 122.5" style="enable-background:new 0 0 98 98;" xml:space="preserve"><path d="M86.754,74.488L72.663,61.229c-0.62-0.583-1.431-0.89-2.286-0.864c-0.411,0.013-0.806,0.105-1.172,0.263l-5.587-5.025  c0.144-0.331,0.223-0.69,0.211-1.062c-0.02-0.663-0.296-1.277-0.777-1.729l-2.927-2.755c6.085-10.808,4.033-24.584-5.079-33.159  c-10.929-10.284-28.187-9.759-38.471,1.17c-10.284,10.929-9.759,28.187,1.17,38.471c2.458,2.312,5.271,4.113,8.363,5.374  c0.479,2.619,2.055,4.853,4.234,6.217c-6.553,2.084-11.373,8.204-11.467,15.411c-0.006,0.487,0.264,0.936,0.697,1.159  c4.885,2.511,10.164,3.784,15.692,3.784s10.808-1.273,15.693-3.784c0.433-0.223,0.703-0.672,0.697-1.159  c-0.094-7.207-4.913-13.326-11.467-15.411c1.934-1.21,3.391-3.105,4.031-5.347c2.594-0.775,5.036-1.919,7.279-3.418l2.857,2.689  c0.481,0.453,1.108,0.688,1.774,0.672c0.341-0.01,0.668-0.091,0.968-0.23l5.506,5.066c-0.177,0.418-0.272,0.87-0.257,1.339  c0.026,0.854,0.382,1.646,1.001,2.229l14.091,13.259c1.26,1.186,2.87,1.773,4.477,1.773c1.741,0,3.478-0.689,4.763-2.054  l0.357-0.379C89.504,81.104,89.378,76.959,86.754,74.488z M64.21,65.551l-5.222-4.804l2.982-3.17l5.277,4.746L64.21,65.551z   M18.95,37.249c-0.142-4.66,1.54-9.096,4.734-12.49c6.595-7.008,17.662-7.345,24.671-0.751c7.009,6.595,7.345,17.663,0.75,24.671  c-0.045,0.048-0.093,0.091-0.138,0.138V31.811c0-0.709-0.575-1.284-1.284-1.284h-7.706c-0.709,0-1.284,0.575-1.284,1.284v2.568  h-6.421c-0.709,0-1.284,0.575-1.284,1.284v4.174h-6.421c-0.709,0-1.284,0.575-1.284,1.284v7.113  C20.602,45.195,19.075,41.352,18.95,37.249z M41.579,53.386c-0.086-0.079-0.179-0.148-0.267-0.224  c-0.017-0.015-0.033-0.031-0.05-0.046V33.096h5.137v17.921C44.927,52.048,43.304,52.851,41.579,53.386z M38.693,51.577  c-0.091-0.036-0.185-0.065-0.277-0.098c-0.011-0.004-0.023-0.008-0.034-0.012c-0.125-0.044-0.246-0.095-0.373-0.134  c-0.041-0.013-0.084-0.022-0.125-0.034c-0.1-0.029-0.203-0.051-0.304-0.077c-0.028-0.007-0.056-0.014-0.084-0.021  c-0.124-0.031-0.246-0.068-0.372-0.094c-0.03-0.006-0.061-0.009-0.091-0.015c-0.133-0.026-0.269-0.041-0.403-0.061  c-0.033-0.005-0.065-0.01-0.098-0.015c-0.108-0.015-0.214-0.038-0.324-0.049c-0.015-0.002-0.031-0.002-0.046-0.003  c-0.295-0.029-0.593-0.044-0.892-0.044c-0.002,0-0.003,0-0.005,0c0,0,0,0,0,0c0,0,0,0,0,0c-0.277,0-0.551,0.014-0.825,0.039  c-0.031,0.003-0.062,0.005-0.092,0.008c-0.077,0.008-0.153,0.022-0.23,0.032c-0.163,0.02-0.326,0.041-0.487,0.07  c-0.025,0.004-0.051,0.006-0.075,0.011v-14.13h5.137V51.577z M25.85,42.407h5.137v9.555c-0.052,0.027-0.103,0.054-0.154,0.081  c-0.009,0.005-0.018,0.011-0.027,0.016c-0.105,0.057-0.207,0.119-0.31,0.181c-0.04,0.024-0.082,0.046-0.122,0.071  c-0.093,0.057-0.184,0.118-0.276,0.178c-0.037,0.025-0.073,0.051-0.11,0.076c-0.119,0.082-0.241,0.161-0.357,0.249  c-1.353-0.567-2.615-1.309-3.782-2.198V42.407z M49.053,82.779c-4.313,2.081-8.947,3.136-13.788,3.136s-9.476-1.055-13.788-3.136  c0.506-7.153,6.531-12.845,13.788-12.845S48.547,75.626,49.053,82.779z M35.265,66.983c-3.721,0-6.748-3.027-6.748-6.748  c0-0.465,0.047-0.919,0.137-1.358c0.309-1.504,1.122-2.825,2.252-3.784c0.047-0.04,0.094-0.079,0.142-0.117  c0.118-0.095,0.24-0.185,0.364-0.272c0.052-0.037,0.105-0.073,0.158-0.108c0.122-0.08,0.248-0.156,0.376-0.229  c0.061-0.035,0.122-0.069,0.184-0.102c0.123-0.065,0.249-0.124,0.376-0.181c0.071-0.032,0.142-0.065,0.214-0.094  c0.122-0.05,0.246-0.093,0.371-0.136c0.08-0.027,0.16-0.056,0.241-0.081c0.124-0.037,0.25-0.067,0.376-0.097  c0.084-0.02,0.168-0.043,0.253-0.059c0.137-0.027,0.277-0.045,0.417-0.064c0.076-0.01,0.151-0.024,0.227-0.032  c0.217-0.021,0.436-0.033,0.658-0.033c0.236,0,0.471,0.013,0.704,0.037c0.013,0.001,0.025,0.004,0.037,0.006  c0.22,0.024,0.439,0.058,0.654,0.104c0.015,0.003,0.03,0.008,0.045,0.012c0.21,0.046,0.418,0.101,0.622,0.166  c0.033,0.011,0.065,0.025,0.099,0.036c0.18,0.061,0.359,0.128,0.534,0.204c0.061,0.027,0.119,0.058,0.179,0.086  c0.141,0.066,0.28,0.134,0.416,0.21c0.084,0.047,0.164,0.099,0.246,0.149c0.105,0.065,0.21,0.129,0.311,0.2  c0.097,0.068,0.19,0.14,0.284,0.212c0.08,0.062,0.159,0.124,0.236,0.189c0.099,0.085,0.195,0.173,0.29,0.263  c0.066,0.063,0.131,0.126,0.194,0.192c0.872,0.904,1.499,2.046,1.761,3.322c0.09,0.439,0.137,0.893,0.137,1.358  c0,0.224-0.012,0.446-0.034,0.664c-0.008,0.085-0.025,0.169-0.036,0.254C41.492,64.441,38.674,66.983,35.265,66.983z M52.759,57.032  c-0.185-0.311-0.492-0.529-0.846-0.602c-0.086-0.018-0.172-0.026-0.258-0.026c-0.27,0-0.535,0.085-0.757,0.247  c-1.942,1.416-4.061,2.53-6.32,3.321c-0.003-0.121-0.02-0.24-0.028-0.36c-0.01-0.149-0.018-0.298-0.035-0.446  c-0.019-0.162-0.047-0.321-0.074-0.481c-0.024-0.144-0.046-0.289-0.077-0.431c-0.034-0.158-0.078-0.311-0.12-0.466  c-0.038-0.139-0.073-0.278-0.117-0.415c-0.049-0.152-0.108-0.3-0.165-0.449c-0.05-0.132-0.098-0.265-0.154-0.395  c-0.064-0.146-0.136-0.287-0.207-0.429c-0.062-0.125-0.122-0.252-0.189-0.374c-0.041-0.074-0.085-0.145-0.128-0.218  c1.806-0.661,3.502-1.58,5.043-2.726c0.096-0.056,0.187-0.12,0.265-0.198c0.845-0.65,1.646-1.362,2.384-2.146  c7.565-8.04,7.179-20.736-0.861-28.302c-8.041-7.565-20.737-7.179-28.302,0.861c-3.665,3.895-5.593,8.984-5.431,14.329  c0.163,5.346,2.397,10.308,6.292,13.973c0.359,0.338,0.732,0.656,1.111,0.964c0.022,0.017,0.042,0.038,0.066,0.053  c1.202,0.969,2.498,1.791,3.882,2.455c-0.011,0.015-0.022,0.031-0.033,0.046c-0.065,0.09-0.132,0.177-0.193,0.269  c-0.108,0.162-0.207,0.331-0.305,0.501c-0.047,0.081-0.099,0.159-0.143,0.242c-0.126,0.235-0.242,0.476-0.348,0.722  c-0.009,0.022-0.021,0.042-0.03,0.064c-0.114,0.27-0.215,0.546-0.303,0.828c-0.026,0.082-0.043,0.167-0.067,0.249  c-0.057,0.201-0.113,0.402-0.157,0.608c-0.024,0.111-0.038,0.225-0.058,0.338c-0.026,0.148-0.057,0.294-0.076,0.444  c-2.386-1.106-4.571-2.586-6.514-4.414c-9.898-9.313-10.373-24.942-1.06-34.84c9.314-9.897,24.942-10.373,34.84-1.06  c8.501,7.999,10.218,20.996,4.084,30.903c-0.196,0.316-0.258,0.692-0.148,1.047c0.11,0.355,0.355,0.636,0.695,0.786l3.31,3.115  l-4.814,5.116c-0.077,0.053-0.15,0.114-0.217,0.186c-0.057,0.062-0.106,0.129-0.148,0.198L52.759,57.032z M85.164,81.968  l-0.357,0.379c-1.499,1.593-4.015,1.67-5.609,0.17L65.107,69.259c-0.162-0.153-0.191-0.339-0.194-0.436  c-0.003-0.097,0.015-0.285,0.168-0.447l4.939-5.249c0.153-0.162,0.339-0.191,0.436-0.194c0.006,0,0.012,0,0.019,0  c0.102,0,0.276,0.024,0.429,0.168l14.091,13.259C86.587,77.859,86.663,80.375,85.164,81.968z"/><text x="0" y="113" fill="#000000" font-size="5px" font-weight="bold" font-family="'Helvetica Neue', Helvetica, Arial-Unicode, Arial, Sans-serif">Created by Good Wife</text><text x="0" y="118" fill="#000000" font-size="5px" font-weight="bold" font-family="'Helvetica Neue', Helvetica, Arial-Unicode, Arial, Sans-serif">from the Noun Project</text></svg>