<svg xmlns="http://www.w3.org/2000/svg" xmlns:xlink="http://www.w3.org/1999/xlink" version="1.1" x="0px" y="0px" viewBox="0 0 512 640" style="enable-background:new 0 0 512 512;" xml:space="preserve"><g><g><g><path d="M156,288H36c-1.104,0-2-0.896-2-2V46c0-1.104,0.896-2,2-2h120c1.104,0,2,0.896,2,2v240C158,287.104,157.104,288,156,288z      M38,284h116V48H38V284z"/></g><g><path d="M156,468H36c-1.104,0-2-0.896-2-2v-90c0-1.104,0.896-2,2-2h120c1.104,0,2,0.896,2,2v90C158,467.104,157.104,468,156,468z      M38,464h116v-86H38V464z"/></g><g><path d="M156,318H36c-1.104,0-2-0.896-2-2s0.896-2,2-2h120c1.104,0,2,0.896,2,2S157.104,318,156,318z"/></g><g><path d="M156,88H36c-1.104,0-2-0.896-2-2s0.896-2,2-2h120c1.104,0,2,0.896,2,2S157.104,88,156,88z"/></g><g><path d="M156,348H36c-1.104,0-2-0.896-2-2s0.896-2,2-2h120c1.104,0,2,0.896,2,2S157.104,348,156,348z"/></g><g><path d="M36.001,468c-0.608,0-1.208-0.276-1.602-0.8c-0.663-0.884-0.483-2.138,0.4-2.8l120-90c0.885-0.663,2.138-0.482,2.8,0.399     c0.663,0.884,0.483,2.138-0.4,2.8l-120,90C36.84,467.87,36.419,468,36.001,468z"/></g><g><path d="M155.999,468c-0.417,0-0.839-0.13-1.199-0.4l-120-90c-0.883-0.662-1.063-1.916-0.4-2.8     c0.664-0.882,1.917-1.063,2.8-0.399l120,90c0.883,0.662,1.063,1.916,0.4,2.8C157.207,467.724,156.606,468,155.999,468z"/></g><g><path d="M476,288H356c-1.104,0-2-0.896-2-2V46c0-1.104,0.896-2,2-2h120c1.104,0,2,0.896,2,2v240C478,287.104,477.104,288,476,288     z M358,284h116V48H358V284z"/></g><g><path d="M476,438H356c-1.104,0-2-0.896-2-2s0.896-2,2-2h120c1.104,0,2,0.896,2,2S477.104,438,476,438z"/></g><g><path d="M476,88H356c-1.104,0-2-0.896-2-2s0.896-2,2-2h120c1.104,0,2,0.896,2,2S477.104,88,476,88z"/></g><g><path d="M476,468H356c-1.104,0-2-0.896-2-2s0.896-2,2-2h120c1.104,0,2,0.896,2,2S477.104,468,476,468z"/></g><g><path d="M316,468H196c-1.104,0-2-0.896-2-2V226c0-1.104,0.896-2,2-2h120c1.104,0,2,0.896,2,2v240     C318,467.104,317.104,468,316,468z M198,464h116V228H198V464z"/></g><g><path d="M316,138H196c-1.104,0-2-0.896-2-2V46c0-1.104,0.896-2,2-2h120c1.104,0,2,0.896,2,2v90C318,137.104,317.104,138,316,138z      M198,134h116V48H198V134z"/></g><g><path d="M316,198H196c-1.104,0-2-0.896-2-2s0.896-2,2-2h120c1.104,0,2,0.896,2,2S317.104,198,316,198z"/></g><g><path d="M316,428H196c-1.104,0-2-0.896-2-2s0.896-2,2-2h120c1.104,0,2,0.896,2,2S317.104,428,316,428z"/></g><g><path d="M316,168H196c-1.104,0-2-0.896-2-2s0.896-2,2-2h120c1.104,0,2,0.896,2,2S317.104,168,316,168z"/></g><g><path d="M315.998,138c-0.417,0-0.838-0.13-1.198-0.4l-120-90c-0.883-0.663-1.063-1.917-0.4-2.8c0.663-0.883,1.917-1.061,2.8-0.4     l120,90c0.884,0.663,1.063,1.917,0.399,2.8C317.207,137.724,316.606,138,315.998,138z"/></g><g><path d="M196.001,138c-0.608,0-1.208-0.276-1.602-0.8c-0.663-0.884-0.483-2.138,0.4-2.8l120-90c0.887-0.663,2.139-0.483,2.8,0.4     c0.663,0.884,0.484,2.138-0.399,2.8l-120,90C196.84,137.87,196.419,138,196.001,138z"/></g><g><path d="M476,408H356c-1.104,0-2-0.896-2-2v-90c0-1.104,0.896-2,2-2h120c1.104,0,2,0.896,2,2v90C478,407.104,477.104,408,476,408     z M358,404h116v-86H358V404z"/></g><rect x="86" y="116" width="20" height="20"/><rect x="86" y="146" width="20" height="20"/><rect x="86" y="176" width="20" height="20"/><rect x="246" y="316" width="20" height="20"/><rect x="246" y="346" width="20" height="20"/><rect x="246" y="376" width="20" height="20"/><rect x="406" y="116" width="20" height="20"/><rect x="406" y="146" width="20" height="20"/><rect x="406" y="176" width="20" height="20"/></g></g><text x="0" y="527" fill="#000000" font-size="5px" font-weight="bold" font-family="'Helvetica Neue', Helvetica, Arial-Unicode, Arial, Sans-serif">Created by Flatart</text><text x="0" y="532" fill="#000000" font-size="5px" font-weight="bold" font-family="'Helvetica Neue', Helvetica, Arial-Unicode, Arial, Sans-serif">from the Noun Project</text></svg>