<svg xmlns="http://www.w3.org/2000/svg" xmlns:xlink="http://www.w3.org/1999/xlink" version="1.1" x="0px" y="0px" viewBox="0 0 550 687.5" style="enable-background:new 0 0 550 550;" xml:space="preserve"><g><g><g><path d="M297,403h-52c-4.418,0-8-3.582-8-8v-21.851c-20.007-4.214-39.255-12.171-56.338-23.291l-15.643,15.486     c-3.13,3.098-8.175,3.084-11.288-0.031l-37.174-37.21c-3.118-3.121-3.121-8.177-0.007-11.301l15.473-15.527     c-11.104-17.064-19.05-36.292-23.26-56.275H87c-4.418,0-8-3.582-8-8v-52c0-4.418,3.582-8,8-8h21.763     c4.21-19.971,12.167-39.203,23.292-56.289l-15.471-15.599c-3.104-3.129-3.092-8.179,0.027-11.294l37.22-37.173     c3.12-3.117,8.172-3.121,11.297-0.01l15.55,15.478C197.743,61.012,216.984,53.064,237,48.851V27c0-4.418,3.582-8,8-8h52     c4.418,0,8,3.582,8,8v21.852c19.941,4.206,39.156,12.16,56.238,23.281l15.554-15.465c3.128-3.109,8.184-3.101,11.3,0.019     l37.174,37.209c3.118,3.121,3.121,8.176,0.008,11.301l-15.473,15.527c11.104,17.064,19.05,36.291,23.26,56.275H455     c4.418,0,8,3.582,8,8v52c0,4.418-3.582,8-8,8h-21.94c-4.21,19.978-12.163,39.209-23.279,56.287l15.479,15.599     c3.104,3.128,3.094,8.178-0.023,11.294l-37.198,37.174c-3.121,3.12-8.181,3.121-11.306,0.005l-15.504-15.468     c-17.067,11.106-36.276,19.052-56.229,23.258V395C305,399.418,301.418,403,297,403z M253,387h36v-20.479     c0-3.908,2.824-7.244,6.679-7.89c22.188-3.718,43.584-12.567,61.876-25.593c3.182-2.263,7.528-1.902,10.291,0.853l14.532,14.498     l25.909-25.893l-14.511-14.623c-2.743-2.765-3.097-7.103-0.838-10.275c13.029-18.297,21.883-39.709,25.604-61.92     c0.646-3.854,3.981-6.678,7.89-6.678H447v-36h-20.567c-3.908,0-7.244-2.824-7.89-6.678c-3.724-22.228-12.573-43.639-25.592-61.92     c-2.263-3.178-1.903-7.524,0.85-10.288l14.505-14.556l-25.893-25.917l-14.577,14.494c-2.765,2.749-7.106,3.104-10.281,0.843     c-18.313-13.04-39.709-21.896-61.877-25.61c-3.854-0.646-6.678-3.982-6.678-7.89V35h-36v20.479c0,3.908-2.824,7.244-6.678,7.89     c-22.265,3.73-43.692,12.58-61.965,25.592c-3.177,2.261-7.522,1.904-10.284-0.847l-14.579-14.511l-25.936,25.903l14.501,14.622     c2.742,2.765,3.095,7.102,0.836,10.274c-13.039,18.309-21.896,39.721-25.616,61.92c-0.646,3.854-3.982,6.678-7.89,6.678H95v36     h20.39c3.908,0,7.244,2.824,7.89,6.678c3.724,22.227,12.574,43.639,25.592,61.92c2.263,3.178,1.904,7.524-0.85,10.287     l-14.505,14.557l25.904,25.929l14.666-14.519c2.766-2.737,7.1-3.087,10.269-0.831c18.295,13.028,39.722,21.884,61.965,25.61     c3.854,0.646,6.678,3.981,6.678,7.89V387z"/></g><g><path d="M270.912,339c-70.58,0-128-57.421-128-128c0-70.58,57.42-128,128-128s128,57.42,128,128     C398.912,281.579,341.491,339,270.912,339z M270.912,99c-61.757,0-112,50.243-112,112s50.243,112,112,112     c61.757,0,112-50.243,112-112S332.669,99,270.912,99z"/></g><g><path d="M327,325c-4.418,0-8-3.582-8-8v-34c0-12.801-5.001-24.856-14.082-33.946c-9.07-9.061-21.134-14.054-33.962-14.054     C244.513,235,223,256.533,223,283v34c0,4.418-3.582,8-8,8s-8-3.582-8-8v-34c0-35.29,28.69-64,63.956-64     c17.099,0,33.179,6.655,45.276,18.74C328.337,249.857,335,265.929,335,283v34C335,321.418,331.418,325,327,325z"/></g><g><path d="M270.912,235c-22.056,0-40-17.944-40-40s17.944-40,40-40s40,17.944,40,40S292.968,235,270.912,235z M270.912,171     c-13.234,0-24,10.767-24,24s10.766,24,24,24s24-10.767,24-24S284.146,171,270.912,171z"/></g><g><path d="M306.454,531.416c-1.273,0-2.551-0.304-3.722-0.919l-27.821-14.626l-27.821,14.626c-2.695,1.418-5.962,1.181-8.425-0.609     c-2.464-1.789-3.697-4.823-3.183-7.824l5.313-30.979l-22.508-21.94c-2.181-2.125-2.965-5.305-2.024-8.201     c0.941-2.896,3.445-5.007,6.458-5.444l31.105-4.52l13.911-28.186c1.348-2.731,4.129-4.46,7.174-4.46     c3.045,0,5.827,1.729,7.174,4.46l13.91,28.186l31.105,4.52c3.014,0.438,5.517,2.549,6.458,5.444     c0.941,2.896,0.156,6.076-2.024,8.201l-22.508,21.94l5.313,30.979c0.515,3.002-0.719,6.035-3.183,7.824     C309.764,530.9,308.113,531.416,306.454,531.416z M274.912,498.833c1.279,0,2.557,0.307,3.722,0.919l17.196,9.04l-3.283-19.147     c-0.445-2.596,0.415-5.243,2.301-7.081l13.912-13.562l-19.227-2.793c-2.605-0.379-4.858-2.016-6.023-4.377l-8.598-17.422     l-8.598,17.422c-1.165,2.361-3.418,3.998-6.023,4.377l-19.226,2.793l13.912,13.562c1.886,1.838,2.746,4.485,2.301,7.081     l-3.284,19.147l17.196-9.04C272.354,499.14,273.633,498.833,274.912,498.833z"/></g><g><path d="M147.844,483.416c-1.273,0-2.551-0.304-3.722-0.919L121.5,470.604l-22.623,11.893c-2.695,1.418-5.961,1.181-8.425-0.609     c-2.463-1.79-3.697-4.823-3.182-7.824l4.321-25.189l-18.302-17.841c-2.181-2.125-2.965-5.305-2.024-8.201     c0.941-2.896,3.445-5.007,6.458-5.444l25.293-3.675l11.311-22.919c1.348-2.731,4.128-4.46,7.174-4.46s5.826,1.729,7.174,4.46     l11.311,22.919l25.293,3.675c3.013,0.438,5.517,2.549,6.458,5.444c0.941,2.896,0.156,6.076-2.024,8.201l-18.302,17.841     l4.321,25.189c0.515,3.001-0.719,6.034-3.182,7.824C151.154,482.9,149.503,483.416,147.844,483.416z M121.5,453.566     c1.279,0,2.557,0.307,3.723,0.919l11.998,6.307l-2.292-13.358c-0.445-2.596,0.415-5.243,2.301-7.081l9.706-9.462l-13.414-1.948     c-2.605-0.379-4.858-2.016-6.023-4.377l-5.999-12.154l-5.999,12.154c-1.165,2.361-3.418,3.998-6.023,4.377l-13.414,1.948     l9.706,9.462c1.886,1.838,2.746,4.485,2.301,7.081l-2.292,13.358l11.998-6.307C118.943,453.873,120.221,453.566,121.5,453.566z"/></g><g><path d="M454.844,483.416c-1.273,0-2.551-0.304-3.722-0.919L428.5,470.604l-22.622,11.893c-2.695,1.418-5.962,1.18-8.425-0.609     c-2.464-1.789-3.697-4.822-3.183-7.824l4.32-25.189l-18.302-17.841c-2.181-2.126-2.966-5.305-2.024-8.201     c0.941-2.896,3.444-5.007,6.458-5.444l25.292-3.675l11.312-22.919c1.348-2.731,4.129-4.46,7.174-4.46s5.826,1.729,7.174,4.46     l11.312,22.919l25.292,3.675c3.014,0.438,5.517,2.549,6.458,5.444c0.941,2.896,0.156,6.075-2.024,8.201l-18.302,17.841     l4.32,25.189c0.515,3.002-0.719,6.035-3.183,7.824C458.153,482.9,456.503,483.416,454.844,483.416z M428.5,453.566     c1.278,0,2.558,0.307,3.723,0.919l11.997,6.307l-2.291-13.358c-0.445-2.596,0.415-5.243,2.301-7.081l9.706-9.462l-13.413-1.948     c-2.605-0.379-4.858-2.016-6.023-4.377L428.5,412.41l-5.999,12.155c-1.165,2.361-3.418,3.998-6.023,4.377l-13.413,1.948     l9.706,9.462c1.886,1.838,2.746,4.485,2.301,7.081l-2.291,13.358l11.997-6.307C425.942,453.873,427.222,453.566,428.5,453.566z"/></g></g></g><text x="0" y="565" fill="#000000" font-size="5px" font-weight="bold" font-family="'Helvetica Neue', Helvetica, Arial-Unicode, Arial, Sans-serif">Created by SAM Designs</text><text x="0" y="570" fill="#000000" font-size="5px" font-weight="bold" font-family="'Helvetica Neue', Helvetica, Arial-Unicode, Arial, Sans-serif">from the Noun Project</text></svg>