<svg xmlns="http://www.w3.org/2000/svg" viewBox="0 0 512 640" x="0px" y="0px"><circle cx="96" cy="56" r="8"/><circle cx="120" cy="56" r="8"/><circle cx="144" cy="56" r="8"/><rect x="376" y="296" width="40" height="16"/><rect x="336" y="296" width="24" height="16"/><rect x="384" y="336" width="32" height="16"/><rect x="312" y="336" width="56" height="16"/><rect x="352" y="376" width="64" height="16"/><rect x="280" y="376" width="56" height="16"/><path d="M307.2002,238.40039l32,24A8.00222,8.00222,0,0,0,344,264h32a8.00222,8.00222,0,0,0,4.7998-1.59961l32-24A8.00229,8.00229,0,0,0,416,232V184a7.99941,7.99941,0,0,0-3.56251-6.65625l-48-32a8.00131,8.00131,0,0,0-8.875,0l-48,32A7.99944,7.99944,0,0,0,304,184v48A8.00229,8.00229,0,0,0,307.2002,238.40039ZM373.3335,248h-26.667L320,228V198.948l35.56249,23.70825a7.99891,7.99891,0,0,0,8.875,0L400,198.948V228ZM360,161.61523,393.57764,184,360,206.38477,326.42236,184Z"/><path d="M432,16H80A24.0275,24.0275,0,0,0,56,40V472a24.0275,24.0275,0,0,0,24,24H432a24.0275,24.0275,0,0,0,24-24V40A24.0275,24.0275,0,0,0,432,16ZM200,176v16a16,16,0,0,1-32,0V176Zm-32-16v-5.57812A10.42283,10.42283,0,0,1,184.20361,145.75L200,156.28125V160Zm16,64a31.992,31.992,0,0,0,26.72791-14.43335l37.69885,14.13745A24.111,24.111,0,0,1,264,246.17578V288a24.02718,24.02718,0,0,1-24,24H217.88867l-17.98114-8.99048,30.6073-20.40478,14.95538,4.9851,5.05958-15.17968L240,268.90015V248a8.00008,8.00008,0,0,0-8-8H216a8.00164,8.00164,0,0,0-2.97119.57227L186.6582,251.12012l-32.12841-10.71A8.01,8.01,0,0,0,152,240H136a8.00008,8.00008,0,0,0-8,8v32a7.99957,7.99957,0,0,0,10.97119,7.42773l49.832-19.93286,8.88306,17.76636L157.57764,312H128a24.02718,24.02718,0,0,1-24-24V246.17578a24.111,24.111,0,0,1,15.57324-22.47168l37.69885-14.13745A31.992,31.992,0,0,0,184,224Zm54.24139,104-4.8,24H134.55859l-4.8-24H160a7.99983,7.99983,0,0,0,4.4375-1.34375l20.13721-13.4248,27.84765,13.92382A7.99583,7.99583,0,0,0,216,328Zm-34.531-66.468L217.54053,256H224v11.71875l-12.89722,8.59814Zm-40.05023-1.21264L144,268.18359V256h6.70166ZM135.73785,368h96.5243l3.73327,112H207.17188L191.832,406.36816a8.00028,8.00028,0,0,0-15.66406,0L160.82812,480H132.00458Zm55.09009,112H177.17206L184,447.22461ZM440,472a8.00917,8.00917,0,0,1-8,8H252.00439l-3.978-119.33984,7.13043-35.65137A40.057,40.057,0,0,0,280,288V246.17578a40.18421,40.18421,0,0,0-25.95508-37.45215l-38.14575-14.30517c.06012-.79932.10083-1.604.10083-2.41846V152a7.99941,7.99941,0,0,0-3.56251-6.65625L193.07861,132.4375A26.42232,26.42232,0,0,0,152,154.42188V192c0,.81445.04071,1.61914.10083,2.41846l-38.14575,14.30517A40.18421,40.18421,0,0,0,88,246.17578V288a40.057,40.057,0,0,0,24.8432,37.00879l7.13043,35.65137L115.99561,480H80a8.00917,8.00917,0,0,1-8-8V96H440Zm0-392H72V40a8.00917,8.00917,0,0,1,8-8H432a8.00917,8.00917,0,0,1,8,8Z"/><text x="0" y="527" fill="#000000" font-size="5px" font-weight="bold" font-family="'Helvetica Neue', Helvetica, Arial-Unicode, Arial, Sans-serif">Created by PenSmasher</text><text x="0" y="532" fill="#000000" font-size="5px" font-weight="bold" font-family="'Helvetica Neue', Helvetica, Arial-Unicode, Arial, Sans-serif">from the Noun Project</text></svg>