<svg xmlns="http://www.w3.org/2000/svg" xmlns:xlink="http://www.w3.org/1999/xlink" version="1.1" x="0px" y="0px" viewBox="0 0 98 122.5" style="enable-background:new 0 0 98 98;" xml:space="preserve"><path d="M76.585,44.329c1.37-3.458,2.066-7.111,2.066-10.891c0-16.349-13.301-29.65-29.651-29.65c0,0,0,0,0,0c0,0,0,0,0,0  c0,0,0,0,0,0c-16.349,0-29.65,13.301-29.65,29.65c0,1.954,0.194,3.898,0.571,5.8c-1.967,0.664-3.387,2.526-3.387,4.714v29.121  c0,2.744,2.232,4.975,4.975,4.975h3.567v9.395c0,0.532,0.298,1.019,0.771,1.262c0.204,0.105,0.426,0.156,0.647,0.156  c0.292,0,0.582-0.09,0.827-0.266l7.238-5.197h21.43l14.689,10.547c0.246,0.176,0.536,0.266,0.827,0.266  c0.221,0,0.443-0.052,0.647-0.156c0.473-0.243,0.771-0.73,0.771-1.262v-9.395h3.567c2.743,0,4.975-2.232,4.975-4.975V49.302  C81.466,46.59,79.285,44.38,76.585,44.329z M67.983,38.977H64.02c0.129-1.356,0.21-2.733,0.243-4.12h11.514  c-0.169,3.293-0.929,6.47-2.266,9.47h-0.552v-0.375C72.958,41.209,70.726,38.977,67.983,38.977z M22.762,38.977  c-0.284-1.353-0.463-2.731-0.536-4.12h11.511c0.033,1.387,0.114,2.764,0.243,4.12H22.762z M75.777,32.02H64.264  c-0.094-4.042-0.586-7.848-1.405-11.28h9.752C74.442,24.13,75.564,27.957,75.777,32.02z M61.426,32.02H50.419V20.74h9.488  C60.782,24.149,61.323,27.982,61.426,32.02z M50.419,17.904V6.809c3.513,0.905,6.633,5.112,8.649,11.095H50.419z M47.582,6.809  v11.095h-8.649C40.949,11.921,44.069,7.713,47.582,6.809z M47.582,20.74v11.28H36.574c0.103-4.038,0.644-7.872,1.519-11.28H47.582z   M33.736,32.02H22.224c0.213-4.063,1.335-7.89,3.165-11.28h9.751C34.322,24.172,33.83,27.978,33.736,32.02z M36.831,38.977  c-0.136-1.354-0.221-2.731-0.256-4.12h11.007v4.12H36.831z M50.419,34.857h11.007c-0.035,1.389-0.12,2.767-0.256,4.12H50.419V34.857  z M70.844,17.904h-8.76c-1.306-4.194-3.134-7.676-5.323-10.132C62.502,9.51,67.436,13.126,70.844,17.904z M41.24,7.771  c-2.189,2.457-4.017,5.938-5.323,10.132h-8.76C30.564,13.126,35.498,9.511,41.24,7.771z M26.494,75.212h-4.986  c-1.179,0-2.138-0.959-2.138-2.139V43.952c0-1.179,0.959-2.138,2.138-2.138h46.474c1.179,0,2.139,0.959,2.139,2.138v29.121  c0,1.179-0.959,2.139-2.139,2.139H41.554c-0.297,0-0.586,0.093-0.827,0.266l-12.814,9.201v-8.048  C27.913,75.847,27.278,75.212,26.494,75.212z M78.63,78.424c0,1.179-0.959,2.138-2.139,2.138h-4.986  c-0.783,0-1.418,0.635-1.418,1.418v8.049l-12.814-9.201c-0.241-0.173-0.531-0.266-0.827-0.266H38.51l3.5-2.513h25.972  c2.743,0,4.975-2.232,4.975-4.975v-25.91h3.533c1.179,0,2.139,0.959,2.139,2.138V78.424z M33.941,65.267  c0.232,0,0.466-0.017,0.701-0.05c0.243,0.3,0.539,0.558,0.884,0.757c0.491,0.284,1.036,0.429,1.588,0.429  c0.006,0,0.011-0.001,0.017-0.001l1.615,6.027c0.157,0.585,0.532,1.074,1.058,1.377c0.35,0.202,0.738,0.305,1.132,0.305  c0.197,0,0.395-0.026,0.59-0.078l1.708-0.458c0.585-0.157,1.074-0.532,1.377-1.058s0.384-1.137,0.227-1.721l-1.535-5.727  l9.804,0.438c0.278,0.376,0.631,0.696,1.049,0.937c0.532,0.307,1.121,0.464,1.717,0.464c0.298,0,0.597-0.039,0.892-0.118  c1.832-0.491,2.923-2.381,2.433-4.213l-0.981-3.661c1.48-0.966,2.428-2.634,2.428-4.468c0-2.847-2.242-5.179-5.052-5.326  l-0.98-3.658c-0.491-1.832-2.381-2.923-4.213-2.432c-1.404,0.376-2.37,1.575-2.525,2.939l-8.85,5.65l-4.678,1.253  c-0.82,0.22-1.506,0.746-1.931,1.483c-0.199,0.345-0.327,0.717-0.387,1.098c-1.046,0.423-1.918,1.178-2.493,2.174  c-0.682,1.18-0.863,2.552-0.513,3.862C29.63,63.764,31.693,65.267,33.941,65.267z M41.339,71.146l-1.441-5.378l0.611-0.164  l1.441,5.378L41.339,71.146z M48.43,48.981l3.655,13.642l-8.521-0.38l-2.323-8.672L48.43,48.981z M57.807,54.448  c0,0.504-0.153,0.98-0.419,1.38l-0.968-3.613C57.241,52.624,57.807,53.47,57.807,54.448z M51.132,45.772  c0.05-0.013,0.101-0.02,0.151-0.02c0.266,0,0.517,0.181,0.588,0.446l4.585,17.113c0.056,0.207-0.015,0.375-0.062,0.457  c-0.047,0.082-0.157,0.227-0.364,0.282c-0.207,0.056-0.375-0.015-0.456-0.062c-0.082-0.047-0.227-0.157-0.282-0.364l-4.585-17.113  C50.621,46.195,50.816,45.857,51.132,45.772z M35.079,55.614l3.52-0.943l2.127,7.939l-3.52,0.943  c-0.113,0.03-0.204-0.003-0.261-0.036c-0.057-0.033-0.132-0.096-0.162-0.209l-1.948-7.271  C34.786,55.857,34.898,55.663,35.079,55.614z M31.99,59.048c0.143-0.248,0.329-0.461,0.544-0.635l1.069,3.99  c-0.859-0.131-1.604-0.754-1.842-1.646C31.606,60.18,31.688,59.573,31.99,59.048z"/><text x="0" y="113" fill="#000000" font-size="5px" font-weight="bold" font-family="'Helvetica Neue', Helvetica, Arial-Unicode, Arial, Sans-serif">Created by MUHAMMAT SUKIRMAN</text><text x="0" y="118" fill="#000000" font-size="5px" font-weight="bold" font-family="'Helvetica Neue', Helvetica, Arial-Unicode, Arial, Sans-serif">from the Noun Project</text></svg>