<svg xmlns="http://www.w3.org/2000/svg" xmlns:xlink="http://www.w3.org/1999/xlink" version="1.1" x="0px" y="0px" viewBox="0 0 100 125" style="enable-background:new 0 0 100 100;" xml:space="preserve"><g><path d="M87.5703125,43.7406006L75.8886719,33.5126953v-18.854126c0-0.6904297-0.5595703-1.25-1.25-1.25H52.9324951   l-2.1082764-1.8486328c-0.4726563-0.4130859-1.1757813-0.4130859-1.6484375,0l-2.1082764,1.8486328H25.3613281   c-0.6904297,0-1.25,0.5595703-1.25,1.25v18.854126L12.4296875,43.7406006   c-0.2714844,0.2373047-0.4267578,0.5800781-0.4267578,0.9404297v5.2456055v37.5732422   c0,0.008728,0.003479,0.0167236,0.0036621,0.0254517c0.0009155,0.0471802,0.013916,0.0932617,0.0202637,0.1405029   c0.010498,0.0767212,0.0202637,0.1526489,0.0442505,0.2249756c0.0039063,0.0117798,0.0027466,0.0241089,0.007019,0.0358276   c0.0128784,0.0353394,0.0373535,0.0628662,0.0531006,0.0964966c0.0316162,0.0678101,0.0639038,0.133667,0.1070557,0.1946411   c0.0304565,0.0430298,0.0657959,0.0797729,0.1011353,0.1182861c0.0465088,0.0508423,0.09375,0.098877,0.1485596,0.1417847   c0.0438843,0.0343018,0.0900269,0.0621948,0.1380615,0.0903931c0.0338135,0.0198975,0.0615845,0.0471802,0.0975952,0.0639648   c0.0322266,0.0150757,0.0664063,0.0216064,0.0993652,0.0337524c0.0308228,0.0114136,0.0606689,0.0223999,0.0924683,0.0313721   c0.111145,0.031311,0.223938,0.0525513,0.3374634,0.0525513h73.4941406c0.1135254,0,0.2263184-0.0212402,0.3374634-0.0525513   c0.0317993-0.0089722,0.0616455-0.0199585,0.0924683-0.0313721c0.032959-0.012146,0.0671387-0.0186768,0.0993652-0.0337524   c0.0358887-0.0167847,0.0636597-0.0439453,0.0973511-0.0637817c0.0482788-0.0283203,0.0946655-0.0563965,0.1386719-0.0909424   c0.0543823-0.0426636,0.1013794-0.090332,0.147583-0.1408081c0.0357056-0.0388794,0.0712891-0.0759277,0.1019897-0.1193848   c0.0429688-0.06073,0.0751343-0.1263428,0.1066895-0.1938477c0.0158081-0.0336914,0.0403442-0.0613403,0.0532227-0.0968018   c0.0042725-0.0117188,0.0031128-0.0239258,0.007019-0.0357056c0.0241699-0.0728149,0.0340576-0.1491699,0.0444946-0.2263184   c0.0062256-0.046814,0.019043-0.0925903,0.0200195-0.1394043c0.0001831-0.008667,0.0036621-0.0166016,0.0036621-0.0253296   V49.9266357v-5.2456055C87.9970703,44.3206787,87.8417969,43.9779053,87.5703125,43.7406006z M60.9008179,64.2467041   l24.5962524-12.2976074v32.8752441L60.9008179,64.2467041z M85.4970703,45.2479248v3.90625l-0.3590698,0.1795044   l-9.2493286,4.6242065V36.8353271L85.4970703,45.2479248z M26.6113281,15.9085693h20.9267578h4.9238281h20.9267578v18.1708984   v21.128418l-18.1523438,9.0717773c-0.3900146,0.1954956-0.7900391,0.3657227-1.1965942,0.5146484   c-0.1438599,0.0526733-0.2922363,0.0883789-0.4377441,0.1352539c-0.2659302,0.0856323-0.53125,0.1738281-0.8019409,0.2399292   c-0.1740112,0.0424805-0.3510132,0.0679321-0.5266113,0.102356c-0.2471924,0.0485229-0.4938354,0.1004639-0.7433472,0.1329956   c-0.1866455,0.024353-0.3747559,0.0328369-0.5622559,0.0482788c-0.2410278,0.0197754-0.4818115,0.0420532-0.7235107,0.0469971   c-0.1925049,0.0039673-0.3847656-0.0062256-0.5772705-0.0116577c-0.2376709-0.0067139-0.4752808-0.0125122-0.7122192-0.0335693   c-0.1935425-0.0171509-0.3858032-0.0467529-0.5783691-0.0734253c-0.2340698-0.0325317-0.4678345-0.0658569-0.6998291-0.1124878   c-0.1921387-0.0386353-0.3821411-0.0877075-0.5724487-0.1360474c-0.2282715-0.0579224-0.4557495-0.1186523-0.680603-0.1904907   c-0.1890869-0.0604858-0.3755493-0.1296997-0.5617065-0.2000122c-0.1245117-0.0469971-0.2469482-0.0999756-0.3700562-0.1514282   c0.1117554-0.0811768,0.1975098-0.1676025,0.2949829-0.2518311c0.0830078-0.0717773,0.1775513-0.1407471,0.2507935-0.2140503   c0.1096802-0.1097412,0.1953735-0.2207031,0.2849731-0.3320313c0.053894-0.0669556,0.1190186-0.1328735,0.1661987-0.1997681   c0.0906372-0.128479,0.1591187-0.2541504,0.227356-0.3798828c0.0263062-0.0484619,0.0623779-0.0982056,0.0856323-0.145874   c0.0839233-0.1717529,0.1499634-0.3382568,0.2001953-0.4944458c0.3476563-1.0810547,0.1748047-2.1616211-0.1083984-3.0087891   l13.1494141-2.6357422l0.3574219,0.9848633c0.053894,0.1484985,0.1383667,0.274353,0.2360229,0.3869019   c0.0291748,0.0336304,0.0623779,0.0592651,0.0947266,0.0892944c0.078186,0.072998,0.1618042,0.1349487,0.2550049,0.1853638   c0.0401611,0.0216675,0.0783081,0.0415649,0.1205444,0.0587769c0.1057739,0.043396,0.2155151,0.069458,0.3302612,0.0826416   c0.0332642,0.0038452,0.0639038,0.013916,0.0975952,0.0150146c0.013855,0.0004883,0.0267334,0.0062256,0.0406494,0.0062256   c0.1416016,0,0.2851563-0.0244141,0.4257813-0.0751953l5.4472656-1.9750977   c0.3115234-0.1132813,0.5664063-0.3452148,0.7060547-0.6455078c0.140625-0.3007813,0.15625-0.6445313,0.0429688-0.9560547   l-8.9384766-24.6386719c-0.1132813-0.3120117-0.3457031-0.565918-0.6464844-0.706543   c-0.3017578-0.1416016-0.6445313-0.1567383-0.9560547-0.0415039l-5.4472656,1.984375   c-0.6484375,0.2358398-0.9824219,0.9521484-0.7470703,1.6005859l0.3583984,0.987793l-16.0371094,8.7202148l-1.0116577,0.5446777   l-5.3096313,1.932373c-0.7783203,0.2768555-1.4003906,0.8417969-1.7519531,1.590332   c-0.3525391,0.7495117-0.3896484,1.5908203-0.1054688,2.3652344l2.7822266,7.6708984l-3.7753906-1.8876953v-21.128418V15.9085693z    M39.0917969,64.2459717l-24.5888672,20.578125v-32.875l20.8525391,10.4301758   c0.0292969,0.0146484,0.0585938,0.0283203,0.0888672,0.0405273L39.0917969,64.2459717z M59.0771484,54.5721436   L41.484375,58.0985107l-4.6572266-12.8291016l15.7636719-8.5708008L59.0771484,54.5721436z M44.6350708,61.7382202   c-0.0062256,0.0232544-0.0067749,0.0481567-0.0141602,0.0709839c-0.0272827,0.0842896-0.0769043,0.1617432-0.1226196,0.2404175   c-0.0224609,0.0386353-0.0339966,0.0806885-0.0608521,0.1179199c-0.0661621,0.0916748-0.154541,0.1763306-0.2473145,0.2595215   c-0.0215454,0.0193481-0.034729,0.0414429-0.0577393,0.0603027c-0.0271606,0.0222778-0.0656738,0.0407715-0.0947266,0.062439   l-1.3473511-2.1431885l1.715332-0.343811c0.1635742,0.3953857,0.3052979,0.8876953,0.2823486,1.3458252   c-0.0009155,0.0161743,0.0014648,0.0328369,0.0001831,0.0489502   C44.6807861,61.5540771,44.6594238,61.6467896,44.6350708,61.7382202z M40.1455078,61.055542l0.8444824,1.343811   l-1.909729-0.9558105l0.890564-0.3244019L40.1455078,61.055542z M54.2373047,33.6048584l3.0986328-1.128418l8.0849609,22.2866211   l-3.0966797,1.1230469L54.2373047,33.6048584z M29.9726563,48.1219482c0.0380859-0.0810547,0.1318359-0.2280273,0.3359375-0.300293   l4.2266235-1.5379639l4.5380249,12.5018311l-3.0731201,1.1195679l-2.366333-1.1893921L29.953125,48.5687256   C29.8808594,48.3709717,29.9345703,48.2039795,29.9726563,48.1219482z M14.5029297,45.2479248l9.6083984-8.4125977v17.1225586   l-9.6083984-4.8037109V45.2479248z M16.6943359,86.2498779l24.8359375-20.7841797l2.1054688,1.0493164   c0.0917969,0.0458984,0.1845703,0.090332,0.2763672,0.128418c0.1960449,0.0932617,0.4011841,0.1602173,0.600708,0.2438965   c0.288208,0.1209106,0.5731201,0.2513428,0.8676147,0.3522949c0.2084961,0.0714111,0.4230347,0.1184692,0.6342163,0.1798706   c0.3009644,0.0876465,0.5996704,0.1837158,0.9051514,0.2509766c0.2158203,0.0475464,0.4351196,0.071228,0.6526489,0.1086426   c0.3059692,0.0526123,0.6105957,0.1132202,0.9190063,0.145752c0.2215576,0.0233765,0.4440918,0.0235596,0.6663818,0.0365601   c0.2811279,0.0165405,0.5615845,0.0462646,0.8431396,0.0462646c0.0257568,0,0.0513916-0.0042725,0.0771484-0.0043945   c0.2853394-0.0015869,0.5693359-0.0302734,0.854126-0.0487671c0.2547607-0.0166016,0.5100098-0.0202637,0.7636108-0.050415   c0.2867432-0.0340576,0.5693359-0.0964355,0.8538818-0.1478882c0.2481079-0.0447998,0.49823-0.0756226,0.7438965-0.133667   c0.3096313-0.0731201,0.6118164-0.1766968,0.9165649-0.270752c0.213501-0.065918,0.4309692-0.1158447,0.6415405-0.1920776   c0.5111084-0.1848145,1.0131836-0.3989868,1.5027466-0.6442261l2.1064453-1.0498047l24.8427734,20.7841797H16.6943359z"/><path d="M38.8095703,47.7947998c0.2226563,0.4296875,0.6591797,0.6762695,1.1113281,0.6762695   c0.1933594,0,0.3896484-0.0454102,0.5732422-0.1401367l9.2255859-4.7719727   c0.6132813-0.3173828,0.8535156-1.0712891,0.5361328-1.6845703c-0.3173828-0.6137695-1.0722656-0.8525391-1.6845703-0.5361328   l-9.2255859,4.7719727C38.7324219,46.4276123,38.4921875,47.1815186,38.8095703,47.7947998z"/></g><text x="0" y="115" fill="#000000" font-size="5px" font-weight="bold" font-family="'Helvetica Neue', Helvetica, Arial-Unicode, Arial, Sans-serif">Created by Edwin PM</text><text x="0" y="120" fill="#000000" font-size="5px" font-weight="bold" font-family="'Helvetica Neue', Helvetica, Arial-Unicode, Arial, Sans-serif">from the Noun Project</text></svg>