<svg xmlns="http://www.w3.org/2000/svg" xmlns:xlink="http://www.w3.org/1999/xlink" xmlns:serif="http://www.serif.com/" viewBox="0 0 32 40" version="1.1" xml:space="preserve" style="" x="0px" y="0px" fill-rule="evenodd" clip-rule="evenodd" stroke-linejoin="round" stroke-miterlimit="2"><g transform="matrix(1,0,0,1,-240,-144)"><path d="M249,166.568L249,166.5C249,165.672 248.328,165 247.5,165L245.5,165C244.672,165 244,165.672 244,166.5L244,172.5C244,173.328 244.672,174 245.5,174L247.5,174C248.328,174 249,173.328 249,172.5L249,172L259.001,172C259.446,172 259.882,171.882 260.265,171.657C261.525,170.919 265.025,168.868 266.975,167.726C267.443,167.452 267.771,166.991 267.878,166.46C267.984,165.928 267.858,165.377 267.532,164.944L267.532,164.943C267.061,164.318 266.203,164.131 265.515,164.505L261.541,166.664C261.547,166.61 261.55,166.556 261.55,166.5C261.55,165.672 260.879,165 260.05,165L252.116,165C251.624,165 251.143,165.145 250.733,165.417L249,166.568ZM248,166.5L248,172.5C248,172.776 247.776,173 247.5,173C247.5,173 245.5,173 245.5,173C245.224,173 245,172.776 245,172.5C245,172.5 245,166.5 245,166.5C245,166.224 245.224,166 245.5,166C245.5,166 247.5,166 247.5,166C247.776,166 248,166.224 248,166.5ZM249,171L249,168.791L249,167.768L251.286,166.25C251.532,166.087 251.82,166 252.116,166C252.116,166 260.05,166 260.05,166C260.326,166 260.55,166.224 260.55,166.5C260.55,166.776 260.326,167 260.05,167C260.05,167 256.03,167 256.03,167L256.03,168L260.796,168C261.046,168 261.292,167.937 261.512,167.818L265.993,165.384C266.245,165.247 266.56,165.315 266.733,165.545L266.733,165.545C266.888,165.75 266.947,166.012 266.897,166.263C266.847,166.515 266.691,166.733 266.469,166.863C264.52,168.006 261.02,170.056 259.76,170.794C259.53,170.929 259.268,171 259.002,171L249,171ZM253,158.499L253,158.5L253,161.735C253,162.977 254.055,164 255.375,164L256.625,164C257.945,164 259,162.977 259,161.735C259,160.4 259,158.5 259,158.5L259,158.499C260.214,157.586 261,156.133 261,154.498C261,151.738 258.759,149.497 256,149.497C253.24,149.497 250.999,151.738 250.999,154.498C250.999,156.133 251.785,157.586 253,158.499ZM254,161.073L254,161.735C254,162.442 254.624,163 255.375,163C255.375,163 256.625,163 256.625,163C257.376,163 258,162.442 258,161.735L258,161.113C256.611,161.651 255.278,161.628 254,161.073ZM250.302,160.474L251.423,159.477C251.629,159.294 251.647,158.977 251.464,158.771C251.281,158.565 250.964,158.546 250.758,158.73L249.637,159.726C249.431,159.91 249.412,160.226 249.596,160.432C249.779,160.638 250.095,160.657 250.302,160.474ZM262.332,159.683L261.211,158.686C261.005,158.503 260.689,158.521 260.505,158.727C260.322,158.934 260.341,159.25 260.547,159.433L261.668,160.43C261.874,160.613 262.19,160.595 262.374,160.388C262.557,160.182 262.538,159.866 262.332,159.683ZM258,159.083C257.388,159.351 256.711,159.5 256,159.5C255.289,159.5 254.612,159.351 254,159.083L254,159.964C254.017,159.971 254.033,159.979 254.049,159.987C255.3,160.652 256.616,160.668 258,160.026L258,159.083ZM256.5,158.469C258.472,158.222 260,156.538 260,154.498C260,152.29 258.208,150.497 256,150.497C253.792,150.497 251.999,152.29 251.999,154.498C251.999,156.538 253.528,158.223 255.5,158.469L255.5,156.09L254.651,155.666C254.404,155.542 254.304,155.242 254.427,154.995C254.55,154.748 254.851,154.648 255.098,154.771C255.098,154.771 256,155.222 256,155.222L256.902,154.771C257.149,154.648 257.45,154.748 257.573,154.995C257.696,155.242 257.596,155.542 257.349,155.666L256.5,156.09L256.5,158.469ZM248,155.001L249.5,155C249.776,155 250,154.776 250,154.5C250,154.224 249.776,154 249.5,154L248,154.001C247.724,154.001 247.5,154.226 247.5,154.502C247.5,154.777 247.724,155.001 248,155.001ZM262.5,155L264,154.999C264.276,154.999 264.5,154.774 264.5,154.498C264.5,154.223 264.276,153.999 264,153.999L262.5,154C262.224,154 262,154.224 262,154.5C262,154.776 262.224,155 262.5,155ZM261.302,150.474L262.423,149.477C262.629,149.294 262.647,148.977 262.464,148.771C262.281,148.565 261.964,148.546 261.758,148.73L260.637,149.726C260.431,149.91 260.412,150.226 260.596,150.432C260.779,150.638 261.095,150.657 261.302,150.474ZM251.332,149.683L250.211,148.686C250.005,148.503 249.689,148.521 249.505,148.727C249.322,148.934 249.341,149.25 249.547,149.433L250.668,150.43C250.874,150.613 251.19,150.595 251.374,150.388C251.557,150.182 251.538,149.866 251.332,149.683ZM256.5,148L256.5,146.5C256.5,146.224 256.276,146 256,146C255.724,146 255.5,146.224 255.5,146.5L255.5,148C255.5,148.276 255.724,148.5 256,148.5C256.276,148.5 256.5,148.276 256.5,148Z"/></g><text x="0" y="47" fill="#000000" font-size="5px" font-weight="bold" font-family="'Helvetica Neue', Helvetica, Arial-Unicode, Arial, Sans-serif">Created by Liez Art</text><text x="0" y="52" fill="#000000" font-size="5px" font-weight="bold" font-family="'Helvetica Neue', Helvetica, Arial-Unicode, Arial, Sans-serif">from the Noun Project</text></svg>