<svg xmlns="http://www.w3.org/2000/svg" xmlns:xlink="http://www.w3.org/1999/xlink" version="1.1" x="0px" y="0px" viewBox="0 0 135 168.75" style="enable-background:new 0 0 135 135;" xml:space="preserve"><g><path d="M3.5,130.2597961h0.9584961c0.2763672,0,0.5-0.2236328,0.5-0.5s-0.2236328-0.5-0.5-0.5H3.5   c-0.2763672,0-0.5,0.2236328-0.5,0.5S3.2236328,130.2597961,3.5,130.2597961z"/><path d="M19.2919922,129.7597961c0-0.2763672-0.2236328-0.5-0.5-0.5H9.4584961c-0.2763672,0-0.5,0.2236328-0.5,0.5   s0.2236328,0.5,0.5,0.5h9.3334961C19.0683594,130.2597961,19.2919922,130.0361633,19.2919922,129.7597961z"/><path d="M124.875,130.2597961c0.2763672,0,0.5-0.2236328,0.5-0.5s-0.2236328-0.5-0.5-0.5h-7.9375   c-0.2763672,0-0.5,0.2236328-0.5,0.5s0.2236328,0.5,0.5,0.5H124.875z"/><path d="M129.375,129.7597961c0,0.2763672,0.2236328,0.5,0.5,0.5h1.625c0.2763672,0,0.5-0.2236328,0.5-0.5s-0.2236328-0.5-0.5-0.5   h-1.625C129.5986328,129.2597961,129.375,129.483429,129.375,129.7597961z"/><path d="M62.3891602,23.1855736h10.2216797c0.2763672,0,0.5-0.2236328,0.5-0.5s-0.2236328-0.5-0.5-0.5H62.3891602   c-0.2763672,0-0.5,0.2236328-0.5,0.5S62.112793,23.1855736,62.3891602,23.1855736z"/><path d="M74.8188477,23.1855736h0.8608398c0.2763672,0,0.5-0.2236328,0.5-0.5s-0.2236328-0.5-0.5-0.5h-0.8608398   c-0.2763672,0-0.5,0.2236328-0.5,0.5S74.5424805,23.1855736,74.8188477,23.1855736z"/><path d="M47.2700195,86.8598862h40.4599609c0.2763672,0,0.5-0.2236328,0.5-0.5   c0-9.2351685-6.0471191-17.2557983-14.8094482-19.8554688c0.8959961-0.6130371,1.6870117-1.3648071,2.3551636-2.2180176   c0.001709-0.0014038,0.0038452-0.00177,0.0055542-0.0031738c2.8652344-2.4023399,4.5488281-5.9243126,4.6186523-9.6640587   l0.1503906-8.0600586c0.085083-4.6241455-2.9866943-8.585083-7.3217773-9.734314   c0.0014038-0.1251221,0.0014648-0.227417,0.0014648-0.2749634c0-3.1650391-2.5703125-5.7397461-5.7299805-5.7397461   c-3.1745224,0-5.8777924,2.6322174-5.7196655,6.0099487c-4.3466797,1.1446533-7.4255981,5.1096191-7.3403931,9.739563   l0.1601563,8.0576172c0.050293,3.4018555,1.4174805,6.5908203,3.8466797,8.9765625   c0.2390137,0.2390137,0.4884033,0.4570274,0.7481689,0.6651573c0.6724243,0.8644409,1.4700317,1.6258545,2.3754272,2.2453003   c-8.756897,2.5983276-14.800354,10.6195068-14.800354,19.8556519   C46.7700195,86.6362534,46.9936523,86.8598862,47.2700195,86.8598862z M63.1103516,67.3686142   c2.8026733,1.2920074,5.9616089,1.2947006,8.7695313,0.0004883v0.890686c0,2.4208984-1.9648438,4.3901367-4.3798828,4.3901367   c-1.1689453,0-2.2724609-0.4594727-3.1064453-1.293457c-0.8154297-0.8154297-1.2832031-1.9443359-1.2832031-3.0966797V67.3686142z    M67.5,31.8100853c2.6079102,0,4.7299805,2.1264648,4.7299805,4.7397461c0,0.0142822,0,0.0407715-0.000061,0.0643921   c-0.1187744-0.0187378-0.2346191-0.0454102-0.3549194-0.0599976c-0.4301758-0.0566406-0.8310547-0.0839844-1.2250977-0.0839844   H64.340332c-0.3886719,0-0.8007813,0.0283203-1.2202148,0.0830078c-0.1140747,0.0137939-0.2237549,0.0393066-0.3364868,0.0568848   C62.7473259,33.8455048,64.9687958,31.8100853,67.5,31.8100853z M55.6000977,54.6001244l-0.1601563-8.0595703   c-0.0844727-4.5791016,3.269043-8.4458008,7.8051758-8.9951172c0.3813477-0.0498047,0.75-0.0751953,1.0952148-0.0751953h6.3095703   c0.3500977,0,0.7084961,0.0244141,1.1000977,0.0761719c4.53125,0.5483398,7.8847656,4.4150391,7.800293,8.9941406   l-0.1503906,8.0600586c-0.0404053,2.1642456-0.6677246,4.2490845-1.7814331,6.0499268   c0.2531738-0.9030151,0.3986206-1.850769,0.3986206-2.8336182v-8.0400391c0-0.1777344-0.0942383-0.3417969-0.2475586-0.4316406   c-2.7519531-1.6113281-3.5527344-5.0219727-3.5605469-5.0561523c-0.043457-0.1923828-0.1962891-0.3408203-0.3891602-0.3798828   c-0.1953125-0.034668-0.3916016,0.0395508-0.5058594,0.199707c-0.0507813,0.0712891-5.1870117,7.1113281-15.8964844,8.3344727   c-0.2524414,0.0288086-0.4433594,0.2421875-0.4433594,0.496582v4.8769531c0,0.9766846,0.144043,1.9185181,0.3942261,2.8165283   C56.255188,58.8329124,55.6321411,56.7670555,55.6000977,54.6001244z M57.9741211,57.8169212v-4.434082   c8.8847656-1.1538086,13.8974609-6.0317383,15.546875-7.9375c0.4423828,1.2089844,1.4584961,3.3051758,3.4960938,4.6113281   v7.7602539c0,5.25-4.2714844,9.5214806-9.5214844,9.5214806S57.9741211,63.0669212,57.9741211,57.8169212z M62.1103516,67.3866806   v0.8731079c0,1.4155273,0.574707,2.8022461,1.5761719,3.8037109c1.0229492,1.0229492,2.3774414,1.5864258,3.8134766,1.5864258   c2.9663086,0,5.3798828-2.4179688,5.3798828-5.3901367v-0.8731689c8.3179932,2.3468628,14.128418,9.8053589,14.34375,18.4732666   H47.7763672C47.9916992,77.1906967,53.7982178,69.7322617,62.1103516,67.3866806z"/><path d="M88.2314453,91.3623276c0-0.2763672-0.2236328-0.5-0.5-0.5H47.2685547c-0.2763672,0-0.5,0.2236328-0.5,0.5   s0.2236328,0.5,0.5,0.5h40.4628906C88.0078125,91.8623276,88.2314453,91.6386948,88.2314453,91.3623276z"/><path d="M62.3892212,56.6836815c-0.8115845,0-1.4894409-0.5639648-1.666626-1.317749   c-0.0307007,0.1265259-0.0469971,0.2602539-0.0469971,0.395874c0,0.9453735,0.7664185,1.713623,1.713623,1.713623   c0.9454346,0,1.713623-0.7682495,1.713623-1.713623c0-0.1356201-0.0162354-0.2693481-0.0469971-0.395874   C63.8787231,56.1197166,63.1990356,56.6836815,62.3892212,56.6836815z"/><path d="M72.602356,57.4754295c0.9453735,0,1.713623-0.7682495,1.713623-1.713623   c0-0.1356201-0.0162354-0.2693481-0.0469971-0.395874c-0.177124,0.7537842-0.8568115,1.317749-1.666626,1.317749   c-0.8116455,0-1.489502-0.5639648-1.666626-1.317749c-0.0307007,0.1265259-0.0469971,0.2602539-0.0469971,0.395874   C70.8887329,56.70718,71.6551514,57.4754295,72.602356,57.4754295z"/><path d="M70.1069336,62.0312767c0-0.2763672-0.2236328-0.5-0.5-0.5s-0.5,0.2236328-0.5,0.5   c0,0.8881836-0.7226563,1.6108398-1.6113281,1.6108398c-0.8881836,0-1.6108398-0.7226563-1.6108398-1.6108398   c0-0.2763672-0.2236328-0.5-0.5-0.5s-0.5,0.2236328-0.5,0.5c0,1.4394531,1.1713867,2.610836,2.6108398,2.610836   C68.9355469,64.6421127,70.1069336,63.4707298,70.1069336,62.0312767z"/><path d="M125.0947266,45.5864525c0.7402954-1.0760498,0.6358032-2.5629272-0.3217773-3.5205078   c-1.0771484-1.0771484-2.8295898-1.0771484-3.9067383,0c-1.0791016,1.0791016-1.0805664,2.8334961-0.003418,3.9106445   c0.9287872,0.9287872,2.404892,1.0896606,3.5250854,0.3170776l1.1970825,1.1970825   c0.1953049,0.1953049,0.5117111,0.1953163,0.7070313,0c0.1953125-0.1953125,0.1953125-0.5117188,0-0.7070313   L125.0947266,45.5864525z M121.5698242,45.269558c-0.6875-0.6875-0.6855469-1.8071289,0.003418-2.496582   c0.6867752-0.6858025,1.8038025-0.6878929,2.4926758,0c0.6885376,0.6890259,0.6907959,1.8074951,0.0045776,2.4951782   c-0.0001831,0.0001831-0.0004883,0.0002441-0.0006714,0.0004272c-0.0003662,0.0003662-0.0004883,0.0009155-0.0008545,0.0012817   C123.3795166,45.9579735,122.2581787,45.9579124,121.5698242,45.269558z"/><path d="M129.8105469,40.8637962c0-1.1079102-0.9013672-2.0092773-2.0092773-2.0092773c-14.2667236,0-3.214798,0-27.9311523,0   v-12.324707c0-4.1630859-3.3867188-7.5498047-7.5498047-7.5498047H49.5427856l-0.0125122-0.8178711   c-0.0136719-0.8823242-0.6157227-1.6650391-1.4663086-1.9038086l-1.9379883-0.5375986   c-0.227684-0.683054-0.4952049-1.3184166-0.8359375-1.9394531l0.9296875-1.7631836   c0.4262695-0.7861328,0.277832-1.7407227-0.3706055-2.3764648l-1.5292969-1.4892578   c-0.6333008-0.620605-1.6152344-0.7475581-2.3857422-0.3076167l-1.7724609,1.0024409l-1.9145508-0.7539063l-0.6000977-1.9423823   c-0.2636719-0.8442383-1.0703125-1.4169922-1.9438477-1.4106445l-2.1401367,0.0297852   c-0.8823242,0.0131836-1.6650391,0.6152344-1.9052734,1.46875l-0.5454102,1.9287105   c-0.6933594,0.2348633-1.3261719,0.512207-1.9208984,0.8417969l-1.769043-0.9423828   c-0.7900391-0.4150386-1.7685547-0.2539058-2.3818359,0.3852539L23.5625,9.9804945   c-0.6269531,0.640625-0.7509766,1.6025391-0.3061523,2.3984375l0.9941406,1.7324219   c-0.3383789,0.6650391-0.5981445,1.3081055-0.7885742,1.9521494l-1.9228516,0.6000977   c-0.8505859,0.2695313-1.4125977,1.0507813-1.3989258,1.9433594l0.0297852,2.1308594   c0.0136719,0.8818359,0.6157227,1.6645508,1.4658203,1.9038086l1.934082,0.5385742   c0.2285156,0.6635742,0.515625,1.3203125,0.8417969,1.9257813l-0.9345703,1.7714844   c-0.4091797,0.7802734-0.2553711,1.7548828,0.3745117,2.3710938l1.5327148,1.4921875   c0.6396484,0.6132813,1.6210938,0.7397461,2.3808594,0.3046875l1.7524414-0.9853516   c0.6005859,0.3076172,1.253418,0.5678711,1.9458008,0.7758789l0.5996094,1.9135742   c0.2646484,0.847168,1.0317383,1.4106445,1.9130859,1.4106445c0.0097656,0,0.0200195,0,0.0302734,0l1.1235352-0.0137939v59.8301964   H28.605957c-1.8071289,0-3.2773438,1.4702148-3.2773438,3.2773438v15.8852539c0,1.8071289,1.4702148,3.2773438,3.2773438,3.2773438   h6.5239258v6.293457c0,2.8041992,1.5440063,5.2509155,3.8245239,6.5498123H23.7919922c-0.2763672,0-0.5,0.2236328-0.5,0.5   s0.2236328,0.5,0.5,0.5H111.9375c0.2763672,0,0.5-0.2236328,0.5-0.5s-0.2236328-0.5-0.5-0.5H96.0458984   c2.2803345-1.2988968,3.8242188-3.7456131,3.8242188-6.5498123v-13.6798096l2.1611328-0.0301514   c1.1289063-0.0253906,2.0893555-0.7670898,2.390625-1.8461914l0.7470703-2.6870117   c0.9296875-0.2983398,1.8452148-0.6933594,2.7280273-1.1777344l2.4682617,1.3022461   c0.9824219,0.5224609,2.2089844,0.3271484,2.984375-0.4736328l2.0024414-2.0722656   c0.7822266-0.8208008,0.9316406-2.0244141,0.3730469-2.9916992l-1.3691406-2.418457   c0.3583984-0.7294922,0.6630859-1.4560547,0.9086914-2.1674805c0.0639648-0.1933594,0.1235352-0.3916016,0.1816406-0.5878906   l2.659668-0.8320313c1.0571289-0.3227539,1.7866211-1.3237305,1.7739258-2.4345703l-0.0395508-2.8745117   c-0.0249023-1.1113281-0.7841797-2.0942383-1.8461914-2.390625l-2.6918945-0.7485352   c-0.3087769-0.9343948-0.6274796-1.742981-1.1728516-2.7285156l1.2919922-2.4560547   c0.5219727-0.9814453,0.3271484-2.2084961-0.472168-2.9829102l-2.0483398-1.9985352   c-0.7924805-0.7797852-2.027832-0.9399414-3.0083008-0.3881836l-2.4414063,1.3916016l-2.734375-1.0834961l-0.828125-2.6787109   c-0.3237305-1.0698242-1.3120117-1.8188477-2.4458008-1.7749023l-1.5727539,0.0228882V49.9433861   c24.7476425,0,13.6747513,0,27.9311523,0c1.1079102,0,2.0092773-0.9013672,2.0092773-2.0092773V40.8637962z M88.2202148,48.9433861   c-0.5566406,0-1.0092773-0.4526367-1.0092773-1.0092773v-7.0703125c0-0.5566406,0.4526367-1.0092773,1.0092773-1.0092773   h28.3662109v9.0888672C110.8207703,48.9433861,98.092453,48.9433861,88.2202148,48.9433861z M39.3300781,116.4165268h5.1611328   c1.8071289,0,3.2773438-1.4702148,3.2773438-3.2773438v-11.2768555h31.921875c0.2763672,0,0.5-0.2236328,0.5-0.5   s-0.2236328-0.5-0.5-0.5h-31.921875v-3.6083984c0-0.1340942-0.0238647-0.2616577-0.0396118-0.3916016h27.0147095   c0.2763672,0,0.5-0.2236328,0.5-0.5s-0.2236328-0.5-0.5-0.5H47.4469604   c-0.5253906-1.1104736-1.6479492-1.8857422-2.9557495-1.8857422h-5.1611328V26.5298119   c0-1.847168,1.5029297-3.3496094,3.3500977-3.3496094h8.3916016c0.2456055,1.9262695,1.8911133,3.4199219,3.878418,3.4199219   h27.8398438c1.9873047,0,3.6328125-1.4936523,3.878418-3.4199219h5.6518555c1.847168,0,3.3496094,1.5024414,3.3496094,3.3496094   v12.324707h-7.449707c-1.1079102,0-2.0092773,0.9013672-2.0092773,2.0092773v7.0703125   c0,1.1079102,0.9013672,2.0092773,2.0092773,2.0092773h7.449707v72.7666016c0,1.8417969-1.5024414,3.3398438-3.3496094,3.3398438   H42.6801758c-1.847168,0-3.3500977-1.4980469-3.3500977-3.3398438V116.4165268z M33.9926758,33.160183   c-0.4736328,0.0112305-0.8408203-0.2788086-0.9755859-0.7094727l-0.6796875-2.1699219   c-0.0507813-0.1621094-0.1801758-0.2871094-0.34375-0.3325195c-0.8144531-0.2255859-1.5693359-0.5273438-2.2431641-0.8964844   c-0.1508789-0.0830078-0.3344727-0.0820313-0.4853516,0.0029297l-1.9921875,1.1206055   c-0.3828125,0.2182617-0.8740234,0.152832-1.1943359-0.1538086l-1.5288086-1.4887695   c-0.315918-0.309082-0.3925781-0.7983398-0.1875-1.1894531l1.0600586-2.0097656   c0.0795898-0.1508789,0.0766602-0.3320313-0.0078125-0.4804688c-0.3911133-0.6879883-0.7294922-1.4609375-0.9785156-2.2358398   c-0.0512695-0.1601563-0.1801758-0.2836914-0.3417969-0.3286133l-2.1889648-0.6098633   c-0.4262695-0.1196289-0.7285156-0.5131836-0.7353516-0.9555664l-0.0297852-2.1308594   c-0.0068359-0.4482422,0.2749023-0.840332,0.6987305-0.9746094l2.1801758-0.6801567   c0.1640625-0.0512886,0.2905273-0.1831245,0.3344727-0.3491402c0.1958008-0.7382822,0.4926758-1.4750986,0.9077148-2.2529306   c0.0810547-0.1518555,0.0786133-0.3349609-0.0073242-0.484375l-1.1274414-1.965332   c-0.2236328-0.4003906-0.1630859-0.8852539,0.152832-1.2080078l1.4814453-1.5317383   c0.3085938-0.3212891,0.8017578-0.4008789,1.1943359-0.1948242l2.0102539,1.0703125   c0.1533203,0.0825195,0.3398438,0.0786133,0.4887695-0.0107422C30.125,9.6152601,30.8500977,9.2969007,31.6708984,9.0366468   c0.159668-0.050293,0.2836914-0.1777344,0.3295898-0.3388672l0.6210938-2.1923823   c0.1201172-0.4262695,0.5131836-0.7290039,0.9555664-0.7353516l2.140625-0.0297852   c0.4262695-0.0019531,0.8422852,0.284668,0.9746094,0.7070313l0.6704102,2.1704097   c0.0444336,0.1450195,0.152832,0.262207,0.2944336,0.3178711l2.3598633,0.9296875   c0.140625,0.0546875,0.2983398,0.0439453,0.4291992-0.0302734l1.980957-1.1206055   c0.3847656-0.2197266,0.8769531-0.1577148,1.1938477,0.1533203l1.5288086,1.4892578   c0.3256836,0.3188477,0.4023438,0.7949219,0.1879883,1.1894531l-1.0600586,2.0102539   c-0.0805664,0.152832-0.0766602,0.3369141,0.0107422,0.4858398c0.2866211,0.4902344,0.5366211,1.0219727,0.7416992,1.5791016   c0.0761719,0.2094727,0.152832,0.4194345,0.2197266,0.6479502c0.0483398,0.1665039,0.1791992,0.2958984,0.3461914,0.3422852   l2.1987305,0.6098633c0.4262695,0.1196289,0.7285156,0.5126953,0.7353516,0.9560547l0.0122681,0.8022461h-5.8623657   c-0.8574219,0-1.7081909,0.1467896-2.4993896,0.4249268c-0.1182861-2.8756104-2.5388184-5.1807261-5.4078369-5.1148691   c-2.9626465,0.0445213-5.3074512,2.4850149-5.2529297,5.4160166c0.0161133,1.4238281,0.5893555,2.7553711,1.6142578,3.75   c1.0025787,0.9727898,2.3286705,1.5250607,3.8095703,1.5039063c0.1342163-0.0037231,0.2548828-0.0182495,0.3796997-0.0294189   c-0.114563,0.5192261-0.1936646,1.0498047-0.1936646,1.5992432v6.616394L33.9926758,33.160183z M35.6229248,23.8829002   c-1.4195328,0.2681999-2.7900314-0.1710224-3.7918701-1.144104c-0.8325195-0.8076172-1.2978516-1.8886719-1.3110352-3.0478516   c-0.0448055-2.405241,1.8831253-4.3647966,4.2675781-4.4008799c2.3623047-0.0439453,4.3662109,1.8779306,4.4023438,4.2597666   c0,0.1047363-0.0095215,0.2035522-0.0148315,0.3044434C37.5350952,20.715847,36.2631226,22.1596947,35.6229248,23.8829002z    M36.1298828,26.5298119c0-3.5873642,2.9137039-6.5498047,6.550293-6.5498047c0.1221771,0,6.4979553,0,6.3779297,0h43.262207   c3.6118164,0,6.5498047,2.9384766,6.5498047,6.5498047v12.324707h-2.2001953v-12.324707   c0-2.3984375-1.9511719-4.3496094-4.3496094-4.3496094h-6.1201172c-0.2763672,0-0.5,0.2236328-0.5,0.5   c0,1.6098633-1.3056641,2.9199219-2.9101563,2.9199219H54.9501953c-1.6044922,0-2.9101563-1.3100586-2.9101563-2.9199219   c0-0.2763672-0.2236328-0.5-0.5-0.5h-8.8598633c-2.3984375,0-4.3500977,1.9511719-4.3500977,4.3496094v67.4467773h-2.2001953   V26.5298119z M26.3286133,113.139183V97.2539291c0-1.2558594,1.0214844-2.2773438,2.2773438-2.2773438   c3.1664238,0,16.2468452,0,15.8852539,0c1.2558594,0,2.2773438,1.0214844,2.2773438,2.2773438v15.8852539   c0,1.2558594-1.0214844,2.2773438-2.2773438,2.2773438H28.605957   C27.3500977,115.4165268,26.3286133,114.3950424,26.3286133,113.139183z M99.8701172,83.7525864   c0.1447144-0.0109863,0.2895508-0.0313721,0.4321289-0.0328369c3.2602539,0,5.9433594,2.6240234,5.9980469,5.887207   c0.0458984,3.3046875-2.6049805,6.0380859-5.9145508,6.0932617c-0.1582031,0.0045776-0.3421021-0.0219727-0.515625-0.0353394   V83.7525864z M101.4614258,70.8999252c0.6757813-0.0180664,1.2763672,0.4228516,1.4711914,1.0678711l0.8999023,2.9101563   c0.0444336,0.1445313,0.1523438,0.2612305,0.293457,0.3168945l3.1801758,1.2602539   c0.1401367,0.0551758,0.2993164,0.0439453,0.4316406-0.0302734l2.6479492-1.5092773   c0.5913086-0.3344727,1.3369141-0.2387695,1.8154297,0.2324219l2.0512695,2.0009766   c0.4819336,0.4672852,0.5996094,1.2060547,0.2851563,1.7983398l-1.4199219,2.699707   c-0.0800781,0.1518555-0.0766602,0.3344727,0.0092773,0.4829102c0.402832,0.6972656,0.7402344,1.4174805,1.0039063,2.1420898   c0.1074219,0.2939453,0.2055664,0.5883789,0.3037109,0.8916016c0.0512695,0.159668,0.1796875,0.2827148,0.3417969,0.328125   l2.949707,0.8198242c0.6411133,0.1787109,1.0991211,0.7749023,1.1142578,1.4453125l0.0395508,2.8691406   c0.0078125,0.6689453-0.4306641,1.2714844-1.0693359,1.4667969l-2.909668,0.9101563   c-0.0771484,0.0239258-0.1572266,0.0766602-0.2143555,0.1337891c-0.059082,0.0585938-0.1020508,0.1313477-0.1259766,0.2109375   c-0.0865936,0.2941284-0.1651535,0.5647354-0.2431641,0.7993164c-0.2558594,0.7412109-0.5834961,1.5073242-0.9736328,2.2768555   c-0.0751953,0.1494141-0.0712891,0.3266602,0.0112305,0.472168l1.5019531,2.6538086   c0.3364258,0.5834961,0.2446289,1.309082-0.2260742,1.8027344l-1.9995117,2.0698242   c-0.4677734,0.4814453-1.206543,0.6000977-1.7978516,0.2851563l-2.7099609-1.4296875   c-0.1508789-0.0795898-0.3325195-0.0766602-0.4814453,0.0083008c-0.9741211,0.5561523-1.9916992,0.9951172-3.0253906,1.3046875   c-0.1645508,0.0493164-0.2919922,0.1796875-0.3383789,0.3452148l-0.8198242,2.949707   c-0.1816406,0.6513672-0.7641602,1.0991211-1.4458008,1.1142578l-2.1425781,0.0300903V96.670311   c0.2199402,0.0145721,0.2529449,0.0388184,0.5380859,0.0299072c3.8540039-0.0644531,6.9453125-3.2529297,6.8920898-7.1083984   c-0.0639648-3.8100586-3.1938477-6.8720703-6.9912109-6.8720703c-0.1447754-0.0008545-0.2923584,0.0229492-0.4389648,0.0327148   V70.9230576L101.4614258,70.8999252z M98.8701172,122.7099838c0,3.605957-2.9379883,6.5400467-6.5498047,6.5400467H42.6801758   c-3.6118164,0-6.550293-2.9340897-6.550293-6.5400467v-6.293457h2.2001953v6.293457   c0,2.3930664,1.9516602,4.3398438,4.3500977,4.3398438h49.6401367c2.3984375,0,4.3496094-1.9467773,4.3496094-4.3398438V49.9433861   h2.2001953C98.8701172,75.0344009,98.8701172,95.3161163,98.8701172,122.7099838z M128.8105469,47.9341087   c0,0.5566406-0.4526367,1.0092773-1.0092773,1.0092773h-10.2148438v-9.0888672h10.2148438   c0.5566406,0,1.0092773,0.4526367,1.0092773,1.0092773V47.9341087z"/><path d="M28.8286133,100.0718002h15.4399414c0.2763672,0,0.5-0.2236328,0.5-0.5s-0.2236328-0.5-0.5-0.5H28.8286133   c-0.2763672,0-0.5,0.2236328-0.5,0.5S28.5522461,100.0718002,28.8286133,100.0718002z"/><path d="M44.7685547,103.3218002c0-0.2763672-0.2236328-0.5-0.5-0.5H28.8286133c-0.2763672,0-0.5,0.2236328-0.5,0.5   s0.2236328,0.5,0.5,0.5h15.4399414C44.5449219,103.8218002,44.7685547,103.5981674,44.7685547,103.3218002z"/><path d="M41.0600586,106.5718002h-3.0415039c-0.2763672,0-0.5,0.2236328-0.5,0.5s0.2236328,0.5,0.5,0.5h3.0415039   c0.2763672,0,0.5-0.2236328,0.5-0.5S41.3364258,106.5718002,41.0600586,106.5718002z"/><path d="M35.5185547,106.5718002h-6.6899414c-0.2763672,0-0.5,0.2236328-0.5,0.5s0.2236328,0.5,0.5,0.5h6.6899414   c0.2763672,0,0.5-0.2236328,0.5-0.5S35.7949219,106.5718002,35.5185547,106.5718002z"/><path d="M35.0600586,110.3218002h-6.2314453c-0.2763672,0-0.5,0.2236328-0.5,0.5s0.2236328,0.5,0.5,0.5h6.2314453   c0.2763672,0,0.5-0.2236328,0.5-0.5S35.3364258,110.3218002,35.0600586,110.3218002z"/></g><text x="0" y="150" fill="#000000" font-size="5px" font-weight="bold" font-family="'Helvetica Neue', Helvetica, Arial-Unicode, Arial, Sans-serif">Created by Brickclay</text><text x="0" y="155" fill="#000000" font-size="5px" font-weight="bold" font-family="'Helvetica Neue', Helvetica, Arial-Unicode, Arial, Sans-serif">from the Noun Project</text></svg>