<svg xmlns="http://www.w3.org/2000/svg" version="1.1" viewBox="-5.0 -10.0 110.0 135.0">
 <path d="m50.699 76.078 1.9141 0.5c1.2539 0.12109 2.4141-0.66406 2.7617-1.8711 0.007812-0.027343 0.015625-0.058593 0.019531-0.09375 0.33984-1.3594-0.46094-2.7461-1.8086-3.1328-0.035157-0.003907-0.066407-0.011719-0.10156-0.027344l-15.051-4.0312c-3.5508-0.94922-5.0938-0.035156-8 1.6836-0.28516 0.16406-0.58594 0.34375-1.293 0.75781l-4.7969 2.7695 7.1445 12.371 2.1523-1.2461c0.31641-0.20703 0.70703-0.26172 1.0664-0.14844l14.984 4.6172c0.21094 0.066407 0.32031 0.10547 0.4375 0.14453 0.94922 0.34375 2.543 0.90625 5.9297-1.0273v-0.003906c0.019531-0.011719 0.039062-0.023438 0.058594-0.035156l27.785-16.043c1.4727-0.86719 1.9961-2.7461 1.1836-4.25-0.015626-0.015625-0.019532-0.035157-0.035157-0.050781-0.41406-0.72266-1.1016-1.25-1.9062-1.4648-0.78516-0.21484-1.625-0.11719-2.3398 0.27344-0.011719 0.011719-0.03125 0.023438-0.046876 0.035157l-19.816 11.445h-0.007812c-0.48438 0.27734-0.007813 0.007812-0.42969 0.25-2.1953 1.2812-4.4648 2.6016-7.0898 1.9141l-1.2617-0.33594c-0.20703-0.027344-0.41406-0.066406-0.61719-0.12109l-11.59-3.1094c-0.33203-0.082031-0.61719-0.29297-0.79297-0.58594-0.17188-0.29297-0.22266-0.64453-0.13281-0.97656 0.089844-0.32812 0.30469-0.60938 0.60547-0.77734 0.29688-0.16797 0.64844-0.20703 0.97656-0.10937l10.09 2.707zm6.125-42.75c4.375 1.6562 7.4492 5.6328 7.9531 10.285 0.070312 0.65625-0.14062 1.3164-0.58594 1.8086-0.44141 0.49219-1.0742 0.77344-1.7383 0.76953h-19.973c-0.66406 0.007813-1.2969-0.27734-1.7344-0.76953-0.22266-0.24609-0.38672-0.53125-0.48828-0.84375-0.10156-0.3125-0.13281-0.64062-0.097656-0.96484 0.5-4.6523 3.5742-8.6289 7.9531-10.285-0.035156-0.027344-0.0625-0.058594-0.09375-0.089844-1.8008-1.8008-2.3398-4.5078-1.3633-6.8594 0.97266-2.3516 3.2656-3.8867 5.8125-3.8867s4.8398 1.5352 5.8125 3.8867c0.97656 2.3516 0.4375 5.0586-1.3633 6.8594-0.03125 0.03125-0.0625 0.0625-0.09375 0.089844zm2.2227 4.2734c-2.7188-2.4414-6.5664-3.1758-9.9961-1.9062-3.4258 1.2695-5.8711 4.3281-6.3477 7.9531h19.523c-0.30078-2.332-1.4297-4.4805-3.1797-6.0469zm-3.9297-11.461c-1.2656-1.2617-3.2461-1.4531-4.7266-0.46094-1.4844 0.99609-2.0586 2.8984-1.375 4.5469 0.6875 1.6484 2.4375 2.582 4.1914 2.2344 1.75-0.34766 3.0117-1.8867 3.0117-3.6719 0-0.99219-0.39844-1.9492-1.1016-2.6484zm-2.6523-3.957v-0.003906c-4.6328 0-9.0039 2.1562-11.828 5.832-2.8203 3.6758-3.7734 8.457-2.5703 12.934 1.1992 4.4766 4.4102 8.1406 8.6914 9.9141s9.1445 1.457 13.16-0.86328c4.0117-2.3164 6.7227-6.3672 7.3242-10.961 0.60547-4.5977-0.96094-9.2109-4.2383-12.488-2.7891-2.8047-6.582-4.375-10.539-4.3672zm-12.336 2.5625c3.8359-3.8359 9.2383-5.6719 14.621-4.9648 5.3789 0.71094 10.121 3.8789 12.836 8.5781 2.7109 4.6992 3.0859 10.391 1.0078 15.402s-6.3672 8.7734-11.609 10.18c-5.2383 1.4023-10.836 0.28906-15.137-3.0156-4.3047-3.3008-6.8281-8.4219-6.8281-13.848-0.003906-4.625 1.8359-9.0664 5.1094-12.332zm0.22656-4.9531-2.8438-1.4492-3.7891 3.7891 1.7734 3.4805-0.38672 0.61328h0.003906c-0.59766 0.96875-1.1211 1.9805-1.5586 3.0312-0.43359 1.0469-0.78125 2.1289-1.0352 3.2383l-0.16406 0.69922-3.7109 1.2031v5.3672l3.7109 1.1992 0.16406 0.70703v0.003906c0.25391 1.1055 0.60156 2.1914 1.0352 3.2383 0.4375 1.0508 0.95703 2.0625 1.5586 3.0273l0.38672 0.60547-1.7734 3.4883 3.7891 3.7891 3.4805-1.7734 0.61328 0.37891 0.003906 0.003906c0.96094 0.60547 1.9766 1.1289 3.0273 1.5664 1.0469 0.43359 2.1328 0.77734 3.2344 1.0352l0.69922 0.15625 1.2148 3.7148h5.3672l1.1992-3.7148 0.70703-0.15625 0.003906-0.003906c1.1055-0.25391 2.1875-0.59766 3.2383-1.0352 1.0508-0.4375 2.0625-0.96094 3.0273-1.5664l0.61328-0.37891 3.4805 1.7734 3.7891-3.7891-1.7734-3.4883 0.37891-0.60547h0.003907c0.60547-0.96484 1.1289-1.9766 1.5664-3.0312 0.43359-1.0469 0.78125-2.1289 1.0352-3.2344l0.15625-0.70703 3.7148-1.1992v-5.3672l-3.7148-1.207-0.15625-0.69922v-0.003906c-0.25391-1.1094-0.60156-2.1914-1.0352-3.2383-0.4375-1.0508-0.96094-2.0664-1.5664-3.0312l-0.37891-0.61328 1.7734-3.4805-3.7891-3.7891-3.4883 1.7734-0.60547-0.38672h-0.003907c-0.96484-0.60547-1.9766-1.125-3.0273-1.5586-1.0508-0.4375-2.1328-0.78516-3.2383-1.0391l-0.70703-0.16406-1.207-3.7031h-5.3633l-1.207 3.707-0.69922 0.16406v0.003907c-1.1094 0.25391-2.1914 0.60156-3.2383 1.0352-1.0508 0.43359-2.0664 0.95703-3.0312 1.5586l-0.61328 0.38672zm-2.5156-4.1289 3.0469 1.543c0.89453-0.52344 1.8242-0.98438 2.7812-1.3789 0.95703-0.39844 1.9375-0.73047 2.9375-0.99609l1.3438-4.1172h9.0391l1.3438 4.1172c0.070313 0.023438 0.15234 0.042969 0.22656 0.066407 0.078125-0.21094 0.17188-0.42969 0.26562-0.63672 0.17188-0.37109 0.35547-0.74219 0.55859-1.1016l-1.2383-2.4219 4.3984-4.4023 2.4258 1.2422c0.48828-0.27344 0.99219-0.51953 1.5117-0.73438 0.51562-0.21094 1.0469-0.39453 1.5859-0.55078l0.84375-2.5859h6.2109l0.84375 2.5859h-0.003906c0.53906 0.15625 1.0664 0.33984 1.5859 0.55078 0.51562 0.21484 1.0195 0.46094 1.5078 0.73438l2.4297-1.2422 4.3945 4.4023-1.2344 2.418c0.26953 0.48828 0.51562 0.99219 0.72656 1.5078 0.21875 0.51953 0.40234 1.0469 0.55078 1.5859l2.5938 0.84375v6.2188l-2.5938 0.84375v-0.003906c-0.14844 0.53906-0.33203 1.0703-0.55078 1.5859-0.21484 0.51562-0.45703 1.0195-0.72656 1.5078l1.2344 2.4219-4.3945 4.4023-2.4336-1.2344c-0.070312 0.035156-0.15234 0.078124-0.22266 0.12109v8.6484l-4.1094 1.3438c-0.26562 1-0.59766 1.9805-0.99219 2.9336-0.39844 0.95703-0.85937 1.8867-1.3828 2.7812l1.9727 3.8633-6.4023 6.3984-3.8672-1.9648c-0.89453 0.51953-1.8203 0.98047-2.7773 1.3789-0.95703 0.39844-1.9375 0.73047-2.9375 0.99219l-1.3438 4.1172h-9.0391l-1.3438-4.1172c-1-0.26562-1.9805-0.59766-2.9375-0.99219-0.95703-0.39844-1.8867-0.85938-2.7812-1.3789l-3.8633 1.9648-6.3906-6.3984 1.9648-3.8594c-0.52344-0.89453-0.98438-1.8242-1.3789-2.7812-0.39844-0.95312-0.73047-1.9375-0.99609-2.9375l-4.1172-1.3438v-9.043l4.1172-1.3438c0.26562-1 0.59375-1.9805 0.99219-2.9375 0.39844-0.95312 0.85938-1.8828 1.3789-2.7773l-1.9609-3.8672 6.3945-6.3945zm23.125 0.042969c0.10156 0.035157 0.19922 0.078125 0.30078 0.12109h0.003906c0.95703 0.39453 1.8867 0.85547 2.7773 1.3789l0.36719-0.18359v-0.003907c0.59375-1.4102 1.5742-2.6328 2.8203-3.5234 2.0195-1.4336 4.5781-1.8828 6.9648-1.2227 2.3867 0.65625 4.3516 2.3555 5.3477 4.625 0.99609 2.2695 0.91797 4.8633-0.21484 7.0664-1.1289 2.2031-3.1914 3.7812-5.6133 4.2969l0.007812 0.019531c0.39453 0.95703 0.72656 1.9375 0.99219 2.9375l0.98438 0.32031v0.003907c0.40234-0.12891 0.79688-0.27734 1.1797-0.45312 0.5-0.22656 0.98438-0.48438 1.4492-0.77734l0.61719-0.38672 2.043 1.043 1.7891-1.7891-1.043-2.043 0.38672-0.61328c0.35156-0.5625 0.65625-1.1523 0.90625-1.7656 0.25781-0.60937 0.46094-1.2422 0.60938-1.8867l0.15625-0.69922 2.1797-0.70703v-2.5273l-2.1875-0.71094-0.15625-0.69922c-0.14844-0.64453-0.35156-1.2734-0.60937-1.8867-0.25-0.61328-0.55469-1.2031-0.90625-1.7656l-0.38672-0.61328 1.043-2.0352-1.7891-1.7891-2.0352 1.0391-0.61328-0.37891h-0.003907c-0.55859-0.35547-1.1484-0.66016-1.7578-0.91797-0.60938-0.25-1.2422-0.44922-1.8867-0.59766l-0.70703-0.16016-0.70703-2.1719h-2.5273l-0.71094 2.1719-0.69922 0.16406c-0.64453 0.14844-1.2734 0.34766-1.8867 0.59766-0.61328 0.25781-1.2031 0.5625-1.7656 0.91797l-0.60547 0.37891-2.043-1.0352-1.7891 1.7891 1.0352 2.0352-0.37891 0.61328c-0.28906 0.45703-0.54688 0.9375-0.76562 1.4297-0.0625 0.13672-0.12109 0.26562-0.17188 0.39844zm7.4688 0.058594 5.875 5.875-1.9648 3.8672c0.070312 0.12109 0.13672 0.24219 0.21094 0.36719v-0.007812c1.7656-0.16406 3.3516-1.1445 4.2891-2.6445 0.94141-1.5 1.1289-3.3555 0.51172-5.0156-0.62109-1.6562-1.9766-2.9336-3.668-3.4531-1.6953-0.51953-3.5352-0.21875-4.9766 0.80859-0.09375 0.0625-0.1875 0.12891-0.27344 0.19922zm-46.984 51.859 1.6211 2.8086 4.7891-2.7578h0.007813c0.19922-0.11328 0.75-0.44141 1.2617-0.75 3.5078-2.0781 5.375-3.1797 9.9492-1.957l15.121 4.0508v-0.003906c2.7305 0.75 4.3516 3.5547 3.6367 6.2969v0.007812c-0.089844 0.33203-0.21484 0.65625-0.37109 0.96484 0.59375-0.29297 1.1797-0.63281 1.7656-0.98047 0.042969-0.019532 0.019531-0.007813 0 0l0.4375-0.25 19.816-11.441c0.023437-0.015625 0.050781-0.027343 0.078125-0.042969 2.7109-1.5078 6.1328-0.5625 7.6836 2.125 0.019531 0.023438 0.039062 0.050782 0.050781 0.078126 1.5078 2.7109 0.55859 6.1328-2.1289 7.6836l0.007812 0.007813-27.789 16.035c-0.027344 0.015625-0.054688 0.03125-0.082031 0.042969-4.4102 2.5273-6.6719 1.707-8.0391 1.2227-0.15234-0.058594-0.30078-0.10547-0.32031-0.11328l-14.465-4.4531-1.7305 1 1.6211 2.8086h0.003906c0.16797 0.28906 0.21484 0.63672 0.12891 0.96094-0.089844 0.32422-0.30078 0.60156-0.59375 0.76953l-7.6055 4.3945c-0.28906 0.16797-0.63672 0.21484-0.96094 0.125-0.32422-0.085937-0.60156-0.30078-0.76562-0.58984l-12.926-22.387c-0.16797-0.28906-0.21484-0.63281-0.12891-0.96094 0.089843-0.32422 0.30078-0.59766 0.59375-0.76562l7.6055-4.3984c0.28906-0.16797 0.63672-0.21094 0.96094-0.125 0.32422 0.085938 0.60156 0.30078 0.76562 0.58984zm10.098 22.551-11.652-20.188-5.4102 3.125 11.652 20.188zm27.684-14.871"/>
<text x="0.0" y="117.5" font-size="5.0" font-weight="bold" font-family="Arbeit Regular, Helvetica, Arial-Unicode, Arial, Sans-serif" fill="#000000">Created by feri ulan taufiq</text><text x="0.0" y="122.5" font-size="5.0" font-weight="bold" font-family="Arbeit Regular, Helvetica, Arial-Unicode, Arial, Sans-serif" fill="#000000">from Noun Project</text></svg>