<svg xmlns="http://www.w3.org/2000/svg" xmlns:xlink="http://www.w3.org/1999/xlink" version="1.1" x="0px" y="0px" viewBox="0 0 100 125" enable-background="new 0 0 100 100" xml:space="preserve"><g><path d="M35.407,15.196c-0.506,0.084-0.815,0.759-0.563,1.209l2.924,5.088c0.169,0.394,0.731,0.563,1.125,0.337   c0.394-0.225,0.506-0.787,0.253-1.153l-2.953-5.088C36.053,15.336,35.716,15.167,35.407,15.196L35.407,15.196z M64.342,15.196   c-0.254,0.056-0.45,0.197-0.563,0.394l-2.925,5.088c-0.253,0.366-0.141,0.928,0.253,1.153c0.366,0.225,0.929,0.056,1.125-0.337   l2.952-5.088c0.281-0.506-0.196-1.265-0.787-1.209C64.369,15.196,64.342,15.196,64.342,15.196L64.342,15.196z M50,21.325   c-10.517,0-19.065,8.659-19.065,19.286c0,6.27,1.828,9.447,3.515,12.231c1.687,2.783,3.234,5.173,3.234,10.655c0,0,0,0.027,0,0.056   c0,0.057,0.028,0.112,0.028,0.141c0,0.057,0.028,0.084,0.028,0.112l2.953,15.407c0.253,1.321,1.546,2.137,2.924,2.137h0.253v0.422   c0,1.603,1.097,3.036,2.643,3.036h6.945c1.547,0,2.672-1.434,2.672-3.036V81.35h0.225c1.378,0,2.672-0.815,2.952-2.137   l2.953-15.436l0.028-0.084l0,0c0.027-0.112,0.027-0.196,0-0.281c0-0.028,0-0.056,0-0.112c0.056-5.313,1.603-7.703,3.262-10.458   c1.687-2.784,3.486-5.961,3.486-12.231C69.037,29.984,60.518,21.325,50,21.325L50,21.325z M50,22.927   c9.645,0,17.462,7.928,17.462,17.684c0,5.989-1.575,8.603-3.262,11.387c-1.604,2.643-3.262,5.51-3.431,10.739h-7.564h-6.383h-7.592   c-0.169-5.229-1.828-8.097-3.431-10.739c-1.687-2.784-3.262-5.398-3.262-11.387C32.539,30.855,40.355,22.927,50,22.927L50,22.927z    M24.806,25.795c-0.675,0.084-0.872,1.181-0.281,1.49l5.09,2.952c0.365,0.197,0.872,0.056,1.097-0.309   c0.197-0.366,0.056-0.872-0.31-1.097l-5.089-2.924c-0.113-0.084-0.281-0.112-0.45-0.112C24.862,25.795,24.834,25.795,24.806,25.795   L24.806,25.795z M75.026,25.795c-0.141,0-0.253,0.056-0.365,0.112L69.6,28.831c-0.365,0.225-0.506,0.731-0.31,1.097   c0.197,0.365,0.731,0.506,1.097,0.309l5.09-2.952c0.31-0.168,0.479-0.59,0.365-0.928C75.729,26.02,75.364,25.767,75.026,25.795   L75.026,25.795z M20.981,40.274c-0.422,0.028-0.787,0.421-0.759,0.843c0.028,0.394,0.422,0.759,0.844,0.731h5.849   c0.422,0.028,0.788-0.366,0.788-0.787c0-0.422-0.366-0.787-0.788-0.787h-5.849C21.038,40.274,21.01,40.274,20.981,40.274   L20.981,40.274z M73.002,40.274c-0.422,0.028-0.759,0.421-0.759,0.843c0.028,0.394,0.422,0.759,0.844,0.731h5.877   c0.422,0.028,0.815-0.366,0.815-0.787c0-0.422-0.394-0.787-0.815-0.787h-5.877C73.059,40.274,73.03,40.274,73.002,40.274   L73.002,40.274z M39.456,64.34h21.117l-2.84,14.535c-0.057,0.31-0.675,0.872-1.378,0.872h-0.899h-0.141h-8.492h-2.306h-0.9   c-0.675,0-1.293-0.563-1.35-0.872l-0.703-3.654h10.32c0.422,0,0.787-0.394,0.787-0.815c0-0.394-0.365-0.787-0.787-0.787H41.228   l-0.844-4.414H54.05c0.394,0,0.787-0.365,0.787-0.787s-0.394-0.787-0.787-0.787H40.103L39.456,64.34L39.456,64.34z M45.445,81.35   h1.378h7.704v0.422c0,0.899-0.562,1.462-1.068,1.462h-6.945c-0.506,0-1.068-0.563-1.068-1.462V81.35L45.445,81.35z"/></g><text x="0" y="115" fill="#000000" font-size="5px" font-weight="bold" font-family="'Helvetica Neue', Helvetica, Arial-Unicode, Arial, Sans-serif">Created by artworkbean</text><text x="0" y="120" fill="#000000" font-size="5px" font-weight="bold" font-family="'Helvetica Neue', Helvetica, Arial-Unicode, Arial, Sans-serif">from the Noun Project</text></svg>