<svg xmlns="http://www.w3.org/2000/svg" xmlns:xlink="http://www.w3.org/1999/xlink" version="1.1" x="0px" y="0px" viewBox="0 0 512 640" enable-background="new 0 0 512 512" xml:space="preserve"><g><g><g><path d="M260,446c-102.561,0-186-83.439-186-186S157.439,74,260,74s186,83.439,186,186S362.561,446,260,446z M260,86     c-95.944,0-174,78.056-174,174c0,95.944,78.056,174,174,174c95.944,0,174-78.056,174-174C434,164.056,355.944,86,260,86z"/></g><g><path d="M260,386c-69.477,0-126-56.523-126-126c0-3.313,2.686-6,6-6s6,2.687,6,6c0,62.859,51.14,114,114,114     c45.32,0,86.34-26.837,104.503-68.37c1.328-3.035,4.862-4.422,7.901-3.093c3.036,1.327,4.421,4.865,3.093,7.901     C355.424,356.34,310.089,386,260,386z"/></g><g><path d="M380,266c-3.313,0-6-2.687-6-6c0-62.86-51.141-114-114-114c-44.434,0-85.125,26.104-103.666,66.503     c-1.382,3.012-4.944,4.332-7.956,2.95c-3.011-1.382-4.333-4.944-2.95-7.956C165.919,162.85,210.892,134,260,134     c69.477,0,126,56.523,126,126C386,263.313,383.313,266,380,266z"/></g><g><path d="M260,336c-41.907,0-76-34.094-76-76c0-41.907,34.093-76,76-76c41.906,0,76,34.093,76,76C336,301.906,301.906,336,260,336     z M260,196c-35.29,0-64,28.71-64,64c0,35.29,28.71,64,64,64c35.29,0,64-28.71,64-64C324,224.71,295.29,196,260,196z"/></g><g><path d="M260,246c-3.313,0-6-2.687-6-6V30c0-3.313,2.687-6,6-6s6,2.687,6,6v210C266,243.313,263.313,246,260,246z"/></g><g><path d="M260,496c-3.313,0-6-2.687-6-6V290c0-3.313,2.687-6,6-6s6,2.687,6,6v200C266,493.313,263.313,496,260,496z"/></g><g><path d="M490,266H280c-3.313,0-6-2.687-6-6s2.687-6,6-6h210c3.313,0,6,2.687,6,6S493.313,266,490,266z"/></g><g><path d="M230,266H30c-3.313,0-6-2.687-6-6s2.687-6,6-6h200c3.313,0,6,2.687,6,6S233.313,266,230,266z"/></g></g></g><text x="0" y="527" fill="#000000" font-size="5px" font-weight="bold" font-family="'Helvetica Neue', Helvetica, Arial-Unicode, Arial, Sans-serif">Created by Flatart</text><text x="0" y="532" fill="#000000" font-size="5px" font-weight="bold" font-family="'Helvetica Neue', Helvetica, Arial-Unicode, Arial, Sans-serif">from the Noun Project</text></svg>