<svg xmlns="http://www.w3.org/2000/svg" xmlns:xlink="http://www.w3.org/1999/xlink" version="1.1" x="0px" y="0px" viewBox="0 0 60 72.5" style="enable-background:new 0 0 60 58;" xml:space="preserve"><g><path d="M59,38H1c-0.552,0-1-0.448-1-1V4.001C0,1.795,1.795,0,4.001,0h51.998C58.205,0,60,1.795,60,4.001V37   C60,37.552,59.552,38,59,38z M2,36h56V4.001C58,2.897,57.102,2,55.999,2H4.001C2.898,2,2,2.897,2,4.001V36z"/><path d="M55.999,46H4.001C1.795,46,0,44.205,0,41.999V37c0-0.552,0.448-1,1-1h58c0.552,0,1,0.448,1,1v4.999   C60,44.205,58.205,46,55.999,46z M2,38v3.999C2,43.103,2.898,44,4.001,44h51.998C57.102,44,58,43.103,58,41.999V38H2z"/><path d="M33,42h-6c-0.552,0-1-0.448-1-1s0.448-1,1-1h6c0.552,0,1,0.448,1,1S33.552,42,33,42z"/><path d="M55,38H5c-0.552,0-1-0.448-1-1V5c0-0.552,0.448-1,1-1h50c0.552,0,1,0.448,1,1v32C56,37.552,55.552,38,55,38z M6,36h48V6H6   V36z"/><path d="M43,58H17c-1.654,0-3-1.346-3-3s1.346-3,3-3h26c1.654,0,3,1.346,3,3S44.654,58,43,58z M17,54c-0.552,0-1,0.449-1,1   s0.448,1,1,1h26c0.552,0,1-0.449,1-1s-0.448-1-1-1H17z"/><path d="M41,54H19c-0.552,0-1-0.448-1-1s0.448-1,1-1c3.318,0,5-2.355,5-7c0-0.552,0.448-1,1-1h10c0.552,0,1,0.448,1,1   c0,4.645,1.682,7,5,7c0.552,0,1,0.448,1,1S41.552,54,41,54z M23.871,52h12.259c-1.232-1.364-1.957-3.395-2.102-6h-8.055   C25.827,48.605,25.102,50.636,23.871,52z"/><path d="M44.249,34c-0.265,0-0.52-0.105-0.707-0.293l-2.414-2.415l-1.414,1.415c-0.249,0.249-0.612,0.347-0.952,0.263   c-0.341-0.086-0.612-0.345-0.713-0.683l-3-10c-0.106-0.352-0.01-0.734,0.251-0.994c0.26-0.26,0.641-0.357,0.994-0.251l10,3   c0.337,0.102,0.596,0.372,0.682,0.713c0.086,0.341-0.014,0.703-0.263,0.952L45.37,27.05l2.414,2.414   c0.391,0.391,0.391,1.023,0,1.414l-2.828,2.829C44.769,33.895,44.514,34,44.249,34z M41.128,29.005   c0.334,0,0.668,0.127,0.923,0.382l2.198,2.199l1.414-1.415l-2.32-2.32c-0.214-0.212-0.332-0.498-0.332-0.801   c0-0.302,0.117-0.586,0.33-0.8l0.774-0.774l-6.617-1.985l1.985,6.617l0.722-0.722C40.459,29.133,40.793,29.005,41.128,29.005z"/><path d="M42,15H14c-0.552,0-1-0.448-1-1V9c0-0.552,0.448-1,1-1h28c0.552,0,1,0.448,1,1v5C43,14.552,42.552,15,42,15z M15,13h26v-3   H15V13z"/><path d="M26,25h-8c-0.552,0-1-0.448-1-1v-4c0-0.552,0.448-1,1-1h8c0.552,0,1,0.448,1,1v4C27,24.552,26.552,25,26,25z M19,23h6v-2   h-6V23z"/><path d="M37.806,29H14c-0.552,0-1-0.448-1-1V9c0-0.552,0.448-1,1-1h28c0.552,0,1,0.448,1,1v14.798c0,0.316-0.149,0.614-0.403,0.802   c-0.253,0.189-0.581,0.247-0.884,0.156l-4.215-1.265l1.266,4.221c0.091,0.303,0.033,0.631-0.156,0.885   C38.42,28.851,38.123,29,37.806,29z M15,27h21.462l-1.414-4.712c-0.106-0.353-0.01-0.734,0.251-0.995   c0.26-0.26,0.641-0.357,0.994-0.251L41,22.454V10H15V27z"/></g><text x="0" y="73" fill="#000000" font-size="5px" font-weight="bold" font-family="'Helvetica Neue', Helvetica, Arial-Unicode, Arial, Sans-serif">Created by Prettycons</text><text x="0" y="78" fill="#000000" font-size="5px" font-weight="bold" font-family="'Helvetica Neue', Helvetica, Arial-Unicode, Arial, Sans-serif">from the Noun Project</text></svg>