<svg xmlns="http://www.w3.org/2000/svg" viewBox="0 0 255.12 261.8" x="0px" y="0px"><title>Asset 29</title><g data-name="Layer 2"><g data-name="target goal define focus prize"><path d="M91,143.16a24.68,24.68,0,1,1,24.68-24.67A24.7,24.7,0,0,1,91,143.16ZM91,99a19.51,19.51,0,1,0,19.52,19.51A19.54,19.54,0,0,0,91,99Z"/><path d="M91,156.42a37.93,37.93,0,1,1,37.94-37.93A38,38,0,0,1,91,156.42Zm0-70.7a32.77,32.77,0,1,0,32.77,32.77A32.8,32.8,0,0,0,91,85.72Z"/><path d="M91,174.09a55.6,55.6,0,1,1,39.32-16.28A55.23,55.23,0,0,1,91,174.09Zm0-106a50.44,50.44,0,1,0,50.45,50.44A50.49,50.49,0,0,0,91,68.05Z"/><path d="M91,191.77a73.29,73.29,0,1,1,51.82-21.46A72.79,72.79,0,0,1,91,191.77Zm0-141.4a68.11,68.11,0,1,0,48.17,19.95A67.68,67.68,0,0,0,91,50.37Z"/><path d="M91,209.44a90.69,90.69,0,1,1,35.41-7.15A90.3,90.3,0,0,1,91,209.44ZM91,32.7a85.78,85.78,0,1,0,60.67,25.12A85.23,85.23,0,0,0,91,32.7Z"/><path d="M91,121.07a2.58,2.58,0,0,1-1.41-4.75L207.1,39.89a2.58,2.58,0,1,1,2.81,4.32L92.36,120.65A2.49,2.49,0,0,1,91,121.07Z"/><polygon points="205.36 41.05 204.03 16.01 208.95 12.81 210.28 37.85 215.21 34.64 213.88 9.61 218.81 6.4 220.13 31.44 225.06 28.24 223.73 3.2 228.66 0 229.98 25.04 235.02 21.76 237.81 26.05 232.77 29.33 255.12 40.69 250.19 43.9 227.84 32.53 222.92 35.73 245.27 47.1 240.34 50.3 218 38.94 213.07 42.14 235.42 53.51 230.49 56.71 208.15 45.34 205.36 41.05"/></g></g><text x="0" y="224.44" fill="#000000" font-size="5px" font-weight="bold" font-family="'Helvetica Neue', Helvetica, Arial-Unicode, Arial, Sans-serif">Created by ochre7</text><text x="0" y="229.44" fill="#000000" font-size="5px" font-weight="bold" font-family="'Helvetica Neue', Helvetica, Arial-Unicode, Arial, Sans-serif">from the Noun Project</text></svg>