<svg xmlns="http://www.w3.org/2000/svg" viewBox="0 0 64 80" x="0px" y="0px"><g><g data-name="Outline"><path d="M32,9a1,1,0,0,0,1-1V3a1,1,0,0,0-2,0V8A1,1,0,0,0,32,9Z"/><path d="M17.151,14.565a1,1,0,1,0,1.414-1.414L15.029,9.615a1,1,0,1,0-1.414,1.414Z"/><path d="M7,29h5a1,1,0,0,0,0-2H7a1,1,0,1,0,0,2Z"/><path d="M14.322,46.677a1,1,0,0,0,.707-.293l3.536-3.536a1,1,0,0,0-1.414-1.414L13.615,44.97a1,1,0,0,0,.707,1.707Z"/><path d="M49.678,46.677a1,1,0,0,0,.707-1.707l-3.536-3.536a1,1,0,1,0-1.414,1.414l3.536,3.536A1,1,0,0,0,49.678,46.677Z"/><path d="M52,29h5a1,1,0,0,0,0-2H52a1,1,0,1,0,0,2Z"/><path d="M46.142,14.858a1,1,0,0,0,.707-.293l3.536-3.536a1,1,0,1,0-1.414-1.414l-3.536,3.536a1,1,0,0,0,.707,1.707Z"/><path d="M25.175,43.6,24.6,47.088a1,1,0,0,0,.987,1.162h.167l.234,2.27h-.4a1,1,0,0,0-1,1V55.8a1,1,0,0,0,1,1h1.047l.093.915a4.166,4.166,0,0,0,1.617,3.179A5.759,5.759,0,0,0,32,62.14c2.884,0,5.234-1.98,5.27-4.425l.093-.915H38.41a1,1,0,0,0,1-1V51.52a1,1,0,0,0-1-1h-.4l.234-2.27h.167a1,1,0,0,0,.987-1.162L38.825,43.6a17.02,17.02,0,1,0-13.65,0ZM37.41,52.52V54.8H26.59V52.52Zm-2.136,5.038c0,.034,0,.068,0,.1,0,1.368-1.467,2.48-3.27,2.48a3.813,3.813,0,0,1-2.387-.794,2.2,2.2,0,0,1-.883-1.686c0-.034,0-.068,0-.1l-.079-.758h6.706ZM36,50.52H28l-.233-2.27h8.462ZM29,32H27a2,2,0,1,1,2-2Zm3-19a15.015,15.015,0,0,1,5.353,29.046,1,1,0,0,0-.63,1.1l.509,3.108H35V43a1,1,0,0,0-2,0v3.25H31V34h2v1a1,1,0,0,0,2,0V34h2a4,4,0,1,0-4-4v2H31V30a4,4,0,1,0-4,4h2V46.25H26.768l.509-3.108a1,1,0,0,0-.63-1.1A15.015,15.015,0,0,1,32,13Zm3,19V30a2,2,0,1,1,2,2Z"/><path d="M32,17A11.035,11.035,0,0,1,43.022,28.022a1,1,0,0,0,2,0A13.037,13.037,0,0,0,32,15a1,1,0,0,0,0,2Z"/><circle cx="28" cy="17" r="1"/><circle cx="34" cy="39" r="1"/></g></g><text x="0" y="79" fill="#000000" font-size="5px" font-weight="bold" font-family="'Helvetica Neue', Helvetica, Arial-Unicode, Arial, Sans-serif">Created by Flowicon</text><text x="0" y="84" fill="#000000" font-size="5px" font-weight="bold" font-family="'Helvetica Neue', Helvetica, Arial-Unicode, Arial, Sans-serif">from the Noun Project</text></svg>