<svg xmlns="http://www.w3.org/2000/svg" data-name="Layer 1" viewBox="0 0 100 125" x="0px" y="0px"><title>a</title><path d="M40.137,39.621a1.2,1.2,0,0,1-1.392.136l-3.322-1.921a3.258,3.258,0,0,0-4.433,1.188l-.941,1.63a3.259,3.259,0,0,0,1.188,4.433l3.24,1.872a1.2,1.2,0,0,1,.665,1.31,15.634,15.634,0,0,0,0,6.043,1.2,1.2,0,0,1-.665,1.314L31.3,57.459a3.255,3.255,0,0,0-1.251,4.467l.941,1.63a3.249,3.249,0,0,0,4.428,1.188l3.327-1.92a1.2,1.2,0,0,1,1.392.135,15.5,15.5,0,0,0,2.469,1.771,15.312,15.312,0,0,0,2.687,1.227,1.193,1.193,0,0,1,.883,1.154v3.841a3.246,3.246,0,0,0,3.24,3.24H51.3a3.249,3.249,0,0,0,3.24-3.24V67.111a1.193,1.193,0,0,1,.883-1.154,15.481,15.481,0,0,0,2.687-1.227,15.727,15.727,0,0,0,2.469-1.771,1.194,1.194,0,0,1,1.387-.135l3.327,1.925a3.26,3.26,0,0,0,4.433-1.193l.941-1.63A3.259,3.259,0,0,0,69.476,57.5l-3.24-1.872a1.2,1.2,0,0,1-.665-1.314,15.634,15.634,0,0,0,0-6.043,1.19,1.19,0,0,1,.636-1.3c1.037-.563,2.269-1.339,3.332-1.926A3.272,3.272,0,0,0,70.7,40.717l-.975-1.693a3.26,3.26,0,0,0-4.433-1.188l-3.284,1.892a1.191,1.191,0,0,1-1.43-.107,15.763,15.763,0,0,0-2.469-1.766,15.481,15.481,0,0,0-2.687-1.227,1.2,1.2,0,0,1-.883-1.154V31.633a3.25,3.25,0,0,0-3.24-3.245H49.416a3.25,3.25,0,0,0-3.24,3.245v3.841a1.2,1.2,0,0,1-.883,1.154,15.578,15.578,0,0,0-5.156,2.993ZM8.859,44.287l-3.55,7.095H7.491A42.878,42.878,0,0,0,61.517,92.69c1.207-.324,2.391-.7,3.569-1.13a1.371,1.371,0,0,0,.33-2.4,1.356,1.356,0,0,0-1.271-.174A40.129,40.129,0,0,1,10.227,51.382h2.182Zm83,14.007L95.4,51.2H93.222A42.851,42.851,0,0,0,32.431,12.344a1.368,1.368,0,0,0,1.149,2.483A40.133,40.133,0,0,1,90.481,51.2H88.3Zm-9.6,2.691a7.14,7.14,0,1,1-7.14,7.14,7.14,7.14,0,0,1,7.14-7.14Zm3.356,3.784a4.745,4.745,0,1,0,0,6.712,4.75,4.75,0,0,0,0-6.712ZM70.271,88.238V86.123A10.529,10.529,0,0,1,72.614,79.4a7.644,7.644,0,0,1,5.868-2.91h7.542a7.648,7.648,0,0,1,5.869,2.91,10.531,10.531,0,0,1,2.337,6.722v2.115a3.629,3.629,0,0,1-.848,2.377C90.447,94.058,86.514,95,82.251,95s-8.2-.941-11.131-4.384a3.624,3.624,0,0,1-.849-2.377Zm2.4-2.115v2.115a1.183,1.183,0,0,0,.271.825c2.435,2.861,5.733,3.54,9.313,3.54s6.877-.679,9.317-3.54a1.2,1.2,0,0,0,.271-.825V86.123a8.138,8.138,0,0,0-1.78-5.194,5.287,5.287,0,0,0-4.035-2.047H78.482a5.28,5.28,0,0,0-4.035,2.047,8.11,8.11,0,0,0-1.78,5.194ZM16.58,5A7.14,7.14,0,1,1,9.441,12.14,7.139,7.139,0,0,1,16.58,5Zm3.357,3.783a4.745,4.745,0,1,0,0,6.712,4.75,4.75,0,0,0,0-6.712ZM4.6,32.254V30.139a10.541,10.541,0,0,1,2.342-6.722,7.645,7.645,0,0,1,5.869-2.91h7.542a7.641,7.641,0,0,1,5.868,2.91,10.536,10.536,0,0,1,2.343,6.722v2.115a3.617,3.617,0,0,1-.854,2.376c-2.934,3.444-6.867,4.385-11.131,4.385S8.389,38.074,5.45,34.63A3.612,3.612,0,0,1,4.6,32.254ZM7,30.139v2.115a1.182,1.182,0,0,0,.271.824C9.7,35.94,13,36.619,16.58,36.619s6.878-.679,9.317-3.541a1.2,1.2,0,0,0,.272-.824V30.139a8.143,8.143,0,0,0-1.78-5.195A5.282,5.282,0,0,0,20.354,22.9H12.812a5.273,5.273,0,0,0-4.035,2.041A8.115,8.115,0,0,0,7,30.139ZM50.356,41.391a9.9,9.9,0,1,1-9.9,9.9,9.9,9.9,0,0,1,9.9-9.9Zm5.306,4.593a7.5,7.5,0,1,0,0,10.612,7.506,7.506,0,0,0,0-10.612Zm-23.013,7.94a18.087,18.087,0,0,1,0-5.267l-2.61-1.5a5.637,5.637,0,0,1-2.056-7.692l.941-1.635a5.637,5.637,0,0,1,7.692-2.056l2.61,1.5A17.844,17.844,0,0,1,43.78,34.64V31.633A5.641,5.641,0,0,1,49.416,26H51.3a5.644,5.644,0,0,1,5.636,5.636V34.64a17.844,17.844,0,0,1,4.554,2.633l2.6-1.5a5.639,5.639,0,0,1,7.731,2.124l.907,1.567a5.633,5.633,0,0,1-2.057,7.692l-2.609,1.508a18.06,18.06,0,0,1,0,5.263l2.605,1.5a5.637,5.637,0,0,1,2.022,7.756l-.9,1.571A5.633,5.633,0,0,1,64.1,66.81l-2.61-1.5a17.8,17.8,0,0,1-4.554,2.638v3.007A5.647,5.647,0,0,1,51.3,76.588H49.416a5.644,5.644,0,0,1-5.636-5.636V67.945a17.715,17.715,0,0,1-4.554-2.638l-2.61,1.508a5.637,5.637,0,0,1-7.692-2.061l-.985-1.707a5.634,5.634,0,0,1,2.168-7.654Z"/><text x="0" y="115" fill="#000000" font-size="5px" font-weight="bold" font-family="'Helvetica Neue', Helvetica, Arial-Unicode, Arial, Sans-serif">Created by HRF07</text><text x="0" y="120" fill="#000000" font-size="5px" font-weight="bold" font-family="'Helvetica Neue', Helvetica, Arial-Unicode, Arial, Sans-serif">from the Noun Project</text></svg>