<svg xmlns="http://www.w3.org/2000/svg" xmlns:xlink="http://www.w3.org/1999/xlink" version="1.1" x="0px" y="0px" viewBox="0 0 164 205" enable-background="new 0 0 164 164" xml:space="preserve"><g><g><path d="M139.9,25.8V17c0-0.5-0.4-1-1-1h-10.7c-13.3-9.1-28.9-14-45.1-14c-29.4,0-56.3,16-70.3,41.8H2c-0.5,0-1,0.4-1,1v9.8    c0,0.5,0.4,1,1,1h5.6C4.6,64.1,3.1,73,3.1,82c0,5.3,0.5,10.6,1.6,15.8l-2.1,0.5c-0.4,0.1-0.8,0.5-0.8,1v10.5c0,0.5,0.3,0.9,0.8,1    l6.4,1.5c0.9,2.1,1.8,4.2,2.9,6.3l-3.7,5.9c-0.2,0.4-0.2,0.9,0.1,1.2l7.4,7.4c0.3,0.3,0.8,0.4,1.2,0.1l3-1.9    c15.3,19.6,38.2,30.8,63,30.8c44.2,0,79.9-36,79.9-79.9C163,60.8,154.8,40.9,139.9,25.8z M137.9,18c0,10.2,0,69.9,0,85.5H84.6V18    H137.9z M50.9,137.5h-7.6l1.5-6.6c1-0.3,2-0.7,3-1.1v1.1C47.8,133.5,49,135.9,50.9,137.5z M47.8,111.1c-2.3,3.8-6.5,6.2-11,6.2    c-7.1,0-12.8-5.8-12.8-12.8c0-7.1,5.8-12.8,12.8-12.8c4.5,0,8.7,2.4,11,6.2V111.1z M49.8,130.9V55.7h4.1v65.5c0,0.5,0.4,1,1,1    h56.5c0.5,0,1-0.4,1-1v-15.7h4.1v25.4c0,3.6-3,6.6-6.6,6.6H56.3C52.7,137.5,49.8,134.5,49.8,130.9z M68.9,43.9H55.8v-5.2h26.8    v65.8c0,0.5,0.4,1,1,1h26.6v14.7H55.8V55.7h13.1c0.5,0,1-0.4,1-1v-9.8C69.9,44.3,69.4,43.9,68.9,43.9z M82.7,32.6h-8    c-0.5,0-1,0.4-1,1c0,0.5,0.4,1,1,1h8v2.2H54.8c-1.7,0-0.7,2.5-1,7.2h-4.1v-8.7c0-3.6,3-6.6,6.6-6.6h26.3V32.6z M67.9,45.9v7.8h-51    v-7.8C39.8,45.9,57.9,45.9,67.9,45.9z M83.1,4c14.8,0,29.1,4.1,41.6,12h-41c-0.5,0-1,0.4-1,1v9.7H56.3c-4.7,0-8.6,3.8-8.6,8.6v8.7    c-8.8,0-25.3,0-32.7,0C28.8,19.3,54.8,4,83.1,4z M3,53.7v-7.8h10.4c0,0,0,0,0,0c0,0,0,0,0,0H15v7.8H3z M9.7,55.7    c13.6,0,23.7,0,38.1,0v23.5c-1-0.4-2-0.8-3-1.1L43,70.3c-0.1-0.4-0.5-0.8-1-0.8H31.5c-0.5,0-0.9,0.3-1,0.8l-1.8,7.8    c-1.8,0.6-3.5,1.3-5.1,2.1L17,75.9c-0.4-0.2-0.9-0.2-1.2,0.1l-7.4,7.4C8,83.8,8,84.3,8.2,84.7l4.2,6.8c-0.9,1.6-1.6,3.3-2.1,5.1    l-3.7,0.9c-1-5-1.5-10.2-1.5-15.4C5.1,73,6.6,64.1,9.7,55.7z M16.6,131l-6.3-6.3l4.1-6.6c0.2-0.3,0.2-0.7,0-1    c-1-1.8-1.8-3.7-2.4-5.7c-0.1-0.3-0.4-0.6-0.7-0.7L3.8,109V100l7.6-1.7c0.4-0.1,0.6-0.3,0.7-0.7c0.6-2,1.4-3.9,2.4-5.7    c0.2-0.3,0.2-0.7,0-1l-4.1-6.6l6.3-6.3l6.6,4.1c0.3,0.2,0.7,0.2,1,0c1.7-1,3.6-1.8,5.7-2.4c0.3-0.1,0.6-0.4,0.7-0.7l1.7-7.6h8.9    l1.7,7.6c0.1,0.4,0.3,0.6,0.7,0.7c1.5,0.4,2.8,0.9,4.1,1.6v13.2c-2.8-3.1-6.8-4.9-11-4.9c-8.2,0-14.8,6.6-14.8,14.8    s6.6,14.8,14.8,14.8c4.2,0,8.2-1.8,11-4.9v13.2c-1.4,0.6-2.7,1.2-4.1,1.6c-0.3,0.1-0.6,0.4-0.7,0.7l-1.7,7.6h-8.9l-1.7-7.6    c-0.1-0.4-0.3-0.6-0.7-0.7c-2-0.6-3.9-1.4-5.7-2.4c-0.3-0.2-0.7-0.2-1,0L16.6,131z M28.3,137.5c-2.3-2.3-4.5-4.8-6.6-7.4l2-1.3    c1.6,0.9,3.3,1.6,5.1,2.1l1.5,6.6H28.3z M83.1,160c-19.9,0-38.5-7.3-52.7-20.5h105.4C121.8,152.2,103.3,160,83.1,160z     M137.8,137.5h-22.5c1.9-1.6,3.1-3.9,3.1-6.6v-25.4h20.6c0.5,0,1-0.4,1-1V28.7C153.5,43.2,161,62,161,82    C161,103.7,152.1,123.3,137.8,137.5z"/></g><g><path d="M55.9,146.4h23.9c0.5,0,1-0.4,1-1c0-0.5-0.4-1-1-1H55.9c-0.5,0-1,0.4-1,1C54.9,146,55.3,146.4,55.9,146.4z"/></g><g><path d="M83.6,146.4h3.9c0.5,0,1-0.4,1-1c0-0.5-0.4-1-1-1h-3.9c-0.5,0-1,0.4-1,1C82.6,146,83.1,146.4,83.6,146.4z"/></g><g><path d="M90.9,146.4h2.6c0.5,0,1-0.4,1-1c0-0.5-0.4-1-1-1h-2.6c-0.5,0-1,0.4-1,1C89.9,146,90.4,146.4,90.9,146.4z"/></g><g><path d="M85.3,150.3c0,0.5,0.4,1,1,1h23.9c0.5,0,1-0.4,1-1c0-0.5-0.4-1-1-1H86.3C85.8,149.3,85.3,149.7,85.3,150.3z"/></g><g><path d="M77.6,150.3c0,0.5,0.4,1,1,1h3.9c0.5,0,1-0.4,1-1c0-0.5-0.4-1-1-1h-3.9C78,149.3,77.6,149.7,77.6,150.3z"/></g><g><path d="M75.2,149.3h-2.6c-0.5,0-1,0.4-1,1c0,0.5,0.4,1,1,1h2.6c0.5,0,1-0.4,1-1C76.2,149.7,75.7,149.3,75.2,149.3z"/></g><g><path d="M83.1,135c3.2,0,5.8-2.6,5.8-5.8c0-3.2-2.6-5.8-5.8-5.8c-3.2,0-5.8,2.6-5.8,5.8C77.3,132.4,79.9,135,83.1,135z     M83.1,125.4c2.1,0,3.8,1.7,3.8,3.8s-1.7,3.8-3.8,3.8s-3.8-1.7-3.8-3.8S81,125.4,83.1,125.4z"/></g><g><path d="M111.3,42.6c4.3,0,7.8-3.5,7.8-7.8c0-4.3-3.5-7.8-7.8-7.8c-4.3,0-7.8,3.5-7.8,7.8C103.5,39.1,107,42.6,111.3,42.6z     M111.3,29.1c3.2,0,5.8,2.6,5.8,5.8c0,3.2-2.6,5.8-5.8,5.8c-3.2,0-5.8-2.6-5.8-5.8C105.5,31.7,108.1,29.1,111.3,29.1z"/></g><g><path d="M99.2,57.3h24.2c0.5,0,1-0.4,1-1c0-7.2-5.9-13.1-13.1-13.1s-13.1,5.9-13.1,13.1C98.2,56.8,98.6,57.3,99.2,57.3z     M111.3,45.2c5.8,0,10.6,4.5,11.1,10.1h-22.2C100.7,49.6,105.5,45.2,111.3,45.2z"/></g><g><path d="M93.7,72.2h35.1c2.1,0,3.7-1.7,3.7-3.7c0-2.1-1.7-3.7-3.7-3.7H93.7c-2.1,0-3.7,1.7-3.7,3.7C90,70.5,91.7,72.2,93.7,72.2z     M93.7,66.7h35.1c1,0,1.8,0.8,1.8,1.8c0,1-0.8,1.8-1.8,1.8H93.7c-1,0-1.8-0.8-1.8-1.8C92,67.5,92.8,66.7,93.7,66.7z"/></g><g><path d="M93.7,82.9h35.1c2.1,0,3.7-1.7,3.7-3.7c0-2.1-1.7-3.7-3.7-3.7H93.7c-2.1,0-3.7,1.7-3.7,3.7C90,81.2,91.7,82.9,93.7,82.9z     M93.7,77.4h35.1c1,0,1.8,0.8,1.8,1.8c0,1-0.8,1.8-1.8,1.8H93.7c-1,0-1.8-0.8-1.8-1.8C92,78.1,92.8,77.4,93.7,77.4z"/></g><g><path d="M116.3,85.8h-10.1c-2.4,0-4.3,1.9-4.3,4.3c0,2.4,1.9,4.3,4.3,4.3h10.1c2.4,0,4.3-1.9,4.3-4.3    C120.6,87.7,118.7,85.8,116.3,85.8z M116.3,92.4h-10.1c-1.3,0-2.3-1-2.3-2.3c0-1.3,1-2.3,2.3-2.3h10.1c1.3,0,2.3,1,2.3,2.3    C118.7,91.4,117.6,92.4,116.3,92.4z"/></g></g><text x="0" y="179" fill="#000000" font-size="5px" font-weight="bold" font-family="'Helvetica Neue', Helvetica, Arial-Unicode, Arial, Sans-serif">Created by Vectors Market</text><text x="0" y="184" fill="#000000" font-size="5px" font-weight="bold" font-family="'Helvetica Neue', Helvetica, Arial-Unicode, Arial, Sans-serif">from the Noun Project</text></svg>