<svg xmlns="http://www.w3.org/2000/svg" xmlns:xlink="http://www.w3.org/1999/xlink" version="1.1" x="0px" y="0px" viewBox="0 0 100 125" style="enable-background:new 0 0 100 100;" xml:space="preserve"><path d="M89.26,87.38h-3.81V44.47c0-1.75-1.42-3.17-3.17-3.17H67.04l-4.66-2.69v-5.03c0-2.37-0.78-4.48-2.32-6.27L59,26.08  c-0.03-0.04-0.06-0.07-0.09-0.1l-4.54-5.29c-1.09-1.27-2.68-2-4.36-2c-1.68,0-3.27,0.73-4.36,2c0,0,0,0,0,0l-4.54,5.28  c-0.03,0.04-0.07,0.07-0.1,0.11l-1.05,1.23c-1.55,1.79-2.33,3.9-2.33,6.27v5.03l-4.66,2.69H17.71c-1.75,0-3.17,1.42-3.17,3.17v32.24  c0,0.86,0.69,1.55,1.55,1.55c0.86,0,1.55-0.69,1.55-1.55V44.47c0-0.03,0.03-0.07,0.07-0.07h12.48v2.32h-7.87  c-1.3,0-2.35,1.06-2.35,2.35V82.7c0,1.3,1.06,2.35,2.35,2.35h55.37c1.3,0,2.35-1.06,2.35-2.35V49.07c0-1.3-1.06-2.35-2.35-2.35  h-7.87V44.4h12.48c0.03,0,0.07,0.04,0.07,0.07v42.91H58.98H41.02H17.64v-6.41c0-0.86-0.69-1.55-1.55-1.55  c-0.86,0-1.55,0.69-1.55,1.55v6.41h-3.81c-1.3,0-2.36,1.06-2.36,2.36v3.7c0,3.34,2.72,6.06,6.06,6.06h71.12  c3.34,0,6.06-2.72,6.06-6.06v-3.7C91.62,88.44,90.57,87.38,89.26,87.38z M66.72,44.69v11.63l-4.34-2.51V42.19L66.72,44.69z   M56.4,65.44H43.61l0.7-4.17h11.38L56.4,65.44z M40.79,58.18c-0.03,0-0.07-0.04-0.07-0.07V33.58c0-1.65,0.5-3,1.58-4.25l0.64-0.75  h14.12l0.64,0.75c1.08,1.25,1.58,2.6,1.58,4.25v24.53c0,0.03-0.03,0.07-0.07,0.07H40.79z M47.99,22.71c0.5-0.59,1.24-0.92,2.01-0.92  c0.77,0,1.51,0.34,2.01,0.92l2.39,2.78h-8.8L47.99,22.71z M37.62,53.81l-4.34,2.51V44.69l4.34-2.5V53.81z M76.95,49.82v32.14H23.06  V49.82h7.13v7.79c0,0.86,0.44,1.62,1.18,2.04c0.37,0.21,0.77,0.32,1.18,0.32c0.41,0,0.81-0.11,1.18-0.32l3.9-2.25v0.72  c0,1.75,1.42,3.17,3.17,3.17h0.38l-0.76,4.53c-0.11,0.69,0.08,1.36,0.53,1.89c0.45,0.54,1.09,0.84,1.8,0.84h14.54  c0.71,0,1.35-0.3,1.8-0.84c0.45-0.53,0.64-1.2,0.52-1.91l-0.76-4.51h0.38c1.75,0,3.17-1.42,3.17-3.17v-0.72l3.91,2.26  c0.37,0.21,0.78,0.32,1.18,0.32c0.4,0,0.81-0.11,1.17-0.32c0.74-0.43,1.18-1.19,1.18-2.04v-7.79H76.95z M57.43,90.47V91  c0,0.29-0.24,0.53-0.53,0.53H43.1c-0.29,0-0.53-0.24-0.53-0.53v-0.53H57.43z M88.53,93.44c0,1.63-1.33,2.96-2.96,2.96H14.44  c-1.64,0-2.97-1.33-2.97-2.96v-2.97h28V91c0,2,1.63,3.63,3.63,3.63h13.81c2,0,3.63-1.63,3.63-3.63v-0.53h28V93.44z M50,32.42  c-3.51,0-6.37,2.86-6.37,6.37c0,3.52,2.86,6.38,6.37,6.38c3.52,0,6.38-2.86,6.38-6.38C56.38,35.28,53.52,32.42,50,32.42z M50,42.07  c-1.81,0-3.27-1.47-3.27-3.28c0-1.81,1.47-3.27,3.27-3.27c1.81,0,3.28,1.47,3.28,3.27C53.28,40.6,51.81,42.07,50,42.07z   M87.79,18.92c0-1.87-1.4-3.45-3.26-3.67c-0.63-0.07-1.15-0.53-1.32-1.14c-0.38-1.43-1.68-2.43-3.16-2.43  c-0.58,0-1.15,0.16-1.65,0.45c-0.36,0.21-0.79,0.27-1.2,0.16c-0.4-0.11-0.75-0.38-0.95-0.75c-0.78-1.44-2.29-2.33-3.93-2.33  c-2.47,0-4.48,2.01-4.48,4.48c0,0.03,0,0.05,0,0.08c0,0.06,0,0.12,0,0.19c0,0.67-0.43,1.26-1.06,1.47  c-0.98,0.32-1.78,1.05-2.21,1.99c-0.36,0.78-1.27,1.12-2.05,0.77c-0.78-0.36-1.12-1.27-0.77-2.05c0.63-1.38,1.7-2.51,3.03-3.21  c0.38-3.82,3.62-6.81,7.54-6.81c2.29,0,4.43,1.03,5.85,2.76c0.61-0.19,1.24-0.28,1.88-0.28c2.55,0,4.82,1.52,5.82,3.79  c2.92,0.79,5.02,3.45,5.02,6.56c0,3.75-3.05,6.8-6.8,6.8H67.94c-2.7,0-5.15-1.6-6.24-4.08c-0.34-0.78,0.01-1.7,0.8-2.04  c0.78-0.34,1.7,0.01,2.04,0.8c0.59,1.35,1.93,2.23,3.4,2.23h16.15C86.13,22.63,87.79,20.97,87.79,18.92z M9.12,15.91  c0,1.68,0.27,3.29,0.77,4.81c0.02,0.1,0.05,0.19,0.09,0.28c2.11,6,7.83,10.32,14.54,10.32c6.71,0,12.43-4.32,14.54-10.33  c0.04-0.09,0.07-0.18,0.09-0.27c0.5-1.51,0.77-3.13,0.77-4.81s-0.27-3.3-0.77-4.81c-0.02-0.09-0.05-0.19-0.09-0.27  C36.96,4.82,31.24,0.5,24.53,0.5c-6.71,0-12.44,4.32-14.54,10.32c-0.04,0.09-0.07,0.18-0.09,0.28C9.39,12.62,9.12,14.23,9.12,15.91z   M36.84,15.91c0,1-0.12,1.97-0.35,2.9h-3.45c0.1-0.95,0.15-1.92,0.15-2.9c0-0.98-0.05-1.95-0.15-2.9h3.45  C36.72,13.94,36.84,14.91,36.84,15.91z M30.09,15.91c0,1.01-0.06,1.98-0.16,2.9h-3.85v-5.8h3.85C30.03,13.93,30.09,14.9,30.09,15.91  z M19.71,21.91h3.28v5.76C21.68,26.74,20.45,24.71,19.71,21.91z M26.08,27.66v-5.76h3.27C28.6,24.7,27.38,26.74,26.08,27.66z   M26.08,9.91V4.15c1.3,0.93,2.53,2.96,3.27,5.76H26.08z M22.98,4.15v5.76h-3.28C20.45,7.11,21.68,5.08,22.98,4.15z M22.98,13.01v5.8  h-3.85c-0.11-0.92-0.16-1.89-0.16-2.9s0.06-1.98,0.16-2.9H22.98z M16.02,18.81h-3.45c-0.23-0.93-0.35-1.9-0.35-2.9  s0.12-1.97,0.35-2.9h3.45c-0.1,0.95-0.15,1.92-0.15,2.9C15.87,16.89,15.92,17.86,16.02,18.81z M13.78,21.91h2.74  c0.38,1.65,0.92,3.18,1.6,4.51c0,0,0,0,0,0C16.32,25.31,14.82,23.76,13.78,21.91z M30.93,26.42C30.93,26.42,30.93,26.42,30.93,26.42  c0.68-1.33,1.22-2.86,1.6-4.51h2.74C34.24,23.76,32.74,25.32,30.93,26.42z M35.27,9.91h-2.74c-0.38-1.65-0.91-3.18-1.6-4.51  c0,0,0,0,0-0.01C32.74,6.5,34.24,8.06,35.27,9.91z M18.12,5.4C18.12,5.4,18.12,5.4,18.12,5.4c-0.68,1.33-1.22,2.86-1.6,4.51h-2.74  C14.82,8.06,16.32,6.5,18.12,5.4z"/><text x="0" y="115" fill="#000000" font-size="5px" font-weight="bold" font-family="'Helvetica Neue', Helvetica, Arial-Unicode, Arial, Sans-serif">Created by Naba A'la</text><text x="0" y="120" fill="#000000" font-size="5px" font-weight="bold" font-family="'Helvetica Neue', Helvetica, Arial-Unicode, Arial, Sans-serif">from the Noun Project</text></svg>