<svg xmlns="http://www.w3.org/2000/svg" xmlns:xlink="http://www.w3.org/1999/xlink" version="1.1" x="0px" y="0px" viewBox="0 0 100 125" enable-background="new 0 0 100 100" xml:space="preserve"><path d="M73,14.013V11c0-0.552-0.447-1-1-1h-4c-0.553,0-1,0.448-1,1v3.013c-5.007,0.261-9,4.417-9,9.487c0,5.238,4.262,9.5,9.5,9.5  h5c1.93,0,3.5,1.57,3.5,3.5S74.43,40,72.5,40h-5c-1.753,0-3.5-1.221-3.5-4c0-0.552-0.447-1-1-1h-4c-0.553,0-1,0.448-1,1  c0,5.964,4.225,9.738,9,9.987V49c0,0.552,0.447,1,1,1h4c0.553,0,1-0.448,1-1v-3.013c5.007-0.261,9-4.417,9-9.487  c0-5.238-4.262-9.5-9.5-9.5h-5c-1.93,0-3.5-1.57-3.5-3.5s1.57-3.5,3.5-3.5h5c1.753,0,3.5,1.221,3.5,4c0,0.552,0.447,1,1,1h4  c0.553,0,1-0.448,1-1C82,18.036,77.775,14.262,73,14.013z M77.978,23c-0.253-2.799-2.613-5-5.478-5h-5c-3.032,0-5.5,2.467-5.5,5.5  s2.468,5.5,5.5,5.5h5c4.136,0,7.5,3.364,7.5,7.5c0,3.83-2.892,7.5-8,7.5c-0.553,0-1,0.448-1,1v3h-2v-3c0-0.552-0.447-1-1-1  c-4.832,0-7.739-3.299-7.983-7h2.006c0.253,2.799,2.613,5,5.478,5h5c3.032,0,5.5-2.467,5.5-5.5S75.532,31,72.5,31h-5  c-4.136,0-7.5-3.364-7.5-7.5c0-3.83,2.892-7.5,8-7.5c0.553,0,1-0.448,1-1v-3h2v3c0,0.552,0.447,1,1,1c4.832,0,7.739,3.299,7.983,7  H77.978z"/><path d="M70,6C57.102,6,46.552,16.229,46.025,29H30c-3.859,0-7,3.14-7,7v16h-4c-7.168,0-13,5.832-13,13v16c0,7.168,5.832,13,13,13  h10c7.168,0,13-5.832,13-13V65c0-7.168-5.832-13-13-13h-4V36c0-2.757,2.243-5,5-5h16.025C46.552,43.771,57.102,54,70,54  c13.233,0,24-10.767,24-24S83.233,6,70,6z M19,54h4v2.142c-1.721,0.447-3,2-3,3.858v4c0,1.858,1.279,3.411,3,3.858V72H8v-7  C8,58.935,12.935,54,19,54z M22,64v-4c0-2.642,4-2.644,4,0v4C26,66.642,22,66.644,22,64z M29,92H19c-6.065,0-11-4.935-11-11v-7h32v7  C40,87.065,35.065,92,29,92z M29,54c6.065,0,11,4.935,11,11v7H25v-4.142c1.721-0.447,3-2,3-3.858v-4c0-1.858-1.279-3.411-3-3.858V54  H29z M70,52c-12.131,0-22-9.869-22-22S57.869,8,70,8s22,9.869,22,22S82.131,52,70,52z"/><text x="0" y="115" fill="#000000" font-size="5px" font-weight="bold" font-family="'Helvetica Neue', Helvetica, Arial-Unicode, Arial, Sans-serif">Created by Ayub Irawan</text><text x="0" y="120" fill="#000000" font-size="5px" font-weight="bold" font-family="'Helvetica Neue', Helvetica, Arial-Unicode, Arial, Sans-serif">from the Noun Project</text></svg>