<svg xmlns="http://www.w3.org/2000/svg" xmlns:xlink="http://www.w3.org/1999/xlink" version="1.1" x="0px" y="0px" viewBox="0 0 64 80" style="enable-background:new 0 0 64 64;" xml:space="preserve"><path d="M59,24h-1V14c0-0.336-0.169-0.65-0.45-0.835c-0.28-0.185-0.635-0.217-0.944-0.084L50,15.912V3c0-0.552-0.448-1-1-1H3  C2.448,2,2,2.448,2,3v58c0,0.552,0.448,1,1,1h39c0.132,0,0.262-0.027,0.383-0.077c0.122-0.051,0.232-0.124,0.324-0.216l6.999-6.999  c0.001-0.001,0.001-0.001,0.001-0.002c0.084-0.084,0.144-0.182,0.193-0.286c0.014-0.03,0.022-0.062,0.033-0.094  c0.03-0.086,0.048-0.173,0.053-0.264C49.989,54.04,50,54.022,50,54V42.088l6.606,2.831C56.732,44.973,56.866,45,57,45  c0.193,0,0.385-0.056,0.55-0.165C57.831,44.65,58,44.336,58,44V34h1c1.654,0,3-1.346,3-3v-4C62,25.346,60.654,24,59,24z M43,58.586  V55h3.586L43,58.586z M48,53h-6c-0.552,0-1,0.448-1,1v6H4V4h44v12.769L35.795,22H26c-0.552,0-1,0.448-1,1v12c0,0.552,0.448,1,1,1v10  c-0.552,0-1,0.448-1,1v10c0,0.552,0.448,1,1,1h12c0.552,0,1-0.448,1-1V47c0-0.552-0.448-1-1-1h-5v-5h3c0.552,0,1-0.448,1-1v-3.484  l11,4.714V53z M27,48h5h5v8H27V48z M28,46V36h3v10H28z M31,27v-3h4v10h-3h-5V24h2v3H31z M33,36h2v3h-2V36z M56,42.483l-6.606-2.831  c0,0,0,0,0,0L37,34.341V23.659l12.394-5.312c0,0,0,0,0,0L56,15.517V25v8V42.483z M60,31c0,0.551-0.449,1-1,1h-1v-6h1  c0.551,0,1,0.449,1,1V31z"/><path d="M26,18h14c0.552,0,1-0.448,1-1V7c0-0.552-0.448-1-1-1H26c-0.552,0-1,0.448-1,1v10C25,17.552,25.448,18,26,18z M27,8h12v8H27  V8z"/><path d="M22,26H8c-0.552,0-1,0.448-1,1v10c0,0.552,0.448,1,1,1h14c0.552,0,1-0.448,1-1V27C23,26.448,22.552,26,22,26z M21,36H9v-8  h12V36z"/><rect x="8" y="7" width="14" height="2"/><rect x="8" y="11" width="14" height="2"/><rect x="8" y="15" width="14" height="2"/><rect x="8" y="19" width="14" height="2"/><rect x="8" y="47" width="14" height="2"/><rect x="8" y="43" width="14" height="2"/><rect x="8" y="51" width="14" height="2"/><rect x="8" y="55" width="14" height="2"/><text x="0" y="79" fill="#000000" font-size="5px" font-weight="bold" font-family="'Helvetica Neue', Helvetica, Arial-Unicode, Arial, Sans-serif">Created by Becris</text><text x="0" y="84" fill="#000000" font-size="5px" font-weight="bold" font-family="'Helvetica Neue', Helvetica, Arial-Unicode, Arial, Sans-serif">from the Noun Project</text></svg>