<svg xmlns="http://www.w3.org/2000/svg" data-name="Layer 1" viewBox="0 0 100 125" x="0px" y="0px"><defs><style>.cls-1{fill-rule:evenodd;}</style></defs><title>a</title><path class="cls-1" d="M66.214,45.413H61.139V48h0a1.2,1.2,0,0,1-.869,1.151,12.352,12.352,0,0,0-2.506,1.025,1.2,1.2,0,0,1-1.508-.151l-1.827-1.827-3.589,3.589,1.827,1.827,0,0a1.2,1.2,0,0,1,.2,1.425,12.407,12.407,0,0,0-1.056,2.537,1.2,1.2,0,0,1-1.165.92H48.059v5.076h2.582a1.2,1.2,0,0,1,1.151.87,12.159,12.159,0,0,0,.46,1.321,12.334,12.334,0,0,0,.565,1.184,1.2,1.2,0,0,1-.151,1.509L50.839,70.28l3.588,3.589,1.828-1.827,0,0a1.192,1.192,0,0,1,1.424-.2A12.384,12.384,0,0,0,60.219,72.9a1.2,1.2,0,0,1,.92,1.165v2.582h5.075V74.067h0a1.2,1.2,0,0,1,.87-1.151,12.311,12.311,0,0,0,2.505-1.025,1.2,1.2,0,0,1,1.509.151l1.827,1.827,3.589-3.589-1.827-1.827,0,0a1.2,1.2,0,0,1-.2-1.425,12.38,12.38,0,0,0,.611-1.267,12.029,12.029,0,0,0,.445-1.27,1.2,1.2,0,0,1,1.166-.92H79.3V58.493H76.713a1.2,1.2,0,0,1-1.151-.87,12.388,12.388,0,0,0-1.026-2.5,1.2,1.2,0,0,1,.152-1.509l1.827-1.827-3.589-3.589L71.1,50.02l0,0a1.2,1.2,0,0,1-1.424.2,12.38,12.38,0,0,0-1.267-.611,12.108,12.108,0,0,0-1.27-.445A1.2,1.2,0,0,1,66.214,48V45.413Zm-5.37-2.395h5.665a2.1,2.1,0,0,1,2.1,2.1v2.006q.359.128.712.274c.234.1.467.2.7.313l1.42-1.42a1.111,1.111,0,0,1,.1-.092,2.094,2.094,0,0,1,1.382-.522v0a2.088,2.088,0,0,1,1.48.61l0,0,0,0L78.417,50.3a2.1,2.1,0,0,1,0,2.97L77,54.687q.166.347.312.7t.275.713H79.59a2.1,2.1,0,0,1,2.1,2.1v5.666a2.1,2.1,0,0,1-2.1,2.1H77.584c-.085.239-.177.477-.274.712s-.2.468-.313.7l1.42,1.419a2.1,2.1,0,0,1,0,2.97l-4.006,4.006a2.094,2.094,0,0,1-1.485.61v0a2.092,2.092,0,0,1-1.485-.614l-1.42-1.419q-.346.166-.7.312c-.236.1-.474.189-.713.275v2.005a2.1,2.1,0,0,1-2.1,2.1H60.844a2.1,2.1,0,0,1-2.1-2.1V74.939c-.239-.086-.477-.177-.713-.275s-.467-.2-.7-.312l-1.42,1.419a2.1,2.1,0,0,1-2.969,0l-4.007-4.006a2.1,2.1,0,0,1-.614-1.485h0a2.1,2.1,0,0,1,.609-1.485l1.42-1.419q-.167-.348-.312-.7c-.1-.236-.189-.474-.275-.713h-2a2.1,2.1,0,0,1-2.1-2.1V58.2a2.1,2.1,0,0,1,2.1-2.1h2c.085-.239.177-.477.275-.712s.2-.468.312-.7l-1.419-1.42c-.032-.032-.061-.065-.089-.1a2.1,2.1,0,0,1,.088-2.871l4.007-4.006a2.089,2.089,0,0,1,1.484-.614v0a2.09,2.09,0,0,1,1.481.61l0,0,0,0,1.42,1.42c.232-.111.465-.216.7-.313s.473-.189.713-.274V45.118a2.1,2.1,0,0,1,2.1-2.1Zm6.323,14.523a4.937,4.937,0,1,1-3.49-1.445,4.92,4.92,0,0,1,3.49,1.445Zm-3.49-3.84a7.33,7.33,0,1,1-5.184,2.147A7.306,7.306,0,0,1,63.677,53.7ZM31.893,61.362H26.817v2.582h0a1.2,1.2,0,0,1-.87,1.151,12.388,12.388,0,0,0-2.5,1.026,1.2,1.2,0,0,1-1.509-.152l-1.827-1.827-3.589,3.589,1.827,1.827,0,0a1.192,1.192,0,0,1,.2,1.424,12.588,12.588,0,0,0-.61,1.267,12.262,12.262,0,0,0-.446,1.27,1.2,1.2,0,0,1-1.165.921H13.737v5.075h2.582a1.2,1.2,0,0,1,1.151.869A12.352,12.352,0,0,0,18.5,82.894a1.2,1.2,0,0,1-.151,1.508L16.517,86.23l3.589,3.588,1.827-1.827,0,0a1.2,1.2,0,0,1,1.425-.2A12.407,12.407,0,0,0,25.9,88.851a1.2,1.2,0,0,1,.92,1.165V92.6h5.076V90.016h0a1.2,1.2,0,0,1,.87-1.151,11.95,11.95,0,0,0,1.321-.46,12.449,12.449,0,0,0,1.184-.565,1.2,1.2,0,0,1,1.509.151L38.6,89.818l3.589-3.589L40.366,84.4l0,0a1.192,1.192,0,0,1-.2-1.424,12.694,12.694,0,0,0,.61-1.267,12.126,12.126,0,0,0,.445-1.271,1.2,1.2,0,0,1,1.166-.92h2.582V74.443H42.391a1.2,1.2,0,0,1-1.151-.869,12.215,12.215,0,0,0-1.026-2.506,1.2,1.2,0,0,1,.152-1.509l1.827-1.827L38.6,64.142l-1.827,1.827,0,0a1.193,1.193,0,0,1-1.424.2,12.38,12.38,0,0,0-1.267-.611,12.029,12.029,0,0,0-1.27-.445,1.2,1.2,0,0,1-.92-1.166V61.362Zm-5.371-2.4a2.1,2.1,0,0,0-2.1,2.1v2.006q-.359.128-.713.275t-.7.312l-1.419-1.42a2.1,2.1,0,0,0-1.485-.609v-.005a2.094,2.094,0,0,0-1.485.614l-4.006,4.006A2.093,2.093,0,0,0,14,67.731h0a2.09,2.09,0,0,0,.521,1.386,1.169,1.169,0,0,0,.089.1l1.42,1.42q-.168.348-.313.7c-.1.236-.189.473-.275.712h-2a2.1,2.1,0,0,0-2.1,2.1v5.665a2.1,2.1,0,0,0,2.1,2.1h2c.086.24.177.478.275.713s.2.467.312.7l-1.419,1.42a2.088,2.088,0,0,0-.61,1.485h0a2.093,2.093,0,0,0,.614,1.485l4.006,4.006a2.1,2.1,0,0,0,2.97,0L23.01,90.3q.348.166.7.312c.235.1.473.19.712.275v2a2.1,2.1,0,0,0,2.1,2.1h5.666a2.1,2.1,0,0,0,2.1-2.1v-2c.239-.086.477-.177.713-.275s.467-.2.7-.312l1.419,1.42a2.1,2.1,0,0,0,1.485.614v0a2.09,2.09,0,0,0,1.485-.61L44.1,87.714l0,0,0,0a2.1,2.1,0,0,0,0-2.965l-1.42-1.42q.168-.348.313-.7t.274-.713h2.006a2.1,2.1,0,0,0,2.1-2.1V74.148a2.1,2.1,0,0,0-2.1-2.1H43.262c-.085-.239-.177-.477-.274-.713s-.2-.467-.313-.7l1.42-1.42a2.1,2.1,0,0,0,0-2.97L40.089,62.24l0,0,0,0a2.087,2.087,0,0,0-1.48-.609v-.005a2.094,2.094,0,0,0-1.382.522c-.035.029-.07.059-.1.092L35.7,63.66c-.231-.111-.465-.216-.7-.313s-.473-.189-.712-.274V61.067a2.1,2.1,0,0,0-2.1-2.1Zm6.323,14.524a4.935,4.935,0,1,1-3.49-1.446,4.918,4.918,0,0,1,3.49,1.446Zm-3.49-3.841A7.33,7.33,0,1,1,24.172,71.8a7.3,7.3,0,0,1,5.183-2.147ZM58.36,37.933a1.2,1.2,0,0,1-2.4,0V18.727H52.1a1.2,1.2,0,0,1-.818-2.073L61.34,5.4a1.193,1.193,0,0,1,1.684-.094,1.166,1.166,0,0,1,.1.1L73.252,16.734a1.193,1.193,0,0,1-.889,1.988v0H68.494V36.521a1.2,1.2,0,1,1-2.4,0V17.529a1.2,1.2,0,0,1,1.2-1.2h2.4L62.229,7.988l-7.463,8.343h2.4a1.2,1.2,0,0,1,1.2,1.2v20.4ZM37.752,46.574a1.2,1.2,0,0,1-2.4,0V27.367h-3.87A1.2,1.2,0,0,1,30.67,25.3l10.062-11.25a1.194,1.194,0,0,1,1.685-.094,1.3,1.3,0,0,1,.1.1L52.644,25.374a1.192,1.192,0,0,1-.889,1.988v.005H47.886V45.162a1.2,1.2,0,1,1-2.4,0V26.17a1.2,1.2,0,0,1,1.2-1.2h2.4l-7.463-8.343-7.462,8.343h2.4a1.2,1.2,0,0,1,1.2,1.2v20.4Zm-20.608,8.64V34.81a1.2,1.2,0,0,0-1.2-1.2H13.551l7.462-8.343,7.463,8.343h-2.4a1.2,1.2,0,0,0-1.2,1.2V53.8a1.2,1.2,0,1,0,2.395,0V36.008h3.869V36a1.192,1.192,0,0,0,.889-1.988L21.908,22.691a1.321,1.321,0,0,0-.1-.1,1.193,1.193,0,0,0-1.684.093L10.062,33.935a1.2,1.2,0,0,0,.817,2.073h3.87V55.214a1.2,1.2,0,1,0,2.395,0Zm58.9-13.483a1.193,1.193,0,0,1-2.3.627l-1.195-4.35a1.2,1.2,0,0,1,.883-1.55l4.354-1.2a1.193,1.193,0,0,1,.627,2.3l-1.417.389A26.646,26.646,0,0,1,57.555,86.964a26.482,26.482,0,0,1-5.782-2.1,1.192,1.192,0,0,1,1.067-2.133,24.049,24.049,0,0,0,5.257,1.9A24.254,24.254,0,0,0,75.527,39.87Z"/><text x="0" y="115" fill="#000000" font-size="5px" font-weight="bold" font-family="'Helvetica Neue', Helvetica, Arial-Unicode, Arial, Sans-serif">Created by Orange Cat</text><text x="0" y="120" fill="#000000" font-size="5px" font-weight="bold" font-family="'Helvetica Neue', Helvetica, Arial-Unicode, Arial, Sans-serif">from the Noun Project</text></svg>