<svg xmlns="http://www.w3.org/2000/svg" data-name="Layer 1" viewBox="0 0 95 118.75" x="0px" y="0px"><defs><style>.cls-1{fill-rule:evenodd;}</style></defs><title>a</title><path class="cls-1" d="M33.512,29.616a1.055,1.055,0,0,0-1.053,1.055v18.97H26.016V30.671a1.055,1.055,0,0,0-1.053-1.055H20.4l8.831-10.834,8.839,10.834ZM29.233,16.058a1.041,1.041,0,0,0-.812.389L17.359,30a1.056,1.056,0,0,0,.821,1.721H23.9V50.7a1.057,1.057,0,0,0,1.062,1.054h8.549A1.055,1.055,0,0,0,34.565,50.7V31.725h5.721a1.046,1.046,0,0,0,.954-.6A1.058,1.058,0,0,0,41.107,30L30.054,16.447a1.046,1.046,0,0,0-.821-.389ZM56.928,29.616l8.839-10.834L74.6,29.616H70.037a1.055,1.055,0,0,0-1.053,1.055v18.97H62.541V30.671a1.055,1.055,0,0,0-1.053-1.055Zm4.56,22.134h8.549A1.057,1.057,0,0,0,71.1,50.7V31.725H76.82A1.056,1.056,0,0,0,77.641,30L66.58,16.447a1.052,1.052,0,0,0-1.634,0L53.893,30a1.056,1.056,0,0,0,.821,1.721h5.721V50.7a1.055,1.055,0,0,0,1.053,1.054Zm-9.71-35.692a1.049,1.049,0,0,0-1.052,1.054V49.641H44.275V17.112a1.05,1.05,0,0,0-1.053-1.054H38.661L47.5,5.225l8.831,10.833ZM48.321,2.888a1.063,1.063,0,0,0-1.642,0L35.626,16.447a1.056,1.056,0,0,0,.821,1.721h5.721V50.7a1.055,1.055,0,0,0,1.054,1.054h8.556A1.055,1.055,0,0,0,52.832,50.7V18.168h5.721a1.056,1.056,0,0,0,.821-1.721L48.321,2.888ZM27.169,86.868a.381.381,0,0,1-.539-.538.366.366,0,0,1,.265-.111.39.39,0,0,1,.274.111.4.4,0,0,1,0,.538Zm1.484-2.03a2.489,2.489,0,1,0,0,3.522,2.485,2.485,0,0,0,0-3.522Zm15.365,4.705V81.15a.849.849,0,0,0-.846-.848H23.528a.848.848,0,0,0-.845.848v8.393a.848.848,0,0,0,.845.848H43.172a.849.849,0,0,0,.846-.848ZM10.129,60.55l13.98,13.973a2.909,2.909,0,0,1,.862,2.092v1.578H41.787a15.072,15.072,0,0,0-11.07-14.662,1.018,1.018,0,0,1-.464-.27l-9.129-9.125A2.239,2.239,0,1,0,17.956,57.3l6.99,6.985a1.065,1.065,0,0,1,0,1.491,1.053,1.053,0,0,1-1.492,0l-6.99-6.986a4.359,4.359,0,0,1,0-6.149,5,5,0,0,1,.646-.529L16.688,38.4a2.816,2.816,0,0,0-5.63.144.728.728,0,0,1,0,.132l-1.9,19.145a3.222,3.222,0,0,0,.97,2.726ZM43.893,78.286A17.176,17.176,0,0,0,31.546,61.575l-8.93-8.932A4.344,4.344,0,0,0,19.2,51.388l-.4-13.046a4.926,4.926,0,0,0-9.85.19l-1.9,19.084A5.338,5.338,0,0,0,8.636,62.04l13.98,13.975a.8.8,0,0,1,.241.6v1.659a2.96,2.96,0,0,0-2.28,2.878v8.393A2.958,2.958,0,0,0,23.528,92.5H43.172a2.961,2.961,0,0,0,2.96-2.957V81.15a2.957,2.957,0,0,0-2.239-2.864Zm24.478,8.582a.381.381,0,0,1-.539,0,.393.393,0,0,1,0-.538.385.385,0,0,1,.539,0,.38.38,0,0,1,0,.538Zm-2.024-2.03h0a2.488,2.488,0,1,0,3.516,0,2.479,2.479,0,0,0-3.516,0ZM84.871,60.55a3.222,3.222,0,0,0,.97-2.726l-1.9-19.145a.727.727,0,0,1,0-.132,2.816,2.816,0,0,0-5.63-.147l-.431,13.711a4.917,4.917,0,0,1,.655.532,4.359,4.359,0,0,1,0,6.149l-6.99,6.986a1.055,1.055,0,0,1-1.492-1.491l6.99-6.985a2.235,2.235,0,0,0-1.584-3.818,2.209,2.209,0,0,0-1.584.652l-9.129,9.125a1.018,1.018,0,0,1-.464.27,15.072,15.072,0,0,0-11.07,14.662H70.029v-1.58a2.908,2.908,0,0,1,.862-2.09L84.871,60.55ZM72.317,89.543V81.15a.848.848,0,0,0-.845-.848H51.828a.848.848,0,0,0-.845.848v8.393a.848.848,0,0,0,.845.848H71.472a.848.848,0,0,0,.845-.848ZM86.048,38.532a4.926,4.926,0,0,0-9.85-.194l-.4,13.05c-.116-.009-.224-.014-.34-.014a4.323,4.323,0,0,0-3.076,1.269l-8.93,8.932A17.176,17.176,0,0,0,51.107,78.286a2.957,2.957,0,0,0-2.239,2.864v8.393a2.961,2.961,0,0,0,2.96,2.957H71.472a2.959,2.959,0,0,0,2.952-2.957V81.15a2.959,2.959,0,0,0-2.289-2.878V76.613a.807.807,0,0,1,.249-.6L86.364,62.04a5.34,5.34,0,0,0,1.583-4.426Z"/><text x="0" y="110" fill="#000000" font-size="5px" font-weight="bold" font-family="'Helvetica Neue', Helvetica, Arial-Unicode, Arial, Sans-serif">Created by rukanicon</text><text x="0" y="115" fill="#000000" font-size="5px" font-weight="bold" font-family="'Helvetica Neue', Helvetica, Arial-Unicode, Arial, Sans-serif">from the Noun Project</text></svg>