<svg xmlns="http://www.w3.org/2000/svg" viewBox="0 0 100 125" x="0px" y="0px"><path d="M29.47,19c-5.77,0-10.46,4.69-10.46,10.46s4.69,10.46,10.46,10.46,10.46-4.69,10.46-10.46-4.69-10.46-10.46-10.46Zm-7.46,10.46c0-4.12,3.35-7.46,7.46-7.46s7.46,3.35,7.46,7.46-3.35,7.46-7.46,7.46-7.46-3.35-7.46-7.46Z"/><path d="M95,37.25c-13.68,0-24.14-5.99-24.25-6.05-.47-.27-1.04-.27-1.51,0-.09,.05-8.06,4.61-19.18,5.78,.06-.18,.14-.35,.2-.53l4.07-1.11c.65-.18,1.1-.77,1.1-1.45v-8.86c0-.68-.45-1.27-1.1-1.45l-4.07-1.11c-.32-.94-.7-1.87-1.15-2.77l2.09-3.67c.33-.59,.24-1.33-.24-1.8l-6.26-6.26c-.48-.48-1.22-.58-1.8-.24l-3.67,2.09c-.9-.45-1.83-.83-2.77-1.15l-1.11-4.07c-.18-.65-.77-1.1-1.45-1.1h-8.86c-.68,0-1.27,.45-1.45,1.1l-1.11,4.07c-.94,.32-1.87,.7-2.77,1.15l-3.67-2.09c-.59-.34-1.33-.24-1.8,.24l-6.26,6.26c-.48,.48-.58,1.22-.24,1.8l2.09,3.67c-.45,.9-.83,1.83-1.15,2.77l-4.07,1.11c-.65,.18-1.1,.77-1.1,1.45v8.86c0,.68,.45,1.27,1.1,1.45l4.07,1.11c.32,.94,.7,1.87,1.15,2.77l-2.09,3.67c-.33,.59-.24,1.33,.24,1.8l6.26,6.26c.48,.48,1.22,.58,1.8,.24l3.67-2.09c.9,.45,1.83,.83,2.77,1.15l1.11,4.07c.18,.65,.77,1.1,1.45,1.1h8.86c.68,0,1.27-.45,1.45-1.1l1.11-4.07c.94-.32,1.87-.7,2.77-1.15l3.67,2.09c.19,.11,.4,.16,.61,.17v3.16h-2.97c-.68,0-1.27,.45-1.45,1.1l-.81,2.98c-.63,.22-1.25,.48-1.86,.77l-2.69-1.53c-.59-.33-1.33-.24-1.8,.24l-4.85,4.85c-.48,.48-.58,1.22-.24,1.8l1.53,2.69c-.29,.61-.55,1.23-.77,1.86l-2.98,.81c-.65,.18-1.1,.77-1.1,1.45v6.86c0,.68,.45,1.27,1.1,1.45l2.98,.81c.22,.63,.48,1.25,.77,1.86l-1.53,2.69c-.33,.59-.24,1.33,.24,1.8l4.85,4.85c.48,.48,1.22,.58,1.8,.24l2.69-1.53c.61,.29,1.23,.55,1.86,.77l.81,2.98c.18,.65,.77,1.1,1.45,1.1h6.86c.68,0,1.27-.45,1.45-1.1l.81-2.98c.63-.22,1.25-.48,1.86-.77l2.69,1.53c.59,.34,1.33,.24,1.8-.24l1.87-1.87c3.13,2.41,6.94,4.6,11.6,6.37,.17,.07,.35,.1,.53,.1s.36-.03,.53-.1c25.67-9.77,25.97-32.42,25.97-32.65v-25c0-.83-.67-1.5-1.5-1.5Zm-1.5,26.5c0,.84-.35,20.54-23.5,29.64-23.15-9.11-23.5-28.8-23.5-29.64v-23.52c11.8-.34,20.88-4.64,23.5-6.02,2.62,1.38,11.7,5.67,23.5,6.02v23.52Zm-41.21,23.85c-.45-.26-1.01-.26-1.46-.01-.91,.49-1.86,.89-2.83,1.17-.5,.15-.89,.54-1.03,1.04l-.73,2.66h-4.57l-.73-2.66c-.14-.5-.53-.9-1.03-1.04-.97-.28-1.92-.68-2.83-1.17-.46-.25-1.01-.25-1.46,.01l-2.4,1.37-3.23-3.23,1.37-2.4c.26-.45,.26-1.01,.01-1.46-.5-.91-.89-1.86-1.17-2.83-.15-.5-.54-.89-1.04-1.03l-2.66-.73v-4.57l2.66-.73c.5-.14,.9-.53,1.04-1.03,.28-.97,.68-1.92,1.17-2.83,.25-.46,.24-1.01-.01-1.46l-1.37-2.4,3.23-3.23,2.4,1.37c.45,.26,1.01,.26,1.46,.01,.9-.49,1.86-.89,2.83-1.17,.5-.15,.89-.54,1.03-1.04l.73-2.66h1.83v6.21s.02,1.1,.28,2.81c-2.19,.05-4.24,.91-5.79,2.47-1.6,1.59-2.47,3.72-2.47,5.97s.88,4.38,2.47,5.97c1.6,1.6,3.72,2.47,5.97,2.47,2.1,0,4.08-.77,5.63-2.17,1.55,2.3,3.51,4.62,5.96,6.82l-.86,.86-2.4-1.37Zm-7.9-18c.63,2.55,1.73,5.72,3.59,9.06-.06,.06-.1,.14-.16,.2-1.03,1.03-2.4,1.6-3.85,1.6s-2.82-.57-3.85-1.6c-1.03-1.03-1.59-2.4-1.59-3.85s.57-2.82,1.59-3.85c1.03-1.03,2.4-1.6,3.85-1.6,.14,0,.28,.03,.43,.04Zm-4.39-23.5c-.45-.26-1-.26-1.46-.01-1.19,.65-2.45,1.17-3.74,1.55-.5,.15-.89,.54-1.03,1.04l-1.03,3.76h-6.57l-1.03-3.76c-.14-.5-.53-.9-1.03-1.04-1.28-.38-2.54-.9-3.74-1.55-.46-.25-1.01-.24-1.46,.01l-3.38,1.93-4.64-4.64,1.93-3.38c.26-.45,.26-1.01,.01-1.46-.65-1.19-1.17-2.45-1.55-3.74-.15-.5-.54-.89-1.04-1.03l-3.76-1.03v-6.57l3.76-1.03c.5-.14,.9-.53,1.04-1.03,.38-1.28,.9-2.54,1.55-3.74,.25-.46,.24-1.01-.01-1.46l-1.93-3.38,4.64-4.64,3.38,1.93c.45,.26,1,.26,1.46,.01,1.2-.65,2.45-1.18,3.74-1.55,.5-.15,.89-.54,1.03-1.04l1.03-3.76h6.57l1.03,3.76c.14,.5,.53,.9,1.03,1.04,1.28,.38,2.54,.9,3.74,1.55,.46,.25,1.01,.24,1.46-.01l3.38-1.93,4.64,4.64-1.93,3.38c-.26,.45-.26,1.01-.01,1.46,.65,1.19,1.17,2.45,1.55,3.74,.15,.5,.54,.89,1.04,1.03l3.76,1.03v6.57l-3.76,1.03c-.5,.14-.9,.53-1.04,1.03-.24,.82-.56,1.62-.92,2.41-.57,.02-1.14,.04-1.72,.04-.83,0-1.5,.67-1.5,1.5v9.17l-.11,.11-3.38-1.93Z"/><path d="M69.24,39.94c-.07,.04-7.41,4.3-17,4.3-.83,0-1.5,.67-1.5,1.5v18.02c0,.17,.21,16.78,18.73,23.92,.17,.07,.36,.1,.54,.1s.37-.03,.54-.1c18.51-7.14,18.73-23.75,18.73-23.92v-18.02c0-.83-.67-1.5-1.5-1.5-9.59,0-16.93-4.25-17-4.3-.47-.28-1.05-.28-1.53,0Zm17.03,23.81c0,.59-.26,14.44-16.27,20.91-16.01-6.48-16.26-20.32-16.27-20.91v-16.55c7.98-.33,14.17-3.17,16.27-4.26,2.1,1.09,8.29,3.94,16.27,4.26v16.54Z"/><path d="M64.11,57.85c-.3-.27-.7-.4-1.11-.37-.4,.03-.78,.22-1.04,.54l-4.16,4.99c-.27,.32-.39,.74-.34,1.15,.05,.41,.28,.79,.62,1.03l9.21,6.6c.26,.19,.57,.28,.87,.28,.37,0,.74-.14,1.02-.4l12.87-12.01c.31-.29,.48-.69,.48-1.1,0-.42-.18-.82-.49-1.1l-4.03-3.69c-.58-.53-1.47-.53-2.04,0l-8.01,7.49-3.87-3.4Zm4.93,6.52l7.99-7.47,1.81,1.66-10.79,10.07-6.9-4.94,2.14-2.56,3.74,3.28c.58,.51,1.45,.49,2.01-.03Z"/><text x="0" y="115" fill="#000000" font-size="5px" font-weight="bold" font-family="'Helvetica Neue', Helvetica, Arial-Unicode, Arial, Sans-serif">Created by Lars Meiertoberens</text><text x="0" y="120" fill="#000000" font-size="5px" font-weight="bold" font-family="'Helvetica Neue', Helvetica, Arial-Unicode, Arial, Sans-serif">from the Noun Project</text></svg>