<svg xmlns="http://www.w3.org/2000/svg" xmlns:xlink="http://www.w3.org/1999/xlink" xmlns:serif="http://www.serif.com/" viewBox="0 0 32 40" version="1.1" xml:space="preserve" style="" x="0px" y="0px" fill-rule="evenodd" clip-rule="evenodd" stroke-linejoin="round" stroke-miterlimit="2"><g transform="matrix(1,0,0,1,-206.632,-173.135)"><path d="M234.664,189.812L234.664,179.174C234.664,178.857 234.417,178.594 234.1,178.575L233.875,178.562C230.293,178.345 226.827,177.204 223.816,175.252L223.214,174.861C222.86,174.632 222.404,174.632 222.05,174.861L221.448,175.252C218.437,177.204 214.971,178.345 211.389,178.562C211.388,178.562 211.388,178.562 211.388,178.562C210.945,178.588 210.6,178.955 210.6,179.399C210.6,180.674 210.6,185.54 210.6,189.812C210.6,194.336 213.082,198.495 217.063,200.644C219.794,202.117 222.394,203.52 222.394,203.52C222.543,203.6 222.721,203.6 222.869,203.52C222.869,203.52 225.469,202.117 228.2,200.644C232.182,198.495 234.664,194.336 234.664,189.812ZM233.664,179.55L233.664,189.812C233.664,193.968 231.384,197.79 227.725,199.764C227.725,199.764 222.632,202.512 222.632,202.512C222.632,202.512 217.538,199.764 217.538,199.764C213.88,197.79 211.6,193.968 211.6,189.812L211.6,179.55C215.301,179.3 218.878,178.11 221.992,176.091C221.992,176.091 222.594,175.7 222.594,175.7C222.617,175.686 222.647,175.686 222.67,175.7C222.67,175.7 223.272,176.091 223.272,176.091C226.386,178.11 229.963,179.3 233.664,179.55ZM232.425,181.116C232.425,180.798 232.178,180.536 231.861,180.517C231.845,180.516 231.826,180.514 231.805,180.513C228.865,180.335 226.021,179.399 223.549,177.797L223.214,177.579C222.86,177.35 222.404,177.35 222.05,177.579C221.955,177.641 221.842,177.714 221.715,177.797C219.243,179.399 216.399,180.335 213.458,180.513L213.458,180.513C213.11,180.534 212.839,180.823 212.839,181.171L212.839,189.457C212.839,193.269 214.93,196.775 218.286,198.585C220.417,199.735 222.394,200.802 222.394,200.802C222.543,200.882 222.721,200.882 222.869,200.802C222.869,200.802 224.847,199.735 226.978,198.585C230.333,196.775 232.425,193.269 232.425,189.457L232.425,181.116ZM231.425,181.489L231.425,189.457C231.425,192.902 229.535,196.069 226.503,197.705C226.503,197.705 222.632,199.794 222.632,199.794C222.632,199.794 218.761,197.705 218.761,197.705C215.729,196.069 213.839,192.902 213.839,189.457L213.839,181.489C216.838,181.254 219.732,180.274 222.259,178.636C222.386,178.553 222.5,178.48 222.594,178.418C222.617,178.403 222.647,178.403 222.67,178.418C222.67,178.418 223.005,178.636 223.005,178.636C225.532,180.274 228.426,181.254 231.425,181.489ZM216.625,188.464C216.436,188.661 216.438,188.972 216.631,189.165L221.187,193.728C221.281,193.822 221.408,193.875 221.541,193.875C221.673,193.875 221.801,193.822 221.894,193.729L229.555,186.075C229.75,185.88 229.751,185.565 229.558,185.369L227.901,183.696C227.808,183.602 227.681,183.548 227.548,183.548C227.416,183.547 227.288,183.599 227.194,183.693L221.557,189.29C221.557,189.29 219.001,186.734 219.001,186.734C218.906,186.639 218.777,186.586 218.643,186.588C218.508,186.589 218.38,186.644 218.287,186.74L216.625,188.464ZM217.685,188.805L218.654,187.801C218.654,187.801 221.202,190.35 221.202,190.35C221.397,190.544 221.712,190.545 221.908,190.351L227.543,184.755C227.543,184.755 228.497,185.719 228.497,185.719C228.497,185.719 221.541,192.668 221.541,192.668L217.685,188.805Z"/></g><text x="0" y="47" fill="#000000" font-size="5px" font-weight="bold" font-family="'Helvetica Neue', Helvetica, Arial-Unicode, Arial, Sans-serif">Created by rendicon</text><text x="0" y="52" fill="#000000" font-size="5px" font-weight="bold" font-family="'Helvetica Neue', Helvetica, Arial-Unicode, Arial, Sans-serif">from the Noun Project</text></svg>