<svg xmlns="http://www.w3.org/2000/svg" viewBox="0 0 32 40" x="0px" y="0px"><g><path d="M26,27H18a1,1,0,0,1-1-1V18a1,1,0,0,1,1-1h8a1,1,0,0,1,1,1v8A1,1,0,0,1,26,27Zm-7-2h6V19H19Z"/><path d="M14,27H6a1,1,0,0,1-1-1V18a1,1,0,0,1,1-1h8a1,1,0,0,1,1,1v8A1,1,0,0,1,14,27ZM7,25h6V19H7Z"/><path d="M26,15H18a1,1,0,0,1-1-1V6a1,1,0,0,1,1-1h8a1,1,0,0,1,1,1v8A1,1,0,0,1,26,15Zm-7-2h6V7H19Z"/><path d="M10,15.5a1,1,0,0,1-.71-.29l-4.5-4.5a1,1,0,0,1,0-1.42l4.5-4.5a1,1,0,0,1,1.42,0l4.5,4.5a1,1,0,0,1,0,1.42l-4.5,4.5A1,1,0,0,1,10,15.5ZM6.91,10,10,13.09,13.09,10,10,6.91Z"/></g><text x="0" y="47" fill="#000000" font-size="5px" font-weight="bold" font-family="'Helvetica Neue', Helvetica, Arial-Unicode, Arial, Sans-serif">Created by Ade Nur Hidayat</text><text x="0" y="52" fill="#000000" font-size="5px" font-weight="bold" font-family="'Helvetica Neue', Helvetica, Arial-Unicode, Arial, Sans-serif">from the Noun Project</text></svg>