<svg xmlns="http://www.w3.org/2000/svg" xmlns:xlink="http://www.w3.org/1999/xlink" version="1.1" x="0px" y="0px" viewBox="0 0 3873 4841.25" style="enable-background:new 0 0 3873 3873;" xml:space="preserve"><g><g><path d="M1936.5,3065.6c-623.3,0-1129.2-505.3-1129.2-1129.1c0-622.4,504.3-1129.1,1129.1-1129.1    c623.4,0,1129.2,505.3,1129.2,1129.1C3065.6,2556.7,2563.3,3065.6,1936.5,3065.6z M1936.5,928.4    c-555.9,0-1008.1,452.2-1008.1,1008.1s452.2,1008.1,1008.1,1008.1s1008.1-452.2,1008.1-1008.1S2492.3,928.4,1936.5,928.4z"/></g><g><path d="M1936.5,2794.5c-474.3,0-858.1-384.8-858.1-858.1c0-352.6,213.3-658.9,524.1-790.6c430.8-182.4,937.6,15.3,1124.6,456.6    C2966.5,2167.8,2548.5,2794.5,1936.5,2794.5z M1936.5,1199.5c-406.4,0-737,330.6-737,737s330.6,737,737,737s737-330.6,737-737    S2342.9,1199.5,1936.5,1199.5z"/></g><g><path d="M2067.1,936.3c-33.4,0-60.5-27.1-60.5-60.5V608.7c0-33.4,27.1-60.5,60.5-60.5h9l-139.6-205.9l-139.6,205.9h9    c33.4,0,60.5,27.1,60.5,60.5v267.1c0,33.4-27.1,60.5-60.5,60.5s-60.5-27.1-60.5-60.5V669.2h-62.6c-22.4,0-43-12.4-53.5-32.2    s-9.2-43.8,3.4-62.3l253.7-374.2c11.3-16.6,30-26.6,50.1-26.6s38.8,9.9,50.1,26.6l253.7,374.2c27.2,40-1.5,94.5-50.1,94.5h-62.6    v206.6C2127.6,909.2,2100.5,936.3,2067.1,936.3z"/></g><g><path d="M2736.1,1321.6c-23.6-23.6-23.6-61.9,0-85.6l188.9-188.9c23.8-23.6,61.8-23.6,85.6,0l6.4,6.4l46.9-244.3l-244.3,46.9    c2.4,3.4,24.1,18.2,24.1,49.2c0,16.1-6.4,31.4-17.7,42.8L2637.1,1137c-23.6,23.6-61.9,23.6-85.6,0c-23.6-23.6-23.6-61.9,0-85.6    l146.1-146.1l-44.3-44.3c-34.2-34.2-16.4-93,31.3-102.3l444-85.2c41.7-8.1,78.9,28.6,70.8,70.8l-85.2,444    c-9.1,47.4-67.8,65.8-102.3,31.3l-44.3-44.3l-146.1,146.1C2798.2,1345.3,2759.7,1345.2,2736.1,1321.6z"/></g><g><path d="M3203.8,2190.1v-62.6h-206.6c-33.4,0-60.5-27.1-60.5-60.5c0-33.4,27.1-60.5,60.5-60.5h267.1c33.4,0,60.5,27.1,60.5,60.5v9    l205.9-139.6l-205.9-139.6v9c0,33.4-27.1,60.5-60.5,60.5h-267.1c-33.4,0-60.5-27.1-60.5-60.5s27.1-60.5,60.5-60.5h206.6v-62.6    c0-48.5,54.5-77.3,94.5-50.1l374.2,253.7c35.6,24.2,35.3,76.3,0,100.2l-374.2,253.7C3257.6,2267.8,3203.8,2238,3203.8,2190.1z"/></g><g><path d="M3128.6,3199.4l-444-85.2c-47.4-9.1-65.7-67.9-31.3-102.3l44.3-44.3l-146.1-146.1c-23.6-23.6-23.6-62,0-85.6    s62-23.6,85.6,0l188.9,188.9c11.4,11.4,17.7,26.7,17.7,42.8c0,31-21.9,46.2-24.1,49.2l244.3,46.9l-46.9-244.3    c-3.4,2.4-18.2,24.1-49.2,24.1c-16,0-31.4-6.4-42.8-17.7l-188.9-188.9c-23.6-23.6-23.6-61.9,0-85.6c23.6-23.6,61.9-23.6,85.6,0    l146.1,146.1l44.3-44.3c34.2-34.2,93-16.4,102.3,31.3l85.2,444C3207.6,3169.9,3171.4,3207.3,3128.6,3199.4z"/></g><g><path d="M1886.4,3672.4l-253.7-374.2c-27.2-40,1.5-94.5,50.1-94.5h62.6v-206.6c0-33.4,27.1-60.5,60.5-60.5s60.5,27.1,60.5,60.5    v267.1c0,33.4-27.1,60.5-60.5,60.5h-9l139.6,205.9l139.6-205.9h-9c-33.4,0-60.5-27.1-60.5-60.5v-267.1c0-33.4,27.1-60.5,60.5-60.5    c33.4,0,60.5,27.1,60.5,60.5v206.6h62.6c48.5,0,77.3,54.5,50.1,94.5l-253.7,374.2C1962.6,3707.8,1910.4,3707.8,1886.4,3672.4z"/></g><g><path d="M733,3200.5c-37.7,0-66.6-34.3-59.4-71.9l85.2-444c9.1-47.4,67.8-65.8,102.3-31.3l44.3,44.3l146.1-146.1    c23.6-23.6,61.9-23.6,85.6,0c23.6,23.6,23.6,62,0,85.6L948.2,2826c-11.3,11.4-26.7,17.7-42.8,17.7c-30.9,0-45.9-21.7-49.2-24.1    l-46.9,244.3l244.3-46.9c-2.4-3.3-24.1-18.3-24.1-49.2c0-16,6.4-31.4,17.7-42.8l188.9-188.9c23.6-23.6,61.9-23.6,85.6,0    c23.6,23.6,23.6,61.9,0,85.6l-146.1,146.1l44.3,44.3c34.2,34.2,16.4,93-31.3,102.3l-444,85.2    C740.6,3200.1,736.8,3200.5,733,3200.5z"/></g><g><path d="M574.7,2240.3l-374.2-253.7c-35.6-24.2-35.3-76.3,0-100.2l374.2-253.7c40-27.2,94.5,1.5,94.5,50.1v62.6h206.6    c33.4,0,60.5,27.1,60.5,60.5s-27.1,60.5-60.5,60.5H608.7c-33.4,0-60.5-27.1-60.5-60.5v-9l-205.9,139.6l205.9,139.6v-9    c0-33.4,27.1-60.5,60.5-60.5h267.1c33.4,0,60.5,27.1,60.5,60.5c0,33.4-27.1,60.5-60.5,60.5H669.2v62.6c0,22.4-12.4,43-32.2,53.5    C617.8,2254,593.5,2253,574.7,2240.3z"/></g><g><path d="M1051.3,1321.6l-146.1-146.1l-44.3,44.3c-34.2,34.2-93,16.4-102.3-31.3l-85.2-444c-8.1-41.8,28.6-78.9,70.8-70.8l444,85.2    c47.4,9.1,65.8,67.8,31.3,102.3l-44.3,44.3l146.1,146.1c23.6,23.6,23.6,61.9,0,85.6c-23.6,23.6-61.9,23.6-85.6,0l-188.9-188.9    c-23.6-23.6-23.6-61.9,0-85.6l6.4-6.4l-244.3-46.9l46.9,244.3l6.4-6.4c23.6-23.6,61.9-23.6,85.6,0l188.9,188.9    c23.6,23.6,23.6,61.9,0,85.6C1113.4,1345.1,1074.9,1345.2,1051.3,1321.6z"/></g><g><g><path d="M1936.5,2072c-190.2,0-344.9-154.7-344.9-344.9s154.7-344.9,344.9-344.9s344.9,154.7,344.9,344.9     S2126.7,2072,1936.5,2072z M1936.5,1503.2c-123.4,0-223.8,100.4-223.8,223.8s100.4,223.8,223.8,223.8s223.8-100.4,223.8-223.8     S2059.9,1503.2,1936.5,1503.2z"/></g><g><path d="M2435.4,2512.7c-30.3-245.9-239.8-440.7-499-440.7c-253.6,0-468.1,189.5-499,440.7c-4.1,33.2-34.3,56.7-67.5,52.7     c-33.2-4.1-56.8-34.3-52.7-67.4c50.3-409.6,481.2-658.9,861.9-498c203.3,85.9,349.1,275.2,376.3,497.9     c4.1,33.2-19.5,63.4-52.7,67.4C2470.4,2569.5,2439.6,2546.2,2435.4,2512.7z"/></g></g></g><text x="0" y="3888" fill="#000000" font-size="5px" font-weight="bold" font-family="'Helvetica Neue', Helvetica, Arial-Unicode, Arial, Sans-serif">Created by Graphixs_Art</text><text x="0" y="3893" fill="#000000" font-size="5px" font-weight="bold" font-family="'Helvetica Neue', Helvetica, Arial-Unicode, Arial, Sans-serif">from the Noun Project</text></svg>