<svg xmlns="http://www.w3.org/2000/svg" xmlns:xlink="http://www.w3.org/1999/xlink" xml:space="preserve" style="shape-rendering:geometricPrecision;text-rendering:geometricPrecision;image-rendering:optimizeQuality;" viewBox="0 0 173.397 216.74624999999997" x="0px" y="0px" fill-rule="evenodd" clip-rule="evenodd"><defs><style type="text/css">
   
    .fil0 {fill:black}
   
  </style></defs><g><g><path class="fil0" d="M72.1684 129.277c-0.6685,0 -1.3023,-0.398 -1.5697,-1.0553 -3.7121,-9.134 -9.1821,-15.47 -14.4716,-21.5978 -6.5881,-7.6324 -12.8111,-14.8406 -14.9239,-26.428 -0.1678,-0.9204 0.442,-1.8016 1.3621,-1.9695 0.9176,-0.1693 1.8019,0.4416 1.9695,1.3621 1.9475,10.6797 7.8775,17.5496 14.1559,24.8224 5.4686,6.3352 11.1235,12.886 15.0456,22.5352 0.3522,0.8665 -0.0649,1.8542 -0.9309,2.2066 -0.2092,0.0846 -0.4248,0.1248 -0.637,0.1243zm29.0608 0c-0.2125,0 -0.4285,-0.0393 -0.6373,-0.1243 -0.8663,-0.3527 -1.283,-1.3398 -0.931,-2.2066 3.9226,-9.6499 9.5776,-16.2003 15.0467,-22.5352 7.9661,-9.2278 14.846,-17.1961 14.846,-32.8463 0,-23.6311 -19.2247,-42.8553 -42.8548,-42.8553 -4.1366,-0.0004 -8.2335,0.5916 -12.1768,1.7579 -0.8967,0.2642 -1.8387,-0.2469 -2.104,-1.1436 -0.2653,-0.8973 0.2466,-1.8388 1.1434,-2.1042 4.2553,-1.2592 8.6755,-1.8967 13.1374,-1.8967 25.4974,-0.0007 46.2414,20.7437 46.2414,46.2419 0.0001,16.9097 -7.6112,25.7259 -15.669,35.0597 -5.2899,6.1269 -10.76,12.4637 -14.473,21.5974 -0.2673,0.6569 -0.9007,1.0558 -1.569,1.0553z"/><path class="fil0" d="M71.2836 129.277c-1.071,0 -1.9425,0.872 -1.9425,1.9429l0 14.1599c0,1.0708 0.8714,1.9427 1.9424,1.9427l30.8299 -0.0004c1.0712,0 1.9428,-0.871 1.9428,-1.942l0.0001 -14.1608c0,-1.0707 -0.8718,-1.9421 -1.9429,-1.9421l-30.8298 -0.0002zm30.8298 21.4321l-30.8298 0c-2.9387,0 -5.3296,-2.3903 -5.3296,-5.329l0.0001 -14.1608c0,-2.9384 2.3907,-5.3288 5.3294,-5.3288l30.8299 -0.0004c2.9387,0 5.3294,2.3912 5.3294,5.3298l0.0001 14.1599c0,2.9385 -2.3908,5.3297 -5.3295,5.3293z"/><path class="fil0" d="M97.3259 164.257l-21.2544 0c-3.2925,0 -5.9705,-2.6785 -5.9705,-5.9707l0.0001 -9.2701c0,-0.935 0.758,-1.6935 1.6928,-1.6935 0.9353,-0.0004 1.6934,0.7585 1.6934,1.6937l0.0001 9.2692c0,1.4256 1.1591,2.5849 2.584,2.5849l21.2545 -0.0004c1.4246,0 2.5837,-1.1589 2.5837,-2.5838l0.0002 -9.2701c0,-0.935 0.7579,-1.6935 1.6932,-1.6935 0.9353,-0.0004 1.6933,0.7585 1.6933,1.6937l0 9.2692c0,3.2925 -2.6783,5.9715 -5.9704,5.9714z"/><path class="fil0" d="M43.7083 34.0407c-6.243,0 -11.3225,5.0792 -11.3225,11.3222 0.0001,6.2427 5.0793,11.3216 11.3225,11.3216 6.2429,-0.0005 11.3216,-5.0789 11.3216,-11.3216 0.0001,-6.243 -5.0789,-11.3221 -11.3216,-11.3222zm0 26.0303c-8.1107,0 -14.7091,-6.5978 -14.7091,-14.7081 0.0001,-8.1107 6.5983,-14.7088 14.7091,-14.7088 8.11,-0.0003 14.7087,6.5984 14.7087,14.7088 0.0001,8.1096 -6.5987,14.7087 -14.7087,14.7081z"/><path class="fil0" d="M27.3366 63.2166c0.3896,0 0.7761,0.1347 1.0883,0.3965 2.1298,1.7855 4.5254,3.1718 7.1204,4.1187 0.6686,0.2441 1.113,0.8795 1.113,1.591l0.0001 6.751c0,1.1715 0.9531,2.1249 2.1247,2.1249l9.85 -0.0001c1.1716,0 2.1247,-0.9528 2.1247,-2.1246l0 -6.7527c0,-0.7112 0.4445,-1.3461 1.1127,-1.5902 2.5965,-0.9482 4.9921,-2.3337 7.1208,-4.118 0.5454,-0.4576 1.3187,-0.5249 1.9346,-0.169l5.8537 3.3793c1.0147,0.5858 2.317,0.2374 2.903,-0.7772l4.9248 -8.5311c0.586,-1.0144 0.2367,-2.3161 -0.7776,-2.9021l-5.8504 -3.3781c-0.6152,-0.3548 -0.9434,-1.0562 -0.8217,-1.7565 0.2361,-1.3534 0.3556,-2.738 0.3556,-4.1155 0.0002,-1.3789 -0.1196,-2.7631 -0.3552,-4.1156 -0.1221,-0.701 0.206,-1.402 0.8216,-1.7574l5.8498 -3.3775c1.0146,-0.5858 1.3638,-1.8878 0.7778,-2.9025l-4.9247 -8.5307c-0.5862,-1.0144 -1.8884,-1.3629 -2.903,-0.7771l-5.8537 3.3791c-0.6161,0.3563 -1.3892,0.2887 -1.9346,-0.1686 -2.1296,-1.7865 -4.5254,-3.1716 -7.1208,-4.119 -0.6682,-0.244 -1.1127,-0.8794 -1.1127,-1.5907l0 -6.7511c0,-1.1724 -0.9532,-2.125 -2.1248,-2.125l-9.8497 -0.0007c-1.172,0 -2.1253,0.954 -2.1253,2.1257l0 6.7508c0,0.7112 -0.4445,1.3472 -1.1127,1.591 -2.5943,0.9467 -4.9904,2.333 -7.1208,4.1191 -0.545,0.4574 -1.3183,0.525 -1.9346,0.1689l-5.8533 -3.3802c-1.0152,-0.5858 -2.3174,-0.2362 -2.903,0.7784l-4.925 8.5299c-0.2816,0.4881 -0.3554,1.0604 -0.2079,1.6116 0.1478,0.5505 0.4977,1.0097 0.9856,1.2914l5.8499 3.3771c0.6156,0.3556 0.9436,1.0574 0.8219,1.7576 -0.2357,1.3515 -0.3553,2.7364 -0.3553,4.1155 0.0002,1.3786 0.1196,2.7636 0.3553,4.1159 0.1217,0.6997 -0.2064,1.4015 -0.822,1.7567l-5.8496 3.3768c-0.488,0.2826 -0.838,0.7412 -0.9858,1.2923 -0.1475,0.5508 -0.0734,1.1232 0.2081,1.6111l4.9248 8.5298c0.5856,1.0152 1.8877,1.3646 2.903,0.7783l5.8537 -3.3794c0.2631,-0.1524 0.5556,-0.2271 0.8463,-0.2278zm21.2965 18.369l-9.8498 0c-3.0389,0 -5.5116,-2.4725 -5.5116,-5.5116l0 -5.5954c-2.1745,-0.9033 -4.2154,-2.0836 -6.0911,-3.5225l-4.8506 2.8002c-2.632,1.52 -6.01,0.615 -7.5294,-2.0167l-4.9247 -8.5306c-0.7342,-1.2716 -0.9279,-2.7562 -0.5462,-4.1811 0.3817,-1.4252 1.2922,-2.6137 2.5636,-3.3479l4.8493 -2.8001c-0.1506,-1.1637 -0.2265,-2.3423 -0.2265,-3.517 0.0001,-1.1749 0.0759,-2.3533 0.2265,-3.5174l-4.8492 -2.8002c-1.2714,-0.7342 -2.182,-1.9225 -2.5637,-3.3474 -0.3819,-1.4254 -0.188,-2.9099 0.5461,-4.1811l4.9249 -8.5306c1.5195,-2.6321 4.8975,-3.5359 7.5292,-2.0172l4.8507 2.8006c1.8761,-1.4391 3.9169,-2.6195 6.0907,-3.5232l0.0002 -5.5946c0,-3.0393 2.4724,-5.5116 5.5116,-5.5116l9.85 -0.0002c3.0389,0 5.5114,2.4727 5.5114,5.5118l0 5.5943c2.1745,0.9033 4.2153,2.0846 6.0907,3.5235l4.8512 -2.8011c2.6313,-1.5193 6.0094,-0.6142 7.5288,2.0179l4.9253 8.5302c0.734,1.2708 0.9277,2.7562 0.5459,4.1813 -0.3816,1.4242 -1.2922,2.6138 -2.5636,3.3479l-4.8492 2.7991c0.1502,1.1644 0.2264,2.3436 0.2264,3.518 0,1.173 -0.0762,2.3523 -0.2268,3.5172l4.8496 2.7993c2.6321,1.5201 3.537,4.8976 2.0179,7.5297l-4.925 8.5295c-1.5194,2.6321 -4.8974,3.5375 -7.5295,2.0185l-4.851 -2.8011c-1.8749,1.4374 -3.9158,2.6183 -6.0907,3.5225l0 5.5953c0,3.0392 -2.4726,5.512 -5.5114,5.5118z"/><path class="fil0" d="M129.689 99.0187c-2.341,0 -4.6719,-0.5639 -6.7406,-1.6321 -0.831,-0.4293 -1.1568,-1.4505 -0.7278,-2.2814 0.4298,-0.8315 1.4513,-1.1571 2.2818,-0.7278 1.6129,0.8329 3.3581,1.2553 5.1865,1.2553 6.2431,-0.0001 11.3221,-5.079 11.3221,-11.3218 0,-5.7321 -4.2845,-10.5642 -9.9667,-11.2412 -0.9289,-0.1114 -1.5921,-0.9532 -1.4813,-1.8818 0.1109,-0.9292 0.9525,-1.5923 1.8817,-1.4812 7.3843,0.8791 12.9533,7.1581 12.9533,14.6042 0,8.1093 -6.5984,14.7084 -14.709,14.7078z"/><path class="fil0" d="M134.614 120.533l-9.85 0c-3.0391,0 -5.5119,-2.4724 -5.5119,-5.5113l0.0001 -5.5957c-1.5141,-0.6302 -2.9736,-1.3991 -4.3526,-2.2949 -0.7846,-0.5094 -1.0076,-1.5582 -0.4978,-2.3424 0.5096,-0.7848 1.5579,-1.0068 2.3421,-0.4978 1.5004,0.9743 3.1094,1.7781 4.7822,2.3891 0.6683,0.2433 1.1127,0.879 1.1127,1.5902l0.0001 6.751c0,1.1716 0.9534,2.1254 2.125,2.1254l9.8501 -0.0005c1.1716,0 2.125,-0.9528 2.125,-2.1244l0.0001 -6.7522c0,-0.7119 0.444,-1.3468 1.1122,-1.5906 2.5966,-0.9486 4.9921,-2.334 7.1208,-4.1184 0.5451,-0.4576 1.318,-0.5246 1.9343,-0.169l5.8547 3.3793c0.487,0.2818 1.0583,0.3563 1.6122,0.2085 0.5504,-0.1482 1.0089,-0.4978 1.2912,-0.9857l4.9248 -8.5311c0.2822,-0.4873 0.3527,-1.0594 0.208,-1.6105 -0.1481,-0.5517 -0.4973,-1.0097 -0.9877,-1.2911l-5.8489 -3.3785c-0.6174,-0.3548 -0.9456,-1.0563 -0.8221,-1.7566 0.2365,-1.3533 0.3563,-2.7379 0.3563,-4.1152 0,-1.3791 -0.12,-2.7632 -0.3563,-4.1155 -0.1199,-0.7006 0.2081,-1.4023 0.8219,-1.7572l5.8491 -3.3781c1.016,-0.5857 1.3652,-1.8878 0.7796,-2.9023l-4.9247 -8.5308c-0.5856,-1.0144 -1.8909,-1.3629 -2.9034,-0.7769l-5.8543 3.3788c-0.6159,0.3556 -1.3893,0.2886 -1.9343,-0.1686 -2.1301,-1.7864 -4.5258,-3.1714 -7.1212,-4.119 -0.6681,-0.2439 -1.1123,-0.8791 -1.1123,-1.5903l0.0001 -6.7515c0,-1.1716 -0.9537,-2.1247 -2.1253,-2.1247l-9.0507 -0.0001c-0.9353,0 -1.6938,-0.7585 -1.6938,-1.6933 0.0001,-0.9356 0.7585,-1.6933 1.6937,-1.6933l9.051 -0.0004c3.0391,0 5.5117,2.473 5.5117,5.5118l0.0001 5.5944c2.1737,0.9041 4.2148,2.0846 6.0902,3.5235l4.8519 -2.8004c2.6316,-1.5201 6.0077,-0.6148 7.5281,2.0173l4.925 8.53c1.5204,2.6313 0.6136,6.0097 -2.0181,7.5291l-4.847 2.8c0.1482,1.1644 0.2257,2.3428 0.2257,3.5175 0.0001,1.1736 -0.0777,2.352 -0.2258,3.5172l4.8473 2.7999c1.2734,0.7334 2.1835,1.9228 2.5645,3.3476 0.3811,1.4252 0.187,2.9101 -0.5468,4.1812l-4.9246 8.5303c-0.7338,1.2716 -1.9228,2.1821 -3.348,2.5638 -1.4252,0.381 -2.9104,0.1873 -4.1804,-0.5464l-4.8521 -2.8008c-1.8747,1.4375 -3.9155,2.6184 -6.09,3.5225l0.0001 5.5953c0,3.0393 -2.4728,5.512 -5.5118,5.5118z"/><path class="fil0" d="M117.254 72.9075c-0.0028,0 -0.0053,0.0003 -0.0082,0.0003 -0.9352,-0.0043 -1.6898,-0.7663 -1.6852,-1.7011 0.042,-8.9299 -4.7942,-17.1447 -12.6213,-21.4408 -0.8201,-0.4502 -1.1197,-1.4795 -0.6699,-2.2994 0.4505,-0.8202 1.4795,-1.1201 2.2994,-0.6696 8.9169,4.8944 14.4265,14.2537 14.3785,24.4253 -0.0046,0.932 -0.762,1.6856 -1.6933,1.6853z"/><path class="fil0" d="M86.6988 129.277c-0.935,0 -1.6933,-0.7579 -1.6933,-1.6931l0 -24.6086c0,-0.935 0.7581,-1.6927 1.6933,-1.6927 0.935,-0.0003 1.693,0.7581 1.693,1.6932l0.0001 24.6074c0,0.9358 -0.7582,1.694 -1.6931,1.6938z"/><path class="fil0" d="M95.3777 104.669l-17.3578 0c-0.4492,0 -0.88,-0.1782 -1.1975,-0.496 -0.3173,-0.3176 -0.496,-0.7482 -0.496,-1.1974l0.0005 -8.0443c0,-0.9351 0.758,-1.693 1.6932,-1.693l0 -0.0001c0.9353,0 1.6934,0.7585 1.6934,1.6935l0.0001 6.3504 13.9706 0 0 -6.3508c0,-0.9351 0.7581,-1.693 1.6933,-1.693 0.935,-0.0001 1.6933,0.7584 1.6933,1.6934l0.0001 8.0434c0,0.9351 -0.7585,1.6939 -1.6932,1.6939z"/></g></g><text x="0" y="188.397" fill="#000000" font-size="5px" font-weight="bold" font-family="'Helvetica Neue', Helvetica, Arial-Unicode, Arial, Sans-serif">Created by Maan Icons</text><text x="0" y="193.397" fill="#000000" font-size="5px" font-weight="bold" font-family="'Helvetica Neue', Helvetica, Arial-Unicode, Arial, Sans-serif">from the Noun Project</text></svg>