<svg xmlns="http://www.w3.org/2000/svg" viewBox="0 0 100 125" fill="none" x="0px" y="0px"><path fill-rule="evenodd" clip-rule="evenodd" d="M84 14H66C58.8203 14 53 19.8203 53 27V45C53 46.1046 53.8954 47 55 47H73C80.1797 47 86 41.1797 86 34V16C86 14.8954 85.1046 14 84 14ZM66 12C57.7157 12 51 18.7157 51 27V45C51 47.2091 52.7909 49 55 49H73C81.2843 49 88 42.2843 88 34V16C88 13.7909 86.2091 12 84 12H66Z" fill="black"/><path fill-rule="evenodd" clip-rule="evenodd" d="M16 14H34C41.1797 14 47 19.8203 47 27V45C47 46.1046 46.1046 47 45 47H27C19.8203 47 14 41.1797 14 34V16C14 14.8954 14.8954 14 16 14ZM34 12C42.2843 12 49 18.7157 49 27V45C49 47.2091 47.2091 49 45 49H27C18.7157 49 12 42.2843 12 34V16C12 13.7909 13.7909 12 16 12H34Z" fill="black"/><path fill-rule="evenodd" clip-rule="evenodd" d="M17 86L35 86C42.1797 86 48 80.1797 48 73L48 55C48 53.8954 47.1046 53 46 53L28 53C20.8203 53 15 58.8203 15 66L15 84C15 85.1046 15.8954 86 17 86ZM35 88C43.2843 88 50 81.2843 50 73L50 55C50 52.7909 48.2091 51 46 51L28 51C19.7157 51 13 57.7157 13 66L13 84C13 86.2091 14.7909 88 17 88L35 88Z" fill="black"/><path fill-rule="evenodd" clip-rule="evenodd" d="M85 86L67 86C59.8203 86 54 80.1797 54 73L54 55C54 53.8954 54.8954 53 56 53L74 53C81.1797 53 87 58.8203 87 66L87 84C87 85.1046 86.1046 86 85 86ZM67 88C58.7157 88 52 81.2843 52 73L52 55C52 52.7909 53.7909 51 56 51L74 51C82.2843 51 89 57.7157 89 66L89 84C89 86.2091 87.2091 88 85 88L67 88Z" fill="black"/><text x="0" y="115" fill="#000000" font-size="5px" font-weight="bold" font-family="'Helvetica Neue', Helvetica, Arial-Unicode, Arial, Sans-serif">Created by IconManufaktur</text><text x="0" y="120" fill="#000000" font-size="5px" font-weight="bold" font-family="'Helvetica Neue', Helvetica, Arial-Unicode, Arial, Sans-serif">from the Noun Project</text></svg>