<svg xmlns="http://www.w3.org/2000/svg" data-name="Layer 1" viewBox="0 0 100 125" x="0px" y="0px"><title>14</title><g data-name="Group"><path data-name="Compound Path" d="M48.7,46.1a9.8,9.8,0,1,0-9.9,0A14.7,14.7,0,0,0,29.1,60h2A12.7,12.7,0,0,1,42.4,47.3h2.9A12.7,12.7,0,0,1,56.5,60h2A14.7,14.7,0,0,0,48.7,46.1ZM36,37.6a7.8,7.8,0,1,1,9.2,7.7H42.4A7.9,7.9,0,0,1,36,37.6Z"/><path data-name="Compound Path" d="M43.5,11.5A32,32,0,1,0,65.4,66.8L86.7,88.2a1,1,0,0,0,1.4-1.4L66.8,65.4A32,32,0,0,0,43.5,11.5Zm-30,32A30,30,0,1,1,65,64.4l-.4.2-.2.4A30,30,0,0,1,13.5,43.5Z"/></g><text x="0" y="115" fill="#000000" font-size="5px" font-weight="bold" font-family="'Helvetica Neue', Helvetica, Arial-Unicode, Arial, Sans-serif">Created by Ananth</text><text x="0" y="120" fill="#000000" font-size="5px" font-weight="bold" font-family="'Helvetica Neue', Helvetica, Arial-Unicode, Arial, Sans-serif">from the Noun Project</text></svg>