<svg xmlns="http://www.w3.org/2000/svg" data-name="Layer 1" viewBox="0 0 128 160" x="0px" y="0px"><title>miscellaneous 255 final</title><path d="M119.86206,49.65515h-2.00415a55.08535,55.08535,0,0,0-5.63892-13.5874l1.42487-1.42487a8.1474,8.1474,0,0,0,0-11.50879l-8.778-8.778a8.138,8.138,0,0,0-11.50879,0L91.93225,15.781a55.08534,55.08534,0,0,0-13.5874-5.63892V8.13794A8.14716,8.14716,0,0,0,70.20691,0H57.79309a8.14711,8.14711,0,0,0-8.13788,8.13794v2.00415A55.08576,55.08576,0,0,0,36.06775,15.781l-1.42487-1.42487a8.13788,8.13788,0,0,0-11.50873,0l-8.778,8.778a8.14731,8.14731,0,0,0-.00012,11.50867l1.425,1.425a55.083,55.083,0,0,0-5.63892,13.5874H8.13794A8.14712,8.14712,0,0,0,0,57.79309V70.20691a8.14711,8.14711,0,0,0,8.13794,8.13788h2.00421a55.082,55.082,0,0,0,5.63892,13.5874L14.3562,93.35706a8.14755,8.14755,0,0,0-.00012,11.50873l8.77808,8.778a8.1378,8.1378,0,0,0,11.50873-.00006l1.42474-1.42474a55.07433,55.07433,0,0,0,13.58759,5.63892v2.00421A8.14714,8.14714,0,0,0,57.79309,128H70.20691a8.1472,8.1472,0,0,0,8.13794-8.13794v-2.00421a55.07488,55.07488,0,0,0,13.58752-5.63892l1.42474,1.42474a8.1378,8.1378,0,0,0,11.50879,0l8.77789-8.77777a8.14755,8.14755,0,0,0,.00012-11.50873l-1.42493-1.425a55.08437,55.08437,0,0,0,5.63892-13.5874h2.00415A8.14711,8.14711,0,0,0,128,70.20691V57.79309A8.14712,8.14712,0,0,0,119.86206,49.65515ZM124,70.20691a4.13794,4.13794,0,0,1-4.13794,4.13788h-5.17468a51.416,51.416,0,0,1-7.53955,18.17316l3.6676,3.66754a4.13816,4.13816,0,0,1,0,5.85193l-8.778,8.77783a4.13779,4.13779,0,0,1-5.85193,0l-3.66742-3.66742a51.41748,51.41748,0,0,1-18.17328,7.53955v5.17468A4.138,4.138,0,0,1,70.20691,124H57.79309a4.13794,4.13794,0,0,1-4.13788-4.13794v-5.17468a51.417,51.417,0,0,1-18.17328-7.53955l-3.66748,3.66742a4.13772,4.13772,0,0,1-5.85187,0l-8.778-8.77783a4.138,4.138,0,0,1,0-5.85193l3.66754-3.66754a51.416,51.416,0,0,1-7.53955-18.17316H8.13794A4.13794,4.13794,0,0,1,4,70.20691V57.79309a4.13792,4.13792,0,0,1,4.13794-4.13794h5.17468A51.41688,51.41688,0,0,1,20.85217,35.482l-3.66754-3.66754a4.138,4.138,0,0,1,0-5.85193l8.778-8.778a4.13786,4.13786,0,0,1,5.85187,0l3.6676,3.66754a51.41743,51.41743,0,0,1,18.17316-7.53949V8.13794A4.13782,4.13782,0,0,1,57.79309,4H70.20691a4.13788,4.13788,0,0,1,4.13794,4.13794v5.17468A51.4179,51.4179,0,0,1,92.518,20.85211l3.66754-3.66754a4.13794,4.13794,0,0,1,5.85193,0l8.778,8.778a4.13816,4.13816,0,0,1,0,5.85193l-3.6676,3.66754a51.41688,51.41688,0,0,1,7.53955,18.17316h5.17468A4.13792,4.13792,0,0,1,124,57.79309Z"/><path d="M64,18a45.99514,45.99514,0,0,0-12.871,90.15411c-.05634-.16888-.11462-.33557-.16193-.51465-.36493-1.41809-.80066-2.79785-1.28015-4.14471a42,42,0,1,1,28.62628,0c-.4776,1.341-.91119,2.71356-1.27368,4.12262-.048.1864-.10779.36041-.166.536A45.99514,45.99514,0,0,0,64,18Z"/><path d="M86.71,79.76c1.02-1.73,1.88-3.33,2.63-4.88A32.90921,32.90921,0,0,0,93,60.58C93,43.72,80.25,30,64.58,30H63.42C47.75,30,35,43.72,35,60.58a32.86905,32.86905,0,0,0,3.66,14.29c.75,1.56,1.61,3.16,2.63,4.88.67,1.13,1.47,2.38,2.31,3.69l.09.13c3.67,5.73,8.71,13.58,11.15,23.05a4.96689,4.96689,0,0,0,1.36,2.29A4.02853,4.02853,0,0,0,58.95,110h1.4V79.21A11.64808,11.64808,0,0,1,57.74,58V68.88L64,72.55l6.26-3.67V58a11.64808,11.64808,0,0,1-2.61,21.21V110h1.4a4.02254,4.02254,0,0,0,2.74-1.08,4.96713,4.96713,0,0,0,1.37-2.29c2.44-9.48,7.47-17.32,11.15-23.05C85.2,82.19,86.02,80.91,86.71,79.76Zm-5.76,1.65a100.69122,100.69122,0,0,0-9.3,17.14V81.86a15.63152,15.63152,0,0,0,.67-27.29A4.00162,4.00162,0,0,0,70.26,54a3.951,3.951,0,0,0-1.97.52A4.00913,4.00913,0,0,0,66.26,58v8.59L64,67.92l-2.26-1.33V58a4.00913,4.00913,0,0,0-2.03-3.48A3.951,3.951,0,0,0,57.74,54a4.00162,4.00162,0,0,0-2.06.57,15.63152,15.63152,0,0,0,.67,27.29V98.54a101.36272,101.36272,0,0,0-9.29-17.13c-.88-1.36-1.67-2.59-2.33-3.7-.96-1.62-1.77-3.12-2.47-4.56995A29.062,29.062,0,0,1,39,60.58C39,45.92,49.95,34,63.42,34h1.16C78.05,34,89,45.92,89,60.58A29.062,29.062,0,0,1,85.74,73.14c-.7,1.45-1.51,2.93994-2.48,4.58C82.61,78.81,81.82,80.05,80.95,81.41Z"/><text x="0" y="143" fill="#000000" font-size="5px" font-weight="bold" font-family="'Helvetica Neue', Helvetica, Arial-Unicode, Arial, Sans-serif">Created by WEBTECHOPS LLP</text><text x="0" y="148" fill="#000000" font-size="5px" font-weight="bold" font-family="'Helvetica Neue', Helvetica, Arial-Unicode, Arial, Sans-serif">from the Noun Project</text></svg>