<svg xmlns="http://www.w3.org/2000/svg" version="1.1" viewBox="-5.0 -10.0 110.0 135.0">
 <path d="m83.812 91.102c-0.74219 0-1.3438 0.60156-1.3438 1.3438v3.8633h-73.508c-2.2852 0-4.1445-1.8594-4.1445-4.1445 0-2.2852 1.8594-4.1445 4.1445-4.1445h7.2383c0.35547 0 0.69922-0.14062 0.95312-0.39453s0.39453-0.59766 0.39453-0.95312l-0.13672-44.98h18.648l0.72656 1.2578c-0.9375 0.68359-1.5508 1.7852-1.5508 3.0312 0 2.0703 1.6797 3.7539 3.7461 3.7539h0.48828c0.63672 3.4609 3.6719 6.0898 7.3125 6.0898s6.6758-2.6289 7.3125-6.0898h0.48828c2.0703 0 3.7539-1.6836 3.7539-3.7539 0-1.2461-0.61328-2.3516-1.5547-3.0312l0.72266-1.2539h24.969l-0.003906 29.336c0 0.74219 0.60156 1.3438 1.3438 1.3438s1.3438-0.60156 1.3438-1.3438l0.003906-30.688c0-0.74219-0.60156-1.3438-1.3438-1.3438l-24.773-0.003906c0.10156-0.17578 0.20312-0.34766 0.30859-0.52734 2.4336-4.1562 4.9453-8.4531 4.9453-13.449 0-9.6602-7.8594-17.516-17.516-17.516s-17.512 7.8594-17.512 17.516c0 4.957 2.4961 9.2461 4.9141 13.391 0.11328 0.19531 0.22656 0.39062 0.33984 0.58594h-17.121v-2.7461c0-0.74219-0.60156-1.3438-1.3438-1.3438h-7.0977c-3.3359 0-6.1641 2.3828-6.7344 5.6719-0.011718 0.074219-0.019531 0.15234-0.019531 0.23047v50.305c-0.054687 0.34375-0.082031 0.69531-0.082031 1.0547 0 3.7656 3.0664 6.832 6.8359 6.832h74.852c0.74219 0 1.3438-0.60156 1.3438-1.3438v-5.207c0-0.74609-0.60156-1.3477-1.3438-1.3477zm-37.035-37.977c-2.1484 0-3.9688-1.4375-4.5508-3.3984h9.1016c-0.58203 1.9648-2.4023 3.3984-4.5508 3.3984zm7.8008-6.0898h-15.602c-0.58203 0-1.0586-0.47656-1.0586-1.0625 0-0.58203 0.47266-1.0586 1.0586-1.0586h15.602c0.58594 0 1.0625 0.47266 1.0625 1.0586 0 0.57812-0.48828 1.0625-1.0625 1.0625zm-13.148-21.465h-2.0742c-1.0195 0-1.8516-0.83203-1.8516-1.8516s0.83203-1.8516 1.8516-1.8516c1.1094 0 1.7344 1.0156 1.8633 2.0195zm10.914-1.6836c0.125-1.0039 0.75-2.0195 1.8633-2.0195 1.0195 0 1.8516 0.83203 1.8516 1.8516s-0.83203 1.8516-1.8516 1.8516h-2.0742zm-6.1016 18.34-1.7617-13.965h4.5977l-1.7656 13.965zm-14.285-17.207c0-8.1758 6.6484-14.824 14.82-14.824 8.1758 0 14.824 6.6523 14.824 14.824 0 4.2695-2.3281 8.2461-4.5781 12.094-0.48047 0.82031-0.97656 1.6641-1.4375 2.4961l-1.5078 2.6172h-4.0586l1.7656-13.965h2.4141c2.5039 0 4.543-2.0391 4.543-4.543s-2.0391-4.543-4.543-4.543c-2.3477 0-4.2109 1.8008-4.5312 4.375l-0.19922 1.5938-0.054688 0.42578h-5.2773l-0.054688-0.42578-0.19922-1.5977c-0.32812-2.5742-2.1914-4.3711-4.5312-4.3711-2.5039 0-4.543 2.0391-4.543 4.543s2.0391 4.543 4.543 4.543h2.4141l1.7617 13.965h-4.0586l-1.5078-2.6172c-0.46875-0.84766-0.97266-1.7148-1.4609-2.5547-2.2305-3.8359-4.543-7.8047-4.543-12.035zm-22.996 12.578h5.7539v24.863h0.066406l0.070312 22.867h-5.8906c-1.5195 0-2.9258 0.5-4.0625 1.3438v-45.742c0.38281-1.9375 2.0781-3.332 4.0625-3.332zm85.453 36.32h-50.23c-0.28125 0-0.55859 0.089843-0.78516 0.25391l-9.0078 6.4766c-0.35156 0.25391-0.55859 0.66016-0.55859 1.0938 0 0.43359 0.20703 0.83984 0.55859 1.0938l9.0078 6.4805c0.23047 0.16406 0.50391 0.25391 0.78516 0.25391h50.23c1.9375 0 3.4609-1.9258 3.4609-4.3867v-6.8867c0-2.457-1.5195-4.3789-3.4609-4.3789zm-48.883 9.168h42.539v3.7891h-42.539zm42.539-2.6914h-42.539v-3.7852h42.539zm-45.23-2.5078v7.707l-5.3594-3.8555zm52.344 7.293c0 1.0547-0.53125 1.6953-0.76953 1.6953h-3.6562l0.003907-10.266h3.6562c0.23438 0 0.76953 0.63672 0.76953 1.6875zm-70.242-13.254v6.8906c0 0.87109 0.71094 1.5781 1.5781 1.5781h4.2148c0.74219 0 1.3438 0.60156 1.3438 1.3438 0 0.74219-0.60156 1.3438-1.3438 1.3438h-4.2148c-2.3555 0-4.2695-1.9141-4.2695-4.2695v-6.8906c0-2.3555 1.9141-4.2695 4.2695-4.2695h17.117c0.058593 0 0.11328 0.003906 0.17188 0.011718 0.054687-0.007812 0.11328-0.011718 0.17188-0.011718h27.246c0.87109 0 1.5781-0.71094 1.5781-1.5859v-6.8867c0-0.875-0.71094-1.5859-1.5781-1.5859l-16.988 0.003906c-0.74219 0-1.3438-0.60156-1.3438-1.3438 0-0.74219 0.60156-1.3438 1.3438-1.3438h16.988c2.3555 0 4.2695 1.918 4.2695 4.2773v6.8867c0 2.3594-1.9141 4.2773-4.2695 4.2773l-27.242-0.007812c-0.058594 0-0.11328-0.003906-0.17188-0.011719-0.054688 0.007813-0.11328 0.011719-0.17188 0.011719h-17.121c-0.87109 0-1.5781 0.71094-1.5781 1.582zm38.281-55.852c-0.37109-0.64453-0.15234-1.4648 0.48828-1.8398l2.5-1.4492c0.64453-0.37109 1.4648-0.15234 1.8398 0.48828 0.37109 0.64453 0.15234 1.4648-0.48828 1.8398l-2.5 1.4492c-0.21094 0.12109-0.44531 0.18359-0.67188 0.18359-0.46484 0-0.91797-0.23828-1.168-0.67188zm3.8828 8.1445h2.8906c0.74219 0 1.3438 0.60156 1.3438 1.3438s-0.60156 1.3438-1.3438 1.3438h-2.8906c-0.74219 0-1.3438-0.60156-1.3438-1.3438s0.60156-1.3438 1.3438-1.3438zm-44.891 1.3477c0-0.74219 0.60156-1.3438 1.3438-1.3438h2.8906c0.74219 0 1.3438 0.60156 1.3438 1.3438 0 0.74219-0.60156 1.3438-1.3438 1.3438h-2.8906c-0.74219 0-1.3438-0.60156-1.3438-1.3438zm3.2969-12.289c0.37109-0.64453 1.1953-0.86328 1.8398-0.48828l2.5 1.4492c0.64453 0.37109 0.86328 1.1953 0.48828 1.8398-0.25 0.42969-0.69922 0.67188-1.1641 0.67188-0.23047 0-0.46094-0.058594-0.67188-0.18359l-2.5-1.4492c-0.64844-0.375-0.86719-1.1953-0.49219-1.8398zm19.922-8.0391v-2.8945c0-0.74219 0.60156-1.3438 1.3438-1.3438 0.74219 0 1.3438 0.60156 1.3438 1.3438v2.8906c0 0.74219-0.60156 1.3438-1.3438 1.3438-0.74219 0.003906-1.3438-0.59766-1.3438-1.3398zm10.348 2.043 1.4414-2.5c0.37109-0.64453 1.1953-0.86328 1.8398-0.49219 0.64453 0.37109 0.86328 1.1953 0.49219 1.8398l-1.4414 2.5c-0.25 0.43359-0.69922 0.67188-1.1641 0.67188-0.22656 0-0.46094-0.058593-0.67188-0.17969-0.64453-0.37109-0.86719-1.1953-0.49609-1.8398zm-21.773-1.1523c-0.37109-0.64453-0.15234-1.4648 0.49219-1.8398 0.64453-0.37109 1.4648-0.15234 1.8398 0.49219l1.4414 2.5c0.37109 0.64453 0.15234 1.4648-0.49219 1.8398-0.21094 0.12109-0.44141 0.17969-0.67187 0.17969-0.46484 0-0.91797-0.24219-1.1641-0.67188z"/>
<text x="0.0" y="117.5" font-size="5.0" font-weight="bold" font-family="Arbeit Regular, Helvetica, Arial-Unicode, Arial, Sans-serif" fill="#000000">Created by kakhim</text><text x="0.0" y="122.5" font-size="5.0" font-weight="bold" font-family="Arbeit Regular, Helvetica, Arial-Unicode, Arial, Sans-serif" fill="#000000">from Noun Project</text></svg>