<svg width="490" height="468" viewBox="0 0 490 468" fill="none" xmlns="http://www.w3.org/2000/svg">
<path d="M428.227 24.5338C427.609 22.6306 426.736 20.82 425.631 19.1514C425.072 18.3197 424.351 17.6094 423.511 17.0632C422.67 16.5169 421.729 16.1458 420.742 15.9723C419.751 15.8287 418.741 16.0174 417.869 16.5088C416.997 17.0003 416.313 17.7669 415.923 18.6886C415.631 14.433 415.027 10.0567 412.905 6.3645C410.782 2.67229 406.798 -0.245261 402.542 0.0163128C398.518 0.267826 395.077 3.24574 393.166 6.78704C391.254 10.3283 390.6 14.3928 389.977 18.3768C388.447 16.5055 385.238 17.089 383.649 18.8999C382.059 20.7108 381.636 23.2461 381.314 25.6405L428.78 26.1334L428.227 24.5338Z" fill="#F5F5F5"/>
<path d="M159.388 347.215L146.159 359.549C145.927 359.711 145.734 359.922 145.593 360.167C145.452 360.412 145.367 360.686 145.344 360.968C145.414 361.974 146.853 362.155 147.859 361.974L157.477 360.233L152.829 366.551C157.443 365.167 161.719 362.837 165.384 359.71C166.421 361.315 167.278 363.029 167.94 364.821C171.482 359.452 174.325 353.654 176.401 347.567L159.388 347.215Z" fill="#F5F5F5"/>
<path d="M52.7559 76.7574C52.7559 76.7574 122.445 26.0222 130.312 25.4488C138.18 24.8753 155.826 22.0684 155.826 22.0684C155.826 22.0684 212.829 54.2621 218.714 49.4028C224.6 44.5436 268.433 10.2574 277.347 8.57726C286.26 6.89715 316.875 4.08021 319.993 4.6436C323.112 5.20699 372.308 42.8736 372.308 42.8736L391.987 40.6502L411.202 51.8677L459.603 77.4415L52.7559 76.7574Z" fill="#F5F5F5"/>
<path d="M488.932 87.1992H1.56055V104.111H488.932V87.1992Z" fill="#E0E0E0"/>
<path d="M487.1 77.4324L484.344 72.7039C483.554 74.4126 482.417 75.9375 481.003 77.1809C479.444 76.2216 478.283 74.732 477.734 72.9856C476.375 74.1239 475.367 75.6238 474.826 77.3117C472.743 74.2665 471.526 70.7127 471.305 67.0298L466.657 76.2855C466.287 74.9441 465.497 73.7562 464.404 72.8951C464.283 74.2432 464.152 75.6014 464.021 76.9193L460.138 73.3981C459.957 74.7261 459.766 76.0541 459.575 77.4223C459.112 76.1446 458.639 74.867 458.166 73.5893L454.866 77.9656C454.635 76.4364 454.393 74.9474 454.162 73.378L449.252 77.4927L447.945 72.6838L445.158 76.708L438.236 70.3297L438.639 76.5772L432.602 70.4403L434.775 77.4827L430.751 75.048C430.419 76.1849 430.077 77.3217 429.745 78.4586C428.527 77.5484 427.697 76.2118 427.421 74.7161C426.321 75.8428 425.221 76.9663 424.121 78.0863C423.622 76.9242 423.579 75.6167 424.001 74.4243L420.288 78.4485C420.339 75.7322 420.399 73.0058 420.449 70.2794C418.846 72.4211 417.58 74.7962 416.697 77.3217C415.162 75.3958 413.909 73.2618 412.974 70.9836C413.336 73.1164 413.709 75.2392 414.081 77.372L409.715 73.7603L410.469 77.4726L407.3 75.6617L405.982 78.0058L405.399 72.4726L401.706 77.4425C399.929 74.2163 399.089 70.5573 399.282 66.8789C397.687 68.1314 396.597 69.9176 396.213 71.9092C395.873 73.8582 395.779 75.8421 395.932 77.8147C393.663 75.8325 392.064 73.1967 391.354 70.2693C390.288 72.0399 390.68 74.2231 391.103 76.2151C389.591 74.5335 387.817 73.1067 385.851 71.9896L387.571 77.7744H387.149L384.875 73.881C384.226 75.3269 383.319 76.6428 382.199 77.7644H380.69C379.551 76.8255 378.711 75.5734 378.276 74.1627C377.132 75.1266 376.232 76.3468 375.65 77.7241H374.895C373.116 74.8473 372.079 71.5735 371.877 68.1968L367.209 77.5028C366.842 76.1594 366.056 74.968 364.965 74.1024C364.845 75.3197 364.734 76.537 364.623 77.7543H364.13L360.7 74.6456C360.549 75.6517 360.408 76.7181 360.257 77.7543H359.804C359.452 76.7483 359.09 75.7925 358.728 74.8066L356.505 77.7543H355.207C355.046 76.7483 354.875 75.6517 354.714 74.6054L350.961 77.7543H349.553C349.201 76.4666 348.849 75.1889 348.547 73.9112L345.881 77.7443H345.559L338.828 71.557L339.19 77.7443C337.178 75.7322 335.166 73.6932 333.154 71.6275L335.056 77.7443H333.707L331.172 76.2251L330.719 77.7342H328.496C328.167 77.1648 327.942 76.5413 327.832 75.8931L326.021 77.7342H324.14C324.075 77.0095 324.164 76.2792 324.401 75.5913L322.389 77.7342H320.729C320.729 75.6215 320.82 73.5188 320.86 71.4162C319.407 73.3488 318.232 75.4755 317.369 77.7342H316.574C315.281 76.0128 314.206 74.1372 313.375 72.1506C313.697 74.0219 314.029 75.8931 314.381 77.7744H313.586L310.156 74.9273L310.729 77.7644H309.371L307.741 76.8288L307.208 77.7644H306.272L305.84 73.6396L302.771 77.7644H301.715C300.229 74.7487 299.536 71.4038 299.703 68.0459C298.124 69.3043 297.052 71.0906 296.685 73.0762C296.391 74.6104 296.283 76.1742 296.363 77.7342H295.196C293.612 75.9506 292.498 73.7996 291.956 71.4766C290.89 73.2372 291.282 75.4303 291.705 77.4123C290.189 75.731 288.412 74.3043 286.443 73.1868L286.674 73.9716C286.013 75.3746 285.107 76.6486 283.998 77.7342H282.701C281.492 76.791 280.598 75.5037 280.135 74.042C278.953 75.032 278.031 76.2961 277.449 77.7241H276.825C274.988 74.8231 273.915 71.5039 273.706 68.0761L269.059 77.3418C268.689 75.9974 267.899 74.8061 266.805 73.9414L266.453 77.7241H266.111L262.58 74.4645L262.127 77.704H261.745C261.362 76.698 260.99 75.6919 260.608 74.6859L258.294 77.704H257.107C256.936 76.6175 256.775 75.5209 256.604 74.4344L252.7 77.704H251.473L250.386 73.7402L247.64 77.704H247.489L240.627 71.386L240.99 77.5934L234.903 71.4564L236.835 77.694H235.768L233.022 76.0541L232.539 77.694H230.426C230.052 77.0768 229.799 76.3939 229.682 75.6819L227.75 77.694H226.01C225.918 76.9268 226.004 76.1488 226.261 75.4203L224.148 77.6839H222.589L222.71 71.2452C221.236 73.2147 220.047 75.3823 219.178 77.6839H218.514C217.199 75.912 216.117 73.9778 215.295 71.9293L216.301 77.6738H215.627L212.046 74.706L212.649 77.6738H211.482L209.631 76.6678L209.037 77.6738H208.182L207.73 73.4182L204.581 77.6638H203.675C202.171 74.6148 201.478 71.2295 201.663 67.8347C200.082 69.0912 199.01 70.8783 198.645 72.8649C198.547 73.3065 198.473 73.7532 198.424 74.203C198.323 74.0319 198.212 73.8609 198.112 73.6798C197.598 74.7204 196.949 75.6879 196.18 76.5571C195.007 74.9844 194.171 73.1862 193.725 71.2753C192.659 73.046 193.051 75.2291 193.484 77.2211C193.102 76.7986 192.699 76.3861 192.287 75.9937C191.869 75.3748 191.547 74.6965 191.331 73.9816C191.101 74.1731 190.883 74.3781 190.677 74.5953C189.899 73.9914 189.078 73.4434 188.222 72.9555C188.564 74.1124 188.916 75.2694 189.228 76.4263C189.003 76.8075 188.804 77.2042 188.635 77.6135H187.951C186.139 74.7215 185.081 71.4219 184.872 68.0157L180.214 77.2815C179.871 75.9641 179.121 74.7884 178.071 73.9213C177.95 75.1688 177.84 76.4062 177.719 77.6537H177.317L173.806 74.4645L173.353 77.6537H172.94C172.578 76.6477 172.206 75.6416 171.834 74.6356L169.56 77.6537H168.323C168.162 76.5772 167.991 75.5108 167.83 74.4344L163.986 77.6437H162.689C162.337 76.3358 161.974 75.0279 161.622 73.7301L158.906 77.6437H158.715L151.914 71.376L152.276 77.5833L146.189 71.4464C146.823 73.4585 147.467 75.5712 148.101 77.6336H146.884L144.228 76.044L143.755 77.6336H141.592C141.245 77.0397 141.007 76.3891 140.887 75.712L139.006 77.6336H137.205C137.121 76.883 137.207 76.1231 137.457 75.4102L135.445 77.6235H133.805C133.855 75.4907 133.895 73.3679 133.936 71.2351C132.468 73.1871 131.286 75.3382 130.425 77.6235H129.7C128.381 75.87 127.289 73.9568 126.451 71.9293L127.457 77.6235H126.763L123.241 74.706C123.433 75.712 123.634 76.6477 123.825 77.6235H122.587L120.827 76.6175L120.263 77.6235H119.368L118.925 73.4283L115.807 77.6235H114.801C113.301 74.5908 112.608 71.223 112.788 67.8447C111.209 69.1025 110.137 70.889 109.77 72.875C109.472 74.4322 109.364 76.02 109.448 77.6034H108.342C106.727 75.8013 105.592 73.6216 105.042 71.2653C103.975 73.0359 104.368 75.2191 104.79 77.2111C103.279 75.5242 101.502 74.0967 99.5287 72.9856C99.8507 73.9917 100.163 75.0983 100.484 76.1648L98.5629 72.875C97.7808 74.5966 96.6424 76.1328 95.2228 77.3821C93.6376 76.4235 92.4543 74.922 91.8928 73.1567C90.5375 74.2978 89.5301 75.7968 88.9853 77.4827C86.9309 74.4418 85.7321 70.9044 85.5144 67.2411L80.8664 76.4968C80.4729 75.1695 79.6701 74.0005 78.5727 73.1567L78.1803 77.1809L74.2969 73.6597C74.1158 74.9977 73.9247 76.3257 73.7436 77.6839C73.2708 76.4062 72.7979 75.1285 72.3351 73.8508L69.0252 78.1869C68.7938 76.6577 68.5524 75.1688 68.321 73.5993L63.3813 77.7141C62.9386 76.1145 62.506 74.5048 62.0633 72.9052L59.2766 76.9294L52.3549 70.551L52.7171 76.7583L46.6808 70.6214L48.8539 77.6638L44.8297 75.2392L43.8236 78.6497C42.6051 77.7395 41.7752 76.4029 41.4996 74.9072L38.2099 78.2775C37.7004 77.1182 37.6536 75.8081 38.0791 74.6154L34.3667 78.6396L34.5378 70.4705C32.9282 72.6101 31.6591 74.9856 30.7751 77.5129C29.2442 75.5845 27.9912 73.4511 27.0527 71.1747C27.425 73.3076 27.7872 75.4303 28.1594 77.5632L23.7428 73.8911L24.4974 77.6034L21.3283 75.7925L20.0104 78.1266L19.4269 72.5933L15.7447 77.6235C13.9662 74.3974 13.1231 70.7391 13.3101 67.06C11.7288 68.3165 10.6565 70.1037 10.2919 72.0903C9.94813 74.0388 9.85011 76.0228 10.0002 77.9958C7.79231 75.9978 6.24191 73.3775 5.55341 70.4806C4.48699 72.2512 4.88941 74.4344 5.31195 76.4263C3.78451 74.7229 1.99049 73.2788 0 72.1506L1.72035 77.9354L1.15696 81.024C-3.59792e-07 87.2012 0.482904 91.9296 6.18722 94.1832C11.8915 96.4367 30.8858 94.0825 37.0529 94.4246C55.524 95.4307 71.5303 94.0524 95.5447 95.4307C145.656 98.3482 200.305 96.3763 250.477 93.7606C250.477 93.7606 264.853 98.4086 286.413 97.8854C307.973 97.3623 331.766 97.6238 346.494 96.8291C361.223 96.0343 389.252 96.5675 401.717 96.8291C414.181 97.0906 422.391 97.0906 428.055 95.823C433.719 94.5554 443.91 95.5614 453.257 95.5614C462.603 95.5614 470.249 99.5856 479.877 97.976C489.505 96.3663 488.649 90.8229 488.931 87.1307C489.213 83.4385 487.1 77.4324 487.1 77.4324Z" fill="#EBEBEB"/>
<path d="M4.02539 179.859C45.3238 187.213 85.5961 194.407 127.418 191.056C165.165 188.038 204.179 180.795 240.095 192.726C250.79 196.278 261.454 201.549 272.691 200.644C283.356 199.789 292.742 193.471 303.034 190.533C313.326 187.596 324.302 188.129 335.026 188.521C385.319 190.563 478.882 192.042 489.948 179.738L4.02539 179.859Z" fill="#F5F5F5"/>
<path d="M63.0485 134.799C61.4388 128.411 57.5957 120.976 53.8633 115.402C56.9944 117.727 59.5117 120.779 61.1974 124.296C62.9278 127.706 63.3705 131.177 64.4972 134.799" fill="#F5F5F5"/>
<path d="M65.2431 134.798C61.9533 123.077 59.579 111.659 54.9512 99.5859C60.9875 109.968 64.5489 123.107 66.5308 134.798" fill="#F5F5F5"/>
<path d="M71.4294 107.484C69.7504 116.488 69.0355 125.644 69.2965 134.799H70.373C70.3328 125.573 71.4294 116.71 71.4294 107.484Z" fill="#F5F5F5"/>
<path d="M67.3143 134.796C64.8536 120.246 64.5891 105.41 66.5295 90.7812C67.0024 99.4232 66.942 107.884 67.4048 116.536C67.7267 122.351 68.5618 129.172 68.5618 134.796" fill="#F5F5F5"/>
<path d="M74.025 134.797C71.4822 135.062 68.9239 135.15 66.3689 135.059C63.814 135.15 61.2557 135.063 58.7129 134.797C61.2659 134.534 63.8339 134.443 66.3991 134.526C68.9443 134.446 71.492 134.537 74.025 134.797Z" fill="#E0E0E0"/>
<path d="M71.6004 135.984C69.4646 136.242 67.3115 136.33 65.1617 136.245C63.0085 136.33 60.8521 136.242 58.7129 135.984C60.8516 135.719 63.0085 135.631 65.1617 135.722C67.3115 135.632 69.465 135.719 71.6004 135.984Z" fill="#E0E0E0"/>
<path d="M151.259 110.783C149.65 104.385 145.807 96.9502 142.074 91.3867C145.213 93.7168 147.729 96.7854 149.398 100.32C151.129 103.731 151.581 107.202 152.698 110.834" fill="#F5F5F5"/>
<path d="M153.452 110.782C150.163 99.0616 147.788 87.6429 143.15 75.5703C149.187 85.9628 152.748 99.0918 154.74 110.782" fill="#F5F5F5"/>
<path d="M159.61 83.4688C157.939 92.4729 157.228 101.629 157.488 110.783H158.554C158.534 101.558 159.641 92.6942 159.61 83.4688Z" fill="#F5F5F5"/>
<path d="M155.525 110.784C153.059 96.2349 152.795 81.3976 154.74 66.7695C155.213 75.4015 155.143 83.8724 155.616 92.5144C155.927 98.3394 156.773 105.15 156.773 110.784" fill="#F5F5F5"/>
<path d="M162.236 110.785C159.693 111.043 157.135 111.131 154.58 111.046C152.022 111.131 149.461 111.044 146.914 110.785C149.46 110.52 152.022 110.432 154.58 110.523C157.135 110.432 159.693 110.52 162.236 110.785Z" fill="#E0E0E0"/>
<path d="M159.812 111.961C157.672 112.219 155.516 112.307 153.363 112.222C151.21 112.307 149.053 112.219 146.914 111.961C149.053 111.702 151.21 111.615 153.363 111.699C155.516 111.615 157.672 111.702 159.812 111.961Z" fill="#E0E0E0"/>
<path d="M211.453 133.268C209.843 126.879 206 119.445 202.258 113.871C205.389 116.196 207.906 119.248 209.592 122.765C211.322 126.175 211.775 129.646 212.892 133.268" fill="#F5F5F5"/>
<path d="M213.636 133.267C210.346 121.546 207.982 110.128 203.344 98.1055C209.38 108.488 212.941 121.617 214.933 133.317" fill="#F5F5F5"/>
<path d="M219.801 105.953C218.121 114.956 217.409 124.113 217.679 133.267H218.745C218.725 124.042 219.822 115.179 219.801 105.953Z" fill="#F5F5F5"/>
<path d="M215.719 133.269C213.247 118.72 212.983 103.882 214.934 89.2539C215.397 97.8858 215.336 106.357 215.809 115.009C216.121 120.824 216.966 127.645 216.966 133.269" fill="#F5F5F5"/>
<path d="M222.418 133.27C219.874 133.529 217.317 133.616 214.762 133.531C212.207 133.616 209.649 133.528 207.105 133.27C209.649 133.011 212.207 132.923 214.762 133.008C217.317 132.923 219.874 133.01 222.418 133.27Z" fill="#E0E0E0"/>
<path d="M220.003 134.445C217.864 134.71 215.707 134.797 213.554 134.707C211.401 134.797 209.244 134.71 207.105 134.445C209.245 134.186 211.401 134.099 213.554 134.184C215.707 134.099 217.864 134.186 220.003 134.445Z" fill="#E0E0E0"/>
<path d="M285.447 133.377C283.837 126.989 280.004 119.554 276.262 113.98C279.393 116.305 281.91 119.358 283.596 122.874C285.326 126.284 285.769 129.755 286.896 133.377" fill="#F5F5F5"/>
<path d="M287.642 133.38C284.352 121.659 281.988 110.241 277.35 98.168C283.386 108.55 286.947 121.679 288.939 133.38" fill="#F5F5F5"/>
<path d="M293.767 106.062C292.088 115.066 291.373 124.222 291.634 133.377H292.761C292.761 124.151 293.828 115.288 293.767 106.062Z" fill="#F5F5F5"/>
<path d="M289.742 133.378C287.281 118.828 287.017 103.992 288.957 89.3633C289.43 97.9952 289.37 106.466 289.833 115.118C290.154 120.933 290.989 127.754 290.989 133.378" fill="#F5F5F5"/>
<path d="M296.423 133.379C293.88 133.638 291.322 133.725 288.767 133.64C286.212 133.725 283.655 133.638 281.111 133.379C283.655 133.12 286.212 133.033 288.767 133.117C291.322 133.033 293.88 133.12 296.423 133.379Z" fill="#E0E0E0"/>
<path d="M293.999 134.527C291.864 134.792 289.71 134.88 287.56 134.789C285.407 134.879 283.25 134.792 281.111 134.527C283.251 134.269 285.407 134.181 287.56 134.266C289.71 134.181 291.863 134.268 293.999 134.527Z" fill="#E0E0E0"/>
<path d="M342.711 119.768C341.111 113.379 337.268 105.945 333.525 100.371C336.656 102.696 339.174 105.748 340.86 109.265C342.59 112.675 343.043 116.146 344.159 119.768" fill="#F5F5F5"/>
<path d="M344.905 119.767C341.615 108.046 339.251 96.6273 334.613 84.5547C340.65 94.9371 344.211 108.076 346.203 119.767" fill="#F5F5F5"/>
<path d="M351.112 92.4531C349.431 101.456 348.72 110.613 348.989 119.767H350.056C349.995 110.542 351.112 101.679 351.112 92.4531Z" fill="#F5F5F5"/>
<path d="M346.978 119.765C344.516 105.215 344.255 90.3775 346.204 75.75C346.666 84.3819 346.606 92.8529 347.079 101.505C347.391 107.32 348.236 114.141 348.236 119.765" fill="#F5F5F5"/>
<path d="M353.687 119.765C351.144 120.024 348.586 120.112 346.031 120.027C343.476 120.112 340.918 120.024 338.375 119.765C340.918 119.507 343.476 119.419 346.031 119.504C348.586 119.419 351.144 119.507 353.687 119.765Z" fill="#E0E0E0"/>
<path d="M351.273 120.945C346.98 121.294 342.667 121.294 338.375 120.945C342.667 120.596 346.98 120.596 351.273 120.945Z" fill="#E0E0E0"/>
<path d="M425.289 130.108C423.679 123.719 419.836 116.284 416.104 110.711C419.235 113.035 421.752 116.088 423.438 119.604C425.168 123.015 425.611 126.486 426.737 130.108" fill="#F5F5F5"/>
<path d="M427.481 130.11C424.192 118.39 421.817 106.971 417.189 94.8984C423.226 105.281 426.787 118.42 428.769 130.11" fill="#F5F5F5"/>
<path d="M433.609 102.793C431.93 111.796 431.215 120.953 431.476 130.107H432.603C432.603 120.882 433.669 112.018 433.609 102.793Z" fill="#F5F5F5"/>
<path d="M429.584 130.109C427.123 115.559 426.859 100.722 428.799 86.0938C429.272 94.7357 429.212 103.197 429.674 111.849C429.996 117.664 430.831 124.485 430.831 130.109" fill="#F5F5F5"/>
<path d="M436.263 130.109C431.165 130.458 426.049 130.458 420.951 130.109C426.049 129.76 431.165 129.76 436.263 130.109Z" fill="#E0E0E0"/>
<path d="M433.839 131.297C429.55 131.646 425.24 131.646 420.951 131.297C425.24 130.948 429.55 130.948 433.839 131.297Z" fill="#E0E0E0"/>
<path d="M460.913 34.3015C460.475 32.9448 459.852 31.655 459.062 30.4685C458.667 29.8736 458.154 29.3658 457.555 28.9765C456.957 28.5872 456.285 28.3246 455.581 28.2048C454.876 28.1018 454.156 28.2356 453.536 28.5851C452.915 28.9347 452.428 29.4803 452.15 30.1365C452.108 27.0834 451.372 24.08 449.997 21.3536C448.478 18.7178 445.641 16.6453 442.603 16.8365C439.745 17.0075 437.291 19.1303 435.922 21.6554C434.697 24.2538 433.915 27.0387 433.609 29.895C432.522 28.557 430.228 28.9795 429.101 30.2672C428.098 31.6737 427.521 33.34 427.441 35.0661L461.265 35.4182L460.913 34.3015Z" fill="#EBEBEB"/>
<path d="M73.6532 40.0269C73.2132 38.6711 72.5904 37.3815 71.802 36.1939C71.4063 35.5987 70.8936 35.0902 70.2952 34.6994C69.6968 34.3085 69.0251 34.0434 68.3211 33.9202C67.6151 33.8201 66.8958 33.9549 66.274 34.304C65.6522 34.653 65.1625 35.1969 64.8804 35.8518C64.8384 32.7988 64.1022 29.7953 62.7274 27.069C61.2083 24.4432 58.3511 22.3808 55.333 22.5619C52.4657 22.7329 50.011 24.8657 48.6528 27.3909C47.4349 29.9928 46.6662 32.7821 46.3791 35.6405C45.2926 34.3125 42.9988 34.725 41.872 36.0228C40.8732 37.4297 40.3068 39.0975 40.2422 40.8217L74.0657 41.1738L73.6532 40.0269Z" fill="#EBEBEB"/>
<path d="M215.044 25.4487C214.734 24.4878 214.294 23.5739 213.736 22.7323C213.453 22.3133 213.089 21.955 212.666 21.6786C212.243 21.4021 211.768 21.2131 211.271 21.1226C210.77 21.0499 210.259 21.1458 209.818 21.3953C209.377 21.6448 209.032 22.0337 208.836 22.5009C208.807 20.3358 208.284 18.2058 207.307 16.2735C206.806 15.3166 206.055 14.5137 205.134 13.9502C204.213 13.3868 203.156 13.084 202.076 13.0742C201.065 13.2044 200.102 13.5856 199.276 14.1831C198.451 14.7806 197.787 15.5753 197.347 16.4948C196.482 18.3375 195.938 20.3142 195.738 22.34C194.963 21.3943 193.343 21.6961 192.538 22.6116C191.826 23.6039 191.417 24.7817 191.361 26.002L215.325 26.2535L215.044 25.4487Z" fill="#F5F5F5"/>
<path d="M441.534 431.219H283.02C276.984 432.436 267.638 436.923 263.211 439.831C262.336 440.384 261.696 441.24 261.41 442.235C260.706 444.921 263.422 446.511 265.736 447.265C270.596 448.883 275.708 449.613 280.827 449.418C281.87 449.345 282.91 449.606 283.795 450.163C286.652 452.084 284.62 455.605 282.054 456.471C279.881 457.195 277.527 456.742 275.243 456.762C272.608 456.762 269.529 457.819 269.207 460.787C269.152 461.465 269.25 462.147 269.494 462.783C269.738 463.418 270.121 463.991 270.616 464.459C272.628 466.471 275.465 466.783 278.161 467.004C304.6 469.147 331.17 466.3 357.518 463.262C358.111 463.207 358.68 463.002 359.172 462.666C359.663 462.329 360.06 461.873 360.325 461.34C361.512 458.754 358.192 456.783 355.536 456.41L355.013 456.33C354.586 456.205 354.211 455.941 353.95 455.58C353.688 455.219 353.554 454.782 353.567 454.336C353.581 453.891 353.743 453.463 354.026 453.119C354.31 452.775 354.699 452.535 355.134 452.436L430.528 445.052C434.34 444.68 438.415 444.197 441.312 441.702C444.21 439.207 444.723 433.321 441.534 431.219Z" fill="#F5F5F5"/>
<path d="M186.421 441.652L173.192 453.976C172.961 454.139 172.768 454.351 172.628 454.596C172.487 454.841 172.401 455.114 172.377 455.395C172.447 456.401 173.886 456.582 174.902 456.401L184.51 454.661L179.862 460.979C184.48 459.594 188.759 457.265 192.428 454.137C193.46 455.745 194.317 457.458 194.983 459.248C198.52 453.882 201.359 448.087 203.434 442.004L186.421 441.652Z" fill="#E0E0E0"/>
<path d="M40.9546 440.918L27.7251 453.252C27.4932 453.414 27.3 453.625 27.1591 453.87C27.0182 454.116 26.9332 454.389 26.9102 454.671C26.9806 455.677 28.4192 455.848 29.4253 455.677L39.0431 453.936L34.3952 460.264C39.008 458.886 43.2837 456.563 46.9507 453.443C47.9824 455.022 48.8392 456.709 49.5061 458.474C53.046 453.108 55.8891 447.313 57.967 441.23L40.9546 440.918Z" fill="#E0E0E0"/>
<path d="M105.986 404.801L92.7465 417.135C92.5159 417.296 92.3235 417.505 92.1826 417.749C92.0418 417.992 91.9562 418.263 91.9316 418.543C92.0021 419.6 93.4508 419.731 94.4568 419.55L104.075 417.809L99.4167 424.127C104.035 422.75 108.315 420.424 111.982 417.296C113.015 418.9 113.871 420.61 114.538 422.397C118.074 417.028 120.916 411.235 122.999 405.153L105.986 404.801Z" fill="#E0E0E0"/>
<path d="M78.6207 271.258L65.3911 283.592C65.1592 283.754 64.966 283.965 64.8251 284.21C64.6843 284.455 64.5993 284.729 64.5762 285.011C64.6466 286.017 66.0852 286.198 67.0913 286.017L76.7092 284.286L72.0612 290.604C76.6757 289.22 80.9515 286.89 84.6167 283.763C85.6524 285.37 86.5124 287.083 87.1822 288.874C90.717 283.503 93.5566 277.705 95.633 271.62L78.6207 271.258Z" fill="#E0E0E0"/>
<path d="M40.7339 341.68L27.5044 354.014C27.2725 354.176 27.0793 354.387 26.9384 354.632C26.7975 354.877 26.7125 355.151 26.6895 355.432C26.7599 356.438 28.1985 356.62 29.2146 356.438L38.8224 354.708L34.2047 361.016C38.8223 359.632 43.1014 357.302 46.7703 354.175C47.7903 355.784 48.6367 357.498 49.2954 359.286C52.8323 353.916 55.672 348.118 57.7463 342.032L40.7339 341.68Z" fill="#F5F5F5"/>
<path d="M488.932 162.453H1.56055V180.632H488.932V162.453Z" fill="#AE7461"/>
<path d="M487.1 151.951L484.344 146.921C483.573 148.748 482.436 150.398 481.003 151.77C479.414 150.698 478.255 149.098 477.734 147.253C476.358 148.507 475.352 150.115 474.826 151.901C472.723 148.575 471.51 144.764 471.305 140.834L466.657 150.784C466.301 149.363 465.513 148.088 464.404 147.132C464.283 148.591 464.152 150.05 464.021 151.498L460.138 147.716C459.957 149.144 459.766 150.583 459.575 152.011C459.112 150.643 458.639 149.265 458.166 147.897L454.866 152.595C454.635 150.955 454.393 149.315 454.162 147.675L449.252 152.092L447.945 146.921L445.158 151.247L438.236 144.396L438.598 151.066L432.562 144.476L434.735 152.021L430.711 149.416C430.379 150.633 430.037 151.85 429.705 153.078C428.466 152.064 427.639 150.633 427.381 149.054L424.081 152.675C423.579 151.416 423.536 150.02 423.96 148.732L420.248 153.017C420.298 150.1 420.359 147.172 420.409 144.245C418.79 146.567 417.525 149.116 416.656 151.81C415.111 149.72 413.859 147.428 412.934 144.999C413.296 147.283 413.668 149.577 414.041 151.86L409.674 147.977L410.429 152.001L407.26 150.06L405.942 152.575L405.358 146.619L401.666 151.971C399.841 148.455 398.973 144.52 399.151 140.562C397.526 141.96 396.441 143.882 396.083 145.995C395.742 148.093 395.648 150.224 395.801 152.343C393.563 150.153 392.017 147.355 391.354 144.295C390.288 146.196 390.68 148.551 391.103 150.683C389.614 148.892 387.84 147.359 385.851 146.146L387.571 152.353H387.149L384.875 148.178C384.233 149.715 383.328 151.128 382.199 152.353H380.69C379.537 151.329 378.697 150.001 378.265 148.52C377.107 149.579 376.208 150.891 375.64 152.353H374.885C373.094 149.222 372.061 145.714 371.867 142.112L367.209 152.021C366.859 150.601 366.075 149.324 364.965 148.369C364.845 149.687 364.734 150.995 364.623 152.303H364.13L360.7 148.953C360.549 150.07 360.408 151.186 360.257 152.303H359.804C359.452 151.297 359.09 150.19 358.728 149.134C357.983 150.14 357.249 151.247 356.505 152.293H355.207C355.046 151.166 354.875 150.04 354.714 148.913L350.961 152.293H349.553C349.201 150.915 348.849 149.536 348.547 148.158C347.655 149.533 346.766 150.911 345.881 152.293H345.559L338.768 145.593L339.13 152.243L333.094 145.673L334.995 152.243H333.707L331.172 150.623L330.719 152.253H328.496C328.164 151.624 327.939 150.944 327.832 150.241L326.021 152.253H324.14C324.076 151.475 324.164 150.692 324.401 149.949L322.389 152.253H320.729C320.729 149.989 320.82 147.726 320.86 145.462C319.4 147.56 318.225 149.844 317.369 152.253H316.574C315.271 150.375 314.197 148.349 313.375 146.217C313.697 148.229 314.029 150.241 314.381 152.253H313.586C312.439 151.24 311.296 150.234 310.156 149.235L310.729 152.253H309.371L307.741 151.247L307.208 152.253H306.272L305.84 147.816L302.771 152.253H301.715C300.223 148.981 299.534 145.401 299.703 141.81C298.093 143.213 297.025 145.135 296.685 147.243C296.39 148.902 296.282 150.589 296.363 152.273H295.196C293.594 150.317 292.483 148.005 291.956 145.532C290.89 147.434 291.282 149.788 291.705 151.921C290.215 150.127 288.436 148.594 286.443 147.384L286.674 148.229C286.018 149.713 285.113 151.074 283.998 152.253H282.701C281.464 151.196 280.571 149.795 280.135 148.229C278.93 149.335 278.009 150.716 277.449 152.253H276.825C274.976 149.092 273.907 145.537 273.706 141.88L269.059 151.83C268.702 150.41 267.915 149.134 266.805 148.178L266.453 152.203H266.111L262.58 148.762L262.127 152.243H261.745C261.362 151.136 260.99 150.04 260.608 148.943L258.294 152.233H257.107C256.936 151.066 256.775 149.889 256.604 148.722L252.7 152.233H251.473L250.386 147.967L247.64 152.233H247.489L240.627 145.442L240.99 152.112L234.903 145.512L236.835 152.223H235.768L233.022 150.462L232.539 152.223H230.426C230.055 151.564 229.803 150.846 229.682 150.1L227.75 152.223H226.01C225.917 151.402 226.002 150.572 226.261 149.788L224.148 152.223H222.589L222.71 145.301C221.225 147.438 220.038 149.767 219.178 152.223H218.514C217.17 150.311 216.068 148.239 215.235 146.056L216.241 152.223H215.567L211.985 149.033L212.589 152.223H211.422L209.571 151.086L208.977 152.213H208.122L207.669 147.645L204.52 152.213H203.615C202.105 148.901 201.414 145.274 201.603 141.639C199.991 143.04 198.922 144.963 198.585 147.072C198.486 147.55 198.412 148.034 198.363 148.52L198.051 147.947C197.598 149.042 197.01 150.076 196.301 151.025C195.12 149.309 194.286 147.378 193.846 145.341C192.78 147.243 193.172 149.597 193.605 151.73C193.222 151.277 192.82 150.834 192.407 150.422C191.99 149.76 191.668 149.041 191.452 148.289C191.221 148.498 191.003 148.719 190.798 148.953C190.021 148.31 189.201 147.722 188.343 147.192C188.685 148.43 189.037 149.677 189.349 150.925C189.123 151.337 188.924 151.764 188.755 152.203H188.071C186.249 149.055 185.194 145.522 184.993 141.89C183.444 145.204 181.891 148.52 180.335 151.84C179.985 150.419 179.2 149.143 178.091 148.188C177.971 149.526 177.86 150.864 177.739 152.213H177.337L173.826 148.792L173.373 152.213H172.96C172.598 151.136 172.226 150.05 171.854 148.973L169.58 152.213H168.343C168.182 151.056 168.011 149.899 167.85 148.752L163.986 152.182H162.689C162.337 150.774 161.974 149.376 161.622 147.967L158.906 152.172H158.715L151.914 145.442L152.276 152.112C150.264 149.912 148.235 147.712 146.189 145.512C146.823 147.736 147.467 149.949 148.101 152.172H146.884L144.228 150.462C144.067 151.025 143.916 151.599 143.755 152.162H141.592C141.243 151.519 141.005 150.822 140.887 150.1C140.264 150.794 139.63 151.478 139.006 152.162H137.205C137.122 151.359 137.208 150.546 137.457 149.778L135.445 152.162H133.805C133.859 149.868 133.902 147.578 133.936 145.291C132.458 147.411 131.277 149.723 130.425 152.162H129.7C128.375 150.262 127.284 148.208 126.451 146.045L127.457 152.152H126.763L123.241 149.023C123.433 150.029 123.634 151.116 123.825 152.152H122.587L120.827 151.076L120.263 152.152H119.368L118.925 147.635L115.807 152.152H114.801C113.295 148.857 112.605 145.247 112.788 141.629C111.177 143.03 110.109 144.953 109.77 147.062C109.476 148.721 109.368 150.408 109.448 152.092H108.342C106.709 150.121 105.577 147.784 105.042 145.281C103.975 147.182 104.368 149.536 104.79 151.669C103.3 149.876 101.522 148.342 99.5287 147.132C99.8507 148.269 100.163 149.406 100.484 150.543C99.8406 149.365 99.1967 148.188 98.5629 147.011C97.7983 148.842 96.6608 150.494 95.2228 151.86C93.6387 150.787 92.4816 149.192 91.9531 147.353C90.5764 148.607 89.5706 150.215 89.0457 152.001C86.9503 148.672 85.7384 144.863 85.5245 140.935L80.8765 150.885C80.5244 149.467 79.7404 148.195 78.633 147.243L78.1803 151.629L74.2969 147.836C74.1158 149.275 73.9247 150.704 73.7436 152.132C73.2708 150.764 72.7979 149.386 72.3351 148.017L69.0252 152.726C68.7938 151.076 68.5524 149.436 68.321 147.796L63.3813 152.253C62.9386 150.532 62.506 148.812 62.0633 147.082C61.1378 148.53 60.2089 149.972 59.2766 151.408L52.3952 144.587L52.7574 151.257L46.7211 144.667L48.8941 152.213L44.8699 149.607L43.8639 153.269C42.6248 152.255 41.7984 150.824 41.5399 149.245L38.2501 152.867C37.7403 151.613 37.694 150.218 38.1193 148.933L34.407 153.219L34.578 144.436C32.9579 146.759 31.69 149.308 30.8154 152.001C29.272 149.91 28.0198 147.619 27.093 145.19C27.4652 147.474 27.8274 149.768 28.1996 152.052L23.8334 148.168L24.5879 152.192L21.4188 150.251L20.1009 152.766L19.5174 146.81L15.8353 152.162C14.0469 148.653 13.2075 144.738 13.4006 140.804C11.7926 142.208 10.7251 144.129 10.3825 146.237C10.0386 148.334 9.94072 150.465 10.0907 152.585C7.85742 150.391 6.31211 147.595 5.64395 144.536C4.57754 146.438 4.97996 148.792 5.4025 150.925C3.87221 149.092 2.0462 147.528 0 146.297L1.72035 152.514L1.15696 155.834C-3.59792e-07 162.474 0.482904 167.565 6.18722 169.979C11.8915 172.394 30.8858 169.869 37.0529 170.241C55.524 171.338 71.5303 169.839 95.5447 171.338C145.656 174.477 200.305 172.344 250.477 169.547C250.477 169.547 264.853 174.577 286.413 173.984C307.973 173.39 331.766 173.692 346.494 172.847C361.223 172.002 389.252 172.565 401.717 172.847C414.181 173.128 422.391 173.128 428.055 171.71C433.719 170.291 443.91 171.428 453.257 171.428C462.603 171.428 470.219 175.774 479.887 174.024C489.555 172.273 488.66 166.338 488.941 162.364C489.223 158.39 487.1 151.951 487.1 151.951Z" fill="#455A64"/>
<path d="M289.238 236.138C286.32 223.693 279.368 209.226 272.598 198.391C278.453 202.817 282.749 209.045 285.878 215.685C289.006 222.325 289.821 229.075 291.843 236.138" fill="#455A64"/>
<path d="M293.203 236.138C287.247 213.321 282.951 191.087 274.561 167.727C285.426 187.948 291.935 213.512 295.547 236.138" fill="#455A64"/>
<path d="M293.323 236.046C288.474 217.444 284.541 198.601 278.877 180.22C278.132 177.806 277.357 175.401 276.553 173.007C276.16 171.83 275.758 170.652 275.345 169.485C275.265 169.244 274.943 168.047 274.752 168.077C274.561 168.107 275.194 169.083 275.325 169.355C277.337 173.308 279.219 177.403 280.909 181.498C284.254 189.797 287.063 198.302 289.319 206.961C291.844 216.577 293.879 226.314 295.416 236.136C295.416 236.297 295.688 236.227 295.668 236.066C292.7 217.474 288.283 198.912 281.15 181.447C279.223 176.715 277.053 172.084 274.651 167.574C274.581 167.453 274.369 167.574 274.42 167.675C280.647 185.089 284.923 203.078 289.279 220.995C290.507 226.026 291.754 231.056 293.062 236.086C293.077 236.11 293.1 236.129 293.126 236.139C293.153 236.149 293.182 236.15 293.209 236.142C293.237 236.134 293.26 236.117 293.277 236.095C293.294 236.072 293.304 236.044 293.303 236.016L293.323 236.046Z" fill="#263238"/>
<path d="M304.359 182.918C301.322 200.487 300.035 218.315 300.516 236.138H302.448C302.408 218.13 304.4 200.926 304.359 182.918Z" fill="#455A64"/>
<path d="M296.955 236.137C292.729 208.31 291.814 194.457 295.546 164.949C296.391 181.76 296.271 183.783 297.126 200.594C297.699 211.912 299.218 225.182 299.218 236.137" fill="#455A64"/>
<path d="M297.076 236.048C295.668 226.721 294.33 217.365 293.716 207.938C293.176 199.417 293.23 190.868 293.877 182.355C294.3 176.519 294.933 170.704 295.668 164.9H295.416C295.819 172.777 296.111 180.664 296.422 188.542C296.835 198.532 297.499 208.482 298.243 218.452C298.676 224.317 299.058 230.192 299.068 236.088C299.076 236.115 299.093 236.139 299.115 236.156C299.138 236.173 299.166 236.183 299.194 236.183C299.222 236.183 299.25 236.173 299.273 236.156C299.295 236.139 299.312 236.115 299.32 236.088C299.32 225.585 298.153 215.122 297.469 204.649C296.935 196.359 296.654 188.049 296.322 179.749C296.127 174.799 295.903 169.849 295.648 164.9C295.64 164.872 295.623 164.848 295.601 164.831C295.578 164.814 295.55 164.805 295.522 164.805C295.494 164.805 295.466 164.814 295.443 164.831C295.421 164.848 295.404 164.872 295.396 164.9C294.074 174.634 293.298 184.435 293.072 194.256C293.006 202.757 293.5 211.253 294.551 219.689C295.195 225.182 295.99 230.655 296.815 236.118C296.815 236.279 297.086 236.209 297.056 236.048H297.076Z" fill="#263238"/>
<path d="M309.108 236.139C309.108 236.28 302.891 236.4 295.234 236.4C287.578 236.4 281.371 236.28 281.371 236.139C281.371 235.998 287.578 235.867 295.234 235.867C302.891 235.867 309.108 235.938 309.108 236.139Z" fill="#263238"/>
<path d="M304.722 238.383C304.722 238.524 299.49 238.644 293.051 238.644C286.613 238.644 281.371 238.524 281.371 238.383C281.371 238.242 286.603 238.121 293.051 238.121C299.5 238.121 304.722 238.242 304.722 238.383Z" fill="#263238"/>
<path d="M311.503 240.566C311.503 240.707 306.271 240.828 299.833 240.828C293.394 240.828 288.152 240.707 288.152 240.566C288.152 240.425 293.384 240.305 299.833 240.305C306.281 240.305 311.503 240.425 311.503 240.566Z" fill="#263238"/>
<path d="M376.464 260.606C373.557 248.162 366.595 233.695 359.834 222.859C365.679 227.286 369.975 233.513 373.104 240.153C376.233 246.793 377.048 253.544 379.08 260.606" fill="#455A64"/>
<path d="M380.427 260.607C374.481 237.79 370.185 215.556 361.795 192.195C372.65 212.407 379.169 237.971 382.771 260.607" fill="#455A64"/>
<path d="M380.559 260.567C375.709 241.965 371.776 223.121 366.112 204.741C365.367 202.326 364.593 199.922 363.788 197.527C363.395 196.35 362.993 195.183 362.58 194.006C362.5 193.765 362.178 192.578 361.977 192.598C361.776 192.618 362.419 193.604 362.56 193.875C364.572 197.839 366.454 201.924 368.144 206.018C371.489 214.31 374.295 222.808 376.544 231.462C379.077 241.076 381.115 250.814 382.651 260.637C382.651 260.798 382.923 260.728 382.893 260.567C379.925 241.975 375.518 223.423 368.385 205.948C366.464 201.221 364.298 196.597 361.896 192.095C361.883 192.065 361.859 192.042 361.828 192.031C361.798 192.02 361.765 192.021 361.735 192.034C361.706 192.048 361.683 192.072 361.672 192.102C361.66 192.132 361.662 192.166 361.675 192.195C367.902 209.61 372.178 227.598 376.534 245.516C377.762 250.546 378.999 255.577 380.307 260.607C380.318 260.639 380.34 260.665 380.37 260.68C380.399 260.696 380.434 260.7 380.466 260.691C380.498 260.682 380.526 260.661 380.543 260.632C380.56 260.603 380.566 260.569 380.559 260.536V260.567Z" fill="#263238"/>
<path d="M391.593 207.434C388.556 224.986 387.266 242.796 387.74 260.603H389.682C389.642 242.645 391.634 225.392 391.593 207.434Z" fill="#455A64"/>
<path d="M384.19 260.606C379.955 232.779 379.049 218.936 382.772 189.418C383.627 206.229 383.506 208.251 384.361 225.062C384.935 236.38 386.454 249.65 386.454 260.606" fill="#455A64"/>
<path d="M384.311 260.563C382.892 251.237 381.564 241.881 380.941 232.454C380.401 223.933 380.454 215.384 381.101 206.87C381.534 201.035 382.168 195.22 382.902 189.415H382.651C383.043 197.293 383.345 205.18 383.657 213.057C384.079 223.047 384.743 232.997 385.478 242.967C385.92 248.833 386.303 254.718 386.313 260.603C386.321 260.631 386.337 260.655 386.36 260.672C386.383 260.689 386.41 260.698 386.439 260.698C386.467 260.698 386.495 260.689 386.517 260.672C386.54 260.655 386.557 260.631 386.564 260.603C386.564 250.1 385.397 239.637 384.713 229.164C384.17 220.874 383.898 212.564 383.566 204.265C383.365 199.315 383.14 194.365 382.892 189.415C382.884 189.388 382.868 189.364 382.845 189.347C382.823 189.33 382.795 189.32 382.766 189.32C382.738 189.32 382.71 189.33 382.688 189.347C382.665 189.364 382.649 189.388 382.641 189.415C381.303 199.148 380.517 208.95 380.287 218.772C380.237 227.267 380.741 235.755 381.796 244.185C382.45 249.678 383.234 255.151 384.069 260.613C384.069 260.774 384.331 260.704 384.311 260.543V260.563Z" fill="#263238"/>
<path d="M396.383 260.605C396.383 260.746 390.176 260.867 382.52 260.867C374.864 260.867 368.656 260.746 368.656 260.605C368.656 260.464 374.864 260.344 382.52 260.344C390.176 260.344 396.383 260.454 396.383 260.605Z" fill="#263238"/>
<path d="M391.956 262.898C391.956 263.039 386.724 263.16 380.276 263.16C373.827 263.16 368.605 263.039 368.605 262.898C368.605 262.757 373.827 262.637 380.276 262.637C386.724 262.637 391.956 262.757 391.956 262.898Z" fill="#263238"/>
<path d="M398.737 265.082C398.737 265.223 393.506 265.343 387.057 265.343C380.608 265.343 375.387 265.223 375.387 265.082C375.387 264.941 380.608 264.82 387.057 264.82C393.506 264.82 398.737 264.941 398.737 265.082Z" fill="#263238"/>
<path d="M449.363 279.841C446.445 267.396 439.493 252.929 432.723 242.094C438.578 246.52 442.874 252.748 446.003 259.388C449.131 266.028 449.946 272.788 451.968 279.841" fill="#455A64"/>
<path d="M453.326 279.841C447.37 257.024 443.074 234.79 434.684 211.43C445.549 231.641 452.068 257.205 455.67 279.841" fill="#455A64"/>
<path d="M453.446 279.8C448.597 261.198 444.663 242.355 438.999 223.974C438.255 221.559 437.48 219.155 436.675 216.761C436.283 215.583 435.88 214.416 435.468 213.239C435.387 212.998 435.065 211.811 434.874 211.831C434.683 211.851 435.317 212.837 435.448 213.119C437.46 217.072 439.351 221.167 441.031 225.252C444.374 233.545 447.183 242.043 449.442 250.695C451.965 260.311 454.003 270.049 455.549 279.87C455.549 280.031 455.81 279.961 455.79 279.8C452.822 261.208 448.406 242.656 441.273 225.181C439.351 220.456 437.188 215.832 434.794 211.328C434.723 211.207 434.512 211.328 434.562 211.428C440.79 228.843 445.066 246.831 449.432 264.749C450.646 269.786 451.903 274.816 453.204 279.84C453.204 280.001 453.486 279.931 453.446 279.77V279.8Z" fill="#263238"/>
<path d="M464.483 226.672C461.449 244.225 460.162 262.035 460.64 279.842H462.572C462.531 261.884 464.534 244.63 464.483 226.672Z" fill="#455A64"/>
<path d="M457.078 279.841C452.852 252.013 451.937 238.17 455.669 208.652C456.514 225.463 456.394 227.486 457.249 244.297C457.822 255.615 459.341 268.885 459.341 279.841" fill="#455A64"/>
<path d="M457.198 279.801C455.789 270.475 454.461 261.119 453.838 251.692C453.298 243.171 453.351 234.622 453.998 226.108C454.421 220.273 455.065 214.458 455.789 208.653H455.538C455.94 216.531 456.232 224.418 456.544 232.296C456.956 242.286 457.63 252.236 458.365 262.206C458.797 268.071 459.18 273.956 459.2 279.842C459.208 279.869 459.224 279.893 459.247 279.91C459.269 279.927 459.297 279.937 459.326 279.937C459.354 279.937 459.382 279.927 459.404 279.91C459.427 279.893 459.443 279.869 459.451 279.842C459.451 269.339 458.274 258.876 457.59 248.403C457.057 240.113 456.775 231.803 456.443 223.503C456.249 218.553 456.024 213.603 455.769 208.653C455.761 208.626 455.745 208.602 455.722 208.585C455.699 208.568 455.672 208.559 455.643 208.559C455.615 208.559 455.587 208.568 455.565 208.585C455.542 208.602 455.525 208.626 455.518 208.653C454.195 218.388 453.419 228.189 453.194 238.01C453.153 246.512 453.667 255.008 454.733 263.443C455.377 268.936 456.172 274.409 456.997 279.872C456.997 280.033 457.268 279.962 457.238 279.801H457.198Z" fill="#263238"/>
<path d="M469.231 279.84C469.231 279.981 463.024 280.101 455.368 280.101C447.712 280.101 441.494 279.981 441.494 279.84C441.494 279.699 447.701 279.578 455.368 279.578C463.034 279.578 469.231 279.689 469.231 279.84Z" fill="#263238"/>
<path d="M464.845 282.137C464.845 282.277 459.613 282.398 453.174 282.398C446.736 282.398 441.494 282.277 441.494 282.137C441.494 281.996 446.726 281.875 453.174 281.875C459.623 281.875 464.845 281.996 464.845 282.137Z" fill="#263238"/>
<path d="M471.626 284.316C471.626 284.467 466.394 284.578 459.956 284.578C453.517 284.578 448.275 284.467 448.275 284.316C448.275 284.165 453.507 284.055 459.956 284.055C466.404 284.055 471.626 284.175 471.626 284.316Z" fill="#263238"/>
<path d="M174.407 249.157C171.5 236.712 164.538 222.245 157.777 211.41C163.623 215.837 167.918 222.064 171.047 228.704C174.176 235.344 174.991 242.105 177.023 249.157" fill="#455A64"/>
<path d="M178.372 249.158C172.416 226.34 168.131 204.107 159.74 180.746C170.596 200.958 177.115 226.521 180.716 249.158" fill="#455A64"/>
<path d="M178.493 249.117C173.653 230.515 169.71 211.682 164.046 193.291C163.301 190.877 162.537 188.472 161.732 186.078C161.339 184.901 160.937 183.734 160.524 182.557C160.434 182.315 160.122 181.128 159.921 181.148C159.72 181.168 160.363 182.154 160.504 182.436C162.516 186.39 164.398 190.485 166.088 194.569C169.429 202.872 172.235 211.381 174.488 220.042C177.015 229.658 179.053 239.396 180.595 249.218C180.595 249.379 180.867 249.308 180.837 249.147C177.869 230.556 173.462 212.004 166.329 194.529C164.406 189.802 162.24 185.178 159.84 180.676C159.78 180.555 159.569 180.676 159.619 180.776C165.846 198.191 170.122 216.179 174.478 234.097C175.706 239.127 176.943 244.157 178.251 249.188C178.251 249.349 178.533 249.278 178.493 249.117Z" fill="#263238"/>
<path d="M189.539 195.988C186.502 213.541 185.211 231.351 185.686 249.158H187.627C187.587 231.2 189.579 213.946 189.539 195.988Z" fill="#455A64"/>
<path d="M182.094 249.157C177.859 221.33 176.954 207.486 180.676 177.969C181.531 194.78 181.41 196.802 182.255 213.613C182.829 224.931 184.358 238.201 184.358 249.157" fill="#455A64"/>
<path d="M182.255 249.118C180.837 239.792 179.509 230.435 178.885 221.009C178.345 212.487 178.399 203.939 179.046 195.425C179.469 189.59 180.113 183.775 180.847 177.97H180.596C180.988 185.857 181.29 193.735 181.602 201.612C182.024 211.602 182.688 221.552 183.423 231.522C183.865 237.387 184.247 243.273 184.258 249.158C184.265 249.185 184.282 249.209 184.305 249.227C184.327 249.244 184.355 249.253 184.383 249.253C184.412 249.253 184.439 249.244 184.462 249.227C184.485 249.209 184.501 249.185 184.509 249.158C184.509 238.655 183.342 228.192 182.658 217.719C182.115 209.429 181.843 201.119 181.511 192.819C181.31 187.869 181.085 182.92 180.837 177.97C180.829 177.943 180.813 177.918 180.79 177.901C180.767 177.884 180.74 177.875 180.711 177.875C180.683 177.875 180.655 177.884 180.632 177.901C180.61 177.918 180.593 177.943 180.585 177.97C179.259 187.704 178.483 197.505 178.261 207.326C178.197 215.827 178.688 224.323 179.73 232.759C180.384 238.252 181.169 243.725 182.004 249.188C182.004 249.349 182.266 249.279 182.245 249.118H182.255Z" fill="#263238"/>
<path d="M194.278 249.156C194.278 249.297 188.07 249.418 180.414 249.418C172.758 249.418 166.551 249.297 166.551 249.156C166.551 249.015 172.758 248.895 180.414 248.895C188.07 248.895 194.278 249.005 194.278 249.156Z" fill="#263238"/>
<path d="M189.901 251.449C189.901 251.6 184.67 251.711 178.221 251.711C171.772 251.711 166.551 251.6 166.551 251.449C166.551 251.298 171.772 251.188 178.221 251.188C184.67 251.188 189.901 251.308 189.901 251.449Z" fill="#263238"/>
<path d="M196.672 253.633C196.672 253.784 191.451 253.894 185.002 253.894C178.553 253.894 173.332 253.784 173.332 253.633C173.332 253.482 178.553 253.371 185.002 253.371C191.451 253.371 196.672 253.492 196.672 253.633Z" fill="#263238"/>
<path d="M106.993 404.974C104.086 392.539 97.134 378.062 90.3633 367.227C96.2084 371.663 100.504 377.891 103.643 384.531C106.782 391.171 107.587 397.921 109.609 404.974" fill="#455A64"/>
<path d="M110.966 404.974C105.011 382.167 100.715 359.933 92.3242 336.562C103.19 356.784 109.699 382.338 113.31 404.974" fill="#455A64"/>
<path d="M122.124 351.836C119.09 369.385 117.803 387.192 118.281 404.996H120.212C120.172 387.048 122.164 369.774 122.124 351.836Z" fill="#455A64"/>
<path d="M114.69 404.974C110.231 376.624 109.754 347.791 113.271 319.309C114.126 336.12 114.005 352.619 114.861 369.43C115.434 380.758 116.953 394.028 116.953 404.974" fill="#455A64"/>
<path d="M126.862 404.973C126.862 405.123 120.654 405.234 112.998 405.234C105.342 405.234 99.1348 405.123 99.1348 404.973C99.1348 404.822 105.342 404.711 112.998 404.711C120.654 404.711 126.862 404.832 126.862 404.973Z" fill="#263238"/>
<path d="M122.485 407.277C122.485 407.418 117.254 407.539 110.815 407.539C104.376 407.539 99.1348 407.418 99.1348 407.277C99.1348 407.136 104.366 407.016 110.815 407.016C117.264 407.016 122.485 407.167 122.485 407.277Z" fill="#263238"/>
<path d="M129.266 409.461C129.266 409.602 124.035 409.722 117.596 409.722C111.158 409.722 105.916 409.602 105.916 409.461C105.916 409.32 111.147 409.199 117.596 409.199C124.045 409.199 129.266 409.31 129.266 409.461Z" fill="#263238"/>
<path d="M188.312 441.653C185.394 429.208 178.443 414.741 171.672 403.906C177.527 408.333 181.823 414.56 184.952 421.2C188.081 427.84 188.895 434.601 190.918 441.653" fill="#455A64"/>
<path d="M192.275 441.654C186.319 418.836 182.023 396.603 173.633 373.242C184.498 393.454 191.007 419.018 194.619 441.654" fill="#455A64"/>
<path d="M203.432 388.484C200.399 406.037 199.111 423.848 199.589 441.654H201.521C201.481 423.696 203.473 406.442 203.432 388.484Z" fill="#455A64"/>
<path d="M196.027 441.654C191.569 413.304 191.092 384.47 194.609 355.988C195.464 372.789 195.343 389.299 196.198 406.11C196.772 417.428 198.291 430.698 198.291 441.654" fill="#455A64"/>
<path d="M208.182 441.656C208.182 441.797 201.975 441.918 194.319 441.918C186.663 441.918 180.445 441.797 180.445 441.656C180.445 441.515 186.653 441.395 194.319 441.395C201.985 441.395 208.182 441.505 208.182 441.656Z" fill="#263238"/>
<path d="M203.796 443.949C203.796 444.09 198.564 444.211 192.126 444.211C185.687 444.211 180.445 444.09 180.445 443.949C180.445 443.808 185.677 443.688 192.126 443.688C198.574 443.688 203.796 443.808 203.796 443.949Z" fill="#263238"/>
<path d="M210.575 446.133C210.575 446.274 205.344 446.394 198.905 446.394C192.466 446.394 187.225 446.274 187.225 446.133C187.225 445.992 192.456 445.871 198.905 445.871C205.354 445.871 210.575 445.992 210.575 446.133Z" fill="#263238"/>
<path d="M78.6225 270.876C75.705 258.431 68.7532 243.964 61.9824 233.129C67.8376 237.556 72.1335 243.783 75.2623 250.423C78.3911 257.063 79.206 263.813 81.2282 270.876" fill="#455A64"/>
<path d="M82.5855 270.876C76.6297 248.059 72.3338 225.825 63.9434 202.465C74.8087 222.676 81.3179 248.24 84.9296 270.876" fill="#455A64"/>
<path d="M93.743 217.707C90.7092 235.26 89.4219 253.07 89.8998 270.877H91.8315C91.7912 252.919 93.7832 235.665 93.743 217.707Z" fill="#455A64"/>
<path d="M86.3378 270.876C81.8798 242.526 81.4024 213.693 84.9193 185.211C85.7744 202.012 85.6537 218.521 86.5088 235.332C87.0823 246.651 88.6014 259.92 88.6014 270.876" fill="#455A64"/>
<path d="M98.4908 270.879C98.4908 271.02 92.2734 271.14 84.6173 271.14C76.9612 271.14 70.7539 271.02 70.7539 270.879C70.7539 270.738 76.9612 270.617 84.6173 270.617C92.2734 270.617 98.4908 270.728 98.4908 270.879Z" fill="#263238"/>
<path d="M94.1044 273.172C94.1044 273.313 88.8729 273.433 82.4342 273.433C75.9954 273.433 70.7539 273.313 70.7539 273.172C70.7539 273.031 75.9854 272.91 82.4342 272.91C88.883 272.91 94.1044 273.031 94.1044 273.172Z" fill="#263238"/>
<path d="M100.886 275.375C100.886 275.516 95.6542 275.636 89.2154 275.636C82.7767 275.636 77.5352 275.516 77.5352 275.375C77.5352 275.234 82.7666 275.113 89.2154 275.113C95.6642 275.113 100.886 275.214 100.886 275.375Z" fill="#263238"/>
<path d="M42.9875 440.114C40.08 427.669 33.1181 413.202 26.3574 402.367C32.2026 406.794 36.4984 413.021 39.6272 419.661C42.7561 426.301 43.571 433.062 45.6032 440.114" fill="#455A64"/>
<path d="M46.9504 440.115C40.9946 417.297 36.7088 395.064 28.3184 371.703C39.1737 391.915 45.6929 417.478 49.2945 440.115" fill="#455A64"/>
<path d="M58.1188 386.945C55.0818 404.498 53.7911 422.308 54.2657 440.115H56.2073C56.1671 422.157 58.1591 404.903 58.1188 386.945Z" fill="#455A64"/>
<path d="M50.7125 440.115C46.2444 411.766 45.7669 382.931 49.294 354.449C50.139 371.25 50.0284 387.76 50.8735 404.571C51.457 415.889 52.9761 429.159 52.9761 440.115" fill="#455A64"/>
<path d="M62.8577 440.113C62.8577 440.254 56.6503 440.375 48.9943 440.375C41.3382 440.375 35.1309 440.254 35.1309 440.113C35.1309 439.972 41.3382 439.852 48.9943 439.852C56.6503 439.852 62.8577 439.962 62.8577 440.113Z" fill="#263238"/>
<path d="M58.4813 442.379C58.4813 442.53 53.2499 442.64 46.8011 442.64C40.3523 442.64 35.1309 442.53 35.1309 442.379C35.1309 442.228 40.3523 442.117 46.8011 442.117C53.2499 442.117 58.4813 442.268 58.4813 442.379Z" fill="#263238"/>
<path d="M65.2506 444.594C65.2506 444.745 60.0292 444.855 53.5804 444.855C47.1316 444.855 41.9102 444.745 41.9102 444.594C41.9102 444.443 47.1316 444.332 53.5804 444.332C60.0292 444.332 65.2506 444.453 65.2506 444.594Z" fill="#263238"/>
<path d="M42.6049 341.02C39.6874 328.586 32.7356 314.109 25.9648 303.273C31.8201 307.71 36.1159 313.938 39.2447 320.578C42.3735 327.217 43.1884 333.968 45.2106 341.02" fill="#455A64"/>
<path d="M46.5679 341.021C40.6121 318.214 36.3163 295.98 27.9258 272.609C38.7911 292.831 45.3104 318.385 48.912 341.021" fill="#455A64"/>
<path d="M57.7253 287.859C54.6917 305.409 53.4044 323.216 53.8822 341.019H55.8138C55.7736 323.071 57.7756 305.817 57.7253 287.859Z" fill="#455A64"/>
<path d="M50.3002 341.019C46.0748 313.202 44.8574 299.238 48.5899 269.73C49.435 286.532 49.5959 288.674 50.4712 305.475C51.0447 316.804 52.5638 330.073 52.5638 341.019" fill="#455A64"/>
<path d="M62.4732 341.017C62.4732 341.168 56.2658 341.279 48.6098 341.279C40.9537 341.279 34.7363 341.168 34.7363 341.017C34.7363 340.866 40.9437 340.766 48.6098 340.766C56.2759 340.766 62.4732 340.876 62.4732 341.017Z" fill="#263238"/>
<path d="M58.0868 343.324C58.0868 343.465 52.8654 343.586 46.4166 343.586C39.9678 343.586 34.7363 343.465 34.7363 343.324C34.7363 343.183 39.9678 343.062 46.4166 343.062C52.8654 343.062 58.0868 343.173 58.0868 343.324Z" fill="#263238"/>
<path d="M64.868 345.508C64.868 345.648 59.6366 345.769 53.1978 345.769C46.7591 345.769 41.5176 345.648 41.5176 345.508C41.5176 345.367 46.749 345.246 53.1978 345.246C59.6466 345.246 64.868 345.357 64.868 345.508Z" fill="#263238"/>
<path d="M160.011 347.81C157.104 335.375 150.142 320.898 143.371 310.062C149.226 314.499 153.522 320.727 156.651 327.367C159.78 334.007 160.595 340.767 162.627 347.81" fill="#455A64"/>
<path d="M163.986 347.81C158.03 324.993 153.744 302.769 145.344 279.398C156.209 299.62 162.728 325.174 166.33 347.81" fill="#455A64"/>
<path d="M175.143 294.629C172.099 312.184 170.808 329.998 171.289 347.809H173.231C173.191 329.841 175.183 312.597 175.143 294.629Z" fill="#455A64"/>
<path d="M167.737 347.811C163.502 319.984 162.586 306.14 166.319 276.633C167.174 293.444 167.053 295.456 167.898 312.267C168.472 323.575 170.021 336.845 170.021 347.811" fill="#455A64"/>
<path d="M179.881 347.808C179.881 347.949 173.674 348.07 166.018 348.07C158.362 348.07 152.154 347.949 152.154 347.808C152.154 347.668 158.362 347.547 166.018 347.547C173.674 347.547 179.881 347.647 179.881 347.808Z" fill="#263238"/>
<path d="M175.495 350.094C175.495 350.234 170.273 350.355 163.824 350.355C157.376 350.355 152.154 350.234 152.154 350.094C152.154 349.953 157.376 349.832 163.824 349.832C170.273 349.832 175.495 349.943 175.495 350.094Z" fill="#263238"/>
<path d="M182.276 352.277C182.276 352.418 177.055 352.539 170.606 352.539C164.157 352.539 158.936 352.418 158.936 352.277C158.936 352.136 164.157 352.016 170.606 352.016C177.055 352.016 182.276 352.126 182.276 352.277Z" fill="#263238"/>
<path d="M433.849 367.044C430.941 354.609 423.979 340.132 417.219 329.297C423.064 333.734 427.36 339.961 430.489 346.591C433.617 353.221 434.432 359.992 436.465 367.044" fill="#455A64"/>
<path d="M437.812 367.044C431.856 344.227 427.57 322.003 419.18 298.633C430.035 318.844 436.554 344.408 440.156 367.044" fill="#455A64"/>
<path d="M448.978 313.887C445.941 331.436 444.651 349.243 445.125 367.046H447.067C447.026 349.088 449.018 331.835 448.978 313.887Z" fill="#455A64"/>
<path d="M441.575 367.045C437.339 339.218 436.434 325.375 440.156 295.867C441.012 312.668 440.891 314.69 441.736 331.502C442.309 342.83 443.839 356.1 443.839 367.045" fill="#455A64"/>
<path d="M453.729 367.047C453.729 367.188 447.521 367.308 439.865 367.308C432.209 367.308 426.002 367.188 426.002 367.047C426.002 366.906 432.209 366.785 439.865 366.785C447.521 366.785 453.729 366.926 453.729 367.047Z" fill="#263238"/>
<path d="M449.341 369.35C449.341 369.491 444.109 369.611 437.66 369.611C431.212 369.611 425.99 369.491 425.99 369.35C425.99 369.209 431.212 369.078 437.66 369.078C444.109 369.078 449.341 369.199 449.341 369.35Z" fill="#263238"/>
<path d="M456.112 371.533C456.112 371.674 450.89 371.795 444.442 371.795C437.993 371.795 432.771 371.674 432.771 371.533C432.771 371.392 437.993 371.262 444.442 371.262C450.89 371.262 456.112 371.382 456.112 371.533Z" fill="#263238"/>
<path d="M232.446 306.835C229.539 294.4 222.577 279.933 215.816 269.098C221.662 273.524 225.957 279.752 229.086 286.392C232.215 293.032 233.03 299.782 235.062 306.835" fill="#455A64"/>
<path d="M236.421 306.833C230.475 284.026 226.18 261.792 217.789 238.422C228.644 258.644 235.164 284.207 238.765 306.833" fill="#455A64"/>
<path d="M247.578 253.672C244.541 271.221 243.25 289.028 243.725 306.832H245.666C245.626 288.884 247.618 271.63 247.578 253.672Z" fill="#455A64"/>
<path d="M240.173 306.834C235.937 279.017 235.032 265.164 238.754 235.656C239.609 252.467 239.488 254.49 240.344 271.291C240.917 282.619 242.436 295.889 242.436 306.834" fill="#455A64"/>
<path d="M252.317 306.834C252.317 306.985 246.109 307.096 238.453 307.096C230.797 307.096 224.59 306.985 224.59 306.834C224.59 306.683 230.797 306.562 238.433 306.562C246.069 306.562 252.317 306.693 252.317 306.834Z" fill="#263238"/>
<path d="M247.94 309.137C247.94 309.277 242.709 309.398 236.26 309.398C229.811 309.398 224.59 309.277 224.59 309.137C224.59 308.996 229.811 308.875 236.26 308.875C242.709 308.875 247.94 308.996 247.94 309.137Z" fill="#263238"/>
<path d="M254.722 311.32C254.722 311.461 249.49 311.582 243.041 311.582C236.593 311.582 231.371 311.461 231.371 311.32C231.371 311.179 236.593 311.059 243.041 311.059C249.49 311.059 254.722 311.179 254.722 311.32Z" fill="#263238"/>
<path d="M328.033 431.219C328.033 431.359 315.679 431.48 300.447 431.48C285.216 431.48 272.861 431.359 272.861 431.219C272.861 431.078 285.206 430.957 300.447 430.957C315.689 430.957 328.033 431.068 328.033 431.219Z" fill="#263238"/>
<path d="M317.471 437.344C317.471 437.495 309.845 437.605 300.448 437.605C291.052 437.605 283.426 437.495 283.426 437.344C283.426 437.193 291.042 437.082 300.448 437.082C309.855 437.082 317.471 437.243 317.471 437.344Z" fill="#263238"/>
<path d="M447.551 431.219C447.551 431.359 435.197 431.48 419.965 431.48C404.734 431.48 392.369 431.359 392.369 431.219C392.369 431.078 404.723 430.957 419.965 430.957C435.207 430.957 447.551 431.068 447.551 431.219Z" fill="#263238"/>
<path d="M436.978 437.344C436.978 437.495 429.363 437.605 419.956 437.605C410.549 437.605 402.934 437.495 402.934 437.344C402.934 437.193 410.559 437.082 419.956 437.082C429.352 437.082 436.978 437.243 436.978 437.344Z" fill="#263238"/>
<path d="M415.257 383.401C409.682 376.1 403.717 369.105 397.39 362.445L378.566 380.846L413.386 431.219H433.396C433.396 431.219 422.833 393.653 415.257 383.401Z" fill="#FFBF9D"/>
<path d="M291.684 376.109C291.684 376.109 290.678 401.18 290.809 411.11C290.939 421.04 291.684 431.231 291.684 431.231H313.002L321 384.47L291.684 376.109Z" fill="#FFBF9D"/>
<path d="M411.171 373.089C411.171 373.089 396.564 276.367 394.069 262.735C390.487 243.228 363.324 223.167 332.287 225.632C301.25 228.097 272.165 375.654 273.02 376.982C273.875 378.31 296.16 404.589 315.365 400.926C327.317 398.653 323.917 393.23 338.887 392.375C353.857 391.52 367.539 402.214 383.364 393.663C393.474 388.022 402.82 381.107 411.171 373.089Z" fill="#263238"/>
<g opacity="0.3">
<path d="M344.309 300.524C343.938 300.104 343.472 299.778 342.948 299.577C342.425 299.375 341.861 299.303 341.304 299.366C340.747 299.429 340.213 299.626 339.748 299.94C339.284 300.254 338.902 300.675 338.635 301.168C336.492 305.192 336.039 308.985 334.611 313.311C327.699 334.187 323.101 356.863 319.208 378C319.093 379.003 319.359 380.012 319.952 380.827C321.562 383.363 324.409 382.558 326.713 381.703C331.24 380.013 336.069 378.081 338.695 374.027C340.908 370.606 341.12 366.31 341.271 362.236L342.9 316.39C343.122 310.353 344.098 306.581 344.309 300.524Z" fill="black"/>
</g>
<path d="M342.338 376.106C342.28 375.834 342.243 375.558 342.228 375.281C342.177 374.687 342.107 373.893 342.026 372.907C341.845 370.834 341.654 367.876 341.483 364.144C341.121 356.749 340.96 346.508 341.483 335.21C342.006 323.912 343.012 313.711 343.998 306.376C344.491 302.704 344.934 299.736 345.286 297.694C345.457 296.688 345.598 295.934 345.698 295.35C345.732 295.073 345.792 294.8 345.88 294.535C345.877 294.812 345.851 295.088 345.799 295.36C345.729 295.954 345.618 296.738 345.487 297.724C345.195 299.736 344.813 302.755 344.36 306.417C343.475 313.761 342.489 323.942 342.006 335.23C341.523 346.518 341.634 356.739 341.886 364.134C342.016 367.826 342.147 370.824 342.268 372.886C342.318 373.893 342.348 374.677 342.379 375.271C342.392 375.55 342.378 375.829 342.338 376.106Z" fill="#455A64"/>
<path d="M319.994 372.516C319.993 372.327 320.01 372.139 320.045 371.953C320.115 371.53 320.195 371.007 320.296 370.363C320.527 368.975 320.88 366.983 321.302 364.518C322.238 359.589 323.626 352.808 325.326 345.403C327.027 337.999 328.837 331.248 330.186 326.419C330.86 324.015 331.433 322.063 331.846 320.725L332.328 319.186C332.371 319 332.439 318.82 332.53 318.652C332.52 318.844 332.486 319.033 332.429 319.216C332.318 319.628 332.198 320.141 332.037 320.775L330.548 326.52C329.28 331.369 327.58 338.079 325.839 345.514C324.099 352.949 322.65 359.729 321.634 364.629L320.417 370.434L320.075 372.013C320.066 372.183 320.039 372.352 319.994 372.516Z" fill="#455A64"/>
<path d="M233.877 281.71C233.877 281.71 230.396 286.579 241.291 296.318C252.187 306.056 260.064 325.755 260.064 325.755L246.704 347.807C246.704 347.807 256.764 357.798 258.445 356.862C260.125 355.926 289.743 327.153 289.743 327.153L292.982 311.388L251.955 277.082L233.877 281.71Z" fill="#004E9E"/>
<path opacity="0.3" d="M233.877 281.71C233.877 281.71 230.396 286.579 241.291 296.318C252.187 306.056 260.064 325.755 260.064 325.755L246.704 347.807C246.704 347.807 256.764 357.798 258.445 356.862C260.125 355.926 289.743 327.153 289.743 327.153L292.982 311.388L251.955 277.082L233.877 281.71Z" fill="black"/>
<path d="M246.551 224.828C244.713 223.71 242.635 223.044 240.489 222.885C238.343 222.726 236.19 223.078 234.207 223.913V234.979C236.375 239.528 236.689 244.741 235.082 249.517C234.63 250.825 234.076 252.344 234.791 253.541C235.505 254.738 237.286 254.889 238.744 254.859C240.741 254.981 242.737 254.6 244.549 253.752C246.4 252.666 247.517 250.734 248.573 248.802C250.817 244.647 253.06 240.201 252.829 235.482C252.7 233.337 252.063 231.252 250.972 229.4C249.881 227.548 248.366 225.981 246.551 224.828Z" fill="#004E9E"/>
<g opacity="0.3">
<path d="M246.551 224.828C244.713 223.71 242.635 223.044 240.489 222.885C238.343 222.726 236.19 223.078 234.207 223.913V234.979C236.375 239.528 236.689 244.741 235.082 249.517C234.63 250.825 234.076 252.344 234.791 253.541C235.505 254.738 237.286 254.889 238.744 254.859C240.741 254.981 242.737 254.6 244.549 253.752C246.4 252.666 247.517 250.734 248.573 248.802C250.817 244.647 253.06 240.201 252.829 235.482C252.7 233.337 252.063 231.252 250.972 229.4C249.881 227.548 248.366 225.981 246.551 224.828Z" fill="black"/>
</g>
<path d="M200.535 220.189C190.475 221.195 181.924 225.803 176.149 234.113C172.899 238.811 172.567 241.437 171.199 245.472C169.736 249.442 169.715 253.801 171.139 257.786C172.95 262.514 175.434 267.122 179.308 270.371C183.183 273.837 187.369 276.939 191.813 279.637C196.288 282.342 201.423 283.759 206.652 283.732L215.888 274.053C220.143 268.138 224.449 262.142 227.015 255.321C229.58 248.5 230.244 240.653 227.196 234.033C222.95 224.847 210.606 219.224 200.535 220.189Z" fill="#263238"/>
<path d="M176.239 244.719L178.352 240.614L193.936 229.89C194.668 228.909 195.742 228.237 196.945 228.008C198.148 227.779 199.393 228.009 200.435 228.652L248.061 261.117L243.655 271.912L238.313 288.07L227.367 280.263C227.367 280.263 219.872 289.398 206.773 284.206C200.254 281.621 190.676 275.534 182.99 270.303C176.058 265.584 170.525 253.331 176.239 244.719Z" fill="#FFBF9D"/>
<path d="M215.547 265.23C214.901 264.928 214.168 264.871 213.484 265.069C212.852 265.249 212.296 265.63 211.9 266.155C211.504 266.68 211.29 267.319 211.291 267.977C211.339 268.689 211.576 269.376 211.978 269.966C212.379 270.557 212.93 271.03 213.575 271.337C214.095 271.323 214.606 271.197 215.073 270.968C215.54 270.739 215.952 270.412 216.281 270.009C216.382 269.888 216.482 269.747 216.573 269.616C217.021 268.93 217.197 268.101 217.066 267.292C216.988 266.855 216.811 266.441 216.547 266.084C216.284 265.726 215.941 265.434 215.547 265.23Z" fill="#FF9A6C"/>
<path d="M195.646 273.207C196.043 273.45 196.518 273.528 196.971 273.424C197.424 273.321 197.819 273.044 198.071 272.654C198.203 272.468 198.297 272.258 198.347 272.035C198.396 271.813 198.401 271.582 198.359 271.358C198.318 271.134 198.232 270.92 198.106 270.729C197.981 270.539 197.818 270.376 197.628 270.25C197.232 270.007 196.756 269.93 196.303 270.033C195.85 270.136 195.456 270.413 195.203 270.803C195.071 270.989 194.977 271.199 194.927 271.422C194.878 271.644 194.874 271.875 194.915 272.099C194.956 272.323 195.042 272.537 195.168 272.728C195.293 272.918 195.456 273.081 195.646 273.207Z" fill="#263238"/>
<path d="M188.562 270.27C188.874 270.189 188.703 268.519 189.679 266.869C190.655 265.219 192.214 264.495 192.114 264.203C192.013 263.911 191.601 264.042 190.907 264.334C189.985 264.761 189.218 265.464 188.713 266.346C188.2 267.206 187.971 268.206 188.059 269.203C188.13 269.918 188.412 270.34 188.562 270.27Z" fill="#263238"/>
<path d="M207.92 268.39C207.131 269.098 206.435 269.903 205.847 270.785C205.545 271.187 205.223 271.529 204.901 271.439C204.579 271.348 204.187 270.906 203.815 270.433L201.34 267.284C197.789 262.837 194.77 259.346 194.599 259.497C194.428 259.648 197.155 263.36 200.696 267.807L203.221 270.916C203.574 271.483 204.115 271.907 204.75 272.113C204.932 272.138 205.116 272.122 205.29 272.067C205.464 272.011 205.624 271.917 205.757 271.791C205.96 271.594 206.135 271.37 206.28 271.127C206.942 270.289 207.493 269.369 207.92 268.39Z" fill="#263238"/>
<path d="M227.307 280.271C230.733 274.683 232.541 268.254 232.528 261.699C232.528 261.699 238.303 270.895 230.073 282.213L227.307 280.271Z" fill="#FF9A6C"/>
<path d="M185.213 267.496C185.756 267.335 185.927 265.846 186.611 264.256C187.295 262.667 188.181 261.469 187.899 260.976C187.758 260.755 187.265 260.785 186.631 261.198C185.824 261.791 185.194 262.594 184.811 263.52C184.428 264.446 184.306 265.459 184.458 266.449C184.619 267.184 184.951 267.556 185.213 267.496Z" fill="#263238"/>
<path d="M206.32 255.37C206.712 255.621 206.991 256.013 207.1 256.465C207.208 256.917 207.138 257.393 206.904 257.794C206.796 257.995 206.648 258.172 206.471 258.316C206.293 258.459 206.088 258.565 205.869 258.628C205.649 258.69 205.42 258.709 205.193 258.681C204.967 258.654 204.748 258.582 204.55 258.468C204.156 258.219 203.875 257.827 203.767 257.374C203.658 256.922 203.729 256.445 203.966 256.044C204.074 255.843 204.222 255.666 204.399 255.523C204.577 255.38 204.782 255.273 205.001 255.211C205.221 255.148 205.45 255.13 205.677 255.157C205.903 255.184 206.122 255.257 206.32 255.37Z" fill="#263238"/>
<path d="M202.386 248.279C202.456 248.591 200.887 249.185 199.851 250.804C198.814 252.424 198.845 254.124 198.543 254.175C198.402 254.175 198.171 253.782 198.13 253.028C198.092 252.016 198.37 251.018 198.925 250.171C199.465 249.33 200.258 248.682 201.189 248.32C201.893 248.068 202.356 248.128 202.386 248.279Z" fill="#263238"/>
<path d="M196.652 246.436C196.864 246.969 195.757 248.066 194.892 249.625C194.027 251.184 193.594 252.643 193.031 252.754C192.759 252.754 192.487 252.362 192.437 251.587C192.413 250.551 192.682 249.529 193.212 248.639C193.707 247.735 194.451 246.992 195.355 246.496C196.049 246.194 196.542 246.194 196.652 246.436Z" fill="#263238"/>
<path d="M216.762 239.555L217.496 242.945C203.411 246.044 171.449 249.072 173.31 248.982C174.476 244.06 176.856 239.509 180.232 235.742C185.624 230.058 196.993 220.028 204.448 225.279C211.902 230.531 216.762 239.555 216.762 239.555Z" fill="#263238"/>
<path d="M216.16 264.104C216.432 264.185 216.09 266.237 215.003 268.531C213.916 270.825 212.568 272.404 212.337 272.243C212.106 272.082 213.021 270.301 214.057 268.088C215.094 265.875 215.868 264.024 216.16 264.104Z" fill="#263238"/>
<path d="M203.865 219.033C185.565 217.142 174.69 230.804 171.36 239.496C168.03 248.188 170.726 247.283 170.726 247.283C170.726 247.283 183.1 240.16 194.006 238.721C213.704 236.226 235.626 252.635 235.626 252.635C235.626 252.635 245.667 223.359 203.865 219.033Z" fill="#004E9E"/>
<path opacity="0.3" d="M203.865 219.033C185.565 217.142 174.69 230.804 171.36 239.496C168.03 248.188 170.726 247.283 170.726 247.283C170.726 247.283 183.1 240.16 194.006 238.721C213.704 236.226 235.626 252.635 235.626 252.635C235.626 252.635 245.667 223.359 203.865 219.033Z" fill="black"/>
<path d="M218.524 243.631C217.628 243.098 216.139 240.825 216.512 239.859C217.518 237.293 220.244 233.169 226.24 236.67C234.44 241.448 227.94 248.742 227.699 248.571C227.458 248.4 221.602 245.462 218.524 243.631Z" fill="#FFBF9D"/>
<path d="M226.029 244.556C226.029 244.506 226.22 244.476 226.471 244.295C226.803 244.05 227.032 243.692 227.115 243.288C227.306 242.232 226.351 240.703 224.902 239.798C224.208 239.368 223.429 239.097 222.618 239.003C222.318 238.93 222.004 238.931 221.704 239.006C221.405 239.081 221.128 239.229 220.898 239.435C220.76 239.576 220.674 239.76 220.656 239.956C220.637 240.152 220.687 240.348 220.797 240.512C220.958 240.753 221.159 240.793 221.139 240.844C221.119 240.894 220.908 240.944 220.606 240.683C220.431 240.516 220.315 240.297 220.274 240.059C220.241 239.732 220.335 239.404 220.536 239.144C220.797 238.847 221.131 238.622 221.505 238.492C221.878 238.362 222.279 238.33 222.668 238.399C223.583 238.461 224.468 238.748 225.244 239.234C226.864 240.24 227.92 242.001 227.568 243.389C227.502 243.649 227.377 243.891 227.202 244.095C227.028 244.299 226.809 244.46 226.562 244.566C226.24 244.657 226.029 244.596 226.029 244.556Z" fill="#FF9A6C"/>
<path d="M241.119 232.112C240.667 230.193 239.765 228.41 238.489 226.908C237.212 225.406 235.597 224.23 233.776 223.475C231.955 222.72 229.981 222.409 228.017 222.567C226.052 222.726 224.153 223.349 222.477 224.385C226.164 227.426 229.091 231.284 231.028 235.653C231.571 236.89 232.135 238.269 233.342 238.862C234.527 239.28 235.827 239.225 236.974 238.711C238.54 238.363 239.92 237.445 240.847 236.136C241.435 234.875 241.532 233.44 241.119 232.112Z" fill="#004E9E"/>
<g opacity="0.3">
<path d="M241.119 232.112C240.667 230.193 239.765 228.41 238.489 226.908C237.212 225.406 235.597 224.23 233.776 223.475C231.955 222.72 229.981 222.409 228.017 222.567C226.052 222.726 224.153 223.349 222.477 224.385C226.164 227.426 229.091 231.284 231.028 235.653C231.571 236.89 232.135 238.269 233.342 238.862C234.527 239.28 235.827 239.225 236.974 238.711C238.54 238.363 239.92 237.445 240.847 236.136C241.435 234.875 241.532 233.44 241.119 232.112Z" fill="black"/>
</g>
<path d="M235.728 253.24C236.175 251.256 236.451 249.236 236.553 247.204C236.744 242.262 235.42 237.379 232.759 233.209C230.098 229.04 226.227 225.783 221.664 223.874C219.77 223.109 217.814 222.506 215.818 222.073C215.962 222.049 216.108 222.049 216.251 222.073C216.523 222.073 216.945 222.133 217.468 222.244C218.952 222.521 220.405 222.945 221.804 223.512C226.493 225.37 230.476 228.661 233.185 232.915C235.895 237.169 237.193 242.169 236.895 247.204C236.823 248.712 236.597 250.209 236.221 251.671C236.124 252.07 236.003 252.463 235.859 252.848C235.835 252.985 235.791 253.117 235.728 253.24Z" fill="#263238"/>
<path d="M235.496 239.153C236.404 238.767 237.243 238.237 237.981 237.583C238.739 236.842 239.318 235.937 239.671 234.938C240.087 233.71 240.177 232.397 239.933 231.125C239.439 228.788 238.117 226.708 236.211 225.269C234.762 224.143 233.685 223.7 233.726 223.609C233.998 223.648 234.26 223.737 234.5 223.871C235.181 224.172 235.828 224.543 236.432 224.978C237.342 225.617 238.144 226.398 238.806 227.292C239.624 228.39 240.185 229.659 240.446 231.004C240.701 232.35 240.59 233.74 240.124 235.028C239.731 236.086 239.081 237.03 238.233 237.775C237.669 238.276 237.013 238.662 236.301 238.911C236.053 239.048 235.779 239.13 235.496 239.153Z" fill="#263238"/>
<path d="M252.85 346.207L238.172 359.879C236.552 361.388 231.663 373.481 233.795 375.091C235.928 376.7 238.172 374.638 238.172 374.638C238.172 374.638 246.602 372.334 249.802 373.31C251.759 373.887 253.849 373.823 255.768 373.129L258.786 358.551L262.739 353.793L252.518 346.207" fill="#FFBF9D"/>
<path d="M246.169 378.109C238.06 372.264 226.511 367.294 216.943 364.367C222.711 364.144 228.448 365.307 233.674 367.757C238.936 370.071 242.889 373.642 247.708 376.811" fill="#455A64"/>
<path d="M248.495 376.066C233.243 365.663 219.319 354.738 202.297 345.23C219.108 351.589 236.1 363.339 249.873 374.869" fill="#455A64"/>
<path d="M227.77 338.934C235.002 350.86 243.397 362.041 252.83 372.314L253.977 371.308C244.722 360.735 237.025 349.517 227.77 338.934Z" fill="#455A64"/>
<path d="M250.728 374.137C233.927 359.881 226.271 352.175 213.303 332.828C222.448 342.315 223.363 343.573 232.559 353.06C238.716 359.458 246.442 366.511 252.066 372.98" fill="#455A64"/>
<path d="M259.249 349.016C259.249 349.016 245.164 358.644 244.852 359.076C244.54 359.509 244.711 362.738 244.158 363.845C243.604 364.951 237.85 370.042 238.182 371.038C238.514 372.034 238.182 373.905 240.063 373.473C241.541 373.071 242.984 372.553 244.379 371.923C244.379 371.923 243.494 375.676 243.051 375.897C242.608 376.119 241.28 379.217 243.051 379.66C244.822 380.103 247.327 378.443 248.283 377.225C249.238 376.008 253.454 377.557 255.768 376.34C258.082 375.123 258.856 372.366 259.249 369.599C259.641 366.833 259.973 361.611 259.973 361.611L268.705 354.277L259.249 349.016Z" fill="#FFBF9D"/>
<path d="M247.71 360.242C247.321 361.124 246.74 361.908 246.009 362.536C245.398 363.286 244.629 363.89 243.756 364.307C244.281 363.515 244.91 362.797 245.627 362.174C246.228 361.436 246.929 360.786 247.71 360.242Z" fill="#FF9A6C"/>
<path d="M251.752 354.175C250.599 355.481 249.24 356.589 247.728 357.455C247.125 357.847 246.461 358.139 245.998 358.461C245.574 358.742 245.228 359.126 244.992 359.578C244.805 360.026 244.673 360.496 244.599 360.976C244.599 360.976 244.288 360.382 244.65 359.427C244.876 358.883 245.249 358.413 245.726 358.069C246.269 357.676 246.863 357.415 247.457 357.062C249.831 355.493 251.652 354.054 251.752 354.175Z" fill="#FF9A6C"/>
<path d="M247.065 369.357C247.195 369.417 246.672 370.544 245.485 371.419C244.82 372.017 243.956 372.347 243.061 372.345C243.061 372.194 244.067 371.821 245.173 370.996C246.28 370.171 246.934 369.276 247.065 369.357Z" fill="#FF9A6C"/>
<path d="M251.179 372.957C250.779 374.011 250.215 374.996 249.509 375.875C248.945 376.851 248.236 377.737 247.406 378.5C247.807 377.446 248.37 376.462 249.076 375.583C249.64 374.606 250.349 373.721 251.179 372.957Z" fill="#FF9A6C"/>
<path d="M255.224 373.099C255.246 373.99 254.93 374.856 254.338 375.523C253.473 376.721 252.326 377.254 252.326 377.133C252.326 377.012 253.141 376.318 253.936 375.222C254.731 374.125 255.073 373.059 255.224 373.099Z" fill="#FF9A6C"/>
<path d="M248.081 283.592C249.831 285.604 275.657 320.876 275.244 322.456L249.087 351.118L260.435 364.056C260.435 364.056 297.176 339.418 300.728 326.832C304.279 314.247 281.13 272.888 278.655 267.475C275.264 260.071 258.534 248.551 248.031 257.576C234.912 268.843 248.081 283.592 248.081 283.592Z" fill="#004E9E"/>
<path d="M248.081 283.592C247.903 283.414 247.735 283.226 247.578 283.028C247.266 282.646 246.814 282.073 246.27 281.278C244.671 278.957 243.468 276.387 242.709 273.672C242.17 271.708 242 269.662 242.206 267.636C242.342 266.474 242.615 265.333 243.021 264.235C243.482 263.06 244.08 261.942 244.801 260.905C245.587 259.804 246.491 258.791 247.498 257.887C248.548 256.891 249.746 256.063 251.049 255.432C253.932 254.128 257.147 253.748 260.254 254.346C263.646 254.976 266.882 256.261 269.782 258.129C272.985 260.069 275.761 262.639 277.941 265.684C281.542 272.505 285.315 279.769 289.058 287.546C290.919 291.439 292.77 295.463 294.521 299.618C296.341 303.859 297.943 308.191 299.319 312.596C300.021 314.87 300.582 317.185 300.999 319.528C301.483 321.929 301.483 324.401 300.999 326.802C300.194 329.149 298.974 331.333 297.398 333.251C295.862 335.203 294.209 337.061 292.448 338.814C287.486 343.711 282.221 348.291 276.683 352.527C271.301 356.722 265.918 360.635 260.586 364.267L260.395 364.388L260.254 364.217L248.916 351.269L248.775 351.108L248.916 350.947L275.074 322.325L275.023 322.405C274.982 322.227 274.918 322.054 274.832 321.892C274.738 321.689 274.634 321.491 274.52 321.299C274.309 320.906 274.078 320.524 273.846 320.142C273.383 319.377 272.9 318.643 272.428 317.908C271.472 316.449 270.526 315.051 269.591 313.683C267.733 310.966 265.959 308.418 264.269 306.037C260.908 301.278 257.971 297.204 255.566 293.874C250.757 287.224 248.031 283.592 248.031 283.592C248.031 283.592 248.222 283.793 248.574 284.226L250.083 286.167C251.391 287.888 253.303 290.443 255.737 293.753C258.172 297.063 261.13 301.117 264.52 305.826C266.21 308.2 268.011 310.735 269.882 313.462C270.818 314.82 271.774 316.218 272.739 317.677C273.212 318.411 273.746 319.146 274.168 319.91L274.862 321.077C274.973 321.279 275.084 321.48 275.184 321.691C275.317 321.929 275.392 322.194 275.406 322.466L275.355 322.516L249.258 351.209V350.887L260.667 363.905H260.345C265.657 360.283 271.039 356.37 276.442 352.184C281.957 347.955 287.205 343.389 292.156 338.512C293.899 336.768 295.538 334.924 297.066 332.989C298.6 331.129 299.789 329.01 300.577 326.731C301.025 324.404 301.008 322.01 300.527 319.689C300.117 317.369 299.563 315.078 298.867 312.828C297.499 308.433 295.907 304.112 294.098 299.88C292.357 295.725 290.516 291.711 288.665 287.807C284.943 280.04 281.15 272.716 277.599 265.976C275.447 262.975 272.709 260.443 269.55 258.531C266.697 256.683 263.513 255.406 260.174 254.768C257.141 254.165 253.995 254.516 251.17 255.774C249.895 256.388 248.721 257.192 247.689 258.159C246.695 259.045 245.801 260.037 245.023 261.117C244.303 262.128 243.709 263.222 243.252 264.376C242.851 265.451 242.575 266.569 242.427 267.706C242.212 269.71 242.369 271.736 242.89 273.682C243.619 276.385 244.785 278.951 246.341 281.278C246.864 282.083 247.347 282.666 247.598 283.059L248.081 283.592Z" fill="#263238"/>
<path d="M326.966 225.854C326.966 225.854 285.859 235.13 262.71 243.178C239.56 251.227 239.701 255.12 239.701 255.12L236.502 286.751C236.502 286.751 258.464 303.431 273.867 303.039C289.269 302.646 300.094 293.511 310.085 288.048C320.075 282.585 344.069 275.432 344.069 275.432C344.069 275.432 350.468 225.432 326.966 225.854Z" fill="#004E9E"/>
<path opacity="0.3" d="M276.793 264.457C276.793 264.457 292.045 278.823 298.192 295.172L292.98 297.979L276.793 264.457Z" fill="black"/>
<path d="M312.882 265.582C312.967 265.877 313.014 266.181 313.023 266.488C313.083 267.071 313.133 267.926 313.153 268.972C313.247 274.466 312.424 279.937 310.719 285.16C310.387 286.166 310.095 286.961 309.854 287.494C309.767 287.789 309.63 288.068 309.451 288.319C309.381 288.319 309.793 287.061 310.367 285.049C311.102 282.434 311.68 279.776 312.097 277.091C312.497 274.402 312.726 271.691 312.781 268.972C312.75 267.841 312.784 266.709 312.882 265.582Z" fill="#263238"/>
<path d="M334.007 280.655C334.007 280.655 381.583 263.492 386.724 247.707C388.052 243.683 376.664 236.64 372.841 234.055C361.895 226.55 339.531 222.928 329.027 225.101C329.047 225.071 344.289 253.884 334.007 280.655Z" fill="#455A64"/>
<path d="M369.219 243.098C369.179 243.272 369.111 243.438 369.018 243.591L368.314 244.939C368.012 245.532 367.63 246.247 367.147 247.051C366.664 247.856 366.141 248.792 365.507 249.788C364.259 251.8 362.66 254.124 360.768 256.619C358.877 259.114 356.654 261.73 354.169 264.356C351.684 266.981 349.139 269.295 346.744 271.327C344.35 273.36 342.096 275.04 340.154 276.358C339.148 277.052 338.283 277.615 337.498 278.138C336.714 278.662 336.02 279.074 335.486 279.396L334.168 280.161C334.022 280.264 333.858 280.343 333.686 280.392C333.816 280.272 333.958 280.164 334.108 280.07L335.376 279.225C335.929 278.873 336.613 278.43 337.388 277.887C338.162 277.344 339.048 276.77 339.983 276.056C341.905 274.688 344.108 272.957 346.483 270.935C348.857 268.913 351.352 266.569 353.837 263.973C356.322 261.378 358.515 258.752 360.436 256.297C362.358 253.842 363.968 251.548 365.245 249.567C365.909 248.561 366.453 247.675 366.946 246.88C367.439 246.086 367.861 245.391 368.193 244.818L368.968 243.52C369.039 243.372 369.123 243.231 369.219 243.098Z" fill="#263238"/>
<path d="M347.549 242.516C347.597 243.048 347.597 243.583 347.549 244.115C347.489 245.121 347.338 246.63 347.076 248.451C345.68 257.988 342.305 267.128 337.167 275.283C336.16 276.842 335.325 278.069 334.692 278.884C334.401 279.331 334.064 279.746 333.686 280.122C333.932 279.648 334.215 279.194 334.531 278.764C335.104 277.919 335.899 276.661 336.845 275.092C341.773 266.89 345.121 257.836 346.714 248.401C347.016 246.59 347.227 245.121 347.338 244.095C347.363 243.564 347.434 243.035 347.549 242.516Z" fill="#263238"/>
<g opacity="0.3">
<path d="M357.701 235.704C357.585 235.607 357.451 235.534 357.306 235.489C357.162 235.444 357.01 235.428 356.86 235.442C356.709 235.456 356.563 235.5 356.429 235.571C356.296 235.642 356.177 235.738 356.081 235.855C355.712 236.348 355.482 236.932 355.417 237.545C352.701 250.624 345.407 262.324 338.234 273.652C337.588 274.698 336.883 275.706 336.121 276.67C339.854 274.147 343.334 271.27 346.514 268.079C349.834 264.779 350.84 260.402 352.5 256.006C353.797 252.565 356.182 249.416 356.685 245.764C357.087 242.847 357.5 239.919 357.902 236.992C357.957 236.774 357.968 236.548 357.933 236.327C357.899 236.106 357.82 235.894 357.701 235.704Z" fill="black"/>
</g>
</svg>
