<svg width="526" height="465" viewBox="0 0 526 465" fill="none" xmlns="http://www.w3.org/2000/svg">
<path d="M269.253 464.514C411.05 464.514 526 402.023 526 324.937C526 247.85 411.05 185.359 269.253 185.359C127.455 185.359 12.5057 247.85 12.5057 324.937C12.5057 402.023 127.455 464.514 269.253 464.514Z" fill="#F5F5F5"/>
<path d="M399.142 308.132C428.711 308.132 452.681 294.292 452.681 277.219C452.681 260.145 428.711 246.305 399.142 246.305C369.573 246.305 345.602 260.145 345.602 277.219C345.602 294.292 369.573 308.132 399.142 308.132Z" fill="#E0E0E0"/>
<path d="M109.518 386.523C139.087 386.523 163.057 372.682 163.057 355.609C163.057 338.536 139.087 324.695 109.518 324.695C79.9486 324.695 55.978 338.536 55.978 355.609C55.978 372.682 79.9486 386.523 109.518 386.523Z" fill="#E0E0E0"/>
<path d="M479.601 266.406L471.863 261.986C471.863 261.986 468.156 241.541 470.922 223.978C474.825 199.274 491.642 190.745 497.761 193.202C503.879 195.658 505.303 202.982 494.317 217.309C487.762 225.677 479.44 243.47 479.601 266.406Z" fill="#004E9E"/>
<g opacity="0.1">
<path d="M479.601 266.406L471.863 261.986C471.863 261.986 468.156 241.541 470.922 223.978C474.825 199.274 491.642 190.745 497.761 193.202C503.879 195.658 505.303 202.982 494.317 217.309C487.762 225.677 479.44 243.47 479.601 266.406Z" fill="black"/>
</g>
<path d="M475.916 256.351H475.996C476.069 256.344 476.139 256.323 476.203 256.288C476.267 256.254 476.324 256.207 476.37 256.15C476.416 256.094 476.45 256.029 476.471 255.959C476.491 255.889 476.498 255.815 476.49 255.743C473.964 232.532 483.997 207.53 494.742 197.577C494.85 197.477 494.914 197.337 494.919 197.19C494.924 197.043 494.871 196.899 494.771 196.791C494.67 196.683 494.531 196.619 494.383 196.614C494.236 196.608 494.092 196.662 493.984 196.762C483.056 206.853 472.828 232.348 475.388 255.869C475.406 255.998 475.469 256.117 475.565 256.205C475.662 256.293 475.785 256.345 475.916 256.351Z" fill="white"/>
<path d="M501.056 278.791C502.272 279.491 504.786 277.964 505.751 277.31C507.405 276.188 508.742 274.658 509.631 272.867C510.627 270.832 510.968 268.538 510.606 266.301C510.404 265.137 510.128 263.987 509.78 262.857C509.447 261.71 509.125 260.562 508.804 259.471C508.405 258.369 508.237 257.197 508.31 256.027C508.597 253.731 510.606 252.09 512.523 250.689C514.59 249.14 516.748 247.096 516.736 244.307C516.58 242.143 515.717 240.09 514.28 238.464C512.948 236.776 511.364 235.284 510.159 233.505C509.204 232.264 508.709 230.73 508.758 229.166C508.882 228.211 509.202 227.292 509.699 226.468C510.831 224.741 511.822 222.925 512.661 221.038C513.338 219.087 513.247 216.653 511.72 215.299C511.037 214.798 510.26 214.438 509.436 214.241C508.612 214.044 507.757 214.013 506.921 214.151C505.338 214.343 503.815 214.876 502.456 215.712C498.025 218.18 495.5 223.426 490.804 225.32C488.956 225.864 487.078 226.301 485.18 226.629C484.215 226.804 483.298 227.181 482.489 227.735C481.68 228.289 480.997 229.007 480.485 229.843C478.763 233.287 481.965 237.534 480.749 241.184C479.67 244.422 476.524 245.661 474.768 248.577C474.046 249.864 473.756 251.349 473.941 252.813C474.091 255.289 474.694 257.717 475.721 259.976C476.872 262.221 478.188 264.377 479.658 266.428C479.67 266.474 500.86 278.688 501.056 278.791Z" fill="#004E9E"/>
<path d="M488.497 272.112C488.57 272.111 488.643 272.095 488.71 272.065C488.777 272.035 488.837 271.992 488.887 271.939C488.938 271.885 488.977 271.822 489.002 271.754C489.028 271.685 489.04 271.612 489.036 271.538C488.13 249.647 498.438 225.483 505.946 218.458C505.998 218.408 506.041 218.348 506.07 218.282C506.1 218.216 506.117 218.145 506.119 218.072C506.121 218 506.109 217.928 506.083 217.86C506.057 217.792 506.018 217.73 505.968 217.677C505.919 217.625 505.859 217.582 505.793 217.552C505.727 217.523 505.655 217.506 505.583 217.504C505.51 217.502 505.438 217.514 505.37 217.54C505.303 217.566 505.241 217.605 505.188 217.654C497.531 224.817 487.016 249.383 487.969 271.607C487.98 271.741 488.04 271.867 488.137 271.96C488.234 272.053 488.362 272.107 488.497 272.112Z" fill="white"/>
<path d="M491.78 246.25H491.941C497.127 244.816 502.454 243.958 507.828 243.69C507.973 243.681 508.109 243.616 508.208 243.509C508.306 243.402 508.359 243.261 508.356 243.116C508.356 243.043 508.341 242.97 508.312 242.903C508.283 242.835 508.24 242.775 508.186 242.725C508.132 242.676 508.068 242.638 507.998 242.614C507.929 242.59 507.855 242.582 507.782 242.588C502.316 242.863 496.896 243.737 491.619 245.194C491.55 245.215 491.485 245.249 491.429 245.295C491.373 245.341 491.327 245.398 491.293 245.462C491.258 245.526 491.237 245.596 491.23 245.668C491.223 245.74 491.231 245.813 491.252 245.883C491.289 245.992 491.36 246.087 491.455 246.153C491.55 246.22 491.664 246.253 491.78 246.25Z" fill="white"/>
<path d="M34.5346 291.269L42.2258 286.827C42.2258 286.827 45.9566 266.382 43.1786 248.819C39.2871 224.115 22.5158 215.598 16.3514 218.043C10.187 220.488 8.80943 227.823 19.7952 242.149C26.3499 250.518 34.7413 268.345 34.5346 291.269Z" fill="#004E9E"/>
<g opacity="0.1">
<path d="M34.5346 291.269L42.2258 286.827C42.2258 286.827 45.9566 266.382 43.1786 248.819C39.2871 224.115 22.5158 215.598 16.3514 218.043C10.187 220.488 8.80943 227.823 19.7952 242.149C26.3499 250.518 34.7413 268.345 34.5346 291.269Z" fill="black"/>
</g>
<path d="M38.6327 290.087C38.4825 290.078 38.3418 290.01 38.2409 289.899C38.1399 289.787 38.0869 289.64 38.0932 289.49C39.9069 255.052 35.0626 235.456 21.8844 223.828C21.7785 223.719 21.7192 223.572 21.7192 223.42C21.7192 223.268 21.7785 223.122 21.8844 223.013C21.9936 222.907 22.1397 222.848 22.2919 222.848C22.444 222.848 22.5902 222.907 22.6994 223.013C36.1647 234.894 41.1352 254.811 39.2985 289.593C39.2888 289.67 39.2636 289.744 39.2245 289.811C39.1854 289.878 39.1332 289.936 39.071 289.982C39.0087 290.028 38.9379 290.061 38.8625 290.079C38.7872 290.097 38.7091 290.1 38.6327 290.087Z" fill="white"/>
<path d="M36.8649 289.915C37.0256 282.522 32.7209 258.037 18.2339 249.129C3.747 240.221 -3.28984 251.321 2.57611 258.048C6.88086 262.973 14.8934 266.532 22.4354 276.714C27.6126 283.716 30.5972 293.554 30.5972 293.554L36.8649 289.915Z" fill="#004E9E"/>
<path d="M34.2705 292.784C34.1241 292.784 33.9831 292.729 33.8764 292.628C33.7697 292.528 33.7054 292.391 33.6966 292.245C32.3076 273.579 21.7121 256.831 7.92544 251.527C7.85458 251.5 7.78977 251.459 7.7347 251.407C7.67962 251.355 7.63536 251.293 7.60445 251.223C7.57354 251.154 7.55658 251.079 7.55453 251.003C7.55249 250.928 7.5654 250.852 7.59253 250.781C7.61967 250.71 7.66049 250.646 7.71268 250.591C7.76486 250.535 7.82738 250.491 7.89667 250.46C7.96596 250.429 8.04065 250.412 8.1165 250.41C8.19234 250.408 8.26784 250.421 8.33869 250.448C22.5616 255.924 33.4211 273.074 34.8445 292.164C34.8508 292.241 34.8417 292.317 34.8178 292.39C34.7939 292.463 34.7557 292.53 34.7054 292.588C34.6551 292.646 34.5938 292.693 34.525 292.727C34.4563 292.76 34.3814 292.78 34.305 292.784H34.2705Z" fill="white"/>
<path d="M326.168 72.173C327.912 73.6079 329.91 74.354 332.206 76.581C333.657 78.2325 335.489 79.5052 337.544 80.2889C340.195 81.345 342.686 81.035 350.045 79.8526C359.033 78.4177 362.901 76.9025 366.781 73.5964C371.316 69.7279 381.464 58.0534 386.365 53.4731C391.554 48.6288 398.683 50.4999 398.683 50.4999C396.476 57.6801 393.194 64.4844 388.948 70.6806C385.022 76.2711 377.687 81.6319 374.369 84.387C369.054 88.8065 366.23 90.5514 354.567 91.4353C345.763 92.1011 344.592 92.3077 337.348 92.1011C334.743 92.0207 333.124 91.9978 328.854 91.6419C327 91.5205 325.164 91.2011 323.378 90.6891C321.358 90.2242 319.422 89.4498 317.638 88.3933C315.31 86.8816 313.431 84.7725 312.197 82.2863C311.523 80.9193 311.177 79.4139 311.187 77.8897C311.205 76.3535 311.767 74.8734 312.771 73.7112C312.968 73.4739 313.22 73.2886 313.506 73.1717C314.062 73.0768 314.634 73.2002 315.101 73.516C317.856 74.928 320.634 76.8795 323.527 77.993C325.961 78.9228 327.821 79.2557 327.637 78.7621C327.453 78.2685 325.984 77.8208 324.469 76.1104C322.953 74.3999 322.575 72.0237 323.55 71.2776C324.526 70.5314 324.469 70.7266 326.168 72.173Z" fill="#FFA8A7"/>
<path d="M400.772 50.468C397.997 49.1344 394.85 48.7901 391.852 49.4923C387.318 50.8009 383.679 53.7626 379.351 58.4117C375.024 63.0609 367.711 70.5683 367.711 70.5683C367.711 70.5683 371.316 79.6715 379.397 82.9086L396.341 67.2393L400.772 50.468Z" fill="#E0E0E0"/>
<path d="M425.671 258.473H415.397V276.059H425.671V258.473Z" fill="#FFA8A7"/>
<path d="M397.236 262.905L386.974 263.261L386.457 244.653L397.236 244.297V262.905Z" fill="#FFA8A7"/>
<path d="M430.079 127.184C430.079 136.987 428.345 194.039 428.345 194.039C428.575 196.863 431.295 201.88 431.514 212.05C431.812 226.79 426.141 267.266 426.141 267.266C424.362 268.145 422.411 268.621 420.427 268.661C418.443 268.701 416.475 268.303 414.662 267.496C414.662 267.496 410.001 212.624 408.153 198.034C406.546 185.292 403.825 150.693 403.825 150.693L398.993 192.271C400.17 197.627 400.587 203.123 400.232 208.595C399.75 215.345 397.845 257.141 397.845 257.141C396.056 258.153 394.066 258.759 392.017 258.916C389.967 259.073 387.908 258.776 385.986 258.048C385.986 258.048 378.743 198.459 378.628 192.271C378.49 185.212 381.303 113.133 381.303 113.133L430.079 127.184Z" fill="#37474F"/>
<path d="M423.294 55.0245C425.556 56.0266 427.333 57.8779 428.242 60.1787C429.296 63.0159 429.806 66.0262 429.746 69.0522V89.1755L430.044 127.184C415.293 134.955 396.559 135.472 380.821 123.981C380.821 123.981 381.705 75.0674 381.705 67.0663C381.705 66.7104 381.705 66.3431 381.705 65.9184C382.279 54.439 393.528 46.6445 404.663 49.4914L414.008 51.948L423.352 55.0245H423.294Z" fill="#F0F0F0"/>
<path d="M400.159 31.3578C407.749 29.5665 412.449 21.9619 410.658 14.3724C408.867 6.78288 401.262 2.08249 393.672 3.87378C386.083 5.66507 381.383 13.2697 383.174 20.8592C384.965 28.4487 392.57 33.1491 400.159 31.3578Z" fill="#004E9E"/>
<path opacity="0.5" d="M400.159 31.3578C407.749 29.5665 412.449 21.9619 410.658 14.3724C408.867 6.78288 401.262 2.08249 393.672 3.87378C386.083 5.66507 381.383 13.2697 383.174 20.8592C384.965 28.4487 392.57 33.1491 400.159 31.3578Z" fill="black"/>
<path d="M421.32 27.6211C421.32 27.6211 419.024 38.3772 418.117 40.1336C417.51 41.2322 416.503 42.0545 415.305 42.4295L415.466 34.8646L421.32 27.6211Z" fill="#004E9E"/>
<path opacity="0.5" d="M421.32 27.6211C421.32 27.6211 419.024 38.3772 418.117 40.1336C417.51 41.2322 416.503 42.0545 415.305 42.4295L415.466 34.8646L421.32 27.6211Z" fill="black"/>
<path d="M418.45 12.2271C419.251 12.1335 420.062 12.2245 420.822 12.4932C421.583 12.7618 422.271 13.2009 422.835 13.7768C424.718 15.6939 423.662 21.7205 421.32 27.6209L417.015 28.126L418.45 12.2271Z" fill="#004E9E"/>
<path opacity="0.5" d="M418.45 12.2271C419.251 12.1335 420.062 12.2245 420.822 12.4932C421.583 12.7618 422.271 13.2009 422.835 13.7768C424.718 15.6939 423.662 21.7205 421.32 27.6209L417.015 28.126L418.45 12.2271Z" fill="black"/>
<path d="M415.718 28.1265C416.579 28.6431 417.819 26.9786 418.875 25.8307C419.931 24.6827 423.467 23.1904 425.154 26.8523C426.842 30.5142 423.627 35.4963 420.884 36.3572C416.166 37.838 415.465 34.8075 415.465 34.8075L415.156 52.3939C409.29 59.9128 393.012 59.2815 399.796 51.4181V46.2409C397.694 46.5737 395.562 46.6814 393.437 46.5624C389.993 46.0228 387.777 43.2907 386.721 39.537C385.034 33.4988 384.425 28.6316 385.826 16.762C387.398 3.75586 402.528 3.61811 410.702 8.72642C418.875 13.8347 415.718 28.1265 415.718 28.1265Z" fill="#FFA8A7"/>
<path d="M415.718 29.5743C416.154 29.5743 417.807 26.8422 418.875 25.8665C420.367 24.5119 418.45 12.229 418.45 12.229C418.842 11.1666 418.915 10.0128 418.66 8.90943C418.406 7.80605 417.834 6.80125 417.015 6.01866C414.972 3.72279 411.562 3.52764 405.731 2.57486C402.677 2.09273 398.04 1.24325 394.986 0.669286C391.347 -0.00799528 388.328 -0.719713 385.803 1.51876C384.792 2.39001 384.076 3.55391 383.755 4.8495C383.435 6.14509 383.524 7.50835 384.012 8.75075C384.731 10.2983 386.018 11.5106 387.605 12.1372C387.605 12.1372 389.189 13.5491 394.722 14.2264C399.825 14.6043 404.952 14.5044 410.036 13.9279C411.643 13.7098 411.987 15.271 412.848 19.5069C413.629 23.2377 414.26 29.5513 415.718 29.5743Z" fill="#004E9E"/>
<path opacity="0.5" d="M415.718 29.5743C416.154 29.5743 417.807 26.8422 418.875 25.8665C420.367 24.5119 418.45 12.229 418.45 12.229C418.842 11.1666 418.915 10.0128 418.66 8.90943C418.406 7.80605 417.834 6.80125 417.015 6.01866C414.972 3.72279 411.562 3.52764 405.731 2.57486C402.677 2.09273 398.04 1.24325 394.986 0.669286C391.347 -0.00799528 388.328 -0.719713 385.803 1.51876C384.792 2.39001 384.076 3.55391 383.755 4.8495C383.435 6.14509 383.524 7.50835 384.012 8.75075C384.731 10.2983 386.018 11.5106 387.605 12.1372C387.605 12.1372 389.189 13.5491 394.722 14.2264C399.825 14.6043 404.952 14.5044 410.036 13.9279C411.643 13.7098 411.987 15.271 412.848 19.5069C413.629 23.2377 414.26 29.5513 415.718 29.5743Z" fill="black"/>
<path d="M418.438 13.1835L423.662 10.3825C423.494 10.0361 423.259 9.72669 422.971 9.47251C422.682 9.21833 422.345 9.02454 421.98 8.90257C421.616 8.7806 421.23 8.73292 420.846 8.76235C420.463 8.79177 420.089 8.89771 419.747 9.0739C419.042 9.45908 418.513 10.1011 418.269 10.8665C418.026 11.6318 418.086 12.4617 418.438 13.1835Z" fill="#004E9E"/>
<path opacity="0.5" d="M418.438 13.1835L423.662 10.3825C423.494 10.0361 423.259 9.72669 422.971 9.47251C422.682 9.21833 422.345 9.02454 421.98 8.90257C421.616 8.7806 421.23 8.73292 420.846 8.76235C420.463 8.79177 420.089 8.89771 419.747 9.0739C419.042 9.45908 418.513 10.1011 418.269 10.8665C418.026 11.6318 418.086 12.4617 418.438 13.1835Z" fill="black"/>
<path d="M399.762 46.2425C399.762 46.2425 407.51 44.6813 410.219 43.2349C411.831 42.409 413.152 41.1116 414.007 39.5156C413.6 41.0977 412.878 42.5814 411.884 43.8778C409.898 46.4147 399.808 48.2744 399.808 48.2744L399.762 46.2425Z" fill="#F28F8F"/>
<path d="M400.141 26.1894C400.15 26.4938 400.248 26.7887 400.424 27.0375C400.599 27.2862 400.844 27.4777 401.128 27.588C401.412 27.6983 401.722 27.7225 402.02 27.6576C402.317 27.5927 402.589 27.4416 402.801 27.2232C403.013 27.0047 403.157 26.7286 403.213 26.4293C403.269 26.13 403.236 25.8208 403.117 25.5403C402.999 25.2598 402.8 25.0204 402.546 24.8521C402.292 24.6837 401.995 24.5939 401.69 24.5938C401.274 24.6028 400.878 24.7752 400.588 25.0738C400.298 25.3724 400.137 25.7732 400.141 26.1894Z" fill="#263238"/>
<path d="M401.782 20.3211L405.111 22.1578C405.345 21.7016 405.394 21.1731 405.248 20.6817C405.103 20.1903 404.774 19.7735 404.331 19.5176C404.112 19.3973 403.871 19.3226 403.622 19.298C403.374 19.2735 403.123 19.2995 402.885 19.3746C402.646 19.4497 402.426 19.5723 402.236 19.735C402.047 19.8977 401.892 20.0971 401.782 20.3211Z" fill="#263238"/>
<path d="M400.462 36.9102L396.915 38.2418C396.994 38.4777 397.121 38.6952 397.286 38.8815C397.451 39.0677 397.652 39.2188 397.877 39.3259C398.102 39.4329 398.346 39.4937 398.595 39.5047C398.844 39.5157 399.092 39.4766 399.325 39.3897C399.797 39.2019 400.179 38.8395 400.391 38.3777C400.602 37.9159 400.628 37.3903 400.462 36.9102Z" fill="#F28F8F"/>
<path d="M386.744 21.6198L389.775 19.3239C389.639 19.1134 389.461 18.9331 389.253 18.7943C389.044 18.6554 388.809 18.561 388.563 18.5168C388.316 18.4727 388.063 18.4798 387.819 18.5377C387.575 18.5955 387.346 18.703 387.146 18.8533C386.73 19.1702 386.455 19.6374 386.38 20.1546C386.305 20.6718 386.436 21.1978 386.744 21.6198Z" fill="#263238"/>
<path d="M387.674 25.7397C387.685 26.0458 387.786 26.3418 387.964 26.5908C388.143 26.8399 388.39 27.0311 388.676 27.1405C388.962 27.2499 389.274 27.2727 389.573 27.2062C389.872 27.1396 390.145 26.9866 390.358 26.7661C390.57 26.5457 390.713 26.2675 390.769 25.9664C390.825 25.6652 390.791 25.3543 390.671 25.0723C390.551 24.7904 390.351 24.5499 390.096 24.3807C389.841 24.2116 389.541 24.1213 389.235 24.1211C389.026 24.1241 388.82 24.1684 388.628 24.2515C388.436 24.3346 388.263 24.4549 388.117 24.6053C387.972 24.7558 387.858 24.9335 387.782 25.1282C387.706 25.3229 387.669 25.5307 387.674 25.7397Z" fill="#263238"/>
<path d="M395.583 24.2695L395.078 33.6137L390.199 31.9492L395.583 24.2695Z" fill="#F28F8F"/>
<path d="M415.397 270.987V269.517C414.409 269.954 412.125 278.701 408.05 282.374C404.813 285.336 400.393 288.745 399.268 292.04C398.143 295.335 405.421 297.355 408.452 296.827C411.964 296.195 418.06 293.727 419.598 291.432C421.136 289.136 421.836 285.749 423.042 284.062C424.247 282.374 427.151 280.503 427.817 278.552C428.185 277.484 427.748 275.108 427.232 273.168C426.715 271.228 426.245 269.357 425.625 269.517C425.625 269.747 425.625 270.665 425.625 270.665C424.159 271.814 422.344 272.425 420.482 272.399C419.024 272.433 415.385 272.135 415.397 270.987Z" fill="#263238"/>
<path d="M386.87 260.091C386.331 260.091 385.895 260.86 384.724 262.134C382.967 263.91 380.926 265.381 378.686 266.485C374.84 268.402 367.355 271.363 363.969 272.89C361.857 273.843 361.96 276.403 364.141 277.849C366.322 279.296 371.603 280.352 377.916 278.94C381.36 278.159 385.86 274.979 388.707 275.151C391.554 275.324 396.869 275.278 398.97 273.831C401.07 272.385 400.232 269.297 399.635 266.634C398.993 263.741 398.177 259.218 397.225 259.425V260.424C395.985 262.295 389.614 263.052 386.893 261.675L386.87 260.091Z" fill="#263238"/>
<path d="M403.837 150.692C398.527 149.04 393.644 146.242 389.534 142.496C389.534 142.496 392.289 147.662 400.496 152.472L399.348 188.781L403.837 150.692Z" fill="#263238"/>
<path d="M99.1634 84.6758H102.825C108.278 84.6758 113.507 86.8419 117.363 90.6975C121.219 94.5532 123.385 99.7826 123.385 105.235V148.857H78.6154V105.235C78.6154 99.7826 80.7814 94.5532 84.6371 90.6975C88.4927 86.8419 93.7221 84.6758 99.1749 84.6758H99.1634Z" fill="#263238"/>
<path d="M97.6941 363.313L94.8128 360.753C92.0233 358.204 89.8996 353.865 88.6713 350.949C87.9781 349.267 87.6194 347.466 87.6152 345.646V339.906H77.5593V349.239V349.457C78.0415 351.546 82.6676 357.114 85.2849 360.741C87.0527 363.175 90.3932 366.263 94.388 366.802C98.2107 367.376 100.151 366.182 97.6941 363.313Z" fill="#FFA8A7"/>
<path d="M126.771 348C127.053 347.837 127.299 347.618 127.495 347.358C128.275 346.278 127.655 345.693 127.081 344.832C126.392 343.637 125.815 342.38 125.359 341.078C124.889 339.93 124.28 337.887 124.28 337.887C124.28 337.887 124.28 336.383 124.28 335.775V330.035H114.213V339.62C114.729 341.916 116.773 344.017 118.104 345.796C119.138 347.174 121.801 347.874 123.408 348.218C124.112 348.399 124.844 348.45 125.566 348.368C125.988 348.324 126.397 348.199 126.771 348Z" fill="#FFA8A7"/>
<path d="M79.5567 193.179C71.7507 210.226 79.8437 270.263 79.8437 270.263C79.6026 273.029 76.3999 278.471 75.2519 290.639C73.8629 305.022 77.433 341.148 77.433 341.148C78.9695 342.038 80.7 342.54 82.4743 342.61C84.2487 342.68 86.0133 342.316 87.6152 341.55C87.6152 341.55 97.2004 287.16 99.0027 272.857C100.575 260.379 103.594 232.943 103.594 232.943L109.598 272.846C108.351 276.871 107.448 280.996 106.9 285.174C106.085 293.577 114.236 332.745 114.236 332.745C114.236 332.745 117.68 334.019 124.303 333.043C124.303 333.043 127.184 281.076 127.942 270.94C129.216 253.928 127.276 200.778 124.154 190.711L79.5567 193.179Z" fill="#37474F"/>
<path d="M103.617 232.93L106.143 217.1C106.143 217.1 116.865 214.873 121.72 210.305C121.72 210.305 116.624 216.653 109.093 218.731L106.246 230.91L108.795 267.07L103.617 232.93Z" fill="#263238"/>
<path d="M87.6496 347.735V346.277C88.6139 346.702 90.8638 355.266 94.8701 358.905C98.0499 361.809 102.401 365.161 103.503 368.398C104.605 371.635 97.453 373.621 94.4798 373.105C91.036 372.485 85.0438 370.051 83.54 367.801C82.0362 365.551 81.3245 362.222 80.0962 360.569C78.8679 358.916 76.0555 357.079 75.3667 355.197C74.9994 354.152 75.4356 351.845 75.9407 349.905C76.4458 347.965 76.9164 346.163 77.5248 346.323V347.471C78.9616 348.597 80.7389 349.2 82.5642 349.182C84.0795 349.159 87.6611 348.86 87.6496 347.735Z" fill="#263238"/>
<path d="M124.28 337.888C124.797 337.888 125.428 338.692 126.576 339.943C128.303 341.687 130.309 343.13 132.511 344.213C136.288 346.107 143.634 349.012 146.963 350.515C149.041 351.445 148.938 353.959 146.791 355.383C144.645 356.806 139.467 357.839 133.246 356.45C129.802 355.693 125.44 352.559 122.639 352.731C119.838 352.903 114.603 352.857 112.56 351.434C110.517 350.01 111.32 346.98 111.906 344.374C112.548 341.527 113.34 337.085 114.282 337.28V338.267C115.499 340.104 121.755 340.85 124.418 339.495L124.28 337.888Z" fill="#263238"/>
<path d="M109.977 133.508C112.425 133.293 114.886 133.708 117.129 134.712C119.371 135.717 121.319 137.278 122.788 139.248C126.817 144.506 137.424 166.041 137.424 166.041C137.424 166.041 160.716 164.48 161.829 163.137C162.943 161.794 162.323 159.061 162.013 157.558C161.703 156.054 161.198 152.725 160.865 151.818C160.279 150.176 162.702 150.67 164.125 152.151C165.548 153.632 166.18 156.662 166.892 157.179C167.603 157.695 173.01 151.439 175.627 148.466C178.245 145.493 179.484 143.369 181.241 144.609C182.515 145.504 181.7 147.284 179.817 149.855C178.938 150.953 178.125 152.103 177.384 153.299C177.166 153.77 177.854 154.137 178.13 154.378C178.646 154.837 179.542 155.583 179.611 156.295C179.599 156.679 179.622 157.063 179.68 157.443C179.921 158.304 180.988 158.706 181.287 159.544C181.505 160.152 181.287 160.829 181.378 161.461C181.459 161.862 181.688 162.23 181.757 162.609C181.785 163.015 181.724 163.422 181.579 163.802C181.435 164.183 181.21 164.527 180.919 164.813C179.071 167.005 176.557 167.843 174.135 169.186C172.126 170.334 170.06 170.782 167.741 171.815C165.422 172.848 137.114 180.172 132.878 177.819C128.642 175.465 112.399 149.958 112.399 149.958C106.062 139.455 109.977 133.508 109.977 133.508Z" fill="#FFA8A7"/>
<path d="M93.3203 133.97C83.3218 134.658 82.6216 139.491 80.1191 144.772C78.202 148.801 78.8334 153.599 80.2913 157.801L86.6164 177.832C86.6164 177.832 83.3448 185.73 79.5566 193.18C97.0511 202.949 118.896 197.772 124.154 190.689C124.383 189.174 123.006 177.362 122.202 169.636C125.279 161.91 126.094 157.009 124.797 151.9C122.375 142.418 113.007 133.178 108.863 133.533L93.3203 133.97Z" fill="#004E9E"/>
<path d="M77.5247 93.918L80.5553 98.7852C80.2459 98.9998 79.8962 99.1495 79.5274 99.2254C79.1586 99.3012 78.7783 99.3016 78.4093 99.2266C78.0403 99.1515 77.6903 99.0025 77.3805 98.7885C77.0706 98.5746 76.8073 98.3001 76.6064 97.9817C76.2109 97.3153 76.0858 96.5228 76.2566 95.767C76.4274 95.0112 76.8812 94.3495 77.5247 93.918Z" fill="#263238"/>
<path d="M116.038 93.7344C118.403 95.1234 121.319 101.07 121.032 113.548C120.79 124.109 117.358 126.726 115.648 127.472C113.937 128.218 110.608 127.771 107.383 127.231V133.579C107.383 133.579 111.837 138.756 111.561 141.615C111.286 144.473 105.121 145.208 100.954 142.372C98.234 140.428 95.8986 137.995 94.0666 135.198V119.873C94.0666 119.873 91.897 122.777 88.3269 120.412C84.7568 118.048 84.6305 112.193 86.6968 110.081C88.7631 107.969 93.2286 108.646 94.0551 111.55C94.0551 111.55 99.1978 111.734 106.051 107.98C108.717 106.556 111.01 104.524 112.745 102.049C114.479 99.5743 115.608 96.7259 116.038 93.7344Z" fill="#FFA8A7"/>
<path d="M108.048 110.884C108.053 111.145 107.98 111.402 107.839 111.622C107.698 111.842 107.496 112.016 107.257 112.122C107.018 112.228 106.753 112.261 106.496 112.218C106.238 112.174 105.999 112.056 105.808 111.878C105.617 111.699 105.483 111.469 105.422 111.215C105.361 110.96 105.376 110.694 105.466 110.448C105.556 110.203 105.715 109.989 105.926 109.834C106.136 109.679 106.387 109.589 106.648 109.575C106.826 109.569 107.003 109.598 107.17 109.66C107.337 109.723 107.489 109.818 107.619 109.939C107.749 110.061 107.854 110.207 107.928 110.369C108.002 110.531 108.042 110.706 108.048 110.884Z" fill="#263238"/>
<path d="M109.587 119.871L112.675 120.858C112.623 121.069 112.529 121.266 112.399 121.439C112.269 121.612 112.105 121.756 111.917 121.864C111.729 121.971 111.521 122.039 111.306 122.063C111.091 122.088 110.873 122.069 110.666 122.006C110.241 121.865 109.889 121.561 109.687 121.161C109.485 120.761 109.449 120.297 109.587 119.871Z" fill="#F28F8F"/>
<path d="M118.988 106.806L116.256 104.947C116.369 104.765 116.518 104.608 116.693 104.486C116.868 104.363 117.067 104.278 117.276 104.235C117.486 104.192 117.702 104.192 117.912 104.236C118.121 104.279 118.319 104.365 118.495 104.488C118.86 104.735 119.116 105.115 119.208 105.548C119.3 105.98 119.221 106.431 118.988 106.806Z" fill="#263238"/>
<path d="M118.322 109.932C118.336 110.108 118.315 110.286 118.259 110.455C118.204 110.623 118.115 110.779 117.999 110.912C117.882 111.046 117.74 111.155 117.581 111.233C117.421 111.311 117.248 111.356 117.071 111.367C116.797 111.391 116.522 111.334 116.281 111.201C116.04 111.068 115.845 110.866 115.72 110.621C115.594 110.376 115.546 110.099 115.579 109.826C115.613 109.553 115.727 109.297 115.908 109.089C116.089 108.882 116.328 108.734 116.594 108.663C116.859 108.593 117.14 108.603 117.4 108.694C117.66 108.785 117.887 108.951 118.051 109.172C118.215 109.392 118.31 109.657 118.322 109.932Z" fill="#263238"/>
<path d="M111.837 109.16L112.043 117.161L116.256 115.864L111.837 109.16Z" fill="#F28F8F"/>
<path d="M107.383 127.231C103.939 126.783 97.0511 124.774 95.9032 122.008C96.3336 123.411 97.1878 124.646 98.3483 125.543C100.438 127.334 107.383 129.343 107.383 129.343V127.231Z" fill="#F28F8F"/>
<path opacity="0.1" d="M97.7974 195.072C93.0335 193.924 88.2007 188.735 90.3818 183.65C91.0034 182.222 92.0707 181.034 93.4238 180.263C93.9228 179.979 94.4986 179.86 95.0693 179.921C95.6401 179.983 96.177 180.223 96.6036 180.608C94.3077 179.104 90.3703 171.791 89.8422 169.128L87.1446 160.128C86.8936 158.07 87.0774 155.982 87.6841 153.998L80.6473 145.871L79.3501 146.766C78.2022 150.291 79.0746 154.274 80.2914 157.798L86.6165 177.83C86.6165 177.83 83.3449 185.727 79.5567 193.177C85.2494 196.234 91.5312 198.035 97.9787 198.459C104.426 198.883 110.89 197.92 116.934 195.634C110.576 196.654 104.084 196.463 97.7974 195.072Z" fill="black"/>
<path d="M180.426 394.788L157.674 381.656C155.309 380.255 153.989 376.743 153.989 372.22L153.897 272.43L176.856 285.665L176.764 385.777C176.729 390.185 178.153 393.33 180.426 394.788Z" fill="#004E9E"/>
<path opacity="0.2" d="M180.426 394.788L157.674 381.656C155.309 380.255 153.989 376.743 153.989 372.22L153.897 272.43L176.856 285.665L176.764 385.777C176.729 390.185 178.153 393.33 180.426 394.788Z" fill="black"/>
<path d="M180.586 394.882L180.426 394.79C178.13 393.332 176.729 390.198 176.729 385.779L176.821 285.667L153.863 272.432L173.687 260.872L173.871 260.769L176.683 259.139L179.852 256.935L179.978 256.854L180.104 256.762C180.277 256.648 180.414 256.521 180.564 256.407L180.747 256.28L181.298 255.867L181.826 255.454C181.972 255.316 182.121 255.19 182.274 255.075L182.446 254.937L182.607 254.799C182.905 254.57 183.192 254.317 183.468 254.076L183.904 253.674L184.065 253.502C184.604 253.009 185.144 252.469 185.637 251.93L185.821 251.757C186.028 251.536 186.223 251.317 186.406 251.103C186.504 251 186.593 250.889 186.671 250.77C186.763 250.683 186.848 250.587 186.923 250.483V250.403L186.992 250.3L187.118 250.162L187.727 249.393C187.887 249.163 188.06 248.922 188.209 248.681L188.335 248.532V248.463C188.553 248.153 188.748 247.843 188.943 247.533C189.139 247.223 189.276 246.994 189.437 246.718L189.494 246.615C189.621 246.362 189.758 246.133 189.885 245.88L190.08 245.524C190.241 245.214 190.39 244.904 190.528 244.583L190.78 243.997C190.881 243.806 190.965 243.606 191.033 243.4C191.117 243.239 191.186 243.07 191.239 242.895C191.297 242.735 191.377 242.551 191.434 242.39C191.584 241.989 191.71 241.575 191.848 241.151C191.951 240.818 192.066 240.462 192.158 240.106C192.158 240.106 192.158 240.014 192.158 239.957C192.272 239.578 192.353 239.188 192.433 238.809V238.682C192.433 238.384 192.571 238.074 192.628 237.753C192.709 237.316 192.8 236.811 192.858 236.341V236.1C192.858 235.996 192.858 235.893 192.858 235.778C192.864 235.736 192.864 235.694 192.858 235.652C192.852 235.545 192.852 235.438 192.858 235.33C192.915 234.768 192.961 234.183 193.007 233.677V233.425V232.794C193.007 231.967 193.03 231.129 193.076 230.28V230.073C193.076 229.832 193.076 229.614 193.076 229.361V228.741C193.076 228.466 193.076 228.167 193.076 227.903C193.082 227.831 193.082 227.758 193.076 227.685C193.082 227.613 193.082 227.54 193.076 227.467V227.157C193.076 226.732 193.019 226.319 192.984 225.94V225.872C192.984 225.504 192.904 225.16 192.869 224.827C192.662 223.276 192.343 221.741 191.917 220.235C191.653 219.317 191.366 218.479 191.113 217.687C190.443 215.888 189.973 214.021 189.713 212.119C189.713 211.74 189.621 211.35 189.586 210.971C189.552 210.593 189.586 210.087 189.506 209.617V209.41C189.495 209.299 189.495 209.188 189.506 209.077C189.484 208.837 189.484 208.595 189.506 208.354C189.506 203.062 192.72 196.875 196.703 194.579C197.098 194.346 197.523 194.168 197.966 194.051C198.251 193.973 198.544 193.927 198.839 193.913C199.121 193.878 199.406 193.878 199.688 193.913C199.825 193.932 199.959 193.962 200.09 194.005C200.491 194.124 200.876 194.289 201.238 194.498L224.598 207.803C224.733 207.879 224.864 207.963 224.989 208.056C226.343 209.089 227.101 211.052 227.101 213.6C227.101 213.944 227.101 214.3 227.032 214.851V215.001C226.874 218.314 226.342 221.598 225.448 224.792C225.253 225.607 225.057 226.423 224.874 227.283C224.793 227.57 224.736 227.869 224.679 228.156C224.472 229.028 224.288 229.935 224.139 230.911C224.082 231.221 224.036 231.554 223.99 231.875L240.061 222.772L263.02 236.008V262.341C263.02 269.734 262.457 274.67 261.309 277.425C260.506 279.331 259.277 280.525 256.442 282.155C254.216 283.529 251.664 284.285 249.049 284.347C248.223 284.347 247.442 284.497 246.65 284.6L245.72 284.761C245.422 284.818 245.135 284.875 244.825 284.956C244.274 285.082 243.677 285.266 243.126 285.449L242.667 285.622C241.801 285.957 240.954 286.34 240.13 286.769C240.025 286.812 239.924 286.865 239.831 286.93H239.751L239.613 286.999C239.303 287.137 238.947 287.309 238.58 287.516C235.177 289.633 232.288 292.479 230.12 295.85C228.971 297.557 227.962 299.353 227.101 301.222C226.28 302.99 225.582 304.811 225.012 306.675L226.274 305.332C227.469 303.988 228.741 302.715 230.085 301.52C231.206 300.55 232.417 299.689 233.701 298.949C235.538 297.893 237.007 297.043 238.098 297.721L260.85 311.278L261.114 311.473C261.177 311.533 261.235 311.598 261.286 311.668C261.328 311.696 261.36 311.736 261.378 311.783C261.445 311.856 261.502 311.937 261.55 312.024C261.55 312.024 261.55 312.024 261.55 312.081C261.621 312.191 261.682 312.306 261.734 312.426C262.319 313.666 262.71 315.87 262.882 319.566C262.882 319.968 262.882 320.392 262.882 320.852C262.882 322 262.882 323.308 262.882 324.743V351.065L187.922 394.342C186.703 395.09 185.328 395.546 183.904 395.674C183.453 395.714 183 395.714 182.549 395.674C182.4 395.667 182.253 395.636 182.113 395.582C181.573 395.425 181.058 395.189 180.586 394.882Z" fill="#004E9E"/>
<path opacity="0.1" d="M238.086 297.719L260.816 311.276C259.737 310.587 258.256 311.46 256.419 312.516C255.136 313.252 253.929 314.114 252.814 315.087C251.461 316.272 250.184 317.541 248.992 318.887C246.366 321.933 243.343 324.612 240.004 326.853C239.556 327.175 239.028 327.508 238.534 327.795C230.212 332.605 223.439 327.485 223.439 316.384C223.48 313.08 224.01 309.799 225.012 306.65C225.436 306.202 225.838 305.754 226.251 305.33C227.446 303.986 228.718 302.713 230.062 301.519C231.179 300.549 232.386 299.688 233.667 298.947C235.515 297.891 237.007 297.042 238.086 297.719Z" fill="black"/>
<path opacity="0.1" d="M223.921 231.888L240.072 222.773L263.031 236.021L243.298 247.408L237.363 250.508H237.294H237.237L236.812 250.691L236.594 250.772L235.607 251.173L235.056 251.368L234.907 251.426C234.585 251.529 234.275 251.644 233.977 251.724L233.334 251.897C233.001 251.988 232.691 252.046 232.381 252.103H232.278L231.853 252.172C231.473 252.224 231.089 252.255 230.705 252.264H230.338C229.891 252.258 229.445 252.212 229.006 252.126L228.777 252.069C228.439 251.977 228.109 251.858 227.789 251.713C227.695 251.681 227.606 251.634 227.525 251.575C227.238 251.41 226.962 251.226 226.699 251.024H226.642L226.446 250.852C226.149 250.577 225.88 250.273 225.643 249.945L225.528 249.807C224.908 248.852 224.451 247.801 224.174 246.696L224.116 246.501C223.967 245.916 223.864 245.353 223.76 244.722V244.412C223.657 243.723 223.577 242.989 223.531 242.242C223.462 241.255 223.439 240.394 223.439 239.533C223.407 236.976 223.568 234.421 223.921 231.888Z" fill="black"/>
<path opacity="0.1" d="M176.821 285.668L153.863 272.432L173.687 260.872L173.86 260.769H173.928L176.741 259.139L179.921 256.935L180.035 256.855L180.162 256.763C180.334 256.648 180.472 256.522 180.621 256.407L180.793 256.281L181.356 255.867L181.884 255.454C182.029 255.316 182.178 255.19 182.331 255.075L182.504 254.938L182.664 254.8C182.963 254.57 183.25 254.318 183.525 254.077L183.961 253.675L184.122 253.503C184.662 253.009 185.201 252.47 185.695 251.93L185.878 251.758C186.085 251.536 186.28 251.318 186.464 251.103C186.562 251.001 186.65 250.889 186.728 250.771C186.82 250.679 186.889 250.575 186.969 250.484L187.038 250.403L187.118 250.311L187.233 250.162C187.44 249.91 187.658 249.657 187.841 249.393L188.335 248.693L188.45 248.532V248.463C188.668 248.153 188.863 247.843 189.058 247.533C189.253 247.223 189.391 246.994 189.552 246.718V246.604C189.69 246.362 189.827 246.133 189.954 245.88C190.029 245.766 190.098 245.647 190.16 245.525C190.298 245.203 190.459 244.893 190.596 244.583L190.849 243.998C190.941 243.814 191.021 243.619 191.113 243.412C191.205 243.206 191.251 243.079 191.308 242.896C191.366 242.712 191.446 242.551 191.503 242.391C191.653 241.977 191.779 241.587 191.917 241.151C192.02 240.818 192.135 240.462 192.227 240.106C192.227 240.106 192.227 240.014 192.227 239.957C192.318 239.59 192.422 239.188 192.502 238.809V238.694C192.559 238.373 192.628 238.074 192.686 237.753C192.766 237.317 192.858 236.812 192.915 236.341V236.1C192.915 236.008 192.915 235.893 192.915 235.779C192.922 235.737 192.922 235.694 192.915 235.652C192.915 235.549 192.915 235.434 192.915 235.319C192.984 234.745 193.03 234.171 193.065 233.678V233.425C193.065 233.207 193.065 233.023 193.065 232.794C193.065 231.967 193.087 231.129 193.133 230.28V230.073C193.133 229.832 193.133 229.614 193.133 229.362V228.742C193.133 228.466 193.133 228.168 193.133 227.892V227.686C193.139 227.613 193.139 227.54 193.133 227.467V227.158C193.133 226.733 193.076 226.32 193.042 225.941V225.86L192.938 224.827C192.731 223.276 192.412 221.741 191.985 220.235C191.733 219.306 191.446 218.468 191.182 217.687C190.512 215.888 190.042 214.021 189.781 212.12C189.781 211.741 189.69 211.35 189.655 210.972C189.621 210.593 189.655 210.099 189.586 209.617V209.41C189.586 209.296 189.586 209.181 189.586 209.066C189.564 208.826 189.564 208.583 189.586 208.343C189.586 203.051 192.801 196.864 196.784 194.568C197.179 194.335 197.604 194.157 198.047 194.04C198.331 193.962 198.624 193.916 198.919 193.902C199.2 193.856 199.487 193.856 199.768 193.902C199.905 193.92 200.039 193.951 200.17 193.994C200.571 194.113 200.956 194.278 201.318 194.487L224.598 207.803C224.111 207.522 223.565 207.357 223.003 207.321C222.594 207.306 222.186 207.34 221.786 207.425C221.118 207.574 220.479 207.83 219.892 208.182C219.19 208.599 218.539 209.096 217.952 209.663C216.347 211.245 215.071 213.13 214.198 215.208C213.991 215.655 213.831 216.114 213.658 216.585C213.441 217.244 213.26 217.915 213.119 218.594C212.867 219.686 212.736 220.802 212.729 221.923C212.729 222.233 212.729 222.589 212.729 222.979V223.094C212.776 224.955 213.042 226.805 213.521 228.604C213.59 228.902 213.681 229.189 213.762 229.476C213.945 230.062 214.129 230.624 214.313 231.198C214.577 231.99 214.864 232.817 215.128 233.747C215.22 234.068 215.3 234.39 215.38 234.711C215.461 235.032 215.541 235.388 215.633 235.744C215.888 236.942 216.076 238.153 216.195 239.372V239.429C216.184 239.632 216.184 239.835 216.195 240.037V240.657V240.818V240.979C216.195 241.116 216.195 241.254 216.195 241.403C216.207 241.545 216.207 241.687 216.195 241.828C216.195 241.966 216.195 242.115 216.195 242.253V242.884C216.195 243.102 216.195 243.332 216.195 243.584V243.688C216.195 244.113 216.195 244.537 216.195 244.962C216.195 245.387 216.195 245.8 216.138 246.225C216.138 246.431 216.138 246.649 216.138 246.845V247.097C216.138 247.637 216.058 248.188 215.989 248.739C215.989 249.003 215.92 249.255 215.885 249.531V249.749L215.644 251.184L215.438 252.114V252.228C215.438 252.447 215.346 252.665 215.277 252.894C215.208 253.124 215.162 253.33 215.105 253.526C215.047 253.721 215.105 253.709 215.047 253.801C214.99 253.893 214.875 254.318 214.806 254.582C214.68 254.995 214.542 255.408 214.393 255.81C214.244 256.212 214.129 256.499 214.003 256.832C213.877 257.165 213.67 257.624 213.498 257.98L213.027 258.944C212.935 259.116 212.843 259.311 212.74 259.483L212.453 260.023L212.384 260.138C212.313 260.28 212.232 260.418 212.143 260.551L212.063 260.689C212.013 260.778 211.956 260.863 211.891 260.941C211.696 261.263 211.5 261.573 211.294 261.883V261.951L211.179 262.112C211.102 262.232 211.018 262.347 210.926 262.457C210.853 262.576 210.772 262.691 210.685 262.801L210.467 263.088C210.346 263.259 210.216 263.424 210.077 263.582L209.962 263.731L209.836 263.903L209.572 264.213L209.491 264.305C209.491 264.374 209.377 264.454 209.308 264.523L209.009 264.856C208.929 264.959 208.826 265.062 208.722 265.177L208.55 265.349C208.051 265.902 207.522 266.427 206.966 266.922L206.805 267.094L206.358 267.496C206.094 267.749 205.807 267.99 205.508 268.231L205.347 268.357L205.267 268.437L205.187 268.506L204.739 268.873L203.591 269.7L203.419 269.838L202.96 270.182L202.707 270.354L199.527 272.558L196.715 274.188L196.623 274.257L196.439 274.349L176.821 285.668Z" fill="black"/>
<mask id="mask0_1323_88292" style="mask-type:luminance" maskUnits="userSpaceOnUse" x="223" y="171" width="134" height="181">
<path d="M238.557 317.245C238.798 317.107 239.074 316.912 239.372 316.705C241.884 315.01 244.154 312.983 246.122 310.679C247.144 309.531 248.051 308.612 249.084 307.614L249.244 307.453L249.543 307.166L249.681 307.028C250.197 306.546 250.702 306.098 251.207 305.662L260.724 311.345C260.919 311.465 261.09 311.621 261.229 311.804C261.311 311.9 261.384 312.004 261.447 312.114V312.183C261.507 312.286 261.561 312.393 261.608 312.504V312.607L261.745 312.963C261.745 312.963 261.745 313.055 261.745 313.101C261.794 313.229 261.837 313.359 261.872 313.491C261.872 313.549 261.872 313.606 261.872 313.663C261.872 313.721 261.952 313.973 261.998 314.145V314.295C261.998 314.501 262.078 314.719 262.124 314.961C262.124 315.225 262.205 315.5 262.251 315.787V315.856L262.354 316.682C262.354 316.774 262.354 316.866 262.354 316.958L262.423 317.67C262.423 317.796 262.423 317.922 262.423 318.037C262.423 318.152 262.423 318.508 262.48 318.76C262.538 319.013 262.48 319.047 262.48 319.196V319.943C262.48 320.103 262.48 320.275 262.48 320.448C262.48 320.62 262.48 320.987 262.48 321.263C262.48 321.538 262.48 321.596 262.48 321.768C262.48 321.94 262.48 322.422 262.48 322.755V323.214C262.48 323.719 262.48 324.224 262.48 324.764V351.063L356.611 296.697V281.854C356.616 281.766 356.616 281.678 356.611 281.59V171.09L336.866 182.489L336.499 182.707L336.269 182.845L332.378 185.255C330.819 186.286 329.321 187.406 327.889 188.607L327.798 188.688L327.557 188.883C327.201 189.181 326.868 189.491 326.535 189.801L326.443 189.893L326.018 190.306C325.708 190.605 325.41 190.903 325.111 191.213L324.549 191.822C324.273 192.131 323.998 192.441 323.734 192.763C323.47 193.084 323.39 193.188 323.194 193.452C322.999 193.716 322.678 194.117 322.437 194.45L322.024 195.059L321.932 195.219L321.817 195.38C321.622 195.679 321.427 195.977 321.254 196.276C321.082 196.574 320.99 196.723 320.876 196.964L320.772 197.136C320.428 197.779 320.084 198.457 319.785 199.145L319.705 199.318C319.578 199.605 319.441 199.892 319.326 200.19C319.211 200.488 319.096 200.798 318.993 201.108L318.913 201.338C318.786 201.694 318.66 202.038 318.557 202.406C318.453 202.773 318.339 203.152 318.235 203.553C318.132 203.955 318.04 204.334 317.948 204.701C317.857 205.069 317.788 205.459 317.719 205.849C317.65 206.24 317.57 206.676 317.512 207.101V207.181C317.512 207.525 317.409 207.87 317.363 208.226C317.317 208.581 317.271 209.144 317.225 209.638V209.913C317.225 210.177 317.225 210.441 317.168 210.705C317.168 211.268 317.168 211.853 317.168 212.68V212.794C317.168 212.944 317.168 213.081 317.168 213.231C317.077 217.46 317.778 221.668 319.234 225.64C320.197 228.214 320.732 230.928 320.818 233.675V233.802C320.818 234.18 320.876 234.536 320.876 234.858C320.82 237.666 320.096 240.421 318.763 242.893C317.63 245.239 315.87 247.225 313.678 248.633C313.331 248.827 312.97 248.996 312.599 249.138L312.415 249.207C312.088 249.319 311.749 249.396 311.405 249.436H311.221C310.897 249.471 310.57 249.471 310.246 249.436H310.177C309.85 249.384 309.533 249.284 309.236 249.138L309.144 249.081L299.214 243.249C299.214 242.951 299.214 242.664 299.294 242.365C299.375 242.067 299.375 241.676 299.421 241.332C299.512 240.62 299.604 239.932 299.719 239.266C299.834 238.6 299.926 238.049 300.041 237.463C300.109 237.154 300.167 236.855 300.224 236.568C300.5 235.294 300.787 234.02 301.12 232.654C302.111 229.149 302.636 225.528 302.681 221.886C302.681 218.442 302.382 216.892 301.453 216.341L290.134 209.81L270.917 220.887L263.008 216.296V225.479L256.121 229.485L253.917 230.748L263.1 236.029V249.666V262.362C263.1 269.755 262.538 274.691 261.39 277.446C260.586 279.34 259.358 280.534 256.522 282.176C254.293 283.551 251.737 284.308 249.118 284.368C248.315 284.368 247.511 284.517 246.742 284.621L245.801 284.781C245.514 284.839 245.215 284.896 244.905 284.976C244.331 285.112 243.764 285.277 243.206 285.47H243.092L242.747 285.585C241.88 285.918 241.033 286.302 240.21 286.733L239.9 286.882H239.831H239.694C239.336 287.035 238.988 287.208 238.649 287.399C235.251 289.514 232.368 292.361 230.212 295.733C229.661 296.536 229.144 297.374 228.65 298.235L228.455 298.614C228.031 299.372 227.629 300.141 227.307 300.91L227.227 301.093C226.405 302.86 225.707 304.682 225.138 306.546C224.622 308.228 224.238 309.947 223.99 311.689L234.046 317.497C234.756 317.848 235.544 318.009 236.335 317.965C237.125 317.92 237.891 317.672 238.557 317.245Z" fill="white"/>
</mask>
<g mask="url(#mask0_1323_88292)">
<path d="M264.397 285.769L239.958 271.661L240.497 270.915L240.554 270.846L240.818 270.467C241.209 269.893 241.576 269.319 241.966 268.711L242.07 268.527C242.426 267.896 242.77 267.207 243.103 266.484C243.172 266.312 243.252 266.139 243.321 265.956V265.841C243.493 265.428 243.7 264.934 243.895 264.383C243.987 264.142 244.067 263.901 244.159 263.637V263.488C244.297 263.074 244.434 262.661 244.549 262.236C244.664 261.812 244.744 261.559 244.836 261.203C244.928 260.847 245.02 260.434 245.123 260.055C245.227 259.676 245.284 259.298 245.353 258.907C245.422 258.517 245.502 258.184 245.559 257.828V257.656C245.628 257.312 245.686 256.944 245.743 256.577C245.801 256.21 245.801 256.152 245.835 255.946V255.716C246.087 253.879 246.237 251.951 246.363 249.862V249.632L246.489 243.996V217.191L270.837 231.449V258.265L270.711 263.912V264.13C270.607 266.22 270.447 268.148 270.206 269.973V270.215C270.206 270.433 270.148 270.639 270.114 270.857C270.079 271.075 270.01 271.581 269.942 271.925V272.086C269.884 272.464 269.815 272.809 269.746 273.176C269.678 273.544 269.586 273.922 269.494 274.324C269.402 274.726 269.322 275.105 269.23 275.472C269.138 275.839 269.035 276.172 268.943 276.505C268.851 276.838 268.69 277.343 268.541 277.745V277.917C268.461 278.158 268.369 278.422 268.277 278.663C268.093 279.191 267.875 279.696 267.703 280.121L267.646 280.225L267.439 280.753C267.106 281.464 266.762 282.153 266.406 282.807L266.303 282.991C265.97 283.565 265.602 284.139 265.212 284.747C265.13 284.873 265.038 284.993 264.937 285.103V285.184L264.397 285.769Z" fill="#004E9E"/>
<path d="M246.501 332.388L246.57 310.255L246.225 310.611C247.235 309.463 248.165 308.533 249.175 307.546L249.348 307.386L249.646 307.099L249.853 306.984C251.783 305.124 253.925 303.498 256.235 302.139L256.488 302.013H256.545L256.717 301.91C257.268 301.6 257.865 301.324 258.359 301.06C258.508 300.98 258.669 300.923 258.818 300.854L258.979 300.773C259.346 300.636 259.736 300.463 260.127 300.337C260.333 300.245 260.529 300.199 260.712 300.131H260.804C261.137 300.05 261.458 299.958 261.757 299.901C262.055 299.844 262.216 299.809 262.434 299.786C262.717 299.764 263.001 299.764 263.284 299.786C263.498 299.775 263.712 299.775 263.926 299.786C264.178 299.808 264.428 299.85 264.673 299.912H264.776L265.247 300.027C265.486 300.111 265.717 300.219 265.935 300.349C266.181 300.469 266.416 300.611 266.636 300.773C266.901 300.963 267.151 301.174 267.382 301.405C267.512 301.543 267.635 301.689 267.749 301.841L267.829 301.956L267.898 302.036C268.017 302.187 268.128 302.344 268.231 302.507C268.377 302.727 268.508 302.957 268.621 303.196C268.736 303.414 268.84 303.609 268.931 303.827C269.023 304.045 269.161 304.378 269.276 304.676C269.391 304.975 269.425 305.113 269.494 305.342C269.563 305.572 269.689 305.985 269.781 306.329L269.919 306.903V306.995C269.999 307.374 270.091 307.764 270.16 308.143C270.16 308.246 270.16 308.361 270.16 308.476V308.614C270.412 310.232 270.596 312.058 270.722 314.204V314.296L270.848 319.416V346.599L246.501 332.388Z" fill="#004E9E"/>
<path d="M233.575 317.452L209.549 303.54C207.953 302.69 207.023 300.463 207.023 297.513C207.125 294.014 208.224 290.616 210.192 287.721L210.651 287.078C210.536 287.262 210.398 287.445 210.283 287.618L234.711 301.726C234.648 301.805 234.59 301.89 234.539 301.978C232.565 304.866 231.465 308.262 231.371 311.759C231.371 314.525 232.22 316.5 233.575 317.452Z" fill="#004E9E"/>
<path d="M264.397 285.769L239.958 271.661L240.497 270.915L240.554 270.846L240.818 270.467C241.209 269.893 241.576 269.319 241.966 268.711L242.07 268.527C242.426 267.896 242.77 267.207 243.103 266.484C243.172 266.312 243.252 266.139 243.321 265.956V265.841C243.493 265.428 243.7 264.934 243.895 264.383C243.987 264.142 244.067 263.901 244.159 263.637V263.488C244.297 263.074 244.434 262.661 244.549 262.236C244.664 261.812 244.744 261.559 244.836 261.203C244.928 260.847 245.02 260.434 245.123 260.055C245.227 259.676 245.284 259.298 245.353 258.907C245.422 258.517 245.502 258.184 245.559 257.828V257.656C245.628 257.312 245.686 256.944 245.743 256.577C245.801 256.21 245.801 256.152 245.835 255.946V255.716C246.087 253.879 246.237 251.951 246.363 249.862V249.632L246.489 243.996V217.191L270.837 231.449V258.265L270.711 263.912V264.13C270.607 266.22 270.447 268.148 270.206 269.973V270.215C270.206 270.433 270.148 270.639 270.114 270.857C270.079 271.075 270.01 271.581 269.942 271.925V272.086C269.884 272.464 269.815 272.809 269.746 273.176C269.678 273.544 269.586 273.922 269.494 274.324C269.402 274.726 269.322 275.105 269.23 275.472C269.138 275.839 269.035 276.172 268.943 276.505C268.851 276.838 268.69 277.343 268.541 277.745V277.917C268.461 278.158 268.369 278.422 268.277 278.663C268.093 279.191 267.875 279.696 267.703 280.121L267.646 280.225L267.439 280.753C267.106 281.464 266.762 282.153 266.406 282.807L266.303 282.991C265.97 283.565 265.602 284.139 265.212 284.747C265.13 284.873 265.038 284.993 264.937 285.103V285.184L264.397 285.769Z" fill="#263238"/>
<path d="M246.501 332.388L246.57 310.255L246.225 310.611C247.235 309.463 248.165 308.533 249.175 307.546L249.348 307.386L249.646 307.099L249.853 306.984C251.783 305.124 253.925 303.498 256.235 302.139L256.488 302.013H256.545L256.717 301.91C257.268 301.6 257.865 301.324 258.359 301.06C258.508 300.98 258.669 300.923 258.818 300.854L258.979 300.773C259.346 300.636 259.736 300.463 260.127 300.337C260.333 300.245 260.529 300.199 260.712 300.131H260.804C261.137 300.05 261.458 299.958 261.757 299.901C262.055 299.844 262.216 299.809 262.434 299.786C262.717 299.764 263.001 299.764 263.284 299.786C263.498 299.775 263.712 299.775 263.926 299.786C264.178 299.808 264.428 299.85 264.673 299.912H264.776L265.247 300.027C265.486 300.111 265.717 300.219 265.935 300.349C266.181 300.469 266.416 300.611 266.636 300.773C266.901 300.963 267.151 301.174 267.382 301.405C267.512 301.543 267.635 301.689 267.749 301.841L267.829 301.956L267.898 302.036C268.017 302.187 268.128 302.344 268.231 302.507C268.377 302.727 268.508 302.957 268.621 303.196C268.736 303.414 268.84 303.609 268.931 303.827C269.023 304.045 269.161 304.378 269.276 304.676C269.391 304.975 269.425 305.113 269.494 305.342C269.563 305.572 269.689 305.985 269.781 306.329L269.919 306.903V306.995C269.999 307.374 270.091 307.764 270.16 308.143C270.16 308.246 270.16 308.361 270.16 308.476V308.614C270.412 310.232 270.596 312.058 270.722 314.204V314.296L270.848 319.416V346.599L246.501 332.388Z" fill="#263238"/>
<path d="M233.575 317.452L209.549 303.54C207.953 302.69 207.023 300.463 207.023 297.513C207.125 294.014 208.224 290.616 210.192 287.721L210.651 287.078C210.536 287.262 210.398 287.445 210.283 287.618L234.711 301.726C234.648 301.805 234.59 301.89 234.539 301.978C232.565 304.866 231.465 308.262 231.371 311.759C231.371 314.525 232.22 316.5 233.575 317.452Z" fill="#263238"/>
<path d="M233.782 317.532L233.621 317.44C232.266 316.487 231.417 314.513 231.417 311.792C231.511 308.295 232.611 304.899 234.585 302.012C234.636 301.923 234.693 301.839 234.757 301.759L210.329 287.651C210.444 287.479 210.582 287.295 210.697 287.111C211.007 286.71 211.328 286.331 211.661 285.963C211.817 285.783 211.981 285.611 212.155 285.447C212.324 285.26 212.508 285.087 212.706 284.93C213.178 284.491 213.698 284.106 214.255 283.782C214.46 283.664 214.67 283.556 214.887 283.461L215.162 283.346H215.231C216.246 282.805 217.321 282.385 218.434 282.095L218.824 282.003C219.831 281.798 220.852 281.664 221.878 281.601C225.493 281.476 229.012 280.403 232.083 278.49L232.886 277.997C233.127 277.859 233.345 277.71 233.575 277.549C233.805 277.388 233.931 277.331 234.103 277.216H234.172L235.021 276.596L235.825 275.965L235.974 275.85L236.1 275.735L236.192 275.655L236.537 275.357C236.64 275.265 236.766 275.173 236.87 275.07C236.973 274.966 237.283 274.702 237.489 274.496L237.776 274.209L237.903 274.071L238.408 273.543C238.614 273.325 238.821 273.095 239.016 272.866L239.097 272.774L239.429 272.383C239.579 272.177 239.762 271.97 239.912 271.752L264.363 285.872L264.799 285.275V285.194C264.9 285.084 264.993 284.965 265.074 284.838C265.465 284.242 265.832 283.691 266.165 283.082L266.268 282.898C266.624 282.244 266.968 281.555 267.301 280.844L267.508 280.316L267.565 280.212C267.738 279.788 267.956 279.282 268.139 278.754C268.231 278.513 268.323 278.249 268.403 278.008V277.836C268.553 277.434 268.679 277.021 268.805 276.596C268.931 276.172 268.989 275.919 269.092 275.563C269.195 275.207 269.276 274.794 269.356 274.415C269.437 274.036 269.528 273.669 269.609 273.267C269.689 272.866 269.746 272.556 269.804 272.177V272.016C269.873 271.672 269.919 271.316 269.976 270.948C270.033 270.581 270.033 270.524 270.068 270.306V270.065C270.309 268.239 270.47 266.311 270.573 264.222V264.003L270.699 258.356V231.46L246.352 217.202L256.339 211.462L261.493 208.489L266.085 205.826L267.875 204.816C268.346 204.586 268.771 204.334 269.207 204.127C270.73 203.292 272.339 202.622 274.005 202.13L274.51 202.004C275.029 201.88 275.564 201.841 276.095 201.889C276.393 201.889 276.554 202.153 276.783 202.29L301.418 216.295C301.655 216.45 301.858 216.651 302.016 216.885C302.173 217.12 302.282 217.384 302.336 217.661C302.336 217.856 302.44 218.086 302.486 218.327C302.531 218.568 302.554 218.844 302.589 219.142V219.601C302.589 219.923 302.589 220.267 302.589 220.646C302.589 221.025 302.589 221.427 302.589 221.863C302.589 222.953 302.589 223.941 302.451 224.882C302.451 225.123 302.451 225.352 302.451 225.582C302.451 225.812 302.451 226.03 302.371 226.259C302.29 226.489 302.371 226.696 302.267 226.925C302.164 227.155 302.21 227.361 302.176 227.579C302.095 228.004 302.026 228.417 301.946 228.854C301.866 229.29 301.762 229.692 301.682 230.105C301.67 230.134 301.67 230.167 301.682 230.197C303.657 225.778 304.723 221.008 304.816 216.169C304.816 215.492 304.816 214.814 304.747 214.24C304.632 210.559 303.926 206.92 302.658 203.461C301.568 200.596 301.034 197.55 301.085 194.485C301.085 188.814 301.085 185.691 313.115 178.769L332.757 167.52L357.185 181.628V281.567C357.185 289.889 352.111 299.589 345.877 303.194L270.917 346.471V319.311L270.791 314.191V314.099C270.665 311.976 270.481 310.127 270.229 308.509V308.371C270.229 308.256 270.229 308.142 270.229 308.038C270.16 307.625 270.068 307.235 269.988 306.89V306.798L269.85 306.225C269.758 305.88 269.678 305.559 269.563 305.237C269.448 304.916 269.425 304.79 269.345 304.571C269.264 304.353 269.127 303.986 269 303.722C268.874 303.458 268.805 303.309 268.69 303.091C268.576 302.852 268.446 302.622 268.3 302.402C268.197 302.239 268.086 302.082 267.967 301.931L267.898 301.851L267.818 301.736C267.704 301.584 267.581 301.438 267.451 301.3C267.22 301.069 266.97 300.858 266.704 300.669C266.485 300.506 266.25 300.364 266.004 300.244C265.786 300.114 265.555 300.007 265.315 299.922L264.845 299.808H264.741C264.497 299.745 264.247 299.703 263.995 299.681C263.781 299.67 263.567 299.67 263.352 299.681C263.07 299.659 262.786 299.659 262.503 299.681C262.285 299.681 262.067 299.75 261.826 299.796C261.585 299.842 261.206 299.945 260.873 300.026H260.781C260.597 300.095 260.402 300.14 260.196 300.232C259.805 300.359 259.415 300.531 259.048 300.669L258.887 300.749C258.738 300.818 258.577 300.875 258.428 300.955C257.877 301.22 257.337 301.495 256.786 301.805L256.614 301.908H256.557L256.304 302.035C253.965 303.421 251.799 305.082 249.853 306.982L249.703 307.12L249.405 307.407L249.233 307.568C248.223 308.555 247.293 309.542 246.283 310.633C244.315 312.937 242.044 314.964 239.533 316.659C239.234 316.866 238.97 317.061 238.718 317.199C238.047 317.614 237.296 317.884 236.514 317.991C236.032 318.083 235.537 318.083 235.056 317.991C234.607 317.915 234.175 317.76 233.782 317.532Z" fill="#37474F"/>
<path d="M270.929 231.45L246.581 217.193L256.568 211.453L261.722 208.48L266.314 205.817L268.105 204.806C268.576 204.577 269 204.324 269.437 204.118C270.96 203.282 272.569 202.613 274.235 202.12L274.74 201.994C275.258 201.87 275.793 201.831 276.324 201.879C276.623 201.879 276.783 202.143 277.013 202.281L301.349 216.297C301.263 216.249 301.17 216.214 301.074 216.194C300.956 216.135 300.826 216.108 300.695 216.114C300.314 216.056 299.927 216.056 299.547 216.114C299.224 216.153 298.905 216.222 298.594 216.32C295.812 217.227 293.152 218.472 290.673 220.028L286.082 222.691L280.916 225.676L270.929 231.45Z" fill="black"/>
<path d="M302.428 258.689C300.132 256.393 298.984 252.524 298.984 247.852C298.973 247.181 299 246.511 299.065 245.843C299.065 245.843 299.065 245.843 299.065 245.763C299.065 244.615 299.18 243.547 299.306 242.319C299.306 241.975 299.386 241.642 299.432 241.297C299.512 240.586 299.616 239.885 299.731 239.231C299.845 238.577 299.937 238.014 300.052 237.429C300.121 237.119 300.178 236.82 300.236 236.533C300.511 235.259 300.798 233.985 301.131 232.619C301.349 231.758 301.544 230.931 301.728 230.105C303.69 225.716 304.748 220.976 304.839 216.169C304.839 215.492 304.839 214.826 304.759 214.252C304.649 210.563 303.948 206.916 302.681 203.45C301.595 200.588 301.061 197.546 301.108 194.485C301.108 188.825 301.108 185.703 313.138 178.758L332.78 167.52L357.208 181.628L337.486 193.015C325.456 199.903 325.456 203.083 325.456 208.742C325.395 211.808 325.929 214.856 327.029 217.719C328.285 221.184 328.987 224.825 329.106 228.509C329.106 229.083 329.187 229.749 329.175 230.415C329.175 241.515 322.414 254.464 314.068 259.262C309.545 261.891 305.31 261.673 302.428 258.689Z" fill="black"/>
<path d="M234.712 301.769L210.283 287.661C210.398 287.488 210.536 287.305 210.651 287.121C210.961 286.719 211.282 286.34 211.615 285.973C211.771 285.793 211.935 285.62 212.109 285.457C212.278 285.27 212.462 285.097 212.66 284.94C213.132 284.501 213.652 284.116 214.209 283.792C214.414 283.673 214.625 283.566 214.841 283.471L215.116 283.367H215.185C216.2 282.826 217.275 282.406 218.388 282.116L218.778 282.024C219.785 281.819 220.806 281.685 221.832 281.622C225.447 281.497 228.966 280.424 232.037 278.512L232.84 278.018C233.081 277.88 233.3 277.731 233.529 277.57C233.708 277.466 233.881 277.351 234.046 277.226H234.115L234.964 276.606L235.779 275.975L235.917 275.86L236.043 275.745L236.146 275.665L236.479 275.366C236.583 275.274 236.709 275.183 236.812 275.079C236.916 274.976 237.225 274.712 237.432 274.505L237.719 274.218C237.759 274.17 237.805 274.128 237.857 274.092L238.35 273.552C238.557 273.334 238.764 273.105 238.959 272.875L239.039 272.783L239.372 272.393C239.521 272.186 239.705 271.98 239.854 271.762L264.317 285.881L264.213 285.996C264.053 286.226 263.881 286.444 263.708 286.673C263.536 286.903 263.49 286.914 263.387 287.041L263.295 287.133C262.928 287.557 262.56 287.959 262.147 288.338L261.918 288.567C261.86 288.636 261.791 288.694 261.745 288.763L261.114 289.337L260.448 289.911L260.356 290.002L260.069 290.22C259.541 290.668 258.99 291.081 258.428 291.483C258.428 291.483 258.359 291.483 258.302 291.564C257.658 292.023 256.992 292.448 256.304 292.838L255.592 293.205L254.754 293.63C252.887 294.601 250.875 295.264 248.797 295.593L247.741 295.731H247.213L246.237 295.822C244.783 295.874 243.343 296.121 241.955 296.557C241.53 296.695 241.083 296.867 240.589 297.074C240.279 297.211 239.935 297.372 239.59 297.556L239.303 297.671C239.086 297.764 238.875 297.871 238.672 297.992C238.111 298.328 237.581 298.712 237.088 299.14C236.911 299.288 236.742 299.445 236.583 299.611C236.41 299.771 236.238 299.955 236.078 300.139C235.861 300.353 235.662 300.583 235.481 300.827C235.353 300.973 235.234 301.127 235.125 301.287C234.93 301.505 234.803 301.631 234.712 301.769Z" fill="black"/>
</g>
<mask id="mask1_1323_88292" style="mask-type:luminance" maskUnits="userSpaceOnUse" x="238" y="46" width="120" height="215">
<path d="M263.02 225.48V199.077L263.284 191.042V190.881C263.284 190.686 263.284 190.502 263.284 190.33V190.066C263.284 189.549 263.375 189.056 263.433 188.574C263.446 188.327 263.476 188.081 263.525 187.839V187.609C263.525 187.139 263.639 186.668 263.697 186.22C263.754 185.773 263.789 185.6 263.846 185.313C263.938 184.808 264.007 184.315 264.11 183.833V183.672C264.11 183.477 264.19 183.27 264.236 183.075C264.374 182.409 264.546 181.766 264.707 181.123C264.707 181.123 264.707 180.997 264.764 180.894C264.96 180.171 265.212 179.424 265.465 178.69L265.568 178.38C265.798 177.76 266.062 177.152 266.303 176.555C266.303 176.44 266.417 176.302 266.486 176.176V176.084C266.75 175.533 267.014 174.936 267.313 174.431L267.542 174.041C267.89 173.418 268.273 172.816 268.69 172.238C269.583 170.936 270.594 169.717 271.709 168.599L271.801 168.508C272.272 168.048 272.811 167.555 273.385 167.084L273.5 166.969C274.714 165.985 276.003 165.098 277.357 164.318C278.81 163.453 280.349 162.741 281.949 162.194C282.754 161.928 283.574 161.713 284.406 161.551C285.447 161.374 286.497 161.255 287.551 161.195C289.874 161.136 292.152 160.543 294.209 159.462H294.266C294.577 159.334 294.88 159.189 295.173 159.026C297.362 157.618 299.118 155.631 300.247 153.286C300.589 152.643 300.892 151.98 301.154 151.3C301.93 149.392 302.339 147.356 302.359 145.296C302.359 144.952 302.359 144.619 302.359 144.298C302.367 144.21 302.367 144.121 302.359 144.034C302.351 143.81 302.324 143.587 302.279 143.368C302.279 143.265 302.279 143.196 302.279 143.104C302.279 143.012 302.187 142.691 302.141 142.518C302.095 142.346 302.084 142.358 302.061 142.289C302.038 142.22 301.935 141.91 301.854 141.726L301.774 141.566C301.702 141.382 301.614 141.205 301.51 141.038C301.493 140.993 301.465 140.954 301.43 140.923C301.326 140.751 301.211 140.59 301.085 140.418C300.959 140.245 301.085 140.418 301.028 140.349L300.592 139.913C300.428 139.773 300.251 139.65 300.063 139.545L289.629 133.53C287.966 135.022 286.384 136.601 284.888 138.26C282.777 140.779 280.268 142.935 277.461 144.642C275.658 145.675 274.178 146.536 273.11 145.916L263.02 140.085C262.951 137.789 262.951 135.298 263.02 132.658V110.422L238.592 96.3255L325.616 46L357.288 64.2751L357.231 181.651L337.498 193.039C325.479 199.927 325.479 203.106 325.479 208.766C325.422 211.83 325.952 214.877 327.04 217.743C328.312 221.204 329.017 224.847 329.129 228.533C329.129 229.096 329.198 229.773 329.21 230.45C329.043 236.799 327.282 243.005 324.09 248.496L304.093 260.032C303.483 259.652 302.921 259.201 302.417 258.689C300.19 256.394 298.973 252.536 298.973 247.864C298.973 247.233 298.973 246.567 299.065 245.833C299.065 245.833 299.065 245.833 299.065 245.764C299.065 244.616 299.168 243.548 299.306 242.32C299.306 241.987 299.386 241.631 299.432 241.298C299.512 240.575 299.616 239.886 299.731 239.232C299.845 238.578 299.937 238.015 300.052 237.43C300.121 237.12 300.178 236.821 300.236 236.534C300.5 235.26 300.798 233.986 301.143 232.62C302.125 229.113 302.646 225.493 302.692 221.852C302.692 218.408 302.394 216.859 301.452 216.308L290.145 209.776L270.917 220.888L263.02 225.48Z" fill="white"/>
</mask>
<g mask="url(#mask1_1323_88292)">
<path d="M309.362 249.117L284.876 234.975C284.761 234.917 284.65 234.852 284.543 234.78C283.177 233.747 282.546 231.6 282.546 229.04C282.52 228.627 282.52 228.213 282.546 227.8V227.651C282.72 224.339 283.255 221.055 284.142 217.859C284.532 216.218 284.945 214.415 285.29 212.567L290.593 209.502L290.8 209.387L290.926 209.319L295.104 207.08L295.219 207.023C296.532 206.369 297.89 205.808 299.283 205.347H299.444L299.983 205.175C300.197 205.105 300.416 205.051 300.637 205.014H300.764C301.016 204.945 301.28 204.876 301.544 204.83L302.233 204.738C302.497 204.738 302.773 204.738 303.037 204.738C303.301 204.738 303.45 204.738 303.645 204.738C303.919 204.743 304.192 204.774 304.46 204.83H304.563L304.954 204.899C305.271 204.984 305.582 205.091 305.884 205.22L306.159 205.335C306.979 205.772 307.684 206.397 308.214 207.16C308.261 207.226 308.303 207.295 308.34 207.367C308.591 207.728 308.806 208.112 308.983 208.515C308.983 208.595 309.063 208.687 309.098 208.756V208.836C309.27 209.261 309.419 209.72 309.568 210.202L309.66 210.57C309.813 211.132 309.928 211.703 310.005 212.28L310.062 212.544C310.285 214.176 310.389 215.822 310.372 217.469C310.325 222.466 309.63 227.436 308.306 232.254C307.429 235.456 306.898 238.743 306.722 242.058V242.195C306.722 242.723 306.664 243.102 306.664 243.447C306.664 246.007 307.41 247.97 308.765 249.003L309.362 249.117Z" fill="#004E9E"/>
<path d="M270.917 220.888L246.581 206.642V180.308C246.499 176.445 246.745 172.582 247.316 168.76C248.165 164.065 249.451 162.642 253.147 160.506C255.381 159.132 257.94 158.375 260.563 158.314C261.424 158.245 262.239 158.165 263.065 158.038L263.72 157.924L264.868 157.683C265.338 157.545 265.843 157.407 266.371 157.223C266.59 157.16 266.805 157.084 267.014 156.994C267.855 156.687 268.676 156.326 269.471 155.915L269.574 155.857C270.07 155.657 270.55 155.419 271.009 155.146C275.532 152.54 279.779 147.408 282.649 141.095C282.844 140.682 283.005 140.268 283.177 139.867L282.569 140.475C283.349 139.706 284.107 138.879 284.865 138.03C287.496 135 290.514 132.329 293.842 130.086C294.311 129.733 294.806 129.415 295.322 129.133C303.645 124.312 310.429 129.443 310.429 140.532C310.333 145.659 309.16 150.708 306.985 155.352C304.104 161.677 299.857 166.832 295.334 169.414C294.872 169.68 294.392 169.914 293.899 170.115C293.865 170.125 293.829 170.125 293.796 170.115C293 170.545 292.18 170.928 291.339 171.263L290.696 171.492C290.203 171.663 289.701 171.809 289.192 171.928C288.791 172.032 288.423 172.112 288.044 172.181L287.379 172.296C286.564 172.411 285.737 172.514 284.876 172.571C282.256 172.626 279.699 173.383 277.472 174.764C273.776 176.887 272.478 178.311 271.64 183.006C271.06 186.835 270.807 190.706 270.883 194.577V211.911L270.917 220.888Z" fill="#004E9E"/>
<path d="M273.156 145.688L248.705 131.545C247.27 130.673 246.616 127.045 246.616 117.931L246.512 91.7578L270.94 105.866V132.177C270.94 141.36 271.71 144.861 273.167 145.676L273.156 145.688Z" fill="#004E9E"/>
<path opacity="0.2" d="M309.362 249.117L284.876 234.975C284.761 234.917 284.65 234.852 284.543 234.78C283.177 233.747 282.546 231.6 282.546 229.04C282.52 228.627 282.52 228.213 282.546 227.8V227.651C282.72 224.339 283.255 221.055 284.142 217.859C284.532 216.218 284.945 214.415 285.29 212.567L290.593 209.502L290.8 209.387L290.926 209.319L295.104 207.08L295.219 207.023C296.532 206.369 297.89 205.808 299.283 205.347H299.444L299.983 205.175C300.197 205.105 300.416 205.051 300.637 205.014H300.764C301.016 204.945 301.28 204.876 301.544 204.83L302.233 204.738C302.497 204.738 302.773 204.738 303.037 204.738C303.301 204.738 303.45 204.738 303.645 204.738C303.919 204.743 304.192 204.774 304.46 204.83H304.563L304.954 204.899C305.271 204.984 305.582 205.091 305.884 205.22L306.159 205.335C306.979 205.772 307.684 206.397 308.214 207.16C308.261 207.226 308.303 207.295 308.34 207.367C308.591 207.728 308.806 208.112 308.983 208.515C308.983 208.595 309.063 208.687 309.098 208.756V208.836C309.27 209.261 309.419 209.72 309.568 210.202L309.66 210.57C309.813 211.132 309.928 211.703 310.005 212.28L310.062 212.544C310.285 214.176 310.389 215.822 310.372 217.469C310.325 222.466 309.63 227.436 308.306 232.254C307.429 235.456 306.898 238.743 306.722 242.058V242.195C306.722 242.723 306.664 243.102 306.664 243.447C306.664 246.007 307.41 247.97 308.765 249.003L309.362 249.117Z" fill="black"/>
<path opacity="0.2" d="M270.917 220.888L246.581 206.642V180.308C246.499 176.445 246.745 172.582 247.316 168.76C248.165 164.065 249.451 162.642 253.147 160.506C255.381 159.132 257.94 158.375 260.563 158.314C261.424 158.245 262.239 158.165 263.065 158.038L263.72 157.924L264.868 157.683C265.338 157.545 265.843 157.407 266.371 157.223C266.59 157.16 266.805 157.084 267.014 156.994C267.855 156.687 268.676 156.326 269.471 155.915L269.574 155.857C270.07 155.657 270.55 155.419 271.009 155.146C275.532 152.54 279.779 147.408 282.649 141.095C282.844 140.682 283.005 140.268 283.177 139.867L282.569 140.475C283.349 139.706 284.107 138.879 284.865 138.03C287.496 135 290.514 132.329 293.842 130.086C294.311 129.733 294.806 129.415 295.322 129.133C303.645 124.312 310.429 129.443 310.429 140.532C310.333 145.659 309.16 150.708 306.985 155.352C304.104 161.677 299.857 166.832 295.334 169.414C294.872 169.68 294.392 169.914 293.899 170.115C293.865 170.125 293.829 170.125 293.796 170.115C293 170.545 292.18 170.928 291.339 171.263L290.696 171.492C290.203 171.663 289.701 171.809 289.192 171.928C288.791 172.032 288.423 172.112 288.044 172.181L287.379 172.296C286.564 172.411 285.737 172.514 284.876 172.571C282.256 172.626 279.699 173.383 277.472 174.764C273.776 176.887 272.478 178.311 271.64 183.006C271.06 186.835 270.807 190.706 270.883 194.577V211.911L270.917 220.888Z" fill="black"/>
<path opacity="0.2" d="M273.156 145.688L248.705 131.545C247.27 130.673 246.616 127.045 246.616 117.931L246.512 91.7578L270.94 105.866V132.177C270.94 141.36 271.71 144.861 273.167 145.676L273.156 145.688Z" fill="black"/>
<path d="M309.545 249.232L309.362 249.128L308.971 248.876C307.617 247.843 306.871 245.88 306.871 243.32C306.871 242.975 306.871 242.597 306.928 242.069V241.931C307.104 238.616 307.635 235.329 308.512 232.127C309.837 227.309 310.531 222.339 310.578 217.342C310.595 215.695 310.491 214.049 310.269 212.417L310.211 212.153C310.134 211.576 310.019 211.005 309.867 210.443L309.775 210.076C309.626 209.594 309.476 209.134 309.304 208.71V208.629C309.304 208.56 309.235 208.469 309.189 208.388C309.013 207.986 308.797 207.601 308.547 207.24C308.51 207.168 308.467 207.099 308.42 207.034C307.89 206.27 307.186 205.645 306.366 205.208L306.09 205.094C305.788 204.965 305.477 204.857 305.16 204.772L304.77 204.703H304.667C304.398 204.647 304.126 204.616 303.852 204.611C303.656 204.611 303.45 204.611 303.243 204.611C303.037 204.611 302.704 204.611 302.44 204.611L301.751 204.703C301.487 204.703 301.223 204.818 300.97 204.887H300.844C300.622 204.924 300.404 204.978 300.19 205.048L299.65 205.22H299.489C298.097 205.682 296.739 206.242 295.426 206.896L295.311 206.953L291.132 209.192L291.006 209.261L290.8 209.375L285.496 212.44L270.917 220.889V211.901V194.567C270.838 190.7 271.088 186.833 271.663 183.007C272.501 178.312 273.799 176.889 277.495 174.765C279.722 173.384 282.279 172.627 284.899 172.573C285.76 172.573 286.587 172.412 287.402 172.297L288.067 172.182C288.446 172.113 288.814 172.033 289.215 171.93C289.724 171.81 290.226 171.665 290.719 171.494L291.362 171.264C292.203 170.93 293.023 170.546 293.819 170.116C293.852 170.127 293.888 170.127 293.922 170.116C294.415 169.915 294.895 169.681 295.357 169.416C299.88 166.787 304.127 161.679 307.008 155.354C309.183 150.71 310.356 145.661 310.452 140.534C310.452 129.445 303.668 124.313 295.345 129.135C294.829 129.416 294.334 129.734 293.865 130.088C290.537 132.331 287.519 135.001 284.888 138.031C284.096 138.881 283.338 139.707 282.592 140.476C281.379 141.692 280.048 142.784 278.62 143.736L278.103 144.058L277.506 144.414C276.818 144.804 276.198 145.171 275.612 145.435L275.05 145.665C274.881 145.738 274.704 145.788 274.522 145.814C274.363 145.868 274.196 145.895 274.028 145.895C273.723 145.905 273.421 145.829 273.156 145.676C271.698 144.861 270.929 141.383 270.929 132.177V105.866L246.501 91.758L321.553 48.3431C321.828 48.1939 322.081 48.0446 322.356 47.9184C322.6 47.7919 322.853 47.6845 323.114 47.5969L323.872 47.3559C324.107 47.2769 324.349 47.2192 324.595 47.1837C324.902 47.1272 325.213 47.0927 325.525 47.0804C326.784 47.024 328.031 47.3566 329.095 48.0332L353.201 61.9347C353.946 62.344 354.599 62.9029 355.118 63.5762C355.297 63.8072 355.462 64.0487 355.612 64.2994C355.721 64.4661 355.82 64.6385 355.91 64.816C356.094 65.1833 356.266 65.5621 356.427 65.9639C356.484 66.1705 356.565 66.3772 356.622 66.5953C357.054 68.0867 357.259 69.6346 357.231 71.187V171.126L337.498 182.514L337.142 182.743L336.901 182.881H336.843L332.929 185.303C331.368 186.328 329.87 187.443 328.44 188.644L328.337 188.724L328.107 188.919L327.086 189.838L327.005 189.929C326.856 190.056 326.707 190.205 326.569 190.343C326.431 190.48 325.961 190.94 325.674 191.25C325.387 191.559 325.283 191.651 325.111 191.858C324.939 192.065 324.549 192.478 324.285 192.799L323.745 193.477L322.988 194.487L322.574 195.095L322.483 195.256L322.379 195.417C322.184 195.704 321.977 196.002 321.794 196.312C321.61 196.622 321.541 196.76 321.426 196.989L321.335 197.173C320.979 197.816 320.634 198.493 320.324 199.182L320.256 199.354C320.118 199.641 319.992 199.939 319.877 200.226C319.773 200.525 319.659 200.823 319.555 201.133L319.463 201.363L319.119 202.419C319.004 202.798 318.901 203.177 318.798 203.567C318.694 203.957 318.603 204.347 318.511 204.715C318.419 205.082 318.35 205.484 318.281 205.863C318.212 206.242 318.132 206.701 318.074 207.125V207.194C318.074 207.55 317.96 207.906 317.925 208.262C317.891 208.618 317.833 209.157 317.787 209.662V209.938C317.787 210.202 317.787 210.466 317.73 210.73C317.73 211.292 317.73 211.878 317.73 212.704V212.854C317.73 212.991 317.73 213.141 317.73 213.278C317.646 217.507 318.346 221.715 319.796 225.688C320.758 228.262 321.293 230.976 321.381 233.723V233.849C321.381 234.217 321.438 234.596 321.449 234.905C321.449 240.197 318.212 246.385 314.24 248.681C313.516 249.124 312.706 249.409 311.864 249.519C311.692 249.536 311.519 249.536 311.348 249.519H311.267C311.161 249.536 311.052 249.536 310.946 249.519C310.851 249.536 310.754 249.536 310.659 249.519L310.429 249.461L310.154 249.381C310.08 249.368 310.01 249.34 309.947 249.301C309.809 249.318 309.669 249.294 309.545 249.232Z" fill="#004E9E"/>
<path opacity="0.3" d="M270.917 105.866L246.489 91.758L321.541 48.3431C321.817 48.1939 322.069 48.0446 322.345 47.9184C322.589 47.7919 322.842 47.6845 323.102 47.5969L323.86 47.3559C324.095 47.2769 324.338 47.2192 324.583 47.1837C324.89 47.1272 325.201 47.0927 325.513 47.0804C326.773 47.024 328.019 47.3566 329.083 48.0332L352.914 61.8084C352.707 61.6995 352.487 61.6148 352.26 61.5558C352.208 61.5418 352.158 61.5226 352.111 61.4984C351.902 61.427 351.687 61.377 351.468 61.3492H351.25C351.109 61.3311 350.966 61.3311 350.825 61.3492H350.412C350.378 61.3434 350.343 61.3434 350.308 61.3492C350.11 61.3319 349.91 61.3319 349.712 61.3492L349.252 61.4181C348.94 61.4565 348.633 61.5257 348.334 61.6247L347.875 61.7625L346.979 62.1183C346.635 62.279 346.291 62.4627 345.923 62.6693L270.917 105.866Z" fill="white"/>
</g>
<mask id="mask2_1323_88292" style="mask-type:luminance" maskUnits="userSpaceOnUse" x="152" y="96" width="151" height="180">
<path d="M176.729 275.291L152.278 261.195L152.37 161.072C152.459 157.089 153.411 153.172 155.16 149.593C157.237 145.207 160.291 141.431 163.7 139.456L238.569 96.3398L262.997 110.436V132.442V139.87L273.076 145.69C274.166 146.321 275.624 145.471 277.438 144.427C280.245 142.719 282.754 140.563 284.865 138.044C286.361 136.386 287.943 134.807 289.606 133.315L300.04 139.33C300.122 139.372 300.199 139.422 300.27 139.479C300.283 139.473 300.296 139.47 300.31 139.47C300.324 139.47 300.338 139.473 300.35 139.479C300.443 139.532 300.528 139.598 300.603 139.674C300.974 140 301.285 140.389 301.521 140.822C301.608 140.938 301.678 141.066 301.728 141.201C301.785 141.299 301.831 141.403 301.866 141.511C302.062 141.964 302.208 142.438 302.302 142.923C302.308 142.999 302.308 143.076 302.302 143.153C302.302 143.44 302.394 143.761 302.428 144.082C302.463 144.404 302.428 144.737 302.428 145.081C302.446 145.402 302.446 145.724 302.428 146.045C302.428 146.39 302.371 146.723 302.325 147.044C302.279 147.366 302.222 147.71 302.164 148.043C302.107 148.376 302.061 148.548 301.992 148.8C301.952 148.983 301.902 149.163 301.843 149.34C301.487 150.636 300.987 151.887 300.35 153.071C299.221 155.416 297.465 157.402 295.277 158.81C294.983 158.973 294.68 159.119 294.37 159.247H294.312C292.255 160.328 289.977 160.921 287.654 160.98C286.92 160.98 286.173 161.095 285.358 161.21L284.52 161.336C282.513 161.735 280.578 162.435 278.781 163.414C278.563 163.517 278.356 163.62 278.161 163.735L277.507 164.102C276.153 164.883 274.863 165.769 273.649 166.754L273.535 166.869C272.961 167.34 272.387 167.833 271.951 168.292L271.859 168.384C270.743 169.502 269.732 170.72 268.84 172.023C268.422 172.601 268.039 173.203 267.692 173.825L267.462 174.216C267.164 174.767 266.9 175.364 266.636 175.869V175.961C266.567 176.087 266.509 176.225 266.452 176.339C266.211 176.936 265.947 177.545 265.717 178.165L265.614 178.475C265.361 179.209 265.109 179.955 264.914 180.679C264.914 180.782 264.856 180.874 264.856 180.908C264.696 181.551 264.523 182.194 264.386 182.86C264.386 183.055 264.305 183.261 264.259 183.457V183.617C264.156 184.099 264.087 184.593 263.995 185.098C263.995 185.385 263.892 185.695 263.846 186.005C263.8 186.315 263.72 186.923 263.674 187.394V187.624C263.626 187.866 263.595 188.112 263.582 188.358C263.582 188.84 263.479 189.334 263.433 189.851V190.115C263.433 190.287 263.433 190.471 263.433 190.666V190.826L263.169 198.862V225.264L256.281 229.259L254.089 230.533L249.761 233.001L243.459 236.652C239.074 239.189 236.043 240.475 234.161 240.624C233.871 240.66 233.578 240.66 233.288 240.624C233.092 240.581 232.903 240.512 232.726 240.417L223.737 235.16C223.732 235.122 223.732 235.083 223.737 235.045C223.841 233.897 223.978 232.749 224.139 231.716C224.242 231.05 224.357 230.407 224.483 229.81C224.816 227.928 225.241 226.24 225.631 224.633C226.522 221.439 227.05 218.154 227.204 214.841V214.772V214.68C227.204 214.141 227.204 213.785 227.261 213.452C227.261 210.892 226.504 208.918 225.149 207.896C225.083 207.846 225.014 207.8 224.943 207.758L224.759 207.655L214.715 201.858C211.931 204.942 209.687 208.474 208.079 212.304C207.861 212.832 207.643 213.36 207.448 213.865C207.253 214.371 207.046 214.933 206.874 215.473L206.794 215.702C206.61 216.242 206.449 216.781 206.289 217.321C206.128 217.86 205.99 218.411 205.864 218.951C205.738 219.49 205.692 219.697 205.611 220.099C205.531 220.5 205.462 220.845 205.416 221.247C205.276 222.006 205.176 222.772 205.118 223.543C205.06 223.956 205.026 224.38 205.003 224.794C204.98 225.207 204.946 225.861 204.946 226.378C204.946 226.894 204.946 227.067 204.946 227.4C204.946 227.732 204.946 228.031 205.014 228.318C205.014 228.812 205.014 229.271 205.095 229.718C205.156 230.757 205.274 231.792 205.451 232.818C205.451 233.231 205.577 233.633 205.657 233.966C206.022 235.686 206.497 237.381 207.081 239.04C207.781 240.889 208.255 242.816 208.493 244.779V244.997V245.17V245.411C208.562 246.26 208.596 247.098 208.596 247.971C208.596 253.63 208.596 256.752 196.566 263.697L176.729 275.291Z" fill="white"/>
</mask>
<g mask="url(#mask2_1323_88292)">
<path d="M232.508 240.601L208.16 226.321C207.207 225.758 206.909 224.186 206.909 220.788C206.913 217.988 207.248 215.198 207.907 212.477C207.174 214.167 206.552 215.905 206.048 217.677C208.343 209.24 213.704 201.216 219.823 197.657C223.852 195.361 227.64 195.235 230.499 197.393C233.357 199.551 234.93 203.672 234.93 209.067C234.93 209.584 234.93 210.089 234.872 210.548V210.801C234.872 210.927 234.872 211.053 234.872 211.18C234.872 212.328 234.735 213.476 234.608 214.681C234.597 214.873 234.574 215.065 234.539 215.255V215.427C234.436 216.242 234.333 217.034 234.206 217.826C234.115 218.297 234.023 218.768 233.942 219.227C233.862 219.686 233.759 220.157 233.667 220.616C233.414 221.764 233.127 223.015 232.829 224.266C231.833 227.774 231.304 231.399 231.256 235.045C231.245 238.466 231.486 240.039 232.508 240.601Z" fill="#004E9E"/>
<path d="M176.729 275.293L152.278 261.196L152.37 161.085C152.451 157.101 153.403 153.182 155.16 149.605L179.565 163.691C177.769 167.318 176.794 171.296 176.706 175.342L176.729 275.293Z" fill="#004E9E"/>
<path d="M232.507 240.601L208.16 226.321C207.207 225.758 206.908 224.186 206.908 220.788C206.913 217.988 207.248 215.198 207.907 212.477C210.662 206.083 214.99 200.469 219.869 197.657C223.898 195.361 227.686 195.235 230.544 197.393C233.403 199.551 234.93 203.672 234.93 209.067C234.93 209.584 234.93 210.089 234.872 210.548V210.801C234.872 210.927 234.872 211.053 234.872 211.18C234.872 212.328 234.734 213.476 234.608 214.681C234.597 214.873 234.574 215.065 234.539 215.255V215.427C234.436 216.242 234.333 217.034 234.206 217.826C234.115 218.297 234.023 218.768 233.942 219.227C233.862 219.686 233.759 220.157 233.667 220.616C233.414 221.764 233.127 223.015 232.829 224.266C231.833 227.774 231.304 231.399 231.256 235.045C231.245 238.466 231.486 240.039 232.507 240.601Z" fill="#263238"/>
<path d="M176.729 275.293L152.278 261.196L152.37 161.085C152.451 157.101 153.403 153.182 155.16 149.605L179.565 163.691C177.769 167.318 176.794 171.296 176.706 175.342L176.729 275.293Z" fill="#263238"/>
<path d="M176.729 275.294V175.331C176.817 171.285 177.792 167.307 179.588 163.68L155.183 149.595C155.251 149.445 155.309 149.308 155.378 149.17C155.479 148.941 155.594 148.719 155.722 148.504C155.883 148.194 156.044 147.896 156.216 147.597C156.388 147.299 156.629 146.874 156.859 146.541L156.985 146.3C157.016 146.252 157.05 146.205 157.088 146.162C157.283 145.841 157.513 145.508 157.743 145.187L157.949 144.9C158.066 144.718 158.197 144.545 158.339 144.383C158.463 144.207 158.598 144.038 158.741 143.878L158.856 143.729C159.063 143.465 159.281 143.201 159.51 142.96L159.786 142.673C159.845 142.598 159.91 142.529 159.981 142.466L160.107 142.317L160.348 142.099L160.773 141.685C160.81 141.645 160.852 141.61 160.899 141.582C161.026 141.467 161.14 141.341 161.255 141.249L161.381 141.146H161.439L161.749 140.916C161.864 140.813 161.99 140.733 162.105 140.641C162.219 140.549 162.334 140.457 162.449 140.365C162.585 140.262 162.727 140.166 162.874 140.078C163.123 139.885 163.388 139.712 163.666 139.562L238.546 96.4453L262.974 110.553V132.548L263.33 132.181C265.298 129.873 267.573 127.845 270.091 126.154H270.183C270.419 125.976 270.664 125.812 270.917 125.66C271.602 125.187 272.408 124.919 273.24 124.888C274.072 124.858 274.895 125.066 275.612 125.488L299.96 139.55C300.092 139.616 300.215 139.697 300.328 139.791L300.534 139.952C301.381 140.742 301.959 141.778 302.187 142.914C302.256 143.201 302.313 143.511 302.359 143.821C302.426 144.331 302.457 144.845 302.451 145.359C302.389 148.147 301.669 150.88 300.35 153.337C299.215 155.681 297.456 157.667 295.265 159.077C294.971 159.246 294.669 159.399 294.358 159.536H294.301C292.244 160.618 289.966 161.211 287.643 161.269C284.025 161.402 280.506 162.483 277.438 164.403C276.083 165.177 274.797 166.064 273.592 167.055L273.454 167.158C272.892 167.629 272.306 168.111 271.87 168.593L271.801 168.673C270.68 169.782 269.669 170.997 268.782 172.301C268.403 172.863 268.036 173.449 267.634 174.103L267.462 174.413V174.505C267.164 175.033 266.888 175.653 266.624 176.158V176.238C266.562 176.365 266.508 176.495 266.463 176.629C266.199 177.214 265.958 177.777 265.729 178.454L265.614 178.752C265.35 179.487 265.109 180.245 264.914 180.956L264.856 181.197C264.684 181.829 264.523 182.483 264.386 183.149C264.386 183.333 264.294 183.539 264.259 183.734V183.895C264.168 184.389 264.087 184.871 263.995 185.376C263.995 185.663 263.892 185.973 263.858 186.271C263.823 186.57 263.72 187.201 263.662 187.683V187.913C263.662 188.142 263.605 188.383 263.594 188.636C263.594 189.118 263.49 189.623 263.456 190.117V190.381C263.456 190.564 263.456 190.748 263.398 190.932V191.104L263.134 199.14V225.542L256.247 229.548L249.738 233.302L243.436 236.941C239.062 239.478 236.009 240.764 234.149 240.901C234.004 240.913 233.858 240.913 233.713 240.901C233.357 240.897 233.008 240.811 232.691 240.649C231.715 240.086 231.428 238.514 231.428 235.093C231.477 231.446 232.005 227.822 233.001 224.314C233.3 223.063 233.587 221.846 233.839 220.663C233.931 220.204 234.034 219.745 234.115 219.274C234.195 218.804 234.287 218.345 234.379 217.874C234.505 217.082 234.608 216.29 234.712 215.475V215.303C234.746 215.113 234.769 214.921 234.78 214.729C234.907 213.523 234.999 212.433 235.044 211.227C235.044 211.101 235.044 210.975 235.044 210.849V210.562C235.044 210.102 235.113 209.597 235.102 209.081C235.102 203.697 233.541 199.553 230.682 197.395C227.824 195.237 224.036 195.317 220.007 197.659C215.128 200.471 210.823 206.085 208.045 212.479C207.478 213.741 206.987 215.037 206.576 216.359C206.438 216.795 206.3 217.243 206.185 217.679C206.071 218.115 205.91 218.723 205.784 219.251C205.747 219.339 205.724 219.432 205.715 219.527C205.6 220.032 205.497 220.549 205.416 221.054C205.219 222.144 205.077 223.244 204.992 224.348C204.968 224.677 204.968 225.007 204.992 225.335C204.992 225.726 204.992 226.116 204.992 226.483C204.992 227.161 204.992 227.872 205.072 228.423C205.183 232.101 205.885 235.736 207.15 239.191C207.845 241.042 208.319 242.969 208.562 244.931V245.16V245.229V245.321C208.556 245.401 208.556 245.482 208.562 245.562C208.619 246.412 208.665 247.25 208.665 248.122C208.665 253.781 208.665 256.904 196.646 263.849L176.729 275.294Z" fill="#37474F"/>
<path d="M275.739 125.245L300.086 139.308C299.34 138.936 298.506 138.775 297.675 138.842C296.844 138.909 296.046 139.201 295.368 139.686C295.162 139.801 294.898 139.985 294.634 140.169L294.553 140.249H294.496C291.976 141.937 289.701 143.965 287.735 146.276C284.81 149.674 281.365 152.587 277.529 154.908L277.047 155.172L276.864 155.264L276.726 155.333C276.359 155.528 276.003 155.735 275.67 155.895L275.027 156.171L274.809 156.251L274.683 156.32L273.879 156.618C273.64 156.712 273.394 156.789 273.144 156.848H273.053L272.237 157.043C271.962 157.112 271.709 157.124 271.445 157.169H270.688C270.447 157.169 270.206 157.169 269.976 157.169C269.746 157.169 269.528 157.089 269.31 157.055C269.091 157.012 268.876 156.951 268.667 156.871C268.464 156.802 268.268 156.713 268.082 156.607H267.979C267.809 156.524 267.644 156.432 267.485 156.331C267.33 156.221 267.184 156.098 267.049 155.964L266.957 155.895L266.865 155.803C266.739 155.7 266.601 155.574 266.475 155.448C266.328 155.275 266.19 155.095 266.062 154.908L265.993 154.805C265.738 154.438 265.508 154.054 265.304 153.657L265.235 153.508C265.136 153.333 265.048 153.153 264.971 152.968C264.891 152.773 264.799 152.532 264.719 152.302V152.141V152.004C264.65 151.797 264.569 151.613 264.5 151.384C264.432 151.154 264.34 150.764 264.259 150.443C264.179 150.121 264.11 149.892 264.064 149.605C264.018 149.318 263.926 148.916 263.869 148.548C263.812 148.181 263.766 147.952 263.72 147.653C263.674 147.355 263.628 146.884 263.582 146.505C263.536 146.126 263.513 145.874 263.479 145.552C263.444 145.231 263.398 144.714 263.375 144.267C263.375 144.037 263.375 143.762 263.375 143.498V143.153C263.375 142.751 263.375 142.327 263.307 141.89V141.718L263.226 137.126V132.374C263.33 132.248 263.456 132.133 263.559 132.018C265.528 129.711 267.803 127.683 270.32 125.992H270.378L270.47 125.923C270.7 125.746 270.941 125.585 271.193 125.441C271.861 124.998 272.638 124.745 273.439 124.711C274.24 124.677 275.035 124.861 275.739 125.245Z" fill="black"/>
<path d="M179.599 163.691L155.171 149.583C155.24 149.434 155.297 149.307 155.378 149.17C155.479 148.941 155.594 148.719 155.722 148.504C155.883 148.194 156.043 147.896 156.216 147.597C156.388 147.299 156.629 146.874 156.858 146.541C156.924 146.408 157.001 146.282 157.088 146.162C157.283 145.841 157.513 145.508 157.742 145.186L157.949 144.899C158.066 144.718 158.197 144.545 158.339 144.383C158.499 144.155 158.671 143.936 158.856 143.729C159.063 143.464 159.281 143.2 159.51 142.959L159.786 142.672C159.845 142.598 159.91 142.529 159.981 142.466L160.348 142.098L160.773 141.685C160.81 141.645 160.852 141.61 160.899 141.582C161.049 141.425 161.21 141.279 161.381 141.146H161.439L161.749 140.916C161.972 140.72 162.206 140.536 162.449 140.365C162.585 140.262 162.727 140.166 162.874 140.078C163.123 139.885 163.388 139.712 163.666 139.562L238.534 96.4336L262.962 110.542L230.051 129.54L187.99 153.842C187.669 154.025 187.359 154.221 187.049 154.427C186.739 154.634 186.475 154.841 186.211 155.07C186.056 155.172 185.91 155.287 185.775 155.414C185.499 155.633 185.224 155.897 184.96 156.149C184.696 156.402 184.317 156.781 184.007 157.102C183.317 157.855 182.677 158.653 182.09 159.49C181.861 159.811 181.631 160.132 181.413 160.477C180.741 161.509 180.135 162.583 179.599 163.691Z" fill="#455A64"/>
</g>
<path d="M143.611 188.426C144.808 188.495 145.988 188.124 146.929 187.382C149.466 185.419 151.36 185.579 154.081 184.408C156.216 183.479 157.077 182.342 157.524 182.732C157.969 183.226 158.211 183.87 158.2 184.534C158.189 185.199 157.927 185.835 157.467 186.314C156.647 187.269 155.696 188.104 154.643 188.793C157.166 188.637 159.655 188.127 162.036 187.278C167.775 185.327 170.496 186.13 167.89 193.42C166.26 198.011 162.151 200.537 150.889 200.307C146.728 200.027 142.59 199.467 138.503 198.631C127.357 196.439 104.914 193.075 101 187.806C89.9225 172.883 79.7632 160.577 78.3628 149.442C77.2148 140.098 82.9545 134.875 88.2694 134.875C91.2885 138.055 93.1252 141.843 95.9032 150.762C95.9032 150.762 110.321 176.579 111.779 178.462C115.407 180.448 141.247 188.047 143.611 188.426Z" fill="#FFA8A7"/>
<path d="M351.812 92.7807C353.752 93.9287 355.83 94.4223 358.413 96.3049C360.082 97.7383 362.076 98.7431 364.222 99.2321C366.988 99.9094 388.764 92.5512 392.794 89.4403C401.001 83.1151 408.084 71.211 412.033 66.6997C415.282 62.9803 418.921 57.3784 422.973 57.3555C429.596 59.3529 428.104 69.2022 422.56 78.0183C417.968 85.3536 409.267 94.6174 399.417 101.08C394.642 104.214 372.636 109.896 365.324 110.379C363.108 110.516 361.466 111.021 357.288 111.618C355.551 111.971 353.772 112.067 352.008 111.905C349.841 111.568 347.734 110.923 345.751 109.988C343.234 108.814 341.077 106.987 339.507 104.696C338.649 103.437 338.099 101.994 337.899 100.483C337.699 98.9618 338.049 97.4186 338.887 96.1327C339.044 95.8643 339.27 95.6424 339.541 95.4899C340.075 95.3161 340.655 95.3573 341.16 95.6047C344.098 96.6263 347.106 98.1646 350.125 98.8648C352.673 99.4502 354.556 99.5191 354.303 99.0599C354.051 98.6008 352.536 98.3482 350.802 96.8789C349.069 95.4095 348.357 93.0907 349.218 92.2183C350.079 91.3458 349.884 91.5869 351.812 92.7807Z" fill="#FFA8A7"/>
<path d="M423.398 55.0225C428.288 57.4217 430.285 61.0721 428.104 69.1995C426.153 76.5003 418.668 88.9554 412.779 95.051C412.779 95.051 402.7 90.2755 397.34 84.0652C402.643 75.9493 405.203 71.1739 410.185 64.2978C415.167 57.4216 420.413 54.2074 423.398 55.0225Z" fill="#E0E0E0"/>
</svg>
