<svg width="544" height="536" viewBox="0 0 544 536" fill="none" xmlns="http://www.w3.org/2000/svg">
<path d="M54.6896 368.543H22.2988V382.231H54.6896V368.543Z" fill="#EBEBEB"/>
<path d="M36.6232 385.801H4.23242V399.489H36.6232V385.801Z" fill="#EBEBEB"/>
<path d="M314.134 143.289H281.743V156.977H314.134V143.289Z" fill="#EBEBEB"/>
<path d="M296.068 160.547H263.677V174.235H296.068V160.547Z" fill="#EBEBEB"/>
<path d="M278.073 143.289H245.683V156.977H278.073V143.289Z" fill="#EBEBEB"/>
<path d="M539.169 385.801H506.778V399.489H539.169V385.801Z" fill="#EBEBEB"/>
<path d="M521.102 0H488.711V13.6878H521.102V0Z" fill="#EBEBEB"/>
<path d="M539.169 17.2578H506.778V30.9456H539.169V17.2578Z" fill="#EBEBEB"/>
<path d="M54.6896 0H22.2988V13.6878H54.6896V0Z" fill="#EBEBEB"/>
<path d="M511.781 153.133C506.986 156.015 501.577 157.723 495.997 158.117C490.416 158.51 484.821 157.578 479.67 155.396C474.518 153.214 469.955 149.845 466.354 145.564C462.753 141.282 460.216 136.21 458.95 130.76C457.469 124.386 457.78 117.727 459.848 111.518C461.916 105.31 465.662 99.7949 470.67 95.5829C475.678 91.3709 481.754 88.6263 488.224 87.6527C494.695 86.679 501.31 87.5143 507.335 90.0661C513.361 92.6179 518.564 96.7867 522.367 102.111C526.171 107.436 528.428 113.709 528.888 120.237C529.348 126.765 527.994 133.292 524.974 139.098C521.955 144.904 517.389 149.761 511.781 153.133Z" fill="#EBEBEB"/>
<path d="M504.332 118.823C504.307 120.959 503.65 123.04 502.442 124.803C501.235 126.566 499.532 127.931 497.548 128.726C495.565 129.52 493.39 129.709 491.3 129.267C489.209 128.826 487.296 127.774 485.804 126.245C484.311 124.717 483.305 122.78 482.913 120.679C482.522 118.579 482.762 116.409 483.604 114.445C484.445 112.481 485.85 110.811 487.641 109.646C489.432 108.481 491.529 107.873 493.665 107.899C496.527 107.938 499.256 109.109 501.256 111.157C503.255 113.204 504.361 115.961 504.332 118.823Z" fill="white"/>
<path d="M511.83 148.681V153.133C506.183 156.527 499.703 158.281 493.116 158.198C486.529 158.116 480.094 156.201 474.534 152.669V148.24C474.702 143.369 476.77 138.758 480.296 135.392C483.821 132.026 488.524 130.174 493.397 130.232C498.271 130.289 502.928 132.252 506.373 135.7C509.818 139.148 511.777 143.807 511.83 148.681Z" fill="white"/>
<path d="M54.5306 335.003C49.7438 337.878 44.1697 339.165 38.607 338.678C33.0443 338.191 27.7784 335.956 23.5639 332.293C19.3494 328.63 16.4025 323.726 15.1456 318.286C13.8886 312.845 14.386 307.146 16.5665 302.006C18.7471 296.865 22.4988 292.546 27.2842 289.669C32.0696 286.791 37.6431 285.502 43.206 285.986C48.769 286.471 54.0359 288.703 58.2521 292.364C62.4684 296.026 65.4175 300.927 66.6771 306.367C67.9492 311.812 67.4582 317.519 65.2749 322.667C63.0917 327.814 59.3291 332.134 54.5306 335.003Z" fill="#EBEBEB"/>
<path d="M48.9778 309.401C48.9583 310.993 48.4673 312.543 47.5668 313.856C46.6663 315.168 45.3968 316.185 43.9188 316.776C42.4408 317.367 40.8207 317.507 39.2634 317.177C37.706 316.848 36.2814 316.064 35.1695 314.924C34.0577 313.785 33.3086 312.342 33.017 310.777C32.7255 309.212 32.9045 307.596 33.5314 306.133C34.1584 304.669 35.2051 303.425 36.5393 302.557C37.8735 301.688 39.4351 301.235 41.0269 301.254C43.1606 301.284 45.1957 302.157 46.6861 303.684C48.1765 305.212 49.0006 307.267 48.9778 309.401Z" fill="white"/>
<path d="M54.5679 331.676V335.003C50.3582 337.538 45.525 338.849 40.6112 338.789C35.6974 338.728 30.8979 337.298 26.752 334.66V331.345C26.7957 327.657 28.303 324.137 30.9423 321.559C32.2491 320.283 33.7944 319.277 35.4901 318.598C37.1858 317.919 38.9986 317.581 40.825 317.603C42.6515 317.624 44.4557 318.005 46.1348 318.724C47.8139 319.443 49.3349 320.486 50.6111 321.793C51.8872 323.1 52.8935 324.645 53.5724 326.341C54.2513 328.036 54.5895 329.849 54.5679 331.676Z" fill="white"/>
<path d="M480.246 54.774V437.371C480.246 448.184 472.149 456.943 462.155 456.943H283.566C273.56 456.943 265.462 448.197 265.462 437.371V54.774C265.462 32.7561 273.56 31.6797 283.566 31.6797H319.406C321.473 31.6797 323.173 34.0405 323.173 36.964V38.1872C323.173 45.0494 326.928 45.0739 331.54 45.0739H414.254C418.902 45.0739 422.633 45.0739 422.633 38.1872V36.964C422.633 34.0405 424.309 31.6797 426.425 31.6797H462.155C472.149 31.6797 480.246 34.6032 480.246 54.774Z" fill="#EBEBEB"/>
<path d="M384.15 36.2069H361.582C361.212 36.2069 360.857 36.06 360.596 35.7985C360.334 35.537 360.188 35.1823 360.188 34.8124C360.188 34.4426 360.334 34.0879 360.596 33.8264C360.857 33.5649 361.212 33.418 361.582 33.418H384.15C384.52 33.418 384.875 33.5649 385.136 33.8264C385.398 34.0879 385.545 34.4426 385.545 34.8124C385.545 35.1823 385.398 35.537 385.136 35.7985C384.875 36.06 384.52 36.2069 384.15 36.2069Z" fill="white"/>
<path d="M313.73 39.9642L313.387 40.3066C313.316 40.3656 313.251 40.4312 313.192 40.5024C312.754 40.0641 312.235 39.7164 311.663 39.4791C311.091 39.2419 310.478 39.1198 309.858 39.1198C309.239 39.1198 308.626 39.2419 308.054 39.4791C307.482 39.7164 306.963 40.0641 306.525 40.5024L306.342 40.3066L305.95 39.9642L306.391 39.585C306.697 39.3287 307.034 39.111 307.394 38.9367C307.82 38.726 308.272 38.5737 308.739 38.4841L309.412 38.3984H309.999H310.452C310.87 38.4469 311.28 38.5455 311.675 38.692C311.965 38.7923 312.244 38.9236 312.507 39.0834C312.788 39.2414 313.055 39.4257 313.302 39.6339L313.669 39.9642H313.73Z" fill="white"/>
<path d="M307.626 41.5528L307.075 41.0146C307.814 40.2774 308.815 39.8633 309.858 39.8633C310.901 39.8633 311.902 40.2774 312.641 41.0146L312.09 41.5528C311.495 40.9664 310.693 40.6377 309.858 40.6377C309.023 40.6377 308.221 40.9664 307.626 41.5528Z" fill="white"/>
<path d="M311.54 42.1036C311.369 42.2871 311.185 42.4583 311.002 42.6418C310.851 42.4918 310.671 42.3735 310.474 42.2936C310.276 42.2138 310.065 42.1742 309.852 42.177C309.64 42.1746 309.43 42.2157 309.234 42.2978C309.038 42.3798 308.862 42.5011 308.715 42.654L308.164 42.1036C308.385 41.8802 308.648 41.7029 308.937 41.5818C309.227 41.4608 309.538 41.3984 309.852 41.3984C310.166 41.3984 310.477 41.4608 310.767 41.5818C311.057 41.7029 311.319 41.8802 311.54 42.1036Z" fill="white"/>
<path d="M310.353 43.1457C310.356 43.2454 310.329 43.3435 310.275 43.4276C310.221 43.5116 310.144 43.5778 310.053 43.6177C309.961 43.6575 309.86 43.6692 309.762 43.6513C309.664 43.6333 309.573 43.5865 309.502 43.5169C309.431 43.4473 309.382 43.358 309.361 43.2603C309.341 43.1627 309.35 43.0613 309.388 42.9689C309.425 42.8766 309.489 42.7975 309.572 42.7419C309.655 42.6862 309.752 42.6564 309.852 42.6564C309.917 42.6548 309.982 42.6662 310.043 42.6901C310.104 42.7139 310.159 42.7497 310.206 42.7953C310.253 42.8409 310.29 42.8954 310.315 42.9556C310.34 43.0158 310.354 43.0804 310.353 43.1457Z" fill="white"/>
<path d="M280.03 40.9778C280.03 40.6958 280.114 40.4201 280.27 40.1853C280.426 39.9505 280.648 39.7671 280.908 39.6581C281.168 39.5491 281.455 39.5194 281.732 39.5726C282.009 39.6259 282.264 39.7598 282.465 39.9575C282.666 40.1552 282.804 40.4079 282.862 40.6839C282.92 40.9599 282.895 41.2469 282.791 41.5088C282.686 41.7707 282.506 41.9958 282.274 42.156C282.042 42.3162 281.768 42.4042 281.486 42.409C281.296 42.4139 281.106 42.3805 280.929 42.3106C280.752 42.2407 280.59 42.1359 280.454 42.0023C280.319 41.8688 280.211 41.7092 280.138 41.5332C280.065 41.3572 280.029 41.1683 280.03 40.9778Z" fill="white"/>
<path d="M284.508 40.978C284.508 40.695 284.592 40.4183 284.749 40.1829C284.906 39.9476 285.13 39.7641 285.391 39.6558C285.653 39.5475 285.941 39.5192 286.218 39.5744C286.496 39.6296 286.751 39.7659 286.951 39.9661C287.151 40.1662 287.287 40.4212 287.343 40.6988C287.398 40.9765 287.37 41.2642 287.261 41.5257C287.153 41.7872 286.969 42.0107 286.734 42.168C286.499 42.3253 286.222 42.4092 285.939 42.4092C285.559 42.4092 285.195 42.2584 284.927 41.99C284.659 41.7216 284.508 41.3576 284.508 40.978Z" fill="white"/>
<path d="M288.997 40.978C288.997 40.6944 289.081 40.4172 289.239 40.1816C289.397 39.946 289.621 39.7626 289.883 39.6546C290.146 39.5467 290.434 39.5191 290.712 39.5753C290.99 39.6315 291.245 39.769 291.445 39.9704C291.644 40.1718 291.78 40.4279 291.833 40.7063C291.887 40.9848 291.857 41.2729 291.747 41.5342C291.637 41.7955 291.451 42.0181 291.214 42.1739C290.978 42.3297 290.7 42.4116 290.416 42.4091C290.229 42.4092 290.043 42.372 289.87 42.3C289.697 42.2279 289.54 42.1223 289.408 41.9892C289.276 41.8562 289.172 41.6983 289.102 41.5247C289.031 41.3512 288.996 41.1654 288.997 40.978Z" fill="white"/>
<path d="M293.474 40.9776C293.474 40.6961 293.557 40.4209 293.713 40.1864C293.868 39.9519 294.09 39.7685 294.349 39.6592C294.608 39.5499 294.894 39.5195 295.171 39.5718C295.447 39.6241 295.702 39.7568 295.904 39.9533C296.105 40.1498 296.245 40.4014 296.304 40.6765C296.363 40.9517 296.34 41.2382 296.237 41.5003C296.135 41.7624 295.957 41.9883 295.726 42.1499C295.496 42.3115 295.223 42.4015 294.942 42.4087C294.75 42.4136 294.56 42.3802 294.383 42.3105C294.205 42.2408 294.043 42.1361 293.906 42.0027C293.769 41.8694 293.66 41.7099 293.586 41.5339C293.512 41.3578 293.474 41.1686 293.474 40.9776Z" fill="white"/>
<path d="M297.963 40.978C297.963 40.6944 298.047 40.4172 298.205 40.1816C298.363 39.946 298.587 39.7626 298.849 39.6546C299.112 39.5467 299.4 39.5191 299.678 39.5753C299.956 39.6315 300.211 39.769 300.41 39.9704C300.61 40.1718 300.745 40.4279 300.799 40.7063C300.853 40.9848 300.823 41.2729 300.713 41.5342C300.603 41.7955 300.417 42.0181 300.18 42.1739C299.943 42.3297 299.665 42.4116 299.382 42.4091C299.195 42.4092 299.009 42.372 298.836 42.3C298.663 42.2279 298.506 42.1223 298.374 41.9892C298.242 41.8562 298.138 41.6983 298.067 41.5247C297.997 41.3512 297.961 41.1654 297.963 40.978Z" fill="white"/>
<path d="M464.675 44.0837H453.079V38.7383H464.675V44.0837ZM453.666 43.4966H464.064V39.301H453.666V43.4966Z" fill="white"/>
<path d="M461.519 39.6328H454.045V43.1801H461.519V39.6328Z" fill="white"/>
<path d="M465.702 39.9609H464.675V42.8355H465.702V39.9609Z" fill="white"/>
<path d="M372.86 424.222C382.906 424.222 391.049 416.079 391.049 406.033C391.049 395.987 382.906 387.844 372.86 387.844C362.815 387.844 354.671 395.987 354.671 406.033C354.671 416.079 362.815 424.222 372.86 424.222Z" fill="white"/>
<path d="M372.86 430.351C368.048 430.351 363.343 428.924 359.342 426.25C355.341 423.576 352.222 419.775 350.381 415.329C348.54 410.883 348.059 405.99 348.999 401.27C349.938 396.55 352.257 392.215 355.661 388.813C359.064 385.411 363.401 383.095 368.121 382.157C372.841 381.22 377.734 381.704 382.179 383.547C386.625 385.39 390.424 388.511 393.095 392.513C395.767 396.516 397.192 401.221 397.19 406.033C397.183 412.483 394.618 418.666 390.056 423.226C385.494 427.785 379.31 430.348 372.86 430.351ZM372.86 384.15C368.532 384.15 364.301 385.434 360.702 387.838C357.104 390.243 354.299 393.66 352.642 397.659C350.986 401.658 350.553 406.058 351.397 410.303C352.242 414.548 354.326 418.447 357.386 421.507C360.447 424.568 364.346 426.652 368.591 427.496C372.836 428.341 377.236 427.907 381.234 426.251C385.233 424.595 388.651 421.79 391.055 418.191C393.46 414.592 394.743 410.361 394.743 406.033C394.737 400.232 392.429 394.669 388.327 390.567C384.224 386.464 378.662 384.157 372.86 384.15Z" fill="white"/>
<path d="M465.849 86.5039H279.884V337.96H465.849V86.5039Z" fill="white"/>
<path d="M342.488 86.5039H341.265V337.96H342.488V86.5039Z" fill="#EBEBEB"/>
<path d="M404.481 86.5039H403.258V337.96H404.481V86.5039Z" fill="#EBEBEB"/>
<path d="M465.849 163.445H279.884V164.669H465.849V163.445Z" fill="#EBEBEB"/>
<path d="M465.849 253.535H279.884V254.758H465.849V253.535Z" fill="#EBEBEB"/>
<path d="M306.44 408.363C307.735 402.9 304.355 397.422 298.893 396.128C293.43 394.834 287.952 398.213 286.658 403.675C285.364 409.138 288.743 414.616 294.206 415.91C299.668 417.204 305.146 413.825 306.44 408.363Z" fill="white"/>
<path d="M431.648 397.754H413.667V400.421H431.648V397.754Z" fill="white"/>
<path d="M431.648 404.699H413.667V407.366H431.648V404.699Z" fill="white"/>
<path d="M431.648 411.637H413.667V414.303H431.648V411.637Z" fill="white"/>
<path d="M418.523 396.406H417.3V401.764H418.523V396.406Z" fill="white"/>
<path d="M428.077 403.355H426.854V408.713H428.077V403.355Z" fill="white"/>
<path d="M423.269 410.289H422.046V415.647H423.269V410.289Z" fill="white"/>
<path d="M459.966 406.033H458.743C458.743 403.644 457.795 401.353 456.107 399.663C454.419 397.972 452.129 397.021 449.74 397.018C448.333 397.017 446.945 397.348 445.691 397.986C444.437 398.624 443.351 399.55 442.523 400.687L441.532 399.953C442.82 398.234 444.615 396.963 446.664 396.321C448.714 395.678 450.913 395.696 452.952 396.372C454.99 397.049 456.765 398.349 458.023 400.089C459.282 401.83 459.962 403.922 459.966 406.07V406.033Z" fill="white"/>
<path d="M445.116 399.392L442.241 399.98L441.642 397.117L440.676 398.585L441.275 401.46L444.15 400.86L445.116 399.392Z" fill="white"/>
<path d="M449.739 416.261C447.027 416.258 444.427 415.18 442.508 413.263C440.589 411.347 439.507 408.747 439.501 406.035H440.724C440.725 407.956 441.34 409.826 442.479 411.374C443.617 412.921 445.221 414.064 447.054 414.636C448.888 415.208 450.857 415.179 452.673 414.554C454.489 413.929 456.059 412.74 457.152 411.16L458.155 411.858C457.21 413.215 455.952 414.324 454.487 415.09C453.021 415.857 451.393 416.259 449.739 416.261Z" fill="white"/>
<path d="M454.608 412.506L457.458 411.809L458.156 414.647L459.061 413.143L458.364 410.305L455.514 411.002L454.608 412.506Z" fill="white"/>
<path d="M262.612 535.547C402.838 535.547 516.514 523.044 516.514 507.621C516.514 492.198 402.838 479.695 262.612 479.695C122.385 479.695 8.70898 492.198 8.70898 507.621C8.70898 523.044 122.385 535.547 262.612 535.547Z" fill="#EBEBEB"/>
<path d="M0 457.678L67.9251 457.384L135.85 457.274L271.701 457.066L407.551 457.274L475.476 457.384L543.401 457.678L475.476 457.984L407.551 458.082L271.701 458.29L135.85 458.082L67.9251 457.984L0 457.678Z" fill="#263238"/>
<path d="M474.669 262.746C474.669 262.746 502.044 258.917 495.647 225.891C495.647 225.891 465.054 232.728 474.669 262.746Z" fill="#004E9E"/>
<path opacity="0.1" d="M474.669 262.746C474.669 262.746 502.044 258.917 495.647 225.891C495.647 225.891 465.054 232.728 474.669 262.746Z" fill="black"/>
<path d="M476.051 255.847C476.589 254.171 477.213 252.532 477.91 250.954C477.91 250.746 477.972 250.538 477.984 250.33L478.094 248.972C478.18 247.981 478.241 246.991 478.29 246.012C478.412 244.03 478.534 242.061 478.571 240.079C478.566 240.066 478.564 240.052 478.565 240.038C478.567 240.025 478.572 240.011 478.58 240C478.587 239.988 478.598 239.979 478.61 239.972C478.623 239.965 478.636 239.962 478.65 239.962C478.664 239.962 478.678 239.965 478.691 239.972C478.703 239.979 478.713 239.988 478.721 240C478.729 240.011 478.734 240.025 478.736 240.038C478.737 240.052 478.735 240.066 478.73 240.079C478.73 242.061 478.73 244.043 478.73 246.012C478.73 247.003 478.632 247.994 478.571 248.984C478.571 249.192 478.571 249.413 478.571 249.633C480.109 246.343 481.948 243.202 484.063 240.251C485.005 238.93 485.996 237.67 487.06 236.446C488.124 235.223 489.299 234 490.399 232.777C490.473 232.691 490.595 232.777 490.522 232.899C488.555 235.073 486.786 237.419 485.237 239.908C484.406 241.131 483.623 242.465 482.877 243.773L483.134 243.676L484.112 243.284C484.846 243.003 485.592 242.709 486.338 242.44L490.754 240.801C490.84 240.801 490.901 240.923 490.754 240.948C489.299 241.535 487.867 242.171 486.424 242.77L484.308 243.676L483.231 244.128C482.999 244.233 482.758 244.315 482.51 244.373C481.959 245.376 481.409 246.367 480.907 247.382C479.632 249.942 478.513 252.577 477.556 255.272C477.556 255.455 477.433 255.651 477.36 255.834C478.079 255.414 478.832 255.054 479.611 254.758L482.436 253.461C484.357 252.581 486.265 251.688 488.112 250.648C488.198 250.648 488.283 250.746 488.185 250.795C486.302 251.822 484.516 252.911 482.583 253.938C481.641 254.452 480.687 254.941 479.721 255.418C478.924 255.894 478.057 256.241 477.152 256.446C476.236 258.951 475.632 261.56 475.354 264.213C475.048 267.883 475.085 271.712 474.999 275.467C474.999 275.528 474.901 275.528 474.901 275.467C474.632 272.079 474.473 268.641 474.461 265.229C474.482 262.036 475.019 258.868 476.051 255.847Z" fill="#263238"/>
<path d="M480.272 236.41C480.532 238.34 480.622 240.288 480.541 242.233H480.455C480.345 240.3 480.333 238.38 480.1 236.447C480.088 236.349 480.259 236.3 480.272 236.41Z" fill="#263238"/>
<path d="M488.1 238.125C489.322 237.662 490.497 237.084 491.611 236.4C491.62 236.393 491.632 236.388 491.643 236.385C491.655 236.382 491.667 236.382 491.679 236.384C491.691 236.387 491.703 236.392 491.712 236.399C491.722 236.406 491.731 236.415 491.737 236.425C491.743 236.436 491.747 236.447 491.748 236.46C491.749 236.472 491.748 236.484 491.744 236.495C491.74 236.507 491.734 236.517 491.726 236.526C491.718 236.535 491.708 236.542 491.696 236.547C490.599 237.284 489.4 237.857 488.137 238.247C488.129 238.25 488.12 238.251 488.112 238.25C488.104 238.249 488.096 238.246 488.088 238.242C488.081 238.239 488.074 238.233 488.069 238.227C488.064 238.22 488.06 238.213 488.057 238.205C488.055 238.197 488.054 238.188 488.055 238.18C488.056 238.171 488.058 238.163 488.062 238.156C488.066 238.149 488.072 238.142 488.078 238.137C488.085 238.132 488.092 238.128 488.1 238.125Z" fill="#263238"/>
<path d="M473.789 315.186C473.789 312.165 473.874 309.144 473.911 306.11C473.911 296.068 474.046 286.013 474.229 275.97C474.376 267.995 474.559 260.019 474.779 252.044C474.781 252.021 474.789 251.999 474.802 251.979C474.815 251.96 474.832 251.944 474.853 251.934V245.402C474.853 245.402 474.914 245.316 474.987 245.316C475.061 245.316 475.11 245.316 475.11 245.402C475.11 247.592 475.11 249.769 475.11 251.946C475.11 251.946 475.171 251.946 475.171 252.044C475.575 266.246 475.929 280.447 476.015 294.649C476.015 297.535 476.015 300.422 476.015 303.309C476.113 312.565 476.149 321.82 476.125 331.076C476.125 332.556 476.125 334.024 476.125 335.504C476.125 343.969 476.039 352.446 476.039 360.91C476.039 361.375 475.538 361.595 475 361.62C474.461 361.644 473.776 361.4 473.776 360.874C473.776 351.54 473.776 342.195 473.776 332.85C473.752 326.995 473.756 321.107 473.789 315.186Z" fill="#263238"/>
<path d="M485.225 306.035C485.225 306.035 498.399 296.25 510.913 302.867C523.426 309.485 525.371 334.879 525.371 334.879C525.371 334.879 507.023 337.509 495.451 326.5C484.308 315.895 485.225 306.035 485.225 306.035Z" fill="#004E9E"/>
<path d="M481.641 306.623C484.059 305.664 486.679 305.323 489.262 305.632C489.795 305.537 490.335 305.483 490.876 305.473L492.736 305.326L496.576 305.057C499.17 304.861 501.775 304.702 504.368 304.445C504.466 304.445 504.491 304.604 504.368 304.617C501.8 304.935 499.243 305.302 496.674 305.558C495.353 305.693 494.02 305.84 492.699 305.925L491.733 306.023C492.124 306.113 492.532 306.211 492.956 306.317C495.026 306.92 497.027 307.74 498.925 308.763C499.953 308.947 500.992 309.24 502.008 309.473C503.634 309.864 505.261 310.28 506.9 310.696C510.105 311.528 513.261 312.47 516.441 313.399C516.539 313.399 516.441 313.583 516.441 313.558C513.273 312.775 510.081 312.066 506.9 311.308L502.277 310.207L501.053 309.925C504.592 312.113 507.752 314.86 510.411 318.06C512.981 321.209 515.166 324.655 516.919 328.322C516.919 328.42 516.833 328.506 516.772 328.408C514.612 324.638 511.967 321.168 508.906 318.084C508.906 318.255 509.017 318.427 509.078 318.61C509.322 319.381 509.567 320.151 509.799 320.934C510.289 322.488 510.79 324.029 511.255 325.595C511.255 325.693 511.12 325.729 511.084 325.595C510.533 324.09 510.007 322.573 509.469 321.069L508.699 318.843L508.295 317.681L508.173 317.338C506.705 315.907 505.144 314.575 503.5 313.35C501.323 311.758 498.977 310.412 496.503 309.338C496.503 309.571 496.601 309.803 496.638 310.023C496.772 310.623 496.907 311.246 497.029 311.821C497.286 313.045 497.531 314.268 497.775 315.564C498.264 318.121 498.57 320.702 499.06 323.246C499.06 323.269 499.051 323.291 499.034 323.307C499.018 323.323 498.997 323.332 498.974 323.332C498.951 323.332 498.929 323.323 498.913 323.307C498.897 323.291 498.888 323.269 498.888 323.246C498.301 320.69 497.543 318.17 496.968 315.589C496.687 314.304 496.393 313.02 496.124 311.736L495.757 309.925C495.696 309.595 495.61 309.265 495.573 308.922L494.864 308.629C491.4 307.134 487.593 306.614 483.855 307.124C482.114 307.449 480.48 308.199 479.097 309.306C477.715 310.413 476.626 311.845 475.929 313.473C475.806 313.766 475.354 313.583 475.415 313.289C475.866 311.772 476.663 310.38 477.743 309.223C478.824 308.066 480.158 307.176 481.641 306.623Z" fill="#263238"/>
<path d="M501.8 317.486C502.167 319.162 502.546 320.826 502.913 322.502C503.329 324.11 503.635 325.745 503.83 327.394C503.83 327.456 503.745 327.456 503.72 327.394C503.24 325.79 502.868 324.156 502.607 322.502C502.277 320.85 501.959 319.199 501.641 317.609C501.665 317.425 501.775 317.389 501.8 317.486Z" fill="#263238"/>
<path d="M514.534 321.731C516.21 322.587 517.836 323.554 519.598 324.251C519.708 324.251 519.598 324.459 519.525 324.398C517.802 323.622 516.124 322.752 514.497 321.792C514.497 321.792 514.497 321.706 514.534 321.731Z" fill="#263238"/>
<path d="M482.265 288.115C482.265 288.115 498.362 289.142 505.849 278.525C513.335 267.907 511.659 252.801 511.659 252.801C511.659 252.801 494.754 254.856 488.038 262.476C481.323 270.097 482.265 288.115 482.265 288.115Z" fill="#004E9E"/>
<path d="M474.754 303.995C475.317 302.27 475.977 300.57 476.662 298.882C477.347 297.194 477.947 295.652 478.656 294.062C480.12 290.819 481.753 287.654 483.549 284.582C484.687 282.625 485.898 280.717 487.158 278.845C487.158 278.564 487.231 278.283 487.28 277.989L487.5 276.497C487.659 275.482 487.843 274.466 488.014 273.451C488.381 271.225 488.846 269.011 489.237 266.785C489.237 266.687 489.421 266.687 489.408 266.785C489.09 268.974 488.87 271.188 488.552 273.39C488.405 274.466 488.259 275.543 488.1 276.619L487.916 277.842C490.371 274.252 493.029 270.805 495.879 267.518C496.271 267.066 496.662 266.638 497.102 266.197C497.102 266.075 497.2 265.953 497.249 265.83C497.372 265.525 497.494 265.219 497.604 264.913L498.301 262.993C498.754 261.769 499.157 260.461 499.524 259.164C499.524 259.054 499.708 259.164 499.683 259.164C499.353 260.485 499.011 261.806 498.631 263.103C498.448 263.739 498.24 264.326 498.02 264.974C497.974 265.078 497.933 265.184 497.897 265.292C499.952 263.042 502.105 260.889 504.27 258.748C504.344 258.675 504.466 258.748 504.381 258.87C500.226 263.226 496.415 267.896 492.98 272.839C493.372 272.717 493.775 272.619 494.203 272.534C495.427 272.301 496.65 272.118 497.946 271.959C500.576 271.628 503.182 271.298 505.799 270.882C505.822 270.882 505.844 270.891 505.86 270.907C505.876 270.923 505.885 270.945 505.885 270.968C505.885 270.991 505.876 271.012 505.86 271.028C505.844 271.045 505.822 271.054 505.799 271.054C503.353 271.543 500.833 272.106 498.362 272.668C497.139 272.937 496.014 273.17 494.839 273.402C493.881 273.61 492.937 273.879 492.014 274.209C491.757 274.576 491.488 274.943 491.231 275.323C490.008 277.035 488.919 278.797 487.806 280.558L489.445 280.24C490.668 279.995 491.891 279.775 493.188 279.567C495.635 279.163 498.081 278.735 500.527 278.185C500.543 278.191 500.557 278.202 500.567 278.216C500.576 278.231 500.581 278.247 500.581 278.264C500.581 278.282 500.576 278.298 500.567 278.312C500.557 278.327 500.543 278.338 500.527 278.344C498.081 278.919 495.635 279.567 493.188 280.252C491.965 280.558 490.815 280.852 489.629 281.108L487.843 281.5C487.602 281.562 487.357 281.603 487.109 281.622C484.76 285.439 482.562 289.341 480.516 293.328C479.61 295.078 478.754 296.839 477.91 298.625C477.066 300.411 476.32 302.294 475.525 304.178C475.17 304.557 474.583 304.398 474.754 303.995Z" fill="#263238"/>
<path d="M491.182 267.002C491.488 265.461 491.819 263.932 492.161 262.403C492.161 262.305 492.345 262.403 492.32 262.403C492.014 263.907 491.721 265.424 491.452 266.941C491.226 268.457 490.92 269.959 490.534 271.442C490.648 269.949 490.865 268.466 491.182 267.002Z" fill="#263238"/>
<path d="M500.577 266.55C501.323 266.183 502.118 265.877 502.889 265.584L504.112 265.107L504.736 264.85C504.973 264.785 505.2 264.686 505.409 264.556C505.531 264.458 505.617 264.679 505.494 264.691C505.252 264.759 505.019 264.853 504.797 264.972L504.198 265.253L502.974 265.779C502.198 266.136 501.402 266.446 500.589 266.709C500.54 266.746 500.442 266.599 500.577 266.55Z" fill="#263238"/>
<path d="M465.788 275.455C465.788 275.455 456.003 257.254 441.226 254.44C426.45 251.627 417.337 266.868 417.337 266.868C417.337 266.868 428.138 280.678 441.74 283.088C455.342 285.498 465.788 275.455 465.788 275.455Z" fill="#004E9E"/>
<path d="M431.293 262.589C435.153 262.071 439.067 262.116 442.914 262.724L442.253 262.369L438.963 260.681C436.688 259.458 434.388 258.234 432.003 257.28C431.993 257.276 431.983 257.269 431.975 257.26C431.968 257.252 431.961 257.242 431.957 257.231C431.954 257.22 431.952 257.209 431.952 257.197C431.953 257.186 431.955 257.175 431.96 257.164C431.965 257.154 431.972 257.144 431.98 257.137C431.989 257.129 431.999 257.123 432.009 257.119C432.02 257.115 432.032 257.113 432.043 257.113C432.055 257.114 432.066 257.117 432.076 257.121C434.4 258.21 436.798 259.115 439.122 260.179C440.284 260.718 441.434 261.268 442.559 261.867C443.293 262.259 444.101 262.626 444.822 263.091C448.077 263.749 451.24 264.8 454.241 266.222L452.394 264.204C451.012 262.687 449.654 261.097 448.137 259.727C448.052 259.653 448.137 259.531 448.247 259.604C449.801 261.023 451.44 262.32 452.944 263.788C453.678 264.497 454.376 265.231 455.048 265.99C455.391 266.369 455.733 266.76 456.051 267.213C461.145 269.929 465.574 273.74 469.019 278.372C472.464 283.004 474.841 288.342 475.978 294.001C475.978 294.111 475.843 294.16 475.819 294.062C473.729 287.127 469.989 280.802 464.92 275.629C459.471 270.061 452.607 266.086 445.067 264.13C440.594 262.998 435.97 262.585 431.367 262.907C431.325 262.917 431.28 262.909 431.244 262.887C431.207 262.864 431.181 262.827 431.171 262.785C431.161 262.743 431.169 262.698 431.192 262.662C431.215 262.625 431.251 262.599 431.293 262.589Z" fill="#263238"/>
<path opacity="0.1" d="M417.337 266.87C417.337 266.87 428.138 280.68 441.801 283.09C452.174 284.924 460.7 279.518 464.174 276.851L464.92 275.628C464.92 275.628 457.899 269.708 444.627 266.295C431.355 262.882 417.337 266.87 417.337 266.87Z" fill="black"/>
<path d="M439.906 256.104C441.041 256.77 442.139 257.497 443.196 258.282C444.223 259.066 445.177 259.942 446.046 260.899C446.132 260.985 446.046 261.095 445.924 261.022C444.945 260.165 443.954 259.309 442.927 258.502C441.937 257.685 440.895 256.933 439.808 256.251C439.722 256.19 439.808 256.055 439.906 256.104Z" fill="#263238"/>
<path d="M431.771 259.189L433.423 259.85L435.074 260.535C435.196 260.535 435.135 260.767 435.013 260.718L433.361 260.058L431.722 259.348C431.624 259.311 431.673 259.152 431.771 259.189Z" fill="#263238"/>
<path d="M467.734 298.355C467.734 298.355 465.128 316.41 451.514 322.721C437.9 329.033 421.398 322.721 421.398 322.721C421.398 322.721 427.943 283.664 467.734 298.355Z" fill="#004E9E"/>
<path d="M430.78 310.979C432.004 310.844 433.288 310.624 434.523 310.404L436.346 310.061L437.3 309.866C437.667 309.523 438.022 309.181 438.401 308.85C440.976 306.59 443.757 304.575 446.707 302.832C448.308 301.879 449.966 301.025 451.673 300.276H451.416L446.951 300.471C443.967 300.606 440.994 300.667 438.022 300.863C437.912 300.863 437.912 300.704 438.022 300.692C441.006 300.496 443.979 300.166 446.963 299.909L451.306 299.517L453.544 299.322L454.119 299.26C454.89 298.979 455.673 298.698 456.456 298.453C460.157 297.186 464.137 296.97 467.954 297.829C471.367 298.698 474.779 300.936 475.66 304.532C475.66 304.667 475.501 304.753 475.452 304.618C474.229 301.609 470.841 300.104 467.819 299.468C465.801 299.086 463.733 299.049 461.703 299.358C461.557 300.286 461.328 301.199 461.018 302.086C460.639 303.309 460.272 304.63 459.881 305.89C459.11 308.422 458.266 310.942 457.52 313.474C457.525 313.487 457.527 313.501 457.525 313.515C457.524 313.529 457.519 313.542 457.511 313.554C457.503 313.566 457.493 313.575 457.48 313.582C457.468 313.588 457.454 313.592 457.44 313.592C457.426 313.592 457.413 313.588 457.4 313.582C457.388 313.575 457.377 313.566 457.369 313.554C457.362 313.542 457.357 313.529 457.355 313.515C457.354 313.501 457.356 313.487 457.361 313.474C457.985 310.942 458.523 308.386 459.122 305.854C459.428 304.63 459.746 303.407 460.052 302.184C460.224 301.314 460.453 300.456 460.737 299.615C459.547 299.823 458.371 300.101 457.214 300.447C455.129 301.065 453.086 301.817 451.098 302.698C450.902 303.982 450.609 305.254 450.315 306.526C449.948 308.117 449.532 309.694 449.031 311.26C449.024 311.276 449.013 311.29 448.999 311.299C448.985 311.309 448.968 311.314 448.951 311.314C448.934 311.314 448.917 311.309 448.903 311.299C448.889 311.29 448.878 311.276 448.872 311.26C448.872 311.162 448.872 311.064 448.872 310.967C449.177 309.486 449.508 308.019 449.814 306.539C450.07 305.315 450.303 304.153 450.56 302.967C448.872 303.725 447.208 304.557 445.606 305.474C445.606 305.841 445.483 306.221 445.434 306.551C445.337 307.175 445.227 307.774 445.104 308.41C444.86 309.805 444.578 311.187 444.248 312.557C443.631 315.22 442.851 317.843 441.912 320.41C441.92 320.427 441.925 320.446 441.925 320.465C441.925 320.484 441.92 320.503 441.912 320.52L441.826 320.606C441.826 320.679 441.679 320.605 441.691 320.52C442.315 317.853 443.037 315.199 443.624 312.508C443.918 311.175 444.211 309.829 444.48 308.483C444.615 307.811 444.737 307.138 444.872 306.465C444.872 306.269 444.933 306.061 444.957 305.854C443.134 306.937 441.37 308.117 439.673 309.389C436.752 311.574 434.045 314.032 431.588 316.728C431.49 316.838 431.294 316.728 431.392 316.569C432.397 315.199 433.475 313.884 434.621 312.63C435.306 311.896 436.016 311.187 436.737 310.49H436.517L434.597 310.771C433.374 310.942 432.089 311.064 430.829 311.211C430.719 311.162 430.719 310.991 430.78 310.979Z" fill="#263238"/>
<path d="M440.321 317.106C440.321 316.947 440.321 316.788 440.407 316.629C440.493 316.47 440.541 316.237 440.566 316.041C440.847 314.818 441.092 313.595 441.3 312.372C441.3 312.286 441.459 312.311 441.447 312.372C441.369 313.988 441.022 315.58 440.419 317.081H440.321V317.106Z" fill="#263238"/>
<path d="M451.685 316.814C451.688 316.794 451.698 316.775 451.714 316.761C451.729 316.748 451.75 316.741 451.77 316.741C452.149 315.138 452.516 313.536 452.847 311.934L453.36 309.389C453.446 308.937 453.532 308.472 453.605 308.019C453.642 307.599 453.741 307.187 453.899 306.796C453.905 306.78 453.916 306.767 453.93 306.757C453.944 306.747 453.961 306.742 453.978 306.742C453.995 306.742 454.012 306.747 454.026 306.757C454.04 306.767 454.051 306.78 454.058 306.796C454.067 307.624 453.952 308.449 453.715 309.242C453.544 310.123 453.373 311.004 453.177 311.885C452.786 313.658 452.345 315.432 451.844 317.193C451.837 317.212 451.824 317.228 451.808 317.24C451.791 317.251 451.772 317.257 451.752 317.257C451.732 317.257 451.712 317.251 451.696 317.24C451.68 317.228 451.667 317.212 451.66 317.193L451.685 316.814Z" fill="#263238"/>
<path d="M432.028 305.78C434.475 305.45 436.982 305.083 439.465 304.789C439.575 304.789 439.612 304.936 439.465 304.948C437.019 305.315 434.511 305.621 432.028 305.951C431.942 305.963 431.942 305.792 432.028 305.78Z" fill="#263238"/>
<path d="M474.681 256.019C474.681 256.019 482.987 219.58 443.844 204.84C443.844 204.84 432.994 252.802 474.681 256.019Z" fill="#004E9E"/>
<path d="M466.192 235.361L465.764 235.104C465.03 234.7 464.296 234.272 463.55 233.881L459.011 231.336C456.027 229.66 453.079 227.923 450.07 226.297C450.053 226.284 450.042 226.266 450.038 226.245C450.034 226.225 450.037 226.203 450.048 226.185C450.058 226.167 450.075 226.154 450.095 226.147C450.115 226.141 450.136 226.142 450.155 226.15C453.165 227.789 456.271 229.318 459.268 230.92L463.758 233.293L465.592 234.272C464.284 231.826 462.889 229.379 461.348 227.018C459.305 223.899 457.067 220.902 454.73 218.015C454.709 217.989 454.699 217.956 454.701 217.922C454.704 217.888 454.719 217.856 454.743 217.833C454.768 217.81 454.801 217.797 454.834 217.797C454.868 217.797 454.901 217.809 454.926 217.832C458.363 221.171 461.401 224.898 463.978 228.939C463.978 228.804 463.978 228.67 463.978 228.547C463.978 227.642 463.904 226.737 463.892 225.832C463.892 224.058 463.953 222.272 463.892 220.499C463.892 220.388 464.051 220.388 464.051 220.499C464.125 222.248 464.345 223.997 464.443 225.746C464.443 226.615 464.528 227.495 464.553 228.364C464.553 228.841 464.614 229.379 464.553 229.893C465.36 231.177 466.143 232.474 466.865 233.795C468.179 236.17 469.351 238.62 470.375 241.134C470.375 240.229 470.424 239.324 470.522 238.419C470.632 236.425 470.877 234.431 470.962 232.437C470.962 232.327 471.134 232.339 471.134 232.437C471.134 234.443 471.134 236.437 471.134 238.431C471.134 239.434 471.072 240.425 470.999 241.416C470.999 241.783 470.999 242.162 470.938 242.529C472.185 245.784 473.171 249.134 473.886 252.547C474.565 256.189 475.055 259.863 475.354 263.556C474.94 260.241 474.244 256.967 473.274 253.77C472.797 252.058 472.283 250.345 471.733 248.645C470.106 247.874 468.54 246.92 466.975 246.052L462.082 243.36C458.816 241.575 455.55 239.691 452.186 238.162C452.088 238.162 452.186 237.978 452.272 238.027C455.684 239.568 459.122 241.036 462.473 242.724C464.149 243.556 465.788 244.461 467.366 245.379C468.724 246.137 470.118 246.908 471.415 247.825C471.036 246.688 470.644 245.562 470.192 244.449C469.066 241.293 467.733 238.284 466.192 235.361Z" fill="#263238"/>
<path d="M469.532 227.028C469.532 226.918 469.715 226.918 469.703 227.028C469.556 229.107 469.495 231.187 469.275 233.254C469.275 233.376 469.079 233.376 469.091 233.254C469.165 231.175 469.385 229.107 469.532 227.028Z" fill="#263238"/>
<path d="M450.767 233.99C453.214 234.968 455.66 235.91 458.107 236.925C458.107 236.925 458.107 237.072 458.107 237.036C455.66 236.118 453.214 235.103 450.767 234.149C450.621 234.1 450.67 233.941 450.767 233.99Z" fill="#263238"/>
<path d="M447.049 217.184C449.443 218.284 451.767 219.53 454.009 220.914C454.031 220.929 454.047 220.952 454.053 220.978C454.059 221.005 454.054 221.032 454.039 221.055C454.025 221.078 454.002 221.094 453.975 221.1C453.949 221.105 453.921 221.1 453.899 221.086C451.623 219.765 449.311 218.492 446.951 217.318C446.853 217.33 446.951 217.135 447.049 217.184Z" fill="#263238"/>
<path d="M447.636 394.34H504.1V334.818H447.636V394.34Z" fill="#37474F"/>
<path d="M507.977 355.883H505.09V457.826H507.977V355.883Z" fill="#263238"/>
<path d="M446.939 355.883H444.052V457.826H446.939V355.883Z" fill="#263238"/>
<path d="M475.929 355.883H473.042V457.826H475.929V355.883Z" fill="#263238"/>
<path d="M445.507 398.77H506.546V390.525H445.507V398.77Z" fill="#263238"/>
<path d="M371.49 31.1289H171.886C166.483 31.1806 161.322 33.3756 157.537 37.2315C153.753 41.0874 151.654 46.2884 151.703 51.6911V462.557C151.654 467.96 153.753 473.161 157.537 477.016C161.322 480.872 166.483 483.067 171.886 483.119H371.49C376.895 483.067 382.059 480.873 385.847 477.018C389.636 473.163 391.74 467.962 391.698 462.557V51.6911C391.743 46.2852 389.64 41.0823 385.851 37.2265C382.062 33.3706 376.896 31.1774 371.49 31.1289ZM379.062 449.86C379.062 460.673 370.964 469.431 360.983 469.431H182.406C172.4 469.431 164.302 460.685 164.302 449.86V67.2627C164.302 45.2448 172.4 44.1561 182.406 44.1561H218.185C220.264 44.1561 221.964 46.517 221.964 49.4527V50.6759C221.964 57.5381 225.72 57.5626 230.319 57.5626H313.045C317.693 57.5626 321.424 57.5626 321.424 50.6759V49.4527C321.424 46.517 323.1 44.1561 325.216 44.1561H360.995C370.977 44.1561 379.074 47.0919 379.074 67.2627L379.062 449.86Z" fill="#263238"/>
<path d="M379.074 67.6042V450.189C379.074 461.002 370.976 469.761 360.995 469.761H182.405C172.399 469.761 164.302 461.015 164.302 450.189V67.6042C164.302 45.5863 172.399 44.4976 182.405 44.4976H218.184C220.264 44.4976 221.964 46.8584 221.964 49.7819V51.0051C221.964 57.8551 225.719 57.8796 230.319 57.8796H313.032C317.681 57.8796 321.412 57.8796 321.412 51.0051V49.7452C321.412 46.8217 323.087 44.4609 325.203 44.4609H360.995C370.976 44.4976 379.074 47.4211 379.074 67.6042Z" fill="white"/>
<path d="M282.978 49.0233H260.41C260.04 49.0233 259.686 48.8764 259.424 48.6149C259.163 48.3534 259.016 47.9987 259.016 47.6288C259.016 47.4457 259.052 47.2644 259.122 47.0952C259.192 46.926 259.295 46.7723 259.424 46.6428C259.554 46.5133 259.707 46.4106 259.876 46.3405C260.046 46.2704 260.227 46.2344 260.41 46.2344H282.978C283.162 46.2344 283.343 46.2704 283.512 46.3405C283.681 46.4106 283.835 46.5133 283.964 46.6428C284.094 46.7723 284.197 46.926 284.267 47.0952C284.337 47.2644 284.373 47.4457 284.373 47.6288C284.373 47.9987 284.226 48.3534 283.964 48.6149C283.703 48.8764 283.348 49.0233 282.978 49.0233Z" fill="white"/>
<path d="M212.02 52.7571L211.677 53.0996L211.482 53.2953C211.044 52.8571 210.525 52.5094 209.953 52.2721C209.381 52.0349 208.768 51.9128 208.148 51.9128C207.529 51.9128 206.916 52.0349 206.344 52.2721C205.772 52.5094 205.252 52.8571 204.815 53.2953L204.632 53.0996C204.511 52.9916 204.397 52.8773 204.289 52.7571L204.729 52.3779C205.039 52.1254 205.375 51.908 205.732 51.7296C206.159 51.5189 206.611 51.3667 207.078 51.277L207.751 51.1914H208.326H208.791C209.209 51.2399 209.619 51.3384 210.014 51.485C210.604 51.7067 211.154 52.025 211.641 52.4269L212.008 52.7571H212.02Z" fill="#A6A6A6"/>
<path d="M205.916 54.3849L205.365 53.8344C205.968 53.2332 206.749 52.8428 207.591 52.7213C208.196 52.6322 208.814 52.6866 209.394 52.8799C209.974 53.0733 210.5 53.4002 210.931 53.8344L210.38 54.3726C210.085 54.0658 209.729 53.8228 209.336 53.6587C208.942 53.4946 208.519 53.4128 208.093 53.4185C207.684 53.4251 207.28 53.514 206.906 53.68C206.532 53.8461 206.195 54.0858 205.916 54.3849Z" fill="#A6A6A6"/>
<path d="M209.83 54.9235L209.292 55.4739C209.142 55.3234 208.964 55.204 208.767 55.1225C208.571 55.041 208.361 54.999 208.148 54.999C207.936 54.999 207.725 55.041 207.529 55.1225C207.333 55.204 207.155 55.3234 207.005 55.4739L206.454 54.9357C206.908 54.5003 207.511 54.2562 208.14 54.2539C208.768 54.2516 209.374 54.4914 209.83 54.9235Z" fill="#A6A6A6"/>
<path d="M208.632 55.9619C208.632 56.0587 208.603 56.1533 208.549 56.2338C208.496 56.3142 208.419 56.377 208.33 56.414C208.24 56.451 208.142 56.4607 208.047 56.4418C207.952 56.4229 207.865 56.3764 207.797 56.3079C207.728 56.2395 207.682 56.1523 207.663 56.0574C207.644 55.9625 207.654 55.8641 207.691 55.7747C207.728 55.6853 207.79 55.6089 207.871 55.5551C207.951 55.5014 208.046 55.4727 208.143 55.4727C208.207 55.4727 208.27 55.4853 208.33 55.5099C208.389 55.5345 208.443 55.5705 208.489 55.616C208.534 55.6614 208.57 55.7153 208.595 55.7747C208.619 55.8341 208.632 55.8977 208.632 55.9619Z" fill="#A6A6A6"/>
<path d="M178.32 53.7944C178.32 53.5108 178.405 53.2336 178.562 52.998C178.72 52.7624 178.944 52.579 179.207 52.471C179.469 52.3631 179.757 52.3355 180.035 52.3917C180.313 52.4479 180.568 52.5854 180.768 52.7868C180.967 52.9882 181.103 53.2443 181.157 53.5228C181.21 53.8012 181.18 54.0893 181.07 54.3506C180.96 54.6119 180.775 54.8345 180.538 54.9903C180.301 55.1461 180.023 55.228 179.739 55.2256C179.552 55.2256 179.366 55.1885 179.193 55.1164C179.02 55.0443 178.864 54.9387 178.732 54.8056C178.6 54.6726 178.495 54.5147 178.425 54.3411C178.354 54.1676 178.319 53.9818 178.32 53.7944Z" fill="#A6A6A6"/>
<path d="M182.797 53.7944C182.797 53.5114 182.881 53.2347 183.038 52.9993C183.195 52.764 183.419 52.5805 183.68 52.4722C183.942 52.3639 184.23 52.3356 184.507 52.3908C184.785 52.446 185.04 52.5823 185.24 52.7825C185.44 52.9826 185.576 53.2376 185.632 53.5152C185.687 53.7929 185.659 54.0806 185.55 54.3421C185.442 54.6036 185.258 54.8272 185.023 54.9844C184.788 55.1417 184.511 55.2256 184.228 55.2256C183.848 55.2256 183.484 55.0748 183.216 54.8064C182.948 54.538 182.797 54.174 182.797 53.7944Z" fill="#A6A6A6"/>
<path d="M187.299 53.7944C187.299 53.5108 187.383 53.2336 187.541 52.998C187.699 52.7624 187.923 52.579 188.185 52.471C188.447 52.3631 188.736 52.3355 189.014 52.3917C189.292 52.4479 189.547 52.5854 189.746 52.7868C189.946 52.9882 190.081 53.2443 190.135 53.5228C190.189 53.8012 190.159 54.0893 190.049 54.3506C189.939 54.6119 189.753 54.8345 189.516 54.9903C189.279 55.1461 189.001 55.228 188.718 55.2256C188.53 55.2256 188.345 55.1885 188.172 55.1164C187.999 55.0443 187.842 54.9387 187.71 54.8056C187.578 54.6726 187.474 54.5147 187.403 54.3411C187.333 54.1676 187.297 53.9818 187.299 53.7944Z" fill="#A6A6A6"/>
<path d="M191.764 53.7944C191.764 53.5114 191.848 53.2347 192.005 52.9993C192.162 52.764 192.386 52.5805 192.647 52.4722C192.909 52.3639 193.196 52.3356 193.474 52.3908C193.752 52.446 194.007 52.5823 194.207 52.7825C194.407 52.9826 194.543 53.2376 194.599 53.5152C194.654 53.7929 194.625 54.0806 194.517 54.3421C194.409 54.6036 194.225 54.8272 193.99 54.9844C193.755 55.1417 193.478 55.2256 193.195 55.2256C193.007 55.2272 192.82 55.1913 192.645 55.12C192.471 55.0486 192.312 54.9433 192.179 54.8101C192.046 54.6768 191.941 54.5184 191.869 54.3441C191.798 54.1697 191.762 53.9828 191.764 53.7944Z" fill="#A6A6A6"/>
<path d="M196.252 53.7951C196.285 53.4399 196.45 53.1099 196.713 52.8696C196.977 52.6293 197.321 52.4961 197.677 52.4961C198.034 52.4961 198.378 52.6293 198.641 52.8696C198.905 53.1099 199.069 53.4399 199.102 53.7951C199.121 53.9933 199.098 54.1932 199.034 54.382C198.971 54.5707 198.869 54.7442 198.735 54.8914C198.601 55.0385 198.437 55.156 198.255 55.2365C198.073 55.3169 197.876 55.3584 197.677 55.3584C197.478 55.3584 197.281 55.3169 197.099 55.2365C196.917 55.156 196.754 55.0385 196.62 54.8914C196.485 54.7442 196.384 54.5707 196.32 54.382C196.257 54.1932 196.234 53.9933 196.252 53.7951Z" fill="#A6A6A6"/>
<path d="M362.964 56.9012H351.368V51.5312H362.964V56.9012ZM351.955 56.314H362.353V52.1918H351.955V56.314Z" fill="#A6A6A6"/>
<path d="M359.809 52.4492H352.335V55.9965H359.809V52.4492Z" fill="#A6A6A6"/>
<path d="M363.992 52.7812H362.965V55.6558H363.992V52.7812Z" fill="#A6A6A6"/>
<path d="M230.943 289.387H179.128V341.202H230.943V289.387Z" fill="#004E9E"/>
<path d="M223.677 304.994C223.677 299.917 220.484 296.639 215.457 296.59C208.501 296.517 201.541 296.517 194.576 296.59C193.485 296.539 192.395 296.717 191.377 297.113C190.358 297.508 189.434 298.113 188.663 298.887C187.893 299.661 187.292 300.588 186.901 301.608C186.51 302.628 186.337 303.719 186.393 304.81C186.393 308.284 186.393 311.758 186.393 315.232C186.393 318.706 186.393 322.033 186.393 325.434C186.393 330.62 189.598 333.935 194.735 333.996C201.61 334.07 208.509 334.082 215.383 333.996C220.423 333.996 223.652 330.632 223.677 325.617C223.713 318.743 223.701 311.856 223.677 304.994ZM220.325 325.666C220.325 328.871 218.564 330.657 215.347 330.669C208.464 330.718 201.581 330.718 194.699 330.669C191.469 330.669 189.732 328.883 189.708 325.69C189.708 318.743 189.708 311.811 189.708 304.896C189.708 301.715 191.506 299.881 194.674 299.868C201.557 299.82 208.444 299.82 215.334 299.868C218.515 299.868 220.288 301.703 220.325 304.871C220.325 308.345 220.325 311.819 220.325 315.293C220.325 318.767 220.386 322.192 220.325 325.666Z" fill="white"/>
<path d="M205.059 305.508C203.124 305.487 201.225 306.04 199.603 307.097C197.982 308.155 196.711 309.67 195.95 311.45C195.19 313.231 194.975 315.196 195.332 317.099C195.689 319.002 196.603 320.756 197.957 322.139C199.311 323.522 201.045 324.473 202.94 324.871C204.835 325.268 206.805 325.095 208.601 324.373C210.397 323.65 211.939 322.412 213.03 320.813C214.122 319.214 214.716 317.328 214.735 315.392C214.761 312.799 213.757 310.301 211.943 308.448C210.128 306.595 207.653 305.537 205.059 305.508ZM204.937 321.74C203.252 321.694 201.649 321.001 200.461 319.806C199.272 318.61 198.589 317.004 198.552 315.319C198.624 313.646 199.34 312.067 200.549 310.909C201.758 309.751 203.367 309.105 205.041 309.105C206.715 309.105 208.324 309.751 209.533 310.909C210.742 312.067 211.458 313.646 211.53 315.319C211.489 317.038 210.775 318.674 209.543 319.874C208.311 321.074 206.657 321.744 204.937 321.74Z" fill="white"/>
<path d="M217.695 305.274C217.698 305.567 217.638 305.857 217.518 306.124C217.398 306.391 217.221 306.629 217 306.821C216.779 307.013 216.519 307.155 216.237 307.236C215.956 307.318 215.66 307.337 215.371 307.292C215.059 307.31 214.747 307.255 214.46 307.134C214.172 307.012 213.916 306.825 213.712 306.589C213.507 306.353 213.36 306.073 213.281 305.771C213.201 305.468 213.193 305.152 213.255 304.846C213.265 304.553 213.335 304.266 213.461 304.001C213.586 303.736 213.764 303.5 213.984 303.306C214.204 303.113 214.461 302.966 214.739 302.876C215.018 302.785 215.312 302.752 215.603 302.779C215.911 302.787 216.213 302.861 216.49 302.995C216.767 303.129 217.012 303.321 217.21 303.556C217.407 303.792 217.553 304.067 217.637 304.363C217.72 304.659 217.74 304.97 217.695 305.274Z" fill="white"/>
<path d="M230.943 156.055H179.128V207.87H230.943V156.055Z" fill="#263238"/>
<path d="M221.072 185.096C220.672 184.855 220.346 184.508 220.13 184.093C219.915 183.679 219.817 183.214 219.848 182.748C219.848 182.491 219.848 182.222 219.848 181.965C219.848 181.708 219.848 181.439 219.848 181.182C219.817 180.717 219.914 180.253 220.13 179.841C220.346 179.428 220.672 179.084 221.072 178.845L223.897 177.206L218.589 168.02L215.775 169.647C215.367 169.878 214.903 169.991 214.434 169.974C213.965 169.957 213.511 169.81 213.121 169.549C212.68 169.258 212.222 168.992 211.751 168.754C211.334 168.546 210.983 168.227 210.737 167.832C210.491 167.437 210.359 166.981 210.356 166.515V163.262H199.739V166.515C199.736 166.981 199.604 167.437 199.358 167.832C199.112 168.227 198.761 168.546 198.344 168.754C197.873 168.992 197.415 169.258 196.974 169.549C196.584 169.81 196.13 169.957 195.661 169.974C195.192 169.991 194.728 169.878 194.32 169.647L191.507 168.02L186.198 177.206L189.036 178.845C189.435 179.084 189.761 179.428 189.977 179.841C190.193 180.253 190.291 180.717 190.259 181.182C190.259 181.439 190.259 181.708 190.259 181.965C190.259 182.222 190.259 182.491 190.259 182.748C190.292 183.212 190.195 183.677 189.979 184.089C189.763 184.502 189.436 184.846 189.036 185.084L186.186 186.747L191.494 195.934L194.308 194.307C194.713 194.075 195.176 193.962 195.643 193.979C196.11 193.997 196.562 194.144 196.95 194.405C197.39 194.686 197.855 194.955 198.332 195.2C198.749 195.408 199.099 195.727 199.346 196.122C199.592 196.517 199.724 196.973 199.727 197.438V200.692H210.344V197.438C210.347 196.973 210.479 196.517 210.725 196.122C210.971 195.727 211.322 195.408 211.739 195.2C212.216 194.955 212.68 194.686 213.121 194.405C213.508 194.144 213.961 193.997 214.428 193.979C214.895 193.962 215.357 194.075 215.763 194.307L218.576 195.934L223.885 186.747L221.072 185.096ZM205.035 190.662C203.315 190.662 201.634 190.152 200.203 189.196C198.773 188.24 197.659 186.882 197 185.293C196.342 183.704 196.17 181.955 196.505 180.268C196.841 178.581 197.669 177.031 198.886 175.815C200.102 174.599 201.652 173.77 203.339 173.435C205.026 173.099 206.774 173.271 208.364 173.93C209.953 174.588 211.311 175.703 212.267 177.133C213.222 178.563 213.732 180.245 213.732 181.965C213.732 183.107 213.507 184.238 213.07 185.293C212.633 186.348 211.993 187.307 211.185 188.114C210.377 188.922 209.419 189.563 208.364 190C207.308 190.437 206.177 190.662 205.035 190.662Z" fill="white"/>
<path d="M211.078 181.965C211.078 183.16 210.723 184.328 210.059 185.322C209.395 186.315 208.451 187.09 207.347 187.547C206.243 188.005 205.028 188.124 203.856 187.891C202.684 187.658 201.607 187.082 200.762 186.237C199.917 185.392 199.341 184.316 199.108 183.143C198.875 181.971 198.995 180.756 199.452 179.652C199.91 178.548 200.684 177.604 201.678 176.94C202.671 176.276 203.84 175.922 205.035 175.922C206.637 175.922 208.174 176.559 209.308 177.692C210.441 178.825 211.078 180.362 211.078 181.965Z" fill="white"/>
<path d="M230.943 89.3789H179.128V141.194H230.943V89.3789Z" fill="#004E9E"/>
<path d="M213.622 106.734C213.622 108.428 213.12 110.083 212.179 111.491C211.238 112.9 209.901 113.997 208.336 114.645C206.772 115.293 205.05 115.463 203.389 115.132C201.728 114.802 200.202 113.986 199.005 112.789C197.807 111.592 196.992 110.066 196.662 108.405C196.331 106.744 196.501 105.022 197.149 103.458C197.797 101.893 198.894 100.556 200.303 99.6149C201.711 98.6741 203.366 98.1719 205.06 98.1719C207.33 98.1719 209.508 99.074 211.114 100.68C212.72 102.286 213.622 104.463 213.622 106.734Z" fill="white"/>
<path d="M202.834 116.031H207.25C210.377 116.031 213.376 117.274 215.588 119.485C217.799 121.696 219.041 124.696 219.041 127.823V132.435H191.042V127.823C191.042 124.696 192.284 121.696 194.496 119.485C196.707 117.274 199.706 116.031 202.834 116.031Z" fill="white"/>
<path d="M230.943 222.734H179.128V274.55H230.943V222.734Z" fill="#455A64"/>
<path d="M221.158 239.98H188.901V262.096H221.158V239.98Z" fill="white"/>
<path d="M200.338 235.188H190.773L188.901 239.236H202.198L200.338 235.188Z" fill="white"/>
<path d="M364.261 222.734H312.47V274.525H364.261V222.734Z" fill="#004E9E"/>
<path d="M338.365 267.639C348.863 267.639 357.374 259.128 357.374 248.63C357.374 238.132 348.863 229.621 338.365 229.621C327.867 229.621 319.356 238.132 319.356 248.63C319.356 259.128 327.867 267.639 338.365 267.639Z" fill="#455A64"/>
<path d="M354.634 258.636C359.927 250.129 357.321 238.943 348.815 233.65C340.309 228.357 329.122 230.962 323.829 239.469C318.537 247.975 321.142 259.162 329.648 264.454C338.155 269.747 349.341 267.142 354.634 258.636Z" fill="#263238"/>
<path d="M339.235 266.036C348.618 266.036 356.225 258.429 356.225 249.045C356.225 239.662 348.618 232.055 339.235 232.055C329.851 232.055 322.244 239.662 322.244 249.045C322.244 258.429 329.851 266.036 339.235 266.036Z" fill="white"/>
<path d="M339.405 233.289H339.075V235.87H339.405V233.289Z" fill="#C7C7C7"/>
<path d="M331.49 235.315L331.204 235.48L332.495 237.716L332.781 237.551L331.49 235.315Z" fill="#C7C7C7"/>
<path d="M326.775 239.556L326.61 239.844L328.856 241.134L329.021 240.847L326.775 239.556Z" fill="#C7C7C7"/>
<path d="M326.06 248.887H323.479V249.217H326.06V248.887Z" fill="#C7C7C7"/>
<path d="M327.735 255.538L325.5 256.828L325.665 257.114L327.9 255.824L327.735 255.538Z" fill="#C7C7C7"/>
<path d="M332.494 260.373L331.206 262.609L331.492 262.774L332.78 260.537L332.494 260.373Z" fill="#C7C7C7"/>
<path d="M339.405 262.23H339.075V264.811H339.405V262.23Z" fill="#C7C7C7"/>
<path d="M345.967 260.401L345.681 260.566L346.971 262.802L347.257 262.636L345.967 260.401Z" fill="#C7C7C7"/>
<path d="M350.759 255.534L350.594 255.82L352.829 257.111L352.994 256.825L350.759 255.534Z" fill="#C7C7C7"/>
<path d="M355.001 248.887H352.42V249.217H355.001V248.887Z" fill="#C7C7C7"/>
<path d="M352.808 241.054L350.572 242.344L350.737 242.63L352.973 241.34L352.808 241.054Z" fill="#C7C7C7"/>
<path d="M346.978 235.303L345.688 237.539L345.975 237.704L347.264 235.468L346.978 235.303Z" fill="#C7C7C7"/>
<path d="M339.479 234.453L340.041 250.196L338.427 250.171L339.051 234.453H339.479Z" fill="#004E9E"/>
<path d="M349.288 243.551L338.695 250.315L337.925 248.897L349.081 243.172L349.288 243.551Z" fill="#A6A6A6"/>
<path d="M339.784 249.047C339.784 249.155 339.752 249.262 339.692 249.352C339.631 249.443 339.545 249.513 339.445 249.555C339.344 249.597 339.233 249.608 339.127 249.586C339.02 249.565 338.922 249.513 338.845 249.436C338.768 249.359 338.715 249.261 338.694 249.154C338.673 249.047 338.684 248.936 338.725 248.836C338.767 248.735 338.838 248.649 338.928 248.589C339.019 248.528 339.125 248.496 339.234 248.496C339.38 248.496 339.52 248.554 339.623 248.657C339.726 248.761 339.784 248.901 339.784 249.047Z" fill="#C7C7C7"/>
<path d="M297.596 156.055H245.78V207.87H297.596V156.055Z" fill="#004E9E"/>
<path d="M290.501 198.267H252.875V165.656H290.501V198.267ZM255.321 195.821H288.055V168.103H255.321V195.821Z" fill="white"/>
<path d="M254.099 197.047L264.312 187.273L273.56 197.047H254.099Z" fill="white"/>
<path d="M267.211 197.045L279.333 181.73L289.278 197.045H267.211Z" fill="white"/>
<path d="M267.444 180.826C267.444 181.552 267.229 182.262 266.825 182.865C266.422 183.469 265.849 183.939 265.178 184.217C264.508 184.494 263.77 184.567 263.058 184.426C262.346 184.284 261.693 183.934 261.179 183.421C260.666 182.908 260.317 182.254 260.175 181.542C260.033 180.83 260.106 180.093 260.384 179.422C260.662 178.752 261.132 178.178 261.735 177.775C262.339 177.372 263.048 177.157 263.774 177.157C264.258 177.148 264.739 177.238 265.188 177.419C265.637 177.601 266.045 177.871 266.387 178.213C266.73 178.556 267 178.963 267.181 179.412C267.363 179.861 267.452 180.342 267.444 180.826Z" fill="white"/>
<path d="M230.943 355.328H179.128V407.143H230.943V355.328Z" fill="#455A64"/>
<path d="M188.718 391.844C192.134 391.993 195.496 390.956 198.234 388.909C194.296 387.685 192.73 386.462 192.118 384.273L194.76 384.138C193.307 383.704 192.025 382.825 191.097 381.625C190.169 380.425 189.641 378.963 189.586 377.447L192.314 378.169C189.452 374.585 188.877 371.796 190.577 369.203C192.306 371.258 194.437 372.938 196.84 374.139C199.242 375.34 201.865 376.037 204.546 376.187C204.546 375.747 204.546 375.404 204.546 375.074C204.419 373.742 204.712 372.403 205.383 371.245C206.054 370.087 207.07 369.168 208.289 368.615C209.467 367.984 210.81 367.731 212.137 367.89C213.463 368.05 214.708 368.615 215.702 369.508C215.893 369.705 216.138 369.84 216.407 369.894C216.675 369.949 216.954 369.921 217.206 369.814L220.497 368.591C220.012 369.95 219.103 371.116 217.904 371.918L217.977 372.114L221.243 371.27L221.378 371.404C220.534 372.248 219.726 373.141 218.833 373.936C218.607 374.104 218.424 374.324 218.3 374.577C218.176 374.831 218.116 375.11 218.124 375.392C218.159 380.182 216.392 384.809 213.175 388.358C209.958 391.906 205.524 394.115 200.754 394.548C196.827 394.954 192.87 394.147 189.415 392.236L188.718 391.844Z" fill="white"/>
<path d="M364.273 355.328H312.458V407.143H364.273V355.328Z" fill="#455A64"/>
<path d="M352.494 368.551H324.299C323.138 368.551 322.024 369.013 321.203 369.834C320.381 370.655 319.92 371.769 319.92 372.93V389.542C319.92 390.116 320.033 390.685 320.253 391.216C320.474 391.746 320.796 392.228 321.203 392.634C321.61 393.039 322.093 393.361 322.624 393.58C323.155 393.798 323.725 393.91 324.299 393.908H352.555C353.13 393.91 353.699 393.798 354.23 393.58C354.761 393.361 355.244 393.039 355.651 392.634C356.058 392.228 356.381 391.746 356.601 391.216C356.821 390.685 356.934 390.116 356.934 389.542V372.93C356.934 372.35 356.819 371.776 356.595 371.24C356.371 370.705 356.043 370.219 355.63 369.812C355.217 369.405 354.727 369.083 354.189 368.867C353.65 368.65 353.074 368.543 352.494 368.551ZM332.299 386.728V375.719L346.158 381.224L332.299 386.728Z" fill="white"/>
<path d="M297.608 355.328H245.793V407.143H297.608V355.328Z" fill="#004E9E"/>
<path d="M271.701 394.839C281.064 394.839 288.655 388.261 288.655 380.148C288.655 372.034 281.064 365.457 271.701 365.457C262.338 365.457 254.747 372.034 254.747 380.148C254.747 388.261 262.338 394.839 271.701 394.839Z" fill="white"/>
<path d="M259.419 388.465L256.373 397.003L267.15 393.651L259.419 388.465Z" fill="white"/>
<path d="M364.273 156.055H312.458V207.87H364.273V156.055Z" fill="#455A64"/>
<path d="M332.494 198.979C332.494 200.075 332.169 201.147 331.56 202.058C330.95 202.97 330.084 203.68 329.071 204.099C328.058 204.518 326.943 204.627 325.868 204.412C324.793 204.198 323.805 203.669 323.031 202.893C322.256 202.116 321.73 201.128 321.517 200.052C321.305 198.976 321.416 197.862 321.837 196.85C322.259 195.837 322.971 194.973 323.884 194.365C324.797 193.758 325.869 193.435 326.965 193.438C328.433 193.441 329.839 194.026 330.876 195.065C331.912 196.104 332.494 197.511 332.494 198.979Z" fill="white"/>
<path d="M332.494 171.113H328.262V198.941H332.494V171.113Z" fill="white"/>
<path d="M350.414 190.943C350.417 192.039 350.094 193.112 349.486 194.025C348.879 194.938 348.014 195.65 347.002 196.071C345.99 196.492 344.875 196.604 343.8 196.391C342.724 196.179 341.736 195.652 340.959 194.878C340.183 194.103 339.654 193.116 339.439 192.041C339.225 190.966 339.334 189.851 339.753 188.838C340.172 187.824 340.882 186.958 341.793 186.349C342.705 185.739 343.777 185.414 344.873 185.414C346.341 185.414 347.748 185.996 348.787 187.033C349.826 188.069 350.411 189.475 350.414 190.943Z" fill="white"/>
<path d="M350.414 163.051H346.182V190.879H350.414V163.051Z" fill="white"/>
<path d="M350.414 163.113L328.262 174.831V171.113L350.414 159.395V163.113Z" fill="white"/>
<path d="M350.414 170.121L328.262 181.839V178.121L350.414 166.402V170.121Z" fill="white"/>
<path d="M297.596 89.3789H245.78V141.194H297.596V89.3789Z" fill="#455A64"/>
<path d="M301.694 145.292H241.683V85.2812H301.694V145.292ZM242.906 144.069H300.47V86.5045H242.906V144.069Z" fill="#455A64"/>
<path d="M290.562 105.965H252.802V129.047H290.562V105.965Z" fill="white"/>
<path d="M281.07 105.964H262.306L264.165 101.523H279.211L281.07 105.964Z" fill="white"/>
<path d="M280.446 117.5C280.446 119.233 279.932 120.926 278.97 122.366C278.008 123.807 276.64 124.929 275.04 125.592C273.439 126.255 271.678 126.428 269.979 126.09C268.28 125.752 266.72 124.918 265.495 123.693C264.27 122.469 263.436 120.908 263.098 119.209C262.76 117.51 262.933 115.749 263.596 114.149C264.259 112.548 265.382 111.181 266.822 110.218C268.262 109.256 269.956 108.742 271.688 108.742C272.839 108.741 273.978 108.966 275.041 109.406C276.105 109.845 277.071 110.49 277.884 111.304C278.698 112.117 279.343 113.084 279.783 114.147C280.222 115.21 280.448 116.35 280.446 117.5Z" fill="#455A64"/>
<path d="M278.489 117.5C278.489 118.845 278.09 120.16 277.343 121.279C276.595 122.397 275.533 123.269 274.29 123.784C273.048 124.298 271.68 124.433 270.361 124.171C269.042 123.908 267.83 123.261 266.879 122.309C265.928 121.358 265.28 120.146 265.017 118.827C264.755 117.508 264.89 116.14 265.404 114.898C265.919 113.655 266.791 112.593 267.909 111.845C269.028 111.098 270.343 110.699 271.688 110.699C273.492 110.699 275.221 111.416 276.497 112.691C277.772 113.967 278.489 115.697 278.489 117.5Z" fill="white"/>
<path d="M288.349 107.922H284.716V110.014H288.349V107.922Z" fill="#455A64"/>
<path d="M257.67 104.254H254.074V105.294H257.67V104.254Z" fill="white"/>
<path d="M364.273 89.3789H312.458V141.194H364.273V89.3789Z" fill="#004E9E"/>
<path d="M356.824 103.578H319.907V126.99H356.824V103.578Z" fill="white"/>
<path d="M356.824 103.566C355.332 104.998 353.815 106.355 352.31 107.762C350.806 109.169 349.277 110.514 347.76 111.872L342.965 116.08C342.923 116.128 342.878 116.173 342.83 116.214L338.573 119.884L338.366 120.055L338.158 119.884L333.913 116.214L333.766 116.08C332.135 114.685 330.537 113.279 328.971 111.86C327.454 110.514 325.938 109.132 324.421 107.762C322.904 106.392 321.4 104.998 319.907 103.566C321.497 104.79 323.051 106.013 324.617 107.322C326.182 108.631 327.748 109.878 329.302 111.175C330.855 112.471 332.763 114.062 334.488 115.529L338.366 118.82L342.243 115.529C343.964 114.062 345.693 112.606 347.43 111.163C348.979 109.882 350.537 108.602 352.102 107.322C353.656 106.086 355.234 104.79 356.824 103.566Z" fill="#004E9E"/>
<path d="M334.537 116.082C334.353 116.253 334.157 116.412 333.962 116.571C333.032 117.354 332.09 118.113 331.124 118.834C329.901 119.727 328.677 120.596 327.54 121.44C326.402 122.284 325.093 123.116 323.87 123.886C322.647 124.657 321.363 125.464 320.054 126.186C321.179 125.195 322.341 124.29 323.515 123.397C324.69 122.504 325.901 121.635 327.099 120.779C328.298 119.923 329.546 119.103 330.769 118.333C331.76 117.697 332.763 117.11 333.803 116.486C334.035 116.339 334.28 116.217 334.524 116.082H334.537Z" fill="#004E9E"/>
<path d="M356.739 126.244C355.43 125.523 354.17 124.74 352.922 123.945C351.675 123.15 350.476 122.318 349.253 121.498C348.029 120.679 346.806 119.786 345.669 118.893C344.702 118.171 343.76 117.425 342.843 116.642C342.635 116.471 342.439 116.312 342.256 116.141C342.501 116.287 342.745 116.41 342.978 116.557C344.017 117.144 345.02 117.78 346.011 118.404C347.234 119.199 348.458 120.03 349.681 120.85C350.904 121.67 352.127 122.563 353.265 123.468C354.402 124.373 355.613 125.254 356.739 126.244Z" fill="#004E9E"/>
<path d="M297.596 222.734H245.78V274.55H297.596V222.734Z" fill="#263238"/>
<path d="M287.688 244.395C287.688 246.088 287.185 247.744 286.244 249.152C285.304 250.56 283.966 251.657 282.402 252.305C280.837 252.953 279.116 253.123 277.455 252.793C275.794 252.462 274.268 251.647 273.07 250.449C271.873 249.252 271.057 247.726 270.727 246.065C270.397 244.404 270.566 242.682 271.214 241.118C271.862 239.553 272.96 238.216 274.368 237.275C275.776 236.334 277.432 235.832 279.125 235.832C281.396 235.832 283.574 236.734 285.18 238.34C286.785 239.946 287.688 242.124 287.688 244.395Z" fill="#004E9E"/>
<path d="M279.822 232.64C279.822 233.716 279.529 234.585 279.174 234.585C278.819 234.585 278.538 233.716 278.538 232.64C278.538 231.563 278.819 230.707 279.174 230.707C279.529 230.707 279.822 231.576 279.822 232.64Z" fill="#004E9E"/>
<path d="M273.853 233.903C274.392 234.832 274.575 235.725 274.269 235.896C273.963 236.068 273.278 235.468 272.752 234.539C272.226 233.609 272.031 232.716 272.337 232.545C272.642 232.374 273.327 232.973 273.853 233.903Z" fill="#004E9E"/>
<path d="M269.327 237.963C270.245 238.502 270.856 239.187 270.685 239.492C270.514 239.798 269.609 239.615 268.679 239.076C267.749 238.538 267.15 237.853 267.321 237.547C267.492 237.242 268.398 237.437 269.327 237.963Z" fill="#004E9E"/>
<path d="M267.432 245.034C268.499 245.034 269.364 244.749 269.364 244.398C269.364 244.047 268.499 243.762 267.432 243.762C266.364 243.762 265.499 244.047 265.499 244.398C265.499 244.749 266.364 245.034 267.432 245.034Z" fill="#004E9E"/>
<path d="M268.679 249.716C269.609 249.178 270.501 248.994 270.685 249.3C270.868 249.606 270.245 250.291 269.327 250.817C268.41 251.343 267.505 251.539 267.321 251.233C267.138 250.927 267.761 250.242 268.679 249.716Z" fill="#004E9E"/>
<path d="M272.753 254.245C273.279 253.328 273.976 252.716 274.269 252.9C274.563 253.083 274.392 253.964 273.853 254.894C273.315 255.823 272.63 256.423 272.337 256.251C272.043 256.08 272.214 255.175 272.753 254.245Z" fill="#004E9E"/>
<path d="M279.174 258.072C279.525 258.072 279.81 257.207 279.81 256.14C279.81 255.072 279.525 254.207 279.174 254.207C278.823 254.207 278.538 255.072 278.538 256.14C278.538 257.207 278.823 258.072 279.174 258.072Z" fill="#004E9E"/>
<path d="M284.495 254.89C283.957 253.961 283.774 253.068 284.079 252.896C284.385 252.725 285.07 253.324 285.608 254.242C286.147 255.159 286.33 256.065 286.024 256.248C285.718 256.431 285.033 255.82 284.495 254.89Z" fill="#004E9E"/>
<path d="M289.033 250.819C288.103 250.293 287.492 249.596 287.675 249.302C287.859 249.009 288.739 249.18 289.669 249.718C290.599 250.257 291.21 250.942 291.027 251.235C290.843 251.529 289.963 251.357 289.033 250.819Z" fill="#004E9E"/>
<path d="M290.93 245.034C291.997 245.034 292.862 244.749 292.862 244.398C292.862 244.047 291.997 243.762 290.93 243.762C289.862 243.762 288.997 244.047 288.997 244.398C288.997 244.749 289.862 245.034 290.93 245.034Z" fill="#004E9E"/>
<path d="M289.67 239.075C288.74 239.613 287.847 239.797 287.676 239.491C287.504 239.185 288.104 238.5 289.033 237.962C289.963 237.424 290.856 237.24 291.027 237.546C291.199 237.852 290.599 238.537 289.67 239.075Z" fill="#004E9E"/>
<path d="M285.608 234.539C285.07 235.468 284.385 236.08 284.079 235.896C283.774 235.713 283.957 234.832 284.495 233.903C285.033 232.973 285.718 232.374 286.024 232.545C286.33 232.716 286.147 233.621 285.608 234.539Z" fill="#004E9E"/>
<path d="M290.281 261.449C290.279 262.741 289.79 263.984 288.913 264.931C288.036 265.879 286.834 266.461 285.547 266.563H256.532C254.981 266.568 253.488 265.974 252.364 264.906C251.24 263.837 250.572 262.375 250.5 260.826C250.427 259.277 250.956 257.759 251.975 256.59C252.994 255.421 254.425 254.69 255.97 254.551C256.041 252.196 256.931 249.94 258.485 248.17C260.039 246.399 262.16 245.225 264.486 244.849C266.811 244.473 269.195 244.918 271.228 246.108C273.261 247.298 274.816 249.158 275.627 251.37C276.516 250.926 277.502 250.708 278.496 250.738C279.49 250.768 280.462 251.043 281.323 251.54C282.185 252.037 282.91 252.74 283.433 253.585C283.957 254.431 284.263 255.393 284.324 256.385C284.598 256.336 284.877 256.312 285.156 256.312C285.83 256.312 286.497 256.445 287.12 256.703C287.742 256.962 288.308 257.34 288.784 257.817C289.26 258.295 289.637 258.861 289.894 259.484C290.151 260.108 290.282 260.775 290.281 261.449Z" fill="white"/>
<path d="M257.401 445.983C257.401 446.603 257.217 447.209 256.872 447.724C256.527 448.239 256.038 448.641 255.465 448.877C254.892 449.114 254.261 449.175 253.654 449.053C253.046 448.932 252.488 448.632 252.051 448.193C251.613 447.754 251.316 447.195 251.196 446.586C251.077 445.978 251.141 445.348 251.38 444.776C251.618 444.204 252.022 443.716 252.538 443.373C253.055 443.031 253.661 442.849 254.281 442.852C254.692 442.852 255.099 442.933 255.478 443.09C255.857 443.248 256.201 443.479 256.491 443.77C256.781 444.06 257.011 444.406 257.167 444.786C257.323 445.165 257.402 445.572 257.401 445.983Z" fill="#DBDBDB"/>
<path d="M271.701 450.718C274.315 450.718 276.434 448.598 276.434 445.984C276.434 443.369 274.315 441.25 271.701 441.25C269.086 441.25 266.967 443.369 266.967 445.984C266.967 448.598 269.086 450.718 271.701 450.718Z" fill="#004E9E"/>
<path d="M292.25 445.983C292.25 446.602 292.067 447.208 291.722 447.723C291.378 448.238 290.889 448.639 290.317 448.876C289.745 449.113 289.115 449.175 288.508 449.054C287.9 448.933 287.342 448.635 286.904 448.197C286.467 447.759 286.168 447.201 286.047 446.594C285.927 445.986 285.989 445.357 286.226 444.785C286.463 444.212 286.864 443.723 287.379 443.379C287.894 443.035 288.499 442.852 289.119 442.852C289.949 442.852 290.746 443.181 291.333 443.769C291.92 444.356 292.25 445.152 292.25 445.983Z" fill="#DBDBDB"/>
<path d="M297.608 289.387H245.793V341.202H297.608V289.387Z" fill="#37474F"/>
<path d="M263.994 320.898H257.083V312.959H263.86C263.86 312.36 263.933 311.883 263.933 311.418C263.933 309.339 263.933 307.235 264.092 305.168C264.52 300.617 267.321 297.4 271.823 296.776C274.701 296.566 277.59 296.545 280.471 296.715V303.932C279.419 303.932 278.379 303.932 277.339 303.932C276.41 303.907 275.481 303.968 274.563 304.116C273.958 304.21 273.406 304.515 273.004 304.975C272.601 305.436 272.374 306.024 272.361 306.635C272.275 308.654 272.361 310.684 272.361 312.886H280.263C279.933 315.479 279.651 317.889 279.272 320.287C279.272 320.519 278.636 320.812 278.294 320.825C276.398 320.825 274.489 320.825 272.434 320.825V341.179H263.994V320.898Z" fill="white"/>
<path d="M302.598 292.323C302.601 293.867 302.145 295.377 301.289 296.662C300.433 297.947 299.215 298.949 297.789 299.542C296.364 300.134 294.794 300.291 293.279 299.991C291.765 299.691 290.373 298.949 289.28 297.858C288.188 296.767 287.443 295.377 287.141 293.862C286.839 292.348 286.993 290.778 287.583 289.352C288.173 287.925 289.174 286.705 290.457 285.847C291.741 284.989 293.25 284.531 294.794 284.531C296.862 284.531 298.845 285.352 300.308 286.813C301.772 288.274 302.595 290.255 302.598 292.323Z" fill="#004E9E"/>
<path d="M297.682 295.979C297.684 296.067 297.667 296.156 297.634 296.238C297.601 296.32 297.551 296.395 297.489 296.458C297.426 296.521 297.351 296.57 297.269 296.604C297.186 296.637 297.098 296.653 297.009 296.651H292.606C292.458 296.663 292.311 296.628 292.186 296.55C292.061 296.471 291.965 296.355 291.911 296.218C291.857 296.08 291.85 295.929 291.889 295.787C291.928 295.645 292.012 295.519 292.128 295.428L295.798 292.113C295.969 291.96 296.104 291.771 296.193 291.56C296.282 291.348 296.323 291.119 296.312 290.89C296.312 290.494 296.168 290.112 295.908 289.814C295.753 289.645 295.564 289.512 295.353 289.423C295.142 289.334 294.914 289.292 294.685 289.3C294.289 289.298 293.906 289.441 293.609 289.704L293.217 290.058C293.08 290.154 292.912 290.196 292.746 290.176C292.579 290.157 292.426 290.077 292.314 289.952C292.203 289.827 292.141 289.665 292.141 289.498C292.14 289.33 292.201 289.169 292.312 289.043L292.691 288.688C293.237 288.193 293.949 287.922 294.685 287.93C295.099 287.932 295.507 288.018 295.886 288.185C296.265 288.351 296.605 288.593 296.887 288.896C297.411 289.483 297.681 290.254 297.64 291.039C297.599 291.825 297.249 292.563 296.667 293.092L294.33 295.208H296.972C297.073 295.201 297.173 295.217 297.266 295.255C297.36 295.292 297.443 295.35 297.511 295.424C297.579 295.498 297.63 295.586 297.66 295.682C297.689 295.778 297.697 295.879 297.682 295.979Z" fill="white"/>
<path d="M364.273 289.387H312.458V341.202H364.273V289.387Z" fill="#263238"/>
<path d="M321.143 332.382C321.877 329.727 322.537 327.256 323.271 324.81C323.389 324.452 323.432 324.074 323.396 323.699C323.36 323.325 323.247 322.961 323.063 322.633C321.926 320.3 321.334 317.741 321.332 315.146C321.329 312.552 321.916 309.991 323.048 307.656C324.18 305.322 325.828 303.275 327.867 301.671C329.906 300.066 332.282 298.946 334.818 298.395C337.353 297.844 339.98 297.876 342.501 298.488C345.022 299.101 347.371 300.279 349.37 301.932C351.37 303.586 352.967 305.672 354.042 308.033C355.117 310.394 355.642 312.969 355.576 315.562C355.393 319.819 353.639 323.857 350.652 326.896C347.665 329.935 343.658 331.758 339.405 332.015C336.497 332.164 333.596 331.619 330.941 330.424C330.424 330.215 329.857 330.168 329.314 330.29C326.659 330.926 324.017 331.635 321.143 332.382ZM325.289 328.357C326.977 327.929 328.396 327.513 329.852 327.207C330.361 327.112 330.888 327.18 331.356 327.403C333.478 328.538 335.838 329.154 338.243 329.201C347.038 329.348 354.145 321.189 352.457 312.614C352.054 309.875 350.808 307.329 348.892 305.33C346.976 303.331 344.486 301.978 341.766 301.459C339.028 300.715 336.125 300.85 333.467 301.845C330.81 302.839 328.531 304.642 326.953 307C323.381 311.893 323.283 317.128 326.207 322.437C326.452 322.959 326.525 323.546 326.415 324.113C326.133 325.483 325.705 326.828 325.289 328.357Z" fill="white"/>
<path d="M330.94 308.284C332.102 306.718 333.656 307.061 334.475 308.749C334.793 309.421 334.867 309.654 335.173 310.424C335.434 310.854 335.53 311.365 335.442 311.86C335.354 312.355 335.089 312.802 334.696 313.115C334.567 313.207 334.46 313.326 334.382 313.464C334.305 313.602 334.259 313.755 334.247 313.912C334.235 314.07 334.258 314.228 334.315 314.376C334.371 314.524 334.459 314.657 334.573 314.767C335.841 316.693 337.638 318.214 339.747 319.146C340.003 319.308 340.311 319.362 340.607 319.298C340.902 319.234 341.16 319.056 341.325 318.803C342.818 317.005 342.842 317.03 344.995 318.021L345.729 318.375C346.088 318.482 346.409 318.689 346.655 318.971C346.901 319.253 347.062 319.599 347.12 319.969C347.177 320.339 347.129 320.718 346.98 321.061C346.832 321.405 346.589 321.699 346.279 321.91C345.662 322.519 344.891 322.949 344.049 323.154C343.207 323.359 342.324 323.33 341.497 323.072C337.147 321.886 333.428 319.057 331.124 315.183C330.292 314.065 329.838 312.711 329.827 311.317C329.893 310.219 330.28 309.164 330.94 308.284Z" fill="white"/>
</svg>
