<svg width="455" height="457" viewBox="0 0 455 457" fill="none" xmlns="http://www.w3.org/2000/svg">
<path d="M111.375 104.897C102.075 104.897 93.1551 101.202 86.5786 94.6256C80.0022 88.0492 76.3076 79.1296 76.3076 69.8292C76.3076 60.5287 80.0022 51.6092 86.5786 45.0327C93.1551 38.4563 102.075 34.7617 111.375 34.7617C120.676 34.7617 129.595 38.4563 136.172 45.0327C142.748 51.6092 146.443 60.5287 146.443 69.8292C146.443 79.1296 142.748 88.0492 136.172 94.6256C129.595 101.202 120.676 104.897 111.375 104.897Z" fill="#EBEBEB"/>
<path d="M102.726 62.0195H95.4688V85.4695H102.726V62.0195Z" fill="white"/>
<path d="M99.0612 58.9483C99.9193 58.9564 100.76 58.7094 101.478 58.2386C102.195 57.7678 102.756 57.0944 103.09 56.304C103.424 55.5136 103.516 54.6418 103.354 53.7993C103.191 52.9567 102.782 52.1814 102.178 51.5718C101.574 50.9622 100.803 50.5457 99.962 50.3753C99.1211 50.2049 98.2484 50.2882 97.4549 50.6147C96.6613 50.9411 95.9827 51.496 95.5051 52.2089C95.0275 52.9218 94.7725 53.7605 94.7725 54.6186C94.7697 55.7606 95.2194 56.8573 96.0231 57.6687C96.8269 58.4801 97.9192 58.9401 99.0612 58.9483Z" fill="white"/>
<path d="M114.333 73.1544C114.333 69.8585 115.848 67.8932 118.755 67.8932C121.416 67.8932 122.706 69.7766 122.706 73.1544V85.4372H129.922V70.6159C129.922 64.3312 126.37 61.3015 121.395 61.3015C119.985 61.2833 118.593 61.6299 117.356 62.3078C116.118 62.9857 115.077 63.9718 114.333 65.1705V62.018H107.362V85.4577H114.333V73.1544Z" fill="white"/>
<path d="M158.367 0L163.167 8.77198L171.95 13.5828L163.167 18.3833L158.367 27.1553L153.566 18.3833L144.784 13.5828L153.566 8.77198L158.367 0Z" fill="#F5F5F5"/>
<path d="M358.628 237.855L362.231 244.447L368.812 248.04L362.231 251.643L358.628 258.235L355.025 251.643L348.443 248.04L355.025 244.447L358.628 237.855Z" fill="#EBEBEB"/>
<path d="M368.813 205.348L370.44 208.316L373.408 209.943L370.44 211.571L368.813 214.539L367.195 211.571L364.217 209.943L367.195 208.316L368.813 205.348Z" fill="#E0E0E0"/>
<path d="M124.068 3.29688L125.695 6.27546L128.663 7.8927L125.695 9.52017L124.068 12.4885L122.45 9.52017L119.472 7.8927L122.45 6.27546L124.068 3.29688Z" fill="#E0E0E0"/>
<path d="M42.6116 279.3C44.5003 278.435 46.0941 277.036 47.1965 275.275C48.2988 273.514 48.8613 271.469 48.8145 269.392C48.8145 263.527 44.2596 258.819 38.763 258.86C33.2665 258.901 28.8549 263.701 28.9061 269.566C28.8912 271.66 29.4979 273.712 30.6495 275.461C31.801 277.21 33.4456 278.578 35.375 279.392C20.0829 281.9 20.9836 298.543 20.9836 298.543L57.2077 298.236C57.2077 298.236 57.8321 281.399 42.6116 279.3Z" fill="#E0E0E0"/>
<path d="M390.124 389.009C389.868 387.696 389.155 386.516 388.11 385.681C387.066 384.845 385.758 384.408 384.421 384.448C383.084 384.487 381.805 385 380.811 385.896C379.818 386.791 379.175 388.011 378.997 389.337C378.811 388.013 378.161 386.798 377.163 385.909C376.165 385.02 374.884 384.515 373.547 384.483C372.211 384.451 370.907 384.894 369.867 385.735C368.828 386.575 368.12 387.757 367.871 389.07C367.603 391.011 368.095 392.98 369.243 394.567C370.379 396.132 371.714 397.542 373.214 398.764C375.261 400.575 377.114 402.264 379.141 404.066C381.188 402.244 382.856 400.534 384.862 398.712C386.356 397.479 387.681 396.054 388.803 394.475C389.924 392.888 390.396 390.933 390.124 389.009Z" fill="#EBEBEB"/>
<path d="M413.717 173.251L417.596 172.483L423.738 158.992L422.202 151.244C422.202 151.244 428.129 149.688 429.439 159.975C430.749 170.262 430.995 167.529 430.995 167.529C430.995 167.529 443.738 165.052 445.018 165.943C445.949 166.598 448.805 179.187 450.299 186.025C450.713 187.664 450.565 189.394 449.881 190.939C449.196 192.485 448.014 193.756 446.522 194.551C446.097 194.76 445.646 194.912 445.181 195.002C442.008 195.636 425.263 196.271 425.263 196.271L418.558 197.601L413.717 173.251Z" fill="#E0E0E0"/>
<path d="M402.181 173.319L409.827 199.4L416.48 198.079L411.321 172.07L402.181 173.319Z" fill="#E0E0E0"/>
<path d="M453.41 455.926C453.41 456.08 351.903 456.192 226.72 456.192C101.538 456.192 0 456.08 0 455.926C0 455.773 101.487 455.66 226.72 455.66C351.954 455.66 453.41 455.783 453.41 455.926Z" fill="#263238"/>
<path d="M374.555 163.015C364.635 167.836 353.206 168.521 342.782 164.918C332.357 161.315 323.79 153.72 318.965 143.802C314.143 133.883 313.458 122.454 317.061 112.029C320.664 101.605 328.259 93.038 338.177 88.2123C343.089 85.8235 348.423 84.4255 353.875 84.0982C359.326 83.7709 364.789 84.5207 369.951 86.3047C375.113 88.0888 379.874 90.8722 383.96 94.4959C388.046 98.1197 391.379 102.513 393.767 107.425C396.156 112.336 397.554 117.67 397.881 123.122C398.209 128.574 397.459 134.037 395.675 139.199C393.891 144.361 391.107 149.121 387.484 153.207C383.86 157.294 379.467 160.626 374.555 163.015Z" fill="#004E9E"/>
<path d="M346.088 134.907C346.241 134.904 346.391 134.866 346.527 134.797C346.663 134.729 346.782 134.63 346.875 134.51C346.968 134.389 347.033 134.249 347.065 134.1C347.097 133.951 347.096 133.797 347.061 133.648C346.959 133.147 346.682 131.877 346.58 131.355C346.437 130.629 346.263 130.434 345.556 130.107C343.722 129.264 342.264 127.773 341.462 125.92C338.33 119.472 340.346 111.355 348.084 107.598C354.932 104.262 360.736 106.575 363.438 112.204C367.01 119.564 366.775 127.353 361.944 129.707C361.341 130.039 360.67 130.225 359.983 130.249C359.295 130.274 358.612 130.136 357.988 129.849C357.364 129.561 356.816 129.13 356.388 128.592C355.96 128.054 355.665 127.423 355.526 126.749C354.727 123.146 354.502 118.94 353.376 116.606C352.353 114.559 350.387 113.32 348.074 114.446C345.341 115.777 344.522 119.666 346.365 123.443C347.022 124.84 347.967 126.082 349.139 127.087C349.139 127.087 352.107 140.271 352.619 142.584C353.642 147.18 356.938 151.796 357.256 152.318C357.301 152.376 357.362 152.42 357.431 152.445C357.5 152.47 357.575 152.474 357.647 152.458C357.719 152.442 357.785 152.406 357.837 152.354C357.889 152.302 357.925 152.236 357.941 152.165C358.034 151.714 359.333 146.126 358.484 141.581C358.248 140.291 356.867 133.689 356.867 133.689C358.576 134.948 361.892 135.184 364.646 133.843C372.834 129.851 374.779 119.666 369.907 109.656C366.232 102.092 356.386 98.1611 346.651 102.9C334.522 108.796 332.639 120.454 336.16 127.701C338.289 132.092 341.82 135.225 346.088 134.907Z" fill="white"/>
<path d="M416.081 280.326C412.561 278.984 409.34 276.961 406.602 274.372C403.865 271.784 401.664 268.681 400.127 265.242C398.59 261.802 397.746 258.093 397.643 254.327C397.541 250.561 398.182 246.812 399.53 243.294C400.871 239.774 402.893 236.553 405.481 233.815C408.068 231.077 411.169 228.876 414.608 227.338C418.046 225.8 421.754 224.955 425.52 224.851C429.285 224.747 433.034 225.386 436.552 226.732C440.073 228.075 443.294 230.098 446.031 232.686C448.769 235.275 450.969 238.377 452.506 241.817C454.043 245.256 454.887 248.965 454.99 252.731C455.092 256.497 454.451 260.247 453.103 263.765C451.762 267.285 449.74 270.506 447.153 273.243C444.565 275.981 441.464 278.182 438.025 279.72C434.587 281.258 430.879 282.104 427.113 282.208C423.348 282.312 419.599 281.672 416.081 280.326Z" fill="#004E9E"/>
<path fill-rule="evenodd" clip-rule="evenodd" d="M441.301 258.402C442.58 254.639 442.36 250.528 440.686 246.924C439.012 243.32 436.013 240.499 432.313 239.049C428.613 237.599 424.496 237.631 420.819 239.138C417.142 240.646 414.187 243.512 412.569 247.142C412.477 247.347 412.395 247.562 412.313 247.767C411.312 250.374 411.05 253.208 411.556 255.955L406.019 262.639L414.985 263.151C416.713 265.194 418.943 266.754 421.455 267.676C423.967 268.598 426.676 268.852 429.316 268.413C431.956 267.973 434.436 266.855 436.514 265.168C438.591 263.481 440.195 261.284 441.168 258.791C441.219 258.663 441.264 258.534 441.301 258.402ZM422.14 265.29C419.767 264.389 417.712 262.809 416.234 260.746L411.003 260.449L414.228 256.559C413.505 253.939 413.637 251.156 414.606 248.616C414.76 248.227 414.934 247.838 415.118 247.47C416.576 244.581 419.06 242.341 422.083 241.188C425.106 240.034 428.451 240.051 431.463 241.234C434.474 242.417 436.936 244.682 438.366 247.584C439.795 250.487 440.09 253.819 439.192 256.928C439.1 257.255 438.998 257.572 438.875 257.89C437.635 261.089 435.176 263.665 432.039 265.053C428.901 266.44 425.341 266.526 422.14 265.29Z" fill="white"/>
<path fill-rule="evenodd" clip-rule="evenodd" d="M432.252 258.667C431.956 258.36 430.553 256.845 430.267 256.62C429.98 256.395 429.775 256.231 429.407 256.497C429.038 256.764 428.046 257.286 427.759 257.439C427.472 257.593 427.247 257.541 426.961 257.234C426.075 256.423 425.337 255.464 424.78 254.399C424.284 253.398 423.939 252.329 423.757 251.226C423.695 250.796 423.941 250.673 424.187 250.571C424.432 250.469 424.699 250.295 424.954 250.162L425.149 250.039C425.283 249.935 425.41 249.822 425.528 249.701C425.615 249.625 425.68 249.527 425.718 249.417C425.756 249.308 425.764 249.19 425.743 249.077C425.743 248.872 425.671 246.866 425.64 246.057C425.61 245.248 425.272 245.248 425.067 245.167C424.862 245.085 424.637 244.962 424.402 244.88C424.221 244.815 424.028 244.787 423.836 244.8C423.645 244.812 423.457 244.864 423.286 244.952C422.745 245.178 422.256 245.515 421.851 245.939C421.446 246.364 421.133 246.867 420.932 247.418C420.783 247.824 420.69 248.247 420.655 248.677C420.597 249.662 420.711 250.649 420.993 251.595C421.085 251.891 421.955 256.416 425.006 259.2C428.056 261.984 428.25 261.513 428.926 261.697C429.462 261.802 430.015 261.788 430.545 261.657C431.075 261.527 431.571 261.282 431.997 260.94C432.432 260.508 432.728 259.955 432.846 259.353C432.734 259.159 432.539 258.974 432.252 258.667Z" fill="white"/>
<path d="M43.1227 147.755C37.3214 147.755 31.7578 145.451 27.6557 141.348C23.5536 137.246 21.249 131.683 21.249 125.881C21.249 120.08 23.5536 114.517 27.6557 110.414C31.7578 106.312 37.3214 104.008 43.1227 104.008C45.9952 104.008 48.8395 104.574 51.4934 105.673C54.1472 106.772 56.5585 108.383 58.5897 110.414C60.6209 112.446 62.2321 114.857 63.3313 117.511C64.4306 120.165 64.9963 123.009 64.9963 125.881C64.9963 128.754 64.4306 131.598 63.3313 134.252C62.2321 136.906 60.6209 139.317 58.5897 141.348C56.5585 143.38 54.1472 144.991 51.4934 146.09C48.8395 147.189 45.9952 147.755 43.1227 147.755Z" fill="#004E9E"/>
<path d="M31.4746 133.177C33.5753 134.517 36.0036 135.255 38.4948 135.31C40.9859 135.365 43.4445 134.736 45.6025 133.49C47.7604 132.244 49.5351 130.43 50.7331 128.245C51.9311 126.06 52.5064 123.588 52.3964 121.099C53.321 120.427 54.1212 119.6 54.7608 118.653C53.8845 119.037 52.957 119.292 52.0074 119.41C53.0084 118.825 53.7645 117.898 54.1364 116.8C53.189 117.363 52.1494 117.755 51.0657 117.957C50.3478 117.171 49.389 116.647 48.3404 116.467C47.2918 116.288 46.2132 116.462 45.2746 116.963C44.336 117.464 43.5909 118.263 43.1568 119.234C42.7227 120.206 42.6243 121.294 42.8772 122.327C40.9753 122.229 39.1153 121.733 37.4173 120.871C35.7193 120.009 34.2213 118.8 33.0202 117.322C32.4116 118.376 32.2263 119.622 32.5019 120.808C32.7774 121.994 33.4932 123.031 34.5044 123.709C33.7437 123.689 32.9991 123.486 32.3344 123.115C32.3217 124.23 32.6981 125.314 33.3987 126.181C34.0994 127.048 35.0804 127.643 36.1728 127.865C35.4686 128.056 34.7298 128.084 34.0131 127.947C34.3195 128.895 34.9141 129.724 35.714 130.318C36.514 130.913 37.4794 131.243 38.4758 131.263C36.4819 132.791 33.9688 133.479 31.4746 133.177Z" fill="white"/>
<path d="M82.3974 392.765C72.6832 395.072 62.4505 393.428 53.9479 388.194C45.4454 382.96 39.3687 374.565 37.0533 364.853C35.9054 360.038 35.7177 355.044 36.501 350.156C37.2843 345.269 39.0233 340.584 41.6185 336.369C44.2136 332.154 47.6141 328.491 51.6255 325.591C55.6369 322.691 60.1806 320.611 64.9967 319.468C69.8088 318.321 74.7998 318.133 79.6845 318.915C84.5692 319.697 89.252 321.434 93.4655 324.026C97.679 326.618 101.341 330.014 104.241 334.022C107.142 338.029 109.225 342.568 110.371 347.38C111.519 352.197 111.705 357.193 110.92 362.083C110.135 366.972 108.393 371.658 105.795 375.873C103.197 380.089 99.7928 383.75 95.778 386.649C91.7632 389.547 87.2163 391.626 82.3974 392.765Z" fill="#455A64"/>
<path d="M69.7768 339.653C75.1403 338.374 75.7851 338.24 77.9653 337.831C79.2412 337.544 80.5568 337.479 81.8549 337.637C82.8051 337.751 83.7177 338.077 84.5264 338.588C85.3425 339.084 86.041 339.751 86.5735 340.543C87.298 341.632 87.8311 342.837 88.1498 344.106C88.7537 346.204 88.9278 346.838 90.197 352.202C91.4662 357.565 91.5993 358.21 92.0087 360.39C92.3006 361.666 92.3665 362.982 92.2032 364.28C92.0986 365.233 91.7726 366.148 91.2513 366.952C90.7625 367.769 90.0982 368.469 89.3065 368.999C88.2136 369.723 87.0056 370.256 85.7342 370.575C83.6871 371.179 83.0115 371.353 77.648 372.622C72.2845 373.891 71.6397 374.035 69.4595 374.444C68.1808 374.736 66.861 374.801 65.5597 374.639C64.6088 374.527 63.6955 374.201 62.8882 373.687C62.0802 373.176 61.4007 372.486 60.9024 371.67C60.1716 370.584 59.6347 369.378 59.3159 368.108C58.7222 366.01 58.5482 365.385 57.2688 360.022C55.9893 354.658 55.8563 354.014 55.4468 351.833C55.1657 350.553 55.1 349.235 55.2524 347.934C55.3782 346.987 55.7021 346.078 56.203 345.265C56.7039 344.452 57.3704 343.753 58.1593 343.215C59.247 342.486 60.4519 341.949 61.7213 341.628C63.7684 341.035 64.4542 340.861 69.8177 339.581M68.9579 335.958C63.5023 337.258 62.8165 337.442 60.6977 338.056C59.0399 338.468 57.4647 339.16 56.0405 340.103C54.8322 340.939 53.8107 342.016 53.0407 343.267C52.2707 344.518 51.769 345.916 51.5675 347.371C51.3525 349.077 51.4286 350.808 51.7927 352.489C52.2123 354.648 52.3454 355.344 53.6454 360.8C54.9453 366.256 55.1295 366.941 55.6925 369.05C56.1019 370.708 56.7945 372.284 57.7396 373.707C58.5725 374.961 59.6739 376.013 60.9639 376.788C62.2052 377.569 63.6028 378.069 65.0581 378.252C66.7645 378.468 68.4952 378.392 70.176 378.027C72.3357 377.617 73.0317 377.474 78.4874 376.174C83.943 374.874 84.6288 374.69 86.7373 374.127C88.3928 373.708 89.9668 373.016 91.3946 372.08C92.6153 371.256 93.6422 370.177 94.4038 368.917C95.1809 367.672 95.6834 366.277 95.8778 364.823C96.0896 363.116 96.01 361.385 95.6424 359.705C95.2329 357.535 95.0896 356.849 93.7897 351.393C92.4898 345.938 92.3055 345.252 91.7426 343.133C91.3221 341.478 90.6304 339.905 89.6954 338.476C88.8717 337.258 87.7923 336.235 86.5326 335.477C85.2932 334.69 83.895 334.186 82.4383 334.003C80.732 333.787 79.0013 333.863 77.3205 334.228C75.1505 334.648 74.4647 334.781 69.0091 336.081" fill="white"/>
<path d="M71.24 345.802C69.2 346.288 67.3499 347.369 65.9236 348.906C64.4974 350.444 63.5591 352.369 63.2273 354.44C62.8955 356.511 63.1852 358.633 64.0597 360.54C64.9342 362.446 66.3543 364.05 68.1403 365.149C69.9264 366.248 71.9982 366.793 74.0939 366.715C76.1896 366.636 78.215 365.938 79.9141 364.709C81.6131 363.48 82.9095 361.774 83.6393 359.808C84.3691 357.842 84.4995 355.704 84.0142 353.663C83.3606 350.928 81.6484 348.564 79.2533 347.09C76.8583 345.616 73.9763 345.153 71.24 345.802ZM75.3343 362.824C74.0089 363.137 72.6205 363.05 71.3445 362.575C70.0685 362.099 68.9621 361.255 68.1652 360.151C67.3682 359.047 66.9165 357.731 66.8671 356.37C66.8177 355.009 67.1727 353.664 67.8874 352.505C68.6021 351.346 69.6444 350.424 70.8825 349.857C72.1206 349.29 73.4991 349.103 74.8437 349.319C76.1883 349.535 77.4387 350.144 78.4369 351.071C79.4352 351.997 80.1364 353.198 80.4521 354.523C80.6621 355.404 80.6963 356.318 80.5526 357.213C80.4089 358.107 80.0903 358.964 79.6149 359.735C79.1396 360.506 78.5168 361.176 77.7823 361.706C77.0477 362.236 76.2159 362.616 75.3343 362.824Z" fill="white"/>
<path d="M84.281 342.272C84.3929 342.749 84.3612 343.248 84.1898 343.706C84.0184 344.164 83.715 344.562 83.318 344.848C82.9209 345.134 82.448 345.296 81.9589 345.314C81.4698 345.332 80.9864 345.204 80.5698 344.947C80.1532 344.69 79.822 344.316 79.618 343.871C79.414 343.426 79.3464 342.931 79.4237 342.447C79.5009 341.964 79.7197 341.515 80.0522 341.155C80.3848 340.796 80.8163 340.544 81.2922 340.43C81.6095 340.352 81.9391 340.339 82.2617 340.39C82.5843 340.44 82.8936 340.555 83.1717 340.726C83.4497 340.898 83.691 341.123 83.8814 341.388C84.0718 341.653 84.2077 341.954 84.281 342.272Z" fill="white"/>
<path d="M367.779 359.613C365.471 359.615 363.186 359.161 361.054 358.279C358.922 357.397 356.984 356.104 355.352 354.472C353.72 352.841 352.425 350.904 351.542 348.773C350.659 346.641 350.204 344.356 350.204 342.049C350.204 339.741 350.659 337.457 351.542 335.325C352.425 333.193 353.72 331.256 355.352 329.625C356.984 327.994 358.922 326.701 361.054 325.818C363.186 324.936 365.471 324.483 367.779 324.484C370.088 324.48 372.375 324.932 374.51 325.813C376.644 326.693 378.584 327.987 380.219 329.618C381.853 331.249 383.149 333.187 384.034 335.32C384.919 337.453 385.374 339.74 385.374 342.049C385.374 344.358 384.919 346.645 384.034 348.778C383.149 350.911 381.853 352.848 380.219 354.48C378.584 356.111 376.644 357.404 374.51 358.285C372.375 359.166 370.088 359.617 367.779 359.613Z" fill="#455A64"/>
<path d="M365.097 352.661H369.376V341.986H372.354L372.682 338.403H369.376V336.356C369.376 335.517 369.55 335.179 370.399 335.179H372.723V331.453H369.754C366.571 331.453 365.138 332.855 365.138 335.547V338.413H362.855V341.986H365.077L365.097 352.661Z" fill="white"/>
<path d="M307.859 456.675L166.719 456.624C158.575 456.624 150.764 453.389 145.006 447.63C139.247 441.872 136.012 434.061 136.012 425.917L136.073 72.0899C136.073 68.0522 136.869 64.0542 138.416 60.3246C139.963 56.5951 142.231 53.2072 145.089 50.355C147.947 47.5028 151.339 45.2422 155.072 43.7027C158.804 42.1631 162.804 41.3748 166.842 41.3829L307.971 41.4648C316.115 41.4648 323.926 44.7 329.684 50.4586C335.443 56.2173 338.678 64.0278 338.678 72.1718L338.617 425.917C338.624 429.958 337.833 433.961 336.289 437.696C334.746 441.43 332.48 444.824 329.623 447.681C326.765 450.539 323.372 452.804 319.637 454.348C315.902 455.891 311.9 456.682 307.859 456.675Z" fill="#263238"/>
<path d="M307.817 53.8686H280.447C278.651 53.9116 276.944 54.6631 275.7 55.9593C274.455 57.2556 273.774 58.9913 273.804 60.7879V65.7522C273.824 66.6443 273.669 67.5317 273.346 68.3635C273.023 69.1953 272.539 69.9552 271.922 70.5998C271.305 71.2444 270.567 71.761 269.75 72.12C268.933 72.479 268.053 72.6734 267.161 72.692H213.823C212.93 72.6721 212.05 72.4765 211.233 72.1164C210.416 71.7563 209.678 71.2387 209.061 70.5933C208.445 69.9479 207.961 69.1872 207.638 68.3548C207.315 67.5224 207.16 66.6346 207.18 65.742V60.747C207.216 58.9458 206.537 57.2038 205.292 55.9015C204.048 54.5992 202.338 53.8426 200.537 53.7969H190.895H166.954C164.127 53.7902 161.326 54.3412 158.712 55.4184C156.098 56.4956 153.723 58.0779 151.721 60.0745C149.72 62.0712 148.132 64.4431 147.049 67.0543C145.965 69.6655 145.408 72.4648 145.408 75.2919L145.336 420.654C145.336 426.355 147.601 431.822 151.632 435.853C155.663 439.884 161.13 442.149 166.831 442.149L307.694 442.231C310.517 442.231 313.312 441.675 315.92 440.595C318.528 439.514 320.898 437.931 322.894 435.935C324.89 433.939 326.473 431.57 327.553 428.962C328.633 426.354 329.189 423.559 329.189 420.736L329.261 75.3635C329.261 69.6716 327.003 64.212 322.983 60.1824C318.963 56.1528 313.509 53.8821 307.817 53.8686Z" fill="white"/>
<path d="M309.875 81.9249C309.875 82.0171 306.313 82.1194 301.932 82.1501C297.551 82.1808 293.979 82.1501 293.979 82.058C293.979 81.9659 297.53 81.8533 301.921 81.8226C306.313 81.7919 309.875 81.8328 309.875 81.9249Z" fill="#263238"/>
<path d="M309.906 85.9916C309.906 86.0837 306.354 86.1861 301.963 86.227C297.572 86.268 294.01 86.227 294.01 86.1247C294.01 86.0223 297.572 85.9302 301.963 85.8893C306.354 85.8483 309.906 85.8995 309.906 85.9916Z" fill="#263238"/>
<path d="M309.946 90.0541C309.946 90.1463 306.384 90.2588 301.993 90.2895C297.602 90.3203 294.05 90.2895 294.04 90.1872C294.03 90.0848 297.602 89.9927 301.993 89.9518C306.384 89.9108 309.946 89.962 309.946 90.0541Z" fill="#263238"/>
<path d="M160.188 94.0258H160.608H161.764L166.043 93.9235L165.92 94.0361C165.92 93.0944 165.92 92.0606 165.869 90.9654C165.869 90.3922 165.869 89.8497 165.869 89.1843C165.936 88.8405 166.112 88.5271 166.369 88.2897C166.627 88.0522 166.954 87.9031 167.302 87.8639C167.998 87.8639 168.602 87.8639 169.349 87.8639C169.74 87.9272 170.097 88.1278 170.353 88.4298C170.61 88.7317 170.751 89.1154 170.751 89.5119C170.751 90.9654 170.751 92.47 170.802 94.0361L170.608 93.8416H176.002L175.797 94.0463C175.797 91.8763 175.797 89.6245 175.736 87.3215C175.736 86.7483 175.736 86.1853 175.736 85.6121C175.713 85.3573 175.633 85.111 175.502 84.8914C175.37 84.6717 175.192 84.4843 174.979 84.3429L172.624 82.0091L170.342 79.7675L169.247 78.6825C168.868 78.3141 168.571 77.9353 168.131 77.8432C167.92 77.7877 167.699 77.78 167.485 77.8207C167.271 77.8615 167.068 77.9496 166.892 78.0786C166.565 78.355 166.217 78.7439 165.869 79.1022L163.924 81.0572C162.706 82.3162 161.437 83.4728 160.516 84.5681C160.242 85.2135 160.15 85.9213 160.249 86.6152C160.249 87.2805 160.249 87.9151 160.249 88.5088C160.249 89.6757 160.249 90.6992 160.249 91.5795C160.249 92.4598 160.249 93.0023 160.249 93.5345C160.264 93.7697 160.264 94.0056 160.249 94.2408C160.238 94.026 160.238 93.8107 160.249 93.5959C160.249 93.0739 160.249 92.4291 160.249 91.6614C160.249 90.8937 160.249 89.7473 160.178 88.5907C160.178 87.9765 160.178 87.3317 160.178 86.6459C160.178 86.2979 160.178 85.9499 160.178 85.6223C160.175 85.2274 160.278 84.8388 160.475 84.4964C161.498 83.2784 162.665 82.1934 163.893 80.8934L165.818 78.918C166.166 78.5802 166.442 78.2424 166.841 77.8944C167.061 77.7267 167.317 77.611 167.588 77.556C167.859 77.5011 168.139 77.5083 168.407 77.5771C168.917 77.7642 169.366 78.0861 169.707 78.5085L170.813 79.5935L173.095 81.8351L175.46 84.1484C175.681 84.3472 175.883 84.5666 176.064 84.8035C176.241 85.0752 176.34 85.3903 176.35 85.7144C176.35 86.2876 176.35 86.8608 176.35 87.434C176.35 89.7371 176.35 91.9889 176.401 94.1589V94.3636H176.197H170.802H170.424V94.1691C170.424 92.6031 170.424 91.0984 170.424 89.645C170.43 89.3326 170.324 89.0284 170.125 88.7878C169.926 88.5472 169.647 88.3864 169.339 88.3348C168.714 88.3348 167.977 88.3348 167.373 88.3348C167.098 88.3624 166.837 88.4761 166.63 88.6598C166.422 88.8435 166.278 89.0879 166.217 89.3584C166.217 89.9008 166.217 90.5252 166.217 91.078C166.217 92.1936 166.217 93.2377 166.217 94.1487V94.2715H166.094H161.744H160.608C160.46 94.2044 160.319 94.122 160.188 94.0258Z" fill="#263238"/>
<path d="M253.333 363.899C252.843 363.976 252.346 364.01 251.849 364.001L247.816 364.083C244.418 364.134 239.71 364.165 234.51 364.165C229.31 364.165 224.602 364.165 221.204 364.083L217.171 364.001C216.674 364.01 216.177 363.975 215.687 363.899C216.177 363.816 216.674 363.782 217.171 363.797L221.204 363.704C224.602 363.704 229.31 363.633 234.51 363.633C239.71 363.633 244.408 363.633 247.816 363.704L251.849 363.797C252.346 363.781 252.843 363.815 253.333 363.899Z" fill="#455A64"/>
<path d="M312.464 373.153C312.464 373.306 290.795 373.419 264.07 373.419C237.345 373.419 215.676 373.306 215.676 373.153C215.676 372.999 237.345 372.887 264.07 372.887C290.795 372.887 312.464 373.01 312.464 373.153Z" fill="#455A64"/>
<path d="M282.218 381.903C282.218 382.056 267.325 382.169 248.952 382.169C230.579 382.169 215.676 382.056 215.676 381.903C215.676 381.749 230.569 381.637 248.952 381.637C267.335 381.637 282.218 381.719 282.218 381.903Z" fill="#455A64"/>
<path d="M314.378 398.822L311.369 395.803L308.503 398.658V390.02H314.368L314.378 398.822ZM311.369 395.424L311.461 395.516L314.112 398.177V390.296H308.779V398.024L311.369 395.424Z" fill="#263238"/>
<path d="M234.304 397.698L233.281 397.227C232.669 397.514 231.973 397.564 231.327 397.365C230.682 397.166 230.134 396.734 229.79 396.152C229.447 395.571 229.333 394.882 229.47 394.22C229.608 393.559 229.987 392.973 230.534 392.577C231.081 392.18 231.756 392.002 232.427 392.077C233.098 392.152 233.717 392.475 234.163 392.982C234.609 393.489 234.85 394.145 234.838 394.82C234.826 395.495 234.563 396.142 234.099 396.633L234.304 397.698ZM231.837 391.945C231.138 391.994 230.483 392.308 230.007 392.823C229.53 393.339 229.269 394.016 229.276 394.718C229.282 395.419 229.556 396.092 230.042 396.598C230.527 397.104 231.188 397.406 231.889 397.442C232.356 397.41 232.809 397.266 233.209 397.022L233.997 397.37L233.813 396.603C234.174 396.208 234.412 395.718 234.498 395.19C234.583 394.663 234.513 394.122 234.296 393.634C234.078 393.145 233.723 392.731 233.274 392.442C232.824 392.153 232.3 392.002 231.766 392.007L231.837 391.945Z" fill="#263238"/>
<path d="M241.122 397.258L239.914 394.289L237.632 392.242H243.159L241.122 397.258ZM238.144 392.416L240.088 394.197L241.112 396.725L242.852 392.375L238.144 392.416Z" fill="#263238"/>
<path d="M243.043 392.176L240.023 394.141L240.135 394.312L243.155 392.347L243.043 392.176Z" fill="#263238"/>
<path d="M225.595 392.815C225.513 392.42 225.295 392.067 224.978 391.817C224.661 391.568 224.267 391.438 223.864 391.452C223.461 391.465 223.075 391.621 222.776 391.891C222.477 392.161 222.282 392.528 222.227 392.927C222.172 392.523 221.974 392.152 221.669 391.881C221.364 391.61 220.973 391.457 220.565 391.45C220.157 391.442 219.76 391.581 219.445 391.841C219.131 392.1 218.919 392.464 218.85 392.866C218.771 393.455 218.921 394.052 219.269 394.534C219.615 395.008 220.021 395.435 220.477 395.804C221.101 396.346 221.664 396.827 222.279 397.4C222.893 396.848 223.404 396.326 224.019 395.773C224.469 395.396 224.868 394.963 225.206 394.483C225.548 393.999 225.688 393.4 225.595 392.815Z" fill="#004E9E"/>
<path d="M320.54 406.47C320.54 406.47 320.54 406.132 320.54 405.508C320.54 404.883 320.54 403.931 320.54 402.703C320.54 400.236 320.54 396.562 320.489 391.894C320.489 382.488 320.438 368.802 320.397 351.637L320.571 351.811L156.892 351.903L157.158 351.637C157.158 370.696 157.158 389.171 157.158 406.47L156.902 406.214L274.029 406.326L308.217 406.398H317.429H319.803H320.622H319.834H317.49H308.37L274.234 406.47L156.933 406.593H156.667V406.47C156.667 389.171 156.667 370.696 156.667 351.637V351.371H156.954L320.632 351.463H320.806V351.637C320.806 368.843 320.735 382.569 320.714 392.007C320.714 396.695 320.714 400.308 320.714 402.775C320.714 403.983 320.714 404.904 320.714 405.538C320.714 406.173 320.54 406.47 320.54 406.47Z" fill="#263238"/>
<path d="M163.671 360.804L163.462 397.059L208.805 397.32L209.014 361.066L163.671 360.804Z" fill="#EBEBEB"/>
<path d="M209.002 361.042H208.132H205.655H196.351L163.597 360.97L163.842 360.735C163.791 371.534 163.73 383.898 163.668 396.979C163.72 397.051 163.167 396.478 163.402 396.713H166.524H169.595H175.736L187.507 396.785L208.736 396.938L208.521 397.164C208.623 386.273 208.716 377.245 208.787 370.899C208.787 367.746 208.859 365.269 208.879 363.539C208.879 362.71 208.879 362.066 208.879 361.595C208.879 361.124 208.879 360.909 208.879 360.909C208.879 360.909 208.879 361.114 208.879 361.543C208.879 361.973 208.879 362.639 208.879 363.458C208.879 365.167 208.879 367.634 208.879 370.766C208.879 377.143 208.879 386.222 208.879 397.164V397.379H208.654L187.425 397.297L175.654 397.235H169.513H166.442H163.32L163.044 396.959C163.136 383.868 163.208 371.503 163.279 360.714V360.469H163.525L196.382 360.766L205.594 360.888H208.02H208.634L209.002 361.042Z" fill="#263238"/>
<path d="M165.224 363.096L165.041 394.785L207.201 395.028L207.384 363.339L165.224 363.096Z" fill="#E0E0E0"/>
<path d="M165.02 394.76L179.861 375.148L188.91 387.523L195.133 380.973L207.18 395.006L165.02 394.76Z" fill="#F5F5F5"/>
<path d="M192.871 372.813C192.869 373.472 192.672 374.115 192.304 374.661C191.936 375.207 191.415 375.632 190.806 375.881C190.196 376.131 189.527 376.194 188.882 376.063C188.236 375.932 187.645 375.612 187.181 375.145C186.718 374.677 186.404 374.082 186.278 373.436C186.153 372.789 186.223 372.121 186.478 371.514C186.733 370.907 187.163 370.389 187.712 370.027C188.262 369.664 188.906 369.473 189.565 369.477C190.001 369.478 190.433 369.565 190.836 369.734C191.238 369.903 191.603 370.149 191.91 370.459C192.218 370.769 192.461 371.136 192.625 371.54C192.79 371.945 192.874 372.377 192.871 372.813Z" fill="#F5F5F5"/>
<path d="M240.119 125.879C239.957 125.906 239.791 125.906 239.628 125.879L238.246 125.93L233.128 126.022C228.819 126.022 222.893 126.094 216.28 126.094C209.668 126.094 203.742 126.094 199.432 126.022L194.315 125.93L192.922 125.879C192.763 125.907 192.601 125.907 192.441 125.879C192.599 125.84 192.761 125.823 192.922 125.828H194.315L199.432 125.746C203.742 125.695 209.668 125.664 216.28 125.664C222.893 125.664 228.819 125.664 233.128 125.746L238.246 125.828H239.628C239.793 125.824 239.958 125.841 240.119 125.879Z" fill="#263238"/>
<path d="M307.101 326.274L302.638 321.791L298.37 326.039V313.203H307.091L307.101 326.274ZM302.638 321.238L302.771 321.371L306.712 325.322V313.613H298.769V325.097L302.638 321.238Z" fill="#263238"/>
<path d="M193.629 324.92L191.582 323.989C190.389 324.543 189.033 324.633 187.779 324.241C186.524 323.849 185.46 323.002 184.796 321.868C184.132 320.733 183.915 319.392 184.187 318.106C184.46 316.819 185.202 315.681 186.269 314.913C187.336 314.145 188.651 313.803 189.957 313.953C191.263 314.103 192.467 314.735 193.332 315.725C194.197 316.715 194.661 317.992 194.635 319.306C194.608 320.62 194.093 321.878 193.189 322.832L193.629 324.92ZM188.746 313.61C188.037 313.616 187.335 313.762 186.682 314.039C186.028 314.316 185.436 314.719 184.938 315.225C184.441 315.731 184.048 316.331 183.782 316.989C183.516 317.647 183.382 318.351 183.388 319.06C183.394 319.77 183.54 320.472 183.817 321.125C184.094 321.778 184.497 322.371 185.003 322.868C185.51 323.366 186.109 323.759 186.767 324.025C187.425 324.291 188.129 324.425 188.838 324.419C189.759 324.363 190.652 324.082 191.438 323.6L191.53 323.549L193.066 324.234L192.718 322.72L192.789 322.648C193.5 321.872 193.969 320.905 194.137 319.866C194.305 318.827 194.166 317.762 193.736 316.801C193.307 315.84 192.605 315.026 191.719 314.459C190.832 313.892 189.799 313.597 188.746 313.61Z" fill="#263238"/>
<path d="M207.058 324.032L204.663 318.188L200.18 314.094L211.07 314.012L207.058 324.032ZM201.193 314.483L205.021 317.993L207.068 322.968L210.487 314.411L201.193 314.483Z" fill="#263238"/>
<path d="M210.853 313.993L204.916 317.855L205.134 318.19L211.071 314.327L210.853 313.993Z" fill="#263238"/>
<path d="M176.494 315.372C176.339 314.588 175.911 313.885 175.286 313.388C174.661 312.891 173.879 312.632 173.081 312.658C172.282 312.684 171.519 312.993 170.928 313.529C170.336 314.066 169.954 314.795 169.851 315.587C169.733 314.798 169.34 314.077 168.74 313.551C168.141 313.025 167.374 312.729 166.577 312.716C165.78 312.702 165.003 312.972 164.386 313.477C163.769 313.982 163.352 314.69 163.208 315.474C163.054 316.632 163.351 317.805 164.037 318.75C164.724 319.682 165.525 320.525 166.422 321.258C167.64 322.281 168.755 323.305 169.973 324.4C171.161 323.315 172.184 322.291 173.382 321.196C174.267 320.452 175.054 319.599 175.726 318.658C176.392 317.701 176.667 316.525 176.494 315.372Z" fill="#004E9E"/>
<path d="M175.501 133.269C179.582 133.269 182.891 129.96 182.891 125.878C182.891 121.797 179.582 118.488 175.501 118.488C171.419 118.488 168.11 121.797 168.11 125.878C168.11 129.96 171.419 133.269 175.501 133.269Z" fill="#EBEBEB"/>
<path d="M304.317 283.895C304.317 284.049 273.344 284.171 235.144 284.171C196.944 284.171 165.961 284.049 165.961 283.895C165.961 283.742 196.934 283.629 235.144 283.629C273.354 283.629 304.317 283.752 304.317 283.895Z" fill="#455A64"/>
<path d="M304.317 272.383C304.317 272.527 273.344 272.649 235.144 272.649C196.944 272.649 165.961 272.527 165.961 272.383C165.961 272.24 196.934 272.117 235.144 272.117C273.354 272.117 304.317 272.24 304.317 272.383Z" fill="#455A64"/>
<path d="M241.265 295.575C241.265 295.718 224.407 295.841 203.618 295.841C182.829 295.841 165.961 295.718 165.961 295.575C165.961 295.431 182.819 295.309 203.618 295.309C224.417 295.309 241.265 295.431 241.265 295.575Z" fill="#455A64"/>
<path d="M231.982 421.097C231.972 421.678 231.79 422.244 231.459 422.722C231.128 423.201 230.663 423.571 230.123 423.785C229.582 424 228.99 424.05 228.421 423.929C227.852 423.808 227.332 423.521 226.925 423.105C226.519 422.688 226.245 422.161 226.138 421.59C226.03 421.018 226.094 420.427 226.322 419.892C226.55 419.356 226.931 418.901 227.417 418.581C227.903 418.262 228.473 418.094 229.055 418.098C229.444 418.102 229.829 418.183 230.187 418.336C230.545 418.489 230.869 418.711 231.141 418.989C231.413 419.268 231.627 419.598 231.772 419.959C231.916 420.321 231.988 420.707 231.982 421.097Z" fill="#263238"/>
<path d="M241.05 421.136C241.038 421.714 240.856 422.277 240.525 422.752C240.195 423.227 239.731 423.594 239.193 423.807C238.654 424.019 238.065 424.068 237.499 423.947C236.933 423.826 236.416 423.541 236.011 423.126C235.607 422.712 235.334 422.188 235.227 421.619C235.119 421.05 235.183 420.462 235.408 419.929C235.634 419.396 236.012 418.942 236.495 418.623C236.978 418.304 237.544 418.135 238.123 418.137C238.513 418.139 238.898 418.219 239.257 418.372C239.615 418.524 239.94 418.747 240.213 419.025C240.485 419.304 240.699 419.634 240.843 419.997C240.987 420.359 241.057 420.746 241.05 421.136Z" fill="#263238"/>
<path d="M250.19 421.179C250.178 421.757 249.995 422.32 249.665 422.795C249.334 423.27 248.871 423.637 248.332 423.85C247.794 424.062 247.205 424.111 246.639 423.99C246.073 423.869 245.555 423.583 245.151 423.169C244.747 422.755 244.474 422.231 244.366 421.662C244.259 421.093 244.322 420.505 244.548 419.972C244.773 419.439 245.151 418.985 245.634 418.666C246.117 418.347 246.684 418.178 247.263 418.18C247.652 418.184 248.037 418.265 248.395 418.418C248.753 418.571 249.077 418.793 249.349 419.071C249.621 419.35 249.835 419.68 249.98 420.041C250.124 420.403 250.195 420.789 250.19 421.179Z" fill="#263238"/>
<path d="M321.523 140.496H157.823V240.601H321.523V140.496Z" fill="#E0E0E0"/>
<path d="M172.942 240.629L219.842 177.844L248.932 217.108L268.636 196.104L307.296 240.588L172.942 240.629Z" fill="#F5F5F5"/>
<path d="M261.255 170.136C261.257 172.23 260.638 174.277 259.477 176.019C258.315 177.761 256.663 179.119 254.729 179.921C252.795 180.724 250.667 180.935 248.613 180.528C246.559 180.121 244.673 179.113 243.191 177.634C241.71 176.154 240.701 174.268 240.292 172.215C239.883 170.161 240.092 168.033 240.893 166.098C241.693 164.164 243.05 162.51 244.791 161.347C246.531 160.183 248.578 159.563 250.672 159.563C253.477 159.562 256.167 160.676 258.152 162.659C260.136 164.641 261.253 167.331 261.255 170.136Z" fill="#F5F5F5"/>
<path d="M321.083 333.643C321.083 331.504 320.98 241.072 320.837 107.189L321.083 107.435H157.404L157.67 107.168C157.67 191.859 157.67 270.233 157.67 333.623L157.445 333.408L321.144 333.623L157.445 333.848H157.23V333.623C157.23 270.233 157.23 191.859 157.179 107.168V106.902H157.465H321.144H321.39V107.138C321.339 174.151 321.298 230.785 321.267 270.684C321.267 290.602 321.216 306.334 321.206 317.102C321.206 322.466 321.206 326.591 321.206 329.385C321.206 330.767 321.206 331.821 321.206 332.538C321.206 333.254 321.083 333.643 321.083 333.643Z" fill="#263238"/>
<path d="M244.122 361.739L247.745 349.569C248.38 346.928 249.219 343.817 250.345 340.265C251.369 337.071 253.968 333.714 256.343 331.298C260.038 327.542 261.799 327.521 264.276 325.525C264.501 325.382 264.757 325.167 264.972 325.055C265.44 324.8 265.851 324.451 266.18 324.031C268.319 321.718 266.262 318.125 261.911 318.473C258.646 318.729 253.303 319.66 244.623 328.617C244.511 328.76 244.398 328.873 244.296 329.006C239.741 334.932 235.462 318.023 234.684 311.728C234.534 310.752 234.165 309.823 233.606 309.009C233.048 308.195 232.313 307.517 231.457 307.026C230.601 306.534 229.645 306.242 228.66 306.17C227.676 306.098 226.688 306.248 225.769 306.61L204.622 316.498C202.605 315.913 200.454 315.984 198.481 316.702C197.001 317.222 195.768 318.274 195.022 319.654C194.277 321.033 194.072 322.642 194.448 324.164L203.036 358.361L177.846 442.192H232.146L244.122 361.739Z" fill="#FFBE9D"/>
<path d="M285.883 284.749L269.096 317.646L260.703 315.312L218.532 349.633C216.811 351.041 214.608 351.722 212.392 351.531C210.177 351.339 208.123 350.291 206.669 348.609L190.599 329.949C190.599 329.949 222.995 315.998 228.982 304.452C234.97 292.906 228.051 290.276 228.051 290.276L243.292 272.957L285.883 284.749Z" fill="#004E9E"/>
<path d="M264.111 217.561C264.111 217.561 239.546 212.126 204.959 178.88C170.373 145.635 154.139 101.447 149.953 101.693C145.766 101.939 127.24 93.3304 92.0903 169.781C56.941 246.231 70.7899 263.949 77.7604 263.847C84.7309 263.744 132.235 250.469 161.898 253.836C191.561 257.204 229.689 272.67 229.689 272.67L264.111 217.561Z" fill="#004E9E"/>
<path d="M316.303 259.23L307.92 275.167L304.164 282.332C301.684 287.049 297.489 290.634 292.444 292.348C287.399 294.062 281.889 293.774 277.049 291.544L224.387 273.192L255.094 203.18L307.705 231.215C312.545 233.805 316.165 238.204 317.776 243.451C319.386 248.699 318.857 254.371 316.303 259.23Z" fill="#004E9E"/>
<g opacity="0.4">
<path d="M316.302 259.23L307.919 275.167L304.163 282.332C301.683 287.049 297.488 290.634 292.443 292.348C287.398 294.062 281.888 293.774 277.048 291.544L224.386 273.192L255.093 203.18L307.704 231.215C312.544 233.805 316.164 238.204 317.775 243.451C319.385 248.699 318.856 254.371 316.302 259.23Z" fill="black"/>
</g>
<path d="M94.8956 171.172C76.195 212.586 68.4056 249.496 77.4949 253.6C86.5842 257.705 109.133 227.469 127.834 186.045C146.535 144.621 154.324 107.732 145.235 103.617C136.145 99.502 113.596 129.759 94.8956 171.172Z" fill="#004E9E"/>
<g opacity="0.5">
<path d="M94.8946 171.172C76.194 212.586 68.4047 249.496 77.494 253.6C86.5832 257.705 109.132 227.469 127.833 186.045C146.534 144.621 154.323 107.732 145.234 103.617C136.144 99.502 113.595 129.759 94.8946 171.172Z" fill="black"/>
</g>
<path d="M320.828 282.262L306.549 277.779L315.382 260.992L326.089 267.645L320.828 282.262Z" fill="#004E9E"/>
<g opacity="0.6">
<path d="M315.381 260.992L306.548 277.779L309.485 278.7L316.661 261.78L315.381 260.992Z" fill="black"/>
</g>
<path d="M305.534 264.861C305.33 265.322 298.205 262.558 289.628 258.72C281.05 254.881 274.274 251.319 274.469 250.859C274.663 250.398 281.798 253.172 290.385 257.051C298.973 260.93 305.749 264.4 305.534 264.861Z" fill="#004E9E"/>
<path d="M309.936 254.858C309.711 255.308 303.262 252.596 295.534 248.788C287.806 244.98 281.726 241.531 281.951 241.07C282.177 240.61 288.615 243.332 296.343 247.14C304.071 250.948 310.161 254.397 309.936 254.858Z" fill="#004E9E"/>
<path d="M300.007 275.351C299.936 275.596 298.237 275.207 295.534 274.327C294.183 273.907 292.576 273.375 290.806 272.771C289.035 272.167 287.223 271.205 285.268 270.315C277.458 266.691 271.491 263.15 271.685 262.72C271.88 262.29 278.298 265.064 286.015 268.656C287.96 269.537 289.762 270.499 291.461 271.205C293.16 271.911 294.685 272.536 295.964 273.109C298.523 274.286 300.079 275.105 300.007 275.351Z" fill="#004E9E"/>
<path d="M133.023 161.972C133.023 161.972 111.671 148.727 99.9925 177.581C88.3136 206.436 110.771 211.175 110.771 211.175C120.468 195.904 127.96 179.339 133.023 161.972Z" fill="#004E9E"/>
<g opacity="0.5">
<path d="M155.736 127.578C155.869 127.578 155.562 129.564 154.907 133.095C154.252 136.626 153.269 141.734 151.897 148.019L148.929 158.121C148.39 159.93 147.834 161.803 147.261 163.741L146.391 166.678C146.073 167.702 145.654 168.633 145.285 169.626L140.464 182.073C140.044 183.158 139.615 184.243 139.195 185.338C138.775 186.433 138.171 187.477 137.69 188.562L134.517 195.113L131.334 201.654C130.791 202.677 130.31 203.824 129.727 204.827C129.143 205.83 128.529 206.874 127.946 207.846L121.139 219.341C120.586 220.242 120.116 221.173 119.501 222.033L117.731 224.541L114.332 229.331L108.191 237.898C104.097 242.842 100.678 246.742 98.3238 249.454C97.1674 250.923 95.8904 252.293 94.5059 253.549C95.4681 251.951 96.5638 250.438 97.7813 249.025C100.054 246.128 103.257 242.074 107.188 237.09L113.073 228.461L116.369 223.66C116.942 222.842 117.516 222.002 118.099 221.153C118.683 220.303 119.123 219.372 119.686 218.461L126.41 206.976L128.161 203.967C128.765 202.943 129.184 201.92 129.747 200.814L132.9 194.315C133.923 192.114 135.019 189.954 136.063 187.815C136.554 186.792 137.148 185.707 137.557 184.622L138.837 181.387L143.729 169.104C144.108 168.081 144.538 167.17 144.865 166.187C145.193 165.205 145.469 164.242 145.766 163.28L147.506 157.722L150.649 147.742L154.2 133.003C154.557 131.154 155.07 129.339 155.736 127.578Z" fill="black"/>
</g>
<g opacity="0.4">
<path d="M195.696 327.657C197.651 331.199 199.637 334.822 202.513 337.616C205.389 340.411 209.32 342.396 213.414 341.987C217.509 341.578 221.245 338.241 221.285 334.208C223.21 335.651 226.168 334.873 227.765 333.061C229.361 331.25 229.883 328.742 230.068 326.337C232.688 327.882 236.332 326.664 238.082 324.177C238.886 322.881 239.394 321.425 239.571 319.91C239.748 318.396 239.589 316.861 239.106 315.415C238.108 312.537 236.691 309.823 234.899 307.36C236.946 307.523 239.055 307.667 240.856 306.756C242.658 305.845 243.927 303.45 242.832 301.73C242.112 300.77 241.068 300.104 239.894 299.857C236.731 298.833 234.52 298.076 231.224 298.455C230.467 298.455 232.545 307.134 211.899 318.987C199.647 325.999 195.696 327.657 195.696 327.657Z" fill="black"/>
</g>
<path d="M242.186 340.145C242.186 340.237 240.804 339.971 238.573 340.032C235.673 340.101 232.821 340.786 230.206 342.04C227.591 343.295 225.272 345.091 223.404 347.31C221.961 349.009 221.357 350.247 221.224 350.196C221.309 349.877 221.443 349.573 221.623 349.295C222.061 348.516 222.557 347.77 223.107 347.064C224.947 344.729 227.298 342.846 229.979 341.562C232.66 340.277 235.6 339.624 238.573 339.653C239.466 339.659 240.356 339.741 241.234 339.899C241.564 339.924 241.886 340.007 242.186 340.145Z" fill="#EB996E"/>
<path d="M197.037 322.12C200.364 325.314 202.636 328.845 206.126 332.059C207.713 333.523 210.221 336.286 212.268 336.655C214.315 337.023 215.748 336.747 216.587 334.761C217.273 333.154 216.045 330.953 215.205 329.643C212.984 326.153 210.855 323.43 209.197 320.718C208.409 319.448 209.422 319.182 209.791 319.776C211.388 321.434 213.783 322.847 215.216 324.679C217.181 327.146 217.529 330.431 222.667 329.387C223.354 329.276 224.006 329.006 224.571 328.599C226.506 327.115 226.618 324.505 225.779 322.458C225.054 320.878 224.087 319.42 222.913 318.138C225.103 320.605 227.488 323.256 230.968 323.481C231.951 323.601 232.947 323.411 233.818 322.94C234.689 322.469 235.392 321.739 235.83 320.851C236.854 318.517 235.39 316.255 233.906 314.433C231.279 311.193 228.356 308.205 225.175 305.507C223.987 304.509 222.489 303.956 220.937 303.941C219.136 303.941 216.843 304.269 215.82 305.825C215.235 306.575 214.809 307.437 214.568 308.357C214.327 309.278 214.276 310.237 214.417 311.178C214.417 311.178 209.914 308.895 206.29 311.28C204.06 312.847 202.457 315.154 201.766 317.79L197.037 322.12Z" fill="#FFBE9D"/>
<path d="M221.039 302.958C220.318 302.121 219.872 301.084 219.758 299.987C219.645 298.889 219.87 297.782 220.404 296.816C221.172 295.312 222.134 293.848 223.117 293.52C227.405 292.077 246.157 295.322 245.983 299.478C245.809 303.633 244.438 305.619 234.273 304.155C232.482 303.899 229.678 303.551 229.678 303.551L227.221 307.236L221.039 302.958Z" fill="#FFBE9D"/>
<path d="M224.397 320.377C221.936 316.319 218.348 313.065 214.069 311.012C214.767 311.124 215.44 311.36 216.055 311.708C219.136 313.197 221.723 315.543 223.507 318.463C223.92 319.041 224.222 319.69 224.397 320.377Z" fill="#EB996E"/>
<path d="M227.549 307.594C227.457 307.676 226.219 306.673 224.53 305.639C223.823 305.192 223.092 304.785 222.339 304.421C221.756 304.155 221.367 304.084 221.377 304.002C221.387 303.92 221.817 303.879 222.462 304.073C223.292 304.34 224.084 304.715 224.816 305.189C226.546 306.243 227.682 307.482 227.549 307.594Z" fill="#EB996E"/>
<path d="M230.702 303.726C229.482 303.869 228.246 303.729 227.089 303.317C226.243 303.058 225.456 302.634 224.776 302.068C224.264 301.628 224.049 301.27 224.1 301.219C225.085 301.856 226.139 302.378 227.242 302.775C228.416 303.015 229.571 303.333 230.702 303.726Z" fill="#EB996E"/>
<path d="M212.482 325.527C211.835 324.849 211.262 324.104 210.772 323.306C209.604 321.415 208.126 319.734 206.402 318.331C204.614 317.024 202.399 316.439 200.199 316.694C199.297 316.855 198.419 317.134 197.589 317.523C197.589 317.523 197.773 317.308 198.193 317.052C198.79 316.689 199.45 316.44 200.138 316.315C201.283 316.13 202.455 316.175 203.583 316.447C204.711 316.72 205.774 317.214 206.709 317.901C208.49 319.333 209.978 321.095 211.09 323.091C211.621 323.862 212.087 324.677 212.482 325.527Z" fill="#EB996E"/>
<path d="M226.823 366.98C224.298 367.518 221.74 367.883 219.166 368.076C216.607 368.447 214.025 368.638 211.438 368.649C213.967 368.112 216.528 367.747 219.105 367.554C221.662 367.189 224.24 366.997 226.823 366.98Z" fill="#EB996E"/>
<path d="M388.065 26.5625L389.222 28.6813L391.33 29.8379L389.222 30.9945L388.065 33.1031L386.908 30.9945L384.8 29.8379L386.908 28.6813L388.065 26.5625Z" fill="#004E9E"/>
<path d="M412.231 78.9375L413.388 81.0563L415.497 82.2129L413.388 83.3695L412.231 85.4781L411.075 83.3695L408.956 82.2129L411.075 81.0563L412.231 78.9375Z" fill="#004E9E"/>
<path d="M24.9742 218.676L26.1308 220.795L28.2496 221.951L26.1308 223.098L24.9742 225.216L23.8175 223.098L21.709 221.951L23.8175 220.795L24.9742 218.676Z" fill="#004E9E"/>
<path d="M356.365 39.582L359.036 44.4645L363.919 47.136L359.036 49.7972L356.365 54.6797L353.704 49.7972L348.821 47.136L353.704 44.4645L356.365 39.582Z" fill="#004E9E"/>
<path d="M46.6331 185.48L49.2944 190.342L54.1665 193.004L49.2944 195.675L46.6331 200.537L43.9718 195.675L39.0996 193.004L43.9718 190.342L46.6331 185.48Z" fill="#004E9E"/>
<path d="M418.802 301.617L421.463 306.489L426.325 309.151L421.463 311.812L418.802 316.684L416.141 311.812L411.269 309.151L416.141 306.489L418.802 301.617Z" fill="#004E9E"/>
</svg>
