<svg width="567" height="424" viewBox="0 0 567 424" fill="none" xmlns="http://www.w3.org/2000/svg">
<path d="M567 372.141H0V372.424H567V372.141Z" fill="#EBEBEB"/>
<path d="M510.185 390.383H472.627V390.666H510.185V390.383Z" fill="#EBEBEB"/>
<path d="M375.603 393.469H365.748V393.752H375.603V393.469Z" fill="#EBEBEB"/>
<path d="M471.494 379.863H449.732V380.147H471.494V379.863Z" fill="#EBEBEB"/>
<path d="M108.466 381.766H59.4883V382.049H108.466V381.766Z" fill="#EBEBEB"/>
<path d="M125.749 381.766H118.57V382.049H125.749V381.766Z" fill="#EBEBEB"/>
<path d="M255.321 386.551H149.088V386.834H255.321V386.551Z" fill="#EBEBEB"/>
<path d="M268.758 321.562H49.7939C48.0785 321.559 46.4345 320.876 45.2226 319.662C44.0107 318.448 43.3301 316.803 43.3301 315.087V7.28563C43.345 5.58012 44.0322 3.94938 45.2425 2.74761C46.4528 1.54584 48.0883 0.870109 49.7939 0.867188H268.758C270.475 0.867188 272.122 1.54939 273.337 2.76371C274.551 3.97804 275.233 5.62501 275.233 7.34233V315.087C275.233 316.805 274.551 318.452 273.337 319.666C272.122 320.88 270.475 321.562 268.758 321.562ZM49.7939 1.09399C48.1537 1.09699 46.5818 1.75065 45.4231 2.91148C44.2644 4.07231 43.6136 5.64547 43.6136 7.28563V315.087C43.6136 316.727 44.2644 318.301 45.4231 319.461C46.5818 320.622 48.1537 321.276 49.7939 321.279H268.758C270.399 321.276 271.972 320.623 273.133 319.462C274.293 318.302 274.947 316.728 274.95 315.087V7.28563C274.947 5.64442 274.293 4.0713 273.133 2.91079C271.972 1.75028 270.399 1.09699 268.758 1.09399H49.7939Z" fill="#EBEBEB"/>
<path d="M514.054 321.562H295.079C293.362 321.559 291.717 320.876 290.503 319.663C289.29 318.449 288.607 316.804 288.604 315.087V7.28563C288.621 5.57909 289.311 3.94835 290.523 2.7469C291.735 1.54544 293.372 0.870077 295.079 0.867188H514.054C515.758 0.873089 517.39 1.55014 518.598 2.75159C519.806 3.95304 520.492 5.58208 520.507 7.28563V315.087C520.507 316.801 519.827 318.444 518.618 319.658C517.409 320.872 515.767 321.556 514.054 321.562ZM295.079 1.09399C293.437 1.09699 291.864 1.75028 290.704 2.91079C289.543 4.0713 288.89 5.64442 288.887 7.28563V315.087C288.89 316.728 289.543 318.302 290.704 319.462C291.864 320.623 293.437 321.276 295.079 321.279H514.054C515.695 321.276 517.268 320.623 518.429 319.462C519.589 318.302 520.243 316.728 520.246 315.087V7.28563C520.243 5.64442 519.589 4.0713 518.429 2.91079C517.268 1.75028 515.695 1.09699 514.054 1.09399H295.079Z" fill="#EBEBEB"/>
<path d="M438.653 81.9499L448.859 89.423C387.045 174.065 309.377 224.664 217.909 239.803C153.271 250.508 103.59 238.828 95.8906 236.843V260.169C117.967 264.842 140.482 267.123 163.046 266.973C182.296 266.97 201.515 265.419 220.517 262.335C264.384 255.225 306.504 239.86 344.645 217.055C390.538 189.703 431.713 151.283 467.117 102.85L477.164 110.232L477.334 69.6914L438.653 81.9499Z" fill="#E0E0E0"/>
<path d="M107.162 269.273H96.9902V371.458H107.162V269.273Z" fill="#EBEBEB"/>
<path d="M131.703 273.812H121.531V371.461H131.703V273.812Z" fill="#EBEBEB"/>
<path d="M156.254 276.078H146.082V371.459H156.254V276.078Z" fill="#EBEBEB"/>
<path d="M180.795 276.078H170.623V371.459H180.795V276.078Z" fill="#EBEBEB"/>
<path d="M205.344 274.945H195.172V371.46H205.344V274.945Z" fill="#EBEBEB"/>
<path d="M229.883 271.543H219.711V371.46H229.883V271.543Z" fill="#EBEBEB"/>
<path d="M254.426 265.871H244.254V371.458H254.426V265.871Z" fill="#EBEBEB"/>
<path d="M278.975 260.199H268.803V371.456H278.975V260.199Z" fill="#EBEBEB"/>
<path d="M303.514 255.668H293.342V371.461H303.514V255.668Z" fill="#EBEBEB"/>
<path d="M328.067 240.844H317.895V371.469H328.067V240.844Z" fill="#EBEBEB"/>
<path d="M352.606 228.383H342.434V371.471H352.606V228.383Z" fill="#EBEBEB"/>
<path d="M377.158 214.184H366.986V371.458H377.158V214.184Z" fill="#EBEBEB"/>
<path d="M401.697 195.27H391.525V371.459H401.697V195.27Z" fill="#EBEBEB"/>
<path d="M426.248 175.527H416.076V371.46H426.248V175.527Z" fill="#EBEBEB"/>
<path d="M450.789 149.203H440.617V371.456H450.789V149.203Z" fill="#EBEBEB"/>
<path d="M475.338 120.492H465.166V371.458H475.338V120.492Z" fill="#EBEBEB"/>
<path d="M283.5 423.35C404.932 423.35 503.371 417.602 503.371 410.513C503.371 403.423 404.932 397.676 283.5 397.676C162.069 397.676 63.6289 403.423 63.6289 410.513C63.6289 417.602 162.069 423.35 283.5 423.35Z" fill="#F5F5F5"/>
<path d="M450.766 245.121C428.983 299.228 397.989 349.152 359.162 392.678L288.922 349.075C327.753 305.546 358.75 255.619 380.538 201.508L450.766 245.121Z" fill="#004E9E"/>
<path opacity="0.4" d="M450.778 245.107C428.982 299.216 397.981 349.142 359.15 392.674L328.793 373.827L288.922 349.083C327.753 305.554 358.75 255.626 380.538 201.516C403.944 216.061 427.357 230.591 450.778 245.107Z" fill="white"/>
<path opacity="0.2" d="M392.093 213.845C391.598 215.171 390.809 216.368 389.784 217.345C388.76 218.321 387.527 219.053 386.178 219.484C384.83 219.916 383.401 220.035 382 219.834C380.599 219.633 379.261 219.117 378.089 218.324C358.868 262.07 333.535 302.866 302.848 339.492C304.079 340.191 305.135 341.16 305.937 342.327C306.738 343.494 307.265 344.827 307.477 346.227C307.689 347.626 307.58 349.056 307.159 350.408C306.739 351.759 306.017 352.998 305.048 354.03L348.831 381.246C350.919 378.931 353.739 377.403 356.819 376.917C359.899 376.432 363.052 377.02 365.751 378.581C396.438 341.951 421.771 301.151 440.992 257.402C438.397 255.675 436.473 253.111 435.542 250.136C434.611 247.162 434.73 243.958 435.877 241.061V240.97L392.105 213.754L392.093 213.845ZM394.123 313.353C387.387 324.183 372.702 327.222 361.918 320.531C351.133 313.841 348.31 299.915 355.034 289.086C361.759 278.256 375.548 274.65 386.344 281.352C397.14 288.054 400.882 302.512 394.123 313.353Z" fill="black"/>
<g opacity="0.2">
<path d="M386.275 305.588L389.167 307.379C388.736 308.094 388.294 308.808 387.851 309.511L384.971 307.731C383.478 309.986 381.329 311.728 378.813 312.721L376.942 309.942C379.029 309.153 380.846 307.783 382.181 305.996L376.999 302.775C374.504 305.225 371.601 307.708 368.006 305.474C365.364 303.83 364.298 300.507 366.441 296.221L363.516 294.406C363.958 293.692 364.4 292.989 364.831 292.275L367.711 294.055C368.935 292.241 370.586 290.757 372.52 289.734L374.481 292.433C372.936 293.284 371.582 294.442 370.501 295.835L375.729 299.09C378.224 296.629 381.025 294.021 384.619 296.255C387.262 297.842 388.373 301.233 386.275 305.588ZM373.869 300.836L369.254 297.979C368.392 299.997 368.834 301.381 369.968 302.05C371.102 302.719 372.486 302.072 373.869 300.836ZM382.828 299.702C381.558 298.92 380.265 299.702 378.87 300.984L383.406 303.83C384.336 301.755 383.939 300.394 382.828 299.702Z" fill="black"/>
</g>
<path opacity="0.2" d="M450.777 245.113C428.981 299.222 397.981 349.149 359.15 392.681L328.793 373.834L304.695 333.134C304.695 333.134 400.802 293.308 450.777 245.113Z" fill="black"/>
<path d="M502.931 321.11C458.178 358.535 407.28 387.924 352.495 407.975C338.728 384.108 324.954 360.241 311.172 336.374C365.955 316.34 416.854 286.966 461.608 249.555C475.39 273.399 489.165 297.251 502.931 321.11Z" fill="#004E9E"/>
<path opacity="0.4" d="M502.931 321.11C458.178 358.535 407.28 387.924 352.495 407.975C338.728 384.108 324.954 360.241 311.172 336.374C365.955 316.34 416.854 286.966 461.608 249.555C475.39 273.399 489.165 297.251 502.931 321.11Z" fill="white"/>
<path opacity="0.2" d="M465.972 265.841C464.91 266.776 463.649 267.457 462.285 267.835C460.92 268.212 459.488 268.274 458.096 268.018C456.704 267.761 455.389 267.192 454.248 266.353C453.108 265.515 452.173 264.428 451.514 263.176C413.894 292.668 372.276 316.669 327.908 334.459C328.661 335.656 329.134 337.008 329.289 338.414C329.444 339.82 329.279 341.243 328.805 342.576C328.332 343.909 327.562 345.117 326.554 346.109C325.546 347.101 324.326 347.852 322.986 348.305L348.739 392.928C351.676 391.876 354.886 391.866 357.829 392.898C360.773 393.93 363.273 395.943 364.91 398.598C409.279 380.808 450.896 356.807 488.516 327.315C487.033 324.563 486.542 321.385 487.127 318.314C487.711 315.243 489.335 312.467 491.726 310.452L491.805 310.384L466.074 265.784L465.972 265.841ZM420.771 354.519C409.715 360.881 395.347 356.629 389.019 345.629C382.691 334.629 386.751 321.032 397.808 314.671C408.864 308.309 422.756 311.632 429.049 322.609C435.343 333.586 431.839 348.169 420.771 354.519Z" fill="black"/>
<g opacity="0.2">
<path d="M417.518 343.961C418.096 344.936 418.652 345.923 419.23 346.91L417.053 348.168L415.363 345.231C412.981 346.517 410.261 347.039 407.572 346.728C407.459 345.594 407.357 344.46 407.243 343.394C409.454 343.687 411.702 343.337 413.719 342.385L410.679 337.112C407.277 338.087 403.592 338.904 401.471 335.241C399.918 332.542 400.553 329.106 404.465 326.339C403.887 325.341 403.331 324.354 402.741 323.356L404.907 322.098L406.597 325.035C408.532 324.012 410.69 323.482 412.879 323.492C413.038 324.626 413.186 325.692 413.344 326.792C411.587 326.817 409.854 327.203 408.253 327.926C409.273 329.711 410.298 331.487 411.326 333.256C414.671 332.27 418.379 331.294 420.5 334.957C422.054 337.599 421.43 341.069 417.518 343.961ZM408.831 333.914L406.121 329.219C404.408 330.591 404.148 331.986 404.828 333.143C405.508 334.3 407.039 334.345 408.831 333.914ZM417.268 337.146C416.52 335.853 415 335.932 413.163 336.409C414.07 337.962 414.966 339.527 415.862 341.081C417.631 339.663 417.926 338.28 417.313 337.146H417.268Z" fill="black"/>
</g>
<path d="M433.222 407.934H477.482V399.247H433.222V407.934Z" fill="#004E9E"/>
<path opacity="0.2" d="M433.222 407.934H442.975V399.247H433.222V407.934Z" fill="black"/>
<path opacity="0.2" d="M447.659 399.238H444.109V407.925H447.659V399.238Z" fill="black"/>
<path opacity="0.2" d="M452.206 399.238H449.779V407.925H452.206V399.238Z" fill="black"/>
<path opacity="0.2" d="M456.663 399.238H455.449V407.925H456.663V399.238Z" fill="black"/>
<path opacity="0.2" d="M463.999 399.238H463.387V407.925H463.999V399.238Z" fill="black"/>
<path d="M435.308 399.293H479.568V390.607H435.308V399.293Z" fill="#004E9E"/>
<path opacity="0.2" d="M435.308 399.293H445.061V390.607H435.308V399.293Z" fill="black"/>
<path opacity="0.2" d="M449.745 390.594H446.195V399.28H449.745V390.594Z" fill="black"/>
<path opacity="0.2" d="M454.292 390.594H451.865V399.28H454.292V390.594Z" fill="black"/>
<path opacity="0.2" d="M458.749 390.594H457.535V399.28H458.749V390.594Z" fill="black"/>
<path opacity="0.2" d="M466.085 390.594H465.473V399.28H466.085V390.594Z" fill="black"/>
<path d="M431.363 390.652H475.623V381.966H431.363V390.652Z" fill="#004E9E"/>
<path opacity="0.2" d="M431.361 390.652H441.113V381.966H431.361V390.652Z" fill="black"/>
<path opacity="0.2" d="M445.788 381.953H442.238V390.64H445.788V381.953Z" fill="black"/>
<path opacity="0.2" d="M450.335 381.953H447.908V390.64H450.335V381.953Z" fill="black"/>
<path opacity="0.2" d="M454.791 381.953H453.578V390.64H454.791V381.953Z" fill="black"/>
<path opacity="0.2" d="M462.128 381.953H461.516V390.64H462.128V381.953Z" fill="black"/>
<path d="M433.222 382.012H477.482V373.325H433.222V382.012Z" fill="#004E9E"/>
<path opacity="0.2" d="M433.222 382.012H442.975V373.325H433.222V382.012Z" fill="black"/>
<path opacity="0.2" d="M447.659 373.312H444.109V381.999H447.659V373.312Z" fill="black"/>
<path opacity="0.2" d="M452.206 373.312H449.779V381.999H452.206V373.312Z" fill="black"/>
<path opacity="0.2" d="M456.663 373.312H455.449V381.999H456.663V373.312Z" fill="black"/>
<path opacity="0.2" d="M463.999 373.312H463.387V381.999H463.999V373.312Z" fill="black"/>
<path d="M434.345 373.371H478.605V364.685H434.345V373.371Z" fill="#004E9E"/>
<path opacity="0.2" d="M434.345 373.371H444.098V364.685H434.345V373.371Z" fill="black"/>
<path opacity="0.2" d="M448.794 364.672H445.244V373.358H448.794V364.672Z" fill="black"/>
<path opacity="0.2" d="M453.339 364.672H450.912V373.358H453.339V364.672Z" fill="black"/>
<path opacity="0.2" d="M457.795 364.672H456.582V373.358H457.795V364.672Z" fill="black"/>
<path opacity="0.2" d="M465.132 364.672H464.52V373.358H465.132V364.672Z" fill="black"/>
<path d="M433.211 364.727H477.471V356.04H433.211V364.727Z" fill="#004E9E"/>
<path opacity="0.2" d="M433.21 364.727H442.963V356.04H433.21V364.727Z" fill="black"/>
<path opacity="0.2" d="M447.659 356.031H444.109V364.718H447.659V356.031Z" fill="black"/>
<path opacity="0.2" d="M452.206 356.031H449.779V364.718H452.206V356.031Z" fill="black"/>
<path opacity="0.2" d="M456.663 356.031H455.449V364.718H456.663V356.031Z" fill="black"/>
<path opacity="0.2" d="M463.999 356.031H463.387V364.718H463.999V356.031Z" fill="black"/>
<path d="M433.211 356.086H477.471V347.399H433.211V356.086Z" fill="#004E9E"/>
<path opacity="0.2" d="M433.21 356.086H442.963V347.399H433.21V356.086Z" fill="black"/>
<path opacity="0.2" d="M447.659 347.391H444.109V356.077H447.659V347.391Z" fill="black"/>
<path opacity="0.2" d="M452.206 347.391H449.779V356.077H452.206V347.391Z" fill="black"/>
<path opacity="0.2" d="M456.663 347.391H455.449V356.077H456.663V347.391Z" fill="black"/>
<path opacity="0.2" d="M463.999 347.391H463.387V356.077H463.999V347.391Z" fill="black"/>
<path d="M435.478 347.445H479.738V338.759H435.478V347.445Z" fill="#004E9E"/>
<path opacity="0.2" d="M435.478 347.445H445.23V338.759H435.478V347.445Z" fill="black"/>
<path opacity="0.2" d="M449.926 338.746H446.377V347.433H449.926V338.746Z" fill="black"/>
<path opacity="0.2" d="M454.474 338.746H452.047V347.433H454.474V338.746Z" fill="black"/>
<path opacity="0.2" d="M458.93 338.746H457.717V347.433H458.93V338.746Z" fill="black"/>
<path opacity="0.2" d="M466.267 338.746H465.654V347.433H466.267V338.746Z" fill="black"/>
<path d="M433.211 338.805H477.471V330.118H433.211V338.805Z" fill="#004E9E"/>
<path opacity="0.2" d="M433.21 338.805H442.963V330.118H433.21V338.805Z" fill="black"/>
<path opacity="0.2" d="M447.659 330.105H444.109V338.792H447.659V330.105Z" fill="black"/>
<path opacity="0.2" d="M452.206 330.105H449.779V338.792H452.206V330.105Z" fill="black"/>
<path opacity="0.2" d="M456.663 330.105H455.449V338.792H456.663V330.105Z" fill="black"/>
<path opacity="0.2" d="M463.999 330.105H463.387V338.792H463.999V330.105Z" fill="black"/>
<path d="M430.943 330.164H475.203V321.478H430.943V330.164Z" fill="#004E9E"/>
<path opacity="0.2" d="M430.943 330.164H440.695V321.478H430.943V330.164Z" fill="black"/>
<path opacity="0.2" d="M445.391 321.465H441.842V330.151H445.391V321.465Z" fill="black"/>
<path opacity="0.2" d="M449.938 321.465H447.512V330.151H449.938V321.465Z" fill="black"/>
<path opacity="0.2" d="M454.395 321.465H453.182V330.151H454.395V321.465Z" fill="black"/>
<path opacity="0.2" d="M461.73 321.465H461.117V330.151H461.73V321.465Z" fill="black"/>
<path d="M394.189 407.934H438.449V399.247H394.189V407.934Z" fill="#004E9E"/>
<path opacity="0.2" d="M394.191 407.934H403.943V399.247H394.191V407.934Z" fill="black"/>
<path opacity="0.2" d="M408.614 399.238H405.064V407.925H408.614V399.238Z" fill="black"/>
<path opacity="0.2" d="M413.161 399.238H410.734V407.925H413.161V399.238Z" fill="black"/>
<path opacity="0.2" d="M417.62 399.238H416.406V407.925H417.62V399.238Z" fill="black"/>
<path opacity="0.2" d="M424.956 399.238H424.344V407.925H424.956V399.238Z" fill="black"/>
<path d="M396.457 399.293H440.717V390.607H396.457V399.293Z" fill="#004E9E"/>
<path opacity="0.2" d="M396.459 399.293H406.211V390.607H396.459V399.293Z" fill="black"/>
<path opacity="0.2" d="M410.881 390.594H407.332V399.28H410.881V390.594Z" fill="black"/>
<path opacity="0.2" d="M415.429 390.594H413.002V399.28H415.429V390.594Z" fill="black"/>
<path opacity="0.2" d="M419.887 390.594H418.674V399.28H419.887V390.594Z" fill="black"/>
<path opacity="0.2" d="M427.224 390.594H426.611V399.28H427.224V390.594Z" fill="black"/>
<path d="M394.189 390.652H438.449V381.966H394.189V390.652Z" fill="#004E9E"/>
<path opacity="0.2" d="M394.191 390.652H403.943V381.966H394.191V390.652Z" fill="black"/>
<path opacity="0.2" d="M408.614 381.953H405.064V390.64H408.614V381.953Z" fill="black"/>
<path opacity="0.2" d="M413.161 381.953H410.734V390.64H413.161V381.953Z" fill="black"/>
<path opacity="0.2" d="M417.62 381.953H416.406V390.64H417.62V381.953Z" fill="black"/>
<path opacity="0.2" d="M424.956 381.953H424.344V390.64H424.956V381.953Z" fill="black"/>
<path d="M395.324 382.012H439.584V373.325H395.324V382.012Z" fill="#004E9E"/>
<path opacity="0.2" d="M395.324 382.012H405.076V373.325H395.324V382.012Z" fill="black"/>
<path opacity="0.2" d="M409.749 373.312H406.199V381.999H409.749V373.312Z" fill="black"/>
<path opacity="0.2" d="M414.296 373.312H411.869V381.999H414.296V373.312Z" fill="black"/>
<path opacity="0.2" d="M418.752 373.312H417.539V381.999H418.752V373.312Z" fill="black"/>
<path opacity="0.2" d="M426.089 373.312H425.477V381.999H426.089V373.312Z" fill="black"/>
<path d="M394.189 373.371H438.449V364.685H394.189V373.371Z" fill="#004E9E"/>
<path opacity="0.2" d="M394.191 373.371H403.943V364.685H394.191V373.371Z" fill="black"/>
<path opacity="0.2" d="M408.626 364.672H405.076V373.358H408.626V364.672Z" fill="black"/>
<path opacity="0.2" d="M413.173 364.672H410.746V373.358H413.173V364.672Z" fill="black"/>
<path opacity="0.2" d="M417.629 364.672H416.416V373.358H417.629V364.672Z" fill="black"/>
<path opacity="0.2" d="M424.968 364.672H424.355V373.358H424.968V364.672Z" fill="black"/>
<path d="M397.592 364.727H441.852V356.04H397.592V364.727Z" fill="#004E9E"/>
<path opacity="0.2" d="M397.591 364.727H407.344V356.04H397.591V364.727Z" fill="black"/>
<path opacity="0.2" d="M412.028 356.031H408.479V364.718H412.028V356.031Z" fill="black"/>
<path opacity="0.2" d="M416.575 356.031H414.148V364.718H416.575V356.031Z" fill="black"/>
<path opacity="0.2" d="M421.032 356.031H419.818V364.718H421.032V356.031Z" fill="black"/>
<path opacity="0.2" d="M428.37 356.031H427.758V364.718H428.37V356.031Z" fill="black"/>
<path d="M364.932 49.0625H199.719C193.206 49.0625 187.926 54.3427 187.926 60.8561V396.135C187.926 402.648 193.206 407.928 199.719 407.928H364.932C371.445 407.928 376.725 402.648 376.725 396.135V60.8561C376.725 54.3427 371.445 49.0625 364.932 49.0625Z" fill="#263238"/>
<path d="M370.42 60.4357V395.941C370.42 396.554 370.298 397.161 370.061 397.726C369.824 398.291 369.477 398.803 369.04 399.233C368.603 399.663 368.085 400.001 367.516 400.228C366.947 400.455 366.338 400.567 365.725 400.556H198.551C197.994 400.564 197.442 400.459 196.927 400.248C196.412 400.037 195.945 399.724 195.554 399.328C195.163 398.932 194.857 398.461 194.652 397.943C194.448 397.425 194.351 396.872 194.366 396.315V60.0502C194.347 59.5601 194.424 59.071 194.593 58.6108C194.763 58.1506 195.021 57.7283 195.354 57.368C195.687 57.0078 196.087 56.7168 196.533 56.5115C196.978 56.3063 197.46 56.1909 197.95 56.1719H239.749C240.333 56.1826 240.901 56.3674 241.38 56.7028C241.859 57.0381 242.227 57.5087 242.437 58.0543L244.172 62.3182C244.385 62.8595 244.754 63.3253 245.233 63.6564C245.711 63.9875 246.277 64.169 246.859 64.1779H318.018C318.598 64.1739 319.163 63.9969 319.642 63.6696C320.121 63.3424 320.491 62.8797 320.705 62.3408L322.44 58.0657C322.648 57.5179 323.015 57.0449 323.494 56.7075C323.973 56.37 324.542 56.1835 325.128 56.1719H366.281C367.394 56.1928 368.453 56.6526 369.228 57.4513C370.004 58.25 370.432 59.3227 370.42 60.4357Z" fill="#004E9E"/>
<path opacity="0.7" d="M370.42 70.1445H194.355V386.712H370.42V70.1445Z" fill="white"/>
<path opacity="0.6" d="M278.408 59.0105C279.742 59.0105 280.823 57.9291 280.823 56.5951C280.823 55.2611 279.742 54.1797 278.408 54.1797C277.074 54.1797 275.992 55.2611 275.992 56.5951C275.992 57.9291 277.074 59.0105 278.408 59.0105Z" fill="white"/>
<path opacity="0.6" d="M285.767 56.5888C285.767 56.8965 285.676 57.1973 285.505 57.4531C285.333 57.7088 285.09 57.9079 284.806 58.0252C284.521 58.1424 284.208 58.1725 283.906 58.1116C283.605 58.0508 283.328 57.9017 283.111 57.6833C282.894 57.4649 282.747 57.187 282.689 56.8849C282.63 56.5828 282.662 56.27 282.782 55.9864C282.901 55.7027 283.102 55.4608 283.359 55.2915C283.616 55.1222 283.917 55.033 284.225 55.0352C284.429 55.0352 284.63 55.0755 284.818 55.1537C285.006 55.2319 285.176 55.3465 285.32 55.4909C285.463 55.6353 285.576 55.8067 285.653 55.9951C285.73 56.1835 285.769 56.3853 285.767 56.5888Z" fill="white"/>
<path opacity="0.6" d="M214.211 65.5156H216.389V62.6126H214.211V65.5156Z" fill="white"/>
<path opacity="0.6" d="M210.674 65.5156H212.852V61.6487H210.674V65.5156Z" fill="white"/>
<path opacity="0.6" d="M207.124 65.5078H209.301V60.677H207.124V65.5078Z" fill="white"/>
<path opacity="0.6" d="M203.586 65.5156H205.764V59.7095H203.586V65.5156Z" fill="white"/>
<path opacity="0.6" d="M350.961 61.5586H349.668V64.4616H350.961V61.5586Z" fill="white"/>
<path opacity="0.6" d="M351.833 65.5078H362.107V60.4955H351.833V65.5078Z" fill="white"/>
<path d="M370.512 70.1797H194.141V98.7565H370.512V70.1797Z" fill="#263238"/>
<g opacity="0.7">
<path d="M238.613 80.3254V83.2284H243.217V84.714H238.613V88.3654H236.844V78.8398H243.807V80.3254H238.613Z" fill="white"/>
<path d="M244.939 78.8878C244.942 78.7447 244.974 78.6037 245.033 78.4735C245.093 78.3433 245.178 78.2267 245.285 78.131C245.391 78.0353 245.516 77.9625 245.652 77.9171C245.787 77.8717 245.931 77.8547 246.073 77.8672C246.213 77.8497 246.355 77.8617 246.49 77.9024C246.625 77.9431 246.75 78.0116 246.857 78.1034C246.963 78.1953 247.05 78.3085 247.11 78.4358C247.171 78.563 247.204 78.7016 247.207 78.8424C247.139 79.0779 246.996 79.2849 246.799 79.4321C246.603 79.5793 246.364 79.6589 246.119 79.6589C245.873 79.6589 245.635 79.5793 245.438 79.4321C245.242 79.2849 245.099 79.0779 245.03 78.8424L244.939 78.8878ZM245.166 81.1558H246.867V88.4247H245.166V81.1558Z" fill="white"/>
<path d="M256.281 84.2063V88.3681H254.58V84.4218C254.58 83.129 253.944 82.5053 252.856 82.5053C252.571 82.4875 252.285 82.5333 252.02 82.6393C251.755 82.7453 251.516 82.909 251.322 83.1184C251.128 83.3279 250.983 83.5779 250.897 83.8504C250.811 84.1228 250.787 84.411 250.826 84.6939V88.3681H249.125V81.0992H250.747V82.0404C251.061 81.6958 251.447 81.4254 251.879 81.2489C252.311 81.0724 252.776 80.9941 253.241 81.0198C253.661 80.9881 254.083 81.05 254.477 81.2011C254.87 81.3522 255.225 81.5888 255.515 81.8936C255.806 82.1984 256.026 82.564 256.158 82.964C256.29 83.3639 256.332 83.7882 256.281 84.2063Z" fill="white"/>
<path d="M264.548 84.118V88.3705H262.949V87.4859C262.683 87.8247 262.335 88.0914 261.939 88.2617C261.543 88.4321 261.111 88.5006 260.681 88.4612C259.026 88.4612 257.982 87.554 257.982 86.2839C257.982 85.0138 258.788 84.1293 260.999 84.1293H262.87V84.0159C262.87 83.0293 262.28 82.4396 261.067 82.4396C260.27 82.4296 259.492 82.685 258.856 83.1654L258.198 81.918C259.101 81.3011 260.178 80.9874 261.271 81.0221C263.335 81.0221 264.548 82.0201 264.548 84.118ZM262.847 86.1025V85.252H261.101C259.967 85.252 259.627 85.6942 259.627 86.2158C259.627 86.7375 260.148 87.2251 261.01 87.2251C261.396 87.255 261.781 87.1627 262.11 86.9611C262.44 86.7595 262.698 86.4591 262.847 86.1025Z" fill="white"/>
<path d="M273.879 84.2072V88.369H272.156V84.4227C272.156 83.1299 271.521 82.5062 270.432 82.5062C270.147 82.4884 269.861 82.5341 269.596 82.6402C269.331 82.7462 269.093 82.9099 268.898 83.1193C268.704 83.3288 268.559 83.5788 268.473 83.8513C268.387 84.1237 268.363 84.4119 268.402 84.6948V88.369H266.701V81.1001H268.323V82.0413C268.639 81.6958 269.027 81.4249 269.461 81.2484C269.894 81.0719 270.362 80.9941 270.829 81.0207C271.25 80.9872 271.673 81.0478 272.068 81.1981C272.462 81.3485 272.819 81.5847 273.111 81.8898C273.403 82.1948 273.623 82.5611 273.756 82.9619C273.889 83.3627 273.931 83.7881 273.879 84.2072Z" fill="white"/>
<path d="M275.559 84.7866C275.552 84.2786 275.65 83.7745 275.847 83.3063C276.044 82.8381 276.336 82.4158 276.705 82.0663C277.074 81.7167 277.511 81.4475 277.989 81.2755C278.467 81.1035 278.976 81.0325 279.483 81.0671C280.108 81.0221 280.733 81.1573 281.284 81.4568C281.834 81.7563 282.288 82.2074 282.59 82.7568L281.286 83.5165C281.099 83.2038 280.832 82.9459 280.514 82.7687C280.195 82.5915 279.836 82.5014 279.471 82.5073C278.87 82.5073 278.293 82.7462 277.868 83.1716C277.442 83.5969 277.203 84.1738 277.203 84.7753C277.203 85.3768 277.442 85.9537 277.868 86.379C278.293 86.8043 278.87 87.0433 279.471 87.0433C279.836 87.0492 280.195 86.959 280.514 86.7819C280.832 86.6047 281.099 86.3468 281.286 86.034L282.59 86.7938C282.286 87.3425 281.833 87.7936 281.283 88.0947C280.733 88.3958 280.108 88.5346 279.483 88.4948C278.977 88.5293 278.469 88.4586 277.992 88.2873C277.514 88.116 277.078 87.8478 276.709 87.4994C276.341 87.1511 276.048 86.7303 275.85 86.2634C275.652 85.7965 275.553 85.2937 275.559 84.7866Z" fill="white"/>
<path d="M290.72 85.286H285.05C285.162 85.8143 285.464 86.283 285.899 86.6029C286.334 86.9228 286.871 87.0717 287.409 87.021C287.774 87.0341 288.138 86.9713 288.478 86.8366C288.817 86.7019 289.125 86.4983 289.382 86.2385L290.289 87.2818C289.739 87.8275 289.044 88.2051 288.287 88.3705C287.529 88.5359 286.741 88.4822 286.013 88.2157C285.285 87.9493 284.647 87.4811 284.176 86.8659C283.704 86.2507 283.417 85.5139 283.349 84.7417C283.335 84.2464 283.422 83.7535 283.606 83.2935C283.79 82.8335 284.067 82.4162 284.419 82.0674C284.771 81.7187 285.191 81.446 285.652 81.2662C286.114 81.0864 286.608 81.0033 287.103 81.0221C287.597 81.0039 288.089 81.0892 288.549 81.2724C289.008 81.4557 289.424 81.7329 289.77 82.0863C290.116 82.4397 290.384 82.8615 290.558 83.3246C290.731 83.7877 290.806 84.282 290.777 84.7757C290.743 84.9118 290.732 85.1159 290.72 85.286ZM285.05 84.152H289.167C289.115 83.6508 288.874 83.1884 288.492 82.8594C288.11 82.5305 287.617 82.36 287.114 82.3829C286.603 82.3534 286.1 82.5201 285.708 82.8489C285.316 83.1777 285.065 83.6438 285.005 84.152H285.05Z" fill="white"/>
<path d="M302.47 86.1655H297.718L296.777 88.3654H294.951L299.238 78.8398H300.984L305.282 88.3654H303.422L302.47 86.1655ZM301.891 84.7707L300.1 80.6089L298.308 84.782L301.891 84.7707Z" fill="white"/>
<path d="M314.035 84.7853C314.061 85.2776 313.984 85.7699 313.808 86.2306C313.632 86.6912 313.362 87.1101 313.015 87.4603C312.668 87.8105 312.252 88.0843 311.793 88.2642C311.334 88.4441 310.842 88.526 310.35 88.5048C309.915 88.5219 309.481 88.4434 309.079 88.2749C308.678 88.1064 308.318 87.852 308.025 87.5296V91.0563H306.324V81.1452H307.946V82.0977C308.242 81.755 308.613 81.484 309.029 81.3052C309.446 81.1265 309.897 81.0446 310.35 81.0658C310.842 81.0446 311.334 81.1265 311.793 81.3064C312.252 81.4863 312.668 81.7601 313.015 82.1103C313.362 82.4605 313.632 82.8794 313.808 83.34C313.984 83.8007 314.061 84.293 314.035 84.7853ZM312.312 84.7853C312.29 84.3642 312.144 83.9589 311.894 83.6196C311.644 83.2803 311.299 83.0219 310.903 82.8764C310.508 82.7309 310.078 82.7048 309.667 82.8012C309.257 82.8976 308.884 83.1124 308.594 83.4188C308.305 83.7253 308.111 84.11 308.038 84.5253C307.965 84.9406 308.015 85.3682 308.183 85.7551C308.351 86.1421 308.628 86.4713 308.981 86.7021C309.334 86.9328 309.747 87.0549 310.168 87.0533C310.462 87.0589 310.754 87.003 311.025 86.8893C311.296 86.7757 311.54 86.6067 311.742 86.3931C311.943 86.1796 312.098 85.9263 312.196 85.6494C312.295 85.3726 312.334 85.0782 312.312 84.7853Z" fill="white"/>
<path d="M323.379 84.7853C323.405 85.2776 323.327 85.7699 323.152 86.2306C322.976 86.6912 322.706 87.1101 322.359 87.4603C322.012 87.8105 321.596 88.0843 321.137 88.2642C320.678 88.4441 320.186 88.526 319.694 88.5048C319.257 88.5228 318.821 88.4448 318.417 88.2763C318.014 88.1078 317.652 87.8529 317.358 87.5296V91.0563H315.668V81.1452H317.278V82.0977C317.577 81.7547 317.949 81.4837 318.368 81.305C318.786 81.1263 319.239 81.0446 319.694 81.0658C320.186 81.0446 320.678 81.1265 321.137 81.3064C321.596 81.4863 322.012 81.7601 322.359 82.1103C322.706 82.4605 322.976 82.8794 323.152 83.34C323.327 83.8007 323.405 84.293 323.379 84.7853ZM321.644 84.7853C321.622 84.3642 321.477 83.9589 321.226 83.6196C320.976 83.2803 320.632 83.0219 320.236 82.8764C319.84 82.7309 319.41 82.7048 319 82.8012C318.589 82.8976 318.216 83.1124 317.927 83.4189C317.637 83.7253 317.444 84.1101 317.371 84.5253C317.297 84.9406 317.348 85.3682 317.515 85.7552C317.683 86.1421 317.961 86.4713 318.313 86.7021C318.666 86.9328 319.079 87.0549 319.501 87.0533C319.795 87.0589 320.086 87.003 320.357 86.8894C320.628 86.7757 320.872 86.6067 321.074 86.3931C321.276 86.1796 321.431 85.9263 321.529 85.6494C321.627 85.3726 321.666 85.0782 321.644 84.7853Z" fill="white"/>
</g>
<g opacity="0.7">
<path d="M206.104 89.7715C205.807 89.7702 205.521 89.6521 205.31 89.4426L201.046 85.1901C200.94 85.0847 200.856 84.9593 200.798 84.8211C200.741 84.6829 200.711 84.5347 200.711 84.385C200.711 84.2353 200.741 84.0871 200.798 83.9489C200.856 83.8107 200.94 83.6853 201.046 83.5799L205.31 79.3274C205.527 79.1416 205.806 79.0445 206.092 79.0555C206.377 79.0666 206.648 79.1849 206.85 79.3868C207.052 79.5888 207.17 79.8595 207.181 80.1449C207.192 80.4303 207.095 80.7094 206.909 80.9263L203.45 84.385L206.909 87.787C207.12 87.9995 207.239 88.2869 207.239 88.5865C207.239 88.8861 207.12 89.1735 206.909 89.3859C206.808 89.5013 206.685 89.595 206.546 89.6613C206.408 89.7276 206.257 89.7651 206.104 89.7715Z" fill="white"/>
</g>
<g opacity="0.7">
<path d="M363.947 80.2459C363.947 80.5016 363.871 80.7515 363.729 80.9641C363.587 81.1767 363.385 81.3424 363.149 81.4402C362.913 81.5381 362.653 81.5637 362.402 81.5138C362.151 81.4639 361.921 81.3408 361.74 81.16C361.559 80.9792 361.436 80.7489 361.386 80.4981C361.336 80.2473 361.362 79.9874 361.46 79.7512C361.558 79.5149 361.723 79.313 361.936 79.171C362.148 79.0289 362.398 78.9531 362.654 78.9531C362.997 78.9531 363.326 79.0893 363.568 79.3318C363.811 79.5742 363.947 79.903 363.947 80.2459Z" fill="white"/>
<path d="M363.947 84.3865C363.947 84.6422 363.871 84.8921 363.729 85.1047C363.587 85.3173 363.385 85.483 363.149 85.5809C362.913 85.6787 362.653 85.7043 362.402 85.6544C362.151 85.6045 361.921 85.4814 361.74 85.3006C361.559 85.1198 361.436 84.8895 361.386 84.6387C361.336 84.3879 361.362 84.128 361.46 83.8918C361.558 83.6556 361.723 83.4537 361.936 83.3116C362.148 83.1696 362.398 83.0937 362.654 83.0938C362.997 83.0937 363.326 83.2299 363.568 83.4724C363.811 83.7148 363.947 84.0436 363.947 84.3865Z" fill="white"/>
<path d="M363.947 88.5349C363.947 88.7906 363.871 89.0406 363.729 89.2532C363.587 89.4658 363.385 89.6315 363.149 89.7293C362.913 89.8271 362.653 89.8528 362.402 89.8029C362.151 89.753 361.921 89.6299 361.74 89.4491C361.559 89.2683 361.436 89.0379 361.386 88.7872C361.336 88.5364 361.362 88.2764 361.46 88.0402C361.558 87.804 361.723 87.6021 361.936 87.4601C362.148 87.318 362.398 87.2422 362.654 87.2422C362.997 87.2422 363.326 87.3784 363.568 87.6208C363.811 87.8633 363.947 88.1921 363.947 88.5349Z" fill="white"/>
</g>
<path d="M261.454 124.304V125.834H260.32V124.326C259.121 124.29 257.959 123.895 256.986 123.192L257.599 121.82C258.389 122.416 259.333 122.774 260.32 122.852V120.13C258.812 119.768 257.19 119.28 257.19 117.386C257.19 116.003 258.2 114.789 260.32 114.585V113.043H261.454V114.551C262.433 114.6 263.384 114.892 264.221 115.402L263.654 116.774C262.981 116.376 262.231 116.125 261.454 116.037V118.804C262.963 119.178 264.607 119.654 264.607 121.537C264.607 122.897 263.586 124.088 261.454 124.304ZM260.32 118.486V116.071C259.356 116.218 258.948 116.706 258.948 117.307C258.948 117.908 259.549 118.259 260.343 118.486H260.32ZM262.849 121.627C262.849 120.958 262.248 120.652 261.432 120.414V122.829C262.452 122.671 262.872 122.206 262.872 121.627H262.849Z" fill="#004E9E"/>
<path d="M272.737 114.676V124.201H271.024V116.161H269.006V114.676H272.737Z" fill="#004E9E"/>
<path d="M282.365 121.468C282.365 123.237 280.834 124.337 278.464 124.337C276.094 124.337 274.586 123.203 274.586 121.468C274.58 120.981 274.721 120.503 274.993 120.098C275.264 119.692 275.652 119.38 276.106 119.2C275.749 119.007 275.453 118.718 275.253 118.365C275.052 118.012 274.955 117.61 274.972 117.204C274.972 115.571 276.401 114.551 278.51 114.551C280.619 114.551 282.071 115.571 282.071 117.204C282.082 117.618 281.973 118.027 281.758 118.381C281.543 118.735 281.23 119.019 280.857 119.2C281.309 119.38 281.696 119.693 281.965 120.099C282.235 120.504 282.374 120.982 282.365 121.468ZM280.585 121.468C280.585 120.527 279.769 119.949 278.464 119.949C277.16 119.949 276.367 120.527 276.367 121.468C276.367 122.409 277.16 122.999 278.464 122.999C279.769 122.999 280.574 122.375 280.574 121.411L280.585 121.468ZM276.695 117.272C276.695 118.089 277.364 118.611 278.487 118.611C279.61 118.611 280.313 118.089 280.313 117.272C280.313 116.456 279.576 115.934 278.487 115.934C277.398 115.934 276.695 116.422 276.695 117.272Z" fill="#004E9E"/>
<path d="M283.578 123.169C283.578 122.945 283.645 122.726 283.769 122.539C283.894 122.353 284.071 122.207 284.278 122.121C284.485 122.036 284.713 122.013 284.933 122.057C285.153 122.101 285.355 122.209 285.514 122.367C285.673 122.526 285.781 122.728 285.824 122.948C285.868 123.168 285.846 123.396 285.76 123.603C285.674 123.81 285.529 123.987 285.342 124.112C285.156 124.237 284.936 124.303 284.712 124.303C284.411 124.303 284.123 124.184 283.91 123.971C283.698 123.758 283.578 123.47 283.578 123.169Z" fill="#004E9E"/>
<path d="M290.044 114.676V124.201H288.275V116.161H286.268V114.676H290.044Z" fill="#004E9E"/>
<path d="M298.832 122.708V124.205H291.812V123.071L295.6 119.487C296.519 118.603 296.734 118.047 296.734 117.514C296.734 116.641 296.133 116.142 294.965 116.142C294.536 116.113 294.105 116.187 293.711 116.359C293.316 116.531 292.968 116.795 292.697 117.129L291.461 116.176C291.9 115.651 292.456 115.235 293.084 114.961C293.712 114.687 294.394 114.564 295.078 114.6C297.142 114.6 298.48 115.655 298.48 117.333C298.467 117.921 298.318 118.499 298.044 119.02C297.771 119.541 297.381 119.992 296.904 120.338L294.353 122.765L298.832 122.708Z" fill="#004E9E"/>
<path d="M307.586 121.468C307.586 123.237 306.044 124.337 303.685 124.337C301.326 124.337 299.807 123.203 299.807 121.468C299.8 120.981 299.942 120.503 300.213 120.098C300.485 119.692 300.873 119.38 301.326 119.2C300.969 119.007 300.674 118.718 300.473 118.365C300.273 118.012 300.175 117.61 300.192 117.204C300.192 115.571 301.621 114.551 303.73 114.551C305.84 114.551 307.291 115.571 307.291 117.204C307.299 117.618 307.19 118.025 306.975 118.379C306.76 118.732 306.449 119.017 306.078 119.2C306.53 119.38 306.917 119.693 307.186 120.099C307.456 120.504 307.595 120.982 307.586 121.468ZM305.806 121.468C305.806 120.527 304.989 119.949 303.685 119.949C302.381 119.949 301.587 120.527 301.587 121.468C301.587 122.409 302.37 122.999 303.685 122.999C305.001 122.999 305.806 122.375 305.806 121.411V121.468ZM301.882 117.329C301.882 118.146 302.562 118.667 303.685 118.667C304.808 118.667 305.5 118.146 305.5 117.329C305.5 116.513 304.774 115.991 303.685 115.991C302.596 115.991 301.882 116.422 301.882 117.272V117.329Z" fill="#004E9E"/>
<path d="M270.9 180.741V181.58H270.276V180.741C269.611 180.722 268.968 180.505 268.428 180.117L268.768 179.357C269.208 179.683 269.73 179.88 270.276 179.924V178.416C269.437 178.212 268.541 177.94 268.541 176.896C268.541 176.125 269.097 175.456 270.276 175.343V174.492H270.9V175.331C271.44 175.35 271.967 175.506 272.431 175.785L272.125 176.545C271.747 176.33 271.331 176.191 270.9 176.136V177.667C271.739 177.872 272.646 178.132 272.646 179.187C272.646 179.947 272.079 180.616 270.9 180.741ZM270.276 177.509V176.159C269.743 176.25 269.516 176.522 269.516 176.851C269.516 177.18 269.891 177.384 270.276 177.509ZM271.682 179.255C271.682 178.881 271.353 178.711 270.9 178.575V179.913C271.444 179.833 271.682 179.573 271.682 179.255Z" fill="black"/>
<path d="M277.148 175.402V180.675H276.173V176.219H275.039V175.402H277.148Z" fill="black"/>
<path d="M280.019 175.402V180.675H279.044V176.219H277.91V175.402H280.019Z" fill="black"/>
<path d="M284.907 179.054C284.907 179.984 284.238 180.755 282.82 180.755C282.11 180.77 281.414 180.555 280.836 180.142L281.256 179.383C281.699 179.727 282.247 179.911 282.809 179.904C283.512 179.904 283.943 179.587 283.943 179.099C283.943 178.612 283.626 178.271 282.526 178.271H281.233L281.505 175.402H284.635V176.219H282.367L282.253 177.444H282.752C284.283 177.444 284.907 178.124 284.907 179.054Z" fill="black"/>
<path d="M286.676 180.106C286.662 180.331 286.605 180.551 286.506 180.753L286.12 181.819H285.508L285.814 180.685C285.705 180.64 285.613 180.563 285.55 180.463C285.487 180.363 285.456 180.247 285.463 180.129C285.451 180.042 285.458 179.954 285.483 179.871C285.508 179.787 285.55 179.709 285.608 179.643C285.665 179.578 285.736 179.525 285.816 179.489C285.896 179.452 285.982 179.434 286.069 179.434C286.157 179.434 286.243 179.452 286.323 179.489C286.402 179.525 286.473 179.578 286.531 179.643C286.588 179.709 286.631 179.787 286.656 179.871C286.681 179.954 286.688 180.042 286.676 180.129V180.106Z" fill="black"/>
<path d="M291.211 179.848V180.676H287.321V180.041L289.419 178.056C289.599 177.925 289.747 177.755 289.851 177.559C289.955 177.362 290.013 177.145 290.02 176.922C290.02 176.446 289.691 176.163 289.045 176.163C288.808 176.149 288.571 176.192 288.354 176.289C288.137 176.385 287.946 176.533 287.798 176.718L287.117 176.185C287.361 175.894 287.669 175.663 288.018 175.512C288.366 175.36 288.745 175.292 289.124 175.312C290.258 175.312 291.007 175.89 291.007 176.832C291 177.158 290.918 177.479 290.766 177.768C290.615 178.057 290.398 178.307 290.134 178.499L288.727 179.837L291.211 179.848Z" fill="black"/>
<path d="M291.754 178.034C291.754 176.299 292.706 175.324 293.954 175.324C295.201 175.324 296.165 176.299 296.165 178.034C296.165 179.769 295.213 180.756 293.954 180.756C292.695 180.756 291.754 179.769 291.754 178.034ZM295.156 178.034C295.156 176.764 294.657 176.175 293.931 176.175C293.205 176.175 292.718 176.764 292.718 178.034C292.718 179.305 293.217 179.906 293.931 179.906C294.646 179.906 295.179 179.316 295.179 178.034H295.156Z" fill="black"/>
<path d="M241.258 168.38C239.261 176.504 239.718 185.038 242.571 192.903C245.425 200.767 250.546 207.609 257.288 212.563C264.03 217.516 272.089 220.359 280.447 220.732C288.805 221.106 297.085 218.992 304.242 214.659C311.398 210.326 317.109 203.968 320.652 196.389C324.194 188.81 325.41 180.351 324.145 172.081C322.88 163.811 319.191 156.102 313.545 149.929C307.899 143.755 300.548 139.395 292.424 137.399C287.03 136.073 281.428 135.822 275.937 136.661C270.446 137.5 265.174 139.413 260.423 142.29C255.671 145.167 251.533 148.952 248.245 153.429C244.956 157.905 242.582 162.986 241.258 168.38ZM258.733 172.667C259.879 167.999 262.383 163.775 265.929 160.531C269.475 157.286 273.904 155.166 278.655 154.438C283.406 153.711 288.267 154.409 292.621 156.443C296.976 158.478 300.629 161.759 303.12 165.87C305.61 169.981 306.825 174.738 306.611 179.54C306.398 184.342 304.765 188.973 301.919 192.846C299.074 196.72 295.144 199.663 290.625 201.303C286.107 202.943 281.204 203.207 276.536 202.06C270.278 200.523 264.887 196.562 261.548 191.05C258.209 185.538 257.196 178.925 258.733 172.667Z" fill="#263238"/>
<path d="M246.27 200.599C250.147 206.917 255.616 212.106 262.129 215.645C268.643 219.183 275.972 220.948 283.382 220.763C290.792 220.577 298.024 218.448 304.352 214.587C310.68 210.727 315.882 205.271 319.438 198.767C322.993 192.263 324.777 184.938 324.61 177.527C324.444 170.117 322.333 162.88 318.489 156.542C314.644 150.204 309.202 144.988 302.707 141.415C296.212 137.843 288.892 136.041 281.481 136.188C282.866 136.165 284.237 136.462 285.487 137.056C286.738 137.65 287.835 138.525 288.691 139.613C289.547 140.701 290.141 141.973 290.424 143.328C290.708 144.683 290.674 146.086 290.326 147.426C289.836 149.339 288.718 151.032 287.151 152.234C285.597 153.457 283.685 154.137 281.708 154.173H281.198C285.474 153.974 289.727 154.908 293.526 156.881C297.325 158.853 300.536 161.794 302.833 165.407C305.131 169.019 306.433 173.174 306.609 177.451C306.785 181.728 305.828 185.976 303.834 189.764C301.841 193.552 298.882 196.747 295.258 199.025C291.633 201.303 287.471 202.582 283.193 202.735C278.915 202.887 274.673 201.907 270.895 199.893C267.118 197.879 263.939 194.903 261.681 191.266C260.428 189.213 258.415 187.738 256.079 187.161C254.351 186.736 252.536 186.834 250.864 187.443C249.191 188.051 247.738 189.143 246.687 190.579C245.636 192.015 245.035 193.731 244.961 195.509C244.887 197.287 245.343 199.047 246.27 200.565V200.599Z" fill="#004E9E"/>
<path d="M213.418 250.348H209.381V263.536H213.418V250.348Z" fill="#004E9E"/>
<path d="M223.557 253.75H219.52V263.536H223.557V253.75Z" fill="#004E9E"/>
<path d="M233.682 239.004H229.645V263.532H233.682V239.004Z" fill="#004E9E"/>
<path d="M243.822 233.34H239.785V263.538H243.822V233.34Z" fill="#004E9E"/>
<path d="M253.959 239.004H249.922V263.532H253.959V239.004Z" fill="#004E9E"/>
<path d="M264.086 250.348H260.049V263.536H264.086V250.348Z" fill="#004E9E"/>
<path d="M274.211 252.617H270.174V263.538H274.211V252.617Z" fill="#004E9E"/>
<path d="M284.35 253.75H280.312V263.536H284.35V253.75Z" fill="#004E9E"/>
<path d="M294.488 250.348H290.451V263.536H294.488V250.348Z" fill="#004E9E"/>
<path d="M304.615 244.676H300.578V263.534H304.615V244.676Z" fill="#004E9E"/>
<path d="M314.752 240.141H310.715V263.535H314.752V240.141Z" fill="#004E9E"/>
<path d="M324.879 235.605H320.842V263.536H324.879V235.605Z" fill="#004E9E"/>
<path d="M335.016 229.938H330.979V263.538H335.016V229.938Z" fill="#004E9E"/>
<path d="M345.154 237.871H341.117V263.534H345.154V237.871Z" fill="#004E9E"/>
<path d="M355.281 250.348H351.244V263.536H355.281V250.348Z" fill="#004E9E"/>
<path d="M233.682 239.004H229.645V244.674H233.682V239.004Z" fill="#263238"/>
<path d="M243.822 233.34H239.785V244.68H243.822V233.34Z" fill="#263238"/>
<path d="M253.959 239.004H249.922V244.674H253.959V239.004Z" fill="#263238"/>
<path d="M314.752 240.141H310.715V244.677H314.752V240.141Z" fill="#263238"/>
<path d="M324.879 235.605H320.842V244.677H324.879V235.605Z" fill="#263238"/>
<path d="M335.016 229.938H330.979V244.68H335.016V229.938Z" fill="#263238"/>
<path d="M345.154 237.871H341.117V244.675H345.154V237.871Z" fill="#263238"/>
<path d="M355.225 279.832H209.45C207.583 279.832 206.07 281.345 206.07 283.211V300.596C206.07 302.462 207.583 303.975 209.45 303.975H355.225C357.092 303.975 358.605 302.462 358.605 300.596V283.211C358.605 281.345 357.092 279.832 355.225 279.832Z" fill="#004E9E"/>
<g opacity="0.7">
<path d="M320.615 291.841H319.288V293.168H318.471V291.841H317.145V291.092H318.471V289.766H319.288V291.092H320.615V291.841Z" fill="white"/>
<path d="M325.912 294.166V295.017H325.3V294.178C324.634 294.164 323.989 293.946 323.451 293.554L323.791 292.794C324.232 293.12 324.754 293.316 325.3 293.361V291.853C324.46 291.649 323.565 291.377 323.565 290.333C323.565 289.562 324.12 288.893 325.3 288.78V287.918H325.912V288.757C326.452 288.786 326.978 288.945 327.443 289.222L327.137 289.982C326.762 289.761 326.344 289.621 325.912 289.574V291.105C326.751 291.297 327.658 291.569 327.658 292.613C327.658 293.441 327.103 294.053 325.912 294.166ZM325.3 290.934V289.596C324.755 289.676 324.528 289.948 324.528 290.288C324.528 290.628 324.857 290.81 325.3 290.934ZM326.694 292.681C326.694 292.318 326.366 292.136 325.912 292.012V293.35C326.468 293.259 326.694 293.01 326.694 292.681Z" fill="white"/>
<path d="M334.326 288.828V289.486L332.262 294.113H331.207L333.192 289.656H331.128V290.563H330.221V288.828H334.326Z" fill="white"/>
<path d="M338.622 292.491C338.622 293.421 337.953 294.192 336.535 294.192C335.825 294.207 335.129 293.992 334.551 293.58L334.97 292.82C335.418 293.156 335.964 293.335 336.524 293.33C337.227 293.33 337.658 293.024 337.658 292.525C337.658 292.026 337.34 291.708 336.24 291.708H334.97L335.243 288.828H338.338V289.656H336.07L335.957 290.881H336.456C337.998 290.881 338.622 291.55 338.622 292.491Z" fill="white"/>
<path d="M340.391 293.528C340.379 293.756 340.321 293.98 340.221 294.186L339.835 295.24H339.223L339.529 294.106C339.419 294.06 339.326 293.98 339.263 293.879C339.2 293.777 339.17 293.658 339.178 293.539C339.166 293.453 339.172 293.364 339.198 293.281C339.223 293.197 339.265 293.119 339.323 293.054C339.38 292.988 339.451 292.935 339.531 292.899C339.61 292.862 339.697 292.844 339.784 292.844C339.872 292.844 339.958 292.862 340.038 292.899C340.117 292.935 340.188 292.988 340.246 293.054C340.303 293.119 340.346 293.197 340.371 293.281C340.396 293.364 340.403 293.453 340.391 293.539V293.528Z" fill="white"/>
<path d="M340.936 291.468C340.936 289.733 341.888 288.758 343.136 288.758C344.383 288.758 345.404 289.733 345.404 291.468C345.404 293.203 344.462 294.19 343.136 294.19C341.809 294.19 340.936 293.203 340.936 291.468ZM344.338 291.468C344.338 290.198 343.839 289.608 343.113 289.608C342.387 289.608 341.899 290.198 341.899 291.468C341.899 292.738 342.398 293.328 343.113 293.328C343.827 293.328 344.36 292.75 344.36 291.468H344.338Z" fill="white"/>
<path d="M349.848 292.491C349.848 293.421 349.179 294.192 347.762 294.192C347.052 294.207 346.356 293.992 345.777 293.58L346.197 292.82C346.645 293.156 347.191 293.335 347.75 293.33C348.454 293.33 348.884 293.024 348.884 292.525C348.884 292.026 348.567 291.708 347.467 291.708H346.197L346.469 288.828H349.565V289.656H347.297L347.183 290.881H347.682C349.27 290.881 349.848 291.55 349.848 292.491Z" fill="white"/>
</g>
<path opacity="0.7" d="M252.609 290.038H217.092C216.734 290.038 216.391 289.896 216.137 289.643C215.884 289.39 215.742 289.047 215.742 288.689C215.741 288.511 215.775 288.334 215.842 288.169C215.909 288.004 216.008 287.854 216.133 287.727C216.259 287.601 216.408 287.5 216.573 287.432C216.737 287.363 216.914 287.328 217.092 287.328H252.609C252.968 287.331 253.311 287.476 253.563 287.731C253.816 287.986 253.958 288.33 253.958 288.689C253.955 289.046 253.812 289.387 253.56 289.64C253.307 289.892 252.966 290.035 252.609 290.038Z" fill="white"/>
<path opacity="0.7" d="M236.733 296.445H217.092C216.914 296.445 216.737 296.409 216.573 296.341C216.408 296.272 216.259 296.172 216.133 296.045C216.008 295.919 215.909 295.769 215.842 295.604C215.775 295.439 215.741 295.262 215.742 295.084C215.742 294.726 215.884 294.383 216.137 294.13C216.391 293.877 216.734 293.734 217.092 293.734H236.733C237.09 293.737 237.431 293.88 237.684 294.133C237.936 294.385 238.079 294.727 238.082 295.084C238.082 295.443 237.94 295.787 237.687 296.042C237.435 296.297 237.092 296.442 236.733 296.445Z" fill="white"/>
<path d="M355.225 312.719H209.45C207.583 312.719 206.07 314.232 206.07 316.098V333.482C206.07 335.349 207.583 336.862 209.45 336.862H355.225C357.092 336.862 358.605 335.349 358.605 333.482V316.098C358.605 314.232 357.092 312.719 355.225 312.719Z" fill="#004E9E"/>
<g opacity="0.7">
<path d="M318.006 324.496H320.081V325.29H318.006V324.496Z" fill="white"/>
<path d="M325.308 327.049V327.9H324.684V327.06C324.02 327.042 323.376 326.825 322.836 326.437L323.176 325.677C323.618 325.999 324.14 326.195 324.684 326.244V324.736C323.857 324.532 322.949 324.259 322.949 323.216C322.949 322.445 323.516 321.776 324.684 321.663V320.801H325.308V321.64C325.849 321.668 326.374 321.828 326.839 322.105L326.589 322.921C326.214 322.702 325.797 322.563 325.365 322.513V324.044C326.204 324.237 327.111 324.509 327.111 325.552C327.054 326.323 326.487 326.936 325.308 327.049ZM324.684 323.817V322.479C324.151 322.558 323.925 322.831 323.925 323.171C323.925 323.511 324.253 323.692 324.684 323.817ZM326.091 325.564C326.091 325.201 325.762 325.019 325.308 324.895V326.233C325.852 326.142 326.091 325.892 326.091 325.564Z" fill="white"/>
<path d="M333.577 325.374C333.577 326.304 332.907 327.075 331.479 327.075C330.769 327.087 330.074 326.873 329.494 326.462L329.914 325.703C330.362 326.037 330.908 326.216 331.467 326.213C332.17 326.213 332.601 325.907 332.601 325.408C332.601 324.909 332.272 324.591 331.184 324.591H329.902L330.175 321.711H333.27V322.539H331.002L330.889 323.763H331.399C332.953 323.763 333.577 324.433 333.577 325.374Z" fill="white"/>
<path d="M337.93 325.374C337.93 326.304 337.25 327.075 335.832 327.075C335.122 327.087 334.427 326.873 333.848 326.462L334.267 325.703C334.716 326.037 335.261 326.216 335.821 326.213C336.524 326.213 336.955 325.907 336.955 325.408C336.955 324.909 336.626 324.591 335.526 324.591H334.256L334.528 321.711H337.624V322.539H335.356L335.242 323.763H335.753C337.318 323.763 337.93 324.433 337.93 325.374Z" fill="white"/>
<path d="M339.71 326.414C339.698 326.642 339.64 326.866 339.54 327.071L339.154 328.126H338.542L338.837 326.992C338.729 326.943 338.638 326.863 338.575 326.762C338.513 326.661 338.481 326.544 338.485 326.425C338.481 326.343 338.493 326.26 338.522 326.183C338.551 326.106 338.596 326.036 338.653 325.977C338.711 325.919 338.78 325.873 338.857 325.842C338.933 325.812 339.015 325.798 339.098 325.801C339.179 325.8 339.259 325.814 339.334 325.845C339.409 325.875 339.477 325.92 339.534 325.977C339.591 326.034 339.636 326.102 339.667 326.177C339.697 326.252 339.712 326.333 339.71 326.414Z" fill="white"/>
<path d="M345.019 325.793H344.078V326.995H343.125V325.793H340.199V325.113L342.796 321.711H343.851L341.401 324.966H343.125V323.9H344.043V324.966H344.985L345.019 325.793Z" fill="white"/>
<path d="M349.78 325.473C349.78 326.459 348.93 327.072 347.614 327.072C346.299 327.072 345.471 326.459 345.471 325.473C345.464 325.202 345.541 324.936 345.692 324.711C345.842 324.485 346.058 324.312 346.31 324.214C346.103 324.109 345.93 323.946 345.813 323.745C345.696 323.543 345.641 323.312 345.653 323.08C345.653 322.184 346.446 321.617 347.614 321.617C348.782 321.617 349.599 322.184 349.599 323.08C349.609 323.315 349.55 323.547 349.429 323.749C349.308 323.951 349.13 324.112 348.918 324.214C349.174 324.31 349.394 324.482 349.548 324.707C349.703 324.932 349.784 325.2 349.78 325.473ZM348.794 325.473C348.794 324.951 348.34 324.622 347.66 324.622C346.979 324.622 346.526 324.951 346.526 325.473C346.526 325.994 346.968 326.323 347.66 326.323C348.351 326.323 348.794 325.983 348.794 325.45V325.473ZM346.628 323.205C346.628 323.658 347.002 323.953 347.614 323.953C348.227 323.953 348.635 323.658 348.635 323.205C348.635 322.751 348.227 322.456 347.614 322.456C347.002 322.456 346.628 322.672 346.628 323.148V323.205Z" fill="white"/>
</g>
<path opacity="0.7" d="M252.609 322.921H217.092C216.734 322.921 216.391 322.779 216.137 322.526C215.884 322.273 215.742 321.93 215.742 321.572C215.741 321.394 215.775 321.217 215.842 321.052C215.909 320.887 216.008 320.737 216.133 320.61C216.259 320.484 216.408 320.383 216.573 320.315C216.737 320.246 216.914 320.211 217.092 320.211H252.609C252.968 320.214 253.311 320.359 253.563 320.614C253.816 320.868 253.958 321.213 253.958 321.572C253.955 321.929 253.812 322.27 253.56 322.523C253.307 322.775 252.966 322.918 252.609 322.921Z" fill="white"/>
<path opacity="0.7" d="M236.733 329.331H217.092C216.914 329.331 216.737 329.296 216.573 329.228C216.408 329.159 216.259 329.059 216.133 328.932C216.008 328.806 215.909 328.655 215.842 328.49C215.775 328.325 215.741 328.149 215.742 327.971C215.742 327.613 215.884 327.269 216.137 327.016C216.391 326.763 216.734 326.621 217.092 326.621H236.733C237.09 326.624 237.431 326.767 237.684 327.02C237.936 327.272 238.079 327.614 238.082 327.971C238.082 328.33 237.94 328.674 237.687 328.929C237.435 329.184 237.092 329.328 236.733 329.331Z" fill="white"/>
<path d="M355.225 345.605H209.45C207.583 345.605 206.07 347.118 206.07 348.985V366.369C206.07 368.235 207.583 369.748 209.45 369.748H355.225C357.092 369.748 358.605 368.235 358.605 366.369V348.985C358.605 347.118 357.092 345.605 355.225 345.605Z" fill="#004E9E"/>
<g opacity="0.7">
<path d="M321.476 357.61H320.138V358.937H319.333V357.61H318.006V356.862H319.333V355.535H320.138V356.862H321.476V357.61Z" fill="white"/>
<path d="M326.773 359.936V360.786H326.149V359.947C325.485 359.929 324.841 359.712 324.301 359.323L324.641 358.564C325.083 358.885 325.604 359.081 326.149 359.131V357.622C325.321 357.418 324.414 357.146 324.414 356.103C324.414 355.332 324.981 354.663 326.149 354.549V353.688H326.773V354.527C327.313 354.555 327.839 354.715 328.304 354.992L327.998 355.751C327.622 355.532 327.205 355.393 326.773 355.343V356.874C327.612 357.067 328.519 357.339 328.519 358.382C328.519 359.21 327.952 359.822 326.773 359.936ZM326.149 356.704V355.366C325.616 355.445 325.389 355.717 325.389 356.058C325.389 356.398 325.718 356.579 326.149 356.704ZM327.555 358.45C327.555 358.087 327.226 357.906 326.773 357.781V359.119C327.329 359.029 327.555 358.779 327.555 358.45Z" fill="white"/>
<path d="M333.019 354.598V359.882H332.044V355.425H330.91V354.598H333.019Z" fill="white"/>
<path d="M338.351 358.359C338.351 359.346 337.5 359.958 336.185 359.958C334.869 359.958 334.041 359.346 334.041 358.359C334.035 358.089 334.112 357.823 334.262 357.597C334.412 357.372 334.628 357.199 334.881 357.101C334.673 356.996 334.5 356.833 334.384 356.631C334.267 356.43 334.211 356.199 334.223 355.967C334.223 355.071 335.017 354.504 336.185 354.504C337.353 354.504 338.169 355.071 338.169 355.967C338.179 356.2 338.121 356.431 338.002 356.632C337.883 356.834 337.709 356.996 337.5 357.101C337.754 357.198 337.971 357.371 338.123 357.596C338.275 357.821 338.355 358.088 338.351 358.359ZM337.364 358.359C337.364 357.838 336.91 357.509 336.23 357.509C335.55 357.509 335.096 357.838 335.096 358.359C335.096 358.881 335.538 359.21 336.23 359.21C336.922 359.21 337.364 358.87 337.364 358.337V358.359ZM335.198 356.091C335.198 356.545 335.572 356.84 336.185 356.84C336.797 356.84 337.205 356.545 337.205 356.091C337.205 355.638 336.797 355.343 336.185 355.343C335.572 355.343 335.198 355.559 335.198 356.035V356.091Z" fill="white"/>
<path d="M340.265 359.3C340.253 359.529 340.195 359.752 340.095 359.958L339.709 361.013H339.063L339.369 359.879C339.258 359.832 339.164 359.753 339.099 359.652C339.034 359.551 339.002 359.432 339.006 359.312C339.006 359.149 339.071 358.993 339.186 358.879C339.3 358.764 339.456 358.699 339.619 358.699C339.781 358.699 339.937 358.764 340.052 358.879C340.166 358.993 340.231 359.149 340.231 359.312L340.265 359.3Z" fill="white"/>
<path d="M344.801 359.051V359.878H340.911V359.209L343.009 357.213C343.519 356.726 343.61 356.42 343.61 356.079C343.61 355.592 343.27 355.32 342.623 355.32C342.389 355.307 342.155 355.35 341.941 355.445C341.726 355.539 341.536 355.683 341.387 355.864L340.707 355.342C340.949 355.049 341.257 354.817 341.606 354.665C341.955 354.514 342.335 354.446 342.714 354.469C343.848 354.469 344.597 355.048 344.597 355.977C344.59 356.304 344.508 356.624 344.356 356.914C344.205 357.203 343.988 357.453 343.723 357.644L342.306 358.994L344.801 359.051Z" fill="white"/>
<path d="M345.346 357.238C345.346 355.503 346.287 354.527 347.546 354.527C348.804 354.527 349.757 355.503 349.757 357.238C349.757 358.973 348.804 359.959 347.546 359.959C346.287 359.959 345.346 358.973 345.346 357.238ZM348.748 357.238C348.748 355.968 348.249 355.378 347.523 355.378C346.797 355.378 346.31 355.968 346.31 357.238C346.31 358.508 346.809 359.097 347.523 359.097C348.237 359.097 348.77 358.519 348.77 357.238H348.748Z" fill="white"/>
</g>
<path opacity="0.7" d="M252.609 355.812H217.092C216.734 355.812 216.391 355.67 216.137 355.417C215.884 355.164 215.742 354.82 215.742 354.462C215.741 354.284 215.775 354.108 215.842 353.942C215.909 353.777 216.008 353.627 216.133 353.501C216.259 353.374 216.408 353.274 216.573 353.205C216.737 353.137 216.914 353.102 217.092 353.102H252.609C252.968 353.105 253.311 353.249 253.563 353.504C253.816 353.759 253.958 354.103 253.958 354.462C253.955 354.819 253.812 355.161 253.56 355.413C253.307 355.666 252.966 355.809 252.609 355.812Z" fill="white"/>
<path opacity="0.7" d="M236.733 362.214H217.092C216.914 362.214 216.737 362.179 216.573 362.11C216.408 362.042 216.259 361.941 216.133 361.815C216.008 361.688 215.909 361.538 215.842 361.373C215.775 361.208 215.741 361.032 215.742 360.853C215.742 360.495 215.884 360.152 216.137 359.899C216.391 359.646 216.734 359.504 217.092 359.504H236.733C237.09 359.507 237.431 359.65 237.684 359.902C237.936 360.155 238.079 360.496 238.082 360.853C238.082 361.212 237.94 361.557 237.687 361.812C237.435 362.066 237.092 362.211 236.733 362.214Z" fill="white"/>
<path d="M123.905 115.135L139.464 115.146C141.775 115.147 143.65 113.275 143.651 110.964L143.662 95.4055C143.664 93.0945 141.792 91.2197 139.481 91.2181L123.922 91.2073C121.611 91.2056 119.736 93.0778 119.735 95.3888L119.724 110.947C119.722 113.258 121.594 115.133 123.905 115.135Z" fill="#004E9E"/>
<path opacity="0.6" d="M125.113 98.458C126.814 95.7137 130.034 96.7683 131.701 98.9002C133.368 96.7683 136.6 95.725 138.29 98.4693C141.136 103.096 135.262 107.383 132.484 109.05L131.701 109.526C131.475 109.401 131.225 109.242 130.908 109.05C128.141 107.371 122.266 103.085 125.113 98.458Z" fill="white"/>
<path d="M129.129 113.283C129.129 113.283 132.259 120.461 139.335 122.707C139.335 122.707 135.445 120.439 135.751 112.988L129.129 113.283Z" fill="#004E9E"/>
<path d="M122.471 160.59C122.488 160.723 122.476 160.858 122.434 160.985C122.393 161.112 122.323 161.228 122.23 161.325C122.138 161.422 122.025 161.497 121.9 161.544C121.775 161.592 121.64 161.61 121.507 161.599L111.131 161.327C110.844 161.312 110.573 161.196 110.365 160.998C110.157 160.8 110.026 160.535 109.997 160.25L108.228 139.736C108.217 139.597 108.234 139.458 108.277 139.326C108.32 139.193 108.389 139.071 108.48 138.966C108.57 138.86 108.681 138.774 108.805 138.711C108.929 138.649 109.064 138.612 109.203 138.602L119.556 138.885C119.855 138.928 120.131 139.072 120.337 139.292C120.543 139.513 120.668 139.797 120.69 140.098L122.471 160.59Z" fill="#263238"/>
<path opacity="0.5" d="M119.566 139.918L121.335 160.625C121.363 160.746 121.361 160.871 121.331 160.991C121.3 161.112 121.241 161.223 121.159 161.316C121.077 161.409 120.975 161.481 120.859 161.526C120.744 161.572 120.619 161.589 120.496 161.577L111.719 161.339C111.129 161.339 110.052 160.965 110.007 160.387L108.215 139.612C108.215 139.022 109.19 138.58 109.78 138.602L118.557 138.841C118.832 138.855 119.09 138.975 119.278 139.176C119.466 139.377 119.57 139.643 119.566 139.918Z" fill="white"/>
<path d="M116.007 166.229L114.794 162.238C115.321 160.8 115.727 159.321 116.007 157.815C116.109 156.466 112.526 145.965 112.526 145.965C112.526 145.965 108.602 149.072 106.243 150.637C103.885 152.202 107.638 162.34 108.228 162.601C108.817 162.861 109.963 163.531 109.963 163.531L110.745 166.785L116.007 166.229Z" fill="#E4897B"/>
<path d="M109.533 169.935C110.747 174.629 115.997 193.613 122.28 196.164C123.924 196.833 125.863 196.414 127.95 195.359C134.754 191.832 142.465 181.195 142.465 181.195L140.911 173.439L139.471 166.227C133.801 169.028 127.28 182.681 125.477 182.579C123.958 182.499 120.182 170.808 119.07 167.247C118.977 166.977 118.785 166.752 118.532 166.617C118.28 166.483 117.986 166.448 117.71 166.521L110.361 168.597C110.077 168.669 109.832 168.849 109.677 169.099C109.523 169.348 109.471 169.648 109.533 169.935Z" fill="#004E9E"/>
<path d="M116.449 164.086L117.062 166.683L110.303 168.599L109.498 165.776L116.449 164.086Z" fill="#004E9E"/>
<path opacity="0.2" d="M116.449 164.086L117.062 166.683L110.303 168.599L109.498 165.776L116.449 164.086Z" fill="black"/>
<path opacity="0.2" d="M127.891 195.358C134.695 191.831 142.406 181.194 142.406 181.194L140.852 173.438C137.348 176.692 129.002 185.401 127.891 195.358Z" fill="black"/>
<path d="M179.41 311.423L179.354 301.523C179.355 301.362 179.41 301.206 179.511 301.081C179.612 300.955 179.752 300.867 179.909 300.832L187.167 299.187C187.478 299.12 187.803 299.179 188.071 299.351C188.339 299.523 188.528 299.795 188.596 300.106C188.606 300.193 188.606 300.28 188.596 300.367C188.596 303.576 188.38 305.912 188.391 309.938C188.391 312.41 188.709 319.883 188.72 323.308C188.732 326.732 185.318 327.186 185.046 325.791C183.64 319.52 181.724 314.791 179.909 312.795C179.574 312.419 179.395 311.928 179.41 311.423Z" fill="#263238"/>
<path d="M135.194 220.25L131.996 237.022C131.996 237.022 106.719 277.937 106.73 301.558C106.73 329.783 180.361 313.499 180.361 313.499V300.503C180.361 300.503 136.362 304.291 132.393 299.879C127.585 294.516 157.25 253.057 157.25 253.057L135.194 220.25Z" fill="#263238"/>
<path opacity="0.2" d="M106.73 301.558C106.73 317.117 129.116 319.147 149.199 317.842C159.202 317.128 169.148 315.772 178.978 313.783C179.862 313.613 180.35 313.499 180.35 313.499V300.504L178.739 300.628C173.739 301.037 158.157 302.159 146.375 301.989C139.367 301.898 133.697 301.32 132.393 299.869C130.023 297.238 135.988 285.886 142.667 275.023C149.573 263.796 157.25 253.068 157.25 253.068L147.588 238.678L135.205 220.262L131.996 237.034C131.996 237.034 106.719 277.937 106.73 301.558Z" fill="white"/>
<path opacity="0.2" d="M146.377 301.987L149.201 317.863C159.204 317.148 169.15 315.792 178.979 313.803L178.741 300.648C173.74 301.034 158.159 302.157 146.377 301.987Z" fill="black"/>
<path opacity="0.2" d="M147.542 256.619C147.542 256.619 143.437 266.292 142.666 275.012C149.572 263.786 157.249 253.058 157.249 253.058L147.587 238.668L142.496 237.023C142.496 237.023 141.362 243.635 147.542 256.619Z" fill="black"/>
<path d="M154.122 398.638H164.021C164.185 398.638 164.343 398.694 164.469 398.797C164.595 398.901 164.682 399.045 164.713 399.205L166.324 406.463C166.357 406.617 166.359 406.776 166.33 406.931C166.301 407.086 166.241 407.234 166.155 407.366C166.068 407.498 165.957 407.611 165.826 407.699C165.695 407.788 165.548 407.849 165.394 407.88C165.307 407.892 165.219 407.892 165.133 407.88C161.935 407.823 159.599 407.631 155.573 407.631C153.09 407.631 145.617 407.891 142.192 407.891C138.767 407.891 138.325 404.49 139.731 404.195C146.014 402.823 150.742 400.929 152.75 399.126C153.128 398.794 153.619 398.62 154.122 398.638Z" fill="#263238"/>
<path d="M179.308 220.782C179.308 220.782 181.497 229.004 179.308 266.652C175.906 324.486 165.213 401.417 165.213 401.417L152.739 399.149C152.739 399.149 154.338 284.025 152.659 252.251C152.659 252.251 135.06 236.465 135.184 220.238C135.309 204.01 179.308 220.782 179.308 220.782Z" fill="#263238"/>
<path opacity="0.2" d="M179.308 220.782C179.308 220.782 181.497 229.004 179.308 266.652C175.906 324.486 165.213 401.417 165.213 401.417L152.739 399.149C152.739 399.149 154.338 284.025 152.659 252.251C152.659 252.251 135.06 236.465 135.184 220.238C135.309 204.01 179.308 220.782 179.308 220.782Z" fill="white"/>
<path d="M134.276 219.172C134.273 219.364 134.308 219.554 134.378 219.732C134.449 219.91 134.555 220.072 134.689 220.209C134.823 220.346 134.982 220.455 135.158 220.53C135.335 220.605 135.524 220.645 135.716 220.646L176.767 221.565L179.681 221.633C180.061 221.645 180.432 221.509 180.713 221.253C180.995 220.997 181.166 220.641 181.189 220.261L182.017 209.454L182.459 203.636L184.568 175.921L185.011 170.07C164.905 155.056 139.413 166.226 139.413 166.226C134.831 180.639 134.332 211.313 134.276 219.172Z" fill="#004E9E"/>
<path d="M180.451 221.441L134.558 220.035L134.025 222.768L180.451 224.276V221.441Z" fill="#004E9E"/>
<path opacity="0.2" d="M180.451 221.441L134.558 220.035L134.025 222.768L180.451 224.276V221.441Z" fill="black"/>
<path opacity="0.2" d="M182.459 203.637L184.568 175.922C183.319 176.319 182.162 176.963 181.166 177.816C181.166 177.816 173.999 188.974 182.459 203.637Z" fill="black"/>
<path opacity="0.2" d="M176.766 221.568L179.68 221.636C180.061 221.649 180.431 221.512 180.713 221.256C180.994 221 181.165 220.644 181.188 220.264L182.016 209.457C180.004 213.376 178.251 217.421 176.766 221.568Z" fill="black"/>
<g opacity="0.7">
<path d="M138.982 188.533L139.481 187.218C140.154 187.656 140.947 187.874 141.749 187.842C142.679 187.842 143.053 187.479 143.031 186.98C142.963 185.596 139.153 187.071 139.016 184.179C139.016 182.807 139.98 181.911 141.67 181.786C142.497 181.734 143.322 181.915 144.051 182.308L143.541 183.623C143 183.282 142.365 183.119 141.727 183.158C140.831 183.158 140.423 183.555 140.445 184.031C140.513 185.506 144.324 184.031 144.46 186.866C144.516 188.216 143.484 189.134 141.715 189.236C140.752 189.304 139.794 189.057 138.982 188.533Z" fill="white"/>
</g>
<path d="M170.882 165.85C166.935 169.445 157.274 168.118 157.274 168.118C157.274 168.118 151.23 166.463 152.5 164.569C156.06 163.979 157.784 162.301 158.498 160.192C158.882 158.875 159.001 157.495 158.85 156.132C158.796 155.371 158.698 154.614 158.555 153.864L170.53 144.996C168.965 150.848 167.015 161.609 170.882 165.85Z" fill="#E4897B"/>
<path opacity="0.2" d="M167.739 150.633C167.263 157.811 161.355 159.796 158.475 160.192C158.858 158.876 158.978 157.496 158.826 156.133L167.739 150.633Z" fill="black"/>
<path d="M174.487 126.387C174.487 126.387 177.833 137.194 172.605 142.319C167.377 147.445 164.281 126.874 164.281 126.874L174.487 126.387Z" fill="#263238"/>
<path d="M156.888 153.661C158.394 155.283 160.386 156.371 162.565 156.761C164.743 157.152 166.989 156.824 168.965 155.827C171.545 154.559 173.548 152.358 174.567 149.669C174.714 149.306 174.828 148.921 174.941 148.535C176.812 141.346 175.962 129.393 168.137 126.037C166.815 125.459 165.392 125.147 163.949 125.119C162.506 125.091 161.072 125.348 159.728 125.875C158.384 126.401 157.157 127.187 156.117 128.188C155.078 129.189 154.245 130.384 153.667 131.707C152.966 133.288 152.655 135.015 152.76 136.742C153.089 144.748 152.896 149.488 156.888 153.661Z" fill="#E4897B"/>
<path d="M164.939 139.216C164.939 139.862 165.257 140.407 165.688 140.407C166.119 140.407 166.47 139.896 166.493 139.273C166.516 138.649 166.164 138.082 165.733 138.082C165.302 138.082 164.951 138.547 164.939 139.216Z" fill="#263238"/>
<path d="M172.367 139.365C172.31 140.011 172.696 140.556 173.115 140.567C173.535 140.578 173.898 140.045 173.92 139.433C173.943 138.821 173.592 138.242 173.161 138.242C172.73 138.242 172.367 138.741 172.367 139.365Z" fill="#263238"/>
<path d="M169.976 139.633C170.709 141.656 171.724 143.564 172.992 145.303C172.535 145.617 172.015 145.826 171.468 145.916C170.921 146.006 170.361 145.975 169.828 145.824L169.976 139.633Z" fill="#DE5753"/>
<path d="M162.694 136.778C162.764 136.787 162.835 136.779 162.9 136.753C162.966 136.727 163.024 136.685 163.068 136.63C163.358 136.246 163.733 135.934 164.164 135.72C164.595 135.505 165.07 135.394 165.551 135.394C165.644 135.389 165.731 135.35 165.798 135.286C165.864 135.222 165.905 135.136 165.913 135.044C165.922 134.951 165.896 134.859 165.842 134.784C165.789 134.709 165.709 134.656 165.619 134.634C165.011 134.617 164.407 134.746 163.858 135.011C163.31 135.275 162.833 135.667 162.467 136.154C162.432 136.189 162.404 136.23 162.384 136.276C162.365 136.322 162.355 136.371 162.355 136.42C162.355 136.47 162.365 136.519 162.384 136.565C162.404 136.611 162.432 136.652 162.467 136.687C162.535 136.733 162.613 136.763 162.694 136.778Z" fill="#263238"/>
<path d="M175.553 136.879C175.628 136.895 175.705 136.895 175.78 136.879C175.873 136.837 175.946 136.76 175.984 136.665C176.022 136.57 176.022 136.464 175.984 136.369C175.749 135.798 175.379 135.292 174.904 134.897C174.43 134.502 173.866 134.228 173.262 134.101C173.162 134.088 173.06 134.115 172.979 134.177C172.899 134.238 172.845 134.329 172.831 134.43C172.818 134.53 172.846 134.632 172.907 134.713C172.969 134.793 173.06 134.846 173.16 134.861C173.629 134.973 174.065 135.193 174.433 135.504C174.802 135.816 175.092 136.209 175.281 136.652C175.305 136.709 175.343 136.758 175.39 136.798C175.437 136.837 175.493 136.865 175.553 136.879Z" fill="#263238"/>
<path d="M158.884 126.82L159.417 130.347C158.814 130.648 158.35 131.169 158.121 131.802C157.891 132.435 157.912 133.132 158.181 133.749C159.405 136.697 157.84 141.358 155.606 143.263C155.606 143.263 155.504 141.982 154.472 142.311C153.44 142.64 153.871 149.364 156.083 152.517C153.264 149.6 151.252 146.001 150.243 142.073C148.383 135.597 148.576 130.801 149.846 128.238L158.884 126.82Z" fill="#263238"/>
<path d="M149.142 143.242C150.003 145.074 151.551 146.492 153.452 147.188C155.969 148.095 157.432 145.884 156.854 143.401C156.366 141.189 154.461 137.991 151.853 138.184C151.282 138.227 150.732 138.413 150.253 138.725C149.774 139.038 149.381 139.465 149.11 139.97C148.84 140.474 148.702 141.038 148.707 141.61C148.713 142.182 148.863 142.743 149.142 143.242Z" fill="#E4897B"/>
<path d="M168.964 148.172C168.104 149.036 167.309 149.961 166.583 150.939L166.016 150.644C163.43 149.284 162.693 147.798 162.614 146.562C162.605 145.962 162.737 145.367 162.999 144.827C163.141 144.517 163.328 144.231 163.555 143.977C164.784 145.526 166.33 146.795 168.091 147.696C168.579 148.002 168.964 148.172 168.964 148.172Z" fill="#263238"/>
<path d="M168.046 147.696L167.332 148.49C164.905 147.197 163.363 145.972 162.988 144.827C163.13 144.517 163.317 144.231 163.544 143.977C164.763 145.523 166.298 146.791 168.046 147.696Z" fill="white"/>
<path d="M165.97 150.641C163.385 149.28 162.648 147.795 162.568 146.559C163.538 147.099 164.405 147.806 165.131 148.645C165.613 149.206 165.907 149.904 165.97 150.641Z" fill="#DE5753"/>
<path d="M148.827 133.544C148.524 131.684 148.731 129.778 149.426 128.026C150.121 126.275 151.278 124.745 152.773 123.599C158.046 119.188 172.856 117.124 175.102 123.599C177.347 130.074 166.415 136.016 158.477 130.29L148.827 133.544Z" fill="#263238"/>
<path d="M169.532 160.434L158.034 165.616L157.365 161.466L153.089 162.951C152.358 163.216 151.737 163.719 151.326 164.379C150.914 165.039 150.737 165.818 150.821 166.591L151.298 171.127L157.126 167.941L160.029 172.046L173.842 165.401L169.532 160.434Z" fill="#004E9E"/>
<path opacity="0.7" d="M169.532 160.434L158.034 165.616L157.365 161.466L153.089 162.951C152.358 163.216 151.737 163.719 151.326 164.379C150.914 165.039 150.737 165.818 150.821 166.591L151.298 171.127L157.126 167.941L160.029 172.046L173.842 165.401L169.532 160.434Z" fill="white"/>
<path opacity="0.2" d="M171.367 224.264C171.367 224.264 171.628 230.399 179.555 233.019C179.817 230.07 179.602 227.099 178.92 224.219L171.367 224.264Z" fill="black"/>
<path d="M185.013 170.067C192.043 176.871 202.51 198.632 199.403 208.044C196.772 216.05 184.514 228.094 180.874 231.541C180.742 231.667 180.587 231.765 180.417 231.83C180.247 231.895 180.066 231.925 179.884 231.919C179.702 231.913 179.523 231.87 179.358 231.793C179.193 231.717 179.045 231.608 178.923 231.473L174.568 226.687C174.353 226.452 174.225 226.149 174.209 225.831C174.192 225.512 174.287 225.197 174.478 224.941C177.313 221.21 188.018 206.933 188.743 204.007C189.583 200.605 180.454 187.417 180.454 187.417C179.633 183.599 179.575 179.656 180.284 175.816C181.497 169.919 185.013 170.067 185.013 170.067Z" fill="#004E9E"/>
<path d="M174.259 226.148L172.672 227.793C172.672 227.793 175.144 231.535 178.138 232.329L178.92 231.524L174.259 226.148Z" fill="#004E9E"/>
<path opacity="0.2" d="M174.259 226.148L172.672 227.793C172.672 227.793 175.144 231.535 178.138 232.329L178.92 231.524L174.259 226.148Z" fill="black"/>
</svg>
