<svg width="64" height="64" viewBox="0 0 64 64" fill="none" xmlns="http://www.w3.org/2000/svg">
<path d="M57.9855 19.661C55.8577 19.661 53.9855 20.8191 52.9167 22.5609L51.5534 21.0763C50.3302 19.7436 48.7524 19.1273 46.9885 19.2924L44.0835 19.5644C43.4564 19.0212 42.7945 18.5192 42.103 18.0629L41.4546 15.1055C41.0611 13.3083 40.0092 11.9358 38.4144 11.136L36.6385 10.2448C37.4971 9.16192 38.0138 7.77388 38.0138 6.26274C38.0138 2.80924 35.3162 0 32 0C28.6838 0 25.9862 2.80924 25.9862 6.26274C25.9862 7.77388 26.5029 9.16192 27.3615 10.2448L25.5849 11.136C23.9901 11.9358 22.9389 13.3083 22.5447 15.1055L21.8963 18.0629C21.2047 18.5199 20.5429 19.0212 19.9158 19.5652L17.0108 19.2932C15.2483 19.1273 13.6691 19.745 12.4459 21.0771L11.0826 22.5617C10.0138 20.8198 8.14157 19.6617 6.0138 19.6617C2.69758 19.6617 0 22.471 0 25.9245C0 29.378 2.69758 32.1872 6.0138 32.1872C6.79172 32.1872 7.53424 32.031 8.21731 31.7501L8.48204 33.7839C8.71987 35.6105 9.64856 37.0759 11.1683 38.0217L13.6592 39.5719C13.8637 40.4086 14.1193 41.2238 14.4229 42.0148L13.2812 44.796C12.5854 46.4914 12.6611 48.2451 13.4999 49.8683L14.4328 51.6735C11.8436 52.3716 9.92603 54.8256 9.92603 57.7373C9.92603 61.1908 12.6236 64 15.9398 64C19.2561 64 21.9536 61.1908 21.9536 57.7373C21.9536 57.609 21.9487 57.4815 21.9416 57.3554L23.8797 57.7218C24.2421 57.7903 24.5995 57.8242 24.9499 57.8242C26.2849 57.8242 27.5236 57.3311 28.5797 56.3706L30.7677 54.3796C31.1747 54.4068 31.5852 54.4223 31.9993 54.4223C32.4134 54.4223 32.8239 54.4068 33.2309 54.3796L35.4196 56.3706C36.475 57.3311 37.7144 57.8242 39.0494 57.8242C39.4005 57.8242 39.7572 57.7903 40.1203 57.7218L42.0584 57.3554C42.0513 57.4822 42.0464 57.609 42.0464 57.7373C42.0464 61.1908 44.7439 64 48.0602 64C51.3764 64 54.074 61.1908 54.074 57.7373C54.074 54.8256 52.1564 52.3716 49.5672 51.6735L50.5001 49.8683C51.3389 48.2451 51.4146 46.4907 50.7188 44.796L49.5771 42.0148C49.8807 41.2246 50.137 40.4093 50.3408 39.5719L52.8317 38.0217C54.3514 37.0759 55.2801 35.6105 55.518 33.7839L55.7827 31.7501C56.4658 32.031 57.2083 32.1872 57.9862 32.1872C61.3024 32.1872 64 29.378 64 25.9245C64 22.471 61.301 19.661 57.9855 19.661ZM32 1.83327C34.3451 1.83327 36.2534 3.8206 36.2534 6.26274C36.2534 8.70489 34.3451 10.6922 32 10.6922C29.6549 10.6922 27.7466 8.70489 27.7466 6.26274C27.7466 3.8206 29.6549 1.83327 32 1.83327ZM24.2612 15.5131C24.5316 14.2791 25.2536 13.3363 26.3486 12.7872L28.797 11.5591C29.725 12.1702 30.8229 12.5247 32 12.5247C33.1771 12.5247 34.275 12.1694 35.203 11.5591L37.6507 12.7872C38.7457 13.3363 39.4677 14.2791 39.7381 15.5131L40.0375 16.8805C37.5962 15.6827 34.8717 15.0111 31.9993 15.0111C29.1269 15.0111 26.4024 15.6827 23.9611 16.8805L24.2612 15.5131ZM1.7611 25.9237C1.7611 23.4816 3.66944 21.4943 6.01451 21.4943C8.35958 21.4943 10.2679 23.4816 10.2679 25.9237C10.2679 28.3659 8.35958 30.3532 6.01451 30.3532C3.66944 30.3532 1.7611 28.3659 1.7611 25.9237ZM12.0715 36.4464C11.0281 35.797 10.3904 34.7908 10.2269 33.5362L9.86233 30.7321C11.1853 29.5822 12.0283 27.8536 12.0283 25.923C12.0283 25.3923 11.9639 24.877 11.8443 24.3846L13.7193 22.342C14.5595 21.4272 15.6447 21.0033 16.8537 21.1169L18.2042 21.2436C15.0267 24.7701 13.0773 29.5099 13.0773 34.7156C13.0773 35.5442 13.1276 36.3609 13.2231 37.1629L12.0715 36.4464ZM15.9405 62.1652C13.5955 62.1652 11.6871 60.1779 11.6871 57.7358C11.6871 55.2936 13.5955 53.3063 15.9405 53.3063C18.2856 53.3063 20.1939 55.2936 20.1939 57.7358C20.1939 60.1779 18.2856 62.1652 15.9405 62.1652ZM27.4217 54.9885C26.5058 55.8214 25.3902 56.1421 24.1939 55.9158L21.5226 55.4108C20.6809 53.2274 18.6926 51.6485 16.3376 51.4878L15.0508 48.9977C14.4746 47.8832 14.4229 46.6787 14.9007 45.5147L15.4309 44.2233C18.1058 49.2587 22.8349 52.9517 28.4332 54.0685L27.4217 54.9885ZM14.8384 34.7164C14.8384 24.8615 22.5369 16.8444 32 16.8444C41.4631 16.8444 49.1616 24.8615 49.1616 34.7164C49.1616 44.5712 41.4631 52.5883 32 52.5883C22.5369 52.5883 14.8384 44.5712 14.8384 34.7164ZM52.3129 57.7358C52.3129 60.1779 50.4045 62.1652 48.0595 62.1652C45.7144 62.1652 43.8061 60.1779 43.8061 57.7358C43.8061 55.2936 45.7144 53.3063 48.0595 53.3063C50.4052 53.3063 52.3129 55.2936 52.3129 57.7358ZM49.0993 45.5147C49.5771 46.6787 49.5247 47.8832 48.9492 48.9977L47.6624 51.4878C45.3067 51.6485 43.3183 53.2274 42.4774 55.4108L39.8061 55.9158C38.6098 56.1421 37.4935 55.8214 36.5783 54.9885L35.5668 54.0685C41.1651 52.9517 45.8942 49.2587 48.5691 44.2233L49.0993 45.5147ZM53.7731 33.5369C53.6096 34.7915 52.9719 35.7977 51.9285 36.4472L50.7761 37.1644C50.8717 36.3624 50.922 35.5456 50.922 34.7171C50.922 29.5114 48.9726 24.7716 45.7951 21.2451L47.1456 21.1183C48.3575 21.0048 49.4404 21.4287 50.2807 22.3435L52.1557 24.3853C52.0361 24.8777 51.9717 25.393 51.9717 25.9237C51.9717 27.8543 52.8154 29.5829 54.1377 30.7329L53.7731 33.5369ZM57.9855 30.3532C55.6404 30.3532 53.7321 28.3659 53.7321 25.9237C53.7321 23.4816 55.6404 21.4943 57.9855 21.4943C60.3306 21.4943 62.2389 23.4816 62.2389 25.9237C62.2389 28.3659 60.3306 30.3532 57.9855 30.3532ZM44.4049 36.2599C44.5542 36.369 44.722 36.4516 44.9046 36.5002C45.0299 36.5334 45.1573 36.5504 45.2833 36.5504C45.5523 36.5504 45.8177 36.4752 46.0549 36.3285L47.9384 35.1645C48.6583 34.7193 48.8968 33.7478 48.4693 32.9973L43.496 24.2689C43.0685 23.5192 42.1356 23.2708 41.415 23.716L39.5307 24.88C39.0791 25.1593 38.8172 25.6458 38.7903 26.1552L38.3854 26.3417H34.1978C34.0435 26.3417 33.8913 26.3837 33.7576 26.4648L32.4594 27.2454H26.0244L25.5296 26.9484C25.6351 26.3196 25.3683 25.6591 24.8105 25.3141L22.9269 24.1502C22.207 23.705 21.2734 23.9534 20.8459 24.703L15.5307 34.0316C15.324 34.3942 15.2653 34.8203 15.3658 35.2294C15.4663 35.6393 15.7133 35.9835 16.0616 36.1987L17.9451 37.3627C18.1823 37.5094 18.4477 37.5846 18.7167 37.5846C18.8427 37.5846 18.9701 37.5684 19.0954 37.5344C19.3467 37.4674 19.5718 37.3384 19.7551 37.1592L21.1644 38.007C21.0773 38.2598 21.0299 38.5281 21.0299 38.8053C21.0299 39.4341 21.2628 40.023 21.6861 40.4638C22.1108 40.9061 22.6763 41.1494 23.2787 41.1494C23.3495 41.1494 23.4196 41.1457 23.4889 41.1391C23.5958 41.4759 23.777 41.7929 24.034 42.0605C24.5266 42.5735 25.1934 42.7991 25.8375 42.7364C25.9444 43.0733 26.1256 43.3903 26.3826 43.6579C26.8752 44.1709 27.5413 44.3957 28.1862 44.3338C28.293 44.6707 28.4743 44.9869 28.7312 45.2545C29.1708 45.7115 29.7469 45.9408 30.3238 45.9408C30.9007 45.9408 31.4776 45.7123 31.9165 45.2545L32.3921 44.7584L33.2925 45.3002C33.6606 45.5214 34.0697 45.6341 34.4845 45.6341C34.6933 45.6341 34.9043 45.6054 35.1117 45.5479C35.7317 45.3747 36.2485 44.9626 36.5684 44.3862C36.7255 44.1031 36.8232 43.8001 36.865 43.495C37.7448 43.5495 38.6197 43.0976 39.0883 42.2514C39.2426 41.972 39.3424 41.6705 39.3849 41.3602C40.264 41.4155 41.1396 40.9629 41.6082 40.1166C41.7654 39.8336 41.863 39.5306 41.9048 39.2254C42.1589 39.2409 42.4173 39.2137 42.6714 39.1429C43.2915 38.9697 43.8089 38.5576 44.1281 37.9819C44.4219 37.4556 44.5153 36.8511 44.4049 36.2599ZM42.1051 25.4203L46.8321 33.7161L45.364 34.6235L40.6371 26.3277L42.1051 25.4203ZM34.4336 28.1742H38.5716C38.694 28.1742 38.8158 28.1477 38.9276 28.0961L39.4578 27.8514L43.2688 34.5394L43.2362 34.5593L35.777 30.0746C35.5045 29.9109 35.169 29.9109 34.8972 30.0746L31.6404 32.0324C31.2079 32.2926 30.653 32.1378 30.4031 31.6875C30.1532 31.2371 30.3019 30.6584 30.7344 30.3982L34.4336 28.1742ZM17.1679 34.7495L22.2368 25.8537L23.7048 26.7611L18.636 35.657L17.1679 34.7495ZM23.6277 39.1665C23.4387 39.3633 23.1202 39.3626 22.9312 39.1665C22.8087 39.0389 22.7903 38.8849 22.7903 38.8038C22.7903 38.7235 22.8087 38.5687 22.9312 38.4411L25.461 35.8066C25.65 35.6105 25.9685 35.6098 26.1575 35.8066C26.3465 36.0034 26.3465 36.3351 26.1575 36.5319L26.1561 36.5334L23.6277 39.1665ZM25.9763 40.7631C25.788 40.9592 25.4688 40.9599 25.2805 40.7631C25.0922 40.5663 25.0915 40.2346 25.2805 40.0378L25.2812 40.037L27.4019 37.8286L27.4033 37.8271C27.4953 37.7313 27.6185 37.6789 27.7515 37.6789C27.8839 37.6789 28.0078 37.732 28.0998 37.8271C28.2223 37.9546 28.2407 38.1087 28.2407 38.1898C28.2407 38.2701 28.2223 38.4242 28.0998 38.5524L25.9763 40.7631ZM28.3249 42.3598C28.1366 42.5558 27.8174 42.5566 27.6291 42.3598C27.4401 42.163 27.4401 41.8312 27.6291 41.6344L29.3442 39.8483C29.5332 39.6522 29.8517 39.6522 30.04 39.8483C30.1624 39.9759 30.1809 40.1299 30.1809 40.211C30.1809 40.2921 30.1624 40.4462 30.04 40.5737L30.0386 40.5751L28.3249 42.3598ZM29.9777 43.9571C29.7887 43.7603 29.7887 43.4286 29.9777 43.2318L29.9784 43.2311L31.2837 41.8718L31.2851 41.8703C31.4734 41.6735 31.7926 41.6735 31.9809 41.8703C32.1699 42.0671 32.1699 42.3988 31.9809 42.5957L30.6735 43.9571C30.4852 44.1532 30.166 44.1532 29.9777 43.9571ZM35.0465 43.4684C34.9623 43.6203 34.825 43.7294 34.6594 43.7758C34.4937 43.8223 34.3217 43.7994 34.1759 43.7109L33.604 43.3667C33.7852 43.0239 33.8829 42.6369 33.8829 42.2322C33.8829 42.1519 33.8786 42.073 33.8715 41.9941L34.8137 42.5603C35.1124 42.7416 35.2193 43.1566 35.0465 43.4684ZM42.6063 37.0642C42.522 37.216 42.3847 37.3244 42.2184 37.3708C42.052 37.4172 41.8807 37.3944 41.7356 37.3067L35.3962 33.4949C34.9758 33.2421 34.4371 33.3917 34.1936 33.8303C33.9508 34.2689 34.0952 34.8291 34.5157 35.0827L39.8528 38.2915L39.8542 38.2922C40.1515 38.4728 40.2577 38.8871 40.0856 39.1982C39.9101 39.5151 39.5194 39.6242 39.215 39.4414L38.2184 38.8421C38.2162 38.8407 34.1299 36.3838 34.1299 36.3838C33.7094 36.1309 33.1708 36.2806 32.9273 36.7192C32.6845 37.1578 32.8289 37.718 33.2493 37.9716L37.335 40.4285C37.6316 40.6091 37.7377 41.0226 37.565 41.3337C37.3895 41.6506 36.9981 41.7597 36.6944 41.5769L34.2778 40.124C33.863 39.8741 33.3343 40.0179 33.0865 40.4417C32.7553 40.1491 32.3539 39.9655 31.9236 39.908C31.862 39.4119 31.6489 38.9328 31.2837 38.5524C30.9184 38.1721 30.4576 37.9502 29.9805 37.8861C29.9182 37.373 29.6967 36.9005 29.3421 36.5312C28.9867 36.1612 28.533 35.9304 28.0411 35.8656C27.9795 35.3695 27.7664 34.8903 27.4012 34.51C26.5227 33.5952 25.0936 33.5959 24.2152 34.51L22.2587 36.5474L20.7057 35.6135L24.7163 28.5752L25.347 28.9541C25.4808 29.0345 25.6323 29.0772 25.7873 29.0772H29.4893C28.5047 29.9242 28.218 31.414 28.877 32.6037C29.6125 33.9298 31.2454 34.3854 32.5196 33.6202L35.336 31.927L42.3713 36.1575C42.5171 36.2452 42.6218 36.3882 42.6664 36.5607C42.7124 36.7332 42.6905 36.9116 42.6063 37.0642Z" fill="black"/>
</svg>
