<svg width="64" height="64" viewBox="0 0 64 64" fill="none" xmlns="http://www.w3.org/2000/svg">
<path d="M32 9.5C26.4634 9.49942 21.1124 11.4963 16.9297 15.1238C12.747 18.7514 10.0134 23.7662 9.2309 29.2472C8.44839 34.7283 9.66951 40.3077 12.67 44.9608C15.6705 49.6139 20.2489 53.0283 25.5645 54.5771C25.5364 54.4926 25.5072 54.4093 25.4836 54.3197C25.3011 53.6107 25.0832 52.9208 24.8435 52.2474C20.1997 50.564 16.2978 47.2976 13.8239 43.0223C11.3499 38.747 10.4622 33.7364 11.3167 28.8714C12.1713 24.0063 14.7134 19.5982 18.4963 16.4219C22.2791 13.2456 27.0606 11.5044 32.0001 11.5044C36.9396 11.5044 41.721 13.2456 45.5039 16.4219C49.2867 19.5982 51.8289 24.0063 52.6834 28.8714C53.538 33.7364 52.6502 38.747 50.1763 43.0223C47.7023 47.2976 43.8005 50.564 39.1566 52.2474C38.9178 52.9179 38.701 53.6042 38.5198 54.3087C38.4958 54.4019 38.4659 54.4889 38.4368 54.5767C43.7522 53.0277 48.3304 49.6131 51.3306 44.9599C54.3308 40.3068 55.5517 34.7275 54.7691 29.2466C53.9864 23.7657 51.2528 18.7511 47.0701 15.1236C42.8874 11.4962 37.5366 9.49942 32 9.5Z" fill="black"/>
<path d="M43.355 40.38C43.865 39.515 44.295 38.715 44.67 37.94C45.8135 35.726 46.4393 33.2812 46.5 30.79C46.5 22.36 40.125 15.5 32.29 15.5H31.71C23.875 15.5 17.5 22.36 17.5 30.79C17.5608 33.2796 18.1865 35.7227 19.33 37.935C19.705 38.715 20.135 39.515 20.645 40.375C20.98 40.94 21.38 41.565 21.8 42.22L21.845 42.285C23.68 45.15 26.2 49.075 27.42 53.81C27.5382 54.2465 27.7733 54.6424 28.1 54.955C28.4726 55.3045 28.9641 55.4993 29.475 55.5H30.175V40.105C29.0862 39.7836 28.1151 39.151 27.3811 38.285C26.6471 37.419 26.1822 36.3573 26.0436 35.2306C25.9049 34.1039 26.0986 32.9612 26.6007 31.9431C27.1029 30.925 27.8916 30.0758 28.87 29.5V34.94L32 36.775L35.13 34.94V29.5C36.1084 30.0758 36.8971 30.925 37.3993 31.9431C37.9014 32.9612 38.0951 34.1039 37.9564 35.2306C37.8178 36.3573 37.3529 37.419 36.6189 38.285C35.8849 39.151 34.9138 39.7836 33.825 40.105V55.5H34.525C35.0335 55.4997 35.523 55.3067 35.895 54.96C36.2235 54.648 36.4604 54.252 36.58 53.815C37.8 49.075 40.315 45.155 42.155 42.29C42.6 41.595 43.01 40.955 43.355 40.38ZM40.475 41.205C38.6514 43.9045 37.0941 46.7746 35.825 49.775V41.43C37.056 40.782 38.0917 39.8171 38.8253 38.6351C39.5588 37.453 39.9635 36.0966 39.9977 34.7058C40.0318 33.3151 39.6941 31.9404 39.0195 30.7238C38.3449 29.5072 37.3577 28.4927 36.16 27.785C35.8489 27.5984 35.4928 27.4999 35.13 27.5C34.7846 27.4991 34.445 27.5887 34.145 27.76C33.8373 27.9347 33.5813 28.1876 33.4031 28.4932C33.2248 28.7989 33.1306 29.1462 33.13 29.5V33.795L32 34.46L30.87 33.795V29.5C30.8694 29.1462 30.7752 28.7989 30.5969 28.4932C30.4187 28.1876 30.1627 27.9347 29.855 27.76C29.555 27.5887 29.2154 27.4991 28.87 27.5C28.5072 27.4999 28.1511 27.5984 27.84 27.785C26.6423 28.4927 25.6551 29.5072 24.9805 30.7238C24.3059 31.9404 23.9682 33.3151 24.0023 34.7058C24.0365 36.0966 24.4412 37.453 25.1747 38.6351C25.9083 39.8171 26.944 40.782 28.175 41.43V49.77C26.9053 46.7724 25.3498 43.9042 23.53 41.205C23.09 40.525 22.695 39.91 22.365 39.355C21.885 38.545 21.48 37.795 21.13 37.07C20.1203 35.1263 19.5631 32.9794 19.5 30.79C19.5 23.46 24.975 17.5 31.71 17.5H32.29C39.025 17.5 44.5 23.46 44.5 30.79C44.4369 32.9794 43.8797 35.1263 42.87 37.07C42.52 37.795 42.115 38.54 41.63 39.36C41.305 39.905 40.91 40.525 40.475 41.205Z" fill="black"/>
<path d="M59.931 24.8276H58.929C58.2971 22.4471 57.3488 20.1622 56.1095 18.0339L56.8219 17.3214C57.5839 16.5577 58.0117 15.523 58.0117 14.4442C58.0117 13.3655 57.5839 12.3307 56.8219 11.567L52.4329 7.17804C51.6698 6.41497 50.6349 5.98628 49.5557 5.98628C48.4766 5.98628 47.4416 6.41497 46.6785 7.17804L45.9661 7.8905C43.8378 6.65116 41.5529 5.70289 39.1724 5.07104V4.06897C39.1712 2.99019 38.7421 1.95594 37.9793 1.19312C37.2165 0.430306 36.1822 0.00122015 35.1035 0L28.8965 0C27.8178 0.00122149 26.7835 0.430309 26.0207 1.19312C25.2579 1.95594 24.8288 2.99019 24.8276 4.06897V5.07104C22.4472 5.70289 20.1622 6.65116 18.0339 7.8905L17.3214 7.17806C16.9436 6.80023 16.495 6.50051 16.0014 6.29602C15.5077 6.09154 14.9786 5.98629 14.4443 5.98629C13.9099 5.98629 13.3808 6.09154 12.8871 6.29602C12.3935 6.50051 11.9449 6.80023 11.5671 7.17806L7.17807 11.5671C6.41615 12.3307 5.98825 13.3655 5.98824 14.4442C5.98823 15.523 6.41611 16.5577 7.17802 17.3214L7.89051 18.0339C6.65116 20.1622 5.70289 22.4472 5.07105 24.8276H4.06897C2.99019 24.8288 1.95594 25.2579 1.19312 26.0207C0.430308 26.7835 0.00122148 27.8178 0 28.8965L0 35.1035C0.00122149 36.1822 0.430309 37.2165 1.19312 37.9793C1.95594 38.7421 2.99019 39.1712 4.06897 39.1724H5.07107C5.7029 41.5528 6.65118 43.8378 7.89053 45.9661L7.1781 46.6785C6.4162 47.4422 5.98831 48.4769 5.9883 49.5557C5.98829 50.6345 6.41615 51.6692 7.17804 52.4329L11.5671 56.8219C11.9449 57.1997 12.3935 57.4995 12.8871 57.7039C13.3808 57.9084 13.9099 58.0137 14.4443 58.0137C14.9786 58.0137 15.5077 57.9084 16.0014 57.7039C16.4951 57.4994 16.9436 57.1997 17.3214 56.8219L18.0338 56.1095C20.1621 57.3489 22.4471 58.2972 24.8276 58.929V59.9311C24.8288 61.0098 25.2579 62.0441 26.0207 62.8069C26.7835 63.5697 27.8178 63.9988 28.8965 64H35.1035C36.1822 63.9988 37.2165 63.5697 37.9793 62.8069C38.7421 62.0441 39.1712 61.0098 39.1724 59.931V58.9289C41.5529 58.2971 43.8379 57.3489 45.9662 56.1095L46.6786 56.8218C47.0564 57.1997 47.5049 57.4994 47.9986 57.7039C48.4923 57.9084 49.0214 58.0136 49.5558 58.0136C50.0901 58.0136 50.6192 57.9084 51.1129 57.7039C51.6066 57.4994 52.0551 57.1997 52.4329 56.8218L56.8219 52.4329C57.5838 51.6693 58.0117 50.6345 58.0117 49.5558C58.0117 48.477 57.5838 47.4423 56.822 46.6786L56.1095 45.9661C57.3488 43.8378 58.2971 41.5528 58.929 39.1724H59.931C61.0098 39.1712 62.0441 38.7421 62.8069 37.9793C63.5697 37.2165 63.9988 36.1822 64 35.1035V28.8965C63.9988 27.8178 63.5697 26.7835 62.8069 26.0207C62.0441 25.2579 61.0098 24.8288 59.931 24.8276ZM62 35.1035C62 35.6522 61.782 36.1784 61.394 36.5664C61.006 36.9544 60.4798 37.1724 59.931 37.1724H57.3437C56.6837 40.4157 55.4037 43.501 53.5739 46.259L55.4077 48.0927C55.7957 48.4808 56.0137 49.007 56.0137 49.5557C56.0137 50.1044 55.7957 50.6307 55.4077 51.0187L51.0187 55.4076C50.8266 55.5998 50.5985 55.7522 50.3475 55.8561C50.0965 55.9601 49.8274 56.0136 49.5557 56.0136C49.284 56.0136 49.015 55.9601 48.764 55.8561C48.5129 55.7522 48.2849 55.5998 48.0928 55.4076L46.259 53.5739C43.5011 55.4037 40.4157 56.6837 37.1724 57.3437V59.931C37.1724 60.4797 36.9544 61.006 36.5664 61.394C36.1784 61.782 35.6522 62 35.1035 62H28.8965C28.3478 62 27.8216 61.782 27.4336 61.394C27.0456 61.006 26.8276 60.4798 26.8276 59.931V57.3437C23.5843 56.6837 20.4989 55.4037 17.741 53.5739L15.9072 55.4076C15.7151 55.5998 15.487 55.7522 15.236 55.8561C14.985 55.9601 14.716 56.0136 14.4443 56.0136C14.1726 56.0136 13.9035 55.9601 13.6525 55.8561C13.4015 55.7522 13.1734 55.5998 12.9813 55.4076L8.59229 51.0187C8.20429 50.6307 7.98632 50.1045 7.98632 49.5557C7.98632 49.007 8.20429 48.4808 8.59229 48.0927L10.4261 46.259C8.59626 43.501 7.31624 40.4157 6.65628 37.1724H4.06897C3.52025 37.1724 2.994 36.9544 2.606 36.5664C2.21799 36.1784 2.00001 35.6522 2 35.1035V28.8965C2 28.6248 2.05351 28.3558 2.15749 28.1048C2.26146 27.8538 2.41386 27.6257 2.60598 27.4336C2.79811 27.2414 3.02619 27.089 3.27721 26.9851C3.52823 26.8811 3.79727 26.8276 4.06897 26.8276H6.65631C7.31628 23.5843 8.5963 20.499 10.4261 17.741L8.59231 15.9072C8.20432 15.5192 7.98634 14.993 7.98634 14.4442C7.98634 13.8955 8.20432 13.3693 8.59231 12.9813L12.9813 8.59227C13.1734 8.40014 13.4015 8.24774 13.6525 8.14377C13.9035 8.03979 14.1726 7.98628 14.4443 7.98628C14.716 7.98628 14.985 8.03979 15.236 8.14377C15.4871 8.24774 15.7151 8.40014 15.9073 8.59227L17.7411 10.426C20.499 8.59626 23.5843 7.31625 26.8276 6.65629V4.06897C26.8276 3.79727 26.8811 3.52823 26.9851 3.27721C27.0891 3.02619 27.2415 2.79811 27.4336 2.60599C27.6257 2.41387 27.8538 2.26147 28.1048 2.15749C28.3558 2.05351 28.6248 2 28.8965 2H35.1035C35.3752 2 35.6442 2.05351 35.8952 2.15748C36.1462 2.26146 36.3743 2.41386 36.5664 2.60598C36.7586 2.7981 36.911 3.02618 37.0149 3.2772C37.1189 3.52823 37.1724 3.79727 37.1724 4.06897V6.65631C40.4157 7.31628 43.501 8.59629 46.259 10.4261L48.0928 8.59229C48.4808 8.20428 49.007 7.9863 49.5558 7.9863C50.1045 7.9863 50.6307 8.20428 51.0187 8.59229L55.4077 12.9813C55.7957 13.3693 56.0137 13.8956 56.0137 14.4443C56.0137 14.993 55.7957 15.5192 55.4077 15.9073L53.5739 17.741C55.4037 20.499 56.6837 23.5843 57.3437 26.8276H59.931C60.4798 26.8276 61.006 27.0456 61.394 27.4336C61.782 27.8216 62 28.3478 62 28.8965V35.1035Z" fill="black"/>
</svg>
