<svg width="64" height="80" viewBox="0 0 64 80" fill="none" xmlns="http://www.w3.org/2000/svg">
<path d="M35.4487 59.9524H27.2969C26.6043 59.9524 26.0428 59.3932 26.0428 58.7034V55.2919C22.9064 54.634 19.889 53.3917 17.211 51.6556L14.7587 54.0733C14.268 54.557 13.4771 54.5548 12.9891 54.0685L7.16154 48.259C6.67275 47.7718 6.67228 46.9824 7.16045 46.4947L9.58607 44.0705C7.84535 41.4063 6.5997 38.4044 5.93972 35.2845H2.52804C1.83546 35.2845 1.27393 34.7252 1.27393 34.0355V25.9169C1.27393 25.2272 1.83546 24.6679 2.52804 24.6679H5.93972C6.5997 21.5499 7.84707 18.5473 9.59108 15.8797L7.16577 13.4443C6.67918 12.9558 6.68106 12.1674 7.17001 11.681L13.0048 5.87737C13.4939 5.39072 14.2859 5.3901 14.7758 5.8758L17.2135 8.29232C19.8886 6.55917 22.905 5.31828 26.0428 4.66052V1.24901C26.0428 0.559244 26.6043 0 27.2969 0H35.4487C36.1412 0 36.7028 0.559244 36.7028 1.24901V4.66068C39.8288 5.31734 42.8411 6.55917 45.5189 8.29545L47.9572 5.88096C48.4476 5.39556 49.2402 5.39681 49.7287 5.88392L55.5563 11.6932C56.045 12.1805 56.0455 12.9697 55.5575 13.4576L53.1319 15.8818C54.8726 18.5459 56.1183 21.5477 56.7782 24.6678H60.2175C60.9101 24.6678 61.4716 25.227 61.4716 25.9168V34.0353C61.4716 34.7251 60.9101 35.2843 60.2175 35.2843H56.7781C56.1181 38.4034 54.8713 41.4059 53.1287 44.0722L55.5553 46.5076C56.0419 46.996 56.0403 47.7844 55.5517 48.2709L49.7204 54.0747C49.2311 54.5618 48.4379 54.562 47.948 54.0755L45.5175 51.6606C42.842 53.3945 39.8307 54.6351 36.7028 55.2917V58.7034C36.7028 59.3932 36.1412 59.9524 35.4487 59.9524ZM28.551 57.4544H34.1945V54.2571C34.1945 53.6469 34.6372 53.1261 35.2416 53.0253C38.7199 52.4448 42.074 51.0632 44.9415 49.0295C45.4404 48.6762 46.1217 48.7326 46.5548 49.1627L48.8329 51.4262L52.8945 47.3836L50.6197 45.1006C50.1897 44.6689 50.1342 43.9916 50.4884 43.4964C52.5308 40.6398 53.9188 37.2968 54.5022 33.8291C54.6034 33.2274 55.1262 32.7865 55.739 32.7865H58.9634V27.1659H55.7392C55.1266 27.1659 54.6036 26.725 54.5023 26.1233C53.9185 22.653 52.5313 19.3101 50.4904 16.456C50.1356 15.9598 50.1921 15.2813 50.6236 14.8498L52.8975 12.5772L48.8384 8.53088L46.5532 10.7938C46.1198 11.223 45.4393 11.2784 44.9415 10.9254C42.0707 8.88951 38.7166 7.50685 35.2414 6.927C34.6372 6.82614 34.1945 6.30531 34.1945 5.69517V2.49802H28.551V5.69532C28.551 6.30546 28.1083 6.8263 27.5041 6.92716C24.0138 7.50951 20.6548 8.89122 17.7902 10.9227C17.2922 11.2757 16.611 11.22 16.178 10.7905L13.8926 8.52495L9.8267 12.5691L12.0999 14.852C12.5298 15.2836 12.5851 15.9608 12.231 16.456C10.1869 19.3145 8.79848 22.6575 8.21532 26.1233C8.11405 26.725 7.59108 27.1659 6.97844 27.1659H3.78216V32.7865H6.9786C7.59123 32.7865 8.1142 33.2274 8.21547 33.8291C8.79926 37.2993 10.1866 40.6423 12.2274 43.4964C12.5822 43.9926 12.5259 44.6711 12.0941 45.1025L9.82027 47.3752L13.8811 51.4234L16.1802 49.1566C16.6138 48.7293 17.2933 48.6746 17.79 49.0269C20.6581 51.0609 24.0171 52.4435 27.504 53.0253C28.1081 53.1261 28.5508 53.6468 28.5508 54.2571V57.4544H28.551Z" fill="black"/>
<path d="M31.3589 49.961C20.2944 49.961 11.293 40.996 11.293 29.9766C11.293 18.9571 20.2944 9.99219 31.3589 9.99219C42.4233 9.99219 51.4248 18.9571 51.4248 29.9766C51.4248 40.996 42.4232 49.961 31.3589 49.961ZM31.3589 12.4902C21.6775 12.4902 13.8012 20.3346 13.8012 29.9766C13.8012 39.6186 21.6775 47.463 31.3589 47.463C41.0402 47.463 48.9165 39.6186 48.9165 29.9766C48.9165 20.3346 41.0402 12.4902 31.3589 12.4902Z" fill="black"/>
<path d="M40.1516 47.7801C39.459 47.7801 38.8975 47.2208 38.8975 46.531V41.2227C38.8975 39.2241 38.1135 37.342 36.6899 35.9227C35.2681 34.5081 33.3769 33.7285 31.3659 33.7285C27.2206 33.7285 23.8481 37.0904 23.8481 41.2227V46.531C23.8481 47.2208 23.2865 47.7801 22.594 47.7801C21.9014 47.7801 21.3398 47.2208 21.3398 46.531V41.2227C21.3398 35.7129 25.8374 31.2305 31.3659 31.2305C34.0464 31.2305 36.5672 32.2695 38.4636 34.1563C40.3612 36.0481 41.4057 38.5574 41.4057 41.2227V46.531C41.4057 47.2208 40.8442 47.7801 40.1516 47.7801Z" fill="black"/>
<path d="M31.359 33.7246C27.9014 33.7246 25.0884 30.9231 25.0884 27.4795C25.0884 24.0359 27.9014 21.2344 31.359 21.2344C34.8166 21.2344 37.6296 24.0359 37.6296 27.4795C37.6296 30.9231 34.8166 33.7246 31.359 33.7246ZM31.359 23.7324C29.2843 23.7324 27.5966 25.4135 27.5966 27.4795C27.5966 29.5456 29.2843 31.2266 31.359 31.2266C33.4336 31.2266 35.1213 29.5456 35.1213 27.4795C35.1213 25.4135 33.4336 23.7324 31.359 23.7324Z" fill="black"/>
<path d="M36.9307 80.003C36.7311 80.003 36.5308 79.9555 36.3472 79.8595L31.9859 77.5759L27.6245 79.8595C27.202 80.0809 26.6899 80.0439 26.3038 79.7644C25.9175 79.4851 25.7242 79.0114 25.8048 78.5428L26.6377 73.7061L23.1092 70.2807C22.7673 69.9489 22.6444 69.4524 22.7919 69.0003C22.9394 68.5481 23.332 68.2185 23.8043 68.1503L28.6805 67.4446L30.8612 63.044C31.0725 62.6176 31.5085 62.3477 31.9859 62.3477C32.4632 62.3477 32.8993 62.6176 33.1105 63.044L35.2911 67.4446L40.1673 68.1503C40.6397 68.2187 41.0321 68.5483 41.1796 69.0003C41.3272 69.4524 41.2041 69.9489 40.8623 70.2807L37.3339 73.7061L38.1668 78.5428C38.2475 79.0115 38.0541 79.4851 37.6678 79.7644C37.4496 79.9224 37.1908 80.003 36.9307 80.003ZM31.986 74.9158C32.1865 74.9158 32.3869 74.9638 32.5695 75.0593L35.2652 76.4707L34.7506 73.4813C34.6808 73.076 34.8156 72.6627 35.1113 72.3758L37.2922 70.2584L34.2781 69.8223C33.8697 69.7631 33.5165 69.5075 33.3339 69.1389L31.986 66.4189L30.6381 69.1389C30.4555 69.5075 30.1023 69.7631 29.6939 69.8223L26.68 70.2584L28.8609 72.3758C29.1566 72.6627 29.2914 73.076 29.2216 73.4813L28.7068 76.4707L31.4025 75.0593C31.585 74.9638 31.7855 74.9158 31.986 74.9158Z" fill="black"/>
<path d="M12.0663 72.5047C11.8668 72.5047 11.6664 72.4573 11.4829 72.3613L7.93652 70.5044L4.39003 72.3613C3.96755 72.5827 3.45555 72.5457 3.06929 72.2662C2.68317 71.9867 2.48973 71.5132 2.57046 71.0446L3.24784 67.1119L0.378732 64.3264C0.0368275 63.9947 -0.0860764 63.4982 0.0614393 63.046C0.208955 62.5939 0.601494 62.2643 1.07383 62.1961L5.03888 61.6223L6.81205 58.044C7.02337 57.6176 7.45917 57.3477 7.93668 57.3477C8.41418 57.3477 8.84999 57.6176 9.06131 58.044L10.8345 61.6223L14.7995 62.1961C15.2719 62.2645 15.6644 62.594 15.8119 63.046C15.9594 63.4982 15.8364 63.9947 15.4946 64.3264L12.6255 67.1119L13.3029 71.0446C13.3836 71.5132 13.1902 71.9867 12.8041 72.2662C12.5852 72.4242 12.3264 72.5047 12.0663 72.5047ZM7.93652 67.8443C8.13702 67.8443 8.33737 67.8922 8.52015 67.9878L10.401 68.9725L10.0417 66.8869C9.97196 66.4816 10.1068 66.0684 10.4024 65.7814L11.924 64.3041L9.82115 64C9.41278 63.9408 9.05958 63.6852 8.87695 63.3166L7.93652 61.419L6.99609 63.3166C6.81346 63.6852 6.46027 63.9408 6.05189 64L3.94905 64.3041L5.47061 65.7814C5.76627 66.0684 5.90109 66.4816 5.83133 66.8869L5.47202 68.9725L7.35288 67.9878C7.53567 67.8922 7.73602 67.8443 7.93652 67.8443Z" fill="black"/>
<path d="M60.193 72.5047C59.9935 72.5047 59.7931 72.4573 59.6095 72.3613L56.0632 70.5044L52.5169 72.3613C52.0944 72.5827 51.5822 72.5455 51.1961 72.2662C50.8099 71.9869 50.6166 71.5133 50.6971 71.0446L51.3744 67.1119L48.5053 64.3264C48.1634 63.9945 48.0403 63.4982 48.188 63.046C48.3355 62.5939 48.7279 62.2643 49.2004 62.1961L53.1653 61.6223L54.9386 58.044C55.1499 57.6176 55.5859 57.3477 56.0632 57.3477C56.5406 57.3477 56.9765 57.6176 57.1878 58.044L58.9612 61.6223L62.9261 62.1961C63.3986 62.2645 63.7909 62.594 63.9384 63.046C64.086 63.4982 63.9629 63.9945 63.6212 64.3264L60.752 67.1119L61.4293 71.0446C61.51 71.5133 61.3166 71.9869 60.9303 72.2662C60.7118 72.4242 60.4531 72.5047 60.193 72.5047ZM56.0632 67.8443C56.2636 67.8443 56.4642 67.8922 56.6468 67.9878L58.5276 68.9725L58.1684 66.8869C58.0986 66.4816 58.2335 66.0684 58.5291 65.7814L60.0507 64.3041L57.948 64C57.5396 63.9408 57.1864 63.6852 57.0038 63.3166L56.0632 61.4187L55.1228 63.3164C54.9401 63.6851 54.587 63.9406 54.1786 63.9998L52.0759 64.304L53.5975 65.7812C53.8931 66.0682 54.0279 66.4815 53.9582 66.8868L53.599 68.9723L55.4797 67.9876C55.6622 67.8923 55.8629 67.8443 56.0632 67.8443Z" fill="black"/>
</svg>
