<svg width="64" height="64" viewBox="0 0 64 64" fill="none" xmlns="http://www.w3.org/2000/svg">
<path d="M31.9998 52.4982C20.6837 52.4982 11.499 43.3243 11.499 31.9991C11.499 20.6993 20.6547 11.5 31.998 11.5C43.3159 11.5 52.4988 20.6738 52.4988 31.9991C52.4988 43.259 43.3794 52.4982 31.9998 52.4982ZM31.9998 13.6968C21.9074 13.6968 13.6976 21.9066 13.6976 31.9991C13.6976 42.0916 21.9074 50.3014 31.9998 50.3014C42.0922 50.3014 50.302 42.0916 50.302 31.9991C50.302 21.9066 42.0904 13.6968 31.9998 13.6968Z" fill="black"/>
<path d="M31.9998 47.579C23.3888 47.579 16.4209 40.5929 16.4209 32C16.4209 25.5984 20.2934 20.0375 25.936 17.6465C33.7572 14.3349 42.9583 17.9242 46.3533 25.9361C50.6996 36.2011 43.1108 47.579 31.9998 47.579ZM31.9998 18.6214C24.6216 18.6214 18.6195 24.6235 18.6195 32.0018C18.6195 39.3801 24.6216 45.3822 31.9998 45.3822C39.3781 45.3822 45.3801 39.3801 45.3801 32.0018C45.3801 24.6235 39.3781 18.6214 31.9998 18.6214Z" fill="black"/>
<path d="M34.3713 13.8416C33.7649 13.8416 33.2729 13.3495 33.2729 12.7432V7.8939C33.2729 7.28751 33.7649 6.79551 34.3713 6.79551H34.5347L32.0002 3.05734L29.4658 6.79551H29.6291C30.2355 6.79551 30.7275 7.28751 30.7275 7.8939V12.7432C30.7275 13.3495 30.2355 13.8416 29.6291 13.8416C29.0228 13.8416 28.5308 13.3495 28.5308 12.7432V8.99229H27.3943C26.9876 8.99229 26.6136 8.76716 26.423 8.40769C26.2323 8.04822 26.2559 7.61249 26.4847 7.27662L31.0906 0.482929C31.2958 0.181552 31.6353 0 32.0002 0C32.3651 0 32.7046 0.179737 32.9098 0.482929L37.5157 7.27662C38.0096 8.00283 37.4885 8.99229 36.6062 8.99229H35.4697V12.7432C35.4697 13.3495 34.9777 13.8416 34.3713 13.8416Z" fill="black"/>
<path d="M46.517 20.8338C46.0886 20.4053 46.0886 19.71 46.517 19.2797L49.9465 15.8502C50.3786 15.4217 51.0685 15.4217 51.5006 15.8502L51.6168 15.9664L52.4683 11.531L48.033 12.3825C48.0765 12.4443 48.4705 12.7129 48.4705 13.2758C48.4705 13.5681 48.3543 13.8458 48.1492 14.0528L44.7197 17.4823C44.2912 17.9108 43.5959 17.9108 43.1656 17.4823C42.7371 17.0539 42.7371 16.3585 43.1656 15.9282L45.8181 13.2758L45.0138 12.4715C44.3929 11.8506 44.716 10.783 45.582 10.6142L53.6429 9.06738C54.4 8.92032 55.0753 9.58662 54.9283 10.3528L53.3815 18.4137C53.2163 19.2743 52.1506 19.6083 51.5242 18.982L50.7199 18.1777L48.0675 20.8302C47.6445 21.2641 46.9455 21.2622 46.517 20.8338Z" fill="black"/>
<path d="M55.0079 36.6052V35.4687H51.2571C50.6507 35.4687 50.1587 34.9767 50.1587 34.3703C50.1587 33.7639 50.6507 33.2719 51.2571 33.2719H56.1063C56.7127 33.2719 57.2047 33.7639 57.2047 34.3703V34.5337L60.9428 31.9992L57.2047 29.4647V29.6281C57.2047 30.2345 56.7127 30.7265 56.1063 30.7265H51.2571C50.6507 30.7265 50.1587 30.2345 50.1587 29.6281C50.1587 29.0217 50.6507 28.5297 51.2571 28.5297H55.0079V27.3932C55.0079 26.5127 55.9974 25.9898 56.7236 26.4836L63.5172 31.0896C64.1636 31.529 64.1581 32.4749 63.5172 32.9088L56.7236 37.5148C55.9847 38.0158 55.0079 37.4748 55.0079 36.6052Z" fill="black"/>
<path d="M53.6429 54.9276L45.582 53.3808C44.7215 53.2156 44.3892 52.148 45.0138 51.5235L45.8181 50.7192L43.1656 48.0667C42.7371 47.6383 42.7371 46.9411 43.1656 46.5126C43.594 46.0842 44.2912 46.0842 44.7197 46.5126L48.1492 49.9422C48.3561 50.1491 48.4705 50.4269 48.4705 50.7192C48.4705 51.282 48.0729 51.558 48.033 51.6125L52.4683 52.4639L51.6168 48.0286C51.5551 48.0722 51.2864 48.4662 50.7236 48.4662C50.4331 48.4662 50.1535 48.35 49.9465 48.1448L46.517 44.7153C46.0886 44.2868 46.0886 43.5915 46.517 43.1612C46.9455 42.7327 47.6408 42.7327 48.0711 43.1612L50.7236 45.8137L51.5278 45.0094C52.1487 44.3885 53.2163 44.7116 53.3851 45.5777L54.9319 53.6386C55.0772 54.392 54.42 55.071 53.6429 54.9276Z" fill="black"/>
<path d="M31.0904 63.5188L26.4844 56.7251C25.9906 55.9989 26.5116 55.0094 27.394 55.0094H28.5305V51.2585C28.5305 50.6522 29.0225 50.1602 29.6289 50.1602C30.2353 50.1602 30.7273 50.6522 30.7273 51.2585V56.1078C30.7273 56.7142 30.2353 57.2062 29.6289 57.2062H29.4655L31.9999 60.9444L34.5344 57.2062H34.371C33.7646 57.2062 33.2726 56.7142 33.2726 56.1078V51.2585C33.2726 50.6522 33.7646 50.1602 34.371 50.1602C34.9774 50.1602 35.4694 50.6522 35.4694 51.2585V55.0094H36.6059C37.4864 55.0094 38.0093 55.9989 37.5155 56.7251L32.9095 63.5188C32.4738 64.1615 31.5261 64.1615 31.0904 63.5188Z" fill="black"/>
<path d="M10.1502 54.9439C9.4658 54.9439 8.94112 54.3212 9.07183 53.6386L10.6187 45.5777C10.7839 44.7171 11.8496 44.383 12.4759 45.0094L13.2802 45.8137L15.9327 43.1612C16.3611 42.7327 17.0565 42.7327 17.4867 43.1612C17.9152 43.5897 17.9152 44.2868 17.4867 44.7153L14.0572 48.1448C13.8521 48.3518 13.5725 48.4662 13.2802 48.4662C12.7192 48.4662 12.4469 48.0722 12.387 48.0286L11.5355 52.4639L15.9708 51.6125C15.9272 51.5525 15.5332 51.2802 15.5332 50.7192C15.5332 50.4287 15.6494 50.1491 15.8546 49.9422L19.2841 46.5126C19.7126 46.0842 20.4079 46.0842 20.8382 46.5126C21.2666 46.9411 21.2666 47.6365 20.8382 48.0667L18.1857 50.7192L18.99 51.5235C19.6109 52.1444 19.2877 53.2119 18.4217 53.3808L10.3608 54.9276C10.2882 54.9367 10.2192 54.9439 10.1502 54.9439Z" fill="black"/>
<path d="M7.27635 37.515L0.482702 32.9091C-0.163621 32.4697 -0.158174 31.5238 0.482702 31.0899L7.27635 26.4839C8.00256 25.9901 8.99201 26.5111 8.99201 27.3935V28.53H12.7429C13.3492 28.53 13.8412 29.022 13.8412 29.6284C13.8412 30.2348 13.3492 30.7268 12.7429 30.7268H7.89363C7.28725 30.7268 6.79524 30.2348 6.79524 29.6284V29.465L3.0571 31.9995L6.79524 34.5339V34.3706C6.79524 33.7642 7.28725 33.2722 7.89363 33.2722H12.7429C13.3492 33.2722 13.8412 33.7642 13.8412 34.3706C13.8412 34.9769 13.3492 35.4689 12.7429 35.4689H8.99201V36.6055C8.99201 37.0121 8.76689 37.3861 8.40742 37.5768C8.05884 37.7638 7.61767 37.7456 7.27635 37.515Z" fill="black"/>
<path d="M15.9292 20.8378L13.2767 18.1853L12.4724 18.9896C11.8515 19.6105 10.784 19.2873 10.6152 18.4213L9.06835 10.3604C8.9213 9.60152 9.58759 8.92796 10.3537 9.07502L18.4146 10.6218C19.2752 10.7871 19.6092 11.8528 18.9829 12.4791L18.1786 13.2834L20.8311 15.9359C21.2595 16.3643 21.2595 17.0597 20.8311 17.49C20.4026 17.9184 19.7073 17.9184 19.277 17.49L15.8475 14.0604C15.419 13.632 15.419 12.9366 15.8475 12.5064L15.9637 12.3902L11.5284 11.5387L12.3798 15.974L12.496 15.8578C12.9245 15.4293 13.6198 15.4293 14.0501 15.8578L17.4796 19.2873C17.9081 19.7158 17.9081 20.4111 17.4796 20.8414C17.0566 21.2644 16.3576 21.2663 15.9292 20.8378Z" fill="black"/>
<path d="M32 34.4688C28.5469 34.4688 25.7383 31.6602 25.7383 28.2071C25.7383 24.7539 28.5469 21.9453 32 21.9453C35.4531 21.9453 38.2617 24.7539 38.2617 28.2071C38.2617 31.6602 35.4531 34.4688 32 34.4688ZM32 24.1421C29.7596 24.1421 27.9369 25.9649 27.9369 28.2052C27.9369 30.4456 29.7596 32.2684 32 32.2684C34.2403 32.2684 36.0631 30.4456 36.0631 28.2052C36.0631 25.9649 34.2403 24.1421 32 24.1421Z" fill="black"/>
<path d="M41.0575 42.467C40.5074 38.0026 36.7039 34.466 31.9981 34.466C27.394 34.466 23.4997 37.9064 22.9387 42.467C22.8643 43.0697 22.316 43.4964 21.7132 43.4238C21.1105 43.3493 20.682 42.8011 20.7564 42.2001C21.6697 34.7637 29.4927 30.2376 36.4044 33.1588C40.0953 34.7183 42.7423 38.1551 43.2361 42.1983C43.3106 42.8011 42.8821 43.3493 42.2794 43.422C41.6929 43.4982 41.1338 43.0752 41.0575 42.467Z" fill="black"/>
</svg>
