<svg width="361" height="327" viewBox="0 0 361 327" fill="none" xmlns="http://www.w3.org/2000/svg">
<path opacity="0.1" d="M145.658 326.356C178.643 326.356 205.382 310.918 205.382 291.873C205.382 272.829 178.643 257.391 145.658 257.391C112.673 257.391 85.9336 272.829 85.9336 291.873C85.9336 310.918 112.673 326.356 145.658 326.356Z" fill="black"/>
<path opacity="0.1" d="M291.342 266.447C320.741 266.447 344.574 252.688 344.574 235.715C344.574 218.743 320.741 204.984 291.342 204.984C261.942 204.984 238.109 218.743 238.109 235.715C238.109 252.688 261.942 266.447 291.342 266.447Z" fill="black"/>
<path d="M68.4787 27.3745L68.4235 27.3193C68.1043 27.0366 67.7596 26.7842 67.3936 26.5653C66.0879 25.7929 60.212 22.4182 59.9086 22.225C56.8005 20.2572 51.8809 20.6894 47.4855 22.9055C41.2142 26.0779 35.982 32.7814 31.982 43.9263C31.982 43.9263 27.9452 41.0297 26.6303 40.3033C23.3843 38.5286 19.5958 39.3837 15.3199 42.1424C10.5015 45.278 7.21871 49.3424 4.221 55.4941L4.16583 55.6045C1.57033 60.8245 0.148555 66.5492 0.000295531 72.3769C-0.0456816 85.2505 5.27848 91.4299 12.1475 96.046C14.1061 97.3609 19.2923 100.147 19.8073 100.487C23.9536 103.224 28.5379 105.23 33.3613 106.418L40.1384 108L46.9062 98.6023C51.8351 91.6748 56.3607 84.469 60.4603 77.0206C67.3293 64.4689 72.6534 52.193 72.6074 39.3194C72.6166 33.8205 71.035 29.7193 68.4787 27.3745Z" fill="#004E9E"/>
<path opacity="0.3" d="M68.4787 27.3745L68.4235 27.3193C68.1043 27.0366 67.7596 26.7842 67.3936 26.5653C66.0879 25.7929 60.212 22.4182 59.9086 22.225C56.8005 20.2572 51.8809 20.6894 47.4855 22.9055C41.2142 26.0779 35.982 32.7814 31.982 43.9263C31.982 43.9263 27.9452 41.0297 26.6303 40.3033C23.3843 38.5286 19.5958 39.3837 15.3199 42.1424C10.5015 45.278 7.21871 49.3424 4.221 55.4941L4.16583 55.6045C1.57033 60.8245 0.148555 66.5492 0.000295531 72.3769C-0.0456816 85.2505 5.27848 91.4299 12.1475 96.046C14.1061 97.3609 19.2923 100.147 19.8073 100.487C23.9536 103.224 28.5379 105.23 33.3613 106.418L40.1384 108L46.9062 98.6023C51.8351 91.6748 56.3607 84.469 60.4603 77.0206C67.3293 64.4689 72.6534 52.193 72.6074 39.3194C72.6166 33.8205 71.035 29.7193 68.4787 27.3745Z" fill="black"/>
<path d="M68.4801 27.3745L68.4249 27.3193C68.1057 27.0366 67.7609 26.7842 67.395 26.5653C66.0893 25.7929 60.2134 22.4182 59.9099 22.225C56.8019 20.2572 51.8823 20.6894 47.4869 22.9055C41.2064 26.0779 35.9834 32.7814 31.9834 43.9263C31.9834 43.9263 27.9466 41.0297 26.6317 40.3033C23.3857 38.5286 19.5971 39.3837 15.3213 42.1424C10.5029 45.278 7.2201 49.3424 4.22239 55.4941L4.16722 55.6045L3.80859 56.4045L55.1835 86.0689C57.0226 83.1172 58.7789 80.1103 60.4708 77.0206C67.3398 64.4689 72.664 52.193 72.618 39.3194C72.618 33.8205 71.0364 29.7193 68.4801 27.3745Z" fill="#004E9E"/>
<path opacity="0.15" d="M68.4801 27.3745L68.4249 27.3193C68.1057 27.0366 67.7609 26.7842 67.395 26.5653C66.0893 25.7929 60.2134 22.4182 59.9099 22.225C56.8019 20.2572 51.8823 20.6894 47.4869 22.9055C41.2064 26.0779 35.9834 32.7814 31.9834 43.9263C31.9834 43.9263 27.9466 41.0297 26.6317 40.3033C23.3857 38.5286 19.5971 39.3837 15.3213 42.1424C10.5029 45.278 7.2201 49.3424 4.22239 55.4941L4.16722 55.6045L3.80859 56.4045L55.1835 86.0689C57.0226 83.1172 58.7789 80.1103 60.4708 77.0206C67.3398 64.4689 72.664 52.193 72.618 39.3194C72.618 33.8205 71.0364 29.7193 68.4801 27.3745Z" fill="black"/>
<path d="M31.9922 43.9074L38.8796 52.8821L49.9693 39.7602L37.4359 32.5234C35.198 36.1007 33.3718 39.9196 31.9922 43.9074Z" fill="#004E9E"/>
<path opacity="0.3" d="M31.9922 43.9074L38.8796 52.8821L49.9693 39.7602L37.4359 32.5234C35.198 36.1007 33.3718 39.9196 31.9922 43.9074Z" fill="black"/>
<path d="M68.4793 27.3737L68.4241 27.3186C65.4264 24.6335 59.9643 24.9185 55.1459 27.3186C48.5712 30.6565 43.1367 37.8565 39.0723 50.0221C35.0079 42.5554 29.5734 42.3163 22.9895 46.5922C18.1711 49.7278 14.8883 53.7922 11.8722 59.944L11.8171 60.0635C9.22494 65.2871 7.80934 71.0154 7.66992 76.8452C7.66992 89.7188 12.9481 95.8889 19.8171 100.505C23.9634 103.241 28.5477 105.247 33.3712 106.436L40.1482 108.018L46.916 98.6199C51.8417 91.6903 56.3671 84.4846 60.4701 77.0383C67.3391 64.4865 72.6632 52.2106 72.6173 39.337C72.6173 33.8197 71.0356 29.7186 68.4793 27.3737Z" fill="#004E9E"/>
<g opacity="0.07">
<path d="M62.6954 26.0484C64.5971 25.9449 66.471 26.5401 67.9644 27.722L68.0839 27.8599C70.6035 30.168 72.0104 34.2967 72.0288 39.345C72.0288 52.7611 65.9506 65.7727 59.9551 76.7244C55.8693 84.1473 51.3591 91.3286 46.4471 98.2326L39.9367 107.281L33.601 105.8C28.8502 104.629 24.3346 102.654 20.2493 99.9613C14.0607 95.805 8.29521 90.1222 8.38716 76.844C8.53347 71.1098 9.92998 65.4767 12.4791 60.3382V60.2278C15.4952 54.0485 18.7412 50.1128 23.3481 47.1427C26.1068 45.3036 28.5344 44.4485 30.7045 44.4485C33.8217 44.4485 36.3781 46.3795 38.5298 50.3335C38.5872 50.4368 38.6712 50.5228 38.7731 50.5826C38.875 50.6424 38.991 50.6739 39.1091 50.6738H39.1643C39.2898 50.6604 39.409 50.6119 39.5083 50.5338C39.6075 50.4557 39.6827 50.3513 39.7252 50.2324C43.6149 38.6094 48.7643 31.3082 55.4862 27.9151C57.7296 26.7575 60.2082 26.1284 62.7322 26.076M62.7322 25.4231C60.104 25.4807 57.5242 26.1414 55.1919 27.3542C48.5712 30.6553 43.1367 37.8553 39.0723 50.0209C36.7183 45.6898 33.9045 43.7956 30.6677 43.7956C28.3229 43.7956 25.7573 44.7979 22.9895 46.5542C18.1711 49.7266 14.8883 53.791 11.8722 59.9428L11.8171 60.0623C9.22494 65.2859 7.80934 71.0142 7.66992 76.844C7.66992 89.7176 12.9481 95.8877 19.8171 100.504C23.9634 103.24 28.5477 105.246 33.3712 106.435L40.1482 108.016L46.916 98.6188C51.845 91.6913 56.3705 84.4854 60.4701 77.0371C67.3391 64.4853 72.6632 52.2094 72.6173 39.3358C72.6173 33.8185 71.0173 29.7082 68.4609 27.3817L68.4058 27.3266C66.7941 26.0047 64.75 25.3266 62.6678 25.4231H62.7322Z" fill="black"/>
</g>
<path d="M67.7349 62.0691L54.5487 69.6738L49.7027 51.8622C49.6251 51.5946 49.461 51.3602 49.236 51.1958C49.0111 51.0314 48.738 50.9462 48.4594 50.9536C48.1809 50.9609 47.9126 51.0604 47.6967 51.2365C47.4807 51.4125 47.3292 51.6552 47.2659 51.9266L39.6337 86.7773L33.1969 69.214C33.1067 68.9644 32.9394 68.75 32.7193 68.6017C32.4992 68.4534 32.2376 68.379 31.9724 68.3893C31.7072 68.3995 31.4522 68.4939 31.2441 68.6586C31.0361 68.8234 30.8859 69.0501 30.8152 69.306L26.4934 84.6991L11.9922 93.0761C12.4711 93.7684 12.9867 94.4345 13.537 95.0716L28.1945 86.6118C28.474 86.4469 28.6785 86.1798 28.7647 85.8669L32.1946 73.7106L38.7601 91.6692C38.8477 91.9273 39.0196 92.1483 39.2482 92.2967C39.4767 92.4452 39.7485 92.5124 40.0199 92.4876C40.291 92.4698 40.549 92.3641 40.7547 92.1866C40.9604 92.009 41.1027 91.7693 41.1601 91.5037L48.6544 57.4714L52.59 71.9267C52.639 72.1131 52.7303 72.2857 52.857 72.4311C52.9837 72.5764 53.1423 72.6904 53.3203 72.7643C53.4984 72.8382 53.6911 72.8699 53.8834 72.857C54.0758 72.8441 54.2625 72.7869 54.4291 72.6899L66.1257 65.8945C66.6774 64.6163 67.22 63.3381 67.7349 62.0691Z" fill="white"/>
<path d="M281.383 105.805V232.702C281.383 234.228 282.385 235.745 284.399 236.913C286.658 238.056 289.155 238.651 291.686 238.651C294.218 238.651 296.714 238.056 298.974 236.913C300.978 235.745 301.99 234.228 301.99 232.702V105.805H281.383Z" fill="#B16668"/>
<path d="M359.958 171.495L296.132 17.3242H287.24L223.369 171.495C222.908 172.61 222.7 173.813 222.76 175.018C222.82 176.223 223.146 177.4 223.715 178.464C224.284 179.528 225.081 180.452 226.05 181.171C227.019 181.89 228.135 182.385 229.318 182.621L230.358 182.824C232.382 183.222 234.18 184.374 235.389 186.046C236.597 187.719 237.126 189.788 236.868 191.835C236.699 193.187 236.871 194.56 237.368 195.828C237.866 197.096 238.673 198.219 239.716 199.095C240.76 199.971 242.006 200.572 243.341 200.843C244.676 201.113 246.058 201.045 247.36 200.644L250.514 199.67C252.411 199.088 254.455 199.217 256.265 200.032C258.074 200.848 259.524 202.295 260.344 204.102L263.516 211.1C263.986 212.147 264.671 213.083 265.527 213.847C266.384 214.611 267.392 215.186 268.486 215.533C269.58 215.88 270.735 215.992 271.875 215.862C273.015 215.732 274.115 215.363 275.103 214.778L287.489 207.421C288.749 206.676 290.186 206.283 291.65 206.283C293.114 206.283 294.551 206.676 295.811 207.421L308.188 214.778C309.176 215.363 310.276 215.732 311.417 215.863C312.558 215.993 313.714 215.881 314.808 215.533C315.903 215.186 316.912 214.612 317.769 213.848C318.627 213.084 319.313 212.147 319.783 211.1L322.956 204.102C323.769 202.287 325.219 200.832 327.032 200.012C328.844 199.192 330.894 199.064 332.795 199.651L335.949 200.626C337.251 201.027 338.632 201.095 339.968 200.824C341.303 200.554 342.549 199.953 343.592 199.077C344.636 198.201 345.443 197.078 345.94 195.809C346.438 194.541 346.61 193.169 346.441 191.817C346.185 189.771 346.713 187.705 347.919 186.033C349.125 184.361 350.92 183.208 352.942 182.805L353.99 182.594C355.172 182.361 356.288 181.869 357.257 181.153C358.227 180.437 359.025 179.515 359.596 178.454C360.167 177.393 360.495 176.218 360.558 175.015C360.62 173.812 360.415 172.61 359.958 171.495Z" fill="#004E9E"/>
<path opacity="0.5" d="M359.958 171.495L296.132 17.3242H287.24L223.369 171.495C222.908 172.61 222.7 173.813 222.76 175.018C222.82 176.223 223.146 177.4 223.715 178.464C224.284 179.528 225.081 180.452 226.05 181.171C227.019 181.89 228.135 182.385 229.318 182.621L230.358 182.824C232.382 183.222 234.18 184.374 235.389 186.046C236.597 187.719 237.126 189.788 236.868 191.835C236.699 193.187 236.871 194.56 237.368 195.828C237.866 197.096 238.673 198.219 239.716 199.095C240.76 199.971 242.006 200.572 243.341 200.843C244.676 201.113 246.058 201.045 247.36 200.644L250.514 199.67C252.411 199.088 254.455 199.217 256.265 200.032C258.074 200.848 259.524 202.295 260.344 204.102L263.516 211.1C263.986 212.147 264.671 213.083 265.527 213.847C266.384 214.611 267.392 215.186 268.486 215.533C269.58 215.88 270.735 215.992 271.875 215.862C273.015 215.732 274.115 215.363 275.103 214.778L287.489 207.421C288.749 206.676 290.186 206.283 291.65 206.283C293.114 206.283 294.551 206.676 295.811 207.421L308.188 214.778C309.176 215.363 310.276 215.732 311.417 215.863C312.558 215.993 313.714 215.881 314.808 215.533C315.903 215.186 316.912 214.612 317.769 213.848C318.627 213.084 319.313 212.147 319.783 211.1L322.956 204.102C323.769 202.287 325.219 200.832 327.032 200.012C328.844 199.192 330.894 199.064 332.795 199.651L335.949 200.626C337.251 201.027 338.632 201.095 339.968 200.824C341.303 200.554 342.549 199.953 343.592 199.077C344.636 198.201 345.443 197.078 345.94 195.809C346.438 194.541 346.61 193.169 346.441 191.817C346.185 189.771 346.713 187.705 347.919 186.033C349.125 184.361 350.92 183.208 352.942 182.805L353.99 182.594C355.172 182.361 356.288 181.869 357.257 181.153C358.227 180.437 359.025 179.515 359.596 178.454C360.167 177.393 360.495 176.218 360.558 175.015C360.62 173.812 360.415 172.61 359.958 171.495Z" fill="black"/>
<path opacity="0.1" d="M280.105 34.55L287.241 18.3477H296.133L307.967 45.796L346.487 138.826C346.307 139.804 345.823 140.7 345.102 141.386C344.382 142.071 343.463 142.511 342.478 142.642C340.913 142.901 339.508 143.752 338.554 145.019C337.601 146.286 337.172 147.872 337.356 149.447L337.494 150.624C337.608 151.673 337.451 152.734 337.038 153.706C336.625 154.677 335.97 155.526 335.135 156.172C334.3 156.818 333.313 157.239 332.269 157.394C331.225 157.55 330.159 157.435 329.172 157.061L325.963 155.865C324.491 155.301 322.858 155.323 321.402 155.927C319.946 156.531 318.777 157.671 318.137 159.111L314.22 167.902C313.863 168.697 313.341 169.406 312.689 169.985C312.037 170.563 311.271 170.996 310.439 171.257C309.608 171.518 308.731 171.599 307.866 171.497C307.001 171.394 306.167 171.109 305.42 170.661L294.845 163.608C293.888 163.039 292.796 162.738 291.682 162.738C290.569 162.738 289.476 163.039 288.519 163.608L276.703 170.725C275.956 171.173 275.123 171.458 274.259 171.561C273.395 171.663 272.518 171.582 271.688 171.321C270.857 171.06 270.091 170.627 269.44 170.048C268.789 169.47 268.269 168.761 267.912 167.967L263.995 159.185C263.355 157.744 262.186 156.604 260.731 155.998C259.275 155.392 257.643 155.368 256.169 155.93L253.006 157.134C252.022 157.501 250.96 157.61 249.921 157.451C248.883 157.291 247.902 156.869 247.073 156.224C246.244 155.579 245.593 154.733 245.183 153.765C244.773 152.798 244.617 151.742 244.73 150.698L244.868 149.521C245.052 147.944 244.622 146.357 243.666 145.09C242.711 143.823 241.303 142.972 239.737 142.716C239.032 142.623 238.357 142.37 237.764 141.976C237.171 141.583 236.676 141.059 236.316 140.445L280.105 34.55Z" fill="black"/>
<path d="M345.724 126.649L296.133 11.1641H287.241L236.409 126.649C234.57 130.328 235.627 134.787 239.71 135.459C241.276 135.715 242.683 136.566 243.639 137.833C244.595 139.1 245.025 140.687 244.841 142.263L244.703 143.44C244.59 144.485 244.746 145.541 245.156 146.508C245.566 147.476 246.216 148.322 247.046 148.967C247.875 149.612 248.856 150.034 249.894 150.194C250.932 150.353 251.994 150.244 252.979 149.877L256.142 148.673C257.615 148.111 259.248 148.135 260.703 148.741C262.159 149.346 263.327 150.487 263.968 151.928L267.885 160.709C268.241 161.504 268.762 162.213 269.413 162.791C270.064 163.369 270.83 163.803 271.66 164.064C272.491 164.324 273.367 164.406 274.232 164.303C275.096 164.201 275.929 163.916 276.676 163.468L288.483 156.415C289.44 155.846 290.532 155.546 291.646 155.546C292.759 155.546 293.852 155.846 294.809 156.415L305.384 163.468C306.131 163.916 306.964 164.201 307.83 164.304C308.695 164.406 309.572 164.325 310.403 164.064C311.234 163.804 312.001 163.37 312.653 162.792C313.304 162.214 313.826 161.504 314.184 160.709L318.101 151.928C318.739 150.485 319.907 149.343 321.364 148.738C322.82 148.132 324.453 148.109 325.926 148.673L329.08 149.877C330.067 150.251 331.134 150.366 332.178 150.211C333.222 150.055 334.208 149.634 335.043 148.989C335.878 148.343 336.534 147.494 336.947 146.522C337.36 145.551 337.516 144.49 337.402 143.44L337.264 142.263C337.08 140.688 337.509 139.103 338.463 137.836C339.417 136.569 340.822 135.717 342.386 135.459C346.515 134.787 347.563 130.364 345.724 126.649Z" fill="#004E9E"/>
<path opacity="0.3" d="M345.724 126.649L296.133 11.1641H287.241L236.409 126.649C234.57 130.328 235.627 134.787 239.71 135.459C241.276 135.715 242.683 136.566 243.639 137.833C244.595 139.1 245.025 140.687 244.841 142.263L244.703 143.44C244.59 144.485 244.746 145.541 245.156 146.508C245.566 147.476 246.216 148.322 247.046 148.967C247.875 149.612 248.856 150.034 249.894 150.194C250.932 150.353 251.994 150.244 252.979 149.877L256.142 148.673C257.615 148.111 259.248 148.135 260.703 148.741C262.159 149.346 263.327 150.487 263.968 151.928L267.885 160.709C268.241 161.504 268.762 162.213 269.413 162.791C270.064 163.369 270.83 163.803 271.66 164.064C272.491 164.324 273.367 164.406 274.232 164.303C275.096 164.201 275.929 163.916 276.676 163.468L288.483 156.415C289.44 155.846 290.532 155.546 291.646 155.546C292.759 155.546 293.852 155.846 294.809 156.415L305.384 163.468C306.131 163.916 306.964 164.201 307.83 164.304C308.695 164.406 309.572 164.325 310.403 164.064C311.234 163.804 312.001 163.37 312.653 162.792C313.304 162.214 313.826 161.504 314.184 160.709L318.101 151.928C318.739 150.485 319.907 149.343 321.364 148.738C322.82 148.132 324.453 148.109 325.926 148.673L329.08 149.877C330.067 150.251 331.134 150.366 332.178 150.211C333.222 150.055 334.208 149.634 335.043 148.989C335.878 148.343 336.534 147.494 336.947 146.522C337.36 145.551 337.516 144.49 337.402 143.44L337.264 142.263C337.08 140.688 337.509 139.103 338.463 137.836C339.417 136.569 340.822 135.717 342.386 135.459C346.515 134.787 347.563 130.364 345.724 126.649Z" fill="black"/>
<path opacity="0.1" d="M287.24 11.1641H296.132L332.27 95.3207C331.987 95.5666 331.678 95.7823 331.35 95.9643L331.075 96.1207C330.142 96.6394 329.379 97.4177 328.88 98.3611C328.38 99.3045 328.165 100.372 328.261 101.436C328.334 102.323 328.193 103.215 327.85 104.037C327.508 104.858 326.973 105.586 326.292 106.159C325.61 106.731 324.801 107.132 323.932 107.328C323.064 107.524 322.161 107.509 321.3 107.284L319.148 106.714C317.94 106.39 316.657 106.487 315.511 106.988C314.365 107.49 313.423 108.366 312.84 109.472L309.879 114.99C309.187 116.268 308.019 117.222 306.627 117.644C305.236 118.066 303.735 117.922 302.449 117.243L294.284 112.976C293.488 112.563 292.605 112.348 291.709 112.348C290.813 112.348 289.93 112.563 289.134 112.976L280.95 117.243C279.652 117.92 278.14 118.059 276.74 117.629C275.341 117.198 274.167 116.234 273.474 114.944L270.523 109.426C269.939 108.318 268.996 107.441 267.848 106.939C266.7 106.438 265.415 106.342 264.205 106.668L262.054 107.238C261.192 107.474 260.285 107.498 259.412 107.307C258.539 107.115 257.726 106.715 257.042 106.139C256.358 105.564 255.824 104.831 255.486 104.004C255.148 103.176 255.016 102.279 255.102 101.39C255.196 100.326 254.98 99.2569 254.479 98.3134C253.978 97.3699 253.213 96.5922 252.279 96.0747L252.003 95.9184C251.422 95.5837 250.905 95.1477 250.477 94.631L287.24 11.1641Z" fill="black"/>
<path d="M333.373 81.2243L296.095 2.86079L295.801 2.39182C295.387 1.66542 294.788 1.06149 294.066 0.64139C293.343 0.221291 292.522 0 291.686 0C290.85 0 290.029 0.221291 289.306 0.64139C288.583 1.06149 287.985 1.66542 287.571 2.39182L287.267 2.87918L250.035 81.2335C249.636 81.869 249.371 82.5792 249.257 83.3206C249.142 84.062 249.179 84.819 249.367 85.5455C249.554 86.2719 249.888 86.9524 250.348 87.5454C250.807 88.1384 251.383 88.6315 252.04 88.9944L252.316 89.1507C253.25 89.6682 254.014 90.4459 254.516 91.3894C255.017 92.3329 255.233 93.4016 255.139 94.4657C255.053 95.3553 255.185 96.2524 255.523 97.0797C255.861 97.9071 256.395 98.64 257.079 99.2153C257.763 99.7906 258.576 100.191 259.449 100.383C260.322 100.574 261.228 100.55 262.09 100.314L264.242 99.7439C265.452 99.4283 266.733 99.5288 267.878 100.029C269.024 100.53 269.968 101.401 270.559 102.502L273.511 108.02C274.204 109.31 275.377 110.274 276.777 110.705C278.176 111.135 279.689 110.996 280.987 110.319L289.143 106.052C289.939 105.639 290.822 105.424 291.718 105.424C292.614 105.424 293.497 105.639 294.293 106.052L302.458 110.319C303.099 110.659 303.801 110.869 304.524 110.938C305.246 111.007 305.975 110.932 306.669 110.718C307.362 110.505 308.007 110.157 308.566 109.693C309.124 109.23 309.586 108.662 309.925 108.02L312.886 102.502C313.469 101.396 314.411 100.52 315.557 100.019C316.703 99.5173 317.985 99.4204 319.194 99.7439L321.346 100.314C322.207 100.541 323.111 100.558 323.98 100.363C324.85 100.168 325.66 99.767 326.342 99.1938C327.024 98.6207 327.559 97.892 327.9 97.0692C328.242 96.2464 328.382 95.3535 328.307 94.4657C328.211 93.4025 328.426 92.3345 328.926 91.3911C329.425 90.4477 330.188 89.6695 331.12 89.1507L331.396 88.9944C332.047 88.6244 332.616 88.1268 333.07 87.5316C333.524 86.9363 333.853 86.2555 334.038 85.53C334.223 84.8045 334.259 84.0492 334.145 83.3093C334.03 82.5695 333.768 81.8603 333.373 81.2243Z" fill="#004E9E"/>
<path opacity="0.2" d="M333.373 81.2243L296.095 2.86079L295.801 2.39182C295.387 1.66542 294.788 1.06149 294.066 0.64139C293.343 0.221291 292.522 0 291.686 0C290.85 0 290.029 0.221291 289.306 0.64139C288.583 1.06149 287.985 1.66542 287.571 2.39182L287.267 2.87918L250.035 81.2335C249.636 81.869 249.371 82.5792 249.257 83.3206C249.142 84.062 249.179 84.819 249.367 85.5455C249.554 86.2719 249.888 86.9524 250.348 87.5454C250.807 88.1384 251.383 88.6315 252.04 88.9944L252.316 89.1507C253.25 89.6682 254.014 90.4459 254.516 91.3894C255.017 92.3329 255.233 93.4016 255.139 94.4657C255.053 95.3553 255.185 96.2524 255.523 97.0797C255.861 97.9071 256.395 98.64 257.079 99.2153C257.763 99.7906 258.576 100.191 259.449 100.383C260.322 100.574 261.228 100.55 262.09 100.314L264.242 99.7439C265.452 99.4283 266.733 99.5288 267.878 100.029C269.024 100.53 269.968 101.401 270.559 102.502L273.511 108.02C274.204 109.31 275.377 110.274 276.777 110.705C278.176 111.135 279.689 110.996 280.987 110.319L289.143 106.052C289.939 105.639 290.822 105.424 291.718 105.424C292.614 105.424 293.497 105.639 294.293 106.052L302.458 110.319C303.099 110.659 303.801 110.869 304.524 110.938C305.246 111.007 305.975 110.932 306.669 110.718C307.362 110.505 308.007 110.157 308.566 109.693C309.124 109.23 309.586 108.662 309.925 108.02L312.886 102.502C313.469 101.396 314.411 100.52 315.557 100.019C316.703 99.5173 317.985 99.4204 319.194 99.7439L321.346 100.314C322.207 100.541 323.111 100.558 323.98 100.363C324.85 100.168 325.66 99.767 326.342 99.1938C327.024 98.6207 327.559 97.892 327.9 97.0692C328.242 96.2464 328.382 95.3535 328.307 94.4657C328.211 93.4025 328.426 92.3345 328.926 91.3911C329.425 90.4477 330.188 89.6695 331.12 89.1507L331.396 88.9944C332.047 88.6244 332.616 88.1268 333.07 87.5316C333.524 86.9363 333.853 86.2555 334.038 85.53C334.223 84.8045 334.259 84.0492 334.145 83.3093C334.03 82.5695 333.768 81.8603 333.373 81.2243Z" fill="black"/>
<path d="M286.717 236.655C286.717 234.977 286.05 233.368 284.864 232.181C283.677 230.995 282.068 230.328 280.39 230.328C278.712 230.328 277.103 230.995 275.917 232.181C274.73 233.368 274.064 234.977 274.064 236.655C274.052 236.771 274.052 236.888 274.064 237.004C274.151 237.525 274.363 238.017 274.684 238.437C275.005 238.857 275.423 239.192 275.903 239.413C277.289 240.116 278.822 240.482 280.377 240.482C281.931 240.482 283.464 240.116 284.85 239.413C285.33 239.192 285.748 238.856 286.068 238.436C286.389 238.017 286.602 237.525 286.689 237.004V236.655H286.717Z" fill="#37474F"/>
<path d="M284.861 239.414C285.34 239.192 285.758 238.857 286.079 238.437C286.399 238.017 286.612 237.526 286.7 237.005V236.655C286.668 235.551 286.347 234.474 285.77 233.531C285.192 232.589 284.378 231.815 283.408 231.285C283.408 231.34 286.553 235.258 284.254 237.86C282.663 239.699 277.201 239.993 274.801 238.577C275.124 238.906 275.493 239.188 275.895 239.414C277.284 240.12 278.82 240.488 280.378 240.488C281.936 240.488 283.472 240.12 284.861 239.414Z" fill="#263238"/>
<path d="M276.481 239.837C276.429 238.688 275.936 237.603 275.104 236.808C274.273 236.014 273.167 235.57 272.017 235.57C270.866 235.57 269.761 236.014 268.929 236.808C268.098 237.603 267.604 238.688 267.552 239.837C267.548 239.879 267.548 239.923 267.552 239.965C267.548 240.005 267.548 240.045 267.552 240.085C267.611 240.455 267.762 240.804 267.99 241.101C268.218 241.398 268.516 241.633 268.858 241.786C269.836 242.285 270.919 242.545 272.017 242.545C273.115 242.545 274.197 242.285 275.175 241.786C275.516 241.632 275.814 241.396 276.042 241.099C276.269 240.803 276.42 240.454 276.481 240.085C276.486 240.045 276.486 240.005 276.481 239.965C276.486 239.923 276.486 239.879 276.481 239.837Z" fill="#455A64"/>
<path d="M275.176 241.785C275.517 241.631 275.815 241.395 276.042 241.099C276.27 240.802 276.421 240.453 276.482 240.084C276.486 240.044 276.486 240.004 276.482 239.965C276.486 239.922 276.486 239.879 276.482 239.836C276.472 239.328 276.369 238.826 276.178 238.355C276.289 240.268 275.388 241.436 272.565 241.795C269.742 242.153 267.893 240.958 267.654 240.516C267.893 241.068 268.32 241.518 268.859 241.785C269.837 242.284 270.919 242.544 272.018 242.544C273.116 242.544 274.198 242.284 275.176 241.785Z" fill="#37474F"/>
<path d="M309.255 235.366C309.255 234.19 308.788 233.063 307.956 232.232C307.125 231.401 305.998 230.934 304.822 230.934C303.647 230.934 302.519 231.401 301.688 232.232C300.857 233.063 300.39 234.19 300.39 235.366C300.386 235.406 300.386 235.446 300.39 235.485C300.386 235.528 300.386 235.571 300.39 235.614C300.449 235.979 300.597 236.324 300.822 236.618C301.046 236.911 301.34 237.145 301.677 237.297C302.65 237.791 303.726 238.049 304.818 238.049C305.909 238.049 306.985 237.791 307.958 237.297C308.295 237.143 308.589 236.91 308.815 236.616C309.041 236.323 309.192 235.979 309.255 235.614V235.366Z" fill="#455A64"/>
<path d="M307.967 237.297C308.304 237.143 308.598 236.91 308.824 236.616C309.05 236.323 309.201 235.979 309.263 235.614V235.366C309.248 234.862 309.145 234.364 308.96 233.895C309.07 235.798 308.169 236.947 305.374 237.306C302.578 237.665 300.776 236.478 300.5 236.046C300.741 236.586 301.16 237.027 301.686 237.297C302.659 237.791 303.735 238.049 304.826 238.049C305.918 238.049 306.994 237.791 307.967 237.297Z" fill="#37474F"/>
<path d="M198.036 133.088C195.983 134.47 193.745 135.553 191.388 136.306C192.223 135.401 192.925 134.382 193.475 133.281C193.796 132.713 193.89 132.044 193.738 131.41C193.586 130.775 193.2 130.222 192.657 129.86C192.16 129.603 191.618 130.89 189.815 132.278C187.516 134.044 185.677 134.357 183.746 136.821C183.02 137.741 179.746 139.313 174.781 139.313C169.815 139.313 165.778 139.157 165.778 139.157C165.778 139.157 170.707 130.605 173.135 124.849C175.562 119.092 180.013 106.384 179.792 102.173C179.379 93.9703 169.144 93.299 164.215 94.099C164.215 94.099 153.475 136.049 150.422 145.216C147.369 154.384 157.567 152.003 165.043 151.653C169.576 151.456 174.089 150.943 178.551 150.118C182.58 149.711 186.574 149.02 190.505 148.049C201.236 145.612 204.528 142.173 204.988 137.474C205.797 129.998 202.983 129.86 198.036 133.088Z" fill="#FFBDA7"/>
<path d="M101.235 265.657C100.665 265.363 99.0741 267.165 98.8166 267.855C98.6169 269.233 98.73 270.637 99.1476 271.965C99.6865 274.019 99.8914 276.146 99.7545 278.264C99.4749 281.206 99.743 284.174 100.545 287.018C101.584 290.604 105.226 297.133 113.686 297.133C118.817 297.133 119.718 295.055 119.718 293.869L101.235 265.657Z" fill="#455A64"/>
<path d="M116.877 267.129C115.791 269.51 113.814 276.407 116.766 282.274C118.743 286.228 119.672 290.053 118.605 293.308C117.493 296.701 105.235 291.405 103.727 288.775C102.21 286.101 101.42 283.076 101.437 280.002C101.336 277.244 101.851 275.506 101.548 273.473C101.226 271.267 100.104 268.517 100.729 266.586C101.07 265.529 102.808 263.947 104.408 262.696C106.008 261.446 107.313 260.49 108.086 260.949L107.562 261.703C108.022 262.64 108.7 263.454 109.539 264.076C109.925 264.388 109.677 266.191 110.182 266.384C110.688 266.577 110.789 265.115 111.791 264.931C112.76 264.782 113.751 264.91 114.65 265.299C115.549 265.687 116.321 266.322 116.877 267.129Z" fill="#004E9E"/>
<path opacity="0.3" d="M116.877 267.129C115.791 269.51 113.814 276.407 116.766 282.274C118.743 286.228 119.672 290.053 118.605 293.308C117.493 296.701 105.235 291.405 103.727 288.775C102.21 286.101 101.42 283.076 101.437 280.002C101.336 277.244 101.851 275.506 101.548 273.473C101.226 271.267 100.104 268.517 100.729 266.586C101.07 265.529 102.808 263.947 104.408 262.696C106.008 261.446 107.313 260.49 108.086 260.949L107.562 261.703C108.022 262.64 108.7 263.454 109.539 264.076C109.925 264.388 109.677 266.191 110.182 266.384C110.688 266.577 110.789 265.115 111.791 264.931C112.76 264.782 113.751 264.91 114.65 265.299C115.549 265.687 116.321 266.322 116.877 267.129Z" fill="black"/>
<path d="M108.425 272.077C108.28 272.061 108.134 272.079 107.998 272.131C107.862 272.182 107.741 272.265 107.643 272.373C107.545 272.48 107.475 272.609 107.436 272.75C107.398 272.89 107.394 273.037 107.424 273.179C107.454 273.322 107.517 273.455 107.608 273.568C107.699 273.681 107.816 273.771 107.949 273.83C108.081 273.889 108.226 273.917 108.371 273.909C108.516 273.902 108.658 273.86 108.784 273.787C110.936 273.413 113.14 273.456 115.276 273.916C115.472 273.353 115.535 272.751 115.459 272.159C113.142 271.679 110.753 271.651 108.425 272.077Z" fill="white"/>
<path d="M115.241 276.014C112.844 275.61 110.391 275.685 108.023 276.235C107.859 276.339 107.733 276.493 107.663 276.674C107.592 276.855 107.58 277.053 107.629 277.241C107.678 277.428 107.786 277.596 107.935 277.719C108.085 277.842 108.27 277.915 108.464 277.926C110.744 277.418 113.105 277.387 115.398 277.835C115.586 277.231 115.529 276.577 115.241 276.014Z" fill="white"/>
<path d="M115.995 280.371C113.344 279.778 110.593 279.793 107.949 280.417C107.785 280.522 107.659 280.676 107.589 280.857C107.518 281.037 107.506 281.236 107.555 281.424C107.604 281.611 107.711 281.779 107.861 281.902C108.011 282.025 108.196 282.098 108.39 282.109C111.197 281.455 114.13 281.585 116.868 282.486C117.126 282.413 116.703 281.015 115.995 280.371Z" fill="white"/>
<path d="M103.727 288.765C103.727 288.765 106.881 284.038 112.527 283.974C118.173 283.91 119.239 286.273 119.727 287.119C120.214 287.965 122.209 292.783 118.329 294.999C118.329 294.999 108.996 297.473 103.727 288.765Z" fill="#FAFAFA"/>
<path d="M166.633 221.031C166.413 219.128 166.146 216.903 165.861 214.475C167.946 210.367 169.809 206.149 171.442 201.841C176.224 189.28 177.999 158.116 177.778 151.551L132.895 152.617C132.895 159.312 132.454 165.408 133.208 174.089C134.127 184.149 138.366 199.385 141.925 210.723C138.477 214.705 133.649 220.434 131.488 223.983C127.81 229.859 111.111 256.59 111.111 256.59L107.277 262.107C106.661 263.229 106.422 265.786 108.996 267.689C111.571 269.593 114.946 269.262 115.727 268.314C115.727 268.314 136.086 248.084 148.15 236.13C148.766 239.56 149.576 243.487 150.541 247.229C153.235 257.73 158.817 273.032 161.576 280.544C162.718 283.603 163.558 286.766 164.086 289.988L165.548 294.209L175.663 291.91L173.824 283.137C173.824 283.137 168.132 233.703 166.633 221.031Z" fill="#FFBDA7"/>
<path d="M141.43 210.699L146.469 225.844C146.469 225.844 146.883 232.06 147.692 236.272L145.558 238.433C145.558 238.433 144.289 231.269 144.998 226.212L141.43 210.699Z" fill="#FFBDA7"/>
<path d="M132.334 157.391C132.334 157.961 130.651 171.736 132.334 180.609C134.017 189.483 142.237 221.547 142.237 221.547C142.237 221.547 145.115 224.766 155.589 222.467C166.063 220.168 166.624 218.099 166.624 218.099V214.88C170.85 206.544 173.857 197.644 175.552 188.453C177.029 179.252 177.975 169.974 178.385 160.664L132.334 157.391Z" fill="#004E9E"/>
<path opacity="0.6" d="M132.334 157.391C132.334 157.961 130.651 171.736 132.334 180.609C134.017 189.483 142.237 221.547 142.237 221.547C142.237 221.547 145.115 224.766 155.589 222.467C166.063 220.168 166.624 218.099 166.624 218.099V214.88C170.85 206.544 173.857 197.644 175.552 188.453C177.029 179.252 177.975 169.974 178.385 160.664L132.334 157.391Z" fill="black"/>
<path opacity="0.4" d="M165.034 212.636C165.034 212.636 161.935 180.553 160.951 176.48C160.951 176.48 168.308 173.666 170.606 171.082C170.606 171.082 168.979 174.696 163.701 177.896L165.034 212.636Z" fill="black"/>
<path d="M131.285 166.467C137.409 170.927 166.044 175.221 178.908 165.832C179.065 165.722 178.908 164.278 178.908 164.094L178.826 156.232C178.77 152.186 178.709 148.14 178.642 144.094C178.562 139.399 178.464 134.703 178.347 130.007C178.237 125.428 178.096 120.851 177.924 116.278C177.851 114.274 177.762 112.269 177.658 110.264C177.507 107.183 176.8 104.155 175.57 101.326C174.498 98.6377 172.467 96.4423 169.869 95.1655C168.072 94.498 166.176 94.1374 164.26 94.0988C162.929 94.0868 161.598 94.1667 160.278 94.3379C158.789 94.4575 157.308 94.5954 155.819 94.7425C152.802 95.0552 149.786 95.4138 146.779 95.8L145.694 95.9379L144.775 96.0575C140.968 96.554 138.154 96.977 137.722 97.0322H137.658C136.416 97.354 135.258 97.6483 134.329 97.9517C131.782 98.7058 133.676 98.0621 133.115 100.517C131.478 107.736 133.391 133.989 133.391 133.989L131.285 166.467Z" fill="#004E9E"/>
<path d="M163.506 297.098C162.917 297.346 163.276 299.737 163.635 300.38C164.418 301.532 165.49 302.458 166.743 303.065C168.524 303.977 170.068 305.294 171.249 306.909C173.282 309.372 175.827 311.365 178.706 312.748C180.588 313.497 182.607 313.842 184.631 313.763C186.655 313.684 188.64 313.182 190.458 312.288C194.357 310.449 194.66 309.328 194.43 307.783L163.506 297.098Z" fill="#455A64"/>
<path d="M175.038 285.998C176.169 288.379 179.121 294.715 183.884 297.409C187.663 299.552 192.693 301.888 194.505 304.821C196.316 307.754 189.558 310.605 186.514 310.752C184.141 310.862 180.997 311.12 178.532 309.832C177.307 309.206 176.149 308.457 175.075 307.598C172.923 305.906 171.295 303.699 169.723 302.347C168.151 300.996 164.96 299.809 163.884 298.071C163.286 297.152 163.194 294.761 163.268 292.729C163.323 290.89 163.038 289.161 163.893 288.867L164.132 289.915C165.314 289.948 166.496 289.868 167.663 289.676C168.151 289.584 169.374 290.945 169.852 290.678C170.33 290.412 169.272 289.391 169.778 288.499C171.433 285.575 175.038 285.998 175.038 285.998Z" fill="#004E9E"/>
<path opacity="0.3" d="M175.038 285.998C176.169 288.379 179.121 294.715 183.884 297.409C187.663 299.552 192.693 301.888 194.505 304.821C196.316 307.754 189.558 310.605 186.514 310.752C184.141 310.862 180.997 311.12 178.532 309.832C177.307 309.206 176.149 308.457 175.075 307.598C172.923 305.906 171.295 303.699 169.723 302.347C168.151 300.996 164.96 299.809 163.884 298.071C163.286 297.152 163.194 294.761 163.268 292.729C163.323 290.89 163.038 289.161 163.893 288.867L164.132 289.915C165.314 289.948 166.496 289.868 167.663 289.676C168.151 289.584 169.374 290.945 169.852 290.678C170.33 290.412 169.272 289.391 169.778 288.499C171.433 285.575 175.038 285.998 175.038 285.998Z" fill="black"/>
<path d="M183.285 297.035C180.962 297.733 178.925 299.158 177.473 301.1C177.354 301.294 177.311 301.526 177.354 301.751C177.396 301.975 177.521 302.176 177.703 302.313C177.898 302.433 178.13 302.475 178.354 302.433C178.579 302.39 178.779 302.266 178.917 302.083C179.714 301.039 180.717 300.17 181.864 299.529C183.01 298.889 184.277 298.49 185.584 298.359C185.312 297.992 184.968 297.685 184.572 297.458C184.177 297.23 183.738 297.086 183.285 297.035Z" fill="white"/>
<path d="M179.94 294.035C177.733 294.653 175.77 295.937 174.321 297.713C174.192 297.901 174.138 298.131 174.168 298.357C174.199 298.583 174.313 298.789 174.487 298.936C174.637 299.051 174.822 299.112 175.011 299.111C175.145 299.109 175.277 299.077 175.398 299.018C175.519 298.96 175.625 298.875 175.71 298.771C177.154 297.08 179.133 295.934 181.319 295.525C181.246 295.175 181.079 294.851 180.836 294.588C180.593 294.326 180.283 294.135 179.94 294.035Z" fill="white"/>
<path d="M178.468 292.124C178.52 291.786 178.446 291.441 178.259 291.154C178.073 290.867 177.787 290.659 177.456 290.57C175.161 291.081 173.087 292.308 171.534 294.074C171.43 294.202 171.364 294.357 171.344 294.522C171.324 294.686 171.352 294.853 171.423 295.002C171.494 295.151 171.607 295.277 171.747 295.365C171.887 295.453 172.049 295.5 172.215 295.499C172.344 295.496 172.472 295.466 172.589 295.411C172.707 295.355 172.811 295.276 172.895 295.177C174.358 293.563 176.32 292.488 178.468 292.124Z" fill="white"/>
<path d="M178.533 309.832C178.533 309.832 178.984 303.772 183.913 300.94C188.841 298.107 190.919 300.158 191.765 300.664C192.611 301.169 196.749 303.928 194.432 307.781C194.432 307.781 188.087 314.383 178.533 309.832Z" fill="#FAFAFA"/>
<path d="M142.092 73.4453C142.092 73.4453 144.142 83.0545 144.961 84.6361C145.508 85.6065 146.407 86.3305 147.471 86.6592L147.333 79.9005L142.092 73.4453Z" fill="#263238"/>
<path d="M144.655 59.6799C143.94 59.5971 143.216 59.6783 142.537 59.9173C141.858 60.1563 141.243 60.5468 140.738 61.0592C139.055 62.7788 139.993 68.1673 142.09 73.4455L145.942 73.8869L144.655 59.6799Z" fill="#263238"/>
<path d="M147.103 73.8894C146.331 74.3584 145.264 72.8687 144.271 71.8756C143.278 70.8825 140.216 69.5124 138.662 72.7951C137.108 76.0779 140.032 80.5285 142.478 81.2917C146.698 82.6159 147.333 79.9124 147.333 79.9124L147.609 95.4251C152.032 103.425 166.984 99.3332 161.402 94.0274V90.1009C163.283 90.4012 165.192 90.4968 167.094 90.386C170.193 89.9078 172.142 87.4619 173.089 84.1055C174.597 78.7078 175.204 74.5515 174.266 63.7468C173.218 52.0686 158.919 51.9583 151.646 56.556C144.372 61.1537 147.103 73.8894 147.103 73.8894Z" fill="#FFBDA7"/>
<path d="M143.213 68.8855C143.434 69.805 143.636 71.2763 144.372 71.9751C145.292 72.8947 146.772 75.3867 147.131 75.3775C149.181 75.3775 149.521 66.7705 149.889 65.2625C150.042 64.8358 150.31 64.46 150.664 64.1774C151.018 63.8948 151.444 63.7164 151.894 63.6625C152.797 63.5739 153.708 63.6424 154.588 63.8648C158.282 64.4409 162.027 64.632 165.761 64.4349C168.427 64.3613 171.149 62.9084 173.54 61.7406C177.062 60.0119 178.974 55.7176 176.813 52.1222C176.186 51.1302 175.258 50.3643 174.164 49.936C173.071 49.5077 171.87 49.4392 170.735 49.7406C170.431 48.6758 169.819 47.7244 168.976 47.0058C168.134 46.2872 167.098 45.8331 165.998 45.7006C164.898 45.5681 163.784 45.7629 162.795 46.2607C161.806 46.7586 160.985 47.5372 160.436 48.4992C159.524 47.7667 158.434 47.2896 157.278 47.1167C156.121 46.9438 154.939 47.0814 153.852 47.5153C152.781 47.9866 151.886 48.7826 151.291 49.7908C150.697 50.799 150.435 51.9684 150.542 53.1337C149.601 52.6255 148.532 52.4018 147.466 52.49C146.4 52.5781 145.382 52.9743 144.538 53.6303C143.709 54.3076 143.048 55.167 142.607 56.1415C142.165 57.116 141.954 58.1793 141.99 59.2487C142.043 62.4961 142.454 65.7278 143.213 68.8855Z" fill="#263238"/>
<path d="M139.875 64.4705C139.875 64.4705 144.058 60.7923 154.348 59.2383C164.638 57.6843 173.006 59.2383 174.679 61.0774C175.654 63.0544 175.213 65.3625 174.505 67.413C174.505 67.413 174.44 65.3716 163.783 65.3716C153.125 65.3716 143.433 69.0498 141.125 70.797C141.125 70.751 138.845 67.3671 139.875 64.4705Z" fill="#004E9E"/>
<path d="M175.212 63.0938C175.194 62.8279 175.157 62.5636 175.102 62.303C165.548 58.3029 150.274 59.7374 139.635 65.5489C139.617 65.8122 139.617 66.0765 139.635 66.3397C150.228 60.3719 165.759 58.919 175.212 63.0938Z" fill="white"/>
<path d="M140.141 68.7755C140.233 69.0054 140.315 69.2169 140.407 69.4192C150.669 63.6905 165.474 62.1548 174.955 65.833C175.01 65.6031 175.056 65.3824 175.092 65.1525C165.437 61.4744 150.531 62.9916 140.141 68.7755Z" fill="white"/>
<path d="M161.364 90.0892C161.364 90.0892 154.403 88.7374 152.021 87.4041C150.595 86.6656 149.428 85.5111 148.674 84.0938C149.037 85.5073 149.682 86.8332 150.568 87.9926C152.343 90.2639 161.364 91.9283 161.364 91.9283V90.0892Z" fill="#FFBDA7"/>
<path d="M159.415 72.8499C159.404 73.1219 159.313 73.3848 159.154 73.6057C158.995 73.8267 158.775 73.9961 158.52 74.0927C158.266 74.1894 157.989 74.2092 157.723 74.1495C157.457 74.0899 157.215 73.9535 157.026 73.7573C156.838 73.5611 156.711 73.3137 156.662 73.046C156.612 72.7783 156.643 72.502 156.749 72.2514C156.856 72.0009 157.034 71.7872 157.261 71.637C157.488 71.4867 157.754 71.4065 158.026 71.4062C158.212 71.4098 158.396 71.45 158.566 71.5245C158.736 71.599 158.89 71.7064 159.019 71.8404C159.148 71.9745 159.25 72.1327 159.317 72.3059C159.385 72.4791 159.418 72.664 159.415 72.8499Z" fill="#263238"/>
<path d="M158.027 68.2493L155.057 69.8952C154.847 69.4871 154.802 69.0137 154.933 68.5736C155.063 68.1334 155.358 67.7604 155.756 67.532C155.951 67.4247 156.166 67.358 156.387 67.3361C156.609 67.3142 156.833 67.3375 157.045 67.4045C157.257 67.4716 157.454 67.581 157.622 67.7262C157.791 67.8714 157.929 68.0493 158.027 68.2493Z" fill="#263238"/>
<path d="M161.502 82.4375L164.665 83.6237C164.595 83.8361 164.484 84.0325 164.338 84.2013C164.191 84.3701 164.013 84.5078 163.812 84.6064C163.611 84.7049 163.393 84.7623 163.17 84.7752C162.947 84.788 162.724 84.7561 162.513 84.6812C162.087 84.5105 161.744 84.1815 161.555 83.7632C161.367 83.3448 161.347 82.8697 161.502 82.4375Z" fill="#FFA98C"/>
<path d="M171.652 69.0606L168.535 67.6629C168.615 67.4537 168.736 67.2629 168.892 67.1022C169.047 66.9415 169.234 66.8142 169.441 66.7282C169.647 66.6421 169.869 66.5991 170.093 66.6017C170.317 66.6043 170.538 66.6525 170.742 66.7433C171.157 66.9451 171.48 67.2953 171.649 67.7245C171.818 68.1537 171.819 68.6305 171.652 69.0606Z" fill="#263238"/>
<path d="M170.799 72.8499C170.789 73.1219 170.698 73.3848 170.539 73.6057C170.38 73.8267 170.16 73.9961 169.905 74.0927C169.651 74.1894 169.373 74.2092 169.108 74.1495C168.842 74.0899 168.6 73.9535 168.411 73.7573C168.222 73.5611 168.096 73.3137 168.046 73.046C167.997 72.7783 168.028 72.502 168.134 72.2514C168.241 72.0009 168.418 71.7872 168.645 71.637C168.872 71.4867 169.139 71.4065 169.411 71.4062C169.597 71.4098 169.78 71.45 169.951 71.5245C170.121 71.599 170.275 71.7064 170.404 71.8404C170.533 71.9745 170.634 72.1327 170.702 72.3059C170.77 72.4791 170.803 72.664 170.799 72.8499Z" fill="#263238"/>
<path d="M163.396 71.8828L163.856 80.2323L168.215 78.7518L163.396 71.8828Z" fill="#FFBDA7"/>
<path d="M149.099 171.029C149.515 169.675 149.798 168.283 149.945 166.873L150 166.395C150.125 165.069 150.575 163.794 151.309 162.682C152.044 161.571 153.04 160.658 154.211 160.022L154.459 159.894C155.866 159.179 157.05 158.091 157.88 156.749C158.305 155.995 158.54 155.148 158.564 154.283C158.588 153.418 158.401 152.56 158.018 151.783C157.816 151.39 157.586 151.012 157.328 150.652C157.089 150.322 156.953 149.927 156.94 149.519C156.927 149.111 157.037 148.708 157.255 148.363L158.524 146.413L152.262 142.367L150.993 144.317C150.777 144.665 150.459 144.94 150.083 145.104C149.707 145.269 149.29 145.315 148.887 145.236C148.453 145.147 148.014 145.089 147.572 145.061C146.706 145.032 145.846 145.213 145.066 145.589C144.286 145.966 143.609 146.526 143.094 147.222C142.216 148.534 141.71 150.06 141.632 151.636C141.632 151.728 141.632 151.811 141.632 151.903C141.531 153.227 141.107 154.506 140.397 155.629C139.687 156.751 138.712 157.682 137.558 158.34L137.144 158.588C135.917 159.297 134.765 160.129 133.705 161.071C132.765 162.036 131.936 163.103 131.232 164.252L125.347 173.356C124.584 174.542 124.602 176.225 125.577 178.128C126.477 179.791 127.733 181.235 129.255 182.358C129.966 182.909 130.723 183.398 131.517 183.82C133.161 184.734 134.984 185.283 136.859 185.429C138.993 185.54 140.538 184.859 141.301 183.682L145.558 177.089C146.092 176.271 146.671 175.434 147.232 174.579C147.979 173.466 148.605 172.276 149.099 171.029Z" fill="#004E9E"/>
<path opacity="0.75" d="M149.099 171.029C149.515 169.675 149.798 168.283 149.945 166.873L150 166.395C150.125 165.069 150.575 163.794 151.309 162.682C152.044 161.571 153.04 160.658 154.211 160.022L154.459 159.894C155.866 159.179 157.05 158.091 157.88 156.749C158.305 155.995 158.54 155.148 158.564 154.283C158.588 153.418 158.401 152.56 158.018 151.783C157.816 151.39 157.586 151.012 157.328 150.652C157.089 150.322 156.953 149.927 156.94 149.519C156.927 149.111 157.037 148.708 157.255 148.363L158.524 146.413L152.262 142.367L150.993 144.317C150.777 144.665 150.459 144.94 150.083 145.104C149.707 145.269 149.29 145.315 148.887 145.236C148.453 145.147 148.014 145.089 147.572 145.061C146.706 145.032 145.846 145.213 145.066 145.589C144.286 145.966 143.609 146.526 143.094 147.222C142.216 148.534 141.71 150.06 141.632 151.636C141.632 151.728 141.632 151.811 141.632 151.903C141.531 153.227 141.107 154.506 140.397 155.629C139.687 156.751 138.712 157.682 137.558 158.34L137.144 158.588C135.917 159.297 134.765 160.129 133.705 161.071C132.765 162.036 131.936 163.103 131.232 164.252L125.347 173.356C124.584 174.542 124.602 176.225 125.577 178.128C126.477 179.791 127.733 181.235 129.255 182.358C129.966 182.909 130.723 183.398 131.517 183.82C133.161 184.734 134.984 185.283 136.859 185.429C138.993 185.54 140.538 184.859 141.301 183.682L145.558 177.089C146.092 176.271 146.671 175.434 147.232 174.579C147.979 173.466 148.605 172.276 149.099 171.029Z" fill="white"/>
<path opacity="0.05" d="M154.21 160.02L154.459 159.891C155.657 159.28 156.695 158.399 157.493 157.316C157.055 157.681 156.573 157.99 156.059 158.236C154.562 158.879 152.967 159.264 151.341 159.376C149.705 159.56 147.875 159.799 146.854 161.096C145.833 162.392 146.036 164.167 146.587 165.693C147.287 167.13 147.901 168.607 148.427 170.116C148.574 170.796 148.648 171.49 148.647 172.185C148.822 171.818 148.987 171.45 149.125 171.073C149.542 169.718 149.825 168.326 149.971 166.916L150.027 166.438C150.142 165.107 150.584 163.824 151.314 162.705C152.044 161.585 153.039 160.663 154.21 160.02Z" fill="black"/>
<path opacity="0.1" d="M130.404 166.145C130.404 166.145 130.238 166.145 129.962 166.145L128.123 168.968C129.098 172.112 132.583 176.149 136.656 177.243C140.473 178.246 144.61 177.437 146.771 175.239L147.884 173.4L135.645 168.591L130.404 166.145Z" fill="black"/>
<path d="M149.806 143.912L149.126 144.96C148.916 145.356 148.816 145.802 148.837 146.25C148.858 146.698 148.999 147.132 149.245 147.507C149.872 148.582 150.743 149.494 151.788 150.17C152.833 150.846 154.022 151.266 155.259 151.397C155.756 151.434 156.255 151.362 156.721 151.185C157.098 151.052 157.42 150.801 157.641 150.468L158.331 149.392C158.397 149.299 158.45 149.197 158.487 149.089C158.601 148.718 158.635 148.327 158.587 147.942C158.54 147.557 158.412 147.186 158.211 146.854V146.781C157.577 145.726 156.708 144.833 155.671 144.171C154.634 143.509 153.457 143.096 152.234 142.965C151.848 142.919 151.457 142.955 151.086 143.07C150.716 143.186 150.373 143.379 150.082 143.636C149.98 143.716 149.887 143.809 149.806 143.912Z" fill="#004E9E"/>
<path opacity="0.1" d="M155.94 150.292C158.22 150.403 159.222 148.849 158.183 146.817C157.558 145.742 156.687 144.83 155.642 144.155C154.597 143.481 153.407 143.063 152.17 142.936C149.889 142.817 148.887 144.371 149.926 146.403C150.553 147.478 151.424 148.39 152.468 149.066C153.513 149.741 154.702 150.162 155.94 150.292Z" fill="black"/>
<path d="M150.587 142.644L150.182 143.278C150.116 143.379 150.061 143.487 150.017 143.6C149.904 143.972 149.871 144.363 149.921 144.748C149.97 145.133 150.1 145.503 150.302 145.834C150.833 146.803 151.586 147.631 152.499 148.253C153.611 149.085 154.932 149.591 156.315 149.715C156.809 149.752 157.305 149.68 157.768 149.503C158.029 149.407 158.265 149.253 158.458 149.053C158.541 148.975 158.612 148.885 158.669 148.786L159.092 148.133C159.266 147.677 159.332 147.186 159.285 146.7C159.239 146.214 159.082 145.745 158.826 145.329C158.182 144.324 157.32 143.476 156.305 142.849C155.289 142.222 154.146 141.831 152.959 141.706C152.516 141.637 152.062 141.687 151.645 141.852C151.228 142.017 150.863 142.29 150.587 142.644Z" fill="#004E9E"/>
<path opacity="0.5" d="M150.605 142.622C149.686 143.974 150.927 146.3 153.272 147.808C155.617 149.316 158.228 149.463 159.102 148.121C159.975 146.778 158.78 144.443 156.435 142.925C154.09 141.408 151.479 141.27 150.605 142.622Z" fill="white"/>
<path d="M155.011 141.898L153.586 144.105C153.564 144.14 153.545 144.177 153.531 144.216C153.488 144.343 153.475 144.479 153.491 144.612C153.507 144.745 153.552 144.874 153.622 144.988C153.841 145.359 154.144 145.674 154.507 145.907C154.869 146.14 155.281 146.285 155.71 146.331C155.882 146.347 156.055 146.322 156.216 146.257C156.305 146.221 156.386 146.168 156.455 146.101C156.484 146.074 156.509 146.043 156.528 146.009L157.954 143.802C158.042 143.665 158.089 143.505 158.089 143.342C158.089 143.179 158.042 143.019 157.954 142.882L157.898 142.79C157.675 142.443 157.376 142.15 157.024 141.934C156.673 141.717 156.277 141.583 155.866 141.54C155.704 141.512 155.538 141.531 155.386 141.595C155.235 141.658 155.105 141.763 155.011 141.898Z" fill="#004E9E"/>
<path opacity="0.5" d="M155.01 141.897C154.706 142.357 155.12 143.166 155.929 143.69C156.738 144.214 157.649 144.27 157.952 143.801C158.256 143.332 157.842 142.522 157.033 141.961C156.224 141.401 155.322 141.428 155.01 141.897Z" fill="white"/>
<path opacity="0.5" d="M155.967 142.506C155.857 142.671 155.967 142.956 156.289 143.149C156.611 143.343 156.905 143.352 157.006 143.149C157.108 142.947 157.006 142.699 156.685 142.506C156.363 142.313 156.068 142.34 155.967 142.506Z" fill="#004E9E"/>
<path opacity="0.3" d="M155.967 142.506C155.857 142.671 155.967 142.956 156.289 143.149C156.611 143.343 156.905 143.352 157.006 143.149C157.108 142.947 157.006 142.699 156.685 142.506C156.363 142.313 156.068 142.34 155.967 142.506Z" fill="black"/>
<path d="M145.078 164.755C142.816 164.415 138.789 162.723 137.602 161.362C137.274 161.051 137.012 160.676 136.834 160.26C136.655 159.844 136.563 159.396 136.563 158.944C137.558 158.382 138.484 157.706 139.322 156.93C138.255 156.3 137.156 155.726 136.03 155.21C134.678 154.704 132.352 152.635 130.687 150.971C126.685 146.187 123.161 141.022 120.168 135.55L132.6 120.654C134.322 120.458 135.964 119.821 137.367 118.805C138.77 117.788 139.887 116.426 140.609 114.851C142.448 111.293 144.821 102.98 139.956 96.6997C136.995 96.6377 134.058 97.2378 131.359 98.456C128.149 99.7985 122.871 106.088 118.706 112.185C115.083 117.491 104.802 131.55 104.434 136.801C104.278 138.962 106.862 142.318 113.345 149.114C116.223 152.231 119.533 155.624 123.064 159.284C125.418 161.684 129.418 168.948 131.699 171.468C134.899 175.008 137.106 175.937 139.975 175.992C142.844 176.047 148.094 175.072 149.621 170.778C151.147 166.484 149.014 165.362 145.078 164.755Z" fill="#FFBDA7"/>
<path d="M125.944 163.084C125.616 162.572 125.425 161.985 125.388 161.378C125.351 160.772 125.469 160.165 125.732 159.617C126.973 157.228 128.838 155.219 131.13 153.806C132.831 152.886 133.65 153.659 133.65 153.659C132.982 152.3 131.967 151.142 130.707 150.302C130.398 150.107 130.026 150.038 129.668 150.109C128.698 150.305 127.791 150.737 127.029 151.369C125.337 152.721 123.222 154.992 122.56 156.96C122.254 157.848 122.206 158.804 122.422 159.719C123.461 160.973 124.643 162.103 125.944 163.084Z" fill="#37474F"/>
<path d="M123.937 156.059L125.776 157.898C125.908 158.034 126.065 158.142 126.238 158.215C126.412 158.289 126.599 158.327 126.788 158.327C126.977 158.327 127.163 158.289 127.337 158.215C127.511 158.142 127.668 158.034 127.799 157.898L130.098 155.461C130.364 155.177 130.512 154.802 130.512 154.413C130.512 154.024 130.364 153.649 130.098 153.365L128.379 151.581C128.249 151.444 128.093 151.335 127.92 151.261C127.747 151.187 127.56 151.148 127.372 151.148C127.183 151.148 126.997 151.187 126.824 151.261C126.651 151.335 126.495 151.444 126.365 151.581L123.919 154.064C123.667 154.336 123.528 154.694 123.531 155.065C123.535 155.436 123.68 155.792 123.937 156.059Z" fill="#263238"/>
<path d="M123.433 156.088L125.273 157.927C125.404 158.062 125.561 158.17 125.735 158.244C125.908 158.318 126.095 158.356 126.284 158.356C126.473 158.356 126.66 158.318 126.833 158.244C127.007 158.17 127.164 158.062 127.296 157.927L129.594 155.49C129.86 155.205 130.008 154.831 130.008 154.442C130.008 154.052 129.86 153.678 129.594 153.393L127.875 151.6C127.744 151.465 127.588 151.357 127.415 151.283C127.242 151.21 127.056 151.172 126.868 151.172C126.68 151.172 126.494 151.21 126.321 151.283C126.148 151.357 125.991 151.465 125.861 151.6L123.415 154.028C123.281 154.164 123.174 154.325 123.102 154.503C123.031 154.68 122.994 154.87 122.996 155.061C122.998 155.253 123.037 155.442 123.112 155.618C123.187 155.794 123.297 155.954 123.433 156.088Z" fill="#455A64"/>
<path d="M129.464 154.346C129.475 154.48 129.457 154.615 129.413 154.741C129.368 154.868 129.298 154.984 129.206 155.082L126.908 157.519C126.745 157.686 126.524 157.784 126.292 157.795C126.058 157.791 125.834 157.699 125.666 157.537L123.827 155.698C123.672 155.543 123.577 155.338 123.56 155.119C123.552 154.991 123.571 154.862 123.615 154.742C123.66 154.622 123.729 154.512 123.818 154.42L126.255 151.946C126.334 151.862 126.429 151.795 126.535 151.749C126.641 151.703 126.755 151.68 126.871 151.68C127.107 151.688 127.331 151.787 127.496 151.956L129.206 153.739C129.364 153.904 129.459 154.119 129.473 154.346H129.464Z" fill="#004E9E"/>
<g opacity="0.3">
<path d="M118.964 160.021H118.835L113.732 159.101C113.64 159.087 113.552 159.055 113.473 159.007C113.393 158.959 113.324 158.896 113.269 158.822C113.214 158.747 113.174 158.662 113.152 158.572C113.129 158.482 113.125 158.388 113.139 158.296C113.153 158.205 113.185 158.116 113.232 158.037C113.28 157.958 113.344 157.888 113.418 157.833C113.493 157.778 113.578 157.738 113.668 157.716C113.758 157.694 113.852 157.689 113.943 157.703L119.056 158.623C119.229 158.651 119.384 158.743 119.491 158.882C119.598 159.02 119.648 159.194 119.632 159.368C119.616 159.542 119.534 159.703 119.403 159.819C119.272 159.935 119.102 159.997 118.927 159.993L118.964 160.021Z" fill="black"/>
<path d="M114.202 164.341C114.06 164.341 113.922 164.296 113.807 164.214C113.691 164.131 113.604 164.015 113.558 163.881C113.522 163.793 113.504 163.699 113.506 163.604C113.508 163.509 113.529 163.415 113.569 163.329C113.609 163.242 113.666 163.165 113.737 163.102C113.808 163.039 113.891 162.991 113.981 162.961L118.883 161.242C118.969 161.204 119.063 161.184 119.158 161.184C119.253 161.183 119.346 161.203 119.433 161.24C119.52 161.278 119.599 161.333 119.664 161.402C119.728 161.472 119.778 161.553 119.81 161.643C119.841 161.732 119.854 161.827 119.848 161.922C119.841 162.016 119.815 162.108 119.771 162.192C119.727 162.276 119.667 162.35 119.593 162.41C119.519 162.47 119.434 162.513 119.342 162.538L114.432 164.267C114.361 164.306 114.283 164.331 114.202 164.341Z" fill="black"/>
<path d="M117.153 168.736C117.02 168.737 116.891 168.699 116.779 168.628C116.668 168.557 116.579 168.455 116.524 168.335C116.469 168.215 116.449 168.081 116.468 167.95C116.486 167.819 116.542 167.696 116.628 167.596L120.012 163.651C120.071 163.582 120.144 163.526 120.225 163.485C120.306 163.444 120.394 163.419 120.484 163.412C120.575 163.405 120.666 163.416 120.752 163.445C120.839 163.473 120.918 163.518 120.987 163.578C121.124 163.698 121.209 163.868 121.223 164.05C121.236 164.232 121.178 164.413 121.061 164.553L117.668 168.497C117.604 168.572 117.526 168.633 117.437 168.674C117.348 168.715 117.251 168.737 117.153 168.736Z" fill="black"/>
<path d="M121.897 171.083H121.768C121.589 171.047 121.431 170.942 121.33 170.79C121.228 170.638 121.191 170.453 121.226 170.273L122.145 165.17C122.155 165.075 122.183 164.983 122.23 164.899C122.277 164.816 122.34 164.743 122.416 164.686C122.493 164.628 122.58 164.587 122.673 164.565C122.766 164.543 122.862 164.541 122.956 164.558C123.05 164.575 123.14 164.612 123.219 164.666C123.298 164.719 123.365 164.789 123.416 164.869C123.466 164.95 123.5 165.041 123.514 165.135C123.528 165.23 123.522 165.326 123.497 165.418L122.578 170.531C122.546 170.687 122.46 170.828 122.336 170.929C122.212 171.029 122.057 171.084 121.897 171.083Z" fill="black"/>
</g>
</svg>
