<svg width="359" height="305" viewBox="0 0 359 305" fill="none" xmlns="http://www.w3.org/2000/svg">
<path d="M8.51955 164L7.49721 157.355C13.5177 156.332 17.1527 155.196 18.4022 153.947C19.7654 152.697 20.4469 150.312 20.4469 146.791V63.1285C20.4469 59.6071 19.7654 57.2216 18.4022 55.9721C17.1527 54.7225 13.5177 53.5866 7.49721 52.5642L8.51955 45.919H50.2654L50.9469 52.5642L40.3827 54.6089C38.1108 55.0633 36.9749 56.54 36.9749 59.0391V98.0587H93.7151V63.1285C93.7151 59.6071 93.0335 57.2216 91.6704 55.9721C90.4209 54.7225 86.7858 53.5866 80.7654 52.5642L81.7877 45.919H123.534L124.215 52.5642L113.651 54.6089C111.379 55.0633 110.243 56.54 110.243 59.0391V150.88C110.243 153.379 111.379 154.856 113.651 155.31L124.215 157.355L123.534 164H81.7877L80.7654 157.355C86.7858 156.332 90.4209 155.196 91.6704 153.947C93.0335 152.697 93.7151 150.312 93.7151 146.791V108.282H36.9749V150.88C36.9749 153.379 38.1108 154.856 40.3827 155.31L50.9469 157.355L50.2654 164H8.51955Z" fill="black"/>
<path d="M167.665 113.053C157.555 113.053 152.5 117.71 152.5 127.025C152.5 130.66 153.522 134.352 155.567 138.1C157.612 141.735 161.701 146.847 167.835 153.436L203.277 191.774C208.388 182.345 210.944 172.576 210.944 162.466C210.944 158.15 209.922 155.14 207.877 153.436C205.832 151.732 201.402 150.482 194.587 149.687L195.609 143.042H234.458L235.14 149.687L224.575 151.732C222.304 152.186 221.168 153.663 221.168 156.162C220.6 172.747 216.851 187.003 209.922 198.93L222.19 212.05C225.03 214.89 229.63 216.537 235.992 216.991L234.969 223.637H210.433L199.528 212.05C190.213 220.797 178.74 225.17 165.109 225.17C153.977 225.17 145.23 222.387 138.869 216.821C132.621 211.255 129.497 204.212 129.497 195.693C129.497 179.562 137.335 168.089 153.011 161.274C143.697 151.277 139.039 141.792 139.039 132.818C139.039 123.844 141.936 116.802 147.729 111.69C153.636 106.578 161.417 104.022 171.073 104.022C178.229 104.022 185.499 105.442 192.883 108.282C192.996 109.191 193.053 111.747 193.053 115.95C193.053 120.153 192.315 124.583 190.838 129.24L183 130.092C182.205 121.232 180.899 116.177 179.081 114.927C177.377 113.678 173.572 113.053 167.665 113.053ZM147.218 190.41C147.218 197.34 149.263 203.076 153.352 207.62C157.441 212.164 163.462 214.436 171.413 214.436C179.365 214.436 186.692 211.369 193.394 205.234L159.316 168.26C151.251 172.917 147.218 180.301 147.218 190.41Z" fill="black"/>
<path d="M248.771 172.52L247.749 165.874C253.769 164.852 257.404 163.716 258.654 162.466C260.017 161.217 260.698 158.831 260.698 155.31V71.648C260.698 68.1266 260.017 65.7411 258.654 64.4916C257.404 63.2421 253.769 62.1061 247.749 61.0838L248.771 54.4385H290.517L291.198 61.0838L280.634 63.1285C278.362 63.5828 277.226 65.0596 277.226 67.5586V163.83L292.391 163.659C305 163.432 312.384 163.034 314.542 162.466C316.359 161.898 319.54 153.152 324.084 136.226L333.455 137.078C333.569 139.009 333.626 142.985 333.626 149.006C333.626 154.912 333.001 162.75 331.751 172.52H248.771Z" fill="black"/>
<path d="M24.3284 269.084V295.699H21.7419V283.254H5.96028V295.699H3.33626V269.084H5.96028V280.93H21.7419V269.084H24.3284ZM39.2584 269.084H41.4701L52.5285 295.699H49.7545L46.3058 287.377H34.3477L30.9365 295.699H28.1251L39.2584 269.084ZM45.706 285.316L40.3455 272.158L34.91 285.316H45.706ZM56.3439 295.699V269.084H67.5897C68.7392 269.084 69.7888 269.322 70.7385 269.796C71.6881 270.271 72.5128 270.921 73.2126 271.746C73.9373 272.545 74.4871 273.445 74.862 274.445C75.2618 275.419 75.4617 276.419 75.4617 277.444C75.4617 278.718 75.2118 279.918 74.712 281.042C74.2372 282.167 73.5499 283.116 72.6503 283.891C71.7756 284.666 70.7385 285.178 69.5389 285.428L76.0615 295.699H73.1001L66.8399 285.878H58.9679V295.699H56.3439ZM58.9679 283.554H67.6646C68.7142 283.554 69.6264 283.266 70.4011 282.692C71.1758 282.117 71.7756 281.367 72.2004 280.442C72.6253 279.493 72.8377 278.493 72.8377 277.444C72.8377 276.369 72.5878 275.382 72.088 274.482C71.6132 273.557 70.9634 272.82 70.1387 272.27C69.339 271.696 68.4393 271.408 67.4397 271.408H58.9679V283.554ZM80.8342 295.699V269.084H92.0801C93.2296 269.084 94.2792 269.322 95.2289 269.796C96.1785 270.271 97.0032 270.921 97.703 271.746C98.4277 272.545 98.9775 273.445 99.3523 274.445C99.7522 275.419 99.9521 276.419 99.9521 277.444C99.9521 278.718 99.7022 279.918 99.2024 281.042C98.7276 282.167 98.0403 283.116 97.1407 283.891C96.266 284.666 95.2289 285.178 94.0293 285.428L100.552 295.699H97.5905L91.3303 285.878H83.4583V295.699H80.8342ZM83.4583 283.554H92.155C93.2046 283.554 94.1168 283.266 94.8915 282.692C95.6662 282.117 96.266 281.367 96.6908 280.442C97.1157 279.493 97.3281 278.493 97.3281 277.444C97.3281 276.369 97.0782 275.382 96.5784 274.482C96.1036 273.557 95.4538 272.82 94.6291 272.27C93.8294 271.696 92.9297 271.408 91.9301 271.408H83.4583V283.554ZM104.376 269.084L113.073 283.404L121.845 269.084H124.694L114.385 285.803V295.699H111.761V285.728L101.49 269.084H104.376ZM154.912 295.699L141.642 281.717C140.567 280.567 139.705 279.593 139.055 278.793C138.406 277.968 137.943 277.231 137.668 276.581C137.393 275.907 137.256 275.244 137.256 274.595C137.256 273.495 137.543 272.508 138.118 271.633C138.718 270.759 139.518 270.059 140.517 269.534C141.542 269.009 142.679 268.747 143.929 268.747C145.103 268.747 146.153 268.972 147.077 269.422C148.027 269.846 148.777 270.459 149.326 271.258C149.876 272.033 150.151 272.945 150.151 273.995C150.151 275.119 149.826 276.132 149.177 277.031C148.552 277.906 147.727 278.731 146.702 279.505C145.703 280.255 144.591 281.017 143.366 281.792C142.342 282.492 141.392 283.204 140.517 283.929C139.668 284.628 138.993 285.378 138.493 286.178C137.993 286.977 137.743 287.89 137.743 288.914C137.743 290.014 138.056 290.951 138.68 291.726C139.305 292.475 140.092 293.05 141.042 293.45C142.017 293.825 143.016 294.012 144.041 294.012C145.39 294.012 146.627 293.712 147.752 293.113C148.902 292.488 149.901 291.638 150.751 290.564C151.601 289.464 152.25 288.215 152.7 286.815C153.175 285.416 153.412 283.929 153.412 282.354H155.587C155.587 284.253 155.287 286.04 154.687 287.715C154.087 289.364 153.25 290.814 152.175 292.063C151.126 293.313 149.876 294.3 148.427 295.024C147.002 295.724 145.453 296.074 143.779 296.074C142.229 296.074 140.805 295.774 139.505 295.174C138.206 294.55 137.169 293.7 136.394 292.625C135.644 291.551 135.269 290.289 135.269 288.839C135.269 287.49 135.582 286.315 136.206 285.316C136.856 284.291 137.681 283.379 138.68 282.579C139.705 281.754 140.78 280.98 141.904 280.255C143.054 279.505 144.066 278.818 144.941 278.193C145.84 277.543 146.54 276.894 147.04 276.244C147.54 275.569 147.79 274.844 147.79 274.07C147.79 273.095 147.427 272.295 146.702 271.671C145.978 271.046 145.053 270.734 143.929 270.734C143.104 270.734 142.367 270.908 141.717 271.258C141.067 271.608 140.555 272.071 140.18 272.645C139.805 273.22 139.618 273.845 139.618 274.52C139.618 274.944 139.718 275.394 139.917 275.869C140.117 276.319 140.505 276.894 141.08 277.593C141.654 278.268 142.479 279.168 143.554 280.292L158.286 295.699H154.912ZM171.401 295.699V269.084H174.025V293.375H189.394V295.699H171.401ZM193.256 295.699V269.084H195.88V295.699H193.256ZM213.387 295.887C211.288 295.887 209.514 295.512 208.064 294.762C206.615 294.012 205.465 293.013 204.616 291.763C203.766 290.489 203.141 289.052 202.741 287.452C202.367 285.853 202.179 284.204 202.179 282.504V269.084H204.766V282.504C204.766 283.879 204.903 285.228 205.178 286.553C205.478 287.877 205.953 289.064 206.603 290.114C207.252 291.163 208.127 292.001 209.227 292.625C210.326 293.225 211.701 293.525 213.35 293.525C215.049 293.525 216.449 293.213 217.548 292.588C218.673 291.938 219.548 291.088 220.172 290.039C220.822 288.989 221.285 287.815 221.559 286.515C221.834 285.191 221.972 283.854 221.972 282.504V269.084H224.596V282.504C224.596 284.278 224.396 285.978 223.996 287.602C223.596 289.227 222.946 290.651 222.047 291.876C221.172 293.1 220.023 294.075 218.598 294.8C217.174 295.524 215.437 295.887 213.387 295.887ZM238.644 282.204C238.644 280.58 238.919 278.993 239.469 277.444C240.044 275.869 240.868 274.445 241.943 273.17C243.018 271.871 244.342 270.846 245.917 270.096C247.491 269.322 249.278 268.934 251.277 268.934C253.651 268.934 255.675 269.484 257.35 270.584C259.049 271.658 260.299 273.045 261.098 274.745L259.037 276.019C258.462 274.844 257.737 273.92 256.863 273.245C255.988 272.545 255.051 272.046 254.051 271.746C253.076 271.446 252.102 271.296 251.127 271.296C249.528 271.296 248.116 271.621 246.891 272.27C245.667 272.895 244.63 273.745 243.78 274.819C242.955 275.869 242.33 277.056 241.906 278.381C241.481 279.68 241.268 281.005 241.268 282.354C241.268 283.829 241.518 285.241 242.018 286.59C242.518 287.94 243.218 289.139 244.117 290.189C245.017 291.213 246.067 292.038 247.266 292.663C248.491 293.263 249.815 293.563 251.24 293.563C252.239 293.563 253.264 293.388 254.313 293.038C255.363 292.688 256.338 292.151 257.237 291.426C258.162 290.701 258.899 289.764 259.449 288.614L261.623 289.739C261.073 291.063 260.224 292.188 259.074 293.113C257.925 294.037 256.638 294.737 255.213 295.212C253.814 295.687 252.439 295.924 251.09 295.924C249.265 295.924 247.591 295.537 246.067 294.762C244.542 293.962 243.218 292.913 242.093 291.613C240.993 290.289 240.144 288.814 239.544 287.19C238.944 285.541 238.644 283.879 238.644 282.204ZM273.902 296.074C272.502 296.074 271.203 295.812 270.003 295.287C268.829 294.737 267.804 294 266.929 293.075C266.08 292.126 265.417 291.051 264.943 289.851C264.468 288.627 264.23 287.34 264.23 285.99C264.23 284.591 264.468 283.291 264.943 282.092C265.417 280.867 266.092 279.793 266.967 278.868C267.841 277.918 268.866 277.181 270.041 276.656C271.24 276.107 272.54 275.832 273.939 275.832C275.339 275.832 276.626 276.107 277.8 276.656C278.975 277.181 279.999 277.918 280.874 278.868C281.749 279.793 282.423 280.867 282.898 282.092C283.373 283.291 283.611 284.591 283.611 285.99C283.611 287.34 283.373 288.627 282.898 289.851C282.423 291.051 281.749 292.126 280.874 293.075C280.024 294 279 294.737 277.8 295.287C276.626 295.812 275.326 296.074 273.902 296.074ZM266.817 286.028C266.817 287.477 267.129 288.802 267.754 290.001C268.404 291.176 269.266 292.113 270.34 292.813C271.415 293.488 272.602 293.825 273.902 293.825C275.201 293.825 276.388 293.475 277.463 292.775C278.537 292.076 279.4 291.126 280.049 289.926C280.699 288.702 281.024 287.377 281.024 285.953C281.024 284.503 280.699 283.179 280.049 281.979C279.4 280.78 278.537 279.83 277.463 279.13C276.388 278.431 275.201 278.081 273.902 278.081C272.602 278.081 271.415 278.443 270.34 279.168C269.291 279.893 268.441 280.855 267.791 282.054C267.142 283.229 266.817 284.553 266.817 286.028ZM286.767 295.699V292.026H288.978V295.699H286.767ZM304.323 295.699V269.084H306.947V293.375H322.316V295.699H304.323ZM334.695 294.762C334.495 294.837 334.182 294.974 333.757 295.174C333.333 295.374 332.82 295.549 332.221 295.699C331.621 295.849 330.971 295.924 330.271 295.924C329.547 295.924 328.859 295.787 328.21 295.512C327.585 295.237 327.085 294.825 326.71 294.275C326.335 293.7 326.148 293 326.148 292.176V278.193H323.449V276.169H326.148V269.571H328.697V276.169H333.195V278.193H328.697V291.463C328.747 292.163 328.997 292.688 329.447 293.038C329.921 293.388 330.459 293.563 331.059 293.563C331.758 293.563 332.396 293.45 332.97 293.225C333.545 292.975 333.895 292.8 334.02 292.7L334.695 294.762ZM336.275 285.99C336.275 284.141 336.649 282.454 337.399 280.93C338.174 279.38 339.236 278.143 340.586 277.219C341.935 276.294 343.472 275.832 345.196 275.832C346.821 275.832 348.27 276.269 349.545 277.144C350.844 277.993 351.856 279.03 352.581 280.255V268.334H355.13V292.625C355.13 292.975 355.205 293.238 355.355 293.413C355.505 293.563 355.73 293.65 356.03 293.675V295.699C355.53 295.774 355.143 295.799 354.868 295.774C354.343 295.749 353.881 295.537 353.481 295.137C353.081 294.737 352.881 294.3 352.881 293.825V291.913C352.106 293.188 351.057 294.2 349.732 294.949C348.408 295.699 347.033 296.074 345.609 296.074C344.259 296.074 343.01 295.799 341.86 295.249C340.735 294.7 339.748 293.95 338.899 293C338.074 292.051 337.424 290.976 336.949 289.776C336.5 288.552 336.275 287.29 336.275 285.99ZM352.581 288.989V282.954C352.256 282.054 351.731 281.242 351.007 280.517C350.282 279.768 349.457 279.18 348.533 278.756C347.633 278.306 346.733 278.081 345.834 278.081C344.784 278.081 343.834 278.306 342.985 278.756C342.135 279.18 341.398 279.768 340.773 280.517C340.173 281.267 339.711 282.117 339.386 283.066C339.061 284.016 338.899 284.991 338.899 285.99C338.899 287.04 339.074 288.04 339.423 288.989C339.798 289.939 340.323 290.789 340.998 291.538C341.673 292.263 342.447 292.825 343.322 293.225C344.197 293.625 345.146 293.825 346.171 293.825C346.821 293.825 347.495 293.7 348.195 293.45C348.895 293.2 349.557 292.863 350.182 292.438C350.832 291.988 351.369 291.463 351.794 290.864C352.219 290.264 352.481 289.639 352.581 288.989Z" fill="black"/>
</svg>
