<svg width="428" height="372" viewBox="0 0 428 372" fill="none" xmlns="http://www.w3.org/2000/svg">
<path d="M0 371.297H427.088" stroke="#263238" stroke-linejoin="round"/>
<path d="M178.152 250.141C178.152 250.141 178.453 287.42 178.453 297.268C178.453 307.116 178.152 349.898 178.152 349.898" stroke="#263238" stroke-width="3" stroke-linecap="round" stroke-linejoin="round"/>
<path d="M200.523 259.688L191.276 251.933L217.224 254.918L194.261 247.455L217.825 243.278H191.276L211.855 227.769L188.591 239.4L202.016 216.437L184.122 237.016L190.384 206.89L178.752 234.931L177.56 203.613L175.175 235.523L162.484 207.332L171.298 238.208L152.309 217.506L168.913 242.986L145.412 226.223L167.421 247.455L142.506 233.845L165.328 249.248L144.687 246.554L164.736 252.233L148.679 254.909L165.328 254.318L155.489 260.88L178.752 254.618L200.523 259.688Z" fill="#004E9E"/>
<path d="M169.197 287.719C169.197 287.719 168.314 295.473 168.905 298.458C169.532 301.902 169.827 305.398 169.788 308.898C169.788 312.775 170.089 313.075 170.089 315.76C170.089 318.445 169.788 341.249 169.788 343.334V350.488" stroke="#263238" stroke-width="3" stroke-linecap="round" stroke-linejoin="round"/>
<path d="M170.08 312.777C170.08 312.777 171.272 306.215 172.465 303.23C173.657 300.245 174.549 301.146 174.849 297.569C175.15 293.992 175.15 292.499 175.733 291.298C176.209 290.236 176.608 289.141 176.925 288.021L177.525 285.637" stroke="#263238" stroke-width="3" stroke-linecap="round" stroke-linejoin="round"/>
<path d="M191.276 295.477L182.029 287.722L207.977 290.707L185.014 283.253L208.578 279.076H182.029L202.616 263.567L179.353 275.198L192.769 252.235L174.875 272.814L181.137 242.688L169.505 270.721L168.313 239.402L165.928 271.321L156.681 242.388L162.051 274.006L145.65 250.442L159.667 278.775L138.143 264.715L158.174 283.253L135.97 274.165L156.081 285.037L135.246 283.235L155.489 288.022L141.42 291.228L156.081 290.107L146.242 296.669L169.505 290.407L191.276 295.477Z" fill="#004E9E"/>
<path d="M161.036 342.046L154.65 352.644C154.167 353.454 153.851 354.353 153.72 355.288C153.59 356.222 153.648 357.173 153.891 358.085L156.726 368.683C156.929 369.431 157.374 370.092 157.99 370.563C158.606 371.033 159.36 371.288 160.135 371.288H189.21C189.984 371.287 190.736 371.031 191.35 370.56C191.964 370.089 192.407 369.43 192.61 368.683L195.454 358.085C195.696 357.172 195.752 356.221 195.62 355.287C195.488 354.352 195.171 353.454 194.686 352.644L188.309 342.046C188.094 341.687 187.79 341.391 187.426 341.185C187.062 340.979 186.651 340.871 186.234 340.871H163.103C162.686 340.871 162.276 340.979 161.914 341.185C161.551 341.391 161.249 341.687 161.036 342.046Z" fill="white" stroke="#263238" stroke-linejoin="round"/>
<path d="M18.5477 81.5977H135.801C136.059 81.5977 136.306 81.7 136.488 81.8822C136.67 82.0644 136.773 82.3115 136.773 82.5692V369.679C136.773 370.108 136.602 370.519 136.299 370.822C135.996 371.125 135.585 371.296 135.156 371.296H19.1924C18.7638 371.296 18.3527 371.125 18.0496 370.822C17.7465 370.519 17.5762 370.108 17.5762 369.679V82.5692C17.5762 82.3115 17.6785 82.0644 17.8607 81.8822C18.0429 81.7 18.29 81.5977 18.5477 81.5977Z" stroke="#263238" stroke-linejoin="round"/>
<path d="M77.1738 227.609V370.997" stroke="#263238" stroke-linejoin="round"/>
<path d="M77.1738 81.2969V222.494" stroke="#263238" stroke-linejoin="round"/>
<path d="M25.4726 227.519H131.218C131.855 227.519 132.466 227.266 132.917 226.816C133.367 226.365 133.62 225.754 133.62 225.117C133.62 224.802 133.558 224.489 133.437 224.198C133.317 223.906 133.14 223.642 132.917 223.418C132.694 223.195 132.429 223.018 132.137 222.898C131.846 222.777 131.533 222.715 131.218 222.715H25.4726C25.1571 222.715 24.8448 222.777 24.5533 222.898C24.2618 223.018 23.997 223.195 23.7739 223.418C23.5509 223.642 23.3739 223.906 23.2532 224.198C23.1325 224.489 23.0703 224.802 23.0703 225.117C23.0703 225.754 23.3234 226.365 23.7739 226.816C24.2244 227.266 24.8355 227.519 25.4726 227.519Z" stroke="#263238" stroke-linejoin="round"/>
<path d="M124.283 109.445H90.3242V175.35H124.283V109.445Z" stroke="#263238" stroke-linejoin="round"/>
<path d="M121.625 114.609H92.9922V150.626H121.625V114.609Z" stroke="#263238" stroke-linejoin="round"/>
<path d="M97.2844 154.609H93.2129V158.813H97.2844V154.609Z" stroke="#263238" stroke-linejoin="round"/>
<path d="M103.406 154.609H99.334V158.813H103.406V154.609Z" stroke="#263238" stroke-linejoin="round"/>
<path d="M109.517 154.609H105.445V158.813H109.517V154.609Z" stroke="#263238" stroke-linejoin="round"/>
<path d="M115.628 154.609H111.557V158.813H115.628V154.609Z" stroke="#263238" stroke-linejoin="round"/>
<path d="M121.74 154.609H117.668V158.813H121.74V154.609Z" stroke="#263238" stroke-linejoin="round"/>
<path d="M97.2844 161.367H93.2129V165.571H97.2844V161.367Z" stroke="#263238" stroke-linejoin="round"/>
<path d="M103.406 161.367H99.334V165.571H103.406V161.367Z" stroke="#263238" stroke-linejoin="round"/>
<path d="M109.517 161.367H105.445V165.571H109.517V161.367Z" stroke="#263238" stroke-linejoin="round"/>
<path d="M115.628 161.367H111.557V165.571H115.628V161.367Z" stroke="#263238" stroke-linejoin="round"/>
<path d="M121.74 161.367H117.668V165.571H121.74V161.367Z" stroke="#263238" stroke-linejoin="round"/>
<path d="M60.738 158.984H30.4531V202.614H60.738V158.984Z" stroke="#263238" stroke-linejoin="round"/>
<path d="M55.2432 158.984H35.9453V202.614H55.2432V158.984Z" stroke="#263238" stroke-linejoin="round"/>
<path d="M55.2432 158.984H35.9453V172.488H55.2432V158.984Z" stroke="#263238" stroke-linejoin="round"/>
<path d="M326.759 54.7576H161.468C158.701 46.5301 157.267 37.9133 157.22 29.2331L157.141 14.7045C157.143 13.616 157.576 12.5728 158.346 11.8031C159.116 11.0334 160.159 10.6 161.247 10.5977H326.971C327.512 10.5976 328.049 10.7047 328.549 10.9128C329.049 11.1208 329.503 11.4257 329.884 11.8099C330.266 12.1941 330.568 12.6499 330.773 13.1513C330.978 13.6526 331.081 14.1895 331.078 14.731L330.981 29.4716C330.925 37.7712 329.597 46.0131 327.041 53.9097L326.759 54.7576Z" stroke="#263238" stroke-linejoin="round"/>
<path d="M316.081 48.0469H172.146V54.7945H316.081V48.0469Z" stroke="#263238" stroke-linejoin="round"/>
<path d="M286.371 68.9671C287.87 68.9684 289.352 68.6546 290.721 68.046C292.09 67.4374 293.317 66.5475 294.32 65.4343L291.944 62.7847C291.233 63.6406 290.333 64.3203 289.316 64.7709C288.298 65.2214 287.19 65.4304 286.078 65.3817C284.966 65.333 283.881 65.0277 282.907 64.4899C281.933 63.952 281.096 63.1961 280.462 62.2812L277.963 64.8337C278.961 66.1131 280.236 67.1497 281.692 67.8656C283.149 68.5815 284.748 68.9581 286.371 68.9671Z" fill="#004E9E"/>
<path d="M286.371 63.3763C287.177 63.3743 287.972 63.183 288.692 62.818C289.411 62.4529 290.035 61.9242 290.513 61.2743L287.969 58.4657C287.909 58.8731 287.696 59.2424 287.374 59.4989C287.051 59.7554 286.644 59.88 286.233 59.8474C285.823 59.8149 285.44 59.6277 285.162 59.3237C284.884 59.0196 284.732 58.6214 284.737 58.2096C284.723 58.1011 284.723 57.9913 284.737 57.8828L281.875 60.8062C282.332 61.5923 282.988 62.2438 283.778 62.6951C284.567 63.1464 285.461 63.3813 286.371 63.3763Z" fill="#004E9E"/>
<path d="M286.159 56.4609L286 56.6287C286.09 56.6055 286.181 56.5907 286.274 56.5846L286.159 56.4609Z" fill="#004E9E"/>
<path d="M299.592 71.3095C297.803 73.1274 295.658 74.5567 293.291 75.5081C290.925 76.4594 288.387 76.9124 285.837 76.8386C283.288 76.7648 280.781 76.1659 278.473 75.0793C276.165 73.9927 274.106 72.4418 272.425 70.5234L269.943 73.0671C271.946 75.2963 274.38 77.0947 277.1 78.3528C279.819 79.6108 282.766 80.3022 285.762 80.3849C288.757 80.4675 291.738 79.9396 294.522 78.8334C297.307 77.7272 299.837 76.0657 301.959 73.9503L299.592 71.3095Z" fill="#004E9E"/>
<path d="M286.369 74.9643C288.598 74.9652 290.805 74.5194 292.859 73.6532C294.913 72.787 296.772 71.5181 298.328 69.9212L295.952 67.2716C294.671 68.6312 293.115 69.7031 291.389 70.4163C289.662 71.1294 287.803 71.4676 285.936 71.4083C284.069 71.349 282.236 70.8936 280.558 70.0724C278.88 69.2511 277.396 68.0827 276.203 66.6445L273.73 69.1705C275.298 70.9864 277.238 72.4437 279.419 73.4434C281.6 74.4431 283.97 74.9618 286.369 74.9643Z" fill="#004E9E"/>
<path d="M378.681 310.133H290.025V321.137H378.681V310.133Z" stroke="#263238" stroke-linejoin="round"/>
<path d="M417.242 321.121H251.457V371.296H417.242V321.121Z" stroke="#263238" stroke-linejoin="round"/>
<path d="M412.826 324.324H255.873V368.087H412.826V324.324Z" stroke="#263238" stroke-linejoin="round"/>
<path d="M308.283 324.125V368.064" stroke="#263238" stroke-linejoin="round"/>
<path d="M359.701 324.125V368.064" stroke="#263238" stroke-linejoin="round"/>
<path d="M285.733 289.793H263.344V321.138H285.733V289.793Z" stroke="#263238" stroke-linejoin="round"/>
<path d="M404.948 289.793H382.559V321.138H404.948V289.793Z" stroke="#263238" stroke-linejoin="round"/>
<path d="M336.033 296.004C334.534 296.004 333.053 296.319 331.684 296.927C330.315 297.536 329.088 298.425 328.084 299.537L330.46 302.186C331.171 301.329 332.071 300.649 333.089 300.198C334.107 299.747 335.216 299.538 336.328 299.588C337.44 299.637 338.526 299.944 339.5 300.484C340.474 301.024 341.31 301.782 341.941 302.699L344.441 300.137C343.442 298.858 342.167 297.822 340.711 297.106C339.255 296.39 337.655 296.014 336.033 296.004Z" fill="#004E9E"/>
<path d="M336.032 301.602C335.225 301.603 334.429 301.792 333.708 302.156C332.987 302.519 332.362 303.046 331.881 303.695L334.424 306.503C334.485 306.096 334.698 305.727 335.02 305.47C335.342 305.214 335.75 305.089 336.16 305.122C336.571 305.154 336.954 305.341 337.232 305.645C337.509 305.949 337.661 306.348 337.657 306.759C337.67 306.868 337.67 306.978 337.657 307.086L340.519 304.163C340.061 303.38 339.406 302.731 338.618 302.281C337.831 301.832 336.939 301.597 336.032 301.602Z" fill="#004E9E"/>
<path d="M336.234 308.507L336.393 308.348C336.302 308.357 336.21 308.357 336.119 308.348L336.234 308.507Z" fill="#004E9E"/>
<path d="M322.811 293.662C324.601 291.845 326.745 290.417 329.111 289.466C331.477 288.516 334.013 288.063 336.562 288.137C339.11 288.211 341.616 288.809 343.923 289.895C346.23 290.981 348.289 292.531 349.97 294.448L352.451 291.904C350.446 289.68 348.01 287.887 345.291 286.632C342.572 285.378 339.626 284.689 336.633 284.606C333.639 284.523 330.66 285.049 327.876 286.152C325.092 287.255 322.561 288.911 320.436 291.021L322.811 293.662Z" fill="#004E9E"/>
<path d="M336.032 290.004C333.801 290.004 331.593 290.452 329.537 291.319C327.482 292.187 325.621 293.457 324.064 295.056L326.44 297.705C327.721 296.345 329.277 295.273 331.004 294.559C332.731 293.846 334.59 293.508 336.458 293.569C338.325 293.629 340.159 294.085 341.837 294.908C343.514 295.731 344.998 296.901 346.189 298.341L348.662 295.815C347.097 293.997 345.159 292.537 342.979 291.535C340.8 290.532 338.431 290.01 336.032 290.004Z" fill="#004E9E"/>
<path d="M412.462 29.9311C412.462 30.9443 412.161 31.9347 411.599 32.7771C411.036 33.6195 410.236 34.2761 409.3 34.6638C408.364 35.0515 407.334 35.1529 406.34 34.9553C405.346 34.7576 404.434 34.2697 403.717 33.5533C403.001 32.8369 402.513 31.9242 402.315 30.9305C402.118 29.9368 402.219 28.9069 402.607 27.9708C402.994 27.0348 403.651 26.2348 404.493 25.6719C405.336 25.109 406.326 24.8086 407.339 24.8086C408.698 24.8086 410.001 25.3483 410.962 26.309C411.922 27.2696 412.462 28.5726 412.462 29.9311Z" stroke="#263238" stroke-linejoin="round"/>
<path d="M420.022 67.8478H394.586V47.7727C394.586 46.1026 394.915 44.4488 395.554 42.9058C396.193 41.3627 397.13 39.9607 398.311 38.7797C399.492 37.5987 400.894 36.6619 402.437 36.0228C403.98 35.3836 405.634 35.0547 407.304 35.0547C408.974 35.0547 410.628 35.3836 412.171 36.0228C413.714 36.6619 415.116 37.5987 416.297 38.7797C417.478 39.9607 418.415 41.3627 419.054 42.9058C419.693 44.4488 420.022 46.1026 420.022 47.7727V67.8478Z" stroke="#263238" stroke-linejoin="round"/>
<path d="M407.34 24.809V0" stroke="#263238" stroke-width="2" stroke-linejoin="round"/>
<path d="M70.7353 29.9311C70.7353 30.9443 70.4349 31.9347 69.872 32.7771C69.3092 33.6195 68.5091 34.2761 67.5731 34.6638C66.6371 35.0515 65.6071 35.1529 64.6134 34.9553C63.6197 34.7576 62.707 34.2697 61.9906 33.5533C61.2742 32.8369 60.7863 31.9242 60.5887 30.9305C60.391 29.9368 60.4925 28.9069 60.8802 27.9708C61.2679 27.0348 61.9245 26.2348 62.7669 25.6719C63.6093 25.109 64.5996 24.8086 65.6128 24.8086C66.9714 24.8086 68.2743 25.3483 69.235 26.309C70.1956 27.2696 70.7353 28.5726 70.7353 29.9311Z" stroke="#263238" stroke-linejoin="round"/>
<path d="M78.3306 67.8478H52.8945V47.7727C52.8945 46.1026 53.2235 44.4488 53.8626 42.9058C54.5018 41.3627 55.4386 39.9607 56.6196 38.7797C57.8005 37.5987 59.2026 36.6619 60.7456 36.0228C62.2886 35.3836 63.9424 35.0547 65.6126 35.0547C67.2827 35.0547 68.9366 35.3836 70.4796 36.0228C72.0226 36.6619 73.4246 37.5987 74.6056 38.7797C75.7866 39.9607 76.7234 41.3627 77.3625 42.9058C78.0017 44.4488 78.3306 46.1026 78.3306 47.7727V67.8478Z" stroke="#263238" stroke-linejoin="round"/>
<path d="M65.6113 24.809V0" stroke="#263238" stroke-width="2" stroke-linejoin="round"/>
<path d="M95.7385 63.8824C95.7383 62.3841 95.4237 60.9025 94.8152 59.5333C94.2067 58.1641 93.3177 56.9378 92.2058 55.9336L89.5562 58.3094C90.4137 59.0196 91.0949 59.9189 91.5465 60.9367C91.9981 61.9544 92.2077 63.063 92.159 64.1753C92.1102 65.2877 91.8043 66.3737 91.2654 67.348C90.7265 68.3223 89.9691 69.1585 89.0527 69.791L91.6052 72.2816C92.8839 71.2848 93.9201 70.0112 94.636 68.5565C95.3519 67.1017 95.7289 65.5037 95.7385 63.8824Z" fill="#004E9E"/>
<path d="M90.14 63.8815C90.1379 63.0735 89.9468 62.2773 89.5818 61.5565C89.2167 60.8356 88.688 60.2103 88.038 59.7305L85.2294 62.2741C85.628 62.3462 85.9855 62.5638 86.2327 62.8847C86.4799 63.2056 86.5991 63.6068 86.5672 64.0106C86.5353 64.4144 86.3546 64.7919 86.0601 65.07C85.7655 65.348 85.3782 65.5068 84.9733 65.5154C84.8645 65.5241 84.7552 65.5241 84.6465 65.5154L87.5787 68.3682C88.3624 67.9115 89.0119 67.2563 89.4616 66.4686C89.9113 65.6809 90.1453 64.7885 90.14 63.8815Z" fill="#004E9E"/>
<path d="M83.2227 64.0836L83.3905 64.2425C83.377 64.1518 83.377 64.0595 83.3905 63.9688L83.2227 64.0836Z" fill="#004E9E"/>
<path d="M98.08 50.661C99.896 52.4507 101.323 54.5957 102.273 56.9619C103.223 59.3281 103.675 61.8647 103.6 64.4133C103.525 66.9619 102.926 69.4678 101.84 71.7744C100.753 74.081 99.2027 76.1388 97.2852 77.8193L99.8288 80.3099C102.053 78.3035 103.846 75.8666 105.101 73.1468C106.355 70.4269 107.045 67.4807 107.127 64.4866C107.21 61.4925 106.684 58.5128 105.581 55.728C104.478 52.9431 102.822 50.4111 100.712 48.2852L98.08 50.661Z" fill="#004E9E"/>
<path d="M101.736 63.8814C101.735 61.6504 101.288 59.4421 100.42 57.3867C99.5527 55.3314 98.2823 53.4706 96.6839 51.9141L94.0343 54.2899C95.3949 55.5717 96.4674 57.1281 97.1807 58.8559C97.894 60.5838 98.2318 62.4435 98.1717 64.3118C98.1116 66.1802 97.6549 68.0143 96.832 69.6927C96.009 71.3711 94.8386 72.8554 93.3984 74.047L95.9244 76.5111C97.7433 74.9469 99.2039 73.0091 100.207 70.8297C101.21 68.6503 101.731 66.2804 101.736 63.8814Z" fill="#004E9E"/>
<path d="M410.616 117.066H262.91V216.108H410.616V117.066Z" stroke="#263238" stroke-linejoin="round"/>
<path d="M406.607 121.246H266.92V211.924H406.607V121.246Z" stroke="#263238" stroke-linejoin="round"/>
<path d="M336.031 103.469C334.533 103.469 333.051 103.784 331.682 104.392C330.313 105.001 329.086 105.89 328.082 107.002L330.458 109.651C331.169 108.794 332.069 108.113 333.087 107.663C334.105 107.212 335.214 107.003 336.326 107.053C337.438 107.102 338.524 107.409 339.498 107.949C340.472 108.488 341.308 109.246 341.939 110.163L344.439 107.602C343.44 106.323 342.165 105.287 340.709 104.571C339.253 103.855 337.653 103.478 336.031 103.469Z" fill="#004E9E"/>
<path d="M336.03 109.066C335.223 109.067 334.427 109.257 333.706 109.621C332.985 109.984 332.36 110.511 331.879 111.16L334.422 113.968C334.483 113.561 334.696 113.192 335.018 112.935C335.34 112.679 335.748 112.554 336.158 112.586C336.569 112.619 336.952 112.806 337.23 113.11C337.508 113.414 337.66 113.813 337.655 114.224C337.668 114.333 337.668 114.443 337.655 114.551L340.517 111.628C340.059 110.845 339.404 110.196 338.616 109.746C337.829 109.296 336.937 109.062 336.03 109.066Z" fill="#004E9E"/>
<path d="M336.232 115.971L336.391 115.812H336.117L336.232 115.971Z" fill="#004E9E"/>
<path d="M322.807 101.126C324.597 99.3099 326.741 97.8818 329.107 96.9313C331.473 95.9808 334.009 95.5283 336.558 95.602C339.107 95.6758 341.613 96.2742 343.919 97.36C346.226 98.4457 348.285 99.9955 349.966 101.912L352.448 99.3688C350.442 97.1451 348.006 95.3518 345.287 94.0973C342.568 92.8429 339.622 92.1535 336.629 92.0709C333.635 91.9883 330.656 92.5143 327.872 93.6169C325.088 94.7195 322.557 96.3759 320.432 98.4856L322.807 101.126Z" fill="#004E9E"/>
<path d="M336.03 97.4688C333.799 97.4693 331.591 97.9166 329.535 98.7842C327.48 99.6519 325.619 100.922 324.062 102.521L326.438 105.17C327.719 103.81 329.275 102.737 331.002 102.024C332.729 101.311 334.588 100.973 336.456 101.033C338.324 101.093 340.157 101.55 341.835 102.373C343.512 103.196 344.996 104.366 346.187 105.806L348.66 103.28C347.095 101.462 345.157 100.002 342.977 98.9994C340.798 97.9967 338.429 97.4747 336.03 97.4688Z" fill="#004E9E"/>
<path d="M200.682 96.25L200.444 159.001L163.234 110.575" stroke="#263238" stroke-miterlimit="10" stroke-dasharray="2 2"/>
<path d="M145.71 173.847L198.702 159.566L145.428 139.367" stroke="#263238" stroke-miterlimit="10" stroke-dasharray="2 2"/>
<path d="M198.693 159.566L167.684 199.929" stroke="#263238" stroke-miterlimit="10" stroke-dasharray="2 2"/>
<path d="M201.873 98.5625H200.99" stroke="#263238" stroke-miterlimit="10"/>
<path d="M199.224 98.582C197.978 98.582 196.715 98.688 195.452 98.8028C183.679 99.8911 172.53 104.592 163.533 112.263C154.535 119.933 148.129 130.197 145.191 141.65C142.253 153.102 142.927 165.183 147.122 176.237C151.316 187.292 158.825 196.779 168.621 203.4" stroke="#263238" stroke-miterlimit="10" stroke-dasharray="2.01 2.01"/>
<path d="M169.363 203.887L170.105 204.372" stroke="#263238" stroke-miterlimit="10"/>
<path d="M158.402 140.331C158.404 137.864 157.674 135.452 156.305 133.4C154.936 131.348 152.989 129.749 150.71 128.803C148.432 127.858 145.924 127.61 143.504 128.09C141.085 128.57 138.862 129.757 137.117 131.501C135.372 133.245 134.183 135.467 133.701 137.886C133.219 140.305 133.466 142.813 134.409 145.093C135.353 147.372 136.951 149.32 139.002 150.691C141.053 152.061 143.465 152.793 145.932 152.793C147.569 152.795 149.191 152.475 150.705 151.849C152.218 151.224 153.594 150.306 154.752 149.149C155.91 147.991 156.829 146.617 157.455 145.104C158.082 143.591 158.404 141.969 158.402 140.331Z" fill="#004E9E"/>
<path d="M146.072 148.235C145.319 148.229 144.583 148.004 143.956 147.586C143.329 147.169 142.836 146.578 142.539 145.886C142.539 145.815 142.478 145.718 142.442 145.621L142.381 145.435C141.957 144.128 141.418 142.786 141.33 142.6C140.891 141.87 140.628 141.047 140.562 140.198C140.495 139.348 140.628 138.495 140.948 137.706C141.268 136.916 141.768 136.212 142.407 135.649C143.046 135.086 143.808 134.679 144.632 134.461C145.455 134.242 146.318 134.219 147.153 134.392C147.987 134.564 148.77 134.929 149.439 135.456C150.108 135.984 150.645 136.659 151.008 137.43C151.371 138.201 151.55 139.046 151.53 139.897C151.515 140.725 151.328 141.539 150.983 142.291C150.842 142.627 150.683 142.945 150.524 143.271C150.31 143.66 150.127 144.064 149.976 144.481C149.917 144.658 149.864 144.835 149.817 145.011C149.706 145.443 149.546 145.861 149.34 146.257C149.025 146.85 148.554 147.348 147.979 147.696C147.404 148.044 146.745 148.231 146.072 148.235ZM146.072 135.596C144.94 135.61 143.859 136.069 143.062 136.874C142.265 137.679 141.818 138.765 141.815 139.897C141.819 140.653 142.017 141.395 142.389 142.053V142.114C142.389 142.176 143.016 143.598 143.502 145.091C143.502 145.153 143.502 145.197 143.546 145.241C143.564 145.292 143.584 145.342 143.608 145.391C143.812 145.882 144.156 146.301 144.598 146.597C145.04 146.892 145.559 147.05 146.09 147.051C146.559 147.054 147.019 146.927 147.42 146.683C147.82 146.44 148.146 146.091 148.36 145.674C148.52 145.36 148.641 145.027 148.722 144.684C148.775 144.49 148.837 144.296 148.907 144.093C149.076 143.625 149.28 143.17 149.517 142.733C149.658 142.441 149.808 142.141 149.941 141.849C150.218 141.241 150.372 140.584 150.391 139.915C150.393 139.348 150.284 138.786 150.068 138.262C149.852 137.737 149.535 137.261 149.134 136.859C148.734 136.458 148.258 136.14 147.734 135.923C147.21 135.706 146.648 135.595 146.081 135.596H146.072Z" fill="#263238"/>
<path d="M146.091 134.087C145.933 134.087 145.782 134.025 145.669 133.914C145.557 133.803 145.493 133.653 145.49 133.495V130.713C145.49 130.556 145.553 130.405 145.664 130.294C145.775 130.183 145.925 130.121 146.082 130.121C146.239 130.121 146.389 130.183 146.5 130.294C146.611 130.405 146.674 130.556 146.674 130.713V133.46C146.679 133.539 146.667 133.619 146.64 133.695C146.613 133.77 146.571 133.839 146.516 133.898C146.462 133.956 146.396 134.003 146.323 134.036C146.25 134.068 146.171 134.086 146.091 134.087Z" fill="#263238"/>
<path d="M139.475 140.47H137.329C137.183 140.452 137.049 140.382 136.952 140.272C136.854 140.162 136.801 140.021 136.801 139.874C136.801 139.727 136.854 139.586 136.952 139.476C137.049 139.366 137.183 139.296 137.329 139.278H139.484C139.568 139.268 139.654 139.275 139.735 139.301C139.816 139.326 139.891 139.368 139.954 139.424C140.018 139.481 140.069 139.55 140.104 139.627C140.139 139.705 140.157 139.789 140.157 139.874C140.157 139.959 140.139 140.043 140.104 140.121C140.069 140.198 140.018 140.267 139.954 140.324C139.891 140.38 139.816 140.422 139.735 140.447C139.654 140.473 139.568 140.48 139.484 140.47H139.475Z" fill="#263238"/>
<path d="M154.692 140.48H152.537C152.38 140.48 152.23 140.418 152.119 140.307C152.008 140.196 151.945 140.046 151.945 139.889C151.945 139.732 152.008 139.581 152.119 139.47C152.23 139.359 152.38 139.297 152.537 139.297H154.692C154.849 139.297 155 139.359 155.11 139.47C155.221 139.581 155.284 139.732 155.284 139.889C155.282 140.045 155.218 140.194 155.108 140.305C154.997 140.415 154.848 140.478 154.692 140.48Z" fill="#263238"/>
<path d="M141.039 135.568C140.962 135.569 140.886 135.554 140.815 135.526C140.744 135.497 140.679 135.454 140.624 135.4L138.911 133.687C138.849 133.631 138.799 133.563 138.765 133.487C138.731 133.411 138.713 133.329 138.713 133.245C138.713 133.162 138.731 133.079 138.765 133.003C138.799 132.927 138.849 132.859 138.911 132.804C139.023 132.694 139.173 132.633 139.33 132.633C139.487 132.633 139.638 132.694 139.75 132.804L141.454 134.517C141.536 134.6 141.592 134.706 141.614 134.821C141.636 134.935 141.623 135.054 141.578 135.162C141.533 135.269 141.456 135.361 141.359 135.426C141.262 135.49 141.147 135.524 141.03 135.524L141.039 135.568Z" fill="#263238"/>
<path d="M151.284 135.578C151.125 135.576 150.973 135.513 150.86 135.401C150.751 135.289 150.689 135.138 150.689 134.981C150.689 134.825 150.751 134.674 150.86 134.562L152.574 132.857C152.685 132.746 152.836 132.684 152.993 132.684C153.151 132.684 153.301 132.746 153.413 132.857C153.524 132.969 153.586 133.12 153.586 133.277C153.586 133.434 153.524 133.585 153.413 133.696L151.699 135.401C151.59 135.512 151.44 135.576 151.284 135.578Z" fill="#263238"/>
<path d="M177.709 112.846C177.73 110.379 177.018 107.962 175.665 105.899C174.312 103.837 172.377 102.222 170.106 101.259C167.835 100.296 165.329 100.028 162.906 100.49C160.483 100.951 158.251 102.121 156.492 103.851C154.734 105.581 153.528 107.793 153.027 110.209C152.526 112.624 152.753 115.134 153.679 117.42C154.605 119.707 156.188 121.668 158.228 123.054C160.268 124.441 162.674 125.191 165.141 125.211C168.447 125.237 171.628 123.949 173.984 121.63C176.341 119.311 177.681 116.152 177.709 112.846Z" fill="#004E9E"/>
<path d="M165.22 119.779C163.623 119.727 162.091 119.134 160.873 118.099C159.656 117.063 158.826 115.645 158.519 114.077C158.211 112.509 158.444 110.883 159.18 109.464C159.916 108.045 161.111 106.918 162.57 106.266C162.693 106.202 162.828 106.164 162.967 106.155C163.105 106.145 163.244 106.165 163.374 106.212C163.504 106.26 163.623 106.333 163.724 106.429C163.824 106.525 163.903 106.641 163.956 106.769C164.009 106.897 164.034 107.035 164.031 107.174C164.028 107.312 163.996 107.449 163.937 107.574C163.878 107.7 163.794 107.812 163.689 107.903C163.585 107.994 163.462 108.062 163.33 108.103C162.265 108.539 161.381 109.326 160.825 110.333C160.269 111.34 160.074 112.507 160.272 113.64C160.47 114.773 161.05 115.804 161.915 116.563C162.78 117.321 163.878 117.761 165.028 117.809C166.177 117.858 167.309 117.512 168.234 116.828C169.16 116.145 169.824 115.166 170.117 114.053C170.409 112.941 170.313 111.762 169.843 110.711C169.373 109.661 168.559 108.803 167.534 108.28C167.338 108.143 167.197 107.94 167.138 107.707C167.079 107.475 167.105 107.229 167.213 107.015C167.32 106.801 167.5 106.632 167.722 106.54C167.943 106.448 168.19 106.439 168.417 106.514C169.776 107.264 170.85 108.442 171.473 109.864C172.095 111.286 172.232 112.874 171.862 114.381C171.492 115.889 170.636 117.233 169.426 118.206C168.216 119.178 166.719 119.725 165.167 119.762L165.22 119.779Z" fill="#263238"/>
<path d="M165.281 111.563C165.018 111.559 164.767 111.45 164.584 111.262C164.4 111.073 164.298 110.82 164.301 110.557V104.533C164.301 104.268 164.406 104.015 164.593 103.827C164.78 103.64 165.034 103.535 165.299 103.535C165.564 103.535 165.817 103.64 166.005 103.827C166.192 104.015 166.297 104.268 166.297 104.533L166.244 110.565C166.244 110.824 166.144 111.073 165.964 111.259C165.785 111.445 165.54 111.554 165.281 111.563Z" fill="#263238"/>
<path d="M173.276 212.612C179.435 209.53 181.93 202.039 178.848 195.879C175.767 189.72 168.275 187.225 162.116 190.307C155.956 193.388 153.461 200.88 156.543 207.039C159.625 213.199 167.116 215.694 173.276 212.612Z" fill="#004E9E"/>
<path d="M171.792 198.067H167.649V195.682C167.649 194.8 167.3 193.953 166.678 193.328C166.056 192.702 165.211 192.348 164.329 192.344H164.143C163.706 192.341 163.273 192.425 162.869 192.591C162.465 192.756 162.097 192.999 161.787 193.307C161.477 193.615 161.23 193.981 161.062 194.384C160.893 194.787 160.806 195.219 160.805 195.656V198.676C160.805 198.833 160.867 198.984 160.978 199.095C161.089 199.206 161.239 199.268 161.396 199.268C161.553 199.268 161.704 199.206 161.815 199.095C161.926 198.984 161.988 198.833 161.988 198.676V195.656C161.993 195.09 162.221 194.548 162.623 194.15C163.025 193.751 163.568 193.527 164.134 193.527H164.329C164.895 193.532 165.436 193.76 165.835 194.162C166.233 194.564 166.457 195.107 166.457 195.673V198.058H164.594C164.235 198.058 163.892 198.2 163.638 198.454C163.385 198.707 163.242 199.051 163.242 199.409V206.599C163.241 206.776 163.275 206.952 163.342 207.116C163.409 207.281 163.507 207.43 163.632 207.557C163.757 207.683 163.905 207.784 164.068 207.853C164.232 207.921 164.407 207.958 164.585 207.959H171.783C172.141 207.959 172.485 207.816 172.738 207.563C172.992 207.31 173.134 206.966 173.134 206.607V199.418C173.132 199.062 172.99 198.721 172.739 198.468C172.488 198.216 172.148 198.072 171.792 198.067ZM171.924 206.616C171.924 206.638 171.92 206.659 171.911 206.679C171.903 206.699 171.89 206.717 171.875 206.732C171.859 206.747 171.84 206.758 171.82 206.766C171.8 206.773 171.778 206.776 171.756 206.775H164.567C164.524 206.775 164.483 206.759 164.451 206.729C164.42 206.7 164.402 206.659 164.399 206.616V199.418C164.402 199.375 164.42 199.335 164.451 199.305C164.483 199.276 164.524 199.259 164.567 199.259H171.765C171.807 199.259 171.848 199.276 171.878 199.306C171.907 199.336 171.924 199.376 171.924 199.418V206.616Z" fill="#263238"/>
<path d="M168.18 201.281C167.951 201.285 167.729 201.366 167.553 201.512C167.376 201.658 167.255 201.86 167.208 202.084C167.162 202.309 167.194 202.542 167.298 202.746C167.402 202.95 167.573 203.113 167.782 203.207V204.902H168.559V203.242C168.773 203.152 168.949 202.99 169.057 202.785C169.166 202.58 169.2 202.344 169.154 202.116C169.109 201.889 168.986 201.684 168.807 201.537C168.627 201.389 168.403 201.309 168.171 201.308L168.18 201.281Z" fill="#263238"/>
<path d="M149.511 185.735C156.069 183.632 159.681 176.61 157.578 170.052C155.475 163.493 148.453 159.882 141.895 161.985C135.336 164.088 131.724 171.11 133.828 177.668C135.931 184.227 142.952 187.838 149.511 185.735Z" fill="#004E9E"/>
<path d="M147.159 174.05L147.256 167.594C147.265 166.948 147.018 166.324 146.567 165.86C146.116 165.397 145.5 165.131 144.854 165.121C144.207 165.112 143.583 165.36 143.12 165.81C142.656 166.261 142.39 166.877 142.381 167.524V168.027H140.915C140.733 168.027 140.558 168.098 140.427 168.225C140.297 168.352 140.221 168.525 140.217 168.707C140.216 168.796 140.232 168.885 140.265 168.968C140.298 169.051 140.347 169.127 140.41 169.191C140.472 169.255 140.546 169.306 140.629 169.341C140.711 169.376 140.799 169.395 140.888 169.396H142.363V170.403H140.897C140.807 170.401 140.717 170.416 140.633 170.449C140.549 170.481 140.473 170.53 140.408 170.593C140.343 170.655 140.291 170.73 140.255 170.812C140.219 170.895 140.2 170.984 140.199 171.074C140.199 171.255 140.269 171.428 140.394 171.558C140.519 171.688 140.69 171.765 140.87 171.772H142.345V172.788H140.879C140.711 172.807 140.556 172.887 140.443 173.013C140.331 173.139 140.268 173.303 140.268 173.472C140.268 173.641 140.331 173.805 140.443 173.931C140.556 174.057 140.711 174.137 140.879 174.156H142.231C141.497 174.701 140.955 175.464 140.683 176.337C140.411 177.209 140.424 178.145 140.719 179.01C141.014 179.875 141.576 180.623 142.325 181.148C143.073 181.672 143.968 181.945 144.882 181.927C145.796 181.91 146.68 181.602 147.407 181.049C148.134 180.496 148.667 179.726 148.928 178.85C149.19 177.975 149.166 177.039 148.86 176.178C148.555 175.317 147.984 174.575 147.229 174.059L147.159 174.05ZM144.686 180.524C143.907 180.506 143.168 180.179 142.63 179.616C142.092 179.053 141.799 178.3 141.815 177.521C141.82 177.007 141.962 176.502 142.228 176.061C142.494 175.62 142.873 175.258 143.326 175.013L143.661 174.819L143.767 167.524C143.774 167.239 143.893 166.968 144.098 166.769C144.303 166.571 144.577 166.461 144.863 166.464C145.003 166.466 145.141 166.496 145.27 166.552C145.399 166.608 145.515 166.688 145.613 166.789C145.711 166.89 145.787 167.009 145.839 167.14C145.891 167.27 145.916 167.41 145.914 167.55L145.808 174.801L146.17 175.004C146.744 175.319 147.196 175.818 147.454 176.42C147.712 177.021 147.761 177.692 147.593 178.326C147.426 178.959 147.051 179.517 146.529 179.913C146.007 180.308 145.367 180.517 144.712 180.507L144.686 180.524Z" fill="#263238"/>
<path d="M151.098 166.801C150.559 166.794 150.029 166.947 149.577 167.241C149.125 167.535 148.769 167.956 148.556 168.451C148.343 168.947 148.281 169.494 148.379 170.024C148.477 170.555 148.73 171.044 149.105 171.431C149.481 171.818 149.963 172.085 150.491 172.198C151.018 172.311 151.567 172.266 152.068 172.067C152.57 171.868 153.001 171.525 153.308 171.082C153.615 170.638 153.783 170.114 153.792 169.574C153.798 169.215 153.733 168.858 153.6 168.524C153.468 168.191 153.271 167.886 153.021 167.628C152.77 167.371 152.472 167.165 152.142 167.023C151.812 166.881 151.457 166.806 151.098 166.801ZM151.036 170.899C150.764 170.897 150.499 170.814 150.274 170.661C150.049 170.507 149.875 170.29 149.774 170.037C149.673 169.784 149.65 169.507 149.708 169.241C149.765 168.975 149.901 168.732 150.097 168.543C150.293 168.355 150.541 168.229 150.809 168.182C151.077 168.135 151.354 168.169 151.602 168.279C151.851 168.39 152.061 168.572 152.206 168.803C152.35 169.034 152.423 169.302 152.414 169.574C152.4 169.93 152.249 170.267 151.992 170.514C151.735 170.761 151.393 170.899 151.036 170.899Z" fill="#263238"/>
<path d="M212.67 104.772C214.53 98.1409 210.662 91.257 204.031 89.3967C197.4 87.5365 190.516 91.4043 188.655 98.0357C186.795 104.667 190.663 111.551 197.294 113.411C203.926 115.272 210.81 111.404 212.67 104.772Z" fill="#004E9E"/>
<path d="M206.581 103.149V95.3236V94.7672C206.582 94.4151 206.442 94.0772 206.194 93.8273C205.946 93.5775 205.609 93.4359 205.257 93.4336H197.37C197.019 93.4336 196.683 93.5716 196.433 93.8179C196.183 94.0642 196.041 94.3989 196.036 94.7496V96.6661V101.753C195.512 101.46 194.923 101.305 194.323 101.303C193.775 101.372 193.26 101.598 192.838 101.953C192.415 102.308 192.104 102.778 191.942 103.305C191.779 103.832 191.772 104.395 191.921 104.926C192.07 105.457 192.369 105.934 192.782 106.3C193.195 106.665 193.705 106.904 194.25 106.988C194.796 107.071 195.353 106.996 195.857 106.771C196.361 106.545 196.789 106.18 197.09 105.717C197.391 105.255 197.552 104.716 197.555 104.164C197.551 103.812 197.475 103.463 197.334 103.14V97.9997L205.221 98.0439V101.806C204.696 101.518 204.107 101.363 203.508 101.356C202.96 101.424 202.444 101.648 202.021 102.002C201.597 102.356 201.285 102.824 201.121 103.351C200.957 103.877 200.948 104.44 201.095 104.972C201.243 105.503 201.54 105.981 201.953 106.348C202.365 106.715 202.874 106.955 203.419 107.041C203.964 107.126 204.522 107.052 205.026 106.828C205.53 106.604 205.959 106.24 206.262 105.778C206.564 105.317 206.727 104.778 206.732 104.226C206.761 103.86 206.71 103.493 206.581 103.149ZM194.305 105.648C194.012 105.581 193.745 105.433 193.533 105.221C193.321 105.008 193.173 104.74 193.107 104.447C193.042 104.154 193.06 103.848 193.161 103.566C193.261 103.283 193.44 103.034 193.676 102.849C193.912 102.663 194.195 102.548 194.494 102.517C194.793 102.486 195.094 102.54 195.363 102.673C195.632 102.806 195.858 103.013 196.015 103.269C196.171 103.525 196.252 103.82 196.248 104.12C196.188 104.579 195.952 104.995 195.588 105.281C195.225 105.566 194.764 105.698 194.305 105.648ZM205.301 96.6749L197.352 96.6131V94.6701L205.301 94.7407V96.6749ZM203.534 105.701C203.243 105.633 202.977 105.484 202.766 105.271C202.556 105.058 202.41 104.79 202.345 104.498C202.28 104.206 202.299 103.901 202.399 103.619C202.5 103.337 202.678 103.089 202.913 102.904C203.148 102.719 203.431 102.604 203.729 102.572C204.026 102.541 204.327 102.594 204.596 102.726C204.865 102.857 205.091 103.062 205.248 103.317C205.406 103.571 205.488 103.865 205.486 104.164C205.429 104.624 205.193 105.043 204.829 105.331C204.466 105.618 204.004 105.751 203.543 105.701H203.534Z" fill="#263238"/>
<path d="M267.38 148.641C267.38 148.641 271.619 150.522 273.271 154.523C274.922 158.524 289.044 194.788 289.513 197.614C289.981 200.44 274.445 225.876 274.445 225.876L269.967 221.637L274.913 200.917L268.554 185.611L265.021 180.665" fill="#004E9E"/>
<path d="M267.38 148.641C267.38 148.641 271.619 150.522 273.271 154.523C274.922 158.524 289.044 194.788 289.513 197.614C289.981 200.44 274.445 225.876 274.445 225.876L269.967 221.637L274.913 200.917L268.554 185.611L265.021 180.665" stroke="#263238" stroke-linejoin="round"/>
<path d="M285.777 206.287C279.851 203.479 275.302 204.945 273.81 205.598L269.977 221.628L274.454 225.868C274.454 225.868 281.299 214.616 285.777 206.287Z" fill="#FFBDA7" stroke="#FFBDA7" stroke-linejoin="round"/>
<path d="M268.112 221.559C268.112 221.559 274.294 233.844 273.526 238.543C272.757 243.241 270.647 342.292 270.647 342.292L257.063 342.813L244.266 245.078L240.6 245.599L234.594 343.855L219.439 341.506L214.731 245.343L213.945 223.908L268.112 221.559Z" fill="#263238" stroke="#263238" stroke-linejoin="round"/>
<path d="M218.391 298.907C219.047 298.801 219.67 298.544 220.21 298.156C220.89 297.573 220.793 297.573 222.339 299.119C223.884 300.664 223.495 301.336 224.75 300.373C226.004 299.41 225.712 299.022 226.966 300.47C228.221 301.918 227.938 302.404 229.669 302.113C231.4 301.821 231.7 301.336 231.7 302.784C231.7 304.232 231.409 304.621 232.177 304.913C233.081 305.201 233.885 305.737 234.5 306.458C235.074 307.226 235.383 306.838 235.657 307.712C235.834 308.229 236.138 308.694 236.54 309.064L218.391 298.907Z" fill="#5E5E5E" stroke="#263238" stroke-linejoin="round"/>
<path d="M218.469 299.219C219.181 300.266 219.674 301.447 219.917 302.69C220.209 304.527 219.635 305.975 220.597 306.841C221.56 307.706 222.143 307.326 222.364 308.095C222.584 308.863 222.072 309.64 222.558 309.932C223.044 310.223 224.969 308.969 224.969 309.543C224.969 310.117 224.775 310.427 225.543 310.126C226.312 309.826 226.32 308.872 226.797 309.835C227.274 310.797 227.681 312.052 227.963 311.866C228.84 311.226 229.869 310.824 230.948 310.7C231.585 310.662 232.219 310.796 232.785 311.089C233.077 311.186 233.554 311.672 233.845 311.186C234.137 310.7 236.716 309.367 236.716 309.367L218.469 299.219Z" fill="#5E5E5E" stroke="#263238" stroke-linejoin="round"/>
<path d="M218.391 298.91L236.69 309.367C236.69 309.367 223.363 310.144 218.391 298.91Z" fill="#FFBDA7" stroke="#FFBDA7" stroke-linejoin="round"/>
<path d="M252.691 283.786C252.89 283.153 252.936 282.481 252.824 281.826C252.603 280.943 252.559 281.049 254.634 280.351C256.71 279.653 257.134 280.307 256.825 278.752C256.516 277.198 256.048 277.286 257.902 276.809C259.757 276.332 260.057 276.809 260.552 275.113C261.046 273.418 260.755 272.958 262.053 273.603C263.352 274.248 263.572 274.672 264.173 274.115C264.834 273.439 265.668 272.956 266.584 272.72C267.538 272.552 267.317 272.119 268.227 272.243C268.766 272.318 269.315 272.257 269.825 272.066L252.691 283.786Z" fill="#5E5E5E" stroke="#263238" stroke-linejoin="round"/>
<path d="M253.002 283.859C254.257 283.689 255.533 283.774 256.756 284.106C258.522 284.663 259.573 285.828 260.774 285.343C261.975 284.857 261.896 284.177 262.673 284.345C263.45 284.513 263.927 285.299 264.439 284.989C264.952 284.68 264.642 282.402 265.164 282.658C265.685 282.914 265.861 283.214 265.941 282.393C266.02 281.571 265.164 281.148 266.241 281.148C267.319 281.148 268.617 281.351 268.573 281.006C268.396 279.933 268.496 278.832 268.864 277.809C269.108 277.221 269.512 276.713 270.03 276.343C270.242 276.122 270.913 275.91 270.586 275.46C270.26 275.009 270.224 272.086 270.224 272.086L253.002 283.859Z" fill="#5E5E5E" stroke="#263238" stroke-linejoin="round"/>
<path d="M252.691 283.788L270.188 272.023C270.188 272.023 264.968 284.388 252.691 283.788Z" fill="#FFBDA7" stroke="#FFBDA7" stroke-linejoin="round"/>
<path d="M219.961 339.934C219.961 339.934 216.04 341.241 216.04 342.813C216.04 344.385 217.868 357.448 217.868 357.448C217.868 357.448 208.983 362.411 208.206 363.718C207.429 365.026 207.941 371.296 207.941 371.296H234.596C234.596 371.296 235.382 364.761 235.382 362.411C235.264 360.133 235.001 357.865 234.596 355.62L236.159 342.292C236.159 342.292 228.581 336.542 219.961 339.934Z" fill="white" stroke="#263238" stroke-linejoin="round"/>
<path d="M207.94 371.295H234.595C234.595 371.295 234.763 369.891 234.94 368.16H207.781C207.817 369.821 207.94 371.295 207.94 371.295Z" fill="white" stroke="#263238" stroke-linejoin="round"/>
<path d="M230.938 338.893C228.871 336.972 226.181 335.859 223.361 335.758C218.945 335.758 217.09 338.407 217.09 338.407L219.739 351.47H226.805L230.938 338.893Z" fill="white" stroke="#263238" stroke-linejoin="round"/>
<path d="M227.795 352.643H218.787C218.592 352.643 218.404 352.566 218.265 352.429C218.126 352.292 218.047 352.105 218.045 351.91C218.047 351.714 218.126 351.526 218.265 351.388C218.403 351.249 218.591 351.17 218.787 351.168H227.795C227.991 351.17 228.177 351.249 228.314 351.388C228.452 351.527 228.528 351.715 228.528 351.91C228.528 352.104 228.451 352.291 228.314 352.428C228.176 352.566 227.99 352.643 227.795 352.643Z" fill="white" stroke="#263238" stroke-linejoin="round"/>
<path d="M227.795 354.444H218.787C218.592 354.444 218.404 354.367 218.265 354.23C218.126 354.092 218.047 353.906 218.045 353.711C218.047 353.515 218.126 353.327 218.265 353.189C218.403 353.05 218.591 352.971 218.787 352.969H227.795C227.991 352.971 228.177 353.05 228.314 353.189C228.452 353.328 228.528 353.515 228.528 353.711C228.528 353.905 228.451 354.092 228.314 354.229C228.176 354.366 227.99 354.444 227.795 354.444Z" fill="white" stroke="#263238" stroke-linejoin="round"/>
<path d="M227.795 356.244H218.787C218.592 356.244 218.404 356.168 218.265 356.03C218.126 355.893 218.047 355.707 218.045 355.511C218.047 355.315 218.126 355.128 218.265 354.989C218.403 354.851 218.591 354.772 218.787 354.77H227.795C227.991 354.772 228.177 354.851 228.314 354.99C228.452 355.129 228.528 355.316 228.528 355.511C228.528 355.706 228.451 355.892 228.314 356.03C228.176 356.167 227.99 356.244 227.795 356.244Z" fill="white" stroke="#263238" stroke-linejoin="round"/>
<path d="M227.795 358.049H218.787C218.592 358.049 218.404 357.972 218.265 357.835C218.126 357.698 218.047 357.511 218.045 357.316C218.047 357.12 218.126 356.933 218.265 356.794C218.403 356.655 218.591 356.577 218.787 356.574H227.795C227.991 356.577 228.177 356.656 228.314 356.795C228.452 356.933 228.528 357.121 228.528 357.316C228.528 357.511 228.451 357.697 228.314 357.834C228.176 357.972 227.99 358.049 227.795 358.049Z" fill="white" stroke="#263238" stroke-linejoin="round"/>
<path d="M271.274 339.934C271.274 339.934 275.187 341.241 275.187 342.813C275.187 344.385 273.358 357.448 273.358 357.448C273.358 357.448 282.243 362.411 283.029 363.718C283.816 365.026 283.294 371.296 283.294 371.296H256.631C256.631 371.296 255.845 364.761 255.845 362.411C255.963 360.133 256.225 357.865 256.631 355.62L255.059 342.292C255.059 342.292 262.645 336.542 271.274 339.934Z" fill="white" stroke="#263238" stroke-linejoin="round"/>
<path d="M283.296 371.295H256.633C256.633 371.295 256.465 369.891 256.279 368.16H283.446C283.411 369.821 283.296 371.295 283.296 371.295Z" fill="white" stroke="#263238" stroke-linejoin="round"/>
<path d="M260.297 338.893C262.365 336.972 265.054 335.859 267.875 335.758C272.291 335.758 274.145 338.407 274.145 338.407L271.496 351.47H264.43L260.297 338.893Z" fill="white" stroke="#263238" stroke-linejoin="round"/>
<path d="M272.344 352.643H263.336C263.14 352.643 262.953 352.566 262.814 352.429C262.675 352.292 262.596 352.105 262.594 351.91C262.596 351.714 262.675 351.526 262.814 351.388C262.952 351.249 263.14 351.17 263.336 351.168H272.344C272.539 351.17 272.726 351.249 272.863 351.388C273 351.527 273.077 351.715 273.077 351.91C273.077 352.104 273 352.291 272.863 352.428C272.725 352.566 272.539 352.643 272.344 352.643Z" fill="white" stroke="#263238" stroke-linejoin="round"/>
<path d="M272.344 354.444H263.336C263.14 354.444 262.953 354.367 262.814 354.23C262.675 354.092 262.596 353.906 262.594 353.711C262.596 353.515 262.675 353.327 262.814 353.189C262.952 353.05 263.14 352.971 263.336 352.969H272.344C272.539 352.971 272.726 353.05 272.863 353.189C273 353.328 273.077 353.515 273.077 353.711C273.077 353.905 273 354.092 272.863 354.229C272.725 354.366 272.539 354.444 272.344 354.444Z" fill="white" stroke="#263238" stroke-linejoin="round"/>
<path d="M272.344 356.244H263.336C263.14 356.244 262.953 356.168 262.814 356.03C262.675 355.893 262.596 355.707 262.594 355.511C262.596 355.315 262.675 355.128 262.814 354.989C262.952 354.851 263.14 354.772 263.336 354.77H272.344C272.539 354.772 272.726 354.851 272.863 354.99C273 355.129 273.077 355.316 273.077 355.511C273.077 355.706 273 355.892 272.863 356.03C272.725 356.167 272.539 356.244 272.344 356.244Z" fill="white" stroke="#263238" stroke-linejoin="round"/>
<path d="M272.344 358.049H263.336C263.14 358.049 262.953 357.972 262.814 357.835C262.675 357.698 262.596 357.511 262.594 357.316C262.596 357.12 262.675 356.933 262.814 356.794C262.952 356.655 263.14 356.577 263.336 356.574H272.344C272.539 356.577 272.726 356.656 272.863 356.795C273 356.933 273.077 357.121 273.077 357.316C273.077 357.511 273 357.697 272.863 357.834C272.725 357.972 272.539 358.049 272.344 358.049Z" fill="white" stroke="#263238" stroke-linejoin="round"/>
<path d="M233.589 124.113C233.589 124.113 232.909 136.098 232.706 137.927C232.503 139.755 225.843 143.226 220.129 145.928C214.415 148.631 209.61 149.815 209.84 152.332C210.07 154.849 213.496 248.6 213.496 248.6C213.496 248.6 221.269 248.371 232.706 244.034C244.143 239.698 250.988 234.204 256.702 229.4C260.157 226.509 264.009 224.129 268.14 222.334C268.14 222.334 269.023 177.98 269.023 170.225C269.023 162.471 270.622 154.451 270.171 151.254C269.721 148.057 255.996 144.189 252.569 142.563L249.133 140.965C249.133 140.965 249.133 136.549 250.511 133.776L251.88 131.038L234.278 123.266L233.589 124.113Z" fill="#004E9E" stroke="#263238" stroke-linejoin="round"/>
<path d="M256.677 229.373C260.131 226.482 263.983 224.102 268.115 222.307C268.115 222.307 268.115 222.051 268.115 221.574C264.635 221.742 261.296 223.526 246.653 228.472C235.713 232.031 224.433 234.44 212.994 235.661C213.277 243.504 213.462 248.591 213.462 248.591C213.462 248.591 221.234 248.362 232.672 244.025C244.109 239.689 250.963 234.177 256.677 229.373Z" fill="white" stroke="#263238" stroke-linejoin="round"/>
<path d="M212.754 229.161C212.754 229.161 253.487 223.508 268.086 218.801" stroke="#263238" stroke-linejoin="round"/>
<path d="M252.57 142.505L249.134 140.906C249.134 140.906 249.134 136.49 250.512 133.717L251.881 130.979L234.279 123.207L233.59 124.09C233.59 124.09 232.91 136.075 232.707 137.903C232.557 139.096 229.677 140.977 226.109 142.894C228.317 145.34 234.138 151.107 240.929 152.538C246.405 153.686 251.157 147.76 253.974 143.052C253.391 142.867 252.923 142.673 252.57 142.505Z" fill="#FFBDA7" stroke="#FFBDA7" stroke-linejoin="round"/>
<path d="M243.453 163.135L243.648 161.272C243.886 158.899 243.886 156.508 243.648 154.135L243.453 152.281C243.453 152.281 239.134 152.06 237.81 154.047C236.485 156.034 237.138 159.77 237.474 160.918C238.03 162.8 243.453 163.135 243.453 163.135Z" fill="#263238" stroke="#263238" stroke-linejoin="round"/>
<path d="M243.453 176.311L243.648 174.456C243.886 172.084 243.886 169.693 243.648 167.32L243.453 165.457C243.453 165.457 239.134 165.236 237.81 167.223C236.485 169.21 237.138 172.937 237.474 174.094C238.03 175.984 243.453 176.311 243.453 176.311Z" fill="#263238" stroke="#263238" stroke-linejoin="round"/>
<path d="M243.453 163.133V165.456" stroke="#263238" stroke-linejoin="round"/>
<path d="M242.131 163.133V165.235" stroke="#263238" stroke-linejoin="round"/>
<path d="M250.51 133.717L251.879 130.979L234.277 123.207L233.588 124.09L235.089 126.74C235.089 126.74 239.7 135.28 249.512 137.762C249.639 136.371 249.975 135.007 250.51 133.717Z" fill="#263238" stroke="#263238" stroke-linejoin="round"/>
<path d="M253.478 104.683C253.478 104.683 256.225 111.086 256.225 111.996C256.172 112.658 255.933 113.292 255.536 113.824C255.536 113.824 259.652 117.71 259.422 118.629C259.193 119.548 257.135 120.687 257.135 120.687C257.135 120.687 258.733 129.148 258.733 130.287C258.733 131.427 255.536 134.173 249.133 133.484C245.216 133.019 241.542 131.342 238.623 128.689C238.623 128.689 232.679 122.285 232.441 118.399C232.202 114.513 236.795 103.332 242.5 101.707C248.206 100.082 253.478 104.683 253.478 104.683Z" fill="#FFBDA7" stroke="#FFBDA7" stroke-linejoin="round"/>
<path d="M252.568 114.628C252.568 115.45 252.206 116.112 251.765 116.112C251.323 116.112 250.961 115.45 250.961 114.628C250.961 113.807 251.323 113.145 251.765 113.145C252.206 113.145 252.568 113.807 252.568 114.628Z" fill="#263238"/>
<path d="M249.133 112.685C249.133 112.685 251.42 109.709 254.167 111.316" stroke="#263238" stroke-linejoin="round"/>
<path d="M248.684 121.598C248.684 121.598 250.053 123.885 254.866 122.975" stroke="#263238" stroke-linejoin="round"/>
<path d="M232.219 103.997C232.219 103.997 224.906 106.743 224.218 111.062C223.529 115.381 229.702 121.352 230.621 122.261C231.539 123.171 236.803 123.144 238.163 121.378C239.523 119.612 237.474 116.573 238.843 115.434C240.212 114.295 242.049 114.745 242.509 111.318C242.968 107.892 241.36 106.514 243.648 105.375C245.935 104.235 248.903 106.743 253.478 104.686C258.053 102.628 256.675 94.626 251.65 91.6584C246.624 88.6909 238.623 92.7978 238.402 94.3964C238.181 95.995 239.771 98.0528 238.402 98.2824C237.033 98.5121 234.056 97.6024 233.597 99.881C233.301 101.302 232.839 102.684 232.219 103.997Z" fill="#263238" stroke="#263238" stroke-linejoin="round"/>
<path d="M238.393 122.976C238.393 122.976 235.876 117.941 232.449 118.401C229.022 118.86 229.932 126.402 232.449 128.001C234.966 129.6 238.393 126.402 238.393 126.402" fill="#FFBDA7"/>
<path d="M238.393 122.976C238.393 122.976 235.876 117.941 232.449 118.401C229.022 118.86 229.932 126.402 232.449 128.001C234.966 129.6 238.393 126.402 238.393 126.402" stroke="#263238" stroke-linejoin="round"/>
<path d="M212.666 149.367C212.666 149.367 206.033 152.105 204.894 155.762C203.755 159.418 189.571 192.803 188.202 195.505C186.833 198.208 188.431 203.048 190.948 203.967C193.465 204.885 194.834 203.967 197.343 202.138C199.851 200.31 212.666 178.822 212.666 178.822" fill="#004E9E"/>
<path d="M212.666 149.367C212.666 149.367 206.033 152.105 204.894 155.762C203.755 159.418 189.571 192.803 188.202 195.505C186.833 198.208 188.431 203.048 190.948 203.967C193.465 204.885 194.834 203.967 197.343 202.138C199.851 200.31 212.666 178.822 212.666 178.822" stroke="#263238" stroke-linejoin="round"/>
<path d="M196.176 149.933L204.229 149.792C204.667 149.785 205.09 149.951 205.406 150.256C205.721 150.56 205.902 150.977 205.91 151.415L206.293 173.386C206.301 173.823 206.134 174.247 205.83 174.562C205.526 174.877 205.109 175.058 204.671 175.066L196.617 175.206C196.177 175.214 195.751 175.046 195.435 174.741C195.118 174.435 194.936 174.015 194.928 173.575L194.545 151.613C194.537 151.173 194.704 150.748 195.01 150.431C195.316 150.114 195.735 149.932 196.176 149.924L196.176 149.933Z" fill="#263238" stroke="#263238" stroke-linejoin="round"/>
<path d="M192.68 180.285C192.68 180.285 192.618 167.081 192.521 165.217C192.424 163.354 194.676 161.437 196.054 160.51C197.432 159.582 203.288 156.88 204.003 157.198C204.718 157.516 204.48 158.664 203.526 159.344C202.572 160.024 198.368 162.364 197.573 163.009C196.778 163.654 196.84 166.162 196.84 166.162C196.84 166.162 201.68 163.839 203.12 163.212C204.559 162.585 206.14 161.914 206.723 162.417C206.891 162.594 207.008 162.814 207.059 163.052C207.111 163.29 207.095 163.538 207.015 163.769C207.381 164.225 207.564 164.801 207.527 165.385C207.394 166.206 203.994 169.465 202.952 170.322C202.175 170.972 201.432 171.662 200.726 172.389C200.726 172.389 207.147 170.817 207.598 170.719C208.048 170.622 208.578 171.603 207.333 172.353C205.394 173.228 203.403 173.98 201.371 174.606C201.093 176.169 200.636 177.695 200.011 179.154C199.508 180.645 198.511 181.919 197.185 182.766C197.185 182.766 199.896 197.268 197.926 201.163C195.957 205.058 189.792 207.831 187.328 203.027C184.864 198.222 186.401 192.367 188.847 189.161C191.294 185.955 192.68 180.285 192.68 180.285Z" fill="#FFBDA7" stroke="#FFBDA7" stroke-linejoin="round"/>
<path d="M198.473 192.829C193.059 195.152 189.482 192.908 187.645 191.062C185.958 194.383 185.242 199.064 187.291 203.047C189.764 207.852 195.92 205.079 197.89 201.184C198.702 199.603 198.729 196.238 198.473 192.829Z" fill="#004E9E" stroke="#263238" stroke-linejoin="round"/>
<path d="M206.987 163.77L198.146 169.334" stroke="#263238" stroke-linejoin="round"/>
<path d="M206.987 163.77L198.146 169.334" stroke="#263238" stroke-linejoin="round"/>
<path d="M272.036 218.051L264.67 219.614C263.884 219.773 258.559 224.781 257.932 225.726C257.305 226.671 259.027 227.289 259.813 227.289C260.599 227.289 264.821 224.162 264.821 224.162L263.699 226.98L272.16 234.346C272.16 234.346 274.43 230.274 275.525 227.607C276.294 225.426 276.818 223.165 277.088 220.868" fill="#FFBDA7"/>
<path d="M272.036 218.051L264.67 219.614C263.884 219.773 258.559 224.781 257.932 225.726C257.305 226.671 259.027 227.289 259.813 227.289C260.599 227.289 264.821 224.162 264.821 224.162L263.699 226.98L272.16 234.346C272.16 234.346 274.43 230.274 275.525 227.607C276.294 225.426 276.818 223.165 277.088 220.868" stroke="#FFBDA7" stroke-linejoin="round"/>
</svg>
