<svg width="378" height="350" viewBox="0 0 378 350" fill="none" xmlns="http://www.w3.org/2000/svg">
<path d="M183.112 308.103C180.19 308.616 178.785 311.127 176.748 313.346C175.878 314.422 174.934 315.435 173.921 316.377C174.711 314.593 175.453 312.698 176.085 310.795C177.522 309.106 179.243 306.927 180.459 305.229C182.212 302.805 184.328 299.094 181.856 297.223C180.033 295.841 178.185 297.018 177.119 298.802C175.808 301.084 176.053 303.595 176.037 306.429C176.075 307.748 176.014 309.067 175.856 310.377C175.856 310.519 175.579 311.245 175.54 311.364C175.066 312.738 174.514 314.135 173.961 315.454C174.411 313.559 174.869 311.04 175.098 309.224C175.477 306.255 175.027 301.613 171.347 302.055C168.631 302.387 168.41 305.118 168.529 307.148C168.679 309.722 169.997 311.245 171.608 313.417C171.963 313.898 173.337 315.509 173.542 316.362C173.542 316.425 173.463 316.599 173.44 316.646L173.321 316.717H173.4C172.266 319.173 170.962 321.547 169.5 323.823C169.389 323.997 169.263 324.178 169.145 324.336C169.302 322.118 169.429 319.733 169.421 317.53C169.421 314.727 168.126 310.385 164.636 311.301C162.054 311.98 162.086 314.459 162.497 316.401C163.018 318.809 164.581 320.088 166.507 321.857C166.973 322.283 168.773 323.539 169.05 324.431C169.05 324.431 169.05 324.486 169.05 324.494H168.931L169.002 324.557C168.141 325.725 167.207 326.837 166.207 327.889C165.041 328.815 163.829 329.682 162.575 330.487C163.199 328.794 163.592 327.026 163.744 325.228C163.973 322.528 163.239 318.122 159.852 318.225C157.341 318.288 156.875 320.594 157.017 322.433C157.191 324.802 158.596 326.184 160.223 328.071C160.586 328.489 162.039 329.887 162.283 330.645C160.467 331.948 158.549 333.132 156.756 334.482C157.126 332.749 157.287 330.979 157.238 329.208C157.072 326.642 155.264 323.302 152.13 323.681C149.808 323.981 149.414 325.986 149.887 327.715C150.479 329.903 152.09 330.874 154.017 332.287C154.483 332.634 156.338 333.708 156.638 334.498C154.569 336.077 152.58 337.656 151.174 339.843C151.174 339.843 151.135 339.78 151.111 339.78C151.087 339.78 151.111 339.835 151.151 339.851C151.19 339.867 151.111 340.096 151.087 339.977C150.677 338.146 150.89 336.59 150.543 334.529C150.132 332.058 147.945 329.145 144.85 329.958C142.56 330.558 142.671 332.848 143.46 334.435C144.463 336.44 146.003 337.143 148.15 338.24C148.687 338.517 150.622 339.267 151.04 340.025C149.678 342.729 148.662 345.594 148.016 348.552H148.332C148.963 345.624 149.977 342.791 151.348 340.127C152.383 341.666 153.529 343.128 154.775 344.501C156.733 346.483 160.302 348.528 163.112 346.436C165.189 344.857 164.234 342.914 162.528 341.785C160.373 340.348 157.98 340.451 155.138 340.285C154.498 340.246 152.28 340.285 151.466 339.993C152.738 337.798 154.814 336.282 156.843 334.711C157.856 336.23 158.974 337.676 160.191 339.038C162.094 341.043 165.844 342.812 168.608 340.727C170.645 339.196 169.95 337.151 168.221 336.101C166.026 334.766 163.862 335.129 161.067 334.995C160.404 334.995 157.83 335.098 156.97 334.664C158.651 333.392 160.546 332.208 162.299 330.968C162.173 330.866 162.07 330.763 162.639 331.095C164.219 332.185 165.873 333.164 167.589 334.024C169.729 334.987 174.537 335.374 176.148 332.24C177.332 329.926 175.911 328.371 173.724 328.205C170.945 328.008 169.35 329.35 166.618 330.226C165.892 330.455 163.46 331.387 162.41 330.937C163.681 329.982 165.26 329.152 166.413 328.118C167.446 327.043 168.401 325.895 169.271 324.684C170.85 325.524 172.508 326.206 174.221 326.721C177.214 327.51 181.209 326.721 182.599 323.483C183.625 321.115 182.149 319.417 179.859 319.338C176.961 319.236 175.311 320.917 172.753 322.425C172.232 322.741 170.384 324.131 169.524 324.344C169.563 324.257 169.681 324.107 169.76 323.981C171.252 321.659 172.571 319.231 173.708 316.717C175.597 316.855 177.492 316.891 179.385 316.828C182.543 316.638 186.531 314.656 186.981 311.261C187.296 308.877 185.425 307.7 183.112 308.103Z" fill="#004E9E"/>
<path d="M126.453 340.358C127.942 343.338 129.758 346.143 131.87 348.719H132.351C130.167 346.105 128.311 343.233 126.824 340.168C129.094 340.28 131.369 340.227 133.63 340.01C137.01 339.537 141.637 337.515 141.637 333.228C141.637 330.07 138.992 329.549 136.631 330.401C133.646 331.467 131.996 333.899 129.754 336.56C129.241 337.168 127.693 339.402 126.769 339.955C125.553 337.097 125.585 333.954 125.53 330.804C127.762 330.926 129.999 330.884 132.225 330.678C135.589 330.283 140.073 327.891 140.05 323.651C140.05 320.493 137.515 319.703 135.217 320.643C132.304 321.819 131.08 324.211 128.901 326.856C128.38 327.488 126.635 330.117 125.577 330.654C125.577 328.072 125.782 325.332 125.853 322.703C125.648 322.759 125.482 322.774 126.224 322.459C128.45 321.706 130.621 320.802 132.722 319.75C135.233 318.337 139.134 313.9 137.239 310.031C135.833 307.165 133.291 307.425 131.499 309.462C129.264 312.036 129.414 314.595 128.277 317.919C127.977 318.803 127.085 321.906 125.909 322.569C125.909 320.619 126.248 318.463 126.067 316.568C125.885 314.674 125.198 313.015 124.787 311.239C126.911 310.063 128.269 309.573 130.417 307.868C133.386 305.499 135.525 301.006 133.37 297.272C131.791 294.516 129.035 294.737 127.282 296.924C125.064 299.696 125.506 302.554 125.127 306.154C125.056 306.896 125.08 309.723 124.653 310.734C124.59 310.631 124.535 310.402 124.464 310.228C123.251 307.047 121.805 303.959 120.137 300.991C121.654 299.224 123.078 297.38 124.401 295.464C126.54 292.203 127.496 286.857 124.495 283.928C122.277 281.757 119.758 282.744 118.455 285.31C116.821 288.555 118.258 291.776 118.945 295.4C119.087 296.143 119.892 299.246 119.853 300.398C118.66 298.345 117.358 296.198 115.96 294.185C115.344 291.54 114.452 288.271 113.686 285.807C112.589 282.31 110.489 277.517 106.841 278.575C104.148 279.365 103.951 282.033 104.97 284.378C106.249 287.339 108.917 288.934 111.673 291.034C112.999 291.962 114.253 292.988 115.423 294.106C115.542 294.24 116.079 295.014 116.158 295.132V295.187C117.16 296.664 118.131 298.219 119.008 299.759C117.429 297.927 115.329 295.637 113.71 294.074C111.081 291.532 106.186 288.547 103.927 292.495C102.254 295.408 104.788 297.619 106.872 298.993C109.51 300.722 111.965 300.572 115.281 300.572C116.015 300.572 118.605 300.398 119.592 300.833C119.663 300.833 119.766 301.069 119.79 301.133C119.804 301.19 119.804 301.249 119.79 301.306L119.876 301.243C121.489 304.16 122.895 307.186 124.085 310.299C124.172 310.536 124.251 310.789 124.329 311.026C122.261 309.241 120.011 307.37 117.839 305.775C115.068 303.73 109.873 301.827 108.215 305.909C106.991 308.941 109.478 310.749 111.657 311.744C114.405 313 116.813 312.4 119.963 311.8C120.753 311.657 123.271 310.797 124.353 311.184C124.361 311.185 124.368 311.189 124.374 311.193C124.38 311.198 124.385 311.204 124.388 311.211C124.392 311.217 124.394 311.225 124.395 311.232C124.396 311.24 124.395 311.247 124.393 311.255C124.376 311.301 124.352 311.343 124.322 311.381C124.358 311.389 124.396 311.389 124.432 311.381C124.949 313.086 125.36 314.821 125.664 316.576C125.845 318.369 125.553 320.24 125.561 322.048C124.353 320.195 122.901 318.514 121.242 317.05C118.763 314.847 113.907 312.313 111.507 315.747C109.739 318.258 111.641 320.39 113.576 321.614C116.015 323.193 118.439 322.79 121.471 322.593C122.15 322.545 124.582 322.135 125.506 322.451C125.459 325.19 125.214 327.938 125.222 330.701C123.795 329.067 122.175 327.611 120.398 326.367C117.752 324.646 113.149 323.998 111.247 327.362C109.841 329.849 111.523 331.712 113.568 332.517C116.15 333.536 118.266 332.644 121.092 331.799C121.771 331.594 124.179 330.559 125.174 330.844C125.245 334.057 125.293 337.16 126.43 340.129C126.43 340.129 126.343 340.129 126.319 340.129C126.295 340.129 126.39 340.129 126.422 340.129C126.453 340.129 126.635 340.342 126.493 340.279C124.401 339.339 123.019 337.989 120.753 336.821C118.013 335.415 113.552 335.431 112.068 339.079C110.986 341.763 113.315 343.326 115.455 343.713C118.155 344.195 119.979 343.2 122.624 341.889C123.295 341.566 125.411 340.216 126.453 340.358Z" fill="#004E9E"/>
<path d="M211.031 286.556C215.507 287.345 217.655 291.182 220.774 294.577C221.413 295.272 223.932 298.399 225.108 299.228C223.94 296.496 222.74 293.583 221.784 290.677C219.597 288.095 216.984 284.763 215.089 282.15C212.404 278.447 209.167 272.754 212.949 269.896C215.744 267.788 218.579 269.58 220.166 272.351C222.171 275.849 221.8 279.686 221.824 284.037C221.767 286.057 221.859 288.078 222.1 290.085C222.155 290.298 222.527 291.419 222.59 291.593V291.664C223.316 293.756 224.169 295.904 225.037 297.925C224.358 295.012 223.656 291.159 223.3 288.379C222.716 283.839 223.411 276.726 229.048 277.405C233.209 277.91 233.533 282.095 233.351 285.205C233.122 289.153 231.109 291.482 228.614 294.806C228.069 295.541 225.961 297.965 225.653 299.315C225.67 299.468 225.724 299.614 225.811 299.741C225.863 299.792 225.925 299.833 225.993 299.86H225.874C227.602 303.621 229.597 307.255 231.843 310.732C232.009 310.992 232.207 311.269 232.388 311.521C232.143 308.118 231.946 304.471 231.962 301.107C231.962 296.804 233.936 290.156 239.281 291.561C243.229 292.604 243.229 296.441 242.565 299.362C241.776 303.057 239.407 305.023 236.423 307.731C235.704 308.379 232.949 310.297 232.522 311.679C232.522 311.679 232.522 311.766 232.522 311.782H232.712C232.675 311.817 232.636 311.849 232.593 311.877C234.038 313.558 235.223 315.469 236.881 316.985C238.539 318.501 240.631 319.614 242.408 320.933C241.453 318.338 240.851 315.626 240.615 312.871C240.26 308.75 241.405 302.023 246.576 302.149C250.414 302.244 251.132 305.75 250.919 308.6C250.658 312.2 248.463 314.348 246.008 317.23C245.455 317.877 243.229 320.009 242.85 321.178C245.629 323.183 248.566 324.991 251.322 327.06C250.887 324.17 250.382 322.078 250.579 318.991C250.832 315.043 253.611 309.95 258.404 310.566C261.949 311.016 262.565 314.087 261.839 316.74C260.931 320.088 258.459 321.541 255.522 323.736C254.804 324.265 251.969 325.915 251.511 327.123C254.669 329.586 257.717 331.931 259.88 335.303C259.88 335.263 259.928 335.216 259.975 335.208C260.023 335.2 259.975 335.295 259.912 335.318C259.849 335.342 259.967 335.69 260.015 335.508C260.638 332.705 260.315 330.321 260.804 327.17C261.436 323.38 264.752 318.927 269.529 320.175C273.034 321.091 272.861 324.596 271.653 327.02C270.121 330.092 267.752 331.173 264.476 332.847C263.647 333.266 260.694 334.426 260.046 335.587C262.196 339.741 263.804 344.154 264.831 348.717H264.357C263.389 344.235 261.833 339.899 259.73 335.824C257.922 338.192 256.73 340.253 254.488 342.519C251.495 345.551 246.016 348.678 241.721 345.48C238.562 343.111 240.015 340.087 242.621 338.374C245.921 336.187 249.585 336.337 253.927 336.084C254.914 336.021 258.309 336.14 259.557 335.634C257.606 332.279 254.425 329.957 251.322 327.557C249.498 330.021 248.495 331.75 246.19 334.174C243.284 337.245 237.504 339.953 233.312 336.771C230.154 334.403 231.259 331.244 233.904 329.665C237.26 327.636 240.568 328.189 244.855 327.976C245.874 327.928 249.806 328.134 251.172 327.478C248.598 325.528 245.645 323.712 243 321.817C243.205 321.651 243.355 321.501 242.479 322.007C240.963 322.883 238.199 325.031 234.915 326.499C231.63 327.968 224.271 328.56 221.808 323.759C219.984 320.222 222.163 317.838 225.519 317.585C229.767 317.277 232.214 319.338 236.399 320.672C237.504 321.035 241.286 322.449 242.834 321.762C240.884 320.301 238.468 319.038 236.707 317.443C234.946 315.848 233.793 313.929 232.325 312.185C229.561 313.432 228.053 314.427 224.745 315.343C220.174 316.559 214.055 315.343 211.923 310.384C210.344 306.729 212.618 304.155 216.123 304.028C220.553 303.871 223.087 306.444 226.972 308.766C227.761 309.239 230.588 311.371 231.922 311.703C231.859 311.561 231.677 311.34 231.551 311.142C229.263 307.587 227.234 303.872 225.479 300.025C222.589 300.234 219.69 300.289 216.794 300.191C211.923 299.891 205.859 296.867 205.164 291.672C204.619 287.74 207.493 285.94 211.031 286.556Z" fill="#004E9E"/>
<path d="M302.524 334.688C305.033 339.689 308.092 344.395 311.643 348.719H312.433C308.742 344.325 305.602 339.497 303.084 334.341C307.111 334.301 310.277 334.665 314.533 334.072C320.218 333.283 328.003 329.872 328.003 322.663C328.003 317.334 323.55 316.481 319.586 317.926C314.565 319.726 311.785 323.808 308.011 328.293C307.151 329.311 304.545 333.07 302.998 334.009C300.953 329.201 300.992 323.903 300.905 318.613C305.027 318.613 307.703 318.937 312.18 318.4C317.825 317.729 325.374 313.71 325.334 306.556C325.334 301.298 321.071 299.932 317.202 301.495C312.306 303.477 310.246 307.504 306.566 311.957C305.69 313.015 302.753 317.429 300.976 318.329C300.976 313.986 301.324 309.383 301.442 304.961C301.095 305.048 300.811 305.088 302.058 304.551C304.229 303.619 308.777 302.364 313.001 299.995C317.225 297.627 323.779 290.157 320.589 283.643C318.22 278.827 313.901 279.261 310.933 282.688C307.182 287.015 307.435 291.318 305.516 296.9C305.011 298.384 303.503 303.611 301.513 304.733C301.513 301.456 302.082 297.832 301.782 294.642C301.482 291.452 300.329 288.673 299.634 285.688C303.203 283.707 305.485 282.878 309.109 280.019C314.107 276.072 317.699 268.468 314.075 262.191C311.391 257.549 306.788 257.928 303.811 261.615C300.084 266.273 300.826 271.09 300.195 277.13C300.068 278.385 300.108 283.138 299.405 284.836C299.288 284.56 299.185 284.278 299.097 283.991C297.109 278.658 294.734 273.478 291.991 268.492C294.668 265.097 296.555 263.226 299.16 259.246C302.761 253.719 304.364 244.766 299.318 239.839C295.592 236.191 291.344 237.841 289.165 242.16C286.409 247.624 288.833 253.032 289.954 259.136C290.191 260.383 291.533 265.61 291.486 267.544C289.473 264.094 287.285 260.478 284.933 257.091C283.906 252.646 282.406 247.142 281.111 243.005C279.264 237.123 275.726 229.054 269.599 230.838C265.067 232.157 264.736 236.657 266.441 240.597C268.605 245.571 273.05 248.264 277.724 251.785C278.648 252.48 282.761 255.441 284.04 256.957C284.23 257.178 285.138 258.488 285.272 258.694L285.327 258.773C287.009 261.244 288.644 263.873 290.12 266.455C287.522 263.376 283.93 259.523 281.206 256.901C276.777 252.622 268.573 247.648 264.744 254.272C261.933 259.175 266.189 262.894 269.702 265.199C274.139 268.121 278.277 267.829 283.843 267.845C285.083 267.845 289.433 267.552 291.099 268.271C291.225 268.318 291.391 268.674 291.431 268.784C291.456 268.88 291.456 268.98 291.431 269.076C291.478 269.042 291.522 269.005 291.565 268.966C294.232 273.859 296.548 278.936 298.497 284.157C298.647 284.552 298.789 284.986 298.916 285.381C295.434 282.372 291.66 279.23 288.004 276.545C283.338 273.111 274.582 269.866 271.818 276.766C269.757 281.867 273.942 284.915 277.598 286.589C282.224 288.697 286.283 287.686 291.573 286.683C292.852 286.439 297.139 284.994 298.955 285.641C298.995 285.641 299.05 285.696 299.026 285.76C298.993 285.836 298.951 285.907 298.9 285.973C298.968 285.966 299.034 285.95 299.097 285.925C299.753 288.839 300.858 291.657 301.166 294.666C301.474 297.674 300.984 300.824 300.984 303.872C298.95 300.754 296.507 297.923 293.72 295.455C289.559 291.752 281.395 287.56 277.353 293.268C274.376 297.484 277.574 301.069 280.819 303.138C284.925 305.751 289.007 305.104 294.099 304.78C295.236 304.701 299.326 303.99 300.874 304.535C300.795 309.154 300.392 313.773 300.408 318.416C297.637 315.62 295.781 313.394 292.291 311.128C287.838 308.238 280.101 307.117 276.903 312.794C274.534 316.986 277.361 320.121 280.803 321.479C285.154 323.192 288.699 321.7 293.436 320.271C294.581 319.931 298.639 318.187 300.313 318.692C300.432 324.092 300.511 329.264 302.421 334.309C302.358 334.309 302.279 334.309 302.24 334.309C302.2 334.309 302.358 334.309 302.405 334.309C302.453 334.309 302.761 334.672 302.524 334.57C299.002 332.991 296.689 330.717 292.868 328.759C288.265 326.39 280.764 326.39 278.292 332.541C276.469 337.065 280.393 339.694 283.985 340.341C288.525 341.131 291.589 339.473 296.042 337.278C297.163 336.717 300.787 334.443 302.524 334.688Z" fill="#004E9E"/>
<path d="M117.808 19.5117L125.624 27.3283" stroke="#004E9E" stroke-linecap="round" stroke-linejoin="round"/>
<path d="M125.624 19.5117L117.808 27.3283" stroke="#004E9E" stroke-linecap="round" stroke-linejoin="round"/>
<path d="M271.771 192.422L279.588 200.238" stroke="#004E9E" stroke-linecap="round" stroke-linejoin="round"/>
<path d="M279.588 192.422L271.771 200.238" stroke="#004E9E" stroke-linecap="round" stroke-linejoin="round"/>
<path d="M344.41 48.7227L352.227 56.5392" stroke="#004E9E" stroke-linecap="round" stroke-linejoin="round"/>
<path d="M352.227 48.7227L344.41 56.5392" stroke="#004E9E" stroke-linecap="round" stroke-linejoin="round"/>
<path d="M239.399 8.45703L247.216 16.2736" stroke="#004E9E" stroke-linecap="round" stroke-linejoin="round"/>
<path d="M247.216 8.45703L239.399 16.2736" stroke="#004E9E" stroke-linecap="round" stroke-linejoin="round"/>
<path d="M14.376 212.953L22.1926 220.77" stroke="#004E9E" stroke-linecap="round" stroke-linejoin="round"/>
<path d="M22.1926 212.953L14.376 220.77" stroke="#004E9E" stroke-linecap="round" stroke-linejoin="round"/>
<path d="M159.654 279.273L167.471 287.09" stroke="#004E9E" stroke-linecap="round" stroke-linejoin="round"/>
<path d="M167.471 279.273L159.654 287.09" stroke="#004E9E" stroke-linecap="round" stroke-linejoin="round"/>
<path d="M143.034 28.9474C147.395 28.9474 150.93 25.4124 150.93 21.0518C150.93 16.6912 147.395 13.1562 143.034 13.1562C138.673 13.1562 135.138 16.6912 135.138 21.0518C135.138 25.4124 138.673 28.9474 143.034 28.9474Z" stroke="#004E9E" stroke-linecap="round" stroke-linejoin="round"/>
<path d="M127.243 52.6328C128.987 52.6328 130.401 51.2189 130.401 49.4746C130.401 47.7304 128.987 46.3164 127.243 46.3164C125.499 46.3164 124.085 47.7304 124.085 49.4746C124.085 51.2189 125.499 52.6328 127.243 52.6328Z" stroke="#004E9E" stroke-linecap="round" stroke-linejoin="round"/>
<path d="M112.241 255.55C115.294 255.55 117.768 253.075 117.768 250.023C117.768 246.971 115.294 244.496 112.241 244.496C109.189 244.496 106.715 246.971 106.715 250.023C106.715 253.075 109.189 255.55 112.241 255.55Z" stroke="#004E9E" stroke-linecap="round" stroke-linejoin="round"/>
<path d="M362.925 198.7C364.887 198.7 366.478 197.109 366.478 195.147C366.478 193.184 364.887 191.594 362.925 191.594C360.963 191.594 359.372 193.184 359.372 195.147C359.372 197.109 360.963 198.7 362.925 198.7Z" stroke="#004E9E" stroke-linecap="round" stroke-linejoin="round"/>
<path d="M264.626 162.379C266.37 162.379 267.784 160.965 267.784 159.221C267.784 157.476 266.37 156.062 264.626 156.062C262.881 156.062 261.467 157.476 261.467 159.221C261.467 160.965 262.881 162.379 264.626 162.379Z" stroke="#004E9E" stroke-linecap="round" stroke-linejoin="round"/>
<path d="M127.638 175.801C129.6 175.801 131.191 174.211 131.191 172.248C131.191 170.286 129.6 168.695 127.638 168.695C125.675 168.695 124.085 170.286 124.085 172.248C124.085 174.211 125.675 175.801 127.638 175.801Z" stroke="#004E9E" stroke-linecap="round" stroke-linejoin="round"/>
<path d="M99.2453 68.7227C99.2453 68.7227 106.138 73.6732 105.925 80.3607C105.712 87.0482 101.614 88.7616 102.261 91.7777C102.909 94.7938 106.351 99.3258 103.983 101.473C101.614 103.621 96.0081 101.908 94.7212 103.416C93.4342 104.924 93.8527 108.587 89.7628 109.448C85.6729 110.309 82.8621 109.669 79.846 105.358C76.8299 101.047 75.1086 86.8193 82.0014 77.5578C84.0043 74.8598 86.6016 72.6595 89.592 71.1273C92.5825 69.5951 95.8856 68.7723 99.2453 68.7227Z" fill="#004E9E" stroke="#004E9E" stroke-linecap="round" stroke-linejoin="round"/>
<path d="M102.427 82.5156C102.609 84.3079 102.474 86.0528 101.551 86.9766C99.1819 89.3453 97.816 91.2402 100.216 93.6484C102.616 96.0565 106.351 99.7832 103.153 100.849" stroke="#878787" stroke-linecap="round" stroke-linejoin="round"/>
<path d="M101.014 76.5703C101.354 77.5256 101.644 78.4981 101.882 79.4838" stroke="#878787" stroke-linecap="round" stroke-linejoin="round"/>
<path d="M75.732 322.132C76.0844 324.893 76.5932 327.632 77.2559 330.336C78.5568 334.305 80.1237 338.183 81.9458 341.942C83.2407 344.406 87.1016 346.632 87.3385 347.335C87.5754 348.038 86.5489 348.503 84.9698 348.622C83.3907 348.74 73.2528 348.622 73.2528 348.622C72.6381 347.839 72.2331 346.912 72.0764 345.929C71.6087 343.859 70.9012 341.851 69.9683 339.945C69.3653 338.861 68.6678 337.834 67.8839 336.873V348.598H66.36C66.36 348.598 65.302 337.813 65.1836 337.229C65.0652 336.644 63.7782 334.765 63.8966 331.954C64.015 329.143 65.0651 327.849 65.7679 327.383C66.2918 326.961 66.7311 326.444 67.0627 325.859L67.1733 321.051L75.8584 320.703L75.732 322.132Z" fill="#FFBDA7" stroke="#004E9E" stroke-linecap="round" stroke-linejoin="round"/>
<path d="M65.7679 327.399C65.0651 327.865 64.015 329.16 63.8966 331.971C63.7782 334.782 65.0652 336.661 65.1836 337.245C65.302 337.829 66.36 348.615 66.36 348.615H67.8839V336.874C68.6748 337.826 69.3803 338.846 69.992 339.922C70.9249 341.828 71.6324 343.836 72.1001 345.906C72.2568 346.889 72.6617 347.816 73.2765 348.599C73.2765 348.599 83.4697 348.717 84.9935 348.599C86.5174 348.48 87.5754 348.014 87.3622 347.312C87.1806 346.775 84.883 345.338 83.2328 343.601C82.8538 343.696 82.4433 343.798 82.088 343.909C79.7193 344.611 76.6953 343.561 75.8742 342.503C75.053 341.445 69.7788 334.529 68.1365 331.371C67.1635 329.703 66.7928 327.752 67.0864 325.844C66.7511 326.442 66.3034 326.97 65.7679 327.399Z" fill="#004E9E" stroke="#004E9E" stroke-linecap="round" stroke-linejoin="round"/>
<path d="M53.6564 322.132C54.0088 324.893 54.5176 327.632 55.1803 330.335C56.4751 334.306 58.0395 338.184 59.8623 341.942C61.1572 344.405 65.026 346.632 65.255 347.334C65.484 348.037 64.4654 348.503 62.8863 348.621C61.3072 348.74 51.1693 348.621 51.1693 348.621C50.5587 347.836 50.1543 346.911 49.9929 345.929C49.5252 343.859 48.8177 341.85 47.8848 339.944C47.2818 338.861 46.5843 337.833 45.8004 336.873V348.598H44.2765C44.2765 348.598 43.2185 337.812 43.1001 337.228C42.9816 336.644 41.6947 334.765 41.8131 331.954C41.9315 329.143 42.9816 327.848 43.6922 327.382C44.2147 326.961 44.6515 326.444 44.9792 325.859L45.1292 321.082L53.8143 320.734L53.6564 322.132Z" fill="#FFBDA7" stroke="#004E9E" stroke-linecap="round" stroke-linejoin="round"/>
<path d="M43.6922 327.399C42.9816 327.865 41.9315 329.16 41.8131 331.971C41.6947 334.782 42.9816 336.661 43.1001 337.245C43.2185 337.829 44.2765 348.615 44.2765 348.615H45.8004V336.874C46.5913 337.826 47.2968 338.846 47.9085 339.922C48.8414 341.828 49.5489 343.836 50.0166 345.906C50.178 346.888 50.5824 347.813 51.193 348.599C51.193 348.599 61.3862 348.717 62.91 348.599C64.4339 348.48 65.4919 348.014 65.2787 347.312C65.105 346.775 62.7995 345.338 61.1493 343.601L60.0045 343.909C57.6358 344.611 54.6118 343.561 53.7907 342.503C52.9695 341.445 47.6953 334.529 46.053 331.371C45.0849 329.701 44.7145 327.752 45.0029 325.844C44.6716 326.443 44.2263 326.971 43.6922 327.399Z" fill="#004E9E" stroke="#004E9E" stroke-linecap="round" stroke-linejoin="round"/>
<path d="M36.9729 218.621C36.9729 218.621 41.1812 248.624 40.9207 260.207C40.6601 271.79 36.6887 284.596 37.2335 297.316C37.6103 305.345 38.4884 313.343 39.8627 321.263C39.8627 321.263 39.6021 322.842 45.3896 323.103C48.9487 323.251 52.5078 322.808 55.9222 321.792C55.9222 321.792 56.7118 290.731 59.341 276.259C61.9702 261.786 65.6574 241.258 65.6574 234.941V222.569L36.9729 218.621Z" fill="#004E9E" stroke="#004E9E" stroke-linecap="round" stroke-linejoin="round"/>
<path d="M67.4974 223.357C67.4974 223.357 64.3392 261.516 63.8181 273.099C63.297 284.682 63.0285 302.052 63.2891 305.471C63.5496 308.89 64.6076 322.312 64.6076 322.312C66.7201 323.472 69.0465 324.189 71.4452 324.42C75.1324 324.681 79.6092 322.581 79.6092 322.581C79.6092 322.581 83.2885 275.207 83.8175 270.731C84.3465 266.254 85.1361 262.574 85.1361 262.574C85.1361 262.574 94.8002 229.634 94.8002 220.223L67.4974 223.357Z" fill="#004E9E" stroke="#004E9E" stroke-linecap="round" stroke-linejoin="round"/>
<path d="M59.5859 97.809C59.5859 97.809 42.7763 104.915 42.1368 107.726C41.4972 110.537 44.9318 156.212 44.9318 156.212C44.9318 156.212 44.9318 167.637 43.858 171.514C42.7842 175.391 36.752 183.799 34.5886 191.774C32.4252 199.748 31.5725 220.016 31.5725 220.016C31.5725 220.016 44.2922 225.401 53.1274 226.262C61.9625 227.122 64.118 227.122 64.118 227.122V228.417C70.4418 228.641 76.7735 228.424 83.0673 227.77C92.763 226.696 104.18 220.877 104.18 220.877C104.18 220.877 102.032 191.782 100.516 183.381C99.0005 174.98 94.2711 164.432 93.6237 161.179C92.9762 157.926 95.0922 133.228 95.0922 133.228L111.389 141.274C111.389 141.274 120.563 145.016 124.022 140.058C127.48 135.1 125.095 131.657 121.432 129.067C117.768 126.478 103.327 115.921 97.9425 111.184C92.5578 106.447 83.9358 104.283 80.9197 103.857C77.9036 103.431 74.3664 95.1719 74.3664 95.1719C74.3664 95.1719 62.6099 98.0301 59.5859 97.809Z" fill="#004E9E" stroke="#004E9E" stroke-linecap="round" stroke-linejoin="round"/>
<path d="M62.2861 134.57L67.7656 139.402" stroke="#004E9E" stroke-linecap="round" stroke-linejoin="round"/>
<path d="M54.8643 102.816L52.2351 119.666L60.9202 122.824L54.3432 127.561L60.8965 133.341" stroke="#004E9E" stroke-linecap="round" stroke-linejoin="round"/>
<path d="M63.873 221.496L64.0783 224.41" stroke="#004E9E" stroke-linecap="round" stroke-linejoin="round"/>
<path d="M71.8711 129.062L61.449 155.718L60.6594 176.515L63.6676 218.63" stroke="#004E9E" stroke-linecap="round" stroke-linejoin="round"/>
<path d="M65.397 174.664C65.397 174.299 65.2887 173.941 65.0857 173.638C64.8826 173.334 64.5941 173.097 64.2565 172.957C63.9189 172.817 63.5474 172.781 63.189 172.852C62.8306 172.923 62.5014 173.099 62.243 173.358C61.9847 173.616 61.8087 173.945 61.7374 174.304C61.6661 174.662 61.7027 175.033 61.8425 175.371C61.9824 175.709 62.2192 175.997 62.523 176.2C62.8268 176.403 63.1841 176.512 63.5495 176.512C64.0395 176.512 64.5094 176.317 64.8559 175.97C65.2024 175.624 65.397 175.154 65.397 174.664Z" fill="#004E9E" stroke="#004E9E" stroke-linecap="round" stroke-linejoin="round"/>
<path d="M80.3985 173.617C80.4 173.251 80.293 172.893 80.0909 172.589C79.8889 172.284 79.6009 172.046 79.2634 171.905C78.926 171.764 78.5542 171.726 78.1953 171.796C77.8364 171.867 77.5065 172.042 77.2473 172.3C76.9881 172.558 76.8114 172.887 76.7395 173.246C76.6675 173.605 76.7036 173.976 76.8432 174.314C76.9829 174.653 77.2196 174.942 77.5236 175.145C77.8276 175.348 78.1852 175.457 78.5509 175.457C78.7932 175.458 79.0332 175.411 79.2573 175.319C79.4815 175.227 79.6852 175.092 79.8569 174.921C80.0285 174.75 80.1647 174.547 80.2577 174.323C80.3506 174.099 80.3985 173.859 80.3985 173.617Z" fill="#004E9E" stroke="#004E9E" stroke-linecap="round" stroke-linejoin="round"/>
<path d="M79.0801 157.824C79.0817 157.458 78.9744 157.1 78.772 156.795C78.5696 156.49 78.2812 156.252 77.9432 156.111C77.6053 155.97 77.2332 155.933 76.8741 156.004C76.5149 156.075 76.185 156.251 75.9261 156.51C75.6673 156.769 75.4912 157.099 75.4201 157.458C75.3491 157.817 75.3863 158.189 75.5272 158.527C75.668 158.865 75.906 159.153 76.211 159.356C76.5161 159.558 76.8744 159.665 77.2404 159.664C77.482 159.664 77.7213 159.616 77.9445 159.524C78.1677 159.431 78.3705 159.296 78.5413 159.125C78.7121 158.954 78.8476 158.751 78.9401 158.528C79.0325 158.305 79.0801 158.066 79.0801 157.824Z" fill="#004E9E" stroke="#004E9E" stroke-linecap="round" stroke-linejoin="round"/>
<path d="M66.7077 156.773C66.7077 156.409 66.5998 156.054 66.3976 155.751C66.1955 155.449 65.9082 155.213 65.572 155.074C65.2358 154.934 64.8659 154.898 64.5091 154.969C64.1522 155.04 63.8244 155.215 63.5671 155.472C63.3099 155.73 63.1347 156.057 63.0637 156.414C62.9927 156.771 63.0291 157.141 63.1684 157.477C63.3076 157.813 63.5434 158.101 63.8459 158.303C64.1485 158.505 64.5041 158.613 64.868 158.613C65.3559 158.613 65.8238 158.419 66.1688 158.074C66.5138 157.729 66.7077 157.261 66.7077 156.773Z" fill="white" stroke="#004E9E" stroke-linecap="round" stroke-linejoin="round"/>
<path d="M88.1599 112.126L85.3965 105.715" stroke="#004E9E" stroke-linecap="round" stroke-linejoin="round"/>
<path d="M65.9182 153.349L88.8153 124.665L81.7093 121.506L90.3944 117.298L88.9022 113.84" stroke="#004E9E" stroke-linecap="round" stroke-linejoin="round"/>
<path d="M95.1082 133.223L94.3423 123.875" stroke="#004E9E" stroke-linecap="round" stroke-linejoin="round"/>
<path d="M59.5857 97.8101C59.5857 97.8101 61.7412 108.161 64.1177 114.391C66.4943 120.62 71.8712 129.045 71.8712 129.045L80.9274 103.834C80.9274 103.834 70.7974 96.5073 66.7154 94.9993C62.6334 93.4912 59.5857 97.8101 59.5857 97.8101Z" fill="#FFBDA7" stroke="#004E9E" stroke-linecap="round" stroke-linejoin="round"/>
<path d="M64.1178 114.408C66.4865 120.661 71.8713 129.062 71.8713 129.062L77.6429 112.979C76.6009 113.224 75.5467 113.414 74.4847 113.548C70.4436 114.03 66.361 113.086 62.9414 110.879C63.2888 112.126 63.7073 113.334 64.1178 114.408Z" stroke="#004E9E" stroke-linecap="round" stroke-linejoin="round"/>
<path d="M76.0639 105.273C75.2399 105.746 74.5862 106.467 74.1963 107.334C73.8064 108.2 73.7001 109.167 73.8926 110.098" stroke="#004E9E" stroke-linecap="round" stroke-linejoin="round"/>
<path d="M96.4503 73.6731C96.4503 73.6731 92.8499 78.6237 98.0294 86.764C100.106 90.0406 95.4002 90.2696 94.9738 92.6383C94.5475 95.0069 93.679 96.7361 91.3103 99.539C88.9416 102.342 85.4913 105.571 83.549 106.645C82.4781 107.192 81.2668 107.401 80.0745 107.246C78.8822 107.091 77.7648 106.579 76.8693 105.776C74.927 104.055 72.132 99.9574 71.0503 98.4494C69.9686 96.9413 65.1918 92.4251 68.0263 86.8192C70.8608 81.2134 74.9191 77.7709 82.033 73.0336C89.1469 68.2963 96.4503 73.6731 96.4503 73.6731Z" fill="#FFBDA7" stroke="#004E9E" stroke-linecap="round" stroke-linejoin="round"/>
<path d="M96.0079 88.5469C94.9453 88.5697 93.9065 88.8661 92.9918 89.4075C91.6969 90.2681 91.0574 97.382 89.5415 99.3243C88.0255 101.267 85.8779 98.89 85.8779 98.89" stroke="#004E9E" stroke-linecap="round" stroke-linejoin="round"/>
<path d="M84.8042 101.696C84.0921 101.434 83.4396 101.032 82.885 100.514C82.3304 99.9959 81.885 99.3723 81.575 98.6797" stroke="#004E9E" stroke-linecap="round" stroke-linejoin="round"/>
<path d="M86.5256 88.7623L84.8044 90.7046C84.8044 90.7046 81.6461 91.3362 81.0066 88.3359" stroke="#004E9E" stroke-linecap="round" stroke-linejoin="round"/>
<path d="M85.3492 91.7368C85.3492 91.7368 83.399 92.171 81.512 89.6523" stroke="#004E9E" stroke-linecap="round" stroke-linejoin="round"/>
<path d="M92.5024 92.9919C92.9743 93.2739 93.4779 93.4992 94.0026 93.663L95.0053 91.1602" stroke="#004E9E" stroke-linecap="round" stroke-linejoin="round"/>
<path d="M92.3601 93.6641L94.0261 94.3273" stroke="#004E9E" stroke-linecap="round" stroke-linejoin="round"/>
<path d="M84.1567 84.6641C85.1336 84.6915 86.095 84.9154 86.9835 85.3224C87.872 85.7293 88.6694 86.311 89.3283 87.0327" stroke="#004E9E" stroke-linecap="round" stroke-linejoin="round"/>
<path d="M47.5768 102.121C47.5768 102.121 39.6022 102.99 36.5861 104.924C33.57 106.858 26.0219 135.314 23.8743 140.272C21.7267 145.231 19.7765 156 20.6371 157.722C21.4977 159.443 27.7431 160.525 31.4146 160.09C35.086 159.656 37.2336 156.64 38.3074 153.19C39.3812 149.739 47.1425 130.135 47.1425 130.135" fill="#004E9E"/>
<path d="M47.5768 102.121C47.5768 102.121 39.6022 102.99 36.5861 104.924C33.57 106.858 26.0219 135.314 23.8743 140.272C21.7267 145.231 19.7765 156 20.6371 157.722C21.4977 159.443 27.7431 160.525 31.4146 160.09C35.086 159.656 37.2336 156.64 38.3074 153.19C39.3812 149.739 47.1425 130.135 47.1425 130.135" stroke="#004E9E" stroke-linecap="round" stroke-linejoin="round"/>
<path d="M95.542 137.406C95.9457 137.448 96.332 137.592 96.6638 137.826C96.9956 138.06 97.2618 138.374 97.4369 138.741C98.2265 140.083 98.108 144.212 98.108 144.212L102.056 143.288C102.357 142.081 102.308 140.813 101.914 139.633C101.243 137.848 100.761 137.683 100.761 137.683L95.542 137.406Z" fill="#004E9E" stroke="#004E9E" stroke-linecap="round" stroke-linejoin="round"/>
<path d="M85.0491 129.812C85.0491 129.812 92.7157 131.542 93.4341 132.181C94.1526 132.821 96.4897 136.674 96.4897 137.219C96.4897 137.763 95.4949 137.921 94.958 137.669C94.4211 137.416 92.7157 135.055 92.7157 135.055L88.1204 133.887C88.1204 133.887 85.207 131.139 85.0491 129.812Z" fill="#FFBDA7" stroke="#004E9E" stroke-linecap="round" stroke-linejoin="round"/>
<path d="M67.7814 147.165L70.8607 142.878C70.8607 142.878 74.4374 134.193 75.1085 133.719C75.7796 133.246 84.3779 129.582 85.049 129.811C85.7201 130.04 88.9968 134.833 89.0678 135.504C89.1389 136.175 89.2889 137.872 89.2889 137.872C89.2889 137.872 77.4456 147.347 76.4428 148.484C75.4401 149.621 72.3135 150.94 72.3135 150.94L67.734 155.179C66.7017 152.605 66.7187 149.728 67.7814 147.165Z" fill="#FFBDA7" stroke="#004E9E" stroke-linecap="round" stroke-linejoin="round"/>
<path d="M79.3484 133.16L84.4884 140.535" stroke="#004E9E" stroke-linecap="round" stroke-linejoin="round"/>
<path d="M77.1455 137.562L78.4088 139.631" stroke="#004E9E" stroke-miterlimit="1" stroke-linecap="round"/>
<path d="M83.2568 131.594L87.8363 138.518" stroke="#004E9E" stroke-linecap="round" stroke-linejoin="round"/>
<path d="M29.0458 151.478C29.0458 151.478 45.9739 150.239 51.7929 149.378C57.612 148.517 67.1656 147.38 67.1656 147.38C67.2306 149.557 67.4363 151.728 67.7814 153.878C68.0103 154.857 68.3715 155.8 68.8552 156.681C68.8552 156.681 47.5767 162.287 41.1102 164.443C34.6438 166.598 28.8248 168.967 23.6532 167.025C18.4816 165.082 19.129 158.624 19.5633 155.181C19.9975 151.739 22.0978 145.754 22.0978 145.754" fill="#004E9E"/>
<path d="M29.0458 151.478C29.0458 151.478 45.9739 150.239 51.7929 149.378C57.612 148.517 67.1656 147.38 67.1656 147.38C67.2306 149.557 67.4363 151.728 67.7814 153.878C68.0103 154.857 68.3715 155.8 68.8552 156.681C68.8552 156.681 47.5767 162.287 41.1102 164.443C34.6438 166.598 28.8248 168.967 23.6532 167.025C18.4816 165.082 19.129 158.624 19.5633 155.181C19.9975 151.739 22.0978 145.754 22.0978 145.754" stroke="#004E9E" stroke-linecap="round" stroke-linejoin="round"/>
<path d="M99.1977 75.3714C98.2287 76.3383 97.0415 77.0582 95.7361 77.4704C94.4308 77.8826 93.0455 77.9751 91.6969 77.7401C87.1728 76.8795 86.099 75.1582 84.5909 77.9533C83.0829 80.7483 81.5748 85.0593 79.4193 85.5014C77.2639 85.9436 74.4609 85.2803 73.3792 87.2226C72.2975 89.1649 74.6741 99.7213 71.658 101.229C68.6419 102.737 61.1017 99.5081 59.8147 101.877C58.5277 104.245 59.8147 108.777 55.7169 110.499C51.6191 112.22 42.5708 110.499 39.5547 107.696C36.5386 104.893 38.4809 98.6475 38.6941 96.9184C38.9073 95.1893 35.678 93.0417 36.9728 88.3043C38.2677 83.567 43.2182 83.567 43.2182 80.3298C43.2182 77.0927 41.9234 73.2238 44.5131 70.6262C47.1028 68.0286 49.4715 68.905 51.8402 67.6101C54.2088 66.3152 56.3564 63.1175 59.3409 57.5117C62.3255 51.9058 76.6164 48.8897 84.3777 50.8241C92.1391 52.7586 100.279 61.3252 102.001 64.9888C103.722 68.6523 102.214 74.7398 99.1977 75.3714Z" fill="#004E9E" stroke="#004E9E" stroke-linecap="round" stroke-linejoin="round"/>
<path d="M83.3515 70.4609C81.8198 70.832 80.5012 71.5347 80.1933 72.8296C79.4037 76.2958 74.3269 82.699 72.4556 82.9675C70.5844 83.2359 63.6521 83.4965 62.8546 85.6362C62.0572 87.7759 61.5203 94.4397 59.3806 94.9766C57.2409 95.5135 50.056 93.9107 46.8504 97.6374C43.6448 101.364 47.1188 107.775 49.5191 108.304C51.9193 108.833 54.8564 106.173 54.8564 104.041C54.8564 101.909 49.5191 101.104 49.5191 103.251" stroke="#878787" stroke-linecap="round" stroke-linejoin="round"/>
<path d="M89.0127 70.1686C88.225 70.1019 87.4344 70.0755 86.644 70.0896" stroke="#878787" stroke-linecap="round" stroke-linejoin="round"/>
<path d="M40.4865 91.0664C40.1473 91.2215 39.8576 91.4675 39.6495 91.777L38.3152 93.9088" stroke="#878787" stroke-linecap="round" stroke-linejoin="round"/>
<path d="M65.1127 71.4609C59.9569 74.027 48.611 73.4269 47.3872 77.0984C46.0528 81.1014 50.5454 89.6444 49.2505 90.1734C48.3267 90.5445 44.6948 90.1734 42.1445 90.584" stroke="#878787" stroke-linecap="round" stroke-linejoin="round"/>
<path d="M91.7129 62.1611C91.7129 62.1611 82.3725 57.3527 75.1323 58.6871C68.8158 59.8556 70.087 65.5168 67.6394 69.2435" stroke="#878787" stroke-linecap="round" stroke-linejoin="round"/>
<path d="M81.804 62.9609C81.804 62.9609 89.2731 62.9609 92.7472 65.1006C96.2212 67.2403 98.882 69.9011 98.882 71.2355" stroke="#878787" stroke-linecap="round" stroke-linejoin="round"/>
<path d="M83.4779 146.588C83.4779 146.588 87.4257 146.699 89.1785 146.699C90.9313 146.699 94.2 144.243 93.6474 141.898C92.5845 141.351 91.4572 140.94 90.2917 140.674C88.6179 140.335 79.3485 144.022 79.7986 145.585C80.2486 147.149 83.4779 146.588 83.4779 146.588Z" fill="white" stroke="#004E9E" stroke-linecap="round" stroke-linejoin="round"/>
<path d="M100.753 137.682C100.753 137.682 94.721 137.248 92.7787 137.248C90.8364 137.248 87.1729 135.961 85.6727 135.961C84.1726 135.961 78.1325 139.838 76.8376 140.272C75.5427 140.706 74.6821 146.73 74.6821 147.599C74.6821 148.467 75.3296 151.041 76.1902 151.263C77.0508 151.484 77.2719 150.828 77.0508 149.968C76.8297 149.107 77.9193 146.517 77.9193 146.517L80.288 144.796C80.288 144.796 87.394 144.575 88.4757 144.575C89.5574 144.575 91.7049 145.222 94.2947 145.444C96.8844 145.665 99.032 143.501 99.032 143.501L102.056 143.288C102.056 143.288 102.474 141.346 100.753 137.682Z" fill="#FFBDA7" stroke="#004E9E" stroke-linecap="round" stroke-linejoin="round"/>
<path d="M81.1329 138.629C81.1329 138.629 77.6747 141.866 77.5641 142.648C77.4536 143.429 76.3324 150.243 76.6719 150.914C77.0114 151.586 77.6747 152.588 78.3458 152.257C79.0169 151.925 79.0169 149.572 79.0169 148.79C79.0169 148.009 80.0907 145.372 80.2802 144.795C80.4697 144.219 83.1463 141.313 83.1463 141.313L85.0491 139.411" fill="#FFBDA7"/>
<path d="M81.1329 138.629C81.1329 138.629 77.6747 141.866 77.5641 142.648C77.4536 143.429 76.3324 150.243 76.6719 150.914C77.0114 151.586 77.6747 152.588 78.3458 152.257C79.0169 151.925 79.0169 149.572 79.0169 148.79C79.0169 148.009 80.0907 145.372 80.2802 144.795C80.4697 144.219 83.1463 141.313 83.1463 141.313L85.0491 139.411" stroke="#004E9E" stroke-linecap="round" stroke-linejoin="round"/>
<path d="M83.391 138.188C83.391 138.188 79.6564 141.717 79.5379 142.562C79.4195 143.406 78.2115 150.836 78.5747 151.57C78.9379 152.305 79.6564 153.394 80.3827 153.031C81.1091 152.668 81.1012 150.11 81.1012 149.257C81.1012 148.404 82.2619 145.53 82.4672 144.899C82.6725 144.267 85.5622 141.101 85.5622 141.101L87.6151 139.032" fill="#FFBDA7"/>
<path d="M83.391 138.188C83.391 138.188 79.6564 141.717 79.5379 142.562C79.4195 143.406 78.2115 150.836 78.5747 151.57C78.9379 152.305 79.6564 153.394 80.3827 153.031C81.1091 152.668 81.1012 150.11 81.1012 149.257C81.1012 148.404 82.2619 145.53 82.4672 144.899C82.6725 144.267 85.5622 141.101 85.5622 141.101L87.6151 139.032" stroke="#004E9E" stroke-linecap="round" stroke-linejoin="round"/>
<path d="M90.3074 144.687C89.9686 144.655 89.6276 144.655 89.2888 144.687C87.9047 144.931 86.5552 145.342 85.27 145.911C85.27 145.911 82.8145 151.161 82.3644 151.272C81.9144 151.382 81.0222 150.94 81.3617 150.269C81.7012 149.598 83.0277 143.321 83.8172 142.642C85.2494 141.749 86.7428 140.957 88.2861 140.273" fill="#FFBDA7"/>
<path d="M90.3074 144.687C89.9686 144.655 89.6276 144.655 89.2888 144.687C87.9047 144.931 86.5552 145.342 85.27 145.911C85.27 145.911 82.8145 151.161 82.3644 151.272C81.9144 151.382 81.0222 150.94 81.3617 150.269C81.7012 149.598 83.0277 143.321 83.8172 142.642C85.2494 141.749 86.7428 140.957 88.2861 140.273" stroke="#004E9E" stroke-linecap="round" stroke-linejoin="round"/>
<path d="M121.226 132.512L100.532 136.823C100.532 136.823 100.532 144.576 100.106 146.519L99.6716 148.461C99.6716 148.461 113.039 148.461 117.129 148.027C121.219 147.592 127.046 147.379 128.767 143.716C130.488 140.052 127.693 134.241 126.185 132.725C125.581 132.021 124.85 131.436 124.029 131.004" fill="#004E9E"/>
<path d="M121.226 132.512L100.532 136.823C100.532 136.823 100.532 144.576 100.106 146.519L99.6716 148.461C99.6716 148.461 113.039 148.461 117.129 148.027C121.219 147.592 127.046 147.379 128.767 143.716C130.488 140.052 127.693 134.241 126.185 132.725C125.581 132.021 124.85 131.436 124.029 131.004" stroke="#004E9E" stroke-linecap="round" stroke-linejoin="round"/>
<path d="M94.429 137.406L96.8845 139.522L102.356 139.191L102.246 138.298L99.0084 135.93L94.5395 136.151C94.5395 136.151 94.0816 137.177 94.429 137.406Z" fill="#004E9E" stroke="#004E9E" stroke-linecap="round" stroke-linejoin="round"/>
<path d="M252.94 91.3221H253.027C253.027 91.3221 249.719 83.4265 243.308 79.2182C236.896 75.0098 226.727 75.6889 226.727 75.6889C226.727 75.6889 170.882 77.4496 161.612 78.5549C152.343 79.6603 147.921 84.0818 147.921 84.0818L144.432 91.3221H159.267C157.822 93.8919 157.064 96.7905 157.064 99.7387V218.44C157.064 220.892 157.565 223.317 158.537 225.567C159.51 227.817 160.932 229.844 162.718 231.523L142.884 230.852C142.884 230.852 149.508 238.132 155.027 239.901C160.546 241.669 170.921 241.882 170.921 241.882L235.815 244.093C235.815 244.093 239.565 243.651 241.776 241.669C243.15 240.207 244.304 238.553 245.202 236.758C247.918 235.16 250.17 232.882 251.738 230.149C253.307 227.417 254.137 224.323 254.148 221.172L254.535 98.5386C254.547 96.0443 254.003 93.5788 252.94 91.3221Z" fill="#878787" stroke="#004E9E" stroke-linecap="round" stroke-linejoin="round"/>
<path d="M355.424 83.1884C354.098 77.0062 329.598 47.6584 312.386 37.4969C295.173 27.3353 288.099 25.3614 256.098 26.68C224.098 27.9985 195.839 40.5919 183.917 54.9381C176.511 63.782 168.145 71.7765 158.975 78.7748C158.975 78.7748 229.388 76.1219 231.614 76.1219C233.841 76.1219 237.567 78.7748 240.662 83.6306C243.758 88.4863 247.287 92.2367 250.374 91.3524C252.087 90.8629 252.119 89.4101 251.811 88.1942C251.538 87.2495 251.039 86.3852 250.358 85.6755C242.297 76.9904 242.865 70.8082 242.865 70.8082C244.444 62.1942 251.7 55.3566 251.7 55.3566C265.383 64.1838 273.105 78.5301 273.105 78.5301C273.105 78.5301 272.442 84.9333 271.124 93.9816C269.805 103.03 270.018 111.194 272.663 115.394C275.308 119.595 281.719 128.193 285.249 142.76C288.778 157.328 287.673 171.453 287.673 183.596C287.673 195.74 290.768 203.904 290.768 203.904C290.768 203.904 288.999 216.923 279.951 239.22C270.902 261.517 256.114 272.769 256.114 272.769C245.518 264.162 241.989 250.479 241.989 245.845C241.989 241.21 246.845 236.575 249.048 233.922C251.25 231.27 252.995 228.182 249.49 228.396C245.984 228.609 242.644 235.683 239.557 239.655C238.682 240.802 237.544 241.722 236.238 242.336C234.932 242.95 233.498 243.241 232.056 243.184L159.875 240.981C162.987 242.871 165.822 245.182 168.3 247.85C172.713 252.485 180.222 264.849 191.481 273.677C202.74 282.504 212.444 290.012 232.309 293.542C252.174 297.071 273.366 297.49 288.154 294.647C301.265 292.074 313.235 285.445 322.374 275.698C329.874 267.526 339.807 251.419 346.21 230.006C352.614 208.593 353.711 195.353 355.037 174.824C356.364 154.296 350.845 116.989 350.845 116.989C350.845 116.989 354.595 105.738 355.922 98.6716C357.248 91.6051 356.774 89.3706 355.424 83.1884ZM344.142 100.851L338.717 103.433C338.717 103.433 290.704 109.378 286.054 107.309C281.404 105.241 283.212 98.5295 283.212 98.5295L339.752 85.6203C339.752 85.6203 345.436 87.1994 345.95 92.0788C346.229 95.1146 345.609 98.1655 344.165 100.851H344.142Z" fill="white" stroke="#004E9E" stroke-linecap="round" stroke-linejoin="round"/>
<path d="M340.762 213.598C342.697 205.197 343.92 198.699 343.92 198.699" stroke="#004E9E" stroke-linecap="round" stroke-linejoin="round"/>
<path d="M264.768 279.416C272.151 283.764 280.607 285.952 289.173 285.733C310.088 285.22 326.866 256.306 332.804 241.328C335.472 234.609 337.983 225.34 339.91 217.168" stroke="#004E9E" stroke-linecap="round" stroke-linejoin="round"/>
<path d="M257.63 274.262C259.028 275.506 260.505 276.658 262.051 277.712" stroke="#004E9E" stroke-linecap="round" stroke-linejoin="round"/>
<path d="M316.602 115.22C325.753 114.747 333.182 114.257 333.182 114.257C333.182 114.257 339.744 112.946 343.02 107.048C346.297 101.15 348.271 94.2576 346.629 86.7174C344.986 79.1771 324 60.4805 324 60.4805H279.43L277.464 85.4067C277.464 85.4067 274.511 94.8814 274.187 100.811C273.863 106.741 276.485 114.912 284.68 115.899C287.317 116.215 293.27 116.16 300.14 115.939M306.227 115.71L312.844 115.41L306.227 115.71ZM344.165 100.85L338.741 103.432C338.741 103.432 290.728 109.378 286.078 107.309C281.427 105.24 283.235 98.5291 283.235 98.5291L339.775 85.6199C339.775 85.6199 345.46 87.199 345.973 92.0785C346.246 95.1166 345.617 98.1676 344.165 100.85Z" fill="white"/>
<path d="M316.602 115.22C325.753 114.747 333.182 114.257 333.182 114.257C333.182 114.257 339.744 112.946 343.02 107.048C346.297 101.15 348.271 94.2576 346.629 86.7174C344.986 79.1771 324 60.4805 324 60.4805H279.43L277.464 85.4067C277.464 85.4067 274.511 94.8814 274.187 100.811C273.863 106.741 276.485 114.912 284.68 115.899C287.317 116.215 293.27 116.16 300.14 115.939M306.227 115.71L312.844 115.41M344.165 100.85L338.741 103.432C338.741 103.432 290.728 109.378 286.078 107.309C281.427 105.24 283.235 98.5291 283.235 98.5291L339.775 85.6199C339.775 85.6199 345.46 87.199 345.973 92.0785C346.246 95.1166 345.617 98.1676 344.165 100.85Z" stroke="#004E9E" stroke-linecap="round" stroke-linejoin="round"/>
<path d="M251.677 163.754H246.655C245.055 163.754 243.757 165.051 243.757 166.652V204.558C243.757 206.158 245.055 207.456 246.655 207.456H251.677C253.277 207.456 254.574 206.158 254.574 204.558V166.652C254.574 165.051 253.277 163.754 251.677 163.754Z" fill="#B8B8B8" stroke="#004E9E" stroke-linecap="round" stroke-linejoin="round"/>
<path d="M250.603 163.961C249.472 164.262 248.471 164.928 247.757 165.856C247.043 166.784 246.656 167.922 246.655 169.093V202.144C246.657 203.314 247.045 204.452 247.759 205.379C248.473 206.307 249.472 206.974 250.603 207.276C251.734 206.974 252.734 206.307 253.447 205.379C254.161 204.452 254.549 203.314 254.551 202.144V169.085C254.548 167.916 254.16 166.78 253.446 165.853C252.733 164.927 251.733 164.262 250.603 163.961Z" fill="#B8B8B8" stroke="#004E9E" stroke-linecap="round" stroke-linejoin="round"/>
<path d="M243.536 128.66C243.536 120.251 248.132 113.43 253.801 113.43H248.724C243.055 113.43 238.459 120.251 238.459 128.66C238.459 137.069 243.055 143.891 248.724 143.891H253.801C248.132 143.891 243.536 137.069 243.536 128.66Z" fill="#B8B8B8" stroke="#004E9E" stroke-linecap="round" stroke-linejoin="round"/>
<path d="M253.801 143.891C259.47 143.891 264.065 137.072 264.065 128.66C264.065 120.249 259.47 113.43 253.801 113.43C248.132 113.43 243.537 120.249 243.537 128.66C243.537 137.072 248.132 143.891 253.801 143.891Z" fill="#B8B8B8" stroke="#004E9E" stroke-linecap="round" stroke-linejoin="round"/>
<path d="M255.364 140.22C259.197 140.22 262.304 135.045 262.304 128.661C262.304 122.277 259.197 117.102 255.364 117.102C251.531 117.102 248.424 122.277 248.424 128.661C248.424 135.045 251.531 140.22 255.364 140.22Z" fill="#878787" stroke="#004E9E" stroke-linecap="round" stroke-linejoin="round"/>
<path d="M251.708 55.3801C251.708 55.3801 260.259 43.0236 275.489 39.668C290.72 36.3123 301.829 38.8784 316.025 51.2823C330.221 63.6862 342.617 90.5311 342.617 90.5311C342.617 90.5311 345.199 98.0161 344.196 100.851C343.194 103.685 339.033 108.343 333.095 108.857C327.158 109.37 303.408 109.378 303.408 109.378C303.408 109.378 291.012 110.665 286.109 107.309C286.109 107.309 281.616 88.7783 273.144 78.5536C273.113 78.5536 261.467 61.0175 251.708 55.3801Z" fill="white" stroke="#004E9E" stroke-linecap="round" stroke-linejoin="round"/>
<path d="M307.049 58.498C305.933 57.6347 304.827 56.832 303.732 56.0898" stroke="#004E9E" stroke-linecap="round" stroke-linejoin="round"/>
<path d="M299.689 53.6046C289.717 48.0777 279.792 47.3671 266.915 49.8305C261.592 50.8804 256.463 52.7446 251.708 55.3574C261.483 60.9948 273.113 78.5309 273.113 78.5309C281.585 88.7951 286.077 107.286 286.077 107.286C290.98 110.642 303.376 109.347 303.376 109.347C303.376 109.347 327.126 109.347 333.064 108.834C333.965 108.755 334.855 108.575 335.717 108.297C335.726 105.729 335.429 103.168 334.832 100.67C334.832 100.67 324.75 73.8251 310.609 61.4291" stroke="#004E9E" stroke-linecap="round" stroke-linejoin="round"/>
<path d="M317.779 233.267C315.212 235.344 311.967 234.925 310.515 232.328C309.062 229.73 309.978 225.94 312.536 223.864C315.094 221.787 318.355 222.214 319.8 224.811C321.245 227.409 320.337 231.191 317.779 233.267Z" fill="white" stroke="#004E9E" stroke-linecap="round" stroke-linejoin="round"/>
<path d="M320.423 228.38C319.673 228.274 318.908 228.33 318.181 228.544C317.454 228.758 316.781 229.125 316.207 229.62C314.728 230.847 313.78 232.598 313.562 234.507C314.313 234.615 315.077 234.56 315.805 234.346C316.532 234.132 317.205 233.764 317.778 233.268C319.256 232.04 320.204 230.289 320.423 228.38Z" fill="white" stroke="#004E9E" stroke-linecap="round" stroke-linejoin="round"/>
<path d="M299.232 215.279C295.553 212.228 292.654 208.344 290.775 203.949" stroke="#004E9E" stroke-linecap="round" stroke-linejoin="round"/>
<path d="M350.813 116.957C349.417 125.2 348.662 133.539 348.555 141.899C348.555 154.295 351.65 169.265 346.976 188.633C342.302 208.001 331.485 214.965 325.026 218.06C320.976 220.01 312.164 222.007 303.866 218.146" stroke="#004E9E" stroke-linecap="round" stroke-linejoin="round"/>
<path d="M328.619 183.43C327.735 193.52 320.621 201.131 312.741 200.437C304.861 199.742 299.185 191.009 300.108 180.919C301.032 170.828 308.051 163.225 315.947 163.959C323.842 164.693 329.511 173.347 328.619 183.43Z" fill="#878787" stroke="#004E9E" stroke-linecap="round" stroke-linejoin="round"/>
<path d="M315.513 89.3148C318.008 91.865 318.292 95.6312 316.152 97.7235C314.012 99.8159 310.254 99.4448 307.759 96.934C305.264 94.4232 304.98 90.6175 307.12 88.5252C309.259 86.4329 313.018 86.7724 315.513 89.3148Z" fill="white" stroke="#004E9E" stroke-linecap="round" stroke-linejoin="round"/>
<path d="M310.356 87.1659C310.455 88.8904 311.186 90.5181 312.409 91.7374C313.071 92.4356 313.872 92.9879 314.76 93.359C315.648 93.7302 316.603 93.912 317.565 93.8929C317.465 92.1665 316.734 90.5369 315.512 89.3135C314.851 88.6152 314.05 88.0633 313.162 87.6934C312.274 87.3235 311.318 87.1438 310.356 87.1659Z" fill="white" stroke="#004E9E" stroke-linecap="round" stroke-linejoin="round"/>
<path d="M218.76 81.5767L155.414 82.5558C150.894 82.6242 146.583 84.4678 143.411 87.6884C140.24 90.9089 138.462 95.2479 138.462 99.7681V218.438C138.462 223.077 140.249 227.538 143.454 230.892C146.658 234.247 151.033 236.237 155.667 236.448L216.542 239.283C218.994 239.4 221.444 239.019 223.745 238.163C226.046 237.306 228.149 235.992 229.928 234.3C231.706 232.608 233.123 230.572 234.093 228.317C235.063 226.062 235.565 223.633 235.57 221.178L235.957 98.5443C235.965 96.2943 235.525 94.0651 234.661 91.9876C233.797 89.91 232.527 88.0259 230.925 86.4456C229.324 84.8652 227.423 83.6206 225.334 82.7845C223.245 81.9485 221.01 81.5378 218.76 81.5767Z" fill="#004E9E" stroke="#004E9E" stroke-linecap="round" stroke-linejoin="round"/>
<path d="M174.316 211.998C173.48 211.92 172.708 211.519 172.163 210.881C171.617 210.242 171.342 209.417 171.395 208.579C171.37 208.168 171.428 207.756 171.565 207.367C171.701 206.978 171.914 206.62 172.19 206.314C172.467 206.008 172.801 205.761 173.174 205.586C173.548 205.411 173.952 205.312 174.364 205.295C175.199 205.377 175.971 205.78 176.515 206.419C177.06 207.058 177.336 207.883 177.285 208.721C177.308 209.132 177.25 209.543 177.113 209.931C176.976 210.319 176.763 210.676 176.487 210.981C176.21 211.286 175.876 211.533 175.504 211.708C175.131 211.882 174.727 211.981 174.316 211.998ZM174.379 201.734C171.04 201.647 168.308 204.671 168.284 208.477C168.26 212.282 170.961 215.44 174.3 215.519C177.64 215.598 180.372 212.574 180.396 208.777C180.419 204.979 177.719 201.813 174.379 201.734ZM174.293 216.427C170.511 216.333 167.463 212.756 167.487 208.453C167.51 204.15 170.645 200.723 174.387 200.818C178.13 200.913 181.217 204.497 181.193 208.8C181.17 213.103 178.035 216.522 174.293 216.427ZM174.411 197.557C169.05 197.423 164.652 202.294 164.613 208.382C164.573 214.469 168.908 219.562 174.269 219.696C179.63 219.83 184.028 214.959 184.059 208.871C184.091 202.784 179.772 197.691 174.411 197.557ZM174.269 220.604C168.466 220.462 163.776 214.967 163.823 208.366C163.87 201.765 168.616 196.523 174.411 196.641C180.206 196.76 184.88 202.31 184.88 208.911C184.88 215.511 180.088 220.754 174.293 220.628M174.458 193.601C167.171 193.42 161.202 200.028 161.154 208.319C161.107 216.609 166.981 223.51 174.269 223.691C181.556 223.873 187.525 217.272 187.573 208.982C187.62 200.692 181.738 193.783 174.458 193.601Z" fill="white"/>
<path d="M174.245 223.692C166.958 223.511 161.075 216.586 161.131 208.32C161.186 200.053 167.147 193.421 174.435 193.602C181.722 193.784 187.604 200.708 187.549 208.983C187.494 217.257 181.533 223.874 174.245 223.692ZM174.435 193.152C166.934 192.963 160.783 199.761 160.728 208.312C160.673 216.863 166.721 223.969 174.245 224.15C181.77 224.332 187.897 217.534 187.952 208.991C188.007 200.448 181.935 193.334 174.435 193.176" fill="#004E9E"/>
<path d="M174.269 219.722C168.908 219.588 164.581 214.511 164.613 208.408C164.644 202.304 169.05 197.449 174.411 197.583C179.772 197.717 184.091 202.786 184.091 208.897C184.091 215.008 179.662 219.856 174.301 219.722M174.443 196.667C168.647 196.525 163.894 201.783 163.855 208.392C163.815 215 168.497 220.488 174.301 220.63C180.104 220.772 184.849 215.521 184.888 208.913C184.928 202.304 180.246 196.817 174.443 196.667Z" fill="#004E9E"/>
<path d="M174.3 215.543C170.961 215.464 168.26 212.298 168.284 208.5C168.308 204.703 171.039 201.671 174.379 201.758C177.719 201.845 180.419 204.995 180.396 208.8C180.372 212.606 177.632 215.63 174.3 215.543ZM174.387 200.842C170.613 200.747 167.51 204.174 167.486 208.477C167.463 212.78 170.51 216.372 174.292 216.451C178.074 216.53 181.162 213.119 181.193 208.824C181.225 204.529 178.161 200.929 174.387 200.842Z" fill="#004E9E"/>
<path d="M174.364 205.297C173.952 205.314 173.548 205.413 173.174 205.588C172.801 205.763 172.467 206.011 172.19 206.316C171.914 206.622 171.701 206.98 171.565 207.369C171.428 207.758 171.37 208.17 171.395 208.581C171.342 209.419 171.617 210.245 172.163 210.883C172.708 211.521 173.48 211.922 174.316 212C174.727 211.983 175.131 211.884 175.504 211.71C175.876 211.535 176.21 211.288 176.487 210.983C176.763 210.678 176.976 210.322 177.113 209.934C177.25 209.546 177.308 209.134 177.285 208.724C177.336 207.885 177.06 207.06 176.515 206.421C175.971 205.782 175.199 205.379 174.364 205.297Z" fill="#004E9E"/>
<path d="M179.085 162.574L179.124 155.673H179.914L179.875 162.574C180.238 162.714 180.549 162.965 180.764 163.29C180.979 163.615 181.088 164 181.075 164.39C181.075 164.633 181.03 164.874 180.94 165.1L192.452 171.961L192.357 172.167L180.846 165.298C180.717 165.56 180.519 165.781 180.272 165.937C180.025 166.093 179.74 166.178 179.448 166.182C179.065 166.169 178.701 166.011 178.43 165.74L171.182 171.582L170.716 170.84L177.964 164.997C177.883 164.778 177.846 164.545 177.853 164.311C177.835 163.924 177.946 163.543 178.167 163.226C178.388 162.909 178.708 162.674 179.077 162.558M179.582 145.598C170.503 145.377 163.073 153.604 163.002 163.939C162.931 174.275 170.266 182.889 179.338 183.086C188.41 183.284 195.847 175.088 195.918 164.761C195.989 154.433 188.654 145.811 179.582 145.598Z" fill="white"/>
<path d="M179.354 183.103C170.282 182.882 162.947 174.284 163.018 163.956C163.089 153.629 170.511 145.394 179.598 145.615C188.686 145.836 195.99 154.442 195.934 164.754C195.879 175.065 188.434 183.308 179.354 183.079M179.591 145.141C170.298 144.912 162.678 153.337 162.615 163.917C162.552 174.497 170.061 183.3 179.354 183.537C188.647 183.774 196.258 175.342 196.329 164.762C196.4 154.182 188.884 145.37 179.591 145.141Z" fill="#004E9E"/>
<path d="M179.78 164.673L178.777 165.463C178.969 165.627 179.212 165.72 179.464 165.723C179.679 165.724 179.89 165.665 180.073 165.552C180.256 165.439 180.404 165.277 180.499 165.084L179.78 164.657M179.875 163.078V164.491L180.601 164.918C180.658 164.753 180.688 164.579 180.688 164.405C180.699 164.131 180.631 163.86 180.49 163.624C180.35 163.389 180.145 163.199 179.898 163.078M179.109 163.078C178.863 163.188 178.656 163.369 178.515 163.599C178.374 163.829 178.306 164.096 178.319 164.365C178.319 164.501 178.335 164.636 178.367 164.768L179.156 164.152V163.078" fill="#004E9E"/>
<path d="M180.498 165.101C180.403 165.294 180.256 165.456 180.073 165.569C179.89 165.682 179.679 165.741 179.464 165.74C179.212 165.737 178.968 165.645 178.777 165.48L178.438 165.756C178.709 166.028 179.073 166.186 179.456 166.198C179.748 166.194 180.033 166.11 180.28 165.954C180.527 165.797 180.725 165.576 180.854 165.314L180.498 165.101ZM179.883 162.59V163.064C180.129 163.184 180.334 163.374 180.474 163.609C180.615 163.845 180.683 164.116 180.672 164.39C180.672 164.565 180.642 164.738 180.585 164.903L180.941 165.116C181.03 164.89 181.075 164.649 181.075 164.406C181.088 164.016 180.979 163.632 180.764 163.306C180.549 162.981 180.238 162.731 179.875 162.59M179.085 162.59C178.716 162.706 178.396 162.941 178.175 163.258C177.954 163.575 177.843 163.956 177.861 164.343C177.853 164.577 177.891 164.81 177.972 165.03L178.303 164.753C178.271 164.621 178.255 164.486 178.256 164.351C178.242 164.081 178.31 163.814 178.451 163.585C178.592 163.355 178.799 163.173 179.046 163.064V162.59" fill="#004E9E"/>
<path d="M179.922 155.688L179.125 155.672L179.085 162.573V163.046L179.077 164.12L178.311 164.736L177.972 165.012L170.724 170.855L171.19 171.597L178.438 165.754L178.777 165.478L179.78 164.673L179.425 164.46L179.512 164.262L179.867 164.475L179.875 163.062L179.883 162.588L179.922 155.688Z" fill="#004E9E"/>
<path d="M179.511 164.262L179.425 164.459L179.78 164.672L180.506 165.099L180.862 165.312L192.365 172.181L192.46 171.976L180.948 165.114L180.593 164.901L179.867 164.475L179.511 164.262Z" fill="#004E9E"/>
<path d="M215.199 145.418C207.912 145.236 201.951 151.837 201.895 160.127C201.84 168.417 207.73 175.326 215.01 175.508C222.29 175.689 228.306 169.081 228.306 160.806C228.306 152.532 222.471 145.615 215.184 145.434" fill="#004E9E"/>
<path d="M222.598 153.984L207.699 153.613C207.469 153.624 207.244 153.681 207.036 153.78C206.829 153.878 206.643 154.017 206.489 154.188C206.336 154.36 206.218 154.559 206.142 154.776C206.066 154.994 206.035 155.223 206.049 155.453L205.985 165.014C205.957 165.484 206.111 165.946 206.416 166.303C206.72 166.661 207.152 166.887 207.62 166.933L222.511 167.304C222.741 167.295 222.966 167.24 223.175 167.143C223.383 167.045 223.57 166.907 223.725 166.737C223.879 166.566 223.998 166.366 224.074 166.149C224.15 165.932 224.183 165.702 224.169 165.472L224.232 155.903C224.261 155.434 224.107 154.972 223.802 154.614C223.497 154.256 223.065 154.03 222.598 153.984ZM221.966 165.393C221.951 165.412 221.931 165.427 221.91 165.436C221.888 165.446 221.864 165.45 221.84 165.449C221.808 165.447 221.777 165.437 221.75 165.419C221.724 165.4 221.703 165.375 221.69 165.346L218.279 160.096L215.223 162.962C215.206 162.98 215.185 162.994 215.162 163.003C215.139 163.013 215.114 163.017 215.089 163.017C215.041 163.016 214.996 162.996 214.963 162.962L211.654 159.724L208.038 164.999C208.02 165.026 207.996 165.049 207.967 165.064C207.938 165.079 207.905 165.087 207.872 165.086C207.829 165.084 207.787 165.067 207.754 165.038C207.718 164.993 207.699 164.938 207.699 164.88C207.699 164.823 207.718 164.767 207.754 164.722L211.378 159.424L207.557 155.698C207.521 155.653 207.501 155.597 207.501 155.54C207.501 155.482 207.521 155.427 207.557 155.382C207.59 155.34 207.638 155.312 207.691 155.303C207.74 155.306 207.788 155.325 207.825 155.358L215.136 162.464L221.682 156.321C221.697 156.303 221.717 156.289 221.739 156.279C221.76 156.27 221.784 156.265 221.808 156.266C221.838 156.269 221.866 156.279 221.892 156.294C221.918 156.309 221.941 156.329 221.958 156.353C221.977 156.376 221.992 156.402 222 156.431C222.008 156.459 222.01 156.489 222.005 156.519C222 156.576 221.975 156.629 221.934 156.669L218.626 159.78L222.045 165.046C222.083 165.1 222.098 165.166 222.088 165.231C222.077 165.296 222.042 165.354 221.99 165.393H221.966Z" fill="white"/>
<path d="M215.01 175.505C207.73 175.323 201.848 168.399 201.896 160.124C201.943 151.85 207.912 145.233 215.2 145.415C222.487 145.596 228.369 152.521 228.322 160.787C228.275 169.054 222.298 175.686 215.01 175.505ZM215.2 144.957C207.699 144.775 201.556 151.573 201.501 160.116C201.446 168.659 207.509 175.765 215.01 175.955C222.511 176.144 228.662 169.346 228.717 160.795C228.772 152.244 222.708 145.146 215.2 144.957Z" fill="#004E9E"/>
<path d="M187.786 138.863C187.249 138.832 186.742 138.603 186.364 138.219C185.986 137.835 185.764 137.325 185.741 136.787C185.607 135.318 187.178 135.207 187.897 135.057C188.344 134.904 188.74 134.631 189.042 134.268L189.105 124.335V120.388L198.114 119.258H199.108V123.159L199.037 134.544C199.043 135.408 198.787 136.253 198.303 136.968C198.121 137.186 197.893 137.359 197.634 137.475C197.376 137.592 197.094 137.648 196.811 137.639C196.275 137.61 195.769 137.384 195.391 137.003C195.014 136.622 194.791 136.114 194.766 135.579C194.632 134.11 196.203 133.999 196.921 133.834C197.372 133.684 197.772 133.411 198.074 133.044L198.137 123.111L190.131 124.122L190.068 134.386C190.068 134.607 190.068 134.86 190.068 135.113V135.689C190.073 136.556 189.814 137.404 189.326 138.121C189.144 138.336 188.916 138.508 188.66 138.624C188.403 138.74 188.123 138.798 187.842 138.792M193.826 114.719C186.547 114.537 180.578 121.138 180.522 129.428C180.467 137.718 186.302 144.698 193.566 144.88C200.83 145.061 206.822 138.46 206.87 130.162C206.917 121.864 201.043 114.971 193.755 114.79" fill="white"/>
<path d="M193.566 144.88C186.286 144.698 180.404 137.774 180.451 129.499C180.499 121.225 186.476 114.608 193.755 114.79C201.035 114.971 206.925 121.896 206.87 130.162C206.815 138.429 200.853 145.061 193.566 144.88ZM193.755 114.332C186.255 114.15 180.112 120.948 180.057 129.491C180.001 138.034 186.065 145.14 193.566 145.33C201.067 145.519 207.217 138.721 207.272 130.17C207.328 121.619 201.264 114.521 193.755 114.332Z" fill="#004E9E"/>
<path d="M199.132 119.336H198.137L189.128 120.465V124.413L189.065 134.345C188.763 134.709 188.367 134.982 187.92 135.135C187.202 135.277 185.631 135.395 185.765 136.864C185.788 137.402 186.009 137.913 186.387 138.296C186.765 138.68 187.272 138.91 187.81 138.941C188.092 138.946 188.371 138.889 188.628 138.773C188.885 138.657 189.112 138.485 189.294 138.269C189.783 137.553 190.042 136.705 190.036 135.838V135.261C190.036 135.009 190.036 134.756 190.036 134.535L190.1 124.271L198.106 123.26L198.05 133.169C197.748 133.536 197.349 133.809 196.898 133.959C196.179 134.109 194.608 134.235 194.742 135.703C194.767 136.239 194.99 136.747 195.368 137.128C195.746 137.509 196.251 137.735 196.787 137.764C197.07 137.773 197.352 137.717 197.61 137.6C197.869 137.484 198.098 137.311 198.279 137.093C198.763 136.378 199.019 135.533 199.014 134.669L199.085 123.284V119.383" fill="#004E9E"/>
<path d="M152.509 139.101C151.822 139.342 151.172 139.674 150.574 140.088C151.635 141.563 153.153 142.645 154.893 143.167C153.732 142.065 152.91 140.654 152.524 139.101M160.996 139.306C160.603 140.837 159.755 142.214 158.564 143.254C160.298 142.824 161.834 141.819 162.923 140.404C162.332 139.955 161.684 139.586 160.996 139.306ZM156.567 138.453C155.325 138.435 154.089 138.613 152.903 138.982C153.693 141.517 154.996 143.254 156.535 143.428V138.453M156.938 138.453V143.436C158.517 143.333 159.836 141.659 160.625 139.164C159.453 138.733 158.218 138.493 156.97 138.453M151.837 134.237L148.624 134.15C148.642 136.134 149.234 138.07 150.329 139.725C150.969 139.279 151.664 138.921 152.398 138.659C152.024 137.215 151.836 135.729 151.837 134.237ZM156.575 134.356L152.216 134.245C152.218 135.694 152.401 137.137 152.761 138.54C153.987 138.155 155.266 137.969 156.551 137.988V134.356M161.288 134.474L156.93 134.364V137.996C158.224 138.046 159.503 138.296 160.72 138.738C161.094 137.347 161.293 135.914 161.312 134.474M164.928 134.561L161.707 134.482C161.692 135.968 161.485 137.447 161.091 138.88C161.825 139.175 162.515 139.568 163.144 140.048C164.266 138.435 164.886 136.526 164.928 134.561ZM152.832 129.389C152.427 130.821 152.215 132.3 152.201 133.787L156.559 133.898V130.116C155.279 130.07 154.013 129.825 152.809 129.389M160.704 129.587C159.487 129.961 158.219 130.145 156.946 130.132V133.906L161.304 134.016C161.306 132.521 161.112 131.032 160.728 129.587M150.424 128.118C149.256 129.748 148.611 131.695 148.577 133.7L151.79 133.779C151.81 132.249 152.033 130.727 152.453 129.255C151.731 128.966 151.048 128.583 150.424 128.118ZM163.136 128.434C162.509 128.869 161.827 129.217 161.107 129.468C161.504 130.957 161.705 132.491 161.707 134.032L164.92 134.111C164.904 132.083 164.283 130.106 163.136 128.434ZM154.972 125.007C153.276 125.428 151.77 126.404 150.693 127.779C151.275 128.206 151.909 128.559 152.58 128.829C152.982 127.352 153.805 126.025 154.948 125.007M158.612 125.102C159.76 126.166 160.582 127.536 160.98 129.05C161.655 128.818 162.295 128.497 162.883 128.095C161.827 126.672 160.34 125.628 158.643 125.118M156.614 124.842C155.098 124.944 153.756 126.555 152.959 128.979C154.123 129.398 155.346 129.635 156.583 129.682V124.842M156.977 124.842V129.674C158.207 129.694 159.433 129.521 160.609 129.16C159.82 126.689 158.533 125.015 157.009 124.842M156.693 143.901C151.956 143.783 148.142 139.306 148.174 133.914C148.205 128.521 152.082 124.241 156.82 124.36C161.557 124.478 165.37 128.955 165.331 134.34C165.291 139.725 161.431 144.02 156.693 143.901ZM156.851 119.086C149.564 118.904 143.594 125.505 143.539 133.795C143.484 142.085 149.374 148.994 156.662 149.176C163.949 149.357 169.91 142.757 169.966 134.458C170.021 126.16 164.131 119.267 156.851 119.086Z" fill="white"/>
<path d="M156.646 149.181C149.359 148.999 143.476 142.075 143.524 133.8C143.571 125.526 149.548 118.909 156.836 119.091C164.123 119.272 169.998 126.197 169.95 134.463C169.903 142.73 163.934 149.362 156.646 149.181ZM156.836 118.641C149.327 118.451 143.184 125.249 143.129 133.792C143.074 142.335 149.138 149.449 156.646 149.631C164.155 149.812 170.298 143.022 170.345 134.471C170.392 125.92 164.352 118.822 156.836 118.641Z" fill="#004E9E"/>
<path d="M154.878 143.165C153.138 142.643 151.619 141.561 150.559 140.086C151.156 139.672 151.807 139.34 152.493 139.099C152.879 140.653 153.701 142.064 154.862 143.165M158.517 143.252C159.708 142.212 160.556 140.836 160.949 139.304C161.637 139.584 162.285 139.953 162.876 140.402C161.787 141.818 160.251 142.822 158.517 143.252ZM156.457 143.434C154.917 143.26 153.583 141.523 152.825 138.989C154.01 138.619 155.247 138.441 156.488 138.46V143.434M156.891 143.434V138.452C158.14 138.491 159.374 138.731 160.547 139.162C159.757 141.657 158.399 143.331 156.859 143.434M150.251 139.723C149.155 138.069 148.563 136.132 148.545 134.149L151.759 134.235C151.757 135.727 151.946 137.213 152.319 138.657C151.586 138.919 150.89 139.278 150.251 139.723ZM152.698 138.539C152.338 137.135 152.155 135.692 152.154 134.243L156.512 134.354V137.986C155.227 137.967 153.948 138.154 152.722 138.539M160.704 138.736C159.487 138.294 158.209 138.044 156.915 137.994V134.362L161.273 134.472C161.254 135.913 161.055 137.345 160.681 138.736M163.105 140.047C162.476 139.567 161.786 139.173 161.052 138.878C161.446 137.445 161.653 135.967 161.668 134.48L164.889 134.559C164.847 136.524 164.226 138.433 163.105 140.047ZM152.161 133.785C152.176 132.298 152.388 130.819 152.793 129.388C153.998 129.823 155.263 130.068 156.543 130.114V133.896L152.185 133.785M156.922 133.904V130.13C158.196 130.143 159.464 129.96 160.681 129.585C161.065 131.03 161.259 132.519 161.257 134.014L158.573 133.951L156.899 133.904M148.53 133.699C148.564 131.693 149.209 129.746 150.377 128.116C151.001 128.582 151.684 128.964 152.406 129.253C151.986 130.725 151.763 132.247 151.743 133.778L148.53 133.699ZM161.66 134.03C161.658 132.489 161.457 130.955 161.06 129.467C161.78 129.215 162.462 128.867 163.089 128.432C164.236 130.104 164.857 132.081 164.873 134.109L161.66 134.03ZM152.533 128.827C151.862 128.557 151.228 128.204 150.646 127.777C151.723 126.402 153.229 125.426 154.925 125.006C153.782 126.023 152.959 127.351 152.556 128.827M160.949 129.032C160.551 127.518 159.729 126.149 158.581 125.085C160.278 125.594 161.765 126.638 162.82 128.061C162.232 128.463 161.592 128.785 160.918 129.016M156.52 129.648C155.283 129.602 154.06 129.365 152.896 128.945C153.685 126.521 155.035 124.911 156.551 124.808V129.648M156.946 129.648V124.816C158.47 124.99 159.781 126.664 160.547 129.135C159.37 129.495 158.145 129.668 156.915 129.648M156.757 124.334C152.019 124.216 148.143 128.503 148.111 133.888C148.079 139.273 151.901 143.757 156.63 143.876C161.36 143.994 165.236 139.707 165.268 134.314C165.3 128.922 161.486 124.445 156.757 124.334Z" fill="#004E9E"/>
<path d="M152.746 168.589C146.429 168.431 141.329 174.116 141.281 181.269C141.234 188.423 146.311 194.36 152.588 194.518C158.865 194.676 164.013 188.991 164.052 181.838C164.092 174.685 159.031 168.747 152.746 168.589Z" fill="#004E9E"/>
<path d="M152.588 194.519C146.311 194.361 141.242 188.424 141.281 181.27C141.321 174.117 146.469 168.432 152.746 168.59C159.023 168.748 164.099 174.685 164.052 181.839C164.005 188.992 158.865 194.677 152.588 194.519ZM152.753 168.132C146.248 167.974 140.91 173.864 140.91 181.254C140.91 188.645 146.113 194.811 152.619 194.977C159.125 195.143 164.463 189.245 164.463 181.847C164.463 174.448 159.259 168.298 152.761 168.132" fill="#004E9E"/>
<path d="M154.562 173.391C154.405 173.398 154.252 173.436 154.11 173.502C153.969 173.569 153.842 173.663 153.737 173.779C153.632 173.895 153.551 174.031 153.499 174.178C153.447 174.326 153.424 174.482 153.433 174.638C153.413 174.956 153.518 175.27 153.726 175.512C153.934 175.754 154.228 175.905 154.546 175.933C154.701 175.927 154.854 175.89 154.995 175.824C155.136 175.758 155.263 175.665 155.367 175.549C155.472 175.434 155.552 175.298 155.604 175.152C155.655 175.005 155.677 174.849 155.667 174.693C155.687 174.375 155.583 174.062 155.377 173.819C155.171 173.576 154.879 173.423 154.562 173.391Z" fill="#004E9E"/>
<path d="M153.938 176.716H153.89L150.732 176.929C150.606 176.944 150.489 177.004 150.403 177.099C150.318 177.193 150.269 177.315 150.266 177.442L149.982 180.6C149.965 180.745 150.003 180.89 150.087 181.009C150.172 181.127 150.298 181.209 150.44 181.24H150.487C150.622 181.234 150.749 181.178 150.844 181.083C150.939 180.988 150.995 180.861 151 180.727L151.237 178.082L152.382 178.003L150.803 185.172L148.3 187.935C148.214 188.049 148.168 188.188 148.168 188.33C148.168 188.472 148.214 188.611 148.3 188.725C148.345 188.778 148.4 188.821 148.463 188.85C148.526 188.879 148.594 188.894 148.663 188.894C148.733 188.894 148.801 188.879 148.864 188.85C148.927 188.821 148.982 188.778 149.027 188.725L151.624 185.843C151.69 185.766 151.737 185.674 151.758 185.574L152.548 182.116L154.917 184.374L152.098 186.222C151.977 186.309 151.892 186.437 151.859 186.583C151.826 186.728 151.846 186.88 151.916 187.011C151.954 187.096 152.014 187.169 152.091 187.22C152.168 187.272 152.258 187.301 152.351 187.304C152.446 187.311 152.54 187.286 152.619 187.233L156.069 184.967C156.143 184.914 156.204 184.845 156.248 184.766C156.291 184.687 156.317 184.599 156.322 184.509C156.328 184.417 156.314 184.325 156.282 184.239C156.249 184.153 156.198 184.076 156.133 184.011L153.953 181.974L154.459 179.74L154.948 180.877C155.005 181.012 155.113 181.12 155.248 181.177C155.298 181.183 155.349 181.183 155.398 181.177C155.487 181.176 155.575 181.152 155.651 181.106L158.02 179.692C158.143 179.607 158.231 179.48 158.267 179.335C158.304 179.189 158.286 179.036 158.217 178.903C158.179 178.815 158.118 178.74 158.04 178.686C157.962 178.632 157.87 178.6 157.775 178.595C157.688 178.596 157.604 178.621 157.53 178.666L155.659 179.795L154.451 176.968C154.415 176.876 154.354 176.796 154.274 176.737C154.194 176.678 154.1 176.644 154.001 176.637" fill="#004E9E"/>
<path d="M198.019 200.423C197.062 199.971 196.258 199.248 195.707 198.345C195.155 197.441 194.881 196.396 194.916 195.339C194.916 192.417 197.032 190.096 199.598 190.159C200.529 190.215 201.422 190.545 202.167 191.107C202.911 191.668 203.473 192.437 203.783 193.317H204.098C205 193.368 205.868 193.673 206.603 194.197C207.338 194.721 207.91 195.443 208.251 196.278H208.394C210.999 196.341 213.131 198.805 213.083 201.766C213.079 202.67 212.869 203.561 212.468 204.371C212.258 204.807 211.928 205.174 211.517 205.429C211.106 205.683 210.63 205.815 210.146 205.808L200.332 205.563C199.58 205.499 198.881 205.147 198.381 204.581C197.881 204.015 197.619 203.278 197.648 202.523C197.652 201.82 197.777 201.123 198.019 200.463M204.098 183.929C196.811 183.748 190.85 190.349 190.794 198.639C190.739 206.929 196.629 213.838 203.909 214.019C211.189 214.201 217.165 207.6 217.221 199.302C217.276 191.004 211.386 184.111 204.098 183.929Z" fill="white"/>
<path d="M203.908 213.981C196.629 213.8 190.747 206.875 190.794 198.601C190.841 190.326 196.81 183.71 204.098 183.891C211.386 184.073 217.268 190.997 217.22 199.264C217.173 207.53 211.196 214.163 203.908 213.981ZM204.098 183.433C196.597 183.252 190.447 190.05 190.399 198.593C190.352 207.136 196.408 214.242 203.908 214.431C211.409 214.621 217.56 207.823 217.615 199.272C217.67 190.721 211.607 183.623 204.098 183.433Z" fill="#004E9E"/>
<path d="M199.59 190.61C197.221 190.555 195.326 192.679 195.311 195.348C195.277 196.323 195.532 197.287 196.045 198.117C196.558 198.948 197.305 199.608 198.192 200.014C198.469 199.403 198.863 198.853 199.353 198.395C199.33 197.218 199.716 196.068 200.446 195.144C201.177 194.219 202.205 193.577 203.356 193.327C203.051 192.563 202.535 191.901 201.868 191.42C201.201 190.939 200.411 190.658 199.59 190.61Z" fill="#004E9E"/>
<path d="M199.598 190.16C197.032 190.097 194.931 192.419 194.916 195.34C194.88 196.398 195.155 197.443 195.707 198.346C196.258 199.25 197.062 199.972 198.019 200.425C198.074 200.283 198.129 200.148 198.192 200.014C197.305 199.608 196.558 198.948 196.045 198.117C195.532 197.287 195.276 196.323 195.31 195.348C195.31 192.679 197.245 190.555 199.59 190.611C200.411 190.659 201.201 190.939 201.868 191.421C202.535 191.902 203.051 192.563 203.356 193.327L203.782 193.287C203.473 192.407 202.911 191.638 202.167 191.076C201.422 190.515 200.529 190.185 199.598 190.129" fill="#004E9E"/>
<path d="M204.098 193.728C201.73 193.672 199.779 195.82 199.748 198.512V198.623L199.669 198.686C199.151 199.169 198.739 199.755 198.461 200.406C198.182 201.057 198.042 201.76 198.05 202.468C198.022 203.112 198.243 203.742 198.668 204.226C199.094 204.71 199.69 205.011 200.332 205.066L210.146 205.31C210.557 205.319 210.961 205.21 211.311 204.996C211.661 204.782 211.942 204.472 212.12 204.102C212.488 203.367 212.68 202.556 212.681 201.734C212.681 199.018 210.77 196.767 208.394 196.712H208.007L207.951 196.578C207.652 195.783 207.128 195.092 206.445 194.588C205.761 194.083 204.946 193.787 204.098 193.735" fill="white"/>
<path d="M200.332 205.065C199.69 205.011 199.094 204.71 198.668 204.226C198.243 203.742 198.022 203.112 198.05 202.468C198.042 201.76 198.182 201.057 198.461 200.406C198.739 199.755 199.151 199.169 199.669 198.686L199.748 198.623V198.512C199.748 195.82 201.73 193.672 204.098 193.727C204.946 193.779 205.761 194.075 206.445 194.58C207.128 195.084 207.652 195.775 207.951 196.57L208.007 196.704H208.394C210.762 196.759 212.697 199.01 212.681 201.726C212.68 202.548 212.488 203.359 212.12 204.094C211.942 204.464 211.661 204.774 211.311 204.988C210.961 205.202 210.557 205.311 210.146 205.302L200.332 205.058M204.098 193.27H203.783L203.356 193.309C202.205 193.559 201.177 194.202 200.446 195.126C199.716 196.051 199.33 197.2 199.353 198.378C198.863 198.835 198.469 199.386 198.192 199.997C198.129 200.131 198.074 200.265 198.019 200.407C197.777 201.068 197.652 201.765 197.648 202.468C197.619 203.222 197.881 203.959 198.381 204.525C198.881 205.091 199.58 205.443 200.332 205.508L210.146 205.808C210.63 205.815 211.106 205.683 211.517 205.428C211.928 205.174 212.258 204.807 212.468 204.371C212.869 203.56 213.079 202.669 213.083 201.765C213.083 198.804 210.999 196.341 208.394 196.278H208.251C207.91 195.442 207.338 194.721 206.603 194.197C205.868 193.673 205 193.368 204.098 193.317" fill="#004E9E"/>
<path d="M215.128 95.6357C209.396 95.4935 204.698 100.689 204.659 107.218C204.619 113.748 209.246 119.18 214.986 119.322C220.726 119.464 225.416 114.269 225.456 107.74C225.495 101.21 220.869 95.7778 215.128 95.6357Z" fill="#004E9E"/>
<path d="M214.987 119.323C209.247 119.181 204.62 113.749 204.659 107.219C204.699 100.69 209.397 95.4946 215.129 95.6367C220.861 95.7788 225.496 101.211 225.456 107.741C225.417 114.27 220.719 119.465 214.987 119.323ZM215.137 95.1866C209.183 95.0366 204.296 100.429 204.257 107.212C204.217 113.994 208.994 119.631 214.979 119.773C220.964 119.916 225.811 114.531 225.859 107.748C225.906 100.966 221.121 95.3367 215.137 95.1866Z" fill="#004E9E"/>
<path d="M214.829 101.586C211.22 101.491 208.267 104.136 208.244 107.484C208.256 108.479 208.512 109.456 208.99 110.328C209.467 111.201 210.152 111.943 210.983 112.49L211.094 112.569V112.711C211.021 113.408 210.812 114.084 210.478 114.701C211.413 114.447 212.302 114.05 213.115 113.524L213.178 113.477H213.249C213.747 113.596 214.254 113.665 214.765 113.682C218.374 113.769 221.327 111.124 221.342 107.784C221.358 104.444 218.445 101.649 214.844 101.562" fill="white"/>
<path d="M210.462 114.726C210.796 114.11 211.005 113.434 211.078 112.737V112.595L210.967 112.516C210.136 111.969 209.451 111.227 208.974 110.354C208.496 109.481 208.24 108.505 208.228 107.51C208.228 104.162 211.204 101.517 214.812 101.612C218.421 101.707 221.334 104.494 221.31 107.834C221.287 111.173 218.342 113.818 214.733 113.732C214.223 113.714 213.715 113.645 213.218 113.526H213.146L213.083 113.574C212.27 114.1 211.381 114.497 210.446 114.75" fill="white"/>
<path d="M175.13 92.8386C169.713 92.7044 165.276 97.576 165.244 103.782C165.213 109.988 169.579 115.073 174.995 115.207C180.412 115.341 184.881 110.43 184.881 104.271C184.881 98.1129 180.546 92.9729 175.13 92.8386Z" fill="#004E9E"/>
<path d="M174.995 115.208C169.579 115.074 165.205 109.941 165.244 103.783C165.284 97.6244 169.713 92.7291 175.129 92.8397C180.546 92.9502 184.92 98.0981 184.88 104.272C184.841 110.447 180.404 115.326 174.995 115.208ZM175.137 92.3896C169.5 92.2475 164.873 97.3559 164.873 103.767C164.873 110.178 169.389 115.516 175.019 115.658C180.648 115.8 185.283 110.699 185.283 104.28C185.283 97.8612 180.775 92.5238 175.145 92.3896" fill="#004E9E"/>
<path d="M171.15 97.293C170.484 97.5727 169.919 98.0493 169.532 98.6589C169.324 99.2603 169.248 99.899 169.308 100.532C169.368 101.165 169.563 101.779 169.879 102.33C170.613 103.609 172.935 107.612 176.14 109.657C177.099 110.173 178.129 110.545 179.196 110.763C179.285 110.777 179.375 110.777 179.464 110.763C180.254 110.494 180.838 108.394 180.838 108.394L177.885 106.633L176.961 106.91C176.803 106.958 176.637 106.979 176.472 106.973C176.081 106.963 175.706 106.814 175.414 106.554C174.478 105.738 173.655 104.801 172.966 103.767C172.769 103.459 172.649 103.108 172.616 102.744C172.583 102.38 172.638 102.013 172.777 101.675L173.108 100.885L171.15 97.3167" fill="#004E9E"/>
<path d="M357.003 348.676H367.189" stroke="#004E9E" stroke-linecap="round" stroke-linejoin="round"/>
<path d="M10.7913 348.676H345.95" stroke="#004E9E" stroke-linecap="round" stroke-linejoin="round"/>
</svg>
