<svg width="57" height="64" viewBox="0 0 57 64" fill="none" xmlns="http://www.w3.org/2000/svg">
<g clip-path="url(#clip0_594_315)">
<path fill-rule="evenodd" clip-rule="evenodd" d="M20.979 38.5529H36.0233C35.9256 35.5151 33.413 33.0751 30.3376 33.0751H26.6647C23.5894 33.0751 21.0752 35.5151 20.979 38.5529ZM36.2097 40.0183H20.7924C20.4507 40.0182 20.123 39.883 19.8814 39.6425C19.6398 39.402 19.504 39.0759 19.5039 38.7358C19.5039 34.8057 22.7163 31.6083 26.6647 31.6083H30.3376C34.286 31.6083 37.4984 34.8057 37.4984 38.7358C37.4982 39.0759 37.3624 39.402 37.1207 39.6425C36.8791 39.883 36.5514 40.0181 36.2097 40.0183Z" fill="black"/>
<path fill-rule="evenodd" clip-rule="evenodd" d="M28.5024 25.4457C26.7956 25.4457 25.4067 26.8282 25.4067 28.527C25.4067 30.2258 26.7956 31.6083 28.5024 31.6083C30.2091 31.6083 31.5995 30.2258 31.5995 28.527C31.5995 26.8282 30.2091 25.4457 28.5024 25.4457ZM28.5024 33.0751C25.9838 33.0751 23.9336 31.0353 23.9336 28.5276C23.9336 26.0198 25.9829 23.98 28.5024 23.98C31.0219 23.98 33.0711 26.0198 33.0711 28.5276C33.0717 31.0337 31.0209 33.0751 28.5024 33.0751Z" fill="black"/>
<path fill-rule="evenodd" clip-rule="evenodd" d="M28.5025 18.0723C20.7879 18.0723 14.5091 24.3205 14.5091 32.0007C14.5091 39.6808 20.7879 45.9283 28.5025 45.9283C36.2171 45.9283 42.4957 39.6803 42.4957 32.0001C42.4957 24.3199 36.2186 18.0723 28.5025 18.0723ZM28.5025 47.3943C19.9754 47.3943 13.0371 40.4889 13.0371 32.0009C13.0371 23.5128 19.9748 16.6074 28.5025 16.6074C37.0302 16.6074 43.9679 23.5128 43.9679 32.0009C43.9679 40.4889 37.0304 47.3943 28.5025 47.3943Z" fill="black"/>
<path fill-rule="evenodd" clip-rule="evenodd" d="M48.4807 17.0984C48.3512 17.0983 48.224 17.0643 48.1119 16.9997L31.7472 7.599C31.578 7.50185 31.4546 7.34181 31.404 7.15409C31.3535 6.96636 31.3799 6.76633 31.4775 6.59799C31.5751 6.42965 31.7359 6.3068 31.9245 6.25646C32.1131 6.20611 32.314 6.23241 32.4832 6.32955L48.8479 15.7317C48.9882 15.8122 49.098 15.9366 49.1601 16.0855C49.2222 16.2344 49.2332 16.3996 49.1913 16.5553C49.1495 16.7111 49.0571 16.8487 48.9286 16.9469C48.8002 17.0451 48.6427 17.0984 48.4807 17.0984Z" fill="black"/>
<path fill-rule="evenodd" clip-rule="evenodd" d="M4.90983 42.1356C4.81317 42.1356 4.71745 42.1167 4.62814 42.0799C4.53884 42.0431 4.45769 41.9891 4.38934 41.9211C4.32099 41.853 4.26678 41.7723 4.2298 41.6834C4.19282 41.5945 4.1738 41.4992 4.17383 41.403V22.5967C4.17383 22.4024 4.25137 22.216 4.3894 22.0786C4.52742 21.9413 4.71463 21.8641 4.90983 21.8641C5.10502 21.8641 5.29223 21.9413 5.43026 22.0786C5.56828 22.216 5.64582 22.4024 5.64582 22.5967V41.4037C5.64568 41.5979 5.56806 41.7841 5.43005 41.9213C5.29203 42.0586 5.10491 42.1356 4.90983 42.1356Z" fill="black"/>
<path fill-rule="evenodd" clip-rule="evenodd" d="M32.1174 57.7706C31.9553 57.7706 31.7977 57.7173 31.6691 57.6191C31.5405 57.5209 31.448 57.3831 31.406 57.2273C31.364 57.0714 31.3748 56.9061 31.4368 56.757C31.4988 56.6079 31.6084 56.4833 31.7488 56.4025L48.1135 46.9989C48.2826 46.9017 48.4836 46.8754 48.6722 46.9258C48.8608 46.9761 49.0216 47.099 49.1192 47.2673C49.2168 47.4356 49.2432 47.6357 49.1926 47.8234C49.1421 48.0111 49.0186 48.1712 48.8495 48.2683L32.4848 57.6719C32.3731 57.7363 32.2465 57.7703 32.1174 57.7706Z" fill="black"/>
<path fill-rule="evenodd" clip-rule="evenodd" d="M52.0934 42.1356C51.9968 42.1356 51.901 42.1167 51.8117 42.0799C51.7224 42.0431 51.6413 41.9891 51.5729 41.9211C51.5046 41.853 51.4504 41.7723 51.4134 41.6834C51.3764 41.5945 51.3574 41.4992 51.3574 41.403V22.5967C51.3574 22.4024 51.435 22.216 51.573 22.0786C51.711 21.9413 51.8982 21.8641 52.0934 21.8641C52.2886 21.8641 52.4758 21.9413 52.6138 22.0786C52.7519 22.216 52.8294 22.4024 52.8294 22.5967V41.4037C52.8295 41.5 52.8105 41.5952 52.7735 41.6841C52.7365 41.773 52.6823 41.8538 52.614 41.9219C52.5456 41.9899 52.4644 42.0439 52.3751 42.0807C52.2858 42.1175 52.1901 42.1364 52.0934 42.1363V42.1356Z" fill="black"/>
<path fill-rule="evenodd" clip-rule="evenodd" d="M24.8878 57.7706C24.7583 57.7706 24.6311 57.7365 24.519 57.672L8.15576 48.2685C7.98652 48.1714 7.86297 48.0113 7.81231 47.8234C7.76165 47.6356 7.78802 47.4355 7.88562 47.267C7.98321 47.0986 8.14405 46.9756 8.33274 46.9252C8.52143 46.8747 8.72251 46.901 8.89176 46.9981L25.2563 56.4027C25.3967 56.4834 25.5064 56.608 25.5684 56.7571C25.6304 56.9062 25.6413 57.0716 25.5993 57.2274C25.5573 57.3833 25.4647 57.521 25.3361 57.6193C25.2074 57.7175 25.0498 57.7707 24.8876 57.7706H24.8878Z" fill="black"/>
<path fill-rule="evenodd" clip-rule="evenodd" d="M8.52368 17.0983C8.36156 17.0983 8.20398 17.045 8.07535 16.9468C7.94673 16.8486 7.85426 16.7108 7.81226 16.555C7.77026 16.3991 7.78109 16.2338 7.84306 16.0847C7.90503 15.9356 8.01469 15.811 8.15504 15.7302L24.5198 6.32804C24.6035 6.27995 24.6959 6.24875 24.7918 6.23622C24.8877 6.22369 24.9851 6.23007 25.0784 6.25501C25.1718 6.27994 25.2593 6.32294 25.336 6.38155C25.4127 6.44015 25.477 6.51321 25.5254 6.59657C25.5737 6.67992 25.605 6.77193 25.6176 6.86734C25.6302 6.96275 25.6238 7.0597 25.5987 7.15264C25.5737 7.24558 25.5305 7.33271 25.4716 7.40903C25.4127 7.48536 25.3393 7.5494 25.2556 7.59749L8.89104 16.9997C8.77956 17.0644 8.65276 17.0985 8.52368 17.0983Z" fill="black"/>
<path fill-rule="evenodd" clip-rule="evenodd" d="M28.502 1.46552C26.6074 1.46552 25.0653 3.00045 25.0653 4.8863C25.0653 6.77214 26.6074 8.30707 28.502 8.30707C30.3967 8.30707 31.9388 6.77214 31.9388 4.8863C31.9388 3.00045 30.3969 1.46552 28.502 1.46552ZM28.502 9.77241C25.7941 9.77241 23.5918 7.58039 23.5918 4.8863C23.5918 2.19221 25.7941 0 28.5007 0C31.2074 0 33.4095 2.19202 33.4095 4.88611C33.4095 7.58021 31.2083 9.77223 28.502 9.77223V9.77241Z" fill="black"/>
<path fill-rule="evenodd" clip-rule="evenodd" d="M4.90894 15.0223C3.01428 15.0223 1.47366 16.5573 1.47366 18.4431C1.47366 20.329 3.01576 21.8639 4.90894 21.8639C6.80507 21.8639 8.34569 20.329 8.34569 18.4431C8.34569 16.5573 6.80507 15.0223 4.90894 15.0223ZM4.90894 23.3292C2.20374 23.3292 0 21.1372 0 18.4431C0 15.749 2.20282 13.5572 4.90894 13.5572C7.61506 13.5572 9.81787 15.7492 9.81787 18.4433C9.81787 21.1374 7.61728 23.3292 4.90894 23.3292Z" fill="black"/>
<path fill-rule="evenodd" clip-rule="evenodd" d="M52.0919 15.0223C50.1972 15.0223 48.6551 16.5573 48.6551 18.4431C48.6551 20.329 50.1987 21.8639 52.0919 21.8639C53.988 21.8639 55.5286 20.329 55.5286 18.4431C55.5286 16.5573 53.9867 15.0223 52.0919 15.0223ZM52.0919 23.3292C49.3839 23.3292 47.1816 21.1372 47.1816 18.4431C47.1816 15.749 49.3839 13.557 52.0906 13.557C54.7973 13.557 56.9995 15.749 56.9995 18.4431C56.9995 21.1372 54.7984 23.3292 52.0919 23.3292Z" fill="black"/>
<path fill-rule="evenodd" clip-rule="evenodd" d="M52.0919 42.1356C50.1972 42.1356 48.6551 43.6705 48.6551 45.5563C48.6551 47.4422 50.1987 48.9771 52.0919 48.9771C53.988 48.9771 55.5286 47.4422 55.5286 45.5563C55.5286 43.6705 53.9867 42.1356 52.0919 42.1356ZM52.0919 50.4425C49.3839 50.4425 47.1816 48.2504 47.1816 45.5563C47.1816 42.8623 49.3839 40.6702 52.0906 40.6702C54.7973 40.6702 56.9995 42.8623 56.9995 45.5563C56.9995 48.2504 54.7984 50.4425 52.0919 50.4425Z" fill="black"/>
<path fill-rule="evenodd" clip-rule="evenodd" d="M28.502 55.6933C26.6074 55.6933 25.0653 57.2282 25.0653 59.1141C25.0653 60.9999 26.6074 62.5349 28.502 62.5349C30.3967 62.5349 31.9388 60.9999 31.9388 59.1141C31.9388 57.2282 30.3969 55.6933 28.502 55.6933ZM28.502 64C25.7941 64 23.5918 61.808 23.5918 59.1139C23.5918 56.4198 25.7941 54.2278 28.5007 54.2278C31.2074 54.2278 33.4095 56.4198 33.4095 59.1139C33.4095 61.808 31.2083 64 28.502 64Z" fill="black"/>
<path fill-rule="evenodd" clip-rule="evenodd" d="M4.90894 42.1356C3.01428 42.1356 1.47366 43.6705 1.47366 45.5563C1.47366 47.4422 3.01576 48.9771 4.90894 48.9771C6.80507 48.9771 8.34569 47.4422 8.34569 45.5563C8.34569 43.6705 6.80544 42.1356 4.90894 42.1356ZM4.90894 50.4424C2.20374 50.4424 0 48.2504 0 45.5563C0 42.8622 2.20263 40.671 4.90894 40.671C7.61524 40.671 9.81787 42.863 9.81787 45.5571C9.81787 48.2512 7.61728 50.4432 4.90894 50.4432V50.4424Z" fill="black"/>
<path fill-rule="evenodd" clip-rule="evenodd" d="M8.52368 44.2138C8.36156 44.2138 8.20398 44.1605 8.07535 44.0623C7.94673 43.964 7.85426 43.8263 7.81226 43.6705C7.77026 43.5146 7.78109 43.3493 7.84306 43.2002C7.90503 43.0511 8.01469 42.9265 8.15504 42.8457L15.3768 38.6966C15.546 38.5994 15.7469 38.5731 15.9355 38.6235C16.1241 38.6738 16.2849 38.7967 16.3825 38.965C16.4801 39.1333 16.5065 39.3334 16.456 39.5211C16.4054 39.7088 16.282 39.8689 16.1128 39.966L8.89104 44.1151C8.77952 44.1798 8.65275 44.2138 8.52368 44.2138Z" fill="black"/>
<path fill-rule="evenodd" clip-rule="evenodd" d="M15.7449 25.4037C15.6158 25.4039 15.4891 25.3698 15.3776 25.3051L8.15576 21.1559C8.07196 21.1078 7.9985 21.0438 7.93957 20.9674C7.88064 20.8911 7.83739 20.8039 7.81231 20.7109C7.78722 20.6179 7.78078 20.5209 7.79336 20.4254C7.80594 20.33 7.83729 20.2379 7.88561 20.1545C7.93394 20.0711 7.9983 19.9979 8.07502 19.9393C8.15173 19.8806 8.23931 19.8376 8.33274 19.8126C8.42617 19.7876 8.52362 19.7812 8.61954 19.7938C8.71546 19.8063 8.80796 19.8375 8.89176 19.8856L16.1136 24.0347C16.2536 24.1157 16.363 24.2403 16.4248 24.3893C16.4866 24.5384 16.4973 24.7035 16.4553 24.8592C16.4134 25.0149 16.3211 25.1525 16.1926 25.2508C16.0642 25.3491 15.9069 25.4025 15.7449 25.4028V25.4037Z" fill="black"/>
<path fill-rule="evenodd" clip-rule="evenodd" d="M48.4791 44.2138C48.3496 44.2137 48.2223 44.1797 48.1103 44.1151L40.8897 39.966C40.7206 39.8689 40.5972 39.7088 40.5466 39.5211C40.496 39.3334 40.5225 39.1333 40.62 38.965C40.7176 38.7967 40.8784 38.6738 41.067 38.6235C41.2556 38.5731 41.4566 38.5994 41.6257 38.6966L48.8462 42.8457C48.9865 42.9264 49.0961 43.0509 49.1581 43.1998C49.2201 43.3488 49.231 43.514 49.1892 43.6697C49.1474 43.8255 49.0552 43.9633 48.9268 44.0616C48.7984 44.16 48.6411 44.2134 48.4791 44.2138Z" fill="black"/>
<path fill-rule="evenodd" clip-rule="evenodd" d="M28.5016 55.6933C28.405 55.6934 28.3092 55.6744 28.2199 55.6376C28.1306 55.6008 28.0495 55.5468 27.9811 55.4788C27.9128 55.4108 27.8586 55.33 27.8216 55.2411C27.7846 55.1522 27.7656 55.057 27.7656 54.9608V46.661C27.7656 46.4668 27.8432 46.2804 27.9812 46.143C28.1192 46.0057 28.3064 45.9285 28.5016 45.9285C28.6968 45.9285 28.884 46.0057 29.0221 46.143C29.1601 46.2804 29.2376 46.4668 29.2376 46.661V54.9606C29.2375 55.1548 29.1599 55.3411 29.0219 55.4785C28.8839 55.6159 28.6968 55.6931 28.5016 55.6933Z" fill="black"/>
<path fill-rule="evenodd" clip-rule="evenodd" d="M41.26 25.4037C41.0979 25.4037 40.9403 25.3504 40.8117 25.2522C40.6831 25.154 40.5906 25.0163 40.5486 24.8604C40.5066 24.7045 40.5174 24.5392 40.5794 24.3901C40.6414 24.241 40.751 24.1164 40.8914 24.0356L48.1119 19.8865C48.2811 19.7894 48.4822 19.7631 48.6709 19.8135C48.8596 19.864 49.0204 19.9869 49.118 20.1554C49.2156 20.3239 49.242 20.524 49.1913 20.7118C49.1407 20.8996 49.0171 21.0597 48.8479 21.1569L41.6274 25.306C41.5157 25.3703 41.389 25.4043 41.26 25.4047V25.4037Z" fill="black"/>
<path fill-rule="evenodd" clip-rule="evenodd" d="M28.5016 18.0723C28.405 18.0723 28.3092 18.0534 28.2199 18.0166C28.1306 17.9798 28.0495 17.9258 27.9811 17.8578C27.9128 17.7898 27.8586 17.709 27.8216 17.6201C27.7846 17.5312 27.7656 17.4359 27.7656 17.3397V9.03965C27.7656 8.84535 27.8432 8.65902 27.9812 8.52163C28.1192 8.38425 28.3064 8.30707 28.5016 8.30707C28.6968 8.30707 28.884 8.38425 29.0221 8.52163C29.1601 8.65902 29.2376 8.84535 29.2376 9.03965V17.3392C29.2374 17.5334 29.1598 17.7196 29.0218 17.857C28.8839 17.9943 28.6968 18.0716 28.5016 18.0717V18.0723Z" fill="black"/>
</g>
<defs>
<clipPath id="clip0_594_315">
<rect width="57" height="64" fill="white"/>
</clipPath>
</defs>
</svg>
