<svg width="346" height="345" viewBox="0 0 346 345" fill="none" xmlns="http://www.w3.org/2000/svg">
<path d="M172.238 344.532C229.047 344.532 275.1 341.518 275.1 337.799C275.1 334.081 229.047 331.066 172.238 331.066C115.429 331.066 69.3762 334.081 69.3762 337.799C69.3762 341.518 115.429 344.532 172.238 344.532Z" fill="#004E9E"/>
<path d="M70.1244 291.035C71.5607 291.656 75.0693 291.581 75.0693 291.581C75.0693 291.581 74.3212 289.285 74.2538 289.143C73.5058 287.534 71.052 284.879 69.0696 285.148C68.7385 285.2 68.4224 285.323 68.1422 285.507C67.862 285.691 67.6242 285.932 67.4445 286.215C67.2648 286.498 67.1474 286.816 67.0999 287.148C67.0525 287.48 67.0762 287.818 67.1695 288.14C67.4912 289.479 68.8976 290.497 70.1244 291.035Z" fill="#004E9E"/>
<path d="M71.3287 301.186C72.8249 301.403 75.9444 300.497 76.1988 300.438C76.7125 302.223 77.3448 303.973 78.0914 305.674C78.5253 306.669 78.9891 307.664 79.4679 308.666C79.1836 308.255 78.9218 307.918 78.8769 307.829C77.7099 306.482 74.6652 304.559 72.8249 305.345C72.5231 305.483 72.2538 305.683 72.0345 305.932C71.8152 306.181 71.6508 306.474 71.552 306.791C71.4532 307.108 71.4222 307.442 71.4611 307.771C71.4999 308.101 71.6078 308.419 71.7776 308.704C72.4583 309.938 74.0817 310.552 75.4058 310.739C76.7299 310.926 79.423 310.215 80.1337 309.991C80.3207 310.372 80.5003 310.739 80.6873 311.12C81.5999 312.931 82.5051 314.726 83.3505 316.514C83.6422 317.142 83.9115 317.778 84.1883 318.407C83.934 318.032 83.717 317.726 83.6796 317.658C82.5126 316.312 79.4604 314.389 77.6201 315.167C77.3192 315.306 77.0507 315.507 76.832 315.756C76.6134 316.005 76.4494 316.298 76.3507 316.614C76.252 316.931 76.2208 317.264 76.2591 317.594C76.2973 317.923 76.4042 318.241 76.5728 318.526C77.2536 319.768 78.8844 320.374 80.201 320.568C81.5177 320.763 83.9415 320.112 84.8018 319.88C85.0561 320.531 85.3179 321.189 85.5498 321.833C85.6845 322.282 85.8566 322.693 85.9688 323.149C86.081 323.606 86.2156 324.04 86.3428 324.481C86.5448 325.334 86.7617 326.217 86.9413 327.047C87.0685 327.63 87.1807 328.191 87.3004 328.753C87.0086 328.117 86.4176 326.897 86.3578 326.8C85.4077 325.304 82.6847 322.925 80.7546 323.419C80.4353 323.51 80.1387 323.667 79.8841 323.881C79.6294 324.094 79.4224 324.358 79.2764 324.656C79.1304 324.955 79.0487 325.28 79.0366 325.612C79.0245 325.944 79.0822 326.275 79.2061 326.583C79.6923 327.907 81.2035 328.76 82.4827 329.149C83.8816 329.575 86.9712 329.149 87.3752 329.149C87.5622 330.077 87.7343 330.982 87.8839 331.835C88.2205 333.72 88.4674 335.418 88.632 336.847H89.9411C89.7092 335.351 89.41 333.6 89.021 331.61C88.8339 330.668 88.617 329.665 88.3851 328.618C89.3203 328.244 90.2321 327.815 91.1156 327.331C92.1405 328.438 94.7588 329.74 95.0954 329.905C94.7363 330.78 94.3847 331.625 94.0331 332.426C93.2851 334.094 92.6267 335.568 92.0133 336.824H93.4347C93.9508 335.665 94.5269 334.348 95.1253 332.882C95.4919 331.999 95.8734 331.042 96.24 330.054C96.614 330.129 99.6887 330.757 101.125 330.436C102.419 330.136 103.998 329.403 104.574 328.117C104.721 327.82 104.804 327.495 104.818 327.164C104.831 326.833 104.775 326.503 104.652 326.195C104.529 325.887 104.343 325.609 104.105 325.378C103.867 325.147 103.583 324.969 103.272 324.855C101.379 324.219 98.4917 326.351 97.4294 327.802C97.3696 327.885 96.7936 328.88 96.442 329.516C96.5916 329.112 96.7412 328.723 96.8908 328.304C97.1901 327.481 97.4669 326.65 97.7736 325.753C97.9007 325.319 98.0354 324.877 98.17 324.436C98.3047 323.995 98.402 323.516 98.5217 323.052C98.7835 321.967 98.9855 320.86 99.1725 319.738C99.9206 320 102.472 320.898 103.811 320.808C105.15 320.718 106.803 320.224 107.551 319.042C107.741 318.771 107.873 318.462 107.936 318.137C107.999 317.811 107.993 317.476 107.918 317.152C107.844 316.829 107.702 316.526 107.502 316.261C107.302 315.996 107.048 315.777 106.758 315.616C104.978 314.696 101.798 316.364 100.534 317.643C100.452 317.726 99.6513 318.728 99.2174 319.289C99.3221 318.616 99.4343 317.943 99.5166 317.254C99.7635 315.272 99.9505 313.26 100.145 311.27C100.205 310.656 100.272 310.043 100.339 309.429C100.594 309.527 103.631 310.656 105.127 310.552C106.459 310.462 108.12 309.976 108.868 308.794C109.058 308.522 109.188 308.212 109.251 307.887C109.314 307.561 109.307 307.225 109.232 306.902C109.156 306.579 109.014 306.275 108.813 306.011C108.612 305.746 108.358 305.527 108.067 305.367C106.294 304.447 103.115 306.115 101.851 307.395C101.753 307.492 100.594 308.936 100.354 309.317C100.497 307.971 100.654 306.624 100.863 305.308C101.132 303.539 101.516 301.789 102.015 300.071C102.127 300.116 105.299 301.313 106.833 301.208C108.157 301.111 109.825 300.625 110.573 299.443C110.764 299.171 110.895 298.862 110.958 298.537C111.021 298.211 111.015 297.876 110.941 297.553C110.866 297.23 110.724 296.926 110.524 296.661C110.324 296.396 110.071 296.177 109.78 296.016C108 295.096 104.821 296.764 103.556 298.044C103.459 298.141 102.21 299.704 102.008 300.004C102.008 299.899 102.06 299.794 102.09 299.689C102.636 297.967 103.334 296.297 104.177 294.7C104.634 293.809 105.112 292.987 105.606 292.194C106.175 292.478 108.778 293.742 110.169 293.802C111.561 293.862 113.207 293.555 114.104 292.463C114.324 292.214 114.488 291.921 114.587 291.605C114.685 291.288 114.716 290.954 114.678 290.624C114.639 290.295 114.531 289.977 114.361 289.692C114.192 289.407 113.964 289.161 113.693 288.969C112.025 287.862 108.673 289.194 107.282 290.301C107.207 290.361 106.534 291.049 105.995 291.58C106.227 291.229 106.451 290.832 106.676 290.525C107.514 289.269 108.351 288.161 109.107 287.196C109.541 286.65 109.945 286.164 110.326 285.7C111.022 285.7 113.85 285.603 115.084 285.027C116.319 284.451 117.673 283.404 117.964 282.035C118.043 281.713 118.053 281.378 117.994 281.052C117.935 280.726 117.809 280.416 117.623 280.141C117.437 279.867 117.195 279.635 116.914 279.46C116.632 279.285 116.318 279.171 115.989 279.125C114 278.915 111.643 281.638 110.917 283.261C110.85 283.404 110.124 285.723 110.169 285.723H110.214C109.833 286.149 109.466 286.605 109.017 287.122C108.269 288.079 107.364 289.164 106.504 290.406C105.555 291.737 104.686 293.123 103.9 294.558C103.002 296.154 102.251 297.83 101.656 299.562C101.656 299.562 101.656 299.607 101.656 299.63C101.656 299.046 101.656 297.385 101.619 297.281C101.394 295.508 99.9131 292.231 97.9456 291.864C97.6162 291.812 97.2794 291.831 96.9576 291.919C96.6358 292.006 96.3363 292.161 96.0789 292.374C95.8215 292.586 95.612 292.85 95.4644 293.149C95.3168 293.448 95.2344 293.775 95.2226 294.109C95.1029 295.515 96.1203 296.922 97.1152 297.849C98.2374 298.852 101.349 299.817 101.604 299.891C101.047 301.671 100.608 303.485 100.287 305.322C100.1 306.392 99.943 307.47 99.7934 308.562C99.7934 308.053 99.7934 307.597 99.7934 307.537C99.5615 305.764 98.0803 302.487 96.1128 302.121C95.7833 302.069 95.4466 302.087 95.1248 302.175C94.803 302.263 94.5035 302.418 94.246 302.63C93.9886 302.842 93.7792 303.106 93.6316 303.405C93.484 303.705 93.4016 304.032 93.3898 304.365C93.2701 305.771 94.295 307.178 95.2824 308.068C96.2699 308.958 98.9256 309.848 99.6288 310.073L99.4717 311.322C99.2323 313.327 99.0004 315.324 98.7236 317.307C98.6264 317.995 98.4992 318.668 98.3795 319.349C98.3795 318.9 98.3795 318.519 98.3795 318.459C98.1551 316.693 96.6739 313.409 94.7064 313.043C94.3773 312.993 94.0414 313.013 93.7206 313.102C93.3998 313.191 93.1013 313.346 92.8444 313.558C92.5876 313.769 92.3782 314.033 92.2298 314.331C92.0815 314.629 91.9975 314.954 91.9834 315.287C91.8637 316.686 92.8811 318.1 93.876 318.983C94.871 319.865 97.2649 320.681 98.0952 320.95C97.9531 321.638 97.8035 322.326 97.6314 322.985C97.5043 323.434 97.4145 323.875 97.2574 324.316C97.1003 324.758 96.9731 325.199 96.8385 325.633C96.5392 326.456 96.2325 327.309 95.9183 328.109C95.7088 328.663 95.4919 329.186 95.275 329.718C95.3872 329.037 95.5667 327.69 95.5742 327.571C95.5536 325.993 95.1286 324.448 94.3398 323.082C94.355 322.908 94.355 322.733 94.3398 322.558C94.2985 322.229 94.1881 321.911 94.0158 321.627C93.8435 321.343 93.6133 321.098 93.3401 320.909C93.067 320.72 92.757 320.591 92.4304 320.529C92.1038 320.468 91.7679 320.476 91.4448 320.554C89.5147 321.062 88.2953 324.451 88.2055 326.231C88.2055 326.336 88.2654 327.488 88.3178 328.206C88.2205 327.787 88.1307 327.384 88.026 326.95C87.824 326.097 87.5996 325.252 87.3602 324.339L86.9562 323.015C86.8366 322.573 86.6495 322.117 86.4924 321.668C86.1109 320.621 85.6695 319.581 85.2057 318.549C85.9538 318.369 88.602 317.696 89.6942 316.88C90.7864 316.065 91.8188 314.606 91.8188 313.215C91.8283 312.883 91.7677 312.553 91.6411 312.246C91.5146 311.939 91.3248 311.662 91.0841 311.434C90.8435 311.205 90.5574 311.03 90.2444 310.919C89.9315 310.808 89.5987 310.765 89.2678 310.791C87.2854 311.008 85.5274 314.172 85.1982 315.915C85.1982 316.028 85.0561 317.307 85.0112 318.018C84.7269 317.397 84.4427 316.776 84.136 316.155C83.2457 314.367 82.2957 312.586 81.3531 310.806C81.0613 310.26 80.7771 309.706 80.4928 309.16C80.7621 309.1 83.919 308.367 85.1085 307.455C86.1708 306.647 87.2929 305.323 87.2779 303.909C87.2863 303.577 87.225 303.248 87.0979 302.942C86.9709 302.636 86.7809 302.36 86.5404 302.133C86.2998 301.905 86.0141 301.73 85.7017 301.62C85.3893 301.509 85.0572 301.466 84.727 301.492C82.7445 301.702 80.9865 304.866 80.6574 306.617C80.6574 306.744 80.4629 308.592 80.4404 309.063C79.8195 307.859 79.2061 306.654 78.6525 305.442C77.895 303.807 77.2429 302.126 76.7 300.408C76.8272 300.408 80.1262 299.66 81.3456 298.694C82.4004 297.879 83.5225 296.555 83.515 295.149C83.5234 294.816 83.4619 294.486 83.3345 294.179C83.207 293.872 83.0165 293.596 82.7753 293.367C82.5341 293.139 82.2475 292.963 81.9342 292.853C81.6209 292.742 81.2878 292.698 80.9566 292.725C78.9742 292.942 77.2162 296.106 76.8945 297.849C76.8945 297.991 76.685 299.974 76.6776 300.333C76.6776 300.236 76.6027 300.138 76.5728 300.034C76.079 298.297 75.741 296.519 75.5629 294.722C75.4507 293.727 75.3983 292.777 75.3759 291.842C76.0043 291.767 78.8769 291.386 80.0664 290.668C81.2558 289.949 82.4603 288.782 82.6099 287.376C82.655 287.049 82.6314 286.717 82.5405 286.4C82.4496 286.084 82.2935 285.789 82.0821 285.536C81.8708 285.284 81.6089 285.078 81.3133 284.932C81.0177 284.786 80.6949 284.704 80.3656 284.69C78.3682 284.69 76.311 287.645 75.7574 289.336C75.7574 289.433 75.5255 290.406 75.3908 291.116C75.3908 290.69 75.3908 290.264 75.3908 289.86C75.3908 288.363 75.4881 286.964 75.5779 285.738C75.6377 285.042 75.705 284.414 75.7798 283.83C76.3559 283.434 78.6675 281.803 79.3781 280.636C80.0888 279.469 80.6349 277.86 80.1262 276.544C80.0144 276.231 79.8382 275.946 79.609 275.707C79.3798 275.467 79.1028 275.278 78.7959 275.153C78.489 275.027 78.1591 274.967 77.8277 274.978C77.4962 274.988 77.1706 275.068 76.8721 275.212C75.0991 276.125 74.6278 279.701 74.927 281.459C74.927 281.608 75.6228 283.942 75.6751 283.92C75.6003 284.481 75.5255 285.087 75.4507 285.753C75.331 286.972 75.2038 288.356 75.1664 289.875C75.1116 291.509 75.1516 293.145 75.2861 294.774C75.4283 296.598 75.7312 298.405 76.1913 300.176V300.243C75.8771 299.749 74.9495 298.395 74.8672 298.298C73.7002 296.951 70.6555 295.029 68.8152 295.814C68.5134 295.952 68.2441 296.153 68.0247 296.402C67.8054 296.651 67.641 296.943 67.5422 297.26C67.4434 297.577 67.4125 297.911 67.4513 298.241C67.4902 298.57 67.5981 298.888 67.7679 299.173C68.3888 300.393 70.0121 300.991 71.3287 301.186Z" fill="#004E9E"/>
<path d="M105.584 291.804C105.584 291.804 106.219 289.47 106.242 289.32C106.489 287.555 105.928 283.994 104.125 283.126C103.822 282.99 103.495 282.919 103.163 282.918C102.831 282.917 102.503 282.986 102.2 283.12C101.896 283.254 101.624 283.45 101.402 283.696C101.179 283.942 101.011 284.232 100.908 284.547C100.429 285.872 101.035 287.502 101.761 288.617C102.614 289.919 105.584 291.796 105.584 291.804Z" fill="#004E9E"/>
<path d="M244.211 297.122C245.461 297.668 248.498 297.593 248.498 297.593C248.498 297.593 247.847 295.603 247.787 295.484C247.121 294.092 245.012 291.788 243.299 292.02C243.014 292.065 242.743 292.17 242.502 292.328C242.261 292.485 242.056 292.692 241.901 292.934C241.745 293.177 241.643 293.449 241.6 293.734C241.558 294.018 241.575 294.309 241.653 294.586C241.937 295.776 243.156 296.651 244.211 297.122Z" fill="#004E9E"/>
<path d="M245.266 305.927C246.553 306.114 249.268 305.328 249.478 305.261C249.927 306.813 250.477 308.335 251.123 309.817C251.497 310.684 251.871 311.537 252.32 312.398C252.066 312.031 251.849 311.709 251.812 311.649C250.794 310.475 248.153 308.814 246.575 309.487C246.314 309.608 246.081 309.781 245.891 309.997C245.702 310.213 245.56 310.466 245.474 310.741C245.389 311.015 245.362 311.305 245.396 311.59C245.43 311.875 245.523 312.151 245.67 312.398C246.253 313.475 247.667 314.006 248.812 314.171C249.956 314.335 252.298 313.714 252.911 313.542L253.398 314.522C254.146 316.086 254.968 317.642 255.702 319.198C255.956 319.744 256.188 320.29 256.45 320.836L256.008 320.208C254.991 319.041 252.35 317.372 250.772 318.046C250.51 318.166 250.276 318.339 250.085 318.556C249.895 318.772 249.752 319.027 249.667 319.302C249.582 319.577 249.555 319.868 249.59 320.154C249.624 320.44 249.718 320.716 249.867 320.963C250.45 322.033 251.864 322.564 253.009 322.729C254.153 322.893 256.263 322.332 256.996 322.13C257.22 322.699 257.445 323.267 257.632 323.828C257.759 324.21 257.901 324.576 258.006 324.965C258.11 325.354 258.215 325.713 258.327 326.117C258.499 326.866 258.686 327.614 258.844 328.362C258.956 328.87 259.053 329.349 259.15 329.858C258.903 329.312 258.402 328.249 258.342 328.167C257.519 326.858 255.156 324.816 253.48 325.242C253.203 325.32 252.945 325.455 252.724 325.64C252.503 325.824 252.323 326.053 252.197 326.311C252.071 326.57 252 326.852 251.99 327.14C251.981 327.427 252.032 327.714 252.141 327.98C252.56 329.132 253.869 329.865 254.976 330.224C256.195 330.598 258.888 330.262 259.225 330.224C259.382 331.025 259.532 331.81 259.659 332.551C259.951 334.189 260.168 335.656 260.332 336.897H261.469C261.267 335.618 261.013 334.085 260.669 332.364C260.512 331.549 260.325 330.673 260.123 329.783C260.931 329.457 261.721 329.085 262.487 328.668C263.531 329.571 264.694 330.326 265.943 330.913C265.629 331.661 265.322 332.409 265.023 333.097C264.394 334.541 263.796 335.828 263.272 336.912H264.499C264.948 335.91 265.449 334.765 265.995 333.494C266.317 332.745 266.639 331.893 266.96 331.04C267.289 331.107 269.953 331.653 271.194 331.369C272.324 331.115 273.686 330.479 274.187 329.364C274.313 329.106 274.384 328.823 274.395 328.535C274.406 328.248 274.356 327.961 274.249 327.694C274.141 327.426 273.979 327.185 273.773 326.984C273.566 326.783 273.32 326.628 273.05 326.529C271.411 325.983 268.905 327.845 267.985 329.087C267.933 329.162 267.432 330.022 267.125 330.583C267.26 330.232 267.387 329.895 267.521 329.529C267.783 328.818 268.023 328.1 268.269 327.322C268.382 326.94 268.494 326.574 268.614 326.177C268.733 325.781 268.816 325.377 268.92 324.973C269.145 324.038 269.324 323.08 269.481 322.108C270.11 322.332 272.347 323.11 273.499 323.028C274.651 322.946 276.102 322.527 276.768 321.532C276.936 321.295 277.053 321.026 277.11 320.742C277.167 320.457 277.163 320.163 277.098 319.88C277.033 319.598 276.908 319.332 276.733 319.101C276.557 318.869 276.334 318.678 276.079 318.539C274.538 317.746 271.778 319.205 270.686 320.297C270.611 320.365 269.938 321.24 269.541 321.726C269.631 321.135 269.728 320.552 269.803 319.961C270.013 318.24 270.177 316.497 270.349 314.724C270.401 314.193 270.454 313.662 270.514 313.131C270.738 313.213 273.371 314.2 274.666 314.103C275.818 314.028 277.261 313.602 277.935 312.607C278.103 312.37 278.219 312.101 278.276 311.816C278.332 311.531 278.327 311.237 278.261 310.954C278.196 310.671 278.07 310.405 277.894 310.174C277.718 309.944 277.495 309.753 277.239 309.615C275.743 308.822 272.945 310.28 271.845 311.373C271.763 311.455 270.761 312.712 270.521 313.041C270.648 311.874 270.783 310.707 270.963 309.57C271.193 308.023 271.525 306.494 271.958 304.991C272.062 305.029 274.808 306.069 276.132 305.971C277.284 305.897 278.735 305.47 279.401 304.475C279.57 304.239 279.686 303.97 279.743 303.685C279.8 303.4 279.796 303.107 279.731 302.824C279.666 302.541 279.541 302.275 279.366 302.044C279.19 301.813 278.968 301.622 278.713 301.483C277.172 300.69 274.411 302.149 273.319 303.241C273.229 303.331 272.152 304.677 271.972 304.939C271.972 304.849 272.017 304.76 272.04 304.67C272.517 303.178 273.126 301.731 273.858 300.346C274.247 299.598 274.666 298.85 275.092 298.169C275.586 298.416 277.845 299.516 279.049 299.56C280.254 299.605 281.683 299.351 282.461 298.401C282.65 298.184 282.791 297.93 282.876 297.656C282.961 297.381 282.987 297.092 282.953 296.806C282.92 296.521 282.826 296.246 282.68 295.998C282.533 295.751 282.336 295.538 282.102 295.371C280.658 294.414 277.755 295.566 276.543 296.531C276.483 296.583 275.87 297.189 275.436 297.638C275.631 297.331 275.825 297.009 276.02 296.725C276.768 295.633 277.516 294.675 278.129 293.838C278.503 293.359 278.877 292.94 279.184 292.551C279.79 292.551 282.244 292.461 283.313 291.96C284.383 291.459 285.558 290.553 285.812 289.356C285.88 289.077 285.888 288.786 285.836 288.503C285.784 288.22 285.674 287.952 285.512 287.714C285.349 287.476 285.139 287.275 284.895 287.124C284.65 286.973 284.376 286.874 284.091 286.835C282.371 286.648 280.351 289.005 279.7 290.419C279.64 290.546 279.012 292.551 279.042 292.551H279.079C278.758 292.917 278.406 293.299 278.039 293.763C277.366 294.593 276.618 295.536 275.863 296.613C275.044 297.767 274.295 298.969 273.618 300.211C272.849 301.601 272.203 303.055 271.688 304.558C271.691 304.575 271.691 304.593 271.688 304.61C271.688 304.101 271.688 302.68 271.688 302.575C271.486 301.079 270.192 298.191 268.494 297.877C268.21 297.834 267.92 297.851 267.643 297.927C267.366 298.003 267.108 298.136 266.886 298.318C266.664 298.5 266.482 298.726 266.353 298.983C266.225 299.24 266.151 299.52 266.137 299.807C266.033 301.027 266.885 302.246 267.776 303.017C268.748 303.884 271.449 304.722 271.666 304.79C271.179 306.331 270.797 307.903 270.521 309.495C270.357 310.423 270.222 311.358 270.095 312.3C270.095 311.859 270.095 311.47 270.095 311.418C269.893 309.884 268.599 307.034 266.908 306.72C266.623 306.675 266.333 306.691 266.055 306.766C265.777 306.842 265.518 306.975 265.295 307.157C265.072 307.339 264.89 307.566 264.761 307.823C264.631 308.08 264.557 308.362 264.544 308.65C264.439 309.869 265.329 311.088 266.19 311.851C267.05 312.614 269.347 313.4 269.93 313.594L269.796 314.679C269.586 316.415 269.384 318.15 269.137 319.848C269.055 320.447 268.943 321.03 268.838 321.614C268.838 321.225 268.838 320.866 268.838 320.866C268.643 319.37 267.342 316.482 265.651 316.168C265.367 316.123 265.076 316.139 264.798 316.215C264.52 316.29 264.261 316.423 264.038 316.605C263.815 316.787 263.633 317.014 263.504 317.272C263.374 317.529 263.301 317.81 263.287 318.098C263.19 319.317 264.073 320.537 264.933 321.3C266.057 322.055 267.291 322.63 268.591 323.005C268.464 323.604 268.337 324.202 268.187 324.771C268.082 325.16 268 325.519 267.865 325.93C267.731 326.342 267.619 326.678 267.499 327.067C267.237 327.778 266.975 328.519 266.706 329.214C266.519 329.693 266.332 330.15 266.145 330.613C266.242 330.015 266.399 328.848 266.407 328.751C266.387 327.391 266.018 326.06 265.337 324.883C265.348 324.731 265.348 324.579 265.337 324.427C265.301 324.142 265.205 323.867 265.055 323.621C264.906 323.376 264.707 323.164 264.471 323.001C264.234 322.837 263.966 322.725 263.684 322.671C263.401 322.618 263.111 322.625 262.831 322.691C261.155 323.133 260.093 326.073 260.018 327.614C260.018 327.703 260.07 328.698 260.123 329.327C260.033 328.96 259.958 328.579 259.868 328.235C259.689 327.486 259.494 326.738 259.285 325.99C259.173 325.616 259.053 325.242 258.941 324.846C258.829 324.449 258.672 324.098 258.537 323.679C258.2 322.773 257.826 321.868 257.422 320.971C258.073 320.821 260.362 320.222 261.282 319.527C262.202 318.831 263.168 317.672 263.16 316.452C263.169 316.161 263.116 315.872 263.004 315.604C262.892 315.335 262.725 315.093 262.512 314.894C262.3 314.696 262.048 314.544 261.773 314.45C261.497 314.357 261.205 314.322 260.916 314.35C259.195 314.537 257.699 317.283 257.392 318.794C257.392 318.891 257.265 320.006 257.228 320.612C256.981 320.08 256.734 319.534 256.48 319.003C255.732 317.455 254.879 315.906 254.063 314.365C253.809 313.886 253.57 313.415 253.315 312.944C253.54 312.884 256.308 312.255 257.317 311.447C258.23 310.744 259.203 309.592 259.195 308.373C259.204 308.082 259.151 307.793 259.039 307.524C258.927 307.256 258.76 307.014 258.548 306.815C258.335 306.616 258.083 306.465 257.808 306.371C257.533 306.277 257.24 306.243 256.951 306.271C255.23 306.458 253.734 309.203 253.42 310.714C253.42 310.827 253.255 312.427 253.24 312.839C252.694 311.792 252.163 310.752 251.684 309.697C251.027 308.281 250.462 306.824 249.994 305.336C250.098 305.336 252.986 304.655 254.018 303.839C254.939 303.136 255.904 301.984 255.896 300.765C255.905 300.474 255.852 300.185 255.74 299.916C255.628 299.648 255.461 299.406 255.249 299.207C255.036 299.008 254.784 298.857 254.509 298.763C254.234 298.669 253.941 298.635 253.652 298.663C251.931 298.85 250.435 301.595 250.128 303.106C250.128 303.226 249.949 304.954 249.941 305.261C249.941 305.179 249.874 305.089 249.852 305.006C249.424 303.499 249.131 301.957 248.976 300.398C248.879 299.538 248.834 298.708 248.812 297.9C249.358 297.832 251.849 297.503 252.874 296.882C253.899 296.261 254.961 295.244 255.081 294.025C255.121 293.74 255.1 293.45 255.021 293.173C254.941 292.897 254.804 292.64 254.618 292.421C254.432 292.201 254.202 292.023 253.943 291.899C253.683 291.774 253.401 291.706 253.113 291.698C251.378 291.698 249.597 294.256 249.118 295.73C249.118 295.812 248.916 296.65 248.804 297.264C248.804 296.905 248.804 296.516 248.804 296.179C248.804 294.87 248.894 293.673 248.976 292.611C249.021 292.005 249.081 291.459 249.141 290.95C249.642 290.606 251.647 289.192 252.26 288.182C252.874 287.172 253.36 285.773 252.911 284.636C252.814 284.365 252.661 284.117 252.462 283.909C252.263 283.701 252.022 283.537 251.755 283.427C251.489 283.318 251.202 283.266 250.914 283.274C250.626 283.283 250.343 283.352 250.083 283.477C248.55 284.27 248.146 287.367 248.4 288.893C248.4 289.027 248.999 291.047 249.029 291.032C248.961 291.518 248.894 292.042 248.834 292.618C248.729 293.68 248.617 294.862 248.587 296.194C248.536 297.611 248.568 299.03 248.685 300.443C248.807 302.027 249.072 303.597 249.478 305.134C249.475 305.151 249.475 305.169 249.478 305.186C249.201 304.76 248.4 303.585 248.333 303.503C247.316 302.336 244.675 300.668 243.096 301.341C242.835 301.462 242.602 301.636 242.412 301.853C242.223 302.069 242.081 302.323 241.995 302.598C241.91 302.873 241.883 303.163 241.917 303.449C241.951 303.735 242.044 304.011 242.191 304.258C242.707 305.231 244.121 305.762 245.266 305.927Z" fill="#004E9E"/>
<path d="M274.965 297.789C274.965 297.789 275.511 295.769 275.534 295.642C275.743 294.146 275.257 291.019 273.701 290.27C273.438 290.152 273.154 290.091 272.866 290.09C272.578 290.089 272.294 290.149 272.03 290.265C271.767 290.381 271.531 290.552 271.338 290.766C271.145 290.979 271 291.231 270.911 291.505C270.492 292.649 271.023 294.063 271.659 295.028C272.384 296.173 274.958 297.789 274.965 297.789Z" fill="#004E9E"/>
<path d="M210.158 304.74C211.181 305.008 212.237 305.124 213.293 305.084C213.293 305.084 212.814 303.625 212.777 303.543C212.29 302.518 210.742 300.835 209.485 301C209.276 301.033 209.077 301.11 208.9 301.226C208.723 301.341 208.573 301.493 208.459 301.672C208.346 301.85 208.271 302.05 208.24 302.259C208.209 302.468 208.223 302.681 208.281 302.885C208.442 303.311 208.693 303.697 209.017 304.017C209.341 304.337 209.731 304.584 210.158 304.74Z" fill="#004E9E"/>
<path d="M210.929 311.181C211.975 311.173 213.013 311.009 214.011 310.695C214.338 311.832 214.74 312.947 215.215 314.031C215.495 314.659 215.786 315.288 216.091 315.916C215.911 315.647 215.746 315.415 215.717 315.385C214.968 314.525 213.046 313.305 211.879 313.807C211.688 313.894 211.517 314.02 211.378 314.178C211.239 314.335 211.135 314.52 211.072 314.72C211.009 314.921 210.989 315.132 211.014 315.341C211.038 315.549 211.106 315.751 211.213 315.931C211.478 316.302 211.821 316.61 212.218 316.833C212.614 317.057 213.055 317.191 213.51 317.225C214.525 317.229 215.534 317.075 216.502 316.769L216.861 317.517C217.437 318.662 218.013 319.761 218.544 320.936C218.731 321.332 218.903 321.736 219.075 322.14C218.918 321.901 218.776 321.706 218.754 321.676C218.006 320.824 216.076 319.604 214.916 320.098C214.724 320.185 214.552 320.312 214.413 320.47C214.273 320.628 214.168 320.813 214.105 321.015C214.043 321.216 214.023 321.428 214.048 321.638C214.073 321.847 214.142 322.049 214.25 322.23C214.516 322.6 214.859 322.907 215.256 323.13C215.653 323.354 216.093 323.488 216.547 323.524C217.537 323.531 218.521 323.382 219.464 323.083C219.629 323.502 219.794 323.913 219.936 324.325C220.026 324.609 220.13 324.871 220.205 325.163C220.28 325.454 220.362 325.724 220.437 326.008C220.572 326.546 220.706 327.108 220.818 327.639C220.901 328.005 220.976 328.387 221.043 328.716C220.863 328.312 220.489 327.534 220.452 327.474C219.846 326.517 218.118 325.02 216.891 325.335C216.688 325.392 216.5 325.491 216.338 325.626C216.176 325.761 216.045 325.928 215.952 326.118C215.86 326.307 215.808 326.514 215.801 326.724C215.794 326.935 215.832 327.144 215.911 327.339C216.119 327.745 216.413 328.1 216.772 328.38C217.131 328.66 217.547 328.859 217.991 328.963C219.02 329.121 220.066 329.121 221.095 328.963C221.215 329.554 221.327 330.13 221.417 330.668C221.626 331.865 221.791 332.913 221.911 333.855H222.734C222.591 332.913 222.397 331.791 222.15 330.534C222.03 329.935 221.896 329.299 221.746 328.641C222.34 328.404 222.92 328.132 223.482 327.826C224.243 328.482 225.092 329.031 226.003 329.457C225.778 330.01 225.554 330.556 225.337 331.057C224.873 332.112 224.439 333.055 224.05 333.855H224.978C225.314 333.107 225.674 332.277 226.055 331.349C226.287 330.788 226.526 330.182 226.758 329.554C227.775 329.793 228.822 329.874 229.863 329.793C230.315 329.718 230.745 329.546 231.124 329.287C231.503 329.029 231.82 328.691 232.055 328.297C232.148 328.108 232.201 327.902 232.21 327.691C232.218 327.481 232.182 327.271 232.104 327.075C232.025 326.879 231.906 326.702 231.755 326.556C231.603 326.409 231.423 326.297 231.224 326.225C230.02 325.821 228.187 327.182 227.484 328.095C227.447 328.147 227.08 328.776 226.856 329.18C226.953 328.925 227.05 328.679 227.147 328.432C227.334 327.915 227.514 327.384 227.701 326.816C227.783 326.539 227.873 326.262 227.955 325.978C228.038 325.694 228.105 325.394 228.18 325.103C228.344 324.414 228.479 323.711 228.591 323.001C229.531 323.373 230.523 323.6 231.531 323.674C231.987 323.674 232.438 323.574 232.851 323.382C233.265 323.189 233.631 322.908 233.925 322.559C234.047 322.387 234.13 322.19 234.171 321.983C234.211 321.776 234.207 321.562 234.159 321.357C234.111 321.151 234.02 320.958 233.892 320.79C233.764 320.622 233.602 320.483 233.416 320.382C232.294 319.806 230.274 320.876 229.474 321.669C229.421 321.721 228.913 322.357 228.636 322.716C228.703 322.29 228.771 321.863 228.823 321.422C228.98 320.165 229.1 318.894 229.227 317.622C229.264 317.225 229.302 316.836 229.347 316.455C230.318 316.842 231.342 317.082 232.384 317.166C232.84 317.162 233.29 317.06 233.704 316.866C234.117 316.673 234.483 316.392 234.778 316.043C234.898 315.871 234.981 315.675 235.02 315.469C235.06 315.262 235.056 315.05 235.008 314.845C234.96 314.64 234.869 314.448 234.742 314.281C234.615 314.113 234.454 313.975 234.269 313.874C233.147 313.29 231.127 314.36 230.327 315.161C230.259 315.22 229.526 316.141 229.354 316.38C229.444 315.527 229.541 314.674 229.676 313.837C229.853 312.704 230.103 311.585 230.424 310.485C231.401 310.886 232.432 311.139 233.484 311.233C233.939 311.231 234.388 311.129 234.801 310.935C235.213 310.741 235.578 310.46 235.87 310.111C235.992 309.939 236.076 309.743 236.117 309.536C236.158 309.329 236.155 309.116 236.107 308.91C236.06 308.705 235.97 308.511 235.842 308.343C235.715 308.175 235.554 308.036 235.369 307.934C234.239 307.358 232.219 308.428 231.419 309.228C231.359 309.288 230.566 310.276 230.439 310.463C230.439 310.403 230.439 310.335 230.491 310.268C230.835 309.175 231.279 308.116 231.815 307.104C232.1 306.543 232.406 306.019 232.721 305.518C233.628 306.002 234.605 306.345 235.616 306.535C236.069 306.581 236.527 306.529 236.958 306.382C237.389 306.235 237.784 305.996 238.114 305.682C238.259 305.524 238.367 305.337 238.433 305.133C238.499 304.929 238.52 304.713 238.495 304.501C238.47 304.288 238.4 304.083 238.289 303.9C238.178 303.716 238.029 303.559 237.852 303.438C236.79 302.735 234.666 303.58 233.783 304.283C233.738 304.321 233.289 304.762 232.967 305.091C233.11 304.867 233.259 304.635 233.401 304.426C233.932 303.625 234.464 302.929 234.942 302.309L235.69 301.366C236.704 301.376 237.713 301.232 238.683 300.94C239.108 300.775 239.492 300.519 239.808 300.189C240.123 299.859 240.362 299.464 240.508 299.032C240.559 298.828 240.567 298.615 240.531 298.408C240.494 298.2 240.415 298.003 240.297 297.829C240.179 297.654 240.025 297.507 239.846 297.396C239.668 297.285 239.467 297.212 239.259 297.184C237.995 297.049 236.498 298.778 236.035 299.81C236.035 299.9 235.533 301.373 235.563 301.373C235.324 301.65 235.069 301.942 234.815 302.264C234.329 302.87 233.775 303.558 233.222 304.351C232.623 305.198 232.072 306.077 231.568 306.984C231.028 307.988 230.575 309.037 230.214 310.119V310.156C230.214 309.789 230.214 308.75 230.214 308.66C230.065 307.538 229.122 305.458 227.88 305.226C227.672 305.192 227.459 305.202 227.255 305.257C227.051 305.311 226.861 305.407 226.697 305.54C226.533 305.673 226.4 305.839 226.304 306.027C226.209 306.215 226.155 306.422 226.145 306.632C226.164 307.088 226.281 307.534 226.489 307.939C226.697 308.345 226.991 308.7 227.349 308.981C228.227 309.554 229.185 309.993 230.192 310.283C229.838 311.41 229.561 312.56 229.362 313.724C229.242 314.405 229.137 315.086 229.047 315.782C229.047 315.46 229.047 315.168 229.047 315.131C228.898 314.009 227.955 311.921 226.713 311.697C226.505 311.663 226.291 311.674 226.087 311.728C225.882 311.783 225.692 311.88 225.528 312.014C225.364 312.147 225.23 312.314 225.135 312.503C225.04 312.692 224.987 312.9 224.978 313.111C224.994 313.567 225.11 314.013 225.319 314.419C225.527 314.825 225.822 315.181 226.182 315.46C227.03 316.021 227.958 316.45 228.935 316.732C228.935 316.993 228.868 317.263 228.838 317.525C228.681 318.796 228.539 320.068 228.352 321.31C228.292 321.744 228.21 322.178 228.135 322.604C228.135 322.32 228.135 322.08 228.135 322.043C227.993 320.921 227.05 318.834 225.801 318.602C225.592 318.569 225.38 318.58 225.176 318.636C224.973 318.691 224.783 318.788 224.62 318.922C224.457 319.055 224.324 319.222 224.229 319.41C224.135 319.599 224.082 319.805 224.073 320.016C224.091 320.471 224.208 320.917 224.416 321.323C224.624 321.728 224.918 322.084 225.277 322.365C226.1 322.915 227.004 323.334 227.955 323.607C227.858 324.048 227.768 324.482 227.656 324.901C227.581 325.185 227.521 325.469 227.424 325.746L227.155 326.584C226.96 327.108 226.773 327.646 226.571 328.155C226.437 328.506 226.302 328.836 226.167 329.172C226.235 328.738 226.347 327.886 226.354 327.811C226.348 326.82 226.091 325.847 225.606 324.983C225.621 324.871 225.621 324.758 225.606 324.646C225.58 324.437 225.511 324.236 225.402 324.056C225.293 323.876 225.147 323.721 224.974 323.601C224.801 323.48 224.605 323.398 224.398 323.359C224.191 323.32 223.978 323.326 223.773 323.375C222.554 323.704 221.776 325.851 221.716 326.98C221.716 327.048 221.754 327.773 221.791 328.237C221.731 327.968 221.671 327.706 221.604 327.437C221.477 326.898 221.335 326.359 221.178 325.776C221.095 325.507 221.013 325.222 220.923 324.938C220.833 324.654 220.729 324.37 220.631 324.085C220.392 323.419 220.108 322.761 219.816 322.103C220.807 321.899 221.761 321.543 222.644 321.048C223.021 320.794 223.338 320.463 223.576 320.075C223.813 319.688 223.965 319.255 224.02 318.804C224.026 318.593 223.988 318.383 223.907 318.189C223.826 317.994 223.705 317.818 223.552 317.673C223.399 317.529 223.217 317.418 223.018 317.348C222.819 317.279 222.607 317.252 222.397 317.27C221.14 317.405 220.04 319.41 219.816 320.517C219.816 320.592 219.726 321.4 219.696 321.849C219.517 321.459 219.337 321.063 219.143 320.667C218.582 319.537 217.976 318.422 217.377 317.278L216.831 316.238C217.854 316.022 218.84 315.657 219.756 315.153C220.135 314.901 220.454 314.57 220.691 314.183C220.929 313.795 221.08 313.36 221.133 312.909C221.139 312.699 221.1 312.49 221.02 312.296C220.94 312.101 220.819 311.926 220.667 311.781C220.515 311.637 220.333 311.526 220.135 311.456C219.937 311.386 219.726 311.358 219.517 311.375C218.253 311.51 217.16 313.515 216.936 314.622C216.936 314.712 216.809 315.879 216.801 316.178C216.405 315.43 216.016 314.682 215.664 313.881C215.179 312.846 214.764 311.778 214.422 310.687C215.454 310.472 216.447 310.104 217.37 309.595C217.749 309.344 218.069 309.013 218.307 308.625C218.545 308.238 218.695 307.803 218.746 307.351C218.753 307.139 218.716 306.929 218.635 306.733C218.555 306.537 218.434 306.361 218.281 306.215C218.128 306.07 217.945 305.958 217.745 305.888C217.546 305.818 217.334 305.791 217.123 305.81C215.866 305.952 214.774 307.957 214.542 309.064C214.542 309.153 214.415 310.41 214.407 310.642C214.388 310.576 214.366 310.511 214.34 310.448C214.028 309.344 213.816 308.215 213.704 307.074C213.629 306.445 213.599 305.839 213.577 305.256C214.607 305.16 215.616 304.907 216.569 304.508C216.974 304.298 217.329 304.003 217.608 303.643C217.887 303.282 218.084 302.865 218.185 302.421C218.215 302.212 218.2 301.999 218.141 301.796C218.083 301.593 217.982 301.405 217.846 301.244C217.709 301.083 217.541 300.953 217.35 300.861C217.16 300.77 216.952 300.72 216.741 300.715C215.477 300.715 214.168 302.585 213.824 303.663C213.824 303.722 213.674 304.336 213.592 304.792C213.592 304.523 213.592 304.246 213.592 303.992C213.592 303.034 213.652 302.159 213.712 301.381C213.749 300.94 213.794 300.536 213.839 300.169C214.655 299.606 215.384 298.926 216.001 298.149C216.263 297.777 216.441 297.352 216.523 296.903C216.604 296.455 216.587 295.994 216.472 295.553C216.402 295.354 216.292 295.172 216.147 295.019C216.002 294.865 215.826 294.745 215.631 294.664C215.436 294.584 215.226 294.545 215.015 294.551C214.804 294.558 214.597 294.609 214.407 294.7C213.285 295.284 212.986 297.551 213.173 298.665C213.173 298.763 213.614 300.244 213.637 300.229C213.592 300.588 213.54 300.977 213.495 301.396C213.42 302.144 213.338 303.049 213.315 304.014C213.282 305.05 213.307 306.086 213.39 307.119C213.482 308.278 213.674 309.427 213.966 310.552C213.966 310.552 213.966 310.552 213.966 310.59C213.764 310.276 213.181 309.415 213.128 309.355C212.38 308.503 210.45 307.283 209.283 307.777C209.091 307.864 208.919 307.991 208.78 308.149C208.64 308.307 208.535 308.493 208.472 308.694C208.409 308.895 208.39 309.108 208.415 309.317C208.44 309.526 208.509 309.728 208.617 309.909C208.887 310.276 209.233 310.58 209.633 310.8C210.032 311.02 210.474 311.15 210.929 311.181Z" fill="#004E9E"/>
<path d="M232.661 305.226C232.661 305.226 233.065 303.73 233.08 303.648C233.237 302.533 232.878 300.274 231.733 299.72C231.541 299.635 231.334 299.59 231.124 299.59C230.914 299.59 230.706 299.634 230.514 299.719C230.322 299.804 230.15 299.929 230.01 300.085C229.869 300.242 229.763 300.426 229.698 300.626C229.596 301.069 229.591 301.53 229.684 301.975C229.777 302.421 229.966 302.841 230.237 303.206C230.942 303.995 231.758 304.675 232.661 305.226Z" fill="#004E9E"/>
<path d="M273.91 43.6068C273.287 46.0684 273.446 48.6627 274.364 51.03C275.283 53.3973 276.915 55.4202 279.034 56.818C281.154 58.2158 283.656 58.9192 286.194 58.8308C288.732 58.7423 291.179 57.8663 293.196 56.3243L297.931 60.8577C297.809 61.3516 297.818 61.8687 297.958 62.3581C298.097 62.8474 298.361 63.292 298.724 63.648L309.01 73.7247C309.286 73.9924 309.613 74.2032 309.97 74.3448C310.328 74.4865 310.709 74.5564 311.094 74.5505C311.478 74.5446 311.858 74.463 312.211 74.3104C312.564 74.1578 312.883 73.9372 313.151 73.6612C313.419 73.3851 313.63 73.059 313.771 72.7015C313.913 72.344 313.983 71.9622 313.977 71.5777C313.971 71.1932 313.889 70.8136 313.737 70.4606C313.584 70.1077 313.364 69.7882 313.088 69.5205L302.779 59.4363C302.408 59.079 301.949 58.8258 301.448 58.7024C300.948 58.5789 300.424 58.5895 299.929 58.7331L295.298 54.2745C296.416 52.9051 297.218 51.3061 297.647 49.5915C298.04 48.0329 298.122 46.4122 297.889 44.8219C297.655 43.2316 297.111 41.7028 296.287 40.3229C295.463 38.9429 294.375 37.7388 293.085 36.7793C291.795 35.8198 290.33 35.1237 288.771 34.7308C287.212 34.3378 285.592 34.2557 284.001 34.4891C282.411 34.7225 280.882 35.2668 279.502 36.0911C278.122 36.9153 276.918 38.0032 275.959 39.2928C274.999 40.5823 274.303 42.0482 273.91 43.6068ZM295.522 49.0379C295.037 50.9651 293.992 52.7052 292.518 54.038C291.044 55.3709 289.208 56.2366 287.241 56.5258C285.275 56.815 283.268 56.5146 281.472 55.6626C279.677 54.8106 278.174 53.4453 277.155 51.7394C276.136 50.0335 275.645 48.0636 275.746 46.0788C275.846 44.0941 276.532 42.1837 277.719 40.5892C278.905 38.9948 280.537 37.7879 282.409 37.1213C284.281 36.4547 286.309 36.3582 288.236 36.8441C290.818 37.4972 293.035 39.148 294.401 41.4341C295.767 43.7202 296.17 46.4548 295.522 49.0379Z" stroke="#004E9E" stroke-miterlimit="10"/>
<path d="M47.6819 191.853C45.8264 192.297 44.1548 193.307 42.8989 194.743C41.6429 196.179 40.8649 197.97 40.6725 199.868C40.4802 201.767 40.883 203.677 41.8253 205.336C42.7676 206.995 44.2026 208.32 45.9314 209.127L44.5549 213.862C44.183 213.951 43.8409 214.137 43.5627 214.399C43.2845 214.661 43.0798 214.992 42.969 215.358L39.7896 225.734C39.6329 226.297 39.7016 226.898 39.9809 227.41C40.2602 227.923 40.7283 228.306 41.2858 228.48C41.8481 228.636 42.4493 228.568 42.9619 228.288C43.4745 228.009 43.8581 227.541 44.0312 226.983L47.1882 216.608C47.3005 216.236 47.3111 215.84 47.219 215.463C47.1269 215.085 46.9355 214.739 46.6645 214.461L48.026 209.807C49.3771 210.086 50.7734 210.057 52.1117 209.722C53.45 209.388 54.6961 208.757 55.7577 207.877C56.8193 206.996 57.6693 205.888 58.2447 204.634C58.8202 203.38 59.1065 202.013 59.0824 200.634C59.0582 199.255 58.7243 197.899 58.1053 196.666C57.4863 195.433 56.5981 194.356 55.5063 193.513C54.4145 192.669 53.1472 192.083 51.798 191.795C50.4488 191.508 49.0523 191.528 47.7118 191.853H47.6819ZM51.557 208.162C50.1031 208.507 48.5793 208.414 47.1783 207.894C45.7774 207.374 44.5622 206.449 43.6865 205.238C42.8107 204.028 42.3138 202.584 42.2585 201.091C42.2032 199.597 42.592 198.121 43.3758 196.848C44.1595 195.576 45.3031 194.565 46.6617 193.942C48.0203 193.32 49.533 193.114 51.0085 193.351C52.484 193.588 53.856 194.258 54.951 195.275C56.046 196.292 56.8148 197.611 57.1601 199.065C57.622 201.01 57.295 203.059 56.2506 204.763C55.2063 206.468 53.5295 207.69 51.5869 208.162H51.557Z" stroke="#004E9E" stroke-miterlimit="10"/>
<path d="M297.093 122.91H275.399C273.99 122.91 272.639 123.47 271.643 124.466C270.647 125.462 270.087 126.813 270.087 128.222V140.228C270.087 141.637 270.647 142.988 271.643 143.984C272.639 144.98 273.99 145.54 275.399 145.54H290.51L289.762 153.021L296.794 145.54H297.093C297.791 145.54 298.481 145.402 299.126 145.135C299.77 144.869 300.356 144.477 300.849 143.984C301.342 143.491 301.733 142.905 302 142.261C302.267 141.617 302.405 140.926 302.405 140.228V128.222C302.405 127.524 302.267 126.833 302 126.189C301.733 125.545 301.342 124.959 300.849 124.466C300.356 123.973 299.77 123.581 299.126 123.314C298.481 123.048 297.791 122.91 297.093 122.91Z" stroke="#004E9E" stroke-miterlimit="10"/>
<path d="M49.2528 151.336H63.9527C64.4252 151.336 64.8931 151.429 65.3297 151.61C65.7663 151.791 66.163 152.056 66.4971 152.39C66.8312 152.724 67.0963 153.121 67.2771 153.557C67.4579 153.994 67.551 154.462 67.551 154.934V163.066C67.551 163.538 67.4579 164.006 67.2771 164.443C67.0963 164.879 66.8312 165.276 66.4971 165.61C66.163 165.944 65.7663 166.209 65.3297 166.39C64.8931 166.571 64.4252 166.664 63.9527 166.664H53.7189L54.25 171.721L49.4548 166.664H49.2528C48.2985 166.664 47.3833 166.285 46.7085 165.61C46.0336 164.935 45.6545 164.02 45.6545 163.066V154.934C45.6545 153.98 46.0336 153.065 46.7085 152.39C47.3833 151.715 48.2985 151.336 49.2528 151.336Z" stroke="#004E9E" stroke-miterlimit="10"/>
<path d="M157.912 14.2578H172.612C173.566 14.2578 174.482 14.6369 175.157 15.3117C175.831 15.9865 176.21 16.9018 176.21 17.8561V25.9878C176.21 26.9421 175.831 27.8574 175.157 28.5322C174.482 29.207 173.566 29.5861 172.612 29.5861H162.378L162.909 34.6431L158.114 29.5861H157.912C156.958 29.5861 156.043 29.207 155.368 28.5322C154.693 27.8574 154.314 26.9421 154.314 25.9878V17.8561C154.314 16.9018 154.693 15.9865 155.368 15.3117C156.043 14.6369 156.958 14.2578 157.912 14.2578Z" stroke="#004E9E" stroke-miterlimit="10"/>
<path d="M137.938 30.7773L173.906 131.29L251.146 32.3633" stroke="#004E9E" stroke-miterlimit="10"/>
<path d="M281.825 96.3789L173.906 131.292L246.381 212.759" stroke="#004E9E" stroke-miterlimit="10"/>
<path d="M90.8536 209.587L173.906 131.292L60.6982 112.246" stroke="#004E9E" stroke-miterlimit="10"/>
<path d="M291.06 101.763C293.861 96.4116 291.794 89.8025 286.442 87.0012C281.091 84.2 274.482 86.2673 271.681 91.6188C268.879 96.9703 270.947 103.579 276.298 106.381C281.65 109.182 288.259 107.115 291.06 101.763Z" fill="#004E9E" stroke="#004E9E" stroke-width="0.5" stroke-miterlimit="10"/>
<path d="M284.989 95.9375H277.86C277.191 95.9375 276.55 96.2031 276.077 96.6759C275.604 97.1487 275.339 97.7899 275.339 98.4585V104.443C277.081 105.803 279.232 106.533 281.441 106.515C283.651 106.498 285.79 105.733 287.51 104.346V98.4585C287.51 97.7899 287.245 97.1487 286.772 96.6759C286.299 96.2031 285.658 95.9375 284.989 95.9375Z" fill="#004E9E" stroke="#004E9E" stroke-miterlimit="10"/>
<path d="M281.301 94.8385C282.019 94.8385 282.72 94.6257 283.317 94.227C283.913 93.8283 284.378 93.2617 284.653 92.5987C284.928 91.9357 285 91.2062 284.86 90.5024C284.72 89.7986 284.374 89.1521 283.867 88.6447C283.359 88.1373 282.713 87.7917 282.009 87.6517C281.305 87.5118 280.576 87.5836 279.913 87.8582C279.25 88.1328 278.683 88.5979 278.284 89.1945C277.886 89.7912 277.673 90.4927 277.673 91.2102C277.673 92.1725 278.055 93.0954 278.736 93.7758C279.416 94.4562 280.339 94.8385 281.301 94.8385Z" fill="#004E9E" stroke="#004E9E" stroke-miterlimit="10"/>
<path d="M257.58 213.094C259.912 207.522 257.286 201.115 251.714 198.783C246.142 196.451 239.734 199.077 237.402 204.649C235.07 210.221 237.697 216.629 243.269 218.961C248.841 221.293 255.248 218.666 257.58 213.094Z" fill="#004E9E" stroke="#004E9E" stroke-width="0.5" stroke-miterlimit="10"/>
<path d="M251.161 208.148H244.032C243.701 208.147 243.373 208.212 243.068 208.338C242.762 208.464 242.484 208.649 242.25 208.882C242.015 209.116 241.83 209.393 241.703 209.698C241.576 210.004 241.511 210.331 241.511 210.662V216.647C243.253 218.006 245.404 218.736 247.613 218.719C249.823 218.701 251.962 217.937 253.682 216.549V210.662C253.682 210.331 253.617 210.004 253.49 209.698C253.363 209.393 253.177 209.116 252.943 208.882C252.709 208.649 252.431 208.464 252.125 208.338C251.819 208.212 251.492 208.147 251.161 208.148Z" fill="#004E9E" stroke="#004E9E" stroke-miterlimit="10"/>
<path d="M247.42 207.042C248.138 207.042 248.839 206.829 249.436 206.43C250.033 206.031 250.498 205.465 250.772 204.802C251.047 204.139 251.119 203.409 250.979 202.706C250.839 202.002 250.493 201.355 249.986 200.848C249.478 200.34 248.832 199.995 248.128 199.855C247.424 199.715 246.695 199.787 246.032 200.061C245.369 200.336 244.802 200.801 244.403 201.398C244.005 201.994 243.792 202.696 243.792 203.413C243.792 203.89 243.886 204.362 244.068 204.802C244.251 205.242 244.518 205.642 244.855 205.979C245.192 206.316 245.592 206.583 246.032 206.765C246.472 206.948 246.944 207.042 247.42 207.042Z" fill="#004E9E" stroke="#004E9E" stroke-miterlimit="10"/>
<path d="M137.467 37.8388C141.755 37.8388 145.232 34.3623 145.232 30.0737C145.232 25.7852 141.755 22.3086 137.467 22.3086C133.178 22.3086 129.702 25.7852 129.702 30.0737C129.702 34.3623 133.178 37.8388 137.467 37.8388Z" fill="#004E9E" stroke="#004E9E" stroke-width="0.5" stroke-miterlimit="10"/>
<path d="M140.04 29.5898H134.983C134.509 29.5898 134.054 29.7782 133.719 30.1135C133.384 30.4488 133.195 30.9036 133.195 31.3778V35.5745C134.432 36.5358 135.957 37.052 137.523 37.0398C139.09 37.0276 140.606 36.4876 141.828 35.5072V31.3404C141.818 30.8727 141.626 30.4275 141.292 30.1002C140.957 29.773 140.508 29.5897 140.04 29.5898Z" fill="#004E9E" stroke="#004E9E" stroke-miterlimit="10"/>
<path d="M137.452 28.7679C137.961 28.7679 138.459 28.617 138.882 28.3342C139.305 28.0515 139.635 27.6495 139.83 27.1793C140.024 26.7091 140.075 26.1917 139.976 25.6925C139.877 25.1933 139.632 24.7347 139.272 24.3748C138.912 24.0149 138.453 23.7698 137.954 23.6705C137.455 23.5712 136.938 23.6222 136.467 23.817C135.997 24.0118 135.595 24.3416 135.312 24.7648C135.03 25.188 134.879 25.6855 134.879 26.1945C134.879 26.877 135.15 27.5316 135.632 28.0142C136.115 28.4968 136.77 28.7679 137.452 28.7679Z" fill="#004E9E" stroke="#004E9E" stroke-miterlimit="10"/>
<path d="M96.8287 211.307C98.4802 207.349 96.6106 202.802 92.6528 201.15C88.695 199.499 84.1477 201.368 82.4962 205.326C80.8447 209.284 82.7143 213.831 86.6721 215.483C90.6299 217.134 95.1772 215.264 96.8287 211.307Z" fill="#004E9E" stroke="#004E9E" stroke-width="0.5" stroke-miterlimit="10"/>
<path d="M92.2377 207.789H87.1807C86.9446 207.788 86.7107 207.834 86.4924 207.924C86.2742 208.014 86.0758 208.146 85.9089 208.313C85.742 208.48 85.6098 208.678 85.5199 208.896C85.4301 209.115 85.3843 209.348 85.3853 209.584V213.826C86.6211 214.793 88.1481 215.313 89.7172 215.301C91.2863 215.288 92.805 214.745 94.0257 213.759V209.584C94.0266 209.349 93.9811 209.116 93.8917 208.898C93.8023 208.68 93.6708 208.482 93.5046 208.315C93.3385 208.149 93.1411 208.016 92.9237 207.926C92.7063 207.836 92.4732 207.789 92.2377 207.789Z" fill="#004E9E" stroke="#004E9E" stroke-miterlimit="10"/>
<path d="M89.6193 207.006C90.1283 207.006 90.6258 206.855 91.049 206.573C91.4722 206.29 91.8021 205.888 91.9968 205.418C92.1916 204.947 92.2426 204.43 92.1433 203.931C92.044 203.432 91.7989 202.973 91.439 202.613C91.0791 202.253 90.6206 202.008 90.1214 201.909C89.6222 201.81 89.1047 201.86 88.6345 202.055C88.1643 202.25 87.7624 202.58 87.4796 203.003C87.1968 203.426 87.0459 203.924 87.0459 204.433C87.0459 205.115 87.317 205.77 87.7996 206.252C88.2822 206.735 88.9368 207.006 89.6193 207.006Z" fill="#004E9E" stroke="#004E9E" stroke-miterlimit="10"/>
<path d="M258.231 32.335C259.793 28.341 257.822 23.837 253.828 22.275C249.834 20.7129 245.33 22.6844 243.768 26.6784C242.206 30.6724 244.177 35.1764 248.171 36.7384C252.165 38.3004 256.669 36.3289 258.231 32.335Z" fill="#004E9E" stroke="#004E9E" stroke-width="0.5" stroke-miterlimit="10"/>
<path d="M253.592 28.9844H248.528C248.293 28.9844 248.06 29.0306 247.843 29.1205C247.627 29.2103 247.429 29.342 247.263 29.508C247.097 29.6741 246.966 29.8712 246.876 30.0881C246.786 30.305 246.74 30.5375 246.74 30.7723V35.0214C247.978 35.9833 249.504 36.4998 251.072 36.4876C252.639 36.4754 254.157 35.9351 255.38 34.9541V30.7723C255.38 30.5375 255.334 30.305 255.244 30.0881C255.154 29.8712 255.022 29.6741 254.856 29.508C254.69 29.342 254.493 29.2103 254.276 29.1205C254.059 29.0306 253.827 28.9844 253.592 28.9844Z" fill="#004E9E" stroke="#004E9E" stroke-miterlimit="10"/>
<path d="M250.974 28.1976C251.483 28.1976 251.98 28.0467 252.404 27.7639C252.827 27.4811 253.157 27.0792 253.351 26.609C253.546 26.1388 253.597 25.6213 253.498 25.1221C253.398 24.623 253.153 24.1644 252.793 23.8045C252.434 23.4446 251.975 23.1995 251.476 23.1002C250.977 23.0009 250.459 23.0519 249.989 23.2467C249.519 23.4414 249.117 23.7713 248.834 24.1945C248.551 24.6177 248.4 25.1152 248.4 25.6242C248.4 26.3067 248.672 26.9613 249.154 27.4439C249.637 27.9265 250.291 28.1976 250.974 28.1976Z" fill="#004E9E" stroke="#004E9E" stroke-miterlimit="10"/>
<path d="M72.8036 115.9C75.8477 108.687 72.4678 100.372 65.2545 97.3275C58.0412 94.2835 49.726 97.6633 46.6819 104.877C43.6379 112.09 47.0177 120.405 54.231 123.449C61.4443 126.493 69.7596 123.113 72.8036 115.9Z" fill="#004E9E" stroke="#004E9E" stroke-width="0.5" stroke-miterlimit="10"/>
<path d="M64.4462 109.434H55.2074C54.3416 109.434 53.5112 109.777 52.8984 110.388C52.2855 111 51.9402 111.83 51.9382 112.695V120.445C54.1969 122.203 56.9822 123.147 59.8438 123.125C62.7055 123.103 65.4761 122.117 67.7079 120.326V112.695C67.7079 111.83 67.3642 111.001 66.7526 110.389C66.1409 109.777 65.3113 109.434 64.4462 109.434Z" fill="#004E9E" stroke="#004E9E" stroke-miterlimit="10"/>
<path d="M59.6511 107.998C60.5803 107.998 61.4886 107.722 62.2612 107.206C63.0337 106.69 63.6359 105.956 63.9915 105.097C64.347 104.239 64.4401 103.294 64.2588 102.383C64.0775 101.472 63.6301 100.635 62.9731 99.9776C62.316 99.3205 61.4789 98.8731 60.5676 98.6918C59.6563 98.5106 58.7117 98.6036 57.8533 98.9592C56.9948 99.3148 56.2611 99.9169 55.7449 100.689C55.2287 101.462 54.9531 102.37 54.9531 103.3C54.9531 104.546 55.4481 105.74 56.3291 106.622C57.2102 107.503 58.4051 107.998 59.6511 107.998Z" fill="#004E9E" stroke="#004E9E" stroke-miterlimit="10"/>
<path d="M105.86 54.005C105.86 53.9601 105.86 53.9153 105.86 53.8704C105.648 51.929 104.883 50.0893 103.657 48.5697C102.43 47.05 100.793 45.9143 98.9404 45.2973C97.06 44.6591 95.0296 44.6095 93.1203 45.1552C93.5429 43.7195 93.6877 42.2164 93.5467 40.7265C93.2689 37.7471 91.8686 34.9847 89.6296 32.9995C87.3906 31.0143 84.4804 29.9547 81.4892 30.0356C78.4979 30.1164 75.6493 31.3317 73.5208 33.435C71.3924 35.5383 70.1433 38.3723 70.0269 41.3624C69.8548 41.3624 69.6828 41.3624 69.5107 41.3624C66.3819 41.3624 63.3812 42.6053 61.1688 44.8177C58.9563 47.0302 57.7134 50.0309 57.7134 53.1597C57.7105 54.2162 57.8514 55.2682 58.1323 56.2867C58.5282 57.6545 59.3599 58.8557 60.5008 59.7078C61.6418 60.5598 63.0297 61.016 64.4537 61.0071H99.2995C100.2 61.0114 101.092 60.8297 101.919 60.4735C102.746 60.1173 103.491 59.5942 104.107 58.937C104.723 58.2797 105.196 57.5025 105.498 56.6539C105.8 55.8052 105.923 54.9035 105.86 54.005Z" stroke="#004E9E" stroke-miterlimit="10"/>
<path d="M284.825 173.753C284.821 173.728 284.821 173.703 284.825 173.678C284.711 172.628 284.298 171.632 283.635 170.81C282.972 169.988 282.087 169.373 281.084 169.04C280.069 168.694 278.973 168.667 277.942 168.965C278.174 168.189 278.255 167.377 278.182 166.571C278.071 164.931 277.33 163.397 276.114 162.29C274.898 161.184 273.301 160.591 271.658 160.635C270.014 160.68 268.452 161.358 267.297 162.529C266.143 163.699 265.486 165.271 265.464 166.915H265.188C263.498 166.917 261.879 167.589 260.685 168.785C259.492 169.98 258.821 171.6 258.821 173.289C258.823 173.857 258.898 174.423 259.046 174.972C259.258 175.712 259.706 176.362 260.322 176.824C260.937 177.286 261.687 177.534 262.457 177.53H281.264C281.752 177.536 282.235 177.44 282.684 177.249C283.133 177.058 283.537 176.776 283.872 176.422C284.206 176.067 284.464 175.646 284.628 175.187C284.792 174.727 284.859 174.239 284.825 173.753Z" stroke="#004E9E" stroke-miterlimit="10"/>
<path d="M119.423 231.401C119.423 231.401 119.423 231.356 119.423 231.333C119.31 230.283 118.898 229.287 118.235 228.465C117.571 227.642 116.686 227.028 115.683 226.695C114.668 226.349 113.571 226.323 112.541 226.621C112.77 225.845 112.849 225.032 112.773 224.227C112.613 222.68 111.898 221.244 110.76 220.183C109.623 219.123 108.14 218.51 106.586 218.459C104.916 218.418 103.297 219.037 102.079 220.18C100.861 221.324 100.142 222.901 100.078 224.571H99.8009C98.9637 224.57 98.1344 224.734 97.3607 225.054C96.5869 225.374 95.8839 225.843 95.2919 226.435C94.6998 227.027 94.2304 227.73 93.9104 228.504C93.5905 229.278 93.4263 230.107 93.4273 230.944C93.4277 231.513 93.5057 232.08 93.6592 232.628C93.8689 233.369 94.3164 234.021 94.9327 234.483C95.549 234.945 96.3001 235.192 97.0704 235.186H115.87C116.358 235.19 116.841 235.094 117.29 234.902C117.738 234.71 118.142 234.428 118.476 234.072C118.81 233.716 119.066 233.295 119.229 232.836C119.392 232.376 119.458 231.887 119.423 231.401Z" stroke="#004E9E" stroke-miterlimit="10"/>
<path d="M226.474 36.5381C226.477 36.5158 226.477 36.493 226.474 36.4707C226.363 35.4196 225.951 34.4229 225.287 33.6002C224.624 32.7775 223.737 32.1637 222.733 31.8326C221.719 31.4841 220.622 31.4554 219.591 31.7503C219.824 30.9777 219.903 30.1669 219.823 29.3639C219.713 27.7236 218.972 26.1896 217.756 25.0831C216.54 23.9767 214.943 23.3836 213.299 23.4281C211.656 23.4726 210.093 24.1511 208.939 25.3217C207.784 26.4923 207.128 28.0641 207.106 29.708H206.829C205.85 29.7104 204.884 29.9383 204.006 30.374C203.129 30.8097 202.364 31.4416 201.77 32.2206C201.176 32.9997 200.769 33.905 200.582 34.8665C200.394 35.8279 200.43 36.8197 200.687 37.7649C200.899 38.5049 201.347 39.1554 201.963 39.6172C202.579 40.0791 203.329 40.327 204.099 40.3234H222.905C223.395 40.331 223.88 40.2365 224.331 40.0461C224.782 39.8556 225.188 39.5734 225.524 39.2172C225.86 38.8611 226.118 38.439 226.281 37.9777C226.445 37.5164 226.51 37.0261 226.474 36.5381Z" stroke="#004E9E" stroke-miterlimit="10"/>
<path d="M230.883 186.73C262.63 154.982 262.63 103.51 230.883 71.7622C199.135 40.0148 147.663 40.0148 115.915 71.7622C84.1678 103.51 84.1678 154.982 115.915 186.73C147.663 218.477 199.135 218.477 230.883 186.73Z" fill="white" stroke="#004E9E" stroke-miterlimit="10"/>
<path d="M170.472 91.6119L178.193 95.083L180.31 98.5541L183.788 99.9082L184.17 103.574L182.823 105.691L180.123 106.274L174.333 103.955V103.207L177.609 101.853L176.457 97.8061L171.22 95.876L168.909 92.7864L170.472 91.6119ZM219.098 180.746L212.926 178.24L205.4 175.54H199.416L193.82 174.38L187.641 175.727L184.17 175.921H182.053L177.998 178.24L174.108 179.781L168.871 176.505L170.218 171.096L166.941 169.749H163.081L162.505 168.014L162.887 164.535L161.54 162.613L158.84 162.994L158.092 164.924L154.815 165.119L151.92 161.648L150.76 157.017L153.655 151.608L159.251 151.997L160.8 153.351H163.111L166.006 151.608L168.512 152.356L171.984 158.341L173.338 158.147L172.949 153.71L171.864 151.421L172.245 147.756L179.382 144.666L180.347 137.529L183.437 135.016L185.943 130.58L187.873 130.198L192.309 127.303L192.504 125.762L189.421 125.949L188.838 124.408H186.721L183.437 125.156L184.978 122.65L191.711 120.72L193.252 118.984L195.952 123.226L197.695 124.962L200.396 124.213L199.236 121.707L195.182 118.812L190.551 113.576L185.733 110.292L181.103 109.544L178.784 107.232L175.694 106.484L175.313 107.232L174.924 112.828L175.672 114.75L173.936 120.929L170.091 117.862L170.667 115.162L166.627 113.217L164.877 111.129L165.842 106.312L171.437 102.257L171.826 97.6265L169.702 97.821L168.348 96.0855L167.772 93.1904L166.418 92.9959L165.67 96.0855L163.553 96.467L162.588 89.7342L161.017 88.6869L158.316 87.5274L155.234 89.0684L159.087 92.734L159.835 96.0181L152.885 90.7815L148.06 85.5449L147.678 80.3083L142.689 78.872L138.828 81.3856C137.898 81.9487 136.939 82.4631 135.956 82.9266C134.433 83.2897 132.885 83.5397 131.325 83.6747L130.577 86.9588L126.141 87.1458L126.53 89.2704L133.667 90.4299L137.332 94.4771V101.21L135.208 107.195L135.597 113.561L130.195 123.009L129.036 137.096L130.719 145.242L133.225 151.421L136.12 151.803L135.155 148.721L133.614 146.402L132.649 142.16L134.385 141.771L137.085 148.721L139.015 154.892V159.905L142.681 164.348L149.242 169.166L159.274 171.874L162.363 174.762L164.675 177.851L168.153 179.976L172.395 181.128L176.637 180.941C176.637 180.941 176.45 182.871 176.45 183.836C176.45 184.801 173.749 188.078 173.749 188.078L171.632 191.923L173.173 196.164L177.422 197.9L183.407 204.079L186.107 205.231V208.126L186.444 209.473C201.45 207.048 215.471 200.447 226.9 190.427L227.005 189.028L232.242 179.572L229.736 177.836L219.098 180.746ZM239.192 104.539L237.067 100.866L234.366 96.6241L233.618 90.8339L237.089 91.4174L237.284 89.4874L234.77 89.2928L236.895 88.3278L239.214 86.9813V85.0512L236.895 81.9616L236.401 77.8097C225.189 64.0883 209.802 54.4047 192.581 50.2321C175.36 46.0595 157.247 47.6262 140.998 54.6939L145.441 57.8433L142.689 61.3145L139.023 62.0625L138.641 67.2991L137.093 67.8752L135.163 69.9848L135.357 73.4559L138.641 73.8449L137.287 77.1215H140.571L146.16 69.9848L146.743 66.8952L152.144 66.5136L153.491 64.1946L159.087 63.6186L159.67 60.3345L163.717 60.1474C163.717 60.1474 166.612 58.5989 167.196 58.5989C168.31 58.8409 169.405 59.1635 170.472 59.5639L173.367 61.883H177.422L180.893 59.7584L185.329 60.1474C185.968 60.5625 186.696 60.8189 187.454 60.8955C188.419 60.8955 191.314 59.5415 191.314 59.5415L196.902 63.0126L199.221 64.7556V67.6433L202.116 68.0323L203.081 66.2967L205.588 67.4562L205.393 68.9973L199.61 70.5383L202.887 74.7875L209.829 78.6476L212.724 82.5002L216.973 82.8892L217.938 80.9592L219.479 80.5702L214.46 76.7175L211.378 76.3285L213.884 75.5804L211.572 72.2963L214.849 72.1093L219.09 74.4209L220.056 79.0516L222.18 81.5576L223.916 87.1533L228.165 90.2429V96.6091L232.601 99.5042L232.406 101.629L231.83 104.135L232.982 107.606L233.371 109.342L236.648 109.925L238.197 106.641L239.192 104.539ZM241.698 85.0886V86.1958L240.688 89.2928L241.264 91.9934L243.388 92.7415V96.4071L241.077 95.4421L240.508 105.893L238.197 110.135L239.738 115.543L242.244 117.855V128.276L244.757 136.377L247.458 142.549L251.894 143.709L253.435 139.848L254.063 139.355C254.481 136.002 254.691 132.627 254.692 129.248C254.716 113.58 250.191 98.2426 241.668 85.0961L241.698 85.0886ZM197.127 83.8842L184.409 78.2885L178.814 78.483L177.467 82.1486L175.148 79.6351L170.906 80.6001L170.517 86.9738L173.988 89.4799L176.502 85.8143L179.345 88.6869L185.329 93.9235L186.489 99.5192L191.501 105.885L199.61 104.539L199.416 101.644L197.68 98.3596L197.299 90.6469L199.229 87.3628L197.127 83.8842ZM207.548 88.1258L204.652 87.3777L202.146 89.5023L203.493 95.098H206.006L207.548 88.1258ZM225.502 91.7914L218.941 88.3203L217.587 86.0087L216.046 86.5848L217.392 90.4449L218.552 95.4571L221.447 96.6166L222.023 95.8685L220.287 92.9734L225.307 94.9035L225.502 91.7914ZM169.163 161.446L168.415 162.194L174.205 163.929L176.524 166.63L180.19 167.019L181.537 164.894L177.1 164.146L169.163 161.446ZM186.369 165.111L182.315 166.271L182.898 167.812H187.91L188.875 166.271L187.14 166.458L186.369 165.111Z" fill="#004E9E" stroke="#004E9E" stroke-miterlimit="10"/>
<path d="M230.963 230.073C230.894 232.177 231.147 234.278 231.711 236.305C232.601 239.148 233.484 241.818 234.374 242.888C235.264 243.958 236.693 242.177 235.444 240.038C234.194 237.898 234.912 235.594 235.623 235.594C236.334 235.594 242.027 239.148 242.917 240.397C243.807 241.646 246.478 244.848 246.478 242.709C246.478 240.569 242.386 236.125 241.675 234.876C240.964 233.627 237.044 228.293 237.044 228.293L230.963 230.073Z" fill="#FFBDA7" stroke="#004E9E" stroke-linejoin="round"/>
<path d="M233.484 223.484L237.045 228.295L230.282 232.028L227.08 228.115L233.484 223.484Z" fill="#004E9E" stroke="#004E9E" stroke-linejoin="round"/>
<path d="M195.758 323.143C195.758 323.143 193.087 329.016 192.017 330.624C190.948 332.232 190.057 332.936 188.277 333.295C186.496 333.654 183.474 334.005 183.474 335.427C183.495 336.309 183.753 337.17 184.222 337.918C184.222 337.918 192.586 339.698 195.443 338.988C198.301 338.277 201.136 334.357 201.136 334.357L202.917 335.427L208.079 330.445C207.754 328.694 207.145 327.009 206.276 325.455C204.675 322.253 203.785 319.941 203.785 319.941C203.785 319.941 199.85 323.143 195.758 323.143Z" fill="#616161" stroke="#004E9E" stroke-linejoin="round"/>
<path d="M206.941 326.93C205.071 328.688 200.747 332.914 199.565 333.954C198.069 335.278 195.002 337.927 192.653 337.927C190.962 337.927 186.242 337.246 183.676 336.857C183.791 337.227 183.951 337.581 184.155 337.912C184.155 337.912 192.518 339.692 195.376 338.981C198.234 338.271 201.069 334.351 201.069 334.351L202.849 335.42L208.011 330.438C207.815 329.226 207.455 328.045 206.941 326.93Z" stroke="#004E9E" stroke-linejoin="round"/>
<path d="M181.881 299.476C181.881 299.476 185.262 306.59 188.614 310.862C191.965 315.133 195.728 324.746 195.728 324.746C195.728 324.746 198.758 325.816 200.89 324.207C202.245 323.103 203.238 321.618 203.74 319.943C203.74 319.943 199.468 306.77 197.867 301.077C196.267 295.384 192.347 282.921 190.566 279.898C189.217 277.672 187.744 275.524 186.152 273.465C186.152 273.465 184.192 285.21 183.302 289.653C182.412 294.097 181.881 299.476 181.881 299.476Z" fill="#004E9E" stroke="#004E9E" stroke-linejoin="round"/>
<path d="M166.036 217.611L166.216 228.997C166.216 228.997 163.223 250.003 165.685 260.679C168.146 271.354 172.088 283.121 172.088 283.121C172.088 283.121 170.136 302.699 169.418 307.501C168.699 312.304 165.677 321.386 165.677 321.386C165.677 321.386 170.839 324.056 171.729 324.056H173.51C173.51 324.056 178.844 309.641 179.913 307.501C180.983 305.362 184.716 301.277 185.965 292.375C187.215 283.473 187.574 274.212 187.574 274.212C187.574 274.212 196.468 262.818 198.608 259.25C200.747 255.681 204.121 248.388 204.121 248.388C204.121 248.388 208.041 238.244 207.503 228.459C206.964 218.674 203.949 213.691 203.949 213.691C203.949 213.691 186.504 217.783 178.32 217.783C170.136 217.783 166.036 217.611 166.036 217.611Z" fill="#004E9E" stroke="#004E9E" stroke-linejoin="round"/>
<path d="M170.577 153.697C170.577 153.697 174.033 157.153 173.51 158.357C172.986 159.562 164.024 160.085 162.124 162.329C160.224 164.574 152.114 193.046 152.114 193.046C152.114 193.046 142.449 190.278 141.589 189.59C140.729 188.901 139.689 189.418 139.173 191.49C138.656 193.562 133.48 198.223 134.168 199.427C134.856 200.631 144.349 205.292 149.01 206.504C151.847 207.234 154.736 207.752 157.65 208.052L156.962 216.857C156.962 216.857 165.76 221.862 182.846 219.618C199.932 217.374 207.024 213.753 207.024 213.753L204.959 195.978C204.959 195.978 216.18 217.029 218.073 220.665C219.966 224.301 222.382 229.642 224.454 230.33C226.526 231.019 233.948 226.186 234.12 224.121C234.292 222.057 227.91 212.04 222.898 203.414C217.886 194.789 210.989 170.454 209.956 165.262C208.924 160.07 206.156 155.769 203.224 155.08C200.291 154.392 192.354 154.385 188.898 153.697C185.442 153.008 180.617 147.315 178.372 140.066L170.577 153.697Z" fill="#004E9E" stroke="#004E9E" stroke-miterlimit="10"/>
<path d="M164.383 169.756C165.258 167.901 165.932 166.637 165.932 166.637" stroke="#004E9E" stroke-miterlimit="10"/>
<path d="M157.65 208.052C157.65 208.052 159.723 185.797 160.583 180.448C161.127 177.803 161.958 175.224 163.059 172.758" stroke="#004E9E" stroke-miterlimit="10"/>
<path d="M199.221 175.575C198.967 174.348 198.728 173.144 198.533 171.984" stroke="#004E9E" stroke-miterlimit="10"/>
<path d="M204.922 195.978C204.922 195.978 202.057 187.487 199.984 178.914" stroke="#004E9E" stroke-miterlimit="10"/>
<path d="M168.871 159.838C169.702 161.618 172.365 165.216 180.437 165.074C189.96 164.917 194.149 158.341 195.69 154.339C193.413 154.247 191.143 154.027 188.89 153.681C185.441 152.993 180.609 147.3 178.365 140.051L170.577 153.696C170.577 153.696 174.033 157.152 173.509 158.356C173.27 158.917 171.19 159.336 168.871 159.838Z" fill="#FFBDA7" stroke="#004E9E" stroke-miterlimit="10"/>
<path d="M177.033 144.98L174.684 146.477L170.577 153.673C171.555 154.656 172.423 155.742 173.166 156.912C177.033 152.312 177.033 144.98 177.033 144.98Z" fill="#004E9E" stroke="#004E9E" stroke-linejoin="round"/>
<path d="M150.566 137.312C150.566 137.312 153.843 143.005 154.703 145.593C155.964 148.765 158.365 151.351 161.436 152.842C164.54 154.219 166.096 155.431 168.857 155.603C172.814 155.85 175.754 150.254 177.31 145.937C178.866 141.621 178.866 140.933 178.866 140.933C178.866 140.933 181.275 137.312 181.275 133.512C181.275 129.712 176.966 125.403 172.133 123.158C167.301 120.914 164.024 117.637 159.019 122.126C154.015 126.614 150.566 137.312 150.566 137.312Z" fill="#FFBDA7" stroke="#004E9E" stroke-miterlimit="10"/>
<path d="M159.191 142.824C159.558 143.824 159.789 144.868 159.879 145.929C159.879 147.141 161.435 147.657 162.812 145.068" stroke="#004E9E" stroke-miterlimit="10"/>
<path d="M163.156 148.535C163.156 148.535 167.473 149.224 168.333 144.047" stroke="#004E9E" stroke-miterlimit="10"/>
<path d="M164.039 136.84C164.443 137.529 164.458 138.269 164.039 138.501C163.62 138.733 163.006 138.352 162.602 137.663C162.198 136.975 162.191 136.227 162.602 136.003C163.014 135.778 163.635 136.152 164.039 136.84Z" fill="#004E9E"/>
<path d="M157.074 140.303C157.478 140.991 157.493 141.739 157.074 141.964C156.655 142.188 156.042 141.814 155.645 141.126C155.249 140.438 155.227 139.689 155.645 139.465C156.064 139.241 156.678 139.6 157.074 140.303Z" fill="#004E9E"/>
<path d="M159.094 134.538C159.094 134.538 159.842 131.83 164.697 132.189" stroke="#004E9E" stroke-miterlimit="10"/>
<path d="M155.473 137.254C155.473 137.254 152.765 137.254 152.945 139.423" stroke="#004E9E" stroke-miterlimit="10"/>
<path d="M162.984 124.879C162.984 124.879 160.74 127.468 158.152 130.056C155.563 132.644 151.254 136.445 151.254 141.098C151.254 145.751 151.426 146.275 151.426 146.275C151.426 146.275 144.005 142.482 141.933 137.298C139.861 132.113 144.521 120.211 150.214 114.855C155.907 109.499 162.64 108.474 170.061 108.99C177.482 109.506 184.903 116.927 186.803 124.348C188.703 131.769 184.903 139.878 183.691 141.255C182.479 142.631 178.687 142.811 178.687 142.811C179.496 140.187 179.676 137.408 179.21 134.702C178.342 130.729 175.926 131.597 175.582 133.318C175.238 135.038 175.066 135.734 175.066 135.734C175.066 135.734 171.617 133.318 167.989 130.729C165.855 129.232 164.133 127.22 162.984 124.879Z" fill="#004E9E" stroke="#004E9E" stroke-linejoin="round"/>
<path d="M130.203 194.6L134.856 187.695L137.1 189.94L130.203 194.6Z" fill="#004E9E" stroke="#004E9E" stroke-linejoin="round"/>
<path d="M146.653 184.419L135.813 184.463L125.482 164.564L136.322 164.52L146.653 184.419Z" fill="#004E9E" stroke="#004E9E" stroke-linejoin="round"/>
<path d="M127.271 174.232C127.271 174.232 130.031 176.82 130.203 178.032C130.375 179.244 131.752 183.897 132.447 186.141C133.143 188.386 135.724 190.802 135.724 190.802L137.968 188.558L137.1 184.757C137.928 184.024 138.792 183.332 139.689 182.685C140.729 181.997 141.933 180.097 141.245 180.097C140.722 180.113 140.201 180.173 139.689 180.276C139.689 180.276 141.245 177.86 140.212 177.688C139.527 177.576 138.834 177.516 138.14 177.508C138.14 177.508 139.861 175.444 138.484 175.264C137.108 175.085 132.268 177.68 132.268 177.68L130.203 174.568C129.763 174.316 129.276 174.156 128.771 174.099C128.267 174.041 127.757 174.086 127.271 174.232Z" fill="#FFBDA7" stroke="#004E9E" stroke-linejoin="round"/>
<path d="M127.839 173.095C127.691 173.223 127.582 173.389 127.524 173.576C127.466 173.762 127.461 173.961 127.51 174.151C127.559 174.34 127.66 174.511 127.801 174.646C127.943 174.781 128.119 174.873 128.31 174.913C128.628 175.025 128.969 175.053 129.301 174.994C129.633 174.935 129.943 174.791 130.203 174.576C131.063 173.544 134.512 170.784 134.512 169.4C134.512 168.016 132.964 169.572 132.268 169.923C130.712 170.865 129.231 171.925 127.839 173.095Z" fill="#FFBDA7" stroke="#004E9E" stroke-linejoin="round"/>
<path d="M138.14 177.508C138.14 177.508 132.963 180.096 132.095 181.136" stroke="#004E9E" stroke-linejoin="round"/>
<path d="M139.696 180.273C139.696 180.273 135.559 182.166 134.176 183.722" stroke="#004E9E" stroke-linejoin="round"/>
<path d="M140.033 189.416L137.624 187.344L130.203 194.593L135.208 198.393C135.208 198.393 139.861 193.904 140.033 189.416Z" fill="#004E9E" stroke="#004E9E" stroke-linejoin="round"/>
<path d="M187.753 229.535C187.753 229.535 179.741 248.394 177.961 256.257C176.18 264.119 172.799 279.036 172.799 279.926" stroke="#757575" stroke-linejoin="round"/>
<path d="M176.18 234.879L180.811 240.213" stroke="#757575" stroke-linejoin="round"/>
<path d="M165.685 320.832C165.685 320.832 164.615 323.144 159.453 324.206C154.291 325.268 149.489 323.323 148.598 323.495C147.708 323.667 146.818 325.276 146.818 326.705C146.818 328.133 153.049 332.038 155.541 333.288C157.525 334.132 159.626 334.672 161.772 334.889H162.655L162.483 336.669C163.929 337.245 165.414 337.72 166.926 338.09C168.286 338.291 169.667 338.291 171.026 338.09C171.567 335.814 171.865 333.487 171.916 331.148C172.037 328.702 172.579 326.296 173.517 324.034L165.685 320.832Z" fill="#616161" stroke="#004E9E" stroke-linejoin="round"/>
<path d="M171.565 335.308C168.056 334.851 161.585 333.811 157.658 332.315C153.498 330.744 148.838 327.542 146.863 326.121C146.833 326.307 146.818 326.494 146.818 326.682C146.818 328.104 153.049 332.016 155.541 333.265C157.525 334.11 159.626 334.649 161.772 334.866H162.655L162.483 336.647C163.929 337.223 165.414 337.698 166.926 338.068C168.286 338.269 169.667 338.269 171.026 338.068C171.026 338.068 171.31 336.931 171.565 335.308Z" stroke="#004E9E" stroke-linejoin="round"/>
</svg>
