<svg width="612" height="576" viewBox="0 0 612 576" fill="none" xmlns="http://www.w3.org/2000/svg">
<path d="M305.966 576C474.947 576 611.933 496.909 611.933 399.344C611.933 301.779 474.947 222.688 305.966 222.688C136.986 222.688 0 301.779 0 399.344C0 496.909 136.986 576 305.966 576Z" fill="#F5F5F5"/>
<path d="M435.184 306.852L176.747 456.031C174.621 457.257 172.211 457.902 169.757 457.902C167.303 457.902 164.893 457.257 162.767 456.031L149.126 448.214C148.36 447.773 147.724 447.138 147.282 446.373C146.839 445.608 146.606 444.74 146.606 443.856C146.606 442.972 146.839 442.104 147.282 441.339C147.724 440.574 148.36 439.939 149.126 439.498L407.59 290.254C409.714 289.031 412.122 288.387 414.573 288.387C417.024 288.387 419.432 289.031 421.556 290.254L435.197 298.136C435.959 298.581 436.591 299.218 437.03 299.983C437.469 300.749 437.699 301.616 437.697 302.498C437.696 303.38 437.463 304.247 437.022 305.011C436.581 305.775 435.948 306.41 435.184 306.852Z" fill="#E0E0E0"/>
<path d="M395.576 474.192C426.265 474.192 451.144 459.831 451.144 442.116C451.144 424.4 426.265 410.039 395.576 410.039C364.887 410.039 340.009 424.4 340.009 442.116C340.009 459.831 364.887 474.192 395.576 474.192Z" fill="#E0E0E0"/>
<path d="M503.168 352.817C527.194 352.817 546.671 341.571 546.671 327.697C546.671 313.824 527.194 302.578 503.168 302.578C479.142 302.578 459.665 313.824 459.665 327.697C459.665 341.571 479.142 352.817 503.168 352.817Z" fill="#E0E0E0"/>
<path d="M109.127 509.668C133.153 509.668 152.63 498.422 152.63 484.549C152.63 470.676 133.153 459.43 109.127 459.43C85.1009 459.43 65.624 470.676 65.624 484.549C65.624 498.422 85.1009 509.668 109.127 509.668Z" fill="#E0E0E0"/>
<path d="M159.733 152.606L421.923 1.25123C424.933 -0.481586 427.63 -0.351299 429.545 1.25123L438.665 7.53108L432.346 15.1659V226.557C432.346 234.309 427.643 243.299 421.832 246.66L162.3 396.49L161.818 404.738L152.254 398.223C150.352 396.79 149.18 393.963 149.18 390.093V172.696C149.219 164.944 153.922 155.954 159.733 152.606Z" fill="#004E9E"/>
<path opacity="0.4" d="M159.733 152.606L421.923 1.25123C424.933 -0.481586 427.63 -0.351299 429.545 1.25123L438.665 7.53108L432.346 15.1659V226.557C432.346 234.309 427.643 243.299 421.832 246.66L162.3 396.49L161.818 404.738L152.254 398.223C150.352 396.79 149.18 393.963 149.18 390.093V172.696C149.219 164.944 153.922 155.954 159.733 152.606Z" fill="white"/>
<path d="M158.143 396.189V178.831C158.256 174.436 159.47 170.14 161.674 166.337L152.307 160.969C150.373 164.582 149.316 168.598 149.219 172.695V390.053C149.219 393.961 150.391 396.749 152.294 398.183L161.101 404.215C159.277 402.756 158.143 399.981 158.143 396.189Z" fill="#004E9E"/>
<path opacity="0.2" d="M158.143 396.189V178.831C158.256 174.436 159.47 170.14 161.674 166.337L152.307 160.969C150.373 164.582 149.316 168.598 149.219 172.695V390.053C149.219 393.961 150.391 396.749 152.294 398.183L161.101 404.215C159.277 402.756 158.143 399.981 158.143 396.189Z" fill="white"/>
<path d="M168.658 404.151L430.796 252.796C436.606 249.448 441.31 240.445 441.31 232.706V15.3478C441.31 7.60871 436.606 4.05187 430.796 7.40025L168.658 158.742C162.847 162.103 158.144 171.093 158.144 178.832V396.19C158.144 403.942 162.847 407.512 168.658 404.151Z" fill="#004E9E"/>
<path d="M168.658 404.151L430.796 252.796C436.606 249.448 441.31 240.445 441.31 232.706V15.3478C441.31 7.60871 436.606 4.05187 430.796 7.40025L168.658 158.742C162.847 162.103 158.144 171.093 158.144 178.832V396.19C158.144 403.942 162.847 407.512 168.658 404.151Z" fill="#004E9E"/>
<path opacity="0.7" d="M168.658 404.151L430.796 252.796C436.606 249.448 441.31 240.445 441.31 232.706V15.3478C441.31 7.60871 436.606 4.05187 430.796 7.40025L168.658 158.742C162.847 162.103 158.144 171.093 158.144 178.832V396.19C158.144 403.942 162.847 407.512 168.658 404.151Z" fill="white"/>
<path d="M168.658 158.742L430.796 7.40025C436.606 4.05187 441.31 7.60871 441.31 15.3478V25.9792L158.144 189.464V178.832C158.144 171.093 162.847 162.103 168.658 158.742Z" fill="#004E9E"/>
<path opacity="0.5" d="M168.658 158.742L430.796 7.40025C436.606 4.05187 441.31 7.60871 441.31 15.3478V25.9792L158.144 189.464V178.832C158.144 171.093 162.847 162.103 168.658 158.742Z" fill="white"/>
<path d="M434.952 7.16599C438.17 7.16599 440.267 10.3841 440.267 15.348V232.706C440.267 240.106 435.773 248.731 430.261 251.91L168.15 403.252C167.051 403.948 165.788 404.339 164.489 404.386C161.257 404.386 159.173 401.167 159.173 396.19V178.832C159.173 171.432 163.655 162.82 169.179 159.628L431.317 8.28646C432.418 7.59828 433.68 7.21186 434.978 7.16599M434.978 6.13672C433.493 6.19364 432.05 6.64321 430.796 7.43959L168.658 158.742C162.847 162.103 158.144 171.093 158.144 178.832V396.19C158.144 401.962 160.749 405.402 164.489 405.402C165.968 405.338 167.405 404.889 168.658 404.099L430.796 252.744C436.606 249.396 441.31 240.393 441.31 232.654V15.348C441.31 9.58933 438.704 6.13672 434.978 6.13672Z" fill="#004E9E"/>
<path d="M181.738 345.641C181.135 345.642 180.549 345.443 180.071 345.077C179.592 344.71 179.248 344.195 179.092 343.613C178.936 343.031 178.977 342.413 179.208 341.856C179.439 341.3 179.848 340.835 180.37 340.534L259.064 295.103C259.375 294.899 259.724 294.761 260.091 294.697C260.457 294.633 260.833 294.644 261.195 294.73C261.556 294.817 261.897 294.975 262.195 295.198C262.494 295.42 262.744 295.7 262.93 296.022C263.116 296.344 263.235 296.701 263.279 297.07C263.322 297.439 263.29 297.814 263.185 298.17C263.079 298.527 262.901 298.858 262.663 299.144C262.425 299.43 262.131 299.664 261.8 299.832L183.106 345.263C182.694 345.513 182.22 345.644 181.738 345.641Z" fill="#FAFAFA"/>
<path d="M181.739 362.785C181.135 362.791 180.546 362.597 180.064 362.232C179.583 361.867 179.236 361.352 179.08 360.768C178.923 360.185 178.965 359.566 179.198 359.008C179.432 358.451 179.845 357.988 180.371 357.691L292.418 292.964C292.729 292.784 293.073 292.668 293.43 292.621C293.786 292.574 294.148 292.598 294.495 292.691C294.843 292.784 295.168 292.945 295.453 293.164C295.738 293.383 295.978 293.656 296.157 293.967C296.337 294.279 296.453 294.622 296.5 294.979C296.547 295.335 296.523 295.697 296.43 296.045C296.337 296.392 296.176 296.717 295.957 297.002C295.738 297.288 295.465 297.527 295.154 297.706L183.107 362.42C182.691 362.66 182.219 362.786 181.739 362.785Z" fill="#FAFAFA"/>
<path d="M306.215 308.077C305.61 308.083 305.021 307.889 304.54 307.524C304.058 307.159 303.712 306.644 303.555 306.06C303.398 305.477 303.44 304.858 303.674 304.3C303.908 303.743 304.32 303.28 304.847 302.983L382.38 258.216C382.692 258.012 383.041 257.874 383.408 257.81C383.774 257.746 384.15 257.758 384.511 257.844C384.873 257.93 385.214 258.089 385.512 258.311C385.81 258.533 386.06 258.814 386.247 259.135C386.433 259.457 386.552 259.814 386.595 260.183C386.639 260.553 386.607 260.927 386.501 261.284C386.396 261.64 386.218 261.972 385.98 262.257C385.742 262.543 385.448 262.777 385.116 262.945L307.57 307.712C307.158 307.951 306.69 308.076 306.215 308.077Z" fill="#FAFAFA"/>
<path d="M181.738 379.943C181.135 379.944 180.549 379.746 180.071 379.379C179.592 379.012 179.248 378.498 179.092 377.915C178.936 377.333 178.977 376.715 179.208 376.159C179.439 375.602 179.848 375.137 180.37 374.836L280.392 317.093C281.02 316.73 281.768 316.632 282.469 316.82C283.17 317.008 283.768 317.467 284.131 318.096C284.494 318.725 284.592 319.472 284.404 320.174C284.216 320.875 283.757 321.473 283.128 321.835L183.106 379.579C182.69 379.819 182.218 379.945 181.738 379.943Z" fill="#FAFAFA"/>
<path d="M181.738 203.211C181.135 203.212 180.549 203.014 180.071 202.647C179.592 202.28 179.248 201.766 179.092 201.183C178.936 200.601 178.977 199.983 179.208 199.427C179.439 198.87 179.848 198.405 180.37 198.104L259.064 152.673C259.375 152.469 259.724 152.331 260.091 152.267C260.457 152.203 260.833 152.215 261.195 152.301C261.556 152.387 261.897 152.546 262.195 152.768C262.494 152.99 262.744 153.271 262.93 153.593C263.116 153.914 263.235 154.271 263.279 154.64C263.322 155.01 263.29 155.384 263.185 155.741C263.079 156.097 262.901 156.429 262.663 156.714C262.425 157 262.131 157.234 261.8 157.402L183.106 202.847C182.69 203.087 182.218 203.213 181.738 203.211Z" fill="#FAFAFA"/>
<path d="M181.738 220.369C181.135 220.37 180.549 220.171 180.071 219.804C179.592 219.438 179.248 218.923 179.092 218.341C178.936 217.758 178.977 217.141 179.208 216.584C179.439 216.027 179.848 215.562 180.37 215.262L292.417 150.548C292.728 150.344 293.078 150.206 293.444 150.142C293.811 150.078 294.186 150.09 294.548 150.176C294.91 150.262 295.25 150.421 295.549 150.643C295.847 150.865 296.097 151.146 296.283 151.468C296.47 151.789 296.588 152.146 296.632 152.515C296.676 152.885 296.644 153.259 296.538 153.616C296.432 153.972 296.255 154.304 296.017 154.589C295.779 154.875 295.485 155.109 295.153 155.277L183.106 219.991C182.694 220.241 182.22 220.372 181.738 220.369Z" fill="#FAFAFA"/>
<path d="M306.214 165.66C305.611 165.661 305.025 165.462 304.546 165.096C304.068 164.729 303.724 164.214 303.568 163.632C303.412 163.05 303.453 162.432 303.684 161.875C303.915 161.319 304.323 160.854 304.846 160.553L382.38 115.786C382.691 115.583 383.04 115.445 383.407 115.381C383.773 115.317 384.149 115.328 384.511 115.414C384.872 115.5 385.213 115.659 385.511 115.881C385.81 116.103 386.06 116.384 386.246 116.706C386.432 117.028 386.551 117.384 386.595 117.754C386.638 118.123 386.606 118.497 386.501 118.854C386.395 119.211 386.217 119.542 385.979 119.828C385.741 120.113 385.447 120.347 385.116 120.516L307.569 165.282C307.16 165.53 306.691 165.661 306.214 165.66Z" fill="#FAFAFA"/>
<path d="M181.739 237.513C181.135 237.519 180.546 237.325 180.064 236.959C179.583 236.594 179.236 236.08 179.08 235.496C178.923 234.912 178.965 234.293 179.198 233.736C179.432 233.179 179.845 232.715 180.371 232.418L280.392 174.675C281.016 174.358 281.738 174.293 282.409 174.492C283.079 174.691 283.648 175.139 283.999 175.745C284.349 176.35 284.454 177.067 284.292 177.748C284.13 178.429 283.714 179.021 283.128 179.404L183.107 237.148C182.691 237.388 182.219 237.514 181.739 237.513Z" fill="#FAFAFA"/>
<path d="M180.461 165.361C180.391 166.724 180.001 168.052 179.322 169.236C178.643 170.42 177.694 171.427 176.552 172.175C174.376 173.478 172.644 172.41 172.644 169.908C172.713 168.545 173.103 167.217 173.783 166.033C174.462 164.849 175.411 163.842 176.552 163.094C178.702 161.83 180.461 162.847 180.461 165.361Z" fill="white"/>
<path d="M194.338 157.361C194.268 158.725 193.878 160.052 193.199 161.236C192.52 162.42 191.571 163.427 190.429 164.175C188.253 165.478 186.521 164.41 186.521 161.908C186.59 160.545 186.98 159.218 187.66 158.034C188.339 156.85 189.288 155.843 190.429 155.094C192.618 153.818 194.338 154.834 194.338 157.361Z" fill="white"/>
<path d="M208.252 149.334C208.182 150.697 207.792 152.024 207.113 153.208C206.434 154.392 205.485 155.399 204.343 156.148C202.167 157.451 200.435 156.382 200.435 153.881C200.504 152.518 200.894 151.19 201.574 150.006C202.253 148.822 203.202 147.815 204.343 147.067C206.454 145.803 208.252 146.819 208.252 149.334Z" fill="white"/>
<path d="M235.807 218.921L230.218 216.497V158.559L235.807 160.982V218.921Z" fill="#004E9E"/>
<path opacity="0.6" d="M235.807 218.921L230.218 216.497V158.559L235.807 160.982V218.921Z" fill="black"/>
<path d="M463.145 29.4455L235.807 160.983L230.218 158.56L457.543 27.0352L463.145 29.4455Z" fill="#004E9E"/>
<path opacity="0.4" d="M463.145 29.4455L235.807 160.983L230.218 158.56L457.543 27.0352L463.145 29.4455Z" fill="black"/>
<path d="M463.145 87.384L235.807 218.922V160.983L463.145 29.4453V87.384Z" fill="#004E9E"/>
<path opacity="0.3" d="M463.145 87.384L235.807 218.922V160.983L463.145 29.4453V87.384Z" fill="black"/>
<path d="M318.451 138.974V135.06L332.027 120.362V124.866L322.732 134.512L322.858 134.207V134.763L322.732 134.601L332.027 133.563V138.067L318.451 138.974ZM344.707 107.192L338.343 138.119L334.804 140.152L341.168 109.226L344.707 107.192ZM361.062 114.485L347.486 129.183V124.679L356.781 115.033L356.656 115.338V114.782L356.781 114.944L347.486 115.982V111.478L361.062 110.571V114.485Z" fill="white"/>
<path d="M523.325 177.79L527.833 183.171C528.392 188.127 529.457 193.012 531.012 197.75C533.618 206.154 533.175 209.71 533.175 209.71L542.738 208.968L538.921 179.002C538.659 176.998 537.97 175.075 536.901 173.36L534.582 169.621L523.325 177.79Z" fill="#945959"/>
<path d="M528.562 329.564C528.562 329.564 522.556 334.241 523.129 337.003C523.703 339.765 533.07 341.081 537.617 335.7C539.637 333.316 541.07 328.456 541.252 322.528C541.344 319.571 545.07 315.193 541.252 312.105C537.435 309.017 535.911 308.288 534.959 308.679C534.008 309.069 528.562 329.564 528.562 329.564Z" fill="#37474F"/>
<path d="M524.081 306.956L527.612 314.487C527.612 314.487 528.758 325.366 528.563 329.561C528.563 329.561 534.009 332.896 535.624 326.577C536.245 323.578 536.534 320.52 536.484 317.457C535.889 315.34 535.638 313.14 535.742 310.943C535.833 310.264 535.794 309.574 535.624 308.91L534.009 302.266L524.081 306.956Z" fill="#945959"/>
<path d="M475.132 319.387C475.132 319.387 472.956 320.847 471.432 321.928C469.907 323.009 463.523 328.312 472.448 329.941C474.673 330.258 476.942 330.063 479.08 329.37C481.219 328.677 483.17 327.504 484.786 325.941C489.177 321.615 492.356 322.957 493.906 321.238C495.457 319.518 494.323 309.916 492.147 310.359L475.132 319.387Z" fill="#37474F"/>
<path d="M482.558 302.475L483.248 308.69C483.304 309.22 483.219 309.754 483.001 310.24C482.362 311.608 480.512 314.592 475.184 319.361C475.184 319.361 475.092 324.168 481.841 321.849C483.683 320.987 485.43 319.935 487.053 318.709C487.841 318.15 488.491 317.42 488.955 316.572C489.758 315.038 490.815 313.65 492.082 312.468L492.785 302.449L482.558 302.475Z" fill="#945959"/>
<path d="M476.642 197.254C476.642 197.254 474.766 206.569 475.157 224.249C475.405 236.132 475.652 245.017 475.769 249.577C475.832 251.84 476.019 254.097 476.33 256.339L482.531 302.474C484.099 303.303 485.846 303.737 487.619 303.737C489.393 303.737 491.139 303.303 492.707 302.474C492.707 302.474 493.593 292.298 494.609 286.957C495.521 282.227 496.72 268.404 494.322 261.16C493.649 259.057 493.48 256.826 493.827 254.645L500.876 208.172L476.642 197.254Z" fill="#455A64"/>
<path d="M481.463 207.938C482.257 210.036 483.477 211.948 485.047 213.551C486.616 215.154 488.502 216.415 490.583 217.253L495.729 242.346L500.941 208.224L481.463 207.938Z" fill="#37474F"/>
<path d="M478.741 196.773C478.741 196.773 477.438 208.095 486.884 212.511C488.751 213.493 490.74 214.224 492.799 214.687C492.799 214.687 500.525 260.757 501.919 264.196C503.313 267.636 524.068 306.93 524.068 306.93C524.068 306.93 532.276 308.65 533.995 302.253C533.995 302.253 532.184 293.863 529.891 284.703C527.963 276.99 525.696 268.261 521.722 263.988C520.199 262.398 519.362 260.274 519.39 258.073C519.56 250.581 519.898 234.856 519.963 230.621C520.068 224.993 522.165 207.052 518.543 199.808L507.365 189.594L478.741 196.773Z" fill="#455A64"/>
<path d="M470.988 133.572L462.572 128.569C462.572 128.569 457.217 121.807 452.878 115.788C448.54 109.768 446.716 106.668 446.716 106.668C448.08 104.591 448.871 102.191 449.009 99.7102C449.009 96.0882 448.813 94.3684 449.491 93.0265C450.168 91.6845 449.491 90.2644 447.68 90.8377C445.869 91.4109 444.527 95.3065 445.074 97.8471L434.964 103.71C434.964 103.71 436.645 108.205 438.964 110.303C438.964 110.303 448.227 132.621 451.849 136.243C455.471 139.865 461.803 144.777 461.803 144.777L470.988 133.572Z" fill="#945959"/>
<path d="M488.277 143.837L470.988 133.57C470.988 133.57 462.989 134.131 461.868 144.736L476.994 156.071L488.277 143.837Z" fill="#004E9E"/>
<path opacity="0.2" d="M488.277 143.837L470.988 133.57C470.988 133.57 462.989 134.131 461.868 144.736L476.994 156.071L488.277 143.837Z" fill="black"/>
<path d="M491.627 143.836L503.17 144.409L510.714 144.787L512.017 162.623C512.017 162.623 510.023 172.929 508.499 176.551C506.975 180.173 516.981 195.065 518.609 199.833C518.609 199.833 512.212 200.693 508.968 193.319C507.498 196.853 504.992 199.858 501.78 201.94C498.568 204.021 494.801 205.081 490.975 204.98C481.777 204.98 476.644 197.254 476.644 197.254L478.741 184.225C477.464 180.241 476.758 176.095 476.644 171.913C476.644 171.913 471.432 169.998 472.618 162.285C473.803 154.572 488.252 143.875 488.252 143.875L491.627 143.836Z" fill="#004E9E"/>
<path d="M515.208 115.033C515.208 115.033 521.814 109.574 527.52 115.789C535.728 124.74 517.983 142.315 533.722 142.693C533.722 142.693 531.911 144.791 525.8 144.791C519.69 144.791 514.452 138.472 515.495 126.85L515.208 115.033Z" fill="#263238"/>
<path d="M513.123 114.743C513.123 114.743 515.234 113.441 516.042 114.379C516.85 115.317 517.918 122.6 515.508 126.847C514.361 128.854 512.081 126.091 512.081 126.091L513.123 114.743Z" fill="#004E9E"/>
<path d="M477.724 115.785C477.724 115.785 477.815 123.329 472.955 121.231C473.355 122.232 474.06 123.081 474.97 123.658C475.879 124.236 476.948 124.513 478.023 124.449C480.694 124.449 482.232 121.844 482.232 119.798L477.724 115.785Z" fill="#263238"/>
<path d="M503.243 125.601C510.24 121.459 512.554 112.428 508.411 105.432C504.268 98.4355 495.238 96.122 488.242 100.265C481.245 104.407 478.932 113.437 483.074 120.434C487.217 127.43 496.247 129.744 503.243 125.601Z" fill="#263238"/>
<path d="M514.635 119.801C514.635 127.931 507.378 138.263 499.248 138.263C497.315 138.265 495.401 137.885 493.615 137.147C491.829 136.409 490.206 135.325 488.838 133.959C487.471 132.593 486.386 130.971 485.646 129.186C484.906 127.4 484.525 125.486 484.525 123.554C484.525 115.424 491.118 106.16 499.248 106.16C507.378 106.16 514.635 108.922 514.635 119.801Z" fill="#263238"/>
<path d="M492.134 111.16C492.137 112.869 491.633 114.541 490.685 115.963C489.737 117.385 488.389 118.494 486.811 119.15C485.233 119.806 483.496 119.979 481.819 119.647C480.143 119.315 478.602 118.493 477.393 117.286C476.184 116.078 475.36 114.539 475.025 112.863C474.691 111.187 474.861 109.45 475.515 107.871C476.168 106.291 477.275 104.942 478.696 103.992C480.117 103.042 481.787 102.535 483.496 102.535C485.785 102.535 487.98 103.443 489.6 105.061C491.219 106.678 492.131 108.871 492.134 111.16Z" fill="#263238"/>
<path d="M491.626 135.918V143.84C491.626 143.84 484.226 151.279 491.431 151.93C498.635 152.582 503.156 144.413 503.156 144.413V129.312L491.626 135.918Z" fill="#945959"/>
<path d="M503.039 126.926V127.395C500.433 137.544 493.776 139.759 491.626 140.267L491.548 124.555H502.713L503.039 126.926Z" fill="#703838"/>
<path d="M493.71 104.32C490.018 104.558 486.565 106.23 484.088 108.977C481.61 111.725 480.304 115.332 480.447 119.029C480.317 130.273 482.037 138.846 487.861 139.198C493.684 139.55 506.7 134.299 507.312 119.655C507.925 105.01 497.867 103.942 493.71 104.32Z" fill="#945959"/>
<path d="M488.316 123.551L488.421 130.143L484.538 129.023L488.316 123.551Z" fill="#703838"/>
<path d="M494.115 123.371C494.114 123.626 494.039 123.875 493.899 124.088C493.758 124.3 493.558 124.467 493.324 124.567C493.09 124.667 492.831 124.697 492.58 124.651C492.33 124.606 492.098 124.488 491.913 124.313C491.729 124.137 491.6 123.911 491.542 123.663C491.485 123.414 491.502 123.155 491.59 122.916C491.679 122.677 491.836 122.469 492.041 122.319C492.247 122.168 492.492 122.081 492.746 122.068C492.923 122.059 493.099 122.086 493.265 122.148C493.431 122.209 493.582 122.304 493.71 122.426C493.838 122.548 493.94 122.694 494.01 122.857C494.079 123.019 494.115 123.194 494.115 123.371Z" fill="#263238"/>
<path d="M485.255 122.561C485.255 122.818 485.179 123.07 485.036 123.285C484.892 123.499 484.689 123.666 484.451 123.764C484.213 123.863 483.951 123.889 483.698 123.839C483.445 123.788 483.213 123.664 483.031 123.482C482.849 123.3 482.725 123.068 482.674 122.815C482.624 122.562 482.65 122.3 482.749 122.062C482.847 121.824 483.014 121.621 483.228 121.477C483.443 121.334 483.695 121.258 483.952 121.258C484.298 121.258 484.629 121.395 484.874 121.639C485.118 121.884 485.255 122.215 485.255 122.561Z" fill="#263238"/>
<path d="M482.233 119.8L484.839 118.197C484.839 118.197 483.822 117.168 482.819 117.806C482.533 118.042 482.324 118.358 482.22 118.713C482.115 119.068 482.12 119.447 482.233 119.8Z" fill="#004E9E"/>
<path d="M487.549 132.451C488.912 131.793 490.238 131.062 491.523 130.262C491.523 130.262 492.356 132.424 490.598 133.31C490.068 133.541 489.475 133.581 488.92 133.425C488.364 133.268 487.88 132.924 487.549 132.451Z" fill="#703838"/>
<path d="M482.233 119.8L484.839 118.197C484.839 118.197 483.822 117.168 482.819 117.806C482.533 118.042 482.324 118.358 482.22 118.713C482.115 119.068 482.12 119.447 482.233 119.8Z" fill="#263238"/>
<path d="M500.733 122.756C500.733 122.756 500.472 127.486 503.195 127.486H508.537V118.47C508.537 108.36 500.863 97.7934 484.538 106.145C484.538 106.145 483.743 119.643 500.733 122.756Z" fill="#263238"/>
<path d="M502.792 127.694C502.757 126.664 502.957 125.639 503.378 124.698C503.583 124.112 503.955 123.598 504.448 123.221C504.941 122.843 505.534 122.618 506.153 122.574C509.332 122.574 509.723 125.584 509.671 126.678C509.538 128.365 508.753 129.933 507.484 131.052C506.215 132.17 504.56 132.751 502.87 132.671L502.792 127.694Z" fill="#945959"/>
<path d="M509.671 144.734C509.671 144.734 502.166 152.213 511.743 163.756C521.319 175.3 523.325 177.788 523.325 177.788C523.325 177.788 533.149 178.752 534.582 169.684C534.582 169.684 523.038 153.464 519.885 149.373C516.733 145.282 513.866 144.943 509.671 144.734Z" fill="#004E9E"/>
<path opacity="0.2" d="M509.671 144.734C509.671 144.734 502.166 152.213 511.743 163.756C521.319 175.3 523.325 177.788 523.325 177.788C523.325 177.788 533.149 178.752 534.582 169.684C534.582 169.684 523.038 153.464 519.885 149.373C516.733 145.282 513.866 144.943 509.671 144.734Z" fill="black"/>
<path opacity="0.3" d="M487.834 172.839C487.834 172.839 499.325 176.044 503.169 165.113C503.169 165.178 501.188 178.754 487.834 172.839Z" fill="black"/>
<path d="M533.174 209.75C533.174 209.75 531.35 210.819 530.92 214.636C530.79 215.731 528.784 218.167 529.083 218.779C529.383 219.392 531.389 220.226 533.552 216.643C533.944 218.461 533.971 220.338 533.63 222.167C533.044 224.994 532.028 228.616 535.715 227.821C539.402 227.027 544.835 224.108 543.975 218.61C543.18 213.307 542.737 209.008 542.737 209.008L533.174 209.75Z" fill="#945959"/>
<path d="M316.141 280.9L310.539 278.489V220.551L316.141 222.961V280.9Z" fill="#004E9E"/>
<path opacity="0.6" d="M316.141 280.9L310.539 278.489V220.551L316.141 222.961V280.9Z" fill="black"/>
<path d="M446.846 147.344L316.141 222.963L310.539 220.552L441.243 144.934L446.846 147.344Z" fill="#004E9E"/>
<path opacity="0.4" d="M446.846 147.344L316.141 222.963L310.539 220.552L441.243 144.934L446.846 147.344Z" fill="black"/>
<path d="M446.846 205.282L316.142 280.901V222.962L446.846 147.344V205.282Z" fill="#004E9E"/>
<path opacity="0.3" d="M446.846 205.282L316.142 280.901V222.962L446.846 147.344V205.282Z" fill="black"/>
<path d="M367.775 210.193L363.834 212.458C363.762 211.911 363.615 211.473 363.393 211.144C363.171 210.808 362.886 210.577 362.538 210.452C362.19 210.327 361.788 210.309 361.332 210.398C360.882 210.483 360.393 210.678 359.865 210.981C358.911 211.529 358.08 212.28 357.372 213.234C356.664 214.18 356.115 215.285 355.725 216.547C355.335 217.802 355.141 219.166 355.141 220.64C355.141 222.156 355.335 223.317 355.725 224.124C356.121 224.927 356.673 225.388 357.381 225.507C358.089 225.626 358.908 225.419 359.838 224.884C360.36 224.584 360.843 224.227 361.287 223.813C361.737 223.395 362.136 222.934 362.484 222.43C362.832 221.918 363.12 221.376 363.348 220.802C363.582 220.224 363.744 219.626 363.834 219.007L367.775 216.763C367.673 217.797 367.418 218.884 367.01 220.025C366.608 221.156 366.065 222.274 365.381 223.38C364.703 224.475 363.894 225.501 362.952 226.458C362.016 227.404 360.957 228.217 359.775 228.896C358.131 229.84 356.661 230.256 355.365 230.143C354.076 230.026 353.056 229.37 352.306 228.175C351.562 226.977 351.19 225.222 351.19 222.911C351.19 220.593 351.568 218.403 352.324 216.343C353.08 214.282 354.106 212.454 355.401 210.858C356.697 209.256 358.155 207.989 359.775 207.058C360.843 206.444 361.833 206.048 362.745 205.87C363.663 205.688 364.475 205.726 365.183 205.984C365.891 206.234 366.467 206.709 366.911 207.409C367.361 208.105 367.649 209.033 367.775 210.193Z" fill="white"/>
<path d="M383.186 205.699V197.204L385.044 196.127V204.622L383.186 205.699ZM380.441 204.118V201.97L387.789 197.708V199.856L380.441 204.118ZM393.119 199.938V191.443L394.977 190.366V198.861L393.119 199.938ZM390.374 198.357V196.209L397.722 191.947V194.095L390.374 198.357Z" fill="white"/>
<path d="M429.908 440.215C429.908 440.215 435.223 437.244 435.888 433.935C436.552 430.626 430.676 423.004 430.676 423.004C430.676 423.004 426.364 425.466 429.908 440.215Z" fill="#004E9E"/>
<path opacity="0.2" d="M429.908 440.215C429.908 440.215 435.223 437.244 435.888 433.935C436.552 430.626 430.676 423.004 430.676 423.004C430.676 423.004 426.364 425.466 429.908 440.215Z" fill="black"/>
<path d="M364.83 450.471L372.582 445.898L373.598 438.133L370.928 437.508L364.83 450.471Z" fill="#004E9E"/>
<path opacity="0.3" d="M364.83 450.471L372.582 445.898L373.598 438.133L370.928 437.508L364.83 450.471Z" fill="black"/>
<path d="M410.743 405.832L417.987 417.402L422.821 433.427C422.821 433.427 431.745 432.319 426.13 411.747L421.922 399.344L410.743 405.832Z" fill="#FFA8A7"/>
<path d="M363.293 410.121L364.817 428.557L359.488 442.693C359.488 442.693 362.159 449.298 370.55 435.319C375.006 427.892 375.149 426.42 375.149 426.42L376.908 410.134L363.293 410.121Z" fill="#FFA8A7"/>
<path d="M370.211 230.531L367.488 235.925C367.448 236.004 367.425 236.09 367.421 236.178C367.418 236.266 367.433 236.354 367.466 236.436C367.5 236.518 367.551 236.591 367.615 236.651C367.679 236.712 367.756 236.757 367.84 236.785L371.071 237.853L370.211 230.531Z" fill="#F28F8F"/>
<path d="M373.989 221.492C373.989 221.492 369.807 223.72 369.807 236.488C369.807 243.511 370.289 247.993 373.937 247.719C377.585 247.445 388.086 246.064 388.086 246.064V221.492H373.989Z" fill="#FFA8A7"/>
<path d="M373.99 247.715C375.293 247.61 377.404 247.376 379.619 247.115V245.812C377.617 246.678 375.523 247.311 373.378 247.702C373.581 247.726 373.786 247.73 373.99 247.715Z" fill="#F28F8F"/>
<path d="M378.992 245.268V253.293H389.962V242.023L378.992 245.268Z" fill="#FFA8A7"/>
<path d="M397.766 273.425L404.893 288.056L399.551 295.052L403.238 307.547L414.691 294.036C415.686 292.865 416.346 291.446 416.601 289.929C416.855 288.413 416.695 286.856 416.137 285.424C412.984 277.32 406.717 261.373 405.023 258.546C402.73 254.728 399.994 252.696 395.903 252.826C391.812 252.956 397.766 273.425 397.766 273.425Z" fill="#FFA8A7"/>
<path d="M401.206 297.461C402.86 302.425 406.417 309.408 406.313 332.873C406.209 349.276 406.313 358.514 406.469 362.578C406.497 364.033 407.063 365.426 408.059 366.487C409.805 368.285 412.775 372.155 415.577 379.516C418.069 385.999 420.188 392.62 421.921 399.346C421.921 399.346 419.889 405.964 410.73 405.86L387.825 369.054C386.911 367.575 386.32 365.918 386.093 364.194L380.073 318.476V299.754L401.206 297.461Z" fill="#004E9E"/>
<path opacity="0.6" d="M401.206 297.461C402.86 302.425 406.417 309.408 406.313 332.873C406.209 349.276 406.313 358.514 406.469 362.578C406.497 364.033 407.063 365.426 408.059 366.487C409.805 368.285 412.775 372.155 415.577 379.516C418.069 385.999 420.188 392.62 421.921 399.346C421.921 399.346 419.889 405.964 410.73 405.86L387.825 369.054C386.911 367.575 386.32 365.918 386.093 364.194L380.073 318.476V299.754L401.206 297.461Z" fill="black"/>
<path d="M384.92 355.113L391.278 332.313C391.278 332.313 400.216 323.193 397.037 307.559L383.526 324.574L384.204 350.527L384.92 355.113Z" fill="#004E9E"/>
<path opacity="0.7" d="M384.92 355.113L391.278 332.313C391.278 332.313 400.216 323.193 397.037 307.559L383.526 324.574L384.204 350.527L384.92 355.113Z" fill="black"/>
<path d="M363.931 298.738C363.553 306.112 359.553 352.025 360.126 365.38C360.7 378.734 363.292 410.12 363.292 410.12C363.292 410.12 371.93 413.69 376.894 410.12C376.894 410.12 378.992 397.743 380.36 387.971C381.196 382.915 381.023 377.743 379.852 372.754C379.376 370.921 379.376 368.997 379.852 367.165L389.597 329.759C389.597 329.759 398.014 323.857 398.014 307.532V295.285L363.931 298.738Z" fill="#004E9E"/>
<path opacity="0.6" d="M363.931 298.738C363.553 306.112 359.553 352.025 360.126 365.38C360.7 378.734 363.292 410.12 363.292 410.12C363.292 410.12 371.93 413.69 376.894 410.12C376.894 410.12 378.992 397.743 380.36 387.971C381.196 382.915 381.023 377.743 379.852 372.754C379.376 370.921 379.376 368.997 379.852 367.165L389.597 329.759C389.597 329.759 398.014 323.857 398.014 307.532V295.285L363.931 298.738Z" fill="black"/>
<path d="M387.344 247.652L369.808 254.089C369.808 254.089 361.6 261.215 361.6 274.83C361.6 278.648 365.287 282.074 365.287 282.074C365.287 282.074 363.984 294.035 363.88 298.738C363.88 298.738 372.843 305.031 389.559 302.555C393.745 301.707 397.699 299.97 401.155 297.461C401.155 297.461 398.549 286.908 398.223 285.892C397.898 284.875 401.793 272.537 401.793 262.74L387.344 247.652Z" fill="#455A64"/>
<path d="M371.853 224.344C371.853 224.344 372.557 230.507 376.504 232.161C376.504 232.161 373.377 236.448 378.016 238.324V235.015L379.957 238.806C379.957 238.806 374.498 260.955 383.97 260.955C385.618 260.982 387.222 260.418 388.491 259.365C388.491 259.365 389.95 265.15 398.718 265.15C407.487 265.15 409.141 256.564 409.141 256.564C409.141 256.564 403.291 258.336 403.291 252.239C403.291 246.141 402.848 226.546 402.523 223.575C401.933 220.449 400.344 217.598 397.994 215.453C395.644 213.308 392.661 211.984 389.494 211.68C382.654 210.859 373.781 210.912 368.648 217.973C363.515 225.035 370.837 227.015 370.837 227.015C370.837 227.015 371.006 226.768 371.853 224.344Z" fill="#263238"/>
<path d="M378.015 235.039C378.015 235.039 377.728 229.645 381.924 230.062C386.718 230.531 385.194 239.182 379.318 239.182L378.015 235.039Z" fill="#FFA8A7"/>
<path d="M404.737 218.597C403.629 216.864 402.124 215.421 400.346 214.388C399.771 214.121 399.149 213.97 398.515 213.945C397.881 213.92 397.249 214.022 396.655 214.244C396.061 214.465 395.517 214.803 395.054 215.238C394.592 215.672 394.221 216.194 393.962 216.773C393.468 217.793 393.205 218.91 393.189 220.043C393.174 221.177 393.407 222.3 393.873 223.334C394.339 224.367 395.026 225.286 395.885 226.025C396.745 226.765 397.756 227.306 398.848 227.612C399.275 227.729 399.711 227.812 400.151 227.86C401.372 227.971 402.592 227.636 403.585 226.917C404.579 226.199 405.28 225.146 405.558 223.951C405.729 223.336 405.821 222.701 405.831 222.062C405.844 220.82 405.46 219.606 404.737 218.597Z" fill="#004E9E"/>
<path d="M408.32 219.9C408.317 221.26 407.912 222.589 407.154 223.718C406.397 224.848 405.321 225.728 404.064 226.246C402.807 226.765 401.424 226.899 400.091 226.632C398.757 226.365 397.533 225.709 396.572 224.747C395.611 223.784 394.957 222.558 394.693 221.224C394.428 219.89 394.565 218.508 395.086 217.251C395.607 215.995 396.489 214.922 397.62 214.166C398.751 213.411 400.081 213.008 401.441 213.008C402.345 213.008 403.241 213.186 404.076 213.533C404.912 213.879 405.671 214.387 406.31 215.027C406.949 215.667 407.455 216.427 407.8 217.263C408.145 218.1 408.322 218.996 408.32 219.9Z" fill="#263238"/>
<path d="M369.807 254.089C369.807 254.089 375.709 254.988 375.709 262.871C375.709 270.753 361.208 274.323 354.342 276.863C350.433 278.336 345.13 280.394 341.417 281.88C339.988 282.448 338.43 282.61 336.915 282.348C335.4 282.085 333.986 281.409 332.831 280.394C325.598 274.07 319.048 267.004 313.288 259.314C313.288 259.314 305.002 256.382 305.25 248.239C305.497 240.096 310.461 237.816 310.461 237.816V240.526C310.46 241.412 310.663 242.287 311.054 243.082C311.445 243.877 312.013 244.572 312.715 245.112L314.37 246.415C314.552 246.556 314.766 246.653 314.992 246.696C315.219 246.74 315.452 246.729 315.674 246.666C315.896 246.603 316.1 246.488 316.27 246.331C316.439 246.175 316.569 245.98 316.65 245.764C317.223 244.2 318.226 242.168 319.724 241.491C322.265 240.344 321.379 245.282 320.741 247.64C320.361 248.991 320.189 250.393 320.233 251.796L338.799 268.199C338.799 268.199 359.175 257.477 369.807 254.089Z" fill="#FFA8A7"/>
<path d="M375.148 426.445C373.822 426.667 372.565 427.196 371.479 427.99C370.393 428.784 369.508 429.821 368.895 431.018C366.862 435.083 363.045 446.536 359.488 442.744L360.7 439.552C360.7 439.552 346.459 442.666 349.86 446.392C353.26 450.118 363.931 451.773 364.83 450.496C365.729 449.22 370.549 440.073 370.549 440.073L373.22 452.281C373.609 452.619 374.106 452.804 374.621 452.804C375.135 452.804 375.633 452.619 376.021 452.281C376.021 452.281 379.5 428.856 375.148 426.445Z" fill="#004E9E"/>
<path d="M422.821 433.43C423.846 432.91 424.674 432.071 425.179 431.039C425.684 430.007 425.84 428.839 425.622 427.71C425.114 423.385 421.818 414.773 426.131 411.75C428.046 410.447 432.293 416.258 435.889 423.255C439.485 430.251 440.501 432.283 440.501 432.283C440.501 432.283 440.11 434.16 438.469 434.068L430.586 425.925C430.078 428.412 430.163 430.983 430.834 433.43C431.98 437.247 432.137 439.462 427.981 441.312C423.824 443.162 412.45 445.69 418.535 438.016C419.737 436.291 421.181 434.746 422.821 433.43Z" fill="#004E9E"/>
<path d="M117.402 454.508L118.419 465.022C118.419 465.022 119.552 467.185 124.777 467.185C130.001 467.185 128.842 462.729 128.842 462.729L129.35 454.508H117.402Z" fill="#FFA8A7"/>
<path d="M133.076 348.074C133.076 353.533 132.568 406.821 132.529 410.391C132.536 410.516 132.536 410.643 132.529 410.768C132.321 413.739 129.741 450.271 129.363 454.506C129.363 454.506 123.135 459.248 117.416 454.506C117.416 454.506 115.878 441.62 115.37 437.803C114.862 433.986 112.947 416.957 115.37 411.342L109.143 379.043V353.103L133.076 348.074Z" fill="#37474F"/>
<path d="M126.015 356.258C126.015 356.258 124.712 364.414 115.358 368.87L111.254 390.041L109.13 380.152V357.04L126.015 356.258Z" fill="#263238"/>
<path d="M77.4567 462.727L76.4404 470.544C76.4404 470.544 79.1634 477.644 87.4758 474.218L89.0001 466.088L77.4567 462.727Z" fill="#FFA8A7"/>
<path d="M89.0005 349.026C88.4272 355.123 86.7465 370.64 86.1081 390.717C85.4697 410.795 85.4697 410.677 85.4697 410.677C83.1833 415.598 81.6252 420.825 80.8445 426.195C80.0497 433.725 77.457 462.675 77.457 462.675C78.9042 464.216 80.7409 465.337 82.773 465.92C84.805 466.502 86.9568 466.525 89.0005 465.984L104.348 417.778C104.762 416.465 105.08 415.124 105.299 413.765L112.817 366.38C112.817 366.38 125.924 364.608 128.842 347.684L89.0005 349.026Z" fill="#37474F"/>
<path d="M137.271 311.527L152.045 323.357V306.186L146.808 300.844L137.271 311.527Z" fill="#F28F8F"/>
<path d="M122.862 284.73C126.366 284.47 129.84 285.524 132.608 287.688C137.181 291.31 146.809 300.847 146.809 300.847C146.456 303.372 145.361 305.735 143.663 307.637C141.966 309.539 139.741 310.894 137.272 311.53L127.826 304.768L122.862 284.73Z" fill="#004E9E"/>
<path opacity="0.2" d="M122.862 284.73C126.366 284.47 129.84 285.524 132.608 287.688C137.181 291.31 146.809 300.847 146.809 300.847C146.456 303.372 145.361 305.735 143.663 307.637C141.966 309.539 139.741 310.894 137.272 311.53L127.826 304.768L122.862 284.73Z" fill="white"/>
<path d="M103.684 284.822C103.684 284.822 93.9643 285.799 89.5736 286.75L87.958 304.287C87.958 304.287 91.3715 323.83 91.3715 326.579C91.3715 329.328 89.0003 349.027 89.0003 349.027C89.0003 349.027 95.7101 353.418 115.24 353.418C121.549 353.218 127.697 351.377 133.076 348.076V309.107C133.076 301.524 130.119 289.564 122.862 284.73H116.895L103.684 284.822Z" fill="#004E9E"/>
<path opacity="0.2" d="M103.684 284.822C103.684 284.822 93.9643 285.799 89.5736 286.75L87.958 304.287C87.958 304.287 91.3715 323.83 91.3715 326.579C91.3715 329.328 89.0003 349.027 89.0003 349.027C89.0003 349.027 95.7101 353.418 115.24 353.418C121.549 353.218 127.697 351.377 133.076 348.076V309.107C133.076 301.524 130.119 289.564 122.862 284.73H116.895L103.684 284.822Z" fill="black"/>
<path d="M157.635 338.341L152.046 335.931V277.992L157.635 280.403V338.341Z" fill="#004E9E"/>
<path opacity="0.6" d="M157.635 338.341L152.046 335.931V277.992L157.635 280.403V338.341Z" fill="black"/>
<path d="M288.339 204.785L157.635 280.404L152.046 277.994L282.737 202.375L288.339 204.785Z" fill="#004E9E"/>
<path opacity="0.4" d="M288.339 204.785L157.635 280.404L152.046 277.994L282.737 202.375L288.339 204.785Z" fill="black"/>
<path d="M288.34 262.724L157.636 338.343V280.404L288.34 204.785V262.724Z" fill="#004E9E"/>
<path opacity="0.3" d="M288.34 262.724L157.636 338.343V280.404L288.34 204.785V262.724Z" fill="black"/>
<path d="M197.308 275.009L193.367 277.274C193.295 276.727 193.148 276.289 192.926 275.96C192.704 275.624 192.419 275.394 192.071 275.268C191.723 275.143 191.321 275.125 190.865 275.214C190.415 275.3 189.926 275.494 189.398 275.798C188.444 276.346 187.613 277.097 186.905 278.05C186.198 278.997 185.649 280.101 185.259 281.363C184.869 282.618 184.674 283.983 184.674 285.457C184.674 286.972 184.869 288.133 185.259 288.94C185.655 289.743 186.207 290.205 186.914 290.324C187.622 290.443 188.441 290.235 189.371 289.701C189.893 289.401 190.376 289.044 190.82 288.629C191.27 288.212 191.669 287.75 192.017 287.246C192.365 286.735 192.653 286.192 192.881 285.618C193.115 285.041 193.277 284.443 193.367 283.824L197.308 281.579C197.206 282.613 196.951 283.701 196.543 284.842C196.141 285.972 195.598 287.091 194.915 288.196C194.237 289.292 193.427 290.318 192.485 291.274C191.549 292.22 190.49 293.033 189.308 293.712C187.664 294.657 186.195 295.073 184.899 294.959C183.609 294.843 182.589 294.187 181.839 292.992C181.095 291.793 180.723 290.038 180.723 287.727C180.723 285.409 181.101 283.22 181.857 281.159C182.613 279.099 183.639 277.271 184.935 275.675C186.231 274.072 187.688 272.805 189.308 271.874C190.376 271.26 191.366 270.865 192.278 270.686C193.196 270.505 194.009 270.543 194.717 270.8C195.425 271.051 196 271.526 196.444 272.226C196.894 272.922 197.182 273.85 197.308 275.009ZM210.1 266.329C210.028 265.533 209.719 265.06 209.173 264.91C208.628 264.76 207.887 264.954 206.951 265.492C206.315 265.858 205.778 266.27 205.34 266.729C204.902 267.182 204.566 267.655 204.332 268.149C204.104 268.64 203.99 269.114 203.99 269.57C203.978 269.958 204.047 270.25 204.197 270.448C204.353 270.642 204.566 270.765 204.836 270.818C205.106 270.863 205.418 270.86 205.772 270.809C206.126 270.751 206.504 270.658 206.906 270.531L208.562 270.036C209.365 269.782 210.103 269.634 210.775 269.594C211.447 269.554 212.029 269.645 212.521 269.868C213.013 270.09 213.394 270.466 213.664 270.996C213.94 271.522 214.081 272.227 214.087 273.109C214.081 274.413 213.793 275.707 213.223 276.989C212.659 278.261 211.843 279.467 210.775 280.607C209.713 281.736 208.433 282.732 206.933 283.593C205.445 284.449 204.149 284.93 203.045 285.039C201.947 285.144 201.089 284.859 200.471 284.183C199.86 283.496 199.539 282.397 199.509 280.885L203.279 278.718C203.321 279.407 203.498 279.9 203.81 280.198C204.128 280.486 204.551 280.6 205.079 280.538C205.613 280.467 206.216 280.238 206.888 279.852C207.548 279.472 208.121 279.032 208.607 278.532C209.098 278.028 209.479 277.501 209.749 276.951C210.019 276.402 210.154 275.871 210.154 275.359C210.154 274.881 210.031 274.551 209.785 274.367C209.545 274.179 209.191 274.106 208.723 274.147C208.262 274.184 207.695 274.302 207.023 274.501L205.016 275.074C203.462 275.531 202.235 275.554 201.335 275.144C200.435 274.734 199.988 273.742 199.994 272.168C199.988 270.884 200.285 269.589 200.885 268.282C201.491 266.972 202.322 265.744 203.378 264.598C204.434 263.451 205.634 262.492 206.978 261.719C208.346 260.933 209.539 260.517 210.559 260.47C211.585 260.421 212.383 260.713 212.953 261.347C213.523 261.981 213.817 262.926 213.835 264.182L210.1 266.329ZM226.706 256.785C226.634 255.989 226.325 255.517 225.779 255.367C225.233 255.217 224.492 255.411 223.556 255.949C222.92 256.314 222.383 256.727 221.945 257.186C221.507 257.638 221.171 258.112 220.937 258.606C220.709 259.097 220.595 259.57 220.595 260.027C220.583 260.415 220.652 260.707 220.802 260.905C220.958 261.099 221.171 261.222 221.441 261.274C221.711 261.32 222.023 261.317 222.377 261.266C222.731 261.208 223.109 261.115 223.511 260.988L225.167 260.493C225.971 260.238 226.709 260.091 227.381 260.051C228.053 260.011 228.634 260.102 229.126 260.324C229.618 260.547 229.999 260.923 230.269 261.453C230.545 261.979 230.686 262.683 230.692 263.566C230.686 264.87 230.398 266.163 229.828 267.446C229.264 268.718 228.449 269.924 227.381 271.063C226.319 272.193 225.038 273.188 223.538 274.05C222.05 274.905 220.754 275.387 219.651 275.496C218.553 275.601 217.695 275.315 217.077 274.639C216.465 273.953 216.144 272.854 216.114 271.342L219.884 269.175C219.926 269.864 220.103 270.357 220.415 270.655C220.733 270.943 221.156 271.056 221.684 270.995C222.218 270.923 222.821 270.695 223.493 270.308C224.153 269.929 224.726 269.489 225.212 268.988C225.704 268.484 226.085 267.957 226.355 267.408C226.625 266.858 226.76 266.327 226.76 265.815C226.76 265.338 226.637 265.007 226.391 264.823C226.151 264.636 225.797 264.563 225.329 264.603C224.867 264.641 224.3 264.759 223.628 264.958L221.621 265.53C220.067 265.987 218.841 266.011 217.941 265.601C217.041 265.191 216.594 264.199 216.6 262.624C216.594 261.341 216.891 260.046 217.491 258.739C218.097 257.429 218.928 256.201 219.983 255.054C221.039 253.908 222.239 252.948 223.583 252.176C224.951 251.39 226.145 250.974 227.165 250.927C228.191 250.877 228.988 251.169 229.558 251.804C230.128 252.438 230.422 253.383 230.44 254.639L226.706 256.785Z" fill="white"/>
<path d="M128.777 247.859C128.777 247.859 136.373 254.53 129.767 269.396L122.041 249.306L128.777 247.859Z" fill="#263238"/>
<path d="M103.684 284.822C103.684 284.822 106.289 291.792 113.546 291.792C120.803 291.792 116.895 284.73 116.895 284.73L103.684 284.822Z" fill="#FFA8A7"/>
<path d="M103.684 284.822L116.895 284.731V264.523H103.684V284.822Z" fill="#FFA8A7"/>
<path d="M116.894 283.92C112.022 282.031 105.833 278.904 105.833 275.92L104.23 265.875H116.894V283.92Z" fill="#F28F8F"/>
<path d="M113.859 243.742C118.523 243.742 128.425 246.348 129.571 258.543C130.718 270.738 128.933 281.109 123.317 281.109C112.295 281.109 101.716 279.701 101.625 261.67C101.546 245.762 109.312 243.742 113.859 243.742Z" fill="#FFA8A7"/>
<path d="M103.696 272.352L105.481 266.802C105.615 266.916 105.78 266.99 105.955 267.014C106.13 267.038 106.308 267.011 106.468 266.937C106.628 266.863 106.764 266.745 106.859 266.596C106.954 266.448 107.005 266.275 107.005 266.098V256.262C107.005 256.262 111.591 254.959 111.109 251.115C111.109 251.115 113.455 253.213 122.444 253.213C131.434 253.213 133.623 245.591 132.724 241.344C132.724 241.344 131.056 243.064 126.301 243.064C121.545 243.064 101.755 237.096 101.247 249.057C101.247 249.057 99.566 246.607 96.869 249.057L100.348 251.167C100.348 251.167 96.2306 251.037 96.869 257.069C97.3771 261.838 99.3575 270.867 100.178 274.476C100.411 275.475 101.011 276.349 101.859 276.925L103.696 278.163V272.352Z" fill="#263238"/>
<path d="M120.869 262.203V269.395L125.077 268.092L120.869 262.203Z" fill="#F28F8F"/>
<path d="M113.39 263.44C113.387 263.732 113.472 264.018 113.632 264.263C113.793 264.507 114.023 264.697 114.292 264.81C114.562 264.923 114.859 264.954 115.146 264.897C115.433 264.841 115.696 264.7 115.903 264.494C116.11 264.287 116.25 264.024 116.306 263.737C116.363 263.45 116.333 263.153 116.22 262.883C116.107 262.614 115.916 262.384 115.672 262.223C115.428 262.062 115.141 261.978 114.849 261.981C114.657 261.981 114.468 262.018 114.29 262.092C114.113 262.165 113.953 262.272 113.817 262.408C113.682 262.543 113.574 262.704 113.501 262.881C113.427 263.058 113.39 263.248 113.39 263.44Z" fill="#263238"/>
<path d="M124.347 262.425C124.347 262.717 124.433 263.001 124.595 263.243C124.757 263.485 124.987 263.674 125.256 263.786C125.525 263.897 125.821 263.926 126.106 263.869C126.392 263.813 126.654 263.672 126.86 263.466C127.066 263.261 127.206 262.998 127.263 262.713C127.32 262.427 127.291 262.131 127.179 261.862C127.068 261.593 126.879 261.363 126.637 261.201C126.395 261.039 126.11 260.953 125.819 260.953C125.428 260.953 125.054 261.108 124.778 261.384C124.502 261.66 124.347 262.035 124.347 262.425Z" fill="#263238"/>
<path d="M127.605 259.363L124.738 257.669C124.738 257.669 125.833 256.523 126.927 257.213C127.244 257.462 127.478 257.8 127.599 258.183C127.72 258.567 127.722 258.978 127.605 259.363Z" fill="#263238"/>
<path d="M111.839 260.431L114.692 258.724C114.692 258.724 113.598 257.578 112.504 258.268C112.188 258.52 111.956 258.861 111.838 259.247C111.719 259.633 111.72 260.045 111.839 260.431Z" fill="#263238"/>
<path d="M122.848 272.301C121.464 272.398 120.087 272.026 118.939 271.246C118.939 271.246 118.666 273.331 120.412 273.722C120.919 273.797 121.436 273.698 121.879 273.44C122.322 273.181 122.664 272.78 122.848 272.301Z" fill="#F28F8F"/>
<path d="M104.778 264.783C106.432 267.662 106.002 271.154 103.696 272.352C102.198 273.121 97.8072 271.466 96.1525 268.587C94.4979 265.708 95.4229 263.245 97.6769 261.942C99.9309 260.64 103.11 261.903 104.778 264.783Z" fill="#FFA8A7"/>
<path d="M105.612 266.921L100.544 261.423L104.192 259.234L105.612 266.921Z" fill="#253239"/>
<path d="M113.142 307.726L120.112 315.452C120.112 315.452 125.806 314.645 132.412 314.306C137.653 313.757 142.851 312.847 147.968 311.583C147.968 311.583 149.271 306.007 152.059 303.766V308.13C152.059 308.13 155.798 309.433 157.648 307.583C160.84 304.443 163.694 301.551 163.694 308.13C163.694 317.316 159.785 321.042 149.232 320.846C149.232 320.846 122.588 332.012 116.204 330.761C112.295 330.018 101.56 319.895 101.56 319.895L113.142 307.726Z" fill="#FFA8A7"/>
<path d="M84.4786 289.291C88.9605 284.731 94.0808 286.855 98.5757 291.35C103.071 295.845 113.142 307.727 113.142 307.727C113.142 307.727 112.126 316.99 101.559 319.935C101.559 319.935 87.3058 305.095 85.4818 303.076C82.1725 299.376 80.2312 293.643 84.4786 289.291Z" fill="#004E9E"/>
<path opacity="0.2" d="M84.4786 289.291C88.9605 284.731 94.0808 286.855 98.5757 291.35C103.071 295.845 113.142 307.727 113.142 307.727C113.142 307.727 112.126 316.99 101.559 319.935C101.559 319.935 87.3058 305.095 85.4818 303.076C82.1725 299.376 80.2312 293.643 84.4786 289.291Z" fill="white"/>
<path d="M179.014 326.003C179.129 324.526 179.543 323.088 180.233 321.777C180.924 320.466 181.874 319.311 183.027 318.381C189.034 313.795 188.786 318.381 188.929 320.27C189.073 322.159 183.366 328.869 177.112 327.097L179.014 326.003Z" fill="#FFA8A7"/>
<path d="M76.4403 470.492C76.7606 471.205 77.2013 471.858 77.7432 472.421C77.873 472.53 78.0302 472.603 78.1979 472.63C78.3656 472.657 78.5376 472.638 78.6954 472.575C78.8533 472.512 78.9911 472.408 79.0942 472.273C79.1972 472.138 79.2617 471.977 79.2806 471.808C79.2961 471.377 79.4246 470.958 79.6533 470.592C79.8819 470.226 80.2027 469.927 80.5834 469.724C81.4824 469.346 88.6612 469.216 88.7264 470.675C88.7296 471.778 88.6161 472.879 88.3876 473.958C88.3876 473.958 89.5472 483.834 91.7491 487.742C93.9509 491.651 97.5468 497.97 89.9771 499.82C82.4075 501.67 76.6878 497.657 76.4273 492.315C76.1667 486.974 76.297 483.195 75.7889 482.27C75.2808 481.345 72.6099 480.863 73.6261 475.977C74.6423 471.092 74.7987 468.16 76.753 468.004L76.4403 470.492Z" fill="#455A64"/>
<path d="M81.6006 479.559C81.4906 479.563 81.3816 479.538 81.2836 479.488C81.1856 479.438 81.102 479.364 81.0404 479.273C80.9373 479.125 80.896 478.943 80.9252 478.765C80.9544 478.588 81.0518 478.429 81.1967 478.322C82.3938 477.569 83.76 477.129 85.171 477.04C86.582 476.951 87.9927 477.217 89.2745 477.814C89.3601 477.849 89.4377 477.902 89.503 477.968C89.5683 478.034 89.62 478.112 89.655 478.198C89.6901 478.284 89.7079 478.376 89.7075 478.469C89.707 478.561 89.6883 478.653 89.6524 478.739C89.6164 478.824 89.564 478.902 89.4981 478.967C89.4321 479.032 89.354 479.084 89.2681 479.119C89.1822 479.154 89.0902 479.172 88.9974 479.172C88.9047 479.171 88.8129 479.152 88.7273 479.116C87.6579 478.62 86.4827 478.395 85.3056 478.461C84.1286 478.527 82.9859 478.882 81.9785 479.494C81.8614 479.552 81.7302 479.575 81.6006 479.559Z" fill="#EBEBEB"/>
<path d="M82.7213 484.381C82.612 484.38 82.5046 484.354 82.4073 484.304C82.3101 484.254 82.2258 484.183 82.161 484.095C82.0593 483.945 82.0201 483.762 82.0517 483.584C82.0834 483.407 82.1834 483.248 82.3304 483.143C83.5259 482.388 84.8917 481.945 86.3029 481.853C87.7141 481.762 89.1256 482.027 90.4082 482.622C90.5736 482.699 90.7027 482.837 90.7683 483.007C90.834 483.177 90.831 483.366 90.76 483.534C90.6834 483.7 90.5446 483.828 90.3738 483.892C90.2029 483.955 90.0139 483.948 89.848 483.873C88.7814 483.375 87.6079 483.149 86.4325 483.214C85.2571 483.28 84.1163 483.636 83.1121 484.251C83.0008 484.338 82.8627 484.384 82.7213 484.381Z" fill="#EBEBEB"/>
<path d="M84.4791 489.138C84.3693 489.14 84.2606 489.115 84.1629 489.065C84.0651 489.015 83.9813 488.941 83.9188 488.851C83.8171 488.702 83.7779 488.519 83.8095 488.341C83.8412 488.163 83.9412 488.005 84.0882 487.9C85.2852 487.148 86.6515 486.707 88.0625 486.618C89.4734 486.53 90.8842 486.795 92.166 487.392C92.2486 487.427 92.3233 487.479 92.3858 487.543C92.4483 487.608 92.4974 487.684 92.5301 487.768C92.5628 487.851 92.5786 487.941 92.5765 488.03C92.5744 488.12 92.5544 488.209 92.5178 488.291C92.4411 488.453 92.3053 488.58 92.1382 488.645C91.9711 488.71 91.7853 488.71 91.6188 488.642C90.5491 488.148 89.3741 487.923 88.1972 487.989C87.0204 488.055 85.8778 488.409 84.8699 489.02C84.7545 489.098 84.6182 489.139 84.4791 489.138Z" fill="#EBEBEB"/>
<path d="M118.419 465.022C119.767 465.928 121.368 466.384 122.992 466.325C122.992 466.325 122.223 463.315 124.451 462.299C126.679 461.283 130.236 459.941 130.965 461.152C131.48 462.538 131.762 464 131.799 465.478C131.799 465.478 137.102 470.285 141.036 471.64C144.971 472.995 150.157 474.376 149.661 478.011C149.166 481.646 143.303 486.91 135.33 483.288C127.356 479.666 125.923 479.536 123.37 479.145C120.816 478.754 116.06 478.963 116.256 474.702C116.451 470.442 116.086 463.393 118.21 462.82L118.419 465.022Z" fill="#455A64"/>
<path d="M127.552 471.533C127.474 471.545 127.395 471.545 127.318 471.533C127.148 471.471 127.009 471.345 126.931 471.182C126.853 471.019 126.842 470.831 126.901 470.66C127.424 469.438 128.266 468.378 129.338 467.592C130.411 466.806 131.675 466.322 132.998 466.191C133.147 466.211 133.285 466.28 133.391 466.387C133.496 466.494 133.563 466.633 133.581 466.782C133.599 466.931 133.567 467.082 133.49 467.211C133.412 467.34 133.294 467.44 133.154 467.494C132.084 467.598 131.06 467.985 130.188 468.614C129.316 469.244 128.626 470.094 128.19 471.077C128.141 471.208 128.054 471.321 127.941 471.402C127.827 471.484 127.692 471.529 127.552 471.533Z" fill="#EBEBEB"/>
<path d="M131.616 474.218H131.395C131.31 474.19 131.232 474.146 131.165 474.087C131.098 474.028 131.043 473.957 131.004 473.877C130.965 473.796 130.943 473.709 130.938 473.62C130.934 473.531 130.947 473.442 130.978 473.358C131.455 472.138 132.26 471.072 133.304 470.279C134.347 469.486 135.589 468.996 136.893 468.863C137.043 468.881 137.182 468.948 137.29 469.054C137.397 469.16 137.466 469.299 137.485 469.449C137.505 469.598 137.474 469.75 137.397 469.88C137.32 470.01 137.203 470.111 137.062 470.166C136.017 470.278 135.021 470.668 134.177 471.296C133.334 471.924 132.675 472.766 132.268 473.736C132.224 473.875 132.137 473.996 132.02 474.083C131.903 474.169 131.762 474.217 131.616 474.218Z" fill="#EBEBEB"/>
<path d="M136.751 476.342H136.594C136.417 476.307 136.261 476.205 136.159 476.056C136.057 475.908 136.017 475.725 136.047 475.547C136.294 474.269 136.998 473.125 138.026 472.327C139.054 471.529 140.337 471.131 141.636 471.209C141.817 471.216 141.988 471.293 142.113 471.425C142.237 471.556 142.304 471.731 142.301 471.912C142.301 472.003 142.283 472.093 142.247 472.176C142.211 472.259 142.159 472.334 142.093 472.396C142.027 472.459 141.949 472.507 141.864 472.538C141.778 472.569 141.688 472.582 141.597 472.577C140.626 472.519 139.667 472.812 138.894 473.403C138.122 473.994 137.588 474.843 137.389 475.795C137.358 475.944 137.278 476.078 137.163 476.177C137.047 476.276 136.902 476.334 136.751 476.342Z" fill="#EBEBEB"/>
<path d="M227.156 49.5363L216.069 55.8423V51.9336C216.069 51.647 216.069 51.3734 216.069 51.0998C216.069 50.8262 216.069 50.5656 216.069 50.305V50.2138C215.665 45.0024 211.73 43.022 206.949 45.7971C204.774 47.1198 202.912 48.8977 201.49 51.0086C200.434 44.0122 194.65 41.4064 187.692 45.4323C179.953 49.9012 173.686 60.7541 173.686 69.6787V78.0823C173.687 78.7471 173.513 79.4005 173.181 79.9767C172.85 80.553 172.372 81.0319 171.797 81.3655L165.283 85.196C163.868 86.0231 162.696 87.2068 161.882 88.6288C161.068 90.0508 160.641 91.6614 160.645 93.2998C160.657 93.9733 160.844 94.6322 161.186 95.2124C161.528 95.7927 162.014 96.2746 162.598 96.6115C163.181 96.9484 163.842 97.1288 164.515 97.1353C165.189 97.1417 165.853 96.9739 166.442 96.6482L226.987 61.6791C228.588 60.7531 229.919 59.424 230.847 57.8239C231.775 56.2239 232.268 54.4087 232.276 52.559C232.284 51.9557 232.133 51.3611 231.837 50.8352C231.541 50.3093 231.112 49.8708 230.592 49.5641C230.073 49.2574 229.481 49.0933 228.878 49.0884C228.275 49.0836 227.681 49.2381 227.156 49.5363Z" fill="#E6E6E6"/>
<path d="M126.601 62.5634L118.354 67.2277V64.3222C118.354 64.1138 118.354 63.9053 118.354 63.7099C118.354 63.5145 118.354 63.306 118.354 63.1236C118.054 59.215 115.149 57.8079 111.592 59.8534C109.982 60.8484 108.608 62.1822 107.566 63.762C106.758 58.5505 102.498 56.6614 97.3517 59.6319C94.3249 61.5909 91.8034 64.2368 89.9922 67.3543C88.1811 70.4718 87.1314 73.9728 86.9287 77.5725V83.7872C86.9289 84.2778 86.8003 84.7599 86.5556 85.1852C86.3109 85.6105 85.9589 85.964 85.5346 86.2105L80.714 89.0377C79.6673 89.6527 78.7993 90.5303 78.196 91.5838C77.5927 92.6372 77.2751 93.83 77.2744 95.044C77.2756 95.5465 77.4089 96.0399 77.661 96.4747C77.913 96.9095 78.275 97.2704 78.7105 97.5211C79.1461 97.7719 79.6399 97.9037 80.1424 97.9034C80.645 97.9031 81.1387 97.7707 81.5739 97.5194L126.367 71.6444C127.556 70.9579 128.543 69.9702 129.229 68.7809C129.915 67.5916 130.276 66.2425 130.275 64.8695C130.264 64.4404 130.146 64.0208 129.934 63.648C129.721 63.2752 129.419 62.9608 129.056 62.7326C128.692 62.5044 128.278 62.3696 127.85 62.34C127.421 62.3105 126.993 62.3872 126.601 62.5634Z" fill="#E6E6E6"/>
</svg>
