<svg width="17" height="22" viewBox="0 0 17 22" fill="none" xmlns="http://www.w3.org/2000/svg">
<path d="M8.5 0C6.24644 0.0025995 4.08592 0.914028 2.49242 2.53433C0.89891 4.15463 0.0025565 6.35149 0 8.64294C0 16.0386 7.72727 21.6241 8.05665 21.8578C8.18657 21.9504 8.34136 22 8.5 22C8.65863 22 8.81343 21.9504 8.94335 21.8578C9.27273 21.6241 17 16.0386 17 8.64294C16.9974 6.35149 16.1011 4.15463 14.5076 2.53433C12.9141 0.914028 10.7536 0.0025995 8.5 0ZM8.5 5.50005C9.11132 5.50005 9.70892 5.68438 10.2172 6.02973C10.7255 6.37507 11.1217 6.86592 11.3556 7.44021C11.5896 8.0145 11.6508 8.64643 11.5315 9.25609C11.4123 9.86575 11.1179 10.4258 10.6856 10.8653C10.2533 11.3048 9.70258 11.6042 9.10301 11.7254C8.50343 11.8467 7.88195 11.7845 7.31716 11.5466C6.75237 11.3087 6.26964 10.9059 5.93 10.389C5.59037 9.87219 5.40909 9.26455 5.40909 8.64294C5.40909 7.8094 5.73474 7.00999 6.3144 6.42059C6.89405 5.83118 7.68024 5.50005 8.5 5.50005Z" fill="black"/>
</svg>
