<svg width="19" height="15" viewBox="0 0 19 15" fill="none" xmlns="http://www.w3.org/2000/svg">
<path d="M18.2692 0H0.730769C0.536957 0 0.351083 0.0790178 0.214037 0.21967C0.0769915 0.360322 0 0.551088 0 0.75V13.5C0 13.8978 0.153983 14.2794 0.428075 14.5607C0.702166 14.842 1.07391 15 1.46154 15H17.5385C17.9261 15 18.2978 14.842 18.5719 14.5607C18.846 14.2794 19 13.8978 19 13.5V0.75C19 0.551088 18.923 0.360322 18.786 0.21967C18.6489 0.0790178 18.463 0 18.2692 0ZM6.82447 7.5L1.46154 12.5447V2.45531L6.82447 7.5ZM7.90601 8.51719L9.00216 9.55312C9.13698 9.68014 9.31333 9.75062 9.49635 9.75062C9.67936 9.75062 9.85571 9.68014 9.99053 9.55312L11.0867 8.51719L16.3848 13.5H2.60976L7.90601 8.51719ZM12.1755 7.5L17.5385 2.45438V12.5456L12.1755 7.5Z" fill="black"/>
</svg>
