<svg width="64" height="71" viewBox="0 0 64 71" fill="none" xmlns="http://www.w3.org/2000/svg">
<path fill-rule="evenodd" clip-rule="evenodd" d="M20.9438 21.3914C20.7229 21.3918 20.5112 21.4797 20.3552 21.6357C20.1991 21.7917 20.1115 22.0032 20.1115 22.2237V37.1889H15.0184V22.2237C15.0184 22.0032 14.9308 21.7917 14.7747 21.6357C14.6187 21.4797 14.407 21.3918 14.1861 21.3914H10.5791L17.5598 12.8445L24.5468 21.3914H20.9438ZM17.5614 10.6956C17.4382 10.6955 17.3166 10.7231 17.2055 10.7762C17.0944 10.8293 16.9967 10.9066 16.9195 11.0025L8.17528 21.6943C8.07594 21.8166 8.01336 21.9645 7.99478 22.1208C7.9762 22.2772 8.00239 22.4355 8.07031 22.5776C8.13823 22.7197 8.2451 22.8397 8.37853 22.9236C8.51197 23.0076 8.66651 23.0521 8.82426 23.052H13.3458V38.0244C13.3461 38.134 13.3681 38.2425 13.4104 38.3437C13.4528 38.4448 13.5148 38.5366 13.5927 38.6139C13.6707 38.6911 13.7632 38.7522 13.8649 38.7937C13.9665 38.8353 14.0754 38.8564 14.1853 38.8559H20.9431C21.164 38.8556 21.3758 38.768 21.532 38.6121C21.6882 38.4562 21.776 38.2448 21.7762 38.0244V23.0552H26.2985C26.4564 23.0563 26.6113 23.0124 26.7449 22.9285C26.8786 22.8446 26.9853 22.7243 27.0526 22.5818C27.1212 22.4392 27.1477 22.28 27.1291 22.1228C27.1105 21.9657 27.0475 21.8171 26.9475 21.6943L18.2104 11.0025C18.1323 10.9059 18.0334 10.8282 17.921 10.7751C17.8086 10.7219 17.6857 10.6948 17.5614 10.6956ZM39.4536 21.3914L46.4407 12.8445L53.4229 21.3914H49.816C49.5951 21.3918 49.3834 21.4797 49.2273 21.6357C49.0713 21.7917 48.9836 22.0032 48.9836 22.2237V37.1889H43.8906V22.2237C43.8906 22.0032 43.8029 21.7917 43.6469 21.6357C43.4908 21.4797 43.2791 21.3918 43.0582 21.3914H39.4536ZM43.0582 38.8527H49.816C50.0375 38.854 50.2504 38.7674 50.4079 38.6121C50.5655 38.4568 50.6548 38.2454 50.6563 38.0244V23.0552H55.1778C55.3361 23.0557 55.4913 23.0114 55.6253 22.9273C55.7593 22.8432 55.8666 22.7228 55.9347 22.5801C56.0027 22.4374 56.0287 22.2784 56.0096 22.1216C55.9905 21.9647 55.9271 21.8166 55.8268 21.6943L47.0833 11.0025C47.0054 10.9066 46.9069 10.8292 46.7952 10.7761C46.6835 10.723 46.5613 10.6954 46.4375 10.6954C46.3137 10.6954 46.1915 10.723 46.0798 10.7761C45.9681 10.8292 45.8696 10.9066 45.7917 11.0025L37.0545 21.6943C36.9552 21.8166 36.8926 21.9645 36.874 22.1208C36.8555 22.2772 36.8817 22.4355 36.9496 22.5776C37.0175 22.7197 37.1244 22.8397 37.2578 22.9236C37.3912 23.0076 37.5458 23.0521 37.7035 23.052H42.2258V38.0244C42.2261 38.2447 42.3138 38.4559 42.4698 38.6118C42.6259 38.7677 42.8374 38.8554 43.0582 38.8559V38.8527ZM35.3827 10.6956C35.2733 10.6953 35.1649 10.7166 35.0637 10.7583C34.9626 10.8 34.8707 10.8612 34.7934 10.9385C34.7161 11.0158 34.6549 11.1076 34.6133 11.2086C34.5717 11.3097 34.5506 11.4179 34.5511 11.5271V37.1889H29.4517V11.5271C29.4522 11.4179 29.4309 11.3096 29.3892 11.2086C29.3476 11.1076 29.2863 11.0158 29.2089 10.9385C29.1316 10.8612 29.0396 10.8 28.9385 10.7583C28.8373 10.7166 28.7288 10.6953 28.6194 10.6956H25.014L32.001 2.14955L38.9817 10.6956H35.3827ZM32.65 0.305913C32.5712 0.210259 32.4721 0.133218 32.3599 0.0803252C32.2477 0.0274321 32.1251 0 32.001 0C31.8769 0 31.7544 0.0274321 31.6422 0.0803252C31.53 0.133218 31.4309 0.210259 31.352 0.305913L22.6149 11.0025C22.5156 11.1248 22.453 11.2727 22.4344 11.429C22.4158 11.5853 22.442 11.7437 22.5099 11.8858C22.5779 12.0279 22.6847 12.1478 22.8182 12.2318C22.9516 12.3158 23.1061 12.3603 23.2639 12.3602H27.7862V38.0244C27.7864 38.2448 27.8743 38.4562 28.0305 38.6121C28.1867 38.768 28.3985 38.8556 28.6194 38.8559H35.3827C35.6036 38.8556 35.8154 38.768 35.9716 38.6121C36.1278 38.4562 36.2156 38.2448 36.2158 38.0244V12.3602H40.7382C40.8959 12.3603 41.0504 12.3158 41.1839 12.2318C41.3173 12.1478 41.4242 12.0279 41.4921 11.8858C41.56 11.7437 41.5862 11.5853 41.5676 11.429C41.5491 11.2727 41.4865 11.1248 41.3871 11.0025L32.65 0.305913ZM15.9299 66.557C15.8728 66.6102 15.7973 66.6393 15.7192 66.638C15.6411 66.6367 15.5666 66.6053 15.5113 66.5502C15.4561 66.4952 15.4244 66.4208 15.423 66.3429C15.4216 66.265 15.4505 66.1896 15.5038 66.1325C15.531 66.1046 15.5636 66.0824 15.5996 66.0674C15.6356 66.0523 15.6742 66.0447 15.7133 66.045C15.7942 66.0447 15.872 66.0761 15.9299 66.1325C15.9827 66.1906 16.012 66.2663 16.012 66.3448C16.012 66.4232 15.9827 66.4989 15.9299 66.557ZM17.1029 64.9555C16.8277 64.6811 16.4771 64.4944 16.0955 64.4188C15.7139 64.3432 15.3184 64.3822 14.959 64.5309C14.5997 64.6796 14.2925 64.9312 14.0764 65.2541C13.8603 65.577 13.745 65.9565 13.745 66.3448C13.745 66.733 13.8603 67.1126 14.0764 67.4354C14.2925 67.7583 14.5997 68.0099 14.959 68.1586C15.3184 68.3073 15.7139 68.3463 16.0955 68.2707C16.4771 68.1952 16.8277 68.0084 17.1029 67.734C17.2862 67.5518 17.4317 67.3354 17.5309 67.0969C17.6302 66.8585 17.6813 66.6029 17.6813 66.3448C17.6813 66.0866 17.6302 65.831 17.5309 65.5926C17.4317 65.3542 17.2862 65.1377 17.1029 64.9555ZM29.2486 68.6673V62.0461C29.2484 61.869 29.1779 61.6992 29.0526 61.5738C28.9273 61.4485 28.7573 61.3777 28.5798 61.3771H13.0517C12.8744 61.3777 12.7045 61.4485 12.5793 61.5739C12.4541 61.6993 12.3838 61.8691 12.3838 62.0461V68.6673C12.3838 68.8443 12.4541 69.0141 12.5793 69.1395C12.7045 69.2648 12.8744 69.3356 13.0517 69.3362H28.5798C28.7573 69.3356 28.9273 69.2649 29.0526 69.1395C29.1779 69.0141 29.2484 68.8443 29.2486 68.6673ZM2.46013 45.7949L13.511 56.8181C13.7293 57.0338 13.902 57.291 14.0191 57.5745C14.1361 57.8579 14.195 58.1619 14.1924 58.4685V59.7133H27.485C27.5078 57.0924 26.6622 54.5374 25.0797 52.4456C23.4972 50.3538 21.2665 48.8425 18.7345 48.1466C18.5953 48.1096 18.4686 48.0361 18.3677 47.9336L11.1514 40.735C10.9882 40.5665 10.793 40.432 10.5772 40.3396C10.3614 40.2471 10.1293 40.1984 9.89444 40.1963C9.65959 40.1943 9.42668 40.2389 9.20927 40.3275C8.99187 40.4162 8.79432 40.5472 8.62815 40.7128C8.46197 40.8784 8.33049 41.0754 8.24136 41.2923C8.15224 41.5091 8.10725 41.7415 8.10902 41.9759C8.1108 42.2103 8.15929 42.442 8.25169 42.6575C8.34408 42.8729 8.47853 43.0679 8.64719 43.231L14.1726 48.7414C14.3269 48.8985 14.4133 49.1096 14.4133 49.3296C14.4133 49.5495 14.3269 49.7606 14.1726 49.9177C14.0953 49.9952 14.0034 50.0566 13.9022 50.0986C13.801 50.1405 13.6925 50.1621 13.5829 50.1621C13.4734 50.1621 13.3649 50.1405 13.2637 50.0986C13.1625 50.0566 13.0706 49.9952 12.9932 49.9177L7.4678 44.4065C6.82536 43.7621 6.46471 42.8901 6.46471 41.981C6.46471 41.072 6.82536 40.2 7.4678 39.5556C7.62606 39.4025 7.79687 39.2629 7.97845 39.1383L7.64487 28.321C7.62544 27.735 7.37469 27.1805 6.94728 26.7782C6.51987 26.376 5.95047 26.1587 5.36319 26.1737C4.77591 26.1887 4.21838 26.4348 3.81213 26.8583C3.40589 27.2818 3.18387 27.8484 3.19448 28.4346C3.19764 28.4692 3.19764 28.5041 3.19448 28.5387L1.69258 43.6421C1.64354 44.0354 1.68734 44.4346 1.82047 44.808C1.9536 45.1814 2.17239 45.5186 2.45934 45.7926L2.46013 45.7949ZM29.1498 59.7867C29.189 56.827 28.2561 53.9359 26.4937 51.5553C24.7312 49.1747 22.2361 47.4355 19.3898 46.6035L12.3308 39.5572C11.9792 39.2071 11.5558 38.9373 11.0896 38.7663C10.6234 38.5954 10.1256 38.5274 9.63054 38.5671L9.31435 28.2752C9.28851 27.2488 8.85671 26.2744 8.11328 25.5647C7.36984 24.855 6.37519 24.4677 5.3466 24.4875C4.318 24.5073 3.33906 24.9325 2.6236 25.6703C1.90814 26.4081 1.51432 27.3985 1.52816 28.4251L0.0262536 43.4803C-0.0454651 44.119 0.0302271 44.7655 0.247533 45.3705C0.46484 45.9754 0.817994 46.5227 1.27995 46.9704L12.3308 57.9951C12.3938 58.0565 12.4433 58.1302 12.4761 58.2117C12.5089 58.2932 12.5243 58.3807 12.5213 58.4685V59.7772C12.0087 59.898 11.5519 60.1878 11.2248 60.5999C10.8977 61.0119 10.7195 61.522 10.719 62.0477V68.6688C10.7197 69.2864 10.9655 69.8785 11.4028 70.3154C11.84 70.7524 12.433 70.9985 13.0517 71H28.5798C29.1999 70.9998 29.7946 70.754 30.2333 70.3167C30.672 69.8793 30.9188 69.2861 30.9197 68.6673V62.0461C30.9189 61.5266 30.7443 61.0222 30.4237 60.6129C30.1031 60.2036 29.6548 59.9129 29.1498 59.7867ZM48.4991 66.557C48.4711 66.5849 48.4379 66.6071 48.4013 66.6222C48.3648 66.6373 48.3256 66.6451 48.286 66.6451C48.2465 66.6451 48.2073 66.6373 48.1707 66.6222C48.1342 66.6071 48.101 66.5849 48.073 66.557C48.0189 66.4995 47.9888 66.4236 47.9888 66.3448C47.9888 66.2659 48.0189 66.19 48.073 66.1325C48.1299 66.0769 48.2064 66.0457 48.286 66.0457C48.3657 66.0457 48.4422 66.0769 48.4991 66.1325C48.527 66.1604 48.5492 66.1935 48.5643 66.2299C48.5795 66.2663 48.5873 66.3053 48.5873 66.3448C48.5873 66.3842 48.5795 66.4232 48.5643 66.4596C48.5492 66.496 48.527 66.5291 48.4991 66.557ZM46.8991 64.9555C46.6238 65.2299 46.4362 65.5796 46.3601 65.9604C46.284 66.3413 46.3228 66.7361 46.4715 67.0949C46.6203 67.4537 46.8724 67.7604 47.1959 67.9762C47.5193 68.192 47.8997 68.3072 48.2888 68.3072C48.6779 68.3072 49.0583 68.192 49.3817 67.9762C49.7052 67.7604 49.9573 67.4537 50.1061 67.0949C50.2548 66.7361 50.2936 66.3413 50.2175 65.9604C50.1414 65.5796 49.9538 65.2299 49.6785 64.9555C49.4963 64.7727 49.2798 64.6276 49.0413 64.5287C48.8028 64.4297 48.5471 64.3787 48.2888 64.3787C48.0305 64.3787 47.7748 64.4297 47.5363 64.5287C47.2978 64.6276 47.0812 64.7727 46.8991 64.9555ZM61.5419 45.7949C61.8289 45.521 62.0477 45.1838 62.1808 44.8104C62.3139 44.437 62.3577 44.0377 62.3087 43.6444L60.8068 28.5411C60.8036 28.5065 60.8036 28.4716 60.8068 28.437C60.819 27.85 60.5979 27.282 60.1917 26.8573C59.7856 26.4325 59.2275 26.1855 58.6394 26.1702C58.0513 26.1548 57.481 26.3725 57.0532 26.7755C56.6254 27.1785 56.3749 27.7342 56.3564 28.321L56.0157 39.1375C56.2 39.2623 56.3733 39.4027 56.5335 39.5572C57.1759 40.2016 57.5366 41.0736 57.5366 41.9826C57.5366 42.8916 57.1759 43.7637 56.5335 44.4081L51.008 49.9193C50.8504 50.0688 50.6405 50.1509 50.4231 50.1482C50.2056 50.1455 49.9978 50.0581 49.844 49.9047C49.6902 49.7513 49.6025 49.544 49.5996 49.327C49.5968 49.11 49.6789 48.9004 49.8286 48.743L55.3541 43.2326C55.602 42.986 55.771 42.6714 55.8395 42.3287C55.908 41.9861 55.8729 41.6309 55.7388 41.3081C55.6046 40.9854 55.3774 40.7098 55.086 40.5161C54.7945 40.3225 54.4521 40.2197 54.102 40.2206C53.8695 40.2189 53.6389 40.2634 53.4239 40.3518C53.2089 40.4401 53.0137 40.5704 52.8498 40.735L45.6336 47.9336C45.5326 48.0361 45.406 48.1096 45.2668 48.1466C42.7347 48.8425 40.504 50.3538 38.9215 52.4456C37.339 54.5374 36.4934 57.0924 36.5162 59.7133H49.8097V58.4669C49.8072 58.1606 49.8662 57.8569 49.9832 57.5737C50.1003 57.2905 50.2729 57.0336 50.4911 56.8181L61.5419 45.7949ZM51.6183 68.6673V62.0461C51.6183 61.8691 51.548 61.6993 51.4228 61.5739C51.2976 61.4485 51.1277 61.3777 50.9503 61.3771H35.4222C35.2448 61.3777 35.075 61.4485 34.9498 61.5739C34.8246 61.6993 34.7543 61.8691 34.7543 62.0461V68.6673C34.7543 68.8443 34.8246 69.0141 34.9498 69.1395C35.075 69.2648 35.2448 69.3356 35.4222 69.3362H50.9503C51.1277 69.3356 51.2976 69.2648 51.4228 69.1395C51.548 69.0141 51.6183 68.8443 51.6183 68.6673ZM62.4723 28.4251C62.4882 27.3975 62.0955 26.4054 61.3802 25.666C60.6649 24.9266 59.6852 24.5001 58.6556 24.4799C57.6259 24.4596 56.6302 24.8473 55.8863 25.558C55.1423 26.2687 54.7108 27.2446 54.6861 28.2721L54.3699 38.5671C54.2782 38.56 54.1929 38.5561 54.1012 38.5561C53.6497 38.5544 53.2024 38.642 52.785 38.8138C52.3677 38.9856 51.9886 39.2383 51.6697 39.5572L44.6107 46.6035C41.7647 47.4358 39.2699 49.1751 37.5078 51.5557C35.7456 53.9363 34.8129 56.8272 34.8523 59.7867C34.3473 59.9129 33.899 60.2036 33.5783 60.6129C33.2577 61.0222 33.0832 61.5266 33.0824 62.0461V68.6673C33.0832 69.2861 33.3301 69.8793 33.7688 70.3167C34.2075 70.754 34.8021 70.9998 35.4222 71H50.9503C51.5694 70.9985 52.1627 70.7522 52.6001 70.3149C53.0375 69.8776 53.2834 69.2851 53.2838 68.6673V62.0461C53.2831 61.5194 53.1039 61.0085 52.7754 60.5963C52.4469 60.1841 51.9884 59.8949 51.4744 59.7757V58.4669C51.4726 58.3787 51.4891 58.2911 51.523 58.2096C51.5569 58.1281 51.6074 58.0545 51.6712 57.9936L62.7221 46.9704C63.1838 46.5222 63.5365 45.9746 63.7534 45.3694C63.9703 44.7642 64.0456 44.1175 63.9734 43.4788L62.4723 28.4251Z" fill="black"/>
</svg>
