<svg width="68" height="68" viewBox="0 0 68 68" fill="none" xmlns="http://www.w3.org/2000/svg">
<path fill-rule="evenodd" clip-rule="evenodd" d="M67.5871 43.8792L57.7021 26.758C57.2911 26.0462 56.6267 25.537 55.8299 25.3233C55.0339 25.1105 54.2031 25.2184 53.4913 25.6293L48.6464 28.4262C47.1748 29.2762 46.6685 31.1647 47.5185 32.6363L47.9516 33.3865L46.6892 33.9763C46.0462 34.2764 45.2819 34.3807 44.4179 34.2831C43.1333 34.139 41.9559 33.9076 40.709 33.663C39.1997 33.3666 37.6387 33.0598 35.8655 32.9179L35.8434 32.9164C33.7295 32.7472 32.7923 32.7583 30.7974 34.7561L29.5926 35.9631C24.9517 35.4406 21.673 34.2018 20.0196 33.4383L20.4815 32.6378C21.3315 31.1662 20.8252 29.277 19.3536 28.427L14.5087 25.6293C13.0363 24.7801 11.1479 25.2857 10.2986 26.7573L0.412924 43.8785C0.00197331 44.5903 -0.106677 45.4203 0.106928 46.2171C0.320534 47.0131 0.829787 47.6783 1.54156 48.0893L6.38649 50.8862C6.86026 51.1597 7.38578 51.2993 7.91942 51.2993C8.18772 51.2993 8.45824 51.2639 8.72432 51.1929C9.52036 50.9793 10.1856 50.47 10.5965 49.7583L10.8604 49.3015C11.6379 50.731 12.7407 52.2366 13.8546 53.2152L12.8117 55.0209C12.3179 55.876 12.1878 56.8746 12.4443 57.8333C12.7015 58.7919 13.3135 59.5917 14.1687 60.0854C14.7481 60.4202 15.3831 60.5791 16.0113 60.5791C16.3986 60.5791 16.7807 60.5119 17.1481 60.3943C17.1629 60.4638 17.1643 60.534 17.1828 60.6028C17.44 61.5614 18.052 62.3612 18.9072 62.8549C19.4874 63.1897 20.123 63.3494 20.7513 63.3494C21.1393 63.3494 21.5229 63.2814 21.8903 63.1639C22.0994 64.1602 22.7011 65.0694 23.6501 65.617C24.2325 65.9533 24.8689 66.113 25.4979 66.113C26.237 66.113 26.9614 65.8854 27.5771 65.4707C27.8845 66.1596 28.393 66.7649 29.0922 67.1685C29.6606 67.4967 30.2926 67.6644 30.9341 67.6644C31.2579 67.6644 31.5838 67.6216 31.9046 67.5358C32.8632 67.2786 33.663 66.6666 34.1567 65.8114L34.19 65.7538L37.2233 67.5055C37.7924 67.8322 38.4244 68 39.0659 68C39.3889 68 39.7149 67.9571 40.0364 67.8714C40.995 67.6142 41.7948 67.0022 42.2885 66.147C42.6455 65.5291 42.8022 64.8461 42.7793 64.1772C43.3536 64.3044 43.9552 64.2918 44.5413 64.1351C45.5 63.8779 46.2997 63.2659 46.7934 62.4107C47.1512 61.7906 47.3093 61.1091 47.2872 60.4409C48.823 60.7794 50.4705 60.1076 51.2984 58.6744C51.6561 58.0543 51.8157 57.3735 51.795 56.7061C52.3679 56.8317 52.9666 56.8192 53.5512 56.6625C54.5098 56.4053 55.3096 55.7933 55.8033 54.9381C56.297 54.0829 56.4271 53.0844 56.1706 52.1257C56.0982 51.8552 55.9969 51.5972 55.8705 51.3548C56.3488 50.8463 56.8418 50.2113 57.3 49.5801L57.4035 49.759C57.8144 50.4708 58.4789 50.98 59.2757 51.1937C59.5425 51.2654 59.8123 51.3001 60.0806 51.3001C60.6142 51.3001 61.1405 51.1604 61.6135 50.8869L66.4584 48.09C67.1702 47.6791 67.6795 47.0146 67.8931 46.2178C68.1067 45.421 67.998 44.5903 67.5871 43.8792ZM8.22542 49.331C7.92681 49.4109 7.61564 49.371 7.34956 49.2172L2.50463 46.4203C2.23855 46.2666 2.04786 46.0175 1.96803 45.7182C1.88821 45.4196 1.92812 45.1077 2.08186 44.8423L11.9661 27.7218C12.1797 27.3515 12.5692 27.1446 12.9683 27.1446C13.1642 27.1446 13.3623 27.1941 13.5441 27.299L18.3891 30.0959C18.9404 30.4145 19.1304 31.1226 18.8118 31.674L8.92758 48.7944C8.77384 49.0605 8.52476 49.2512 8.22542 49.331ZM15.1332 58.4164C14.7238 58.1799 14.4303 57.7963 14.3069 57.3343C14.1835 56.8731 14.2455 56.3934 14.4813 55.984L17.2375 51.2099C17.474 50.8004 17.8584 50.507 18.3196 50.3836C18.7808 50.2601 19.2605 50.3222 19.6699 50.558C20.5118 51.0436 20.8082 52.1279 20.3307 52.9742L17.5561 57.7808C17.0609 58.6175 15.9743 58.902 15.1332 58.4164ZM19.871 61.186C19.4615 60.9494 19.1681 60.5658 19.0447 60.1039C18.9212 59.6427 18.9833 59.163 19.2198 58.7535L22.9923 52.2188C23.2288 51.8093 23.6124 51.5159 24.0744 51.3925C24.5356 51.269 25.0153 51.3311 25.4247 51.5669C26.2666 52.0525 26.563 53.1368 26.0855 53.9831L22.2968 60.5459C21.803 61.3863 20.7151 61.673 19.871 61.186ZM24.6139 63.9473C23.7639 63.4566 23.4712 62.3656 23.962 61.5149L28.243 54.0999C28.4795 53.6904 28.8639 53.397 29.3251 53.2736C29.4803 53.2322 29.6377 53.2115 29.7937 53.2115C30.1011 53.2115 30.4042 53.2913 30.6754 53.4487C31.0842 53.6853 31.3783 54.0689 31.5018 54.5308C31.6252 54.992 31.5631 55.4717 31.3273 55.8812L27.0464 63.2962C26.5556 64.1462 25.4646 64.4389 24.6139 63.9473ZM31.4064 65.6732C30.9452 65.7974 30.4655 65.7346 30.0561 65.4988C29.2149 65.0132 28.9178 63.9296 29.3945 63.0833L32.1692 58.2775C32.6637 57.44 33.7509 57.1547 34.5928 57.6411C35.0022 57.8776 35.2957 58.2612 35.4191 58.7232C35.5425 59.1851 35.4805 59.6641 35.2439 60.0736L32.4878 64.8476C32.252 65.2556 31.8676 65.5498 31.4064 65.6732ZM54.1351 53.9743C53.8986 54.3837 53.5142 54.6772 53.053 54.8006C52.5911 54.924 52.1121 54.862 51.7027 54.6262L44.9907 50.7509C44.5295 50.4848 43.9404 50.643 43.6743 51.1035C43.4083 51.564 43.5664 52.1538 44.0269 52.4199L49.0248 55.3054C49.0337 55.3113 49.0426 55.318 49.0522 55.3239C49.8386 55.8302 50.098 56.9012 49.6302 57.7113C49.1394 58.5613 48.0477 58.854 47.1977 58.3632L42.2464 55.5043C41.7859 55.2382 41.1961 55.3963 40.93 55.8568C40.6639 56.3173 40.8221 56.9071 41.2825 57.1732L44.4659 59.0114C44.4682 59.0129 44.4704 59.0144 44.4726 59.0151C45.3226 59.5059 45.6153 60.5969 45.1238 61.4476C44.8872 61.8571 44.5036 62.1505 44.0417 62.274C43.5805 62.3974 43.1008 62.3353 42.6913 62.0995L39.5013 60.2576C39.0401 59.9915 38.451 60.1497 38.1849 60.6102C37.9188 61.0707 38.077 61.6605 38.5375 61.9266L39.975 62.7566C39.9787 62.7588 39.9832 62.7618 39.9869 62.764C40.8191 63.2592 41.1029 64.345 40.6181 65.1847C40.3816 65.5941 39.9972 65.8876 39.536 66.011C39.0748 66.1344 38.5951 66.0723 38.1856 65.8366L35.1523 64.0848L36.9114 61.0374C37.4051 60.1822 37.5352 59.1837 37.2787 58.225C37.0215 57.2663 36.4095 56.4666 35.5544 55.9729C34.8966 55.593 34.1663 55.44 33.4575 55.488C33.5218 55.0083 33.4915 54.5153 33.3621 54.0326C33.1049 53.074 32.4929 52.2743 31.6378 51.7805C30.7826 51.2868 29.7841 51.1567 28.8254 51.4132C28.5194 51.4952 28.2378 51.6246 27.9695 51.7754C27.6746 51.0126 27.1447 50.3363 26.3871 49.8987C25.5319 49.405 24.5326 49.2749 23.5747 49.5313C22.993 49.6873 22.4808 49.9874 22.0492 50.3799C21.7343 49.7782 21.2598 49.2527 20.6323 48.8905C19.7771 48.3968 18.7786 48.2667 17.8199 48.5232C16.8613 48.7804 16.0616 49.3924 15.5678 50.2476L14.8442 51.5004C13.7245 50.4109 12.5914 48.6555 12.0274 47.2785L19.0476 35.119C20.6227 35.8663 23.6191 37.0378 27.8757 37.6816L25.3981 40.1629C24.8911 40.6699 24.6524 41.3425 24.7255 42.0558C24.7987 42.769 25.1683 43.3788 25.7669 43.7728C28.1839 45.3649 30.7582 45.2806 32.4855 43.554L34.6837 41.3558C36.0341 42.9487 38.6587 45.4647 43.5457 45.8054L53.4839 51.5433C53.6362 51.6312 53.7722 51.7391 53.8897 51.864C53.8978 51.8736 53.906 51.8825 53.9148 51.8914C54.1004 52.0976 54.2364 52.3474 54.3103 52.6246C54.4337 53.0851 54.3716 53.5648 54.1351 53.9743ZM54.5557 49.9386C54.5202 49.9164 54.4832 49.8943 54.447 49.8736L44.3129 44.0226C44.1821 43.9472 44.035 43.9036 43.8835 43.8947C38.9358 43.6242 36.632 40.7261 35.6482 39.4888L35.5093 39.3143C35.3378 39.1015 35.0835 38.9707 34.8108 38.9559C34.5359 38.9418 34.2705 39.0431 34.0776 39.2367L31.1233 42.1903C29.5993 43.7151 27.6118 42.6789 26.8276 42.1622C26.7108 42.0853 26.6576 41.9974 26.6435 41.8584C26.6295 41.7217 26.665 41.6212 26.7625 41.5236L32.1611 36.1183C33.6068 34.6704 33.9246 34.6963 35.6896 34.8374L35.7118 34.8389C37.3756 34.972 38.8811 35.2676 40.338 35.5537C41.5678 35.7953 42.8399 36.0452 44.2035 36.1982C45.4246 36.3349 46.5362 36.1753 47.5052 35.7222L48.9199 35.0614L56.2394 47.739C55.617 48.6481 55.0294 49.4183 54.5557 49.9386ZM66.032 45.7182C65.9521 46.0175 65.7615 46.2666 65.4954 46.4196L60.6504 49.2172C60.3844 49.371 60.0739 49.4109 59.7746 49.331C59.4752 49.2512 59.2262 49.0605 59.0732 48.7944L49.1882 31.674C48.8696 31.1226 49.0596 30.4145 49.6109 30.0959L54.4559 27.299C54.722 27.1453 55.0324 27.1054 55.3317 27.1852C55.6311 27.265 55.8802 27.4557 56.0332 27.7218L65.9181 44.843C66.0719 45.1084 66.1118 45.4196 66.032 45.7182ZM19.446 10.2384C22.2687 10.2384 24.5651 7.94196 24.5651 5.11922C24.5651 2.29648 22.2687 0 19.446 0C16.6233 0 14.3269 2.29648 14.3269 5.11922C14.3269 7.94196 16.6233 10.2384 19.446 10.2384ZM19.446 1.92691C21.2058 1.92691 22.6383 3.35861 22.6383 5.11922C22.6383 6.87909 21.2066 8.31152 19.446 8.31152C17.6861 8.31152 16.2537 6.87983 16.2537 5.11922C16.2545 3.35935 17.6861 1.92691 19.446 1.92691ZM10.5758 23.0328H22.0529C21.9243 23.7409 21.8467 24.466 21.8467 25.2103V27.6575C21.8467 28.1897 22.2783 28.6213 22.8105 28.6213H45.2494C45.7816 28.6213 46.2125 28.1897 46.2125 27.6575V25.2103C46.2125 24.466 46.1349 23.7409 46.0063 23.0328H57.4242C57.9563 23.0328 58.388 22.6011 58.388 22.069V20.1347C58.388 14.7117 53.9762 10.3005 48.554 10.3005C45.1888 10.3005 42.1214 11.9998 40.3121 14.7922C38.4746 13.6798 36.3297 13.0279 34.0296 13.0279C31.7117 13.0279 29.5512 13.6902 27.7049 14.8181C25.8985 12.0094 22.8252 10.3005 19.4467 10.3005C14.0238 10.3005 9.61275 14.7124 9.61275 20.1347V22.069C9.61201 22.6011 10.0437 23.0328 10.5758 23.0328ZM48.554 12.2274C52.9141 12.2274 56.4611 15.7745 56.4611 20.1347V21.1059H45.4859C44.7557 19.074 43.508 17.289 41.8908 15.9187C43.341 13.6303 45.8215 12.2274 48.554 12.2274ZM44.2856 25.2103V26.6937H23.7743V25.2103C23.7743 19.5552 28.3753 14.9541 34.0303 14.9541C39.6853 14.9541 44.2856 19.5552 44.2856 25.2103ZM11.5389 20.1347C11.5389 15.7745 15.0859 12.2274 19.446 12.2274C22.1948 12.2274 24.6834 13.6436 26.1299 15.9534C24.5319 17.3193 23.2975 19.0903 22.5732 21.1059H11.5389V20.1347ZM48.554 10.2384C51.3767 10.2384 53.6731 7.94196 53.6731 5.11922C53.6731 2.29648 51.3767 0 48.554 0C45.7313 0 43.4349 2.29648 43.4349 5.11922C43.4349 7.94196 45.7313 10.2384 48.554 10.2384ZM48.554 1.92691C50.3139 1.92691 51.7463 3.35861 51.7463 5.11922C51.7463 6.87909 50.3139 8.31152 48.554 8.31152C46.7942 8.31152 45.3617 6.87983 45.3617 5.11922C45.3617 3.35935 46.7934 1.92691 48.554 1.92691ZM34.0296 12.4388C37.4591 12.4388 40.2493 9.64861 40.2493 6.21904C40.2493 2.79022 37.4591 0 34.0296 0C30.6 0 27.8099 2.79022 27.8099 6.21978C27.8106 9.64935 30.6008 12.4388 34.0296 12.4388ZM34.0296 1.92691C36.3962 1.92691 38.3216 3.85235 38.3216 6.21904C38.3216 8.58574 36.3962 10.5112 34.0296 10.5112C31.6629 10.5112 29.7375 8.58574 29.7375 6.21904C29.7375 3.85235 31.6629 1.92691 34.0296 1.92691ZM8.31042 44.7566C8.31042 45.6487 7.58756 46.3716 6.69544 46.3716C5.80332 46.3716 5.08046 45.6487 5.08046 44.7566C5.08046 43.8644 5.80332 43.1416 6.69544 43.1416C7.58756 43.1416 8.31042 43.8644 8.31042 44.7566ZM62.9195 44.7566C62.9195 45.6487 62.1967 46.3716 61.3046 46.3716C60.4124 46.3716 59.6896 45.6487 59.6896 44.7566C59.6896 43.8644 60.4124 43.1416 61.3046 43.1416C62.1967 43.1416 62.9195 43.8644 62.9195 44.7566Z" fill="black"/>
</svg>
