<svg width="64" height="64" viewBox="0 0 64 64" fill="none" xmlns="http://www.w3.org/2000/svg">
<path d="M24.1889 38.6395C23.6241 38.6395 23.0719 38.4719 22.6023 38.158C22.1326 37.8441 21.7666 37.3979 21.5504 36.8759C21.3342 36.3539 21.2777 35.7794 21.3879 35.2253C21.4981 34.6711 21.7701 34.1621 22.1695 33.7625C22.5689 33.363 23.0778 33.0909 23.6318 32.9807C24.1858 32.8704 24.76 32.927 25.2818 33.1432C25.8037 33.3595 26.2497 33.7256 26.5635 34.1954C26.8773 34.6652 27.0448 35.2176 27.0448 35.7826C27.0448 36.5403 26.7439 37.2669 26.2084 37.8027C25.6728 38.3385 24.9464 38.6395 24.1889 38.6395ZM24.1889 34.9978C24.0321 34.9979 23.8788 35.0445 23.7485 35.1318C23.6183 35.2191 23.5168 35.3431 23.4571 35.4882C23.3974 35.6332 23.3822 35.7927 23.4133 35.9465C23.4444 36.1002 23.5204 36.2413 23.6318 36.3517C23.7432 36.4622 23.8848 36.537 24.0388 36.5668C24.1928 36.5965 24.3521 36.5799 24.4966 36.5189C24.6411 36.4579 24.7642 36.3554 24.8503 36.2243C24.9364 36.0932 24.9817 35.9395 24.9803 35.7826C24.9803 35.679 24.9598 35.5764 24.92 35.4807C24.8801 35.385 24.8217 35.2982 24.7481 35.2253C24.6745 35.1523 24.5872 35.0946 24.4913 35.0556C24.3953 35.0166 24.2925 34.9969 24.1889 34.9978Z" fill="black"/>
<path d="M39.2944 31.1004C38.729 31.1017 38.1759 30.9352 37.7052 30.6218C37.2345 30.3084 36.8674 29.8623 36.6504 29.34C36.4333 28.8177 36.3762 28.2427 36.4862 27.6879C36.5962 27.1331 36.8683 26.6234 37.2681 26.2235C37.6679 25.8235 38.1774 25.5513 38.7321 25.4413C39.2867 25.3313 39.8615 25.3884 40.3836 25.6055C40.9058 25.8226 41.3517 26.1898 41.665 26.6607C41.9783 27.1315 42.1448 27.6848 42.1435 28.2504C42.1416 29.0057 41.8409 29.7296 41.307 30.2636C40.7731 30.7977 40.0495 31.0986 39.2944 31.1004ZM39.2944 27.4588C39.1376 27.4574 38.9839 27.5027 38.8529 27.5888C38.7218 27.675 38.6193 27.7981 38.5584 27.9427C38.4974 28.0872 38.4808 28.2466 38.5105 28.4006C38.5403 28.5546 38.6151 28.6963 38.7255 28.8077C38.8359 28.9191 38.9769 28.9952 39.1306 29.0263C39.2843 29.0574 39.4438 29.0422 39.5888 28.9825C39.7338 28.9227 39.8578 28.8213 39.9451 28.691C40.0323 28.5606 40.0789 28.4073 40.0789 28.2504C40.079 28.0417 39.9965 27.8413 39.8496 27.6931C39.7027 27.5448 39.5031 27.4606 39.2944 27.4588Z" fill="black"/>
<path d="M31.725 34.864C31.1615 34.864 30.6107 34.6968 30.1422 34.3837C29.6737 34.0705 29.3085 33.6254 29.0928 33.1046C28.8772 32.5839 28.8208 32.0109 28.9307 31.458C29.0407 30.9052 29.312 30.3974 29.7104 29.9988C30.1089 29.6002 30.6165 29.3288 31.1692 29.2188C31.7218 29.1089 32.2947 29.1653 32.8153 29.381C33.3359 29.5967 33.7808 29.962 34.0939 30.4307C34.4069 30.8993 34.574 31.4503 34.574 32.014C34.574 32.7699 34.2739 33.4948 33.7396 34.0292C33.2053 34.5637 32.4806 34.864 31.725 34.864ZM31.725 31.2292C31.5698 31.2292 31.4182 31.2753 31.2892 31.3615C31.1601 31.4477 31.0596 31.5703 31.0002 31.7137C30.9408 31.8571 30.9253 32.0149 30.9556 32.1671C30.9858 32.3193 31.0606 32.4592 31.1703 32.5689C31.28 32.6787 31.4198 32.7534 31.572 32.7837C31.7241 32.814 31.8819 32.7984 32.0252 32.739C32.1686 32.6797 32.2911 32.5791 32.3773 32.45C32.4635 32.321 32.5095 32.1692 32.5095 32.014C32.5095 31.8059 32.4269 31.6063 32.2797 31.4591C32.1326 31.3119 31.9331 31.2292 31.725 31.2292Z" fill="black"/>
<path d="M32.0005 51.5417C27.164 51.5449 22.4988 49.7504 18.9106 46.5065C15.3223 43.2626 13.067 38.8007 12.5825 33.987C12.098 29.1733 13.4188 24.3512 16.2886 20.4568C19.1583 16.5625 23.3722 13.8737 28.1123 12.9124C32.8524 11.9512 37.7804 12.7861 41.9397 15.255C46.0991 17.7239 49.1929 21.6507 50.6208 26.2731C52.0486 30.8955 51.7085 35.8838 49.6665 40.2695C47.6245 44.6551 44.0263 48.1254 39.5704 50.0065C37.1756 51.0212 34.6012 51.5433 32.0005 51.5417ZM32.0005 14.5474C28.5455 14.546 25.1677 15.5697 22.2944 17.489C19.4211 19.4082 17.1814 22.1368 15.8586 25.3296C14.5358 28.5224 14.1893 32.0359 14.863 35.4256C15.5367 38.8154 17.2003 41.9291 19.6434 44.373C22.0864 46.8168 25.1992 48.481 28.5879 49.1549C31.9765 49.8288 35.4889 49.4822 38.6806 48.159C41.8724 46.8358 44.6001 44.5953 46.5187 41.7211C48.4374 38.8469 49.4608 35.468 49.4594 32.0119C49.4539 27.3817 47.6128 22.9427 44.3398 19.6686C41.0668 16.3946 36.6292 14.5528 32.0005 14.5474Z" fill="black"/>
<path d="M37.9045 64H26.0955C25.8217 64 25.5592 63.8912 25.3656 63.6976C25.172 63.5039 25.0632 63.2413 25.0632 62.9674V58.2313C22.7173 57.6196 20.4649 56.6934 18.3673 55.4777L15.0228 58.8233C14.9268 58.9201 14.8127 58.9969 14.6869 59.0493C14.5611 59.1017 14.4262 59.1287 14.2899 59.1287C14.1536 59.1287 14.0187 59.1017 13.8929 59.0493C13.7671 58.9969 13.653 58.9201 13.557 58.8233L5.21634 50.4593C5.11959 50.3633 5.0428 50.2491 4.99039 50.1233C4.93799 49.9974 4.911 49.8625 4.911 49.7261C4.911 49.5898 4.93799 49.4549 4.99039 49.329C5.0428 49.2032 5.11959 49.089 5.21634 48.993L8.56086 45.6474C7.34717 43.5459 6.42132 41.2907 5.80817 38.9425H1.03226C0.758486 38.9425 0.495927 38.8337 0.302341 38.64C0.108755 38.4464 0 38.1837 0 37.9099V26.1108C0 25.8369 0.108755 25.5743 0.302341 25.3806C0.495927 25.187 0.758486 25.0782 1.03226 25.0782H5.76688C6.38003 22.7299 7.30588 20.4748 8.51957 18.3732L5.17505 15.0276C5.0783 14.9317 5.00151 14.8174 4.9491 14.6916C4.89669 14.5658 4.86971 14.4308 4.86971 14.2945C4.86971 14.1582 4.89669 14.0232 4.9491 13.8974C5.00151 13.7716 5.0783 13.6574 5.17505 13.5614L13.557 5.21803C13.653 5.12124 13.7671 5.04443 13.8929 4.992C14.0187 4.93958 14.1536 4.91259 14.2899 4.91259C14.4262 4.91259 14.5611 4.93958 14.6869 4.992C14.8127 5.04443 14.9268 5.12124 15.0228 5.21803L18.3673 8.56362C20.4649 7.34792 22.7173 6.42166 25.0632 5.81005V1.03259C25.0632 0.758731 25.172 0.496087 25.3656 0.302439C25.5592 0.108791 25.8217 0 26.0955 0H37.9045C38.1783 0 38.4408 0.108791 38.6344 0.302439C38.828 0.496087 38.9368 0.758731 38.9368 1.03259V5.76874C41.2827 6.38036 43.5351 7.30662 45.6327 8.52232L48.9772 5.17672C49.0732 5.07994 49.1873 5.00312 49.3131 4.9507C49.4389 4.89827 49.5738 4.87128 49.7101 4.87128C49.8464 4.87128 49.9813 4.89827 50.1071 4.9507C50.2329 5.00312 50.347 5.07994 50.443 5.17672L58.7837 13.5614C58.8804 13.6574 58.9572 13.7716 59.0096 13.8974C59.062 14.0232 59.089 14.1582 59.089 14.2945C59.089 14.4308 59.062 14.5658 59.0096 14.6916C58.9572 14.8174 58.8804 14.9317 58.7837 15.0276L55.4391 18.3732C56.6528 20.4748 57.5787 22.7299 58.1918 25.0782H62.9677C63.2415 25.0782 63.5041 25.187 63.6977 25.3806C63.8912 25.5743 64 25.8369 64 26.1108V37.9099C64 38.1837 63.8912 38.4464 63.6977 38.64C63.5041 38.8337 63.2415 38.9425 62.9677 38.9425H58.2125C57.5993 41.2907 56.6735 43.5459 55.4598 45.6474L58.8043 48.993C58.9011 49.089 58.9778 49.2032 59.0303 49.329C59.0827 49.4549 59.1096 49.5898 59.1096 49.7261C59.1096 49.8625 59.0827 49.9974 59.0303 50.1233C58.9778 50.2491 58.9011 50.3633 58.8043 50.4593L50.443 58.8026C50.347 58.8994 50.2329 58.9762 50.1071 59.0286C49.9813 59.0811 49.8464 59.1081 49.7101 59.1081C49.5738 59.1081 49.4389 59.0811 49.3131 59.0286C49.1873 58.9762 49.0732 58.8994 48.9772 58.8026L45.6327 55.457C43.5351 56.6727 41.2827 57.599 38.9368 58.2106V62.9881C38.9314 63.2583 38.8202 63.5157 38.6272 63.7049C38.4342 63.8941 38.1748 64.0001 37.9045 64ZM27.1277 61.9348H36.8723V57.419C36.8736 57.1862 36.953 56.9607 37.0978 56.7784C37.2425 56.5962 37.4442 56.4678 37.6705 56.4139C40.3509 55.7964 42.9094 54.7354 45.2404 53.2748C45.4383 53.1516 45.6721 53.0994 45.9036 53.1269C46.135 53.1545 46.3501 53.2601 46.5135 53.4263L49.7067 56.6135L56.5884 49.7296L53.409 46.5354C53.2429 46.372 53.1373 46.1568 53.1098 45.9253C53.0823 45.6938 53.1344 45.4598 53.2576 45.2619C54.7149 42.9287 55.7753 40.3699 56.3957 37.6896C56.4497 37.4613 56.5788 37.2579 56.7622 37.1118C56.9457 36.9657 57.1728 36.8856 57.4073 36.8842H61.9148V27.1434H57.4073C57.1728 27.142 56.9457 27.0618 56.7622 26.9157C56.5788 26.7697 56.4497 26.5662 56.3957 26.338C55.7753 23.6577 54.7149 21.0989 53.2576 18.7656C53.1344 18.5677 53.0823 18.3338 53.1098 18.1023C53.1373 17.8708 53.2429 17.6556 53.409 17.4921L56.5953 14.3048L49.7135 7.42089L46.5204 10.5944C46.357 10.7606 46.1419 10.8662 45.9104 10.8937C45.679 10.9212 45.4451 10.8691 45.2473 10.7458C42.9163 9.28524 40.3578 8.22429 37.6774 7.60675C37.4511 7.55281 37.2494 7.42444 37.1047 7.24222C36.9599 7.05999 36.8805 6.83444 36.8791 6.6017V2.08583H27.1277V6.6017C27.1264 6.83444 27.047 7.05999 26.9022 7.24222C26.7575 7.42444 26.5558 7.55281 26.3295 7.60675C23.6491 8.22429 21.0906 9.28524 18.7596 10.7458C18.5617 10.8691 18.3279 10.9212 18.0964 10.8937C17.865 10.8662 17.6499 10.7606 17.4865 10.5944L14.2933 7.40712L7.41161 14.2911L10.5978 17.4783C10.764 17.6418 10.8695 17.857 10.8971 18.0885C10.9246 18.32 10.8724 18.554 10.7492 18.7519C9.29198 21.0851 8.23157 23.6439 7.61118 26.3242C7.5572 26.5524 7.42812 26.7559 7.24467 26.902C7.06122 27.048 6.83403 27.1282 6.59957 27.1296H2.08516V36.8773H6.59269C6.82715 36.8787 7.05434 36.9589 7.23779 37.1049C7.42124 37.251 7.55032 37.4545 7.6043 37.6827C8.22469 40.363 9.2851 42.9218 10.7424 45.255C10.8656 45.4529 10.9177 45.6869 10.8902 45.9184C10.8627 46.1499 10.7571 46.3651 10.591 46.5286L7.40473 49.7158L14.2865 56.5998L17.4796 53.4125C17.643 53.2463 17.8581 53.1407 18.0895 53.1132C18.321 53.0857 18.5549 53.1378 18.7527 53.2611C21.0837 54.7216 23.6422 55.7826 26.3226 56.4001C26.5489 56.4541 26.7506 56.5824 26.8953 56.7647C27.0401 56.9469 27.1195 57.1724 27.1209 57.4052L27.1277 61.9348Z" fill="black"/>
<path d="M32 31.2291C31.7263 31.2291 31.4637 31.1203 31.2701 30.9267C31.0765 30.733 30.9678 30.4704 30.9678 30.1965V21.5365C30.9678 21.2626 31.0765 21 31.2701 20.8063C31.4637 20.6127 31.7263 20.5039 32 20.5039C32.2738 20.5039 32.5364 20.6127 32.7299 20.8063C32.9235 21 33.0323 21.2626 33.0323 21.5365V30.1965C33.0323 30.4704 32.9235 30.733 32.7299 30.9267C32.5364 31.1203 32.2738 31.2291 32 31.2291Z" fill="black"/>
<path d="M39.5694 27.4567C39.2956 27.4567 39.033 27.3479 38.8394 27.1542C38.6459 26.9606 38.5371 26.698 38.5371 26.4241V21.5365C38.5371 21.2626 38.6459 21 38.8394 20.8063C39.033 20.6127 39.2956 20.5039 39.5694 20.5039C39.8431 20.5039 40.1057 20.6127 40.2993 20.8063C40.4929 21 40.6016 21.2626 40.6016 21.5365V26.4241C40.6016 26.698 40.4929 26.9606 40.2993 27.1542C40.1057 27.3479 39.8431 27.4567 39.5694 27.4567Z" fill="black"/>
<path d="M24.4639 43.5231C24.1901 43.5231 23.9276 43.4143 23.734 43.2207C23.5404 43.027 23.4316 42.7644 23.4316 42.4905V37.6029C23.4316 37.329 23.5404 37.0664 23.734 36.8728C23.9276 36.6791 24.1901 36.5703 24.4639 36.5703C24.7377 36.5703 25.0002 36.6791 25.1938 36.8728C25.3874 37.0664 25.4962 37.329 25.4962 37.6029V42.4905C25.4962 42.7644 25.3874 43.027 25.1938 43.2207C25.0002 43.4143 24.7377 43.5231 24.4639 43.5231Z" fill="black"/>
<path d="M32 43.5221C31.7263 43.5221 31.4637 43.4133 31.2701 43.2196C31.0765 43.026 30.9678 42.7633 30.9678 42.4895V33.8295C30.9678 33.5556 31.0765 33.293 31.2701 33.0993C31.4637 32.9057 31.7263 32.7969 32 32.7969C32.2738 32.7969 32.5364 32.9057 32.7299 33.0993C32.9235 33.293 33.0323 33.5556 33.0323 33.8295V42.4895C33.0323 42.7633 32.9235 43.026 32.7299 43.2196C32.5364 43.4133 32.2738 43.5221 32 43.5221Z" fill="black"/>
<path d="M39.5694 43.5188C39.2956 43.5188 39.033 43.41 38.8394 43.2163C38.6459 43.0227 38.5371 42.76 38.5371 42.4862V30.0951C38.5371 29.8212 38.6459 29.5586 38.8394 29.3649C39.033 29.1713 39.2956 29.0625 39.5694 29.0625C39.8431 29.0625 40.1057 29.1713 40.2993 29.3649C40.4929 29.5586 40.6016 29.8212 40.6016 30.0951V42.4862C40.6016 42.76 40.4929 43.0227 40.2993 43.2163C40.1057 43.41 39.8431 43.5188 39.5694 43.5188Z" fill="black"/>
<path d="M24.4639 34.9875C24.1901 34.9875 23.9276 34.8787 23.734 34.6851C23.5404 34.4914 23.4316 34.2288 23.4316 33.9549V21.5638C23.4316 21.29 23.5404 21.0273 23.734 20.8337C23.9276 20.64 24.1901 20.5312 24.4639 20.5312C24.7377 20.5312 25.0002 20.64 25.1938 20.8337C25.3874 21.0273 25.4962 21.29 25.4962 21.5638V33.9549C25.4962 34.2288 25.3874 34.4914 25.1938 34.6851C25.0002 34.8787 24.7377 34.9875 24.4639 34.9875Z" fill="black"/>
</svg>
