<svg width="64" height="64" viewBox="0 0 64 64" fill="none" xmlns="http://www.w3.org/2000/svg">
<path d="M17.4037 10.2852C13.3778 10.2852 10.1055 13.6159 10.1055 17.7137C10.1055 21.8115 13.3778 25.1423 17.4037 25.1423C21.4296 25.1423 24.702 21.8115 24.702 17.7137C24.702 13.6159 21.4296 10.2852 17.4037 10.2852ZM12.1987 17.7137C12.1987 14.7878 14.536 12.4157 17.4037 12.4157C20.2714 12.4157 22.6088 14.7949 22.6088 17.7137C22.6088 20.6326 20.2714 23.0117 17.4037 23.0117C14.536 23.0117 12.1987 20.6326 12.1987 17.7137Z" fill="black"/>
<path d="M62.9609 23.2358C53.5467 23.2358 46.3484 19.1119 46.2727 19.0706C45.9492 18.8847 45.557 18.8847 45.2335 19.0706C45.1716 19.105 39.6869 22.2444 32.0344 23.0499C32.0757 22.926 32.1308 22.809 32.172 22.685L34.9729 21.9208C35.4202 21.7969 35.7299 21.3907 35.7299 20.9225V14.8227C35.7299 14.3546 35.4202 13.9484 34.9729 13.8244L32.172 13.0602C31.9518 12.4131 31.6903 11.7728 31.3806 11.1532L32.8189 8.62651C33.046 8.22031 32.9841 7.71084 32.6538 7.38726L28.3458 3.07745C28.0155 2.74699 27.5062 2.67814 27.1071 2.91222L24.5815 4.35112C23.9622 4.04131 23.3222 3.77969 22.6753 3.55938L21.9114 0.757315C21.7875 0.309811 21.3815 0 20.9135 0H14.8163C14.3484 0 13.9424 0.309811 13.8185 0.757315L13.0546 3.55938C12.4077 3.77969 11.7677 4.04131 11.1484 4.35112L8.6228 2.91222C8.21677 2.67814 7.70753 2.74699 7.38409 3.07745L3.07613 7.38726C2.74581 7.71773 2.67699 8.22719 2.91097 8.62651L4.34925 11.1532C4.03957 11.7728 3.77806 12.4131 3.55785 13.0602L0.756989 13.8244C0.309678 13.9484 0 14.3546 0 14.8227V20.9225C0 21.3907 0.309678 21.7969 0.756989 21.9208L3.55785 22.685C3.77806 23.3322 4.03957 23.9725 4.34925 24.5921L2.91097 27.1188C2.68387 27.525 2.74581 28.0344 3.07613 28.358L7.38409 32.6678C7.71441 32.9983 8.22366 33.0671 8.6228 32.833L11.1484 31.3941C11.7677 31.704 12.4077 31.9656 13.0546 32.1859L13.8185 34.988C13.9424 35.4355 14.3484 35.7453 14.8163 35.7453H20.9135C21.3815 35.7453 21.7875 35.4355 21.9114 34.988L22.6753 32.1859C23.3222 31.9656 23.9622 31.704 24.5815 31.3941L27.1071 32.833C27.2379 32.9088 27.3824 32.9432 27.5269 32.9501V35.1256H25.483C25.0151 35.1256 24.609 35.4355 24.4852 35.883L23.9277 37.9346C23.4942 38.0861 23.0675 38.2651 22.6477 38.4647L20.7966 37.4114C20.3905 37.1842 19.8813 37.2461 19.5578 37.5766L16.2202 40.9157C15.8899 41.2461 15.8211 41.7556 16.0551 42.1549L17.108 44.0069C16.9084 44.4268 16.7295 44.8537 16.5781 45.2874L14.5273 45.8451C14.08 45.969 13.7703 46.3752 13.7703 46.8434V51.5663C13.7703 52.0344 14.08 52.4406 14.5273 52.5645L16.5781 53.1222C16.7295 53.5559 16.9084 53.9828 17.108 54.4028L16.0551 56.2547C15.828 56.6609 15.8899 57.1704 16.2202 57.494L19.5578 60.833C19.8882 61.1635 20.3974 61.2324 20.7966 60.9983L22.6477 59.9449C23.0675 60.1446 23.4942 60.3236 23.9277 60.475L24.4852 62.5267C24.609 62.9742 25.0151 63.284 25.483 63.284H30.2039C30.6718 63.284 31.0779 62.9742 31.2017 62.5267L31.7591 60.475C32.1927 60.3236 32.6194 60.1446 33.0391 59.9449L34.8903 60.9983C35.2963 61.2324 35.8056 61.1635 36.129 60.833L37.4159 59.5456C39.5699 61.2048 42.1918 62.7126 45.3987 63.9312C45.5157 63.9793 45.6396 64 45.7634 64C45.8873 64 46.0112 63.9793 46.1282 63.9312C63.7935 57.2048 64 41.611 64 41.4527V24.241C64 23.6695 63.5389 23.2083 62.9677 23.2083L62.9609 23.2358ZM61.9286 41.4802C61.9286 42.0585 61.6877 55.6213 45.7566 61.8864C29.8254 55.6145 29.5845 42.0585 29.5845 41.4802V25.2874C37.7049 25.0534 43.9535 22.0929 45.7566 21.1429C47.5596 22.0929 53.8082 25.0465 61.9286 25.2874V41.4802ZM33.569 57.9002C33.2594 57.7212 32.874 57.7212 32.5643 57.8933C31.9381 58.2306 31.2843 58.506 30.6168 58.6988C30.2727 58.8021 30.0043 59.0706 29.908 59.4148L29.4056 61.2461H26.2606L25.7583 59.4148C25.6619 59.0706 25.3935 58.7952 25.0495 58.6988C24.3819 58.506 23.7282 58.2306 23.1019 57.8933C22.7854 57.7212 22.4069 57.7212 22.0972 57.9002L20.4456 58.8434L18.2228 56.6196L19.1656 54.9673C19.3445 54.6575 19.3445 54.2719 19.1725 53.9621C18.8284 53.3356 18.56 52.6816 18.3673 52.0138C18.2641 51.6695 17.9957 51.401 17.6516 51.3046L15.8211 50.8021V47.6558L17.6516 47.1532C17.9957 47.0568 18.271 46.7883 18.3673 46.4441C18.56 45.7762 18.8353 45.1222 19.1725 44.4957C19.3445 44.179 19.3376 43.8003 19.1656 43.4905L18.2228 41.8382L20.4456 39.6145L22.0972 40.5577C22.4069 40.7367 22.7923 40.7367 23.1019 40.5645C23.7213 40.2272 24.3819 39.9518 25.0495 39.759C25.3935 39.6558 25.6619 39.3873 25.7583 39.043L26.2606 37.2117H27.52V41.4871C27.52 41.4871 27.5338 42.2444 27.7127 43.4217C26.2056 43.4561 24.7948 44.0482 23.7282 45.1222C22.6271 46.2169 22.0284 47.6833 22.0284 49.2324C22.0284 50.7814 22.634 52.2479 23.7282 53.3425C24.8293 54.4441 26.2882 55.043 27.8366 55.043C29.2817 55.043 30.6443 54.5129 31.711 53.5491C32.7776 55.1325 34.1265 56.7298 35.8125 58.2444L35.2206 58.8365L33.569 57.8933V57.9002ZM28.1325 45.5077C28.566 47.2633 29.323 49.4458 30.603 51.7453C30.5617 51.7866 30.5342 51.8417 30.4929 51.883C29.7841 52.5921 28.8413 52.9845 27.8434 52.9845C26.8456 52.9845 25.9028 52.5921 25.194 51.883C24.4852 51.1738 24.0998 50.2306 24.0998 49.2324C24.0998 48.2341 24.492 47.2909 25.194 46.5818C25.9028 45.8726 26.8456 45.4802 27.8434 45.4802C27.9398 45.4802 28.0361 45.5009 28.1394 45.5077H28.1325ZM25.1114 29.3287C24.8017 29.1497 24.4232 29.1497 24.1067 29.3219C23.2877 29.7694 22.4206 30.1274 21.5329 30.389C21.1888 30.4923 20.9204 30.7608 20.8241 31.105L20.1153 33.6936H15.594L14.8852 31.105C14.7888 30.7608 14.5204 30.4854 14.1763 30.389C13.2955 30.1274 12.4284 29.7694 11.6026 29.3219C11.286 29.1497 10.9075 29.1566 10.5978 29.3287L8.27183 30.6575L5.07871 27.463L6.40688 25.136C6.58581 24.8262 6.58581 24.4406 6.41376 24.1308C5.96645 23.3115 5.6086 22.4441 5.3471 21.5559C5.24387 21.2117 4.97548 20.9432 4.6314 20.8468L2.04387 20.1377V15.6145L4.6314 14.9053C4.97548 14.8089 5.25075 14.5404 5.3471 14.1962C5.6086 13.315 5.96645 12.4475 6.41376 11.6213C6.58581 11.3046 6.57892 10.926 6.40688 10.6162L5.07871 8.28916L8.27183 5.09466L10.5978 6.42341C10.9075 6.60241 11.286 6.60241 11.6026 6.43029C12.4284 5.98279 13.2886 5.6179 14.1763 5.36317C14.5204 5.2599 14.7888 4.99139 14.8852 4.64716L15.594 2.05852H20.1153L20.8241 4.64716C20.9204 4.99139 21.1888 5.26678 21.5329 5.36317C22.4138 5.62478 23.2809 5.98279 24.1067 6.43029C24.4232 6.60241 24.8017 6.59552 25.1114 6.42341L27.4374 5.09466L30.6305 8.28916L29.3024 10.6162C29.1234 10.926 29.1234 11.3115 29.2955 11.6213C29.7428 12.4406 30.1006 13.3081 30.3622 14.1962C30.4654 14.5404 30.7338 14.8089 31.0778 14.9053L33.6654 15.6145V20.1377L31.0778 20.8468C30.7338 20.9432 30.4585 21.2117 30.3622 21.5559C30.197 22.1205 29.9768 22.6713 29.729 23.2151C29.3368 23.2289 28.9445 23.2427 28.5454 23.2427C27.9742 23.2427 27.5131 23.704 27.5131 24.2754V30.5886L27.4374 30.6644L25.1114 29.3356V29.3287Z" fill="black"/>
<path d="M45.4968 25.2894C45.4479 25.317 40.3157 28.2553 33.6103 28.2553C33.03 28.2553 32.5615 28.7175 32.5615 29.29V41.7194C32.5615 41.8367 32.7084 53.2935 45.6576 58.2184C45.7765 58.2667 45.9094 58.2874 46.0352 58.2874C46.1611 58.2874 46.2939 58.2667 46.4128 58.2184C59.3551 53.2935 59.5089 41.8367 59.5089 41.7194V29.29C59.5089 28.7175 59.0404 28.2553 58.4601 28.2553C51.7547 28.2553 46.6225 25.3239 46.5736 25.2894C46.245 25.0962 45.8394 25.0962 45.5038 25.2894H45.4968ZM57.4043 41.7125C57.4043 42.1195 57.2225 51.6726 46.0282 56.1353C34.8339 51.6657 34.6591 42.1195 34.6521 41.7125V30.297C40.2318 30.0694 44.5599 28.1105 46.0282 27.3587C47.4965 28.1105 51.8246 30.0763 57.4043 30.297V41.7056V41.7125Z" fill="black"/>
<path d="M41.5257 37.5693C41.3242 37.3713 41.0556 37.2759 40.7803 37.2979C40.5117 37.3199 40.2566 37.4593 40.082 37.694L37.2885 41.3541C37.1072 41.5888 37.0266 41.8969 37.0602 42.1976C37.0938 42.4983 37.2482 42.7771 37.4765 42.9531L43.6611 47.7941C43.8357 47.9334 44.0438 47.9994 44.2453 47.9994C44.4938 47.9994 44.7422 47.8968 44.9302 47.706L53.5725 38.8969C53.7807 38.6842 53.8948 38.3908 53.8948 38.0901C53.8948 37.782 53.774 37.4886 53.5658 37.2833L50.8596 34.5767C50.4702 34.188 49.8725 34.188 49.4898 34.5767L44.111 40.0705L41.5123 37.5767L41.5257 37.5693ZM44.8362 42.3516L50.2016 36.8725L51.417 38.0901L44.1714 45.4763L39.538 41.8529L40.9751 39.9751L43.4865 42.381C43.876 42.755 44.4602 42.7404 44.8362 42.359V42.3516Z" fill="black"/>
</svg>
