<svg width="26" height="26" viewBox="0 0 26 26" fill="none" xmlns="http://www.w3.org/2000/svg">
<path d="M13 0C10.4288 0 7.91543 0.762437 5.77759 2.1909C3.63975 3.61935 1.97351 5.64968 0.989572 8.02512C0.0056327 10.4006 -0.251811 13.0144 0.249797 15.5362C0.751405 18.0579 1.98953 20.3743 3.80762 22.1924C5.6257 24.0105 7.94208 25.2486 10.4638 25.7502C12.9856 26.2518 15.5995 25.9944 17.9749 25.0104C20.3503 24.0265 22.3807 22.3603 23.8091 20.2224C25.2376 18.0846 26 15.5712 26 13C25.9964 9.5533 24.6256 6.24882 22.1884 3.81163C19.7512 1.37445 16.4467 0.00363977 13 0ZM22.1538 18.2825C21.45 19.4075 20.3625 20 19.0088 20C16.4175 20 14.6575 16.8363 12.7938 13.4862C11.4338 11.0413 9.74126 8 8.32626 8C6.77251 8 5.00001 11.61 5.00001 14.7763C5.00001 15.8088 5.18751 16.6513 5.54251 17.2213C5.87501 17.75 6.33501 18 6.99126 18C7.75126 18 8.68126 17.125 9.83376 15.3113C9.97995 15.0962 10.2041 14.9466 10.4588 14.8941C10.7134 14.8416 10.9785 14.8903 11.1978 15.03C11.4172 15.1697 11.5735 15.3892 11.6336 15.6422C11.6937 15.8951 11.653 16.1616 11.52 16.385C9.48001 19.5888 8.02751 20 6.99126 20C5.63751 20 4.55001 19.4062 3.84626 18.2825C3.29251 17.3975 3.00001 16.185 3.00001 14.7825C3.02205 12.819 3.49235 10.8865 4.37501 9.1325C5.41751 7.1125 6.82126 6 8.32626 6C10.9175 6 12.6775 9.16375 14.5413 12.5138C15.9013 14.9575 17.5938 18 19.0088 18C19.665 18 20.125 17.75 20.4575 17.2213C20.8125 16.655 21 15.8088 21 14.7763C21 11.61 19.2275 8 17.6738 8C17.2488 8 16.755 8.28875 16.2063 8.86C16.1152 8.95472 16.0064 9.03058 15.8861 9.08325C15.7658 9.13592 15.6362 9.16438 15.5049 9.16699C15.3736 9.1696 15.243 9.14632 15.1207 9.09847C14.9983 9.05062 14.8866 8.97915 14.7919 8.88813C14.6972 8.7971 14.6213 8.68832 14.5686 8.56798C14.516 8.44764 14.4875 8.3181 14.4849 8.18676C14.4823 8.05543 14.5056 7.92486 14.5534 7.80252C14.6013 7.68018 14.6727 7.56847 14.7638 7.47375C15.7175 6.4825 16.6688 6 17.6738 6C19.1738 6 20.5825 7.1125 21.6263 9.1325C22.508 10.8846 22.9783 12.8149 23.0013 14.7763C23 16.185 22.7075 17.3975 22.1538 18.2825Z" fill="black"/>
</svg>
