<svg width="501" height="420" viewBox="0 0 501 420" fill="none" xmlns="http://www.w3.org/2000/svg">
<path d="M409.635 406.291L319.201 383.109H404.571L497.067 406.291H409.635Z" fill="#004E9E"/>
<path d="M87.4322 406.291L177.866 383.109H92.5078L0 406.291H87.4322Z" fill="#004E9E"/>
<path d="M252.704 309.853C252.704 309.853 252.619 309.426 252.484 308.633" stroke="#2E353A" stroke-miterlimit="10"/>
<path d="M252.084 306.241C250.778 297.786 248.57 276.69 256.854 267.271C267.359 255.351 279.951 265.563 315.041 267.271C350.131 268.979 368.188 263.867 368.554 233.779C368.92 203.692 348.337 201.703 348.337 201.703H335.331" stroke="#2E353A" stroke-miterlimit="10" stroke-dasharray="2.01 2.01"/>
<path d="M334.097 201.754H332.877" stroke="#2E353A" stroke-miterlimit="10"/>
<path d="M332.877 109.332H334.097" stroke="#2E353A" stroke-miterlimit="10"/>
<path d="M336.539 109.332H380.463C380.463 109.332 393.701 110.479 393.152 125.755C392.603 141.03 370.58 155.342 371.983 185.844C373.386 216.347 425.435 211.796 432.524 242.335C439.613 272.874 387.539 271.349 382.695 287.112C381.173 290.647 380.424 294.465 380.499 298.313C380.499 303.437 380.499 315.614 380.499 320.824" stroke="#2E353A" stroke-miterlimit="10" stroke-dasharray="2 2"/>
<path d="M380.498 322.055V323.275" stroke="#2E353A" stroke-miterlimit="10"/>
<path d="M171.191 22.875H169.971" stroke="#2E353A" stroke-miterlimit="10"/>
<path d="M167.544 22.8755H146.033C146.033 22.8755 87.4688 22.2044 87.4688 71.6793C87.4688 94.5806 95.4238 111.699 118.996 139.834C142.568 167.969 142.178 255.914 134.516 271.69C126.853 287.466 110.602 285.111 104.892 293.652C104.892 293.652 100.78 297.959 100.426 303.217C100.146 307.353 100.304 320.909 100.426 326.472" stroke="#2E353A" stroke-miterlimit="10" stroke-dasharray="1.99 1.99"/>
<path d="M100.363 327.754C100.363 328.523 100.363 328.974 100.363 328.974" stroke="#2E353A" stroke-miterlimit="10"/>
<path d="M184.355 86.5761C181.719 86.58 179.131 87.2786 176.851 88.6015C177.062 87.4297 177.168 86.2415 177.169 85.051C177.173 79.8802 175.245 74.8943 171.764 71.0708C168.283 67.2473 163.499 64.862 158.351 64.3824C153.202 63.9028 148.06 65.3636 143.933 68.4784C139.805 71.5932 136.99 76.1373 136.039 81.2199C133.536 80.3062 130.863 79.9502 128.207 80.177C125.552 80.4037 122.978 81.2076 120.666 82.5325C118.353 83.8575 116.358 85.6714 114.82 87.8476C113.282 90.0238 112.237 92.5098 111.759 95.1317C111.282 97.7536 111.382 100.448 112.054 103.027C112.726 105.606 113.953 108.007 115.65 110.062C117.347 112.118 119.471 113.778 121.876 114.926C124.281 116.075 126.908 116.685 129.573 116.713H184.367C188.363 116.713 192.196 115.125 195.022 112.299C197.848 109.473 199.435 105.641 199.435 101.644C199.435 97.648 197.848 93.8153 195.022 90.9895C192.196 88.1637 188.363 86.5761 184.367 86.5761H184.355Z" fill="white" stroke="#2E353A" stroke-miterlimit="10"/>
<path d="M415.991 147.802C413.181 147.803 410.42 148.544 407.987 149.949C408.202 148.704 408.312 147.443 408.316 146.179C408.318 140.675 406.264 135.37 402.557 131.301C398.851 127.233 393.759 124.695 388.279 124.185C382.799 123.675 377.326 125.23 372.932 128.544C368.539 131.859 365.541 136.695 364.527 142.104C361.854 141.112 358.995 140.717 356.153 140.948C353.311 141.179 350.554 142.03 348.076 143.441C345.598 144.852 343.459 146.788 341.81 149.115C340.16 151.441 339.041 154.1 338.529 156.905C338.018 159.711 338.127 162.594 338.85 165.352C339.573 168.111 340.891 170.678 342.712 172.872C344.533 175.066 346.812 176.835 349.39 178.054C351.968 179.273 354.782 179.912 357.633 179.927H415.991C420.246 179.927 424.327 178.237 427.336 175.228C430.345 172.219 432.035 168.138 432.035 163.883C432.035 159.627 430.345 155.547 427.336 152.538C424.327 149.529 420.246 147.838 415.991 147.838V147.802Z" fill="white" stroke="#2E353A" stroke-miterlimit="10"/>
<path d="M405.621 184.012H410.501" stroke="#2E353A" stroke-linecap="round" stroke-linejoin="round"/>
<path d="M381.828 184.012H398.909" stroke="#2E353A" stroke-linecap="round" stroke-linejoin="round"/>
<path d="M365.674 125.07C368.172 122.971 371.256 121.693 374.507 121.41" stroke="#2E353A" stroke-linecap="round" stroke-linejoin="round"/>
<path d="M359.865 133.989C360.305 132.059 361.135 130.24 362.305 128.645" stroke="#2E353A" stroke-linecap="round" stroke-linejoin="round"/>
<path d="M174.596 222.08C170.371 222.083 166.222 223.198 162.565 225.313C162.9 223.441 163.067 221.542 163.066 219.64C163.072 211.368 159.987 203.392 154.416 197.276C148.846 191.161 141.191 187.347 132.954 186.583C124.717 185.819 116.492 188.161 109.892 193.147C103.292 198.134 98.7933 205.407 97.2781 213.54C93.2711 212.069 88.9911 211.493 84.7378 211.85C80.4846 212.208 76.3609 213.491 72.6556 215.609C68.9503 217.728 65.7529 220.631 63.2875 224.115C60.822 227.599 59.148 231.58 58.3827 235.779C57.6174 239.978 57.7794 244.294 58.8572 248.424C59.935 252.554 61.9027 256.398 64.6224 259.688C67.342 262.977 70.748 265.633 74.6017 267.468C78.4553 269.303 82.6636 270.273 86.9316 270.311H174.596C180.894 270.169 186.887 267.567 191.292 263.063C195.696 258.558 198.162 252.508 198.162 246.208C198.162 239.907 195.696 233.857 191.292 229.353C186.887 224.848 180.894 222.246 174.596 222.105V222.08Z" fill="white" stroke="#2E353A" stroke-miterlimit="10"/>
<path d="M64.4199 267.859C65.6474 268.674 66.9318 269.4 68.2632 270.031" stroke="#2E353A" stroke-linecap="round" stroke-linejoin="round"/>
<path d="M54.8418 256.609C56.0103 259.388 57.7095 261.912 59.8442 264.04" stroke="#2E353A" stroke-linecap="round" stroke-linejoin="round"/>
<path d="M108.928 184.622C113.996 181.135 120.073 179.419 126.217 179.742" stroke="#2E353A" stroke-linecap="round" stroke-linejoin="round"/>
<path d="M103.646 189.503C104.497 188.392 105.462 187.374 106.526 186.465" stroke="#2E353A" stroke-linecap="round" stroke-linejoin="round"/>
<path d="M332.877 102.586H327.082V117.91H332.877V102.586Z" fill="#2E353A" stroke="#2E353A" stroke-miterlimit="10"/>
<path d="M332.877 192.98H327.082V208.305H332.877V192.98Z" fill="#2E353A" stroke="#2E353A" stroke-miterlimit="10"/>
<path d="M176.985 13.9219H171.189V29.2463H176.985V13.9219Z" fill="#2E353A" stroke="#2E353A" stroke-miterlimit="10"/>
<path d="M176.985 148.363H171.189V163.688H176.985V148.363Z" fill="#2E353A" stroke="#2E353A" stroke-miterlimit="10"/>
<path d="M328.986 5.44141H176.438V38.4816H328.986V5.44141Z" fill="white" stroke="#2E353A" stroke-miterlimit="10"/>
<path d="M288.905 13.8711H183.77V30.0496H288.905V13.8711Z" fill="#004E9E" stroke="#2E353A" stroke-miterlimit="10"/>
<path d="M303.143 25.3299C305.394 25.3299 307.219 23.5054 307.219 21.2548C307.219 19.0042 305.394 17.1797 303.143 17.1797C300.893 17.1797 299.068 19.0042 299.068 21.2548C299.068 23.5054 300.893 25.3299 303.143 25.3299Z" fill="white" stroke="#2E353A" stroke-miterlimit="10"/>
<path d="M323.189 21.2548C323.189 20.4488 322.95 19.6609 322.503 18.9908C322.055 18.3206 321.418 17.7983 320.674 17.4899C319.929 17.1815 319.11 17.1008 318.319 17.258C317.529 17.4152 316.803 17.8033 316.233 18.3733C315.663 18.9432 315.275 19.6693 315.117 20.4598C314.96 21.2503 315.041 22.0697 315.349 22.8143C315.658 23.5589 316.18 24.1954 316.85 24.6431C317.52 25.0909 318.308 25.3299 319.114 25.3299C320.195 25.3299 321.231 24.9006 321.996 24.1364C322.76 23.3721 323.189 22.3356 323.189 21.2548Z" fill="#004E9E" stroke="#2E353A" stroke-miterlimit="10"/>
<path d="M279.364 25.3299C281.615 25.3299 283.439 23.5054 283.439 21.2548C283.439 19.0042 281.615 17.1797 279.364 17.1797C277.114 17.1797 275.289 19.0042 275.289 21.2548C275.289 23.5054 277.114 25.3299 279.364 25.3299Z" fill="white" stroke="#2E353A" stroke-miterlimit="10"/>
<path d="M323.202 38.4805H182.232V49.7908H323.202V38.4805Z" fill="#2E353A" stroke="#2E353A" stroke-miterlimit="10"/>
<path d="M328.986 49.793H176.438V82.8332H328.986V49.793Z" fill="white" stroke="#2E353A" stroke-miterlimit="10"/>
<path d="M288.905 58.2227H183.77V74.4011H288.905V58.2227Z" fill="#004E9E" stroke="#2E353A" stroke-miterlimit="10"/>
<path d="M303.143 69.6932C305.394 69.6932 307.219 67.8687 307.219 65.6181C307.219 63.3675 305.394 61.543 303.143 61.543C300.893 61.543 299.068 63.3675 299.068 65.6181C299.068 67.8687 300.893 69.6932 303.143 69.6932Z" fill="#004E9E" stroke="#2E353A" stroke-miterlimit="10"/>
<path d="M323.189 65.6181C323.189 64.8121 322.95 64.0242 322.503 63.3541C322.055 62.6839 321.418 62.1616 320.674 61.8532C319.929 61.5447 319.11 61.464 318.319 61.6213C317.529 61.7785 316.803 62.1666 316.233 62.7366C315.663 63.3065 315.275 64.0326 315.117 64.8231C314.96 65.6136 315.041 66.4329 315.349 67.1776C315.658 67.9222 316.18 68.5587 316.85 69.0064C317.52 69.4542 318.308 69.6932 319.114 69.6932C319.65 69.6948 320.18 69.5905 320.676 69.3863C321.171 69.1821 321.621 68.882 321.999 68.5032C322.378 68.1245 322.678 67.6746 322.882 67.1795C323.087 66.6843 323.191 66.1537 323.189 65.6181Z" fill="white" stroke="#2E353A" stroke-miterlimit="10"/>
<path d="M279.364 69.6932C281.615 69.6932 283.439 67.8687 283.439 65.6181C283.439 63.3675 281.615 61.543 279.364 61.543C277.114 61.543 275.289 63.3675 275.289 65.6181C275.289 67.8687 277.114 69.6932 279.364 69.6932Z" fill="white" stroke="#2E353A" stroke-miterlimit="10"/>
<path d="M323.202 82.8438H182.232V94.1541H323.202V82.8438Z" fill="#2E353A" stroke="#2E353A" stroke-miterlimit="10"/>
<path d="M328.986 94.1562H176.438V127.196H328.986V94.1562Z" fill="white" stroke="#2E353A" stroke-miterlimit="10"/>
<path d="M288.905 102.586H183.77V118.764H288.905V102.586Z" fill="#004E9E" stroke="#2E353A" stroke-miterlimit="10"/>
<path d="M303.143 114.041C305.394 114.041 307.219 112.216 307.219 109.966C307.219 107.715 305.394 105.891 303.143 105.891C300.893 105.891 299.068 107.715 299.068 109.966C299.068 112.216 300.893 114.041 303.143 114.041Z" fill="white" stroke="#2E353A" stroke-miterlimit="10"/>
<path d="M323.189 109.966C323.189 109.16 322.95 108.372 322.503 107.702C322.055 107.032 321.418 106.509 320.674 106.201C319.929 105.892 319.11 105.812 318.319 105.969C317.529 106.126 316.803 106.514 316.233 107.084C315.663 107.654 315.275 108.38 315.117 109.171C314.96 109.961 315.041 110.781 315.349 111.525C315.658 112.27 316.18 112.906 316.85 113.354C317.52 113.802 318.308 114.041 319.114 114.041C320.195 114.041 321.231 113.612 321.996 112.847C322.76 112.083 323.189 111.047 323.189 109.966Z" fill="#004E9E" stroke="#2E353A" stroke-miterlimit="10"/>
<path d="M279.364 114.041C281.615 114.041 283.439 112.216 283.439 109.966C283.439 107.715 281.615 105.891 279.364 105.891C277.114 105.891 275.289 107.715 275.289 109.966C275.289 112.216 277.114 114.041 279.364 114.041Z" fill="white" stroke="#2E353A" stroke-miterlimit="10"/>
<path d="M323.202 127.195H182.232V138.506H323.202V127.195Z" fill="#2E353A" stroke="#2E353A" stroke-miterlimit="10"/>
<path d="M328.986 138.504H176.438V171.544H328.986V138.504Z" fill="white" stroke="#2E353A" stroke-miterlimit="10"/>
<path d="M288.905 146.938H183.77V163.116H288.905V146.938Z" fill="#004E9E" stroke="#2E353A" stroke-miterlimit="10"/>
<path d="M303.143 158.404C305.394 158.404 307.219 156.58 307.219 154.329C307.219 152.078 305.394 150.254 303.143 150.254C300.893 150.254 299.068 152.078 299.068 154.329C299.068 156.58 300.893 158.404 303.143 158.404Z" fill="#004E9E" stroke="#2E353A" stroke-miterlimit="10"/>
<path d="M323.189 154.329C323.189 153.523 322.95 152.735 322.503 152.065C322.055 151.395 321.418 150.873 320.674 150.564C319.929 150.256 319.11 150.175 318.319 150.332C317.529 150.489 316.803 150.878 316.233 151.447C315.663 152.017 315.275 152.744 315.117 153.534C314.96 154.325 315.041 155.144 315.349 155.889C315.658 156.633 316.18 157.27 316.85 157.717C317.52 158.165 318.308 158.404 319.114 158.404C319.65 158.406 320.18 158.301 320.676 158.097C321.171 157.893 321.621 157.593 321.999 157.214C322.378 156.835 322.678 156.386 322.882 155.89C323.087 155.395 323.191 154.865 323.189 154.329Z" fill="white" stroke="#2E353A" stroke-miterlimit="10"/>
<path d="M279.364 158.404C281.615 158.404 283.439 156.58 283.439 154.329C283.439 152.078 281.615 150.254 279.364 150.254C277.114 150.254 275.289 152.078 275.289 154.329C275.289 156.58 277.114 158.404 279.364 158.404Z" fill="white" stroke="#2E353A" stroke-miterlimit="10"/>
<path d="M323.202 171.559H182.232V182.869H323.202V171.559Z" fill="#2E353A" stroke="#2E353A" stroke-miterlimit="10"/>
<path d="M328.986 182.867H176.438V215.907H328.986V182.867Z" fill="white" stroke="#2E353A" stroke-miterlimit="10"/>
<path d="M288.905 191.297H183.77V207.475H288.905V191.297Z" fill="#004E9E" stroke="#2E353A" stroke-miterlimit="10"/>
<path d="M303.143 202.756C305.394 202.756 307.219 200.931 307.219 198.681C307.219 196.43 305.394 194.605 303.143 194.605C300.893 194.605 299.068 196.43 299.068 198.681C299.068 200.931 300.893 202.756 303.143 202.756Z" fill="white" stroke="#2E353A" stroke-miterlimit="10"/>
<path d="M323.189 198.681C323.189 197.875 322.95 197.087 322.503 196.417C322.055 195.746 321.418 195.224 320.674 194.916C319.929 194.607 319.11 194.527 318.319 194.684C317.529 194.841 316.803 195.229 316.233 195.799C315.663 196.369 315.275 197.095 315.117 197.886C314.96 198.676 315.041 199.495 315.349 200.24C315.658 200.985 316.18 201.621 316.85 202.069C317.52 202.517 318.308 202.756 319.114 202.756C320.195 202.756 321.231 202.326 321.996 201.562C322.76 200.798 323.189 199.761 323.189 198.681Z" fill="#004E9E" stroke="#2E353A" stroke-miterlimit="10"/>
<path d="M279.364 202.756C281.615 202.756 283.439 200.931 283.439 198.681C283.439 196.43 281.615 194.605 279.364 194.605C277.114 194.605 275.289 196.43 275.289 198.681C275.289 200.931 277.114 202.756 279.364 202.756Z" fill="white" stroke="#2E353A" stroke-miterlimit="10"/>
<path d="M262.869 1H271.41" stroke="#2E353A" stroke-linecap="round" stroke-linejoin="round"/>
<path d="M203.693 1H253.107" stroke="#2E353A" stroke-linecap="round" stroke-linejoin="round"/>
<path d="M170.141 201.707V207.808" stroke="#2E353A" stroke-linecap="round" stroke-linejoin="round"/>
<path d="M170.141 182.793V195.604" stroke="#2E353A" stroke-linecap="round" stroke-linejoin="round"/>
<path d="M395.141 70.0469L386.601 53.1485C386.553 53.0305 386.481 52.9237 386.39 52.8346C386.299 52.7456 386.191 52.6762 386.071 52.6309C385.952 52.5856 385.825 52.5653 385.698 52.5713C385.571 52.5773 385.446 52.6095 385.332 52.6658C385.218 52.7221 385.116 52.8013 385.034 52.8985C384.952 52.9958 384.89 53.1089 384.854 53.2309C384.817 53.3529 384.806 53.4811 384.821 53.6076C384.836 53.7341 384.877 53.8561 384.941 53.966L393.104 71.0474C392.936 71.2199 392.82 71.4357 392.768 71.6707C392.717 71.9056 392.731 72.1503 392.811 72.3773L401.449 88.568C401.681 89.0316 402.413 89.1292 403.109 88.7876C403.804 88.446 404.17 87.7993 403.938 87.3479L396.374 70.6203C396.248 70.4133 396.064 70.2483 395.845 70.1461C395.625 70.044 395.381 70.0095 395.141 70.0469Z" fill="#2E353A"/>
<path d="M442.432 70.0444L451.033 53.1461C451.139 52.9279 451.326 52.7603 451.555 52.6803C451.784 52.6002 452.035 52.6142 452.253 52.7191C452.467 52.8291 452.631 53.017 452.71 53.244C452.79 53.471 452.779 53.7198 452.68 53.9392L444.506 71.0205C444.677 71.1907 444.794 71.408 444.842 71.6447C444.89 71.8815 444.866 72.1271 444.774 72.3504L436.136 88.5411C435.904 89.0047 435.16 89.1023 434.477 88.7607C433.793 88.4191 433.415 87.7724 433.635 87.321L441.212 70.5935C441.339 70.3931 441.523 70.2344 441.74 70.1368C441.956 70.0393 442.197 70.0072 442.432 70.0444Z" fill="#2E353A"/>
<path d="M445.702 89.2974H392.055L396.081 82.4648H441.676L445.702 89.2974Z" fill="white" stroke="#2E353A" stroke-linecap="round" stroke-linejoin="round"/>
<path d="M445.69 89.2969H392.055V96.1294H445.69V89.2969Z" fill="white" stroke="#2E353A" stroke-linecap="round" stroke-linejoin="round"/>
<path d="M417.945 94.2285H397.325C396.926 94.2253 396.544 94.0644 396.263 93.7811C395.982 93.4977 395.824 93.1147 395.824 92.7156C395.824 92.3175 395.982 91.9358 396.264 91.6544C396.545 91.373 396.927 91.2148 397.325 91.2148H417.945C418.343 91.2148 418.724 91.373 419.006 91.6544C419.287 91.9358 419.445 92.3175 419.445 92.7156C419.445 93.1147 419.288 93.4977 419.007 93.7811C418.725 94.0644 418.344 94.2253 417.945 94.2285Z" fill="white" stroke="#2E353A" stroke-miterlimit="10"/>
<path d="M430.427 93.8503C431.155 93.8503 431.745 93.2603 431.745 92.5326C431.745 91.8048 431.155 91.2148 430.427 91.2148C429.699 91.2148 429.109 91.8048 429.109 92.5326C429.109 93.2603 429.699 93.8503 430.427 93.8503Z" fill="white" stroke="#2E353A" stroke-miterlimit="10"/>
<path d="M437.211 92.533C437.211 92.27 437.133 92.0129 436.986 91.7942C436.84 91.5755 436.633 91.405 436.39 91.3044C436.147 91.2037 435.879 91.1774 435.621 91.2287C435.363 91.28 435.126 91.4067 434.94 91.5926C434.754 91.7786 434.628 92.0156 434.576 92.2736C434.525 92.5316 434.551 92.7989 434.652 93.042C434.753 93.285 434.923 93.4927 435.142 93.6388C435.361 93.7849 435.618 93.8629 435.881 93.8629C436.056 93.8646 436.229 93.8313 436.392 93.765C436.554 93.6988 436.701 93.6009 436.825 93.477C436.949 93.3532 437.046 93.206 437.113 93.0439C437.179 92.8818 437.212 92.7081 437.211 92.533Z" fill="white" stroke="#2E353A" stroke-miterlimit="10"/>
<path d="M441.345 93.8503C442.073 93.8503 442.663 93.2603 442.663 92.5326C442.663 91.8048 442.073 91.2148 441.345 91.2148C440.617 91.2148 440.027 91.8048 440.027 92.5326C440.027 93.2603 440.617 93.8503 441.345 93.8503Z" fill="white" stroke="#2E353A" stroke-miterlimit="10"/>
<path d="M464.443 50.8789C464.616 51.7179 464.702 52.5724 464.7 53.4289C464.7 53.5387 464.7 53.6363 464.7 53.7461" stroke="#2E353A" stroke-width="0.5" stroke-linecap="round" stroke-linejoin="round"/>
<path d="M445.068 42.8241C446.643 41.7875 448.43 41.1157 450.297 40.8575C452.165 40.5994 454.067 40.7615 455.864 41.3321C457.661 41.9026 459.308 42.8672 460.684 44.1554C462.061 45.4436 463.133 47.023 463.821 48.7782" stroke="#2E353A" stroke-width="0.5" stroke-linecap="round" stroke-linejoin="round"/>
<path d="M448.607 44.668C447.927 44.9336 447.28 45.2776 446.68 45.6928" stroke="#2E353A" stroke-width="0.5" stroke-linecap="round" stroke-linejoin="round"/>
<path d="M461.404 53.6584C461.411 53.5813 461.411 53.5038 461.404 53.4266C461.404 50.9317 460.413 48.539 458.649 46.7749C456.885 45.0107 454.492 44.0197 451.997 44.0197C451.507 44.0168 451.017 44.0577 450.533 44.1417" stroke="#2E353A" stroke-width="0.5" stroke-linecap="round" stroke-linejoin="round"/>
<path d="M458.355 53.5852V53.4265C458.355 51.7439 457.687 50.1301 456.497 48.9403C455.307 47.7505 453.693 47.082 452.011 47.082C450.624 47.0809 449.277 47.5401 448.18 48.3875" stroke="#2E353A" stroke-width="0.5" stroke-linecap="round" stroke-linejoin="round"/>
<path d="M450.682 50.1953C450.277 50.3639 449.909 50.6083 449.596 50.9152" stroke="#2E353A" stroke-width="0.5" stroke-linecap="round" stroke-linejoin="round"/>
<path d="M455.511 53.5129V53.4275C455.511 52.4988 455.143 51.6081 454.486 50.9514C453.829 50.2947 452.938 49.9258 452.01 49.9258" stroke="#2E353A" stroke-width="0.5" stroke-linecap="round" stroke-linejoin="round"/>
<path d="M373.191 51.6328C373.103 52.2349 373.058 52.8424 373.057 53.4508C373.057 53.5606 373.057 53.6582 373.057 53.768" stroke="#2E353A" stroke-width="0.5" stroke-linecap="round" stroke-linejoin="round"/>
<path d="M388.273 40.9945C387.442 40.8223 386.595 40.7365 385.747 40.7383C383.09 40.7372 380.499 41.5704 378.341 43.1202C376.182 44.6701 374.565 46.8584 373.717 49.3766" stroke="#2E353A" stroke-width="0.5" stroke-linecap="round" stroke-linejoin="round"/>
<path d="M392.688 42.825C391.882 42.2939 391.018 41.8559 390.113 41.5195" stroke="#2E353A" stroke-width="0.5" stroke-linecap="round" stroke-linejoin="round"/>
<path d="M384.99 44.0586C385.234 44.0586 385.49 44.0586 385.747 44.0586C387.656 44.0604 389.52 44.6434 391.091 45.7301" stroke="#2E353A" stroke-width="0.5" stroke-linecap="round" stroke-linejoin="round"/>
<path d="M376.352 53.6601C376.352 53.5869 376.352 53.5137 376.352 53.4283C376.352 51.5794 376.898 49.7717 377.92 48.231C378.942 46.6904 380.395 45.485 382.098 44.7656" stroke="#2E353A" stroke-width="0.5" stroke-linecap="round" stroke-linejoin="round"/>
<path d="M379.391 53.5852V53.4265C379.391 51.7439 380.059 50.1301 381.249 48.9403C382.439 47.7505 384.052 47.082 385.735 47.082C387.122 47.0809 388.469 47.5401 389.566 48.3875" stroke="#2E353A" stroke-width="0.5" stroke-linecap="round" stroke-linejoin="round"/>
<path d="M382.257 53.5119C382.25 53.4839 382.25 53.4546 382.257 53.4265C382.253 52.738 382.453 52.0638 382.832 51.4887C383.21 50.9136 383.751 50.4634 384.385 50.1947C385.019 49.926 385.718 49.8508 386.394 49.9787C387.071 50.1065 387.694 50.4316 388.187 50.9131" stroke="#2E353A" stroke-width="0.5" stroke-linecap="round" stroke-linejoin="round"/>
<path d="M226.426 276.642L217.886 259.744C217.78 259.526 217.593 259.358 217.364 259.278C217.135 259.198 216.884 259.212 216.666 259.317C216.452 259.427 216.288 259.615 216.209 259.842C216.13 260.069 216.14 260.317 216.239 260.537L224.413 277.618C224.244 277.787 224.129 278.002 224.081 278.237C224.033 278.471 224.056 278.714 224.145 278.936L232.783 295.139C233.015 295.59 233.759 295.688 234.443 295.358C235.126 295.029 235.504 294.37 235.284 293.906L227.708 277.179C227.567 276.977 227.372 276.819 227.145 276.724C226.918 276.629 226.669 276.6 226.426 276.642Z" fill="#2E353A"/>
<path d="M273.73 276.645L282.27 259.746C282.318 259.628 282.39 259.521 282.481 259.432C282.572 259.343 282.681 259.274 282.8 259.229C282.919 259.183 283.046 259.163 283.173 259.169C283.3 259.175 283.425 259.207 283.539 259.263C283.653 259.32 283.755 259.399 283.837 259.496C283.919 259.593 283.981 259.707 284.017 259.829C284.054 259.951 284.065 260.079 284.05 260.205C284.035 260.332 283.994 260.454 283.93 260.564L275.767 277.645C275.934 277.816 276.047 278.031 276.093 278.265C276.138 278.5 276.114 278.742 276.023 278.963L267.385 295.166C267.153 295.617 266.421 295.715 265.726 295.385C265.03 295.056 264.664 294.397 264.884 293.933L272.461 277.206C272.597 277.001 272.789 276.84 273.013 276.741C273.238 276.641 273.487 276.608 273.73 276.645Z" fill="#2E353A"/>
<path d="M276.987 295.898H223.352L227.366 289.078H272.961L276.987 295.898Z" fill="white" stroke="#2E353A" stroke-linecap="round" stroke-linejoin="round"/>
<path d="M276.987 295.898H223.352V302.731H276.987V295.898Z" fill="white" stroke="#2E353A" stroke-linecap="round" stroke-linejoin="round"/>
<path d="M249.242 297.812H228.61C227.781 297.812 227.109 298.484 227.109 299.313V299.325C227.109 300.154 227.781 300.826 228.61 300.826H249.242C250.071 300.826 250.743 300.154 250.743 299.325V299.313C250.743 298.484 250.071 297.812 249.242 297.812Z" fill="white" stroke="#2E353A" stroke-miterlimit="10"/>
<path d="M261.712 300.46C262.44 300.46 263.03 299.87 263.03 299.142C263.03 298.414 262.44 297.824 261.712 297.824C260.984 297.824 260.395 298.414 260.395 299.142C260.395 299.87 260.984 300.46 261.712 300.46Z" fill="white" stroke="#2E353A" stroke-miterlimit="10"/>
<path d="M268.496 299.143C268.498 298.879 268.422 298.62 268.277 298.399C268.131 298.179 267.924 298.007 267.68 297.904C267.437 297.802 267.168 297.775 266.909 297.826C266.65 297.877 266.412 298.004 266.225 298.19C266.039 298.377 265.912 298.615 265.861 298.874C265.81 299.133 265.837 299.402 265.94 299.645C266.042 299.889 266.214 300.096 266.435 300.241C266.655 300.387 266.914 300.463 267.178 300.461C267.527 300.461 267.863 300.322 268.11 300.075C268.357 299.827 268.496 299.492 268.496 299.143Z" fill="white" stroke="#2E353A" stroke-miterlimit="10"/>
<path d="M272.632 300.46C273.36 300.46 273.95 299.87 273.95 299.142C273.95 298.414 273.36 297.824 272.632 297.824C271.904 297.824 271.314 298.414 271.314 299.142C271.314 299.87 271.904 300.46 272.632 300.46Z" fill="white" stroke="#2E353A" stroke-miterlimit="10"/>
<path d="M289.639 249.035C291.568 250.148 293.171 251.748 294.286 253.675C295.402 255.602 295.991 257.789 295.995 260.016C295.995 260.126 295.995 260.223 295.995 260.333" stroke="#2E353A" stroke-width="0.5" stroke-linecap="round" stroke-linejoin="round"/>
<path d="M276.352 249.422C278.418 248.067 280.835 247.346 283.306 247.348C284.705 247.342 286.096 247.573 287.418 248.031" stroke="#2E353A" stroke-width="0.5" stroke-linecap="round" stroke-linejoin="round"/>
<path d="M281.66 250.766C280.347 251.012 279.1 251.532 278 252.291" stroke="#2E353A" stroke-width="0.5" stroke-linecap="round" stroke-linejoin="round"/>
<path d="M292.763 260.27C292.763 260.196 292.763 260.123 292.763 260.038C292.759 257.705 291.89 255.456 290.324 253.727C288.757 251.998 286.605 250.912 284.283 250.68" stroke="#2E353A" stroke-width="0.5" stroke-linecap="round" stroke-linejoin="round"/>
<path d="M287.883 255.623C287.294 255.011 286.587 254.524 285.805 254.193C285.022 253.862 284.181 253.692 283.332 253.695C281.944 253.696 280.594 254.15 279.488 254.989" stroke="#2E353A" stroke-width="0.5" stroke-linecap="round" stroke-linejoin="round"/>
<path d="M289.639 260.185C289.639 260.185 289.639 260.087 289.639 260.026C289.634 259.188 289.464 258.359 289.139 257.586" stroke="#2E353A" stroke-width="0.5" stroke-linecap="round" stroke-linejoin="round"/>
<path d="M282.453 256.609C281.861 256.76 281.318 257.063 280.879 257.488" stroke="#2E353A" stroke-width="0.5" stroke-linecap="round" stroke-linejoin="round"/>
<path d="M286.797 260.111C286.797 260.111 286.797 260.111 286.797 260.026C286.808 259.251 286.561 258.495 286.095 257.877C285.629 257.258 284.97 256.812 284.223 256.609" stroke="#2E353A" stroke-width="0.5" stroke-linecap="round" stroke-linejoin="round"/>
<path d="M204.527 257.902C204.404 258.603 204.343 259.314 204.344 260.025C204.344 260.135 204.344 260.233 204.344 260.343" stroke="#2E353A" stroke-width="0.5" stroke-linecap="round" stroke-linejoin="round"/>
<path d="M212.029 248.363C210.468 249.04 209.059 250.021 207.881 251.249C206.704 252.476 205.783 253.926 205.172 255.513" stroke="#2E353A" stroke-width="0.5" stroke-linecap="round" stroke-linejoin="round"/>
<path d="M223.973 249.422C221.911 248.067 219.498 247.346 217.03 247.348C216.174 247.345 215.319 247.431 214.48 247.604" stroke="#2E353A" stroke-width="0.5" stroke-linecap="round" stroke-linejoin="round"/>
<path d="M209.93 253.863C211.449 252.118 213.557 250.994 215.852 250.703C218.147 250.413 220.469 250.978 222.375 252.289" stroke="#2E353A" stroke-width="0.5" stroke-linecap="round" stroke-linejoin="round"/>
<path d="M207.637 260.27C207.637 260.197 207.637 260.123 207.637 260.038C207.638 258.646 207.946 257.271 208.54 256.012" stroke="#2E353A" stroke-width="0.5" stroke-linecap="round" stroke-linejoin="round"/>
<path d="M212.494 255.599C213.576 254.495 215.023 253.824 216.564 253.712C218.105 253.6 219.634 254.054 220.864 254.989" stroke="#2E353A" stroke-width="0.5" stroke-linecap="round" stroke-linejoin="round"/>
<path d="M210.699 260.185C210.699 260.185 210.699 260.087 210.699 260.026C210.697 259.08 210.909 258.145 211.321 257.293" stroke="#2E353A" stroke-width="0.5" stroke-linecap="round" stroke-linejoin="round"/>
<path d="M214.738 257.377C215.402 256.811 216.253 256.512 217.125 256.537C217.997 256.561 218.829 256.909 219.46 257.511" stroke="#2E353A" stroke-width="0.5" stroke-linecap="round" stroke-linejoin="round"/>
<path d="M213.541 260.111C213.541 260.111 213.541 260.111 213.541 260.026C213.541 259.451 213.684 258.885 213.956 258.379" stroke="#2E353A" stroke-width="0.5" stroke-linecap="round" stroke-linejoin="round"/>
<path d="M28.3915 173.754L19.8508 156.856C19.8029 156.738 19.7311 156.631 19.64 156.542C19.549 156.453 19.4405 156.383 19.3215 156.338C19.2024 156.293 19.0753 156.272 18.9481 156.278C18.8208 156.284 18.6962 156.317 18.5819 156.373C18.4677 156.429 18.3662 156.508 18.2839 156.606C18.2016 156.703 18.1403 156.816 18.1036 156.938C18.067 157.06 18.0559 157.188 18.071 157.315C18.0861 157.441 18.1271 157.563 18.1915 157.673L26.3539 174.754C26.1842 174.926 26.0657 175.141 26.0118 175.376C25.9579 175.611 25.9707 175.856 26.0489 176.084L34.6872 192.287C34.919 192.739 35.6511 192.836 36.3465 192.495C37.042 192.153 37.408 191.519 37.1762 191.055L29.6116 174.327C29.4806 174.129 29.2974 173.97 29.0822 173.869C28.8669 173.768 28.6279 173.728 28.3915 173.754Z" fill="#2E353A"/>
<path d="M75.6816 173.751L84.2223 156.853C84.3277 156.635 84.5153 156.467 84.744 156.387C84.9728 156.307 85.2239 156.321 85.4424 156.426C85.6562 156.536 85.8197 156.724 85.8991 156.951C85.9786 157.178 85.9679 157.427 85.8694 157.646L77.6948 174.728C77.8814 174.893 78.013 175.111 78.0719 175.353C78.1308 175.595 78.1142 175.849 78.0242 176.082L69.3859 192.285C69.1541 192.736 68.4098 192.834 67.7266 192.492C67.0433 192.151 66.6651 191.516 66.8847 191.052L74.4615 174.325C74.5915 174.125 74.7745 173.966 74.99 173.865C75.2056 173.763 75.445 173.724 75.6816 173.751Z" fill="#2E353A"/>
<path d="M78.9538 193.008H25.3184L29.3325 186.176H74.9275L78.9538 193.008Z" fill="white" stroke="#2E353A" stroke-linecap="round" stroke-linejoin="round"/>
<path d="M78.9421 193.008H25.3066V199.84H78.9421V193.008Z" fill="white" stroke="#2E353A" stroke-linecap="round" stroke-linejoin="round"/>
<path d="M51.1843 197.936H30.5769C30.1778 197.932 29.7961 197.771 29.515 197.488C29.2339 197.205 29.0762 196.822 29.0762 196.423C29.0762 196.025 29.2343 195.643 29.5157 195.361C29.7972 195.08 30.1789 194.922 30.5769 194.922H51.1843C51.5823 194.922 51.9641 195.08 52.2455 195.361C52.5269 195.643 52.6851 196.025 52.6851 196.423C52.6851 196.822 52.5273 197.205 52.2462 197.488C51.9652 197.771 51.5835 197.932 51.1843 197.936Z" fill="white" stroke="#2E353A" stroke-miterlimit="10"/>
<path d="M63.6771 197.557C64.4048 197.557 64.9948 196.967 64.9948 196.24C64.9948 195.512 64.4048 194.922 63.6771 194.922C62.9493 194.922 62.3594 195.512 62.3594 196.24C62.3594 196.967 62.9493 197.557 63.6771 197.557Z" fill="white" stroke="#2E353A" stroke-miterlimit="10"/>
<path d="M69.1322 197.557C69.8599 197.557 70.4499 196.967 70.4499 196.24C70.4499 195.512 69.8599 194.922 69.1322 194.922C68.4044 194.922 67.8145 195.512 67.8145 196.24C67.8145 196.967 68.4044 197.557 69.1322 197.557Z" fill="white" stroke="#2E353A" stroke-miterlimit="10"/>
<path d="M75.9157 196.24C75.9157 195.976 75.8373 195.719 75.6907 195.5C75.544 195.281 75.3356 195.111 75.0918 195.01C74.8481 194.91 74.5801 194.884 74.3218 194.937C74.0635 194.989 73.8265 195.117 73.6411 195.304C73.4556 195.491 73.3299 195.729 73.2799 195.988C73.23 196.247 73.2581 196.515 73.3606 196.757C73.4632 197 73.6355 197.207 73.8558 197.352C74.0761 197.496 74.3344 197.572 74.598 197.57C74.772 197.57 74.9444 197.535 75.1051 197.468C75.2657 197.401 75.4115 197.303 75.5341 197.18C75.6566 197.056 75.7534 196.909 75.8189 196.748C75.8844 196.587 75.9173 196.414 75.9157 196.24Z" fill="white" stroke="#2E353A" stroke-miterlimit="10"/>
<path d="M97.2539 152.977C97.7156 154.315 97.9506 155.721 97.9494 157.137C97.9494 157.247 97.9494 157.345 97.9494 157.454" stroke="#2E353A" stroke-width="0.5" stroke-linecap="round" stroke-linejoin="round"/>
<path d="M87.7871 144.691C89.7289 145.084 91.5525 145.923 93.1134 147.143C94.6742 148.363 95.9294 149.93 96.7792 151.719" stroke="#2E353A" stroke-width="0.5" stroke-linecap="round" stroke-linejoin="round"/>
<path d="M78.3203 146.533C80.0135 145.416 81.9516 144.725 83.9694 144.52" stroke="#2E353A" stroke-width="0.5" stroke-linecap="round" stroke-linejoin="round"/>
<path d="M92.3381 150.938C90.8203 149.202 88.7161 148.085 86.4273 147.802C84.1384 147.518 81.8254 148.087 79.9297 149.401" stroke="#2E353A" stroke-width="0.5" stroke-linecap="round" stroke-linejoin="round"/>
<path d="M94.6567 157.368C94.6631 157.291 94.6631 157.213 94.6567 157.136C94.6585 155.629 94.2986 154.144 93.6074 152.805" stroke="#2E353A" stroke-width="0.5" stroke-linecap="round" stroke-linejoin="round"/>
<path d="M83.9553 150.938C83.0324 151.149 82.1691 151.566 81.4297 152.158" stroke="#2E353A" stroke-width="0.5" stroke-linecap="round" stroke-linejoin="round"/>
<path d="M91.6064 157.294V157.135C91.6071 155.693 91.1152 154.293 90.2122 153.168C89.3091 152.043 88.0491 151.261 86.6406 150.949" stroke="#2E353A" stroke-width="0.5" stroke-linecap="round" stroke-linejoin="round"/>
<path d="M88.0189 154.975C87.7184 154.589 87.3397 154.27 86.9076 154.04C86.4755 153.81 85.9998 153.674 85.5115 153.641C85.0232 153.608 84.5333 153.678 84.0739 153.847C83.6145 154.015 83.196 154.28 82.8457 154.621" stroke="#2E353A" stroke-width="0.5" stroke-linecap="round" stroke-linejoin="round"/>
<path d="M88.7636 157.219V157.134C88.7655 156.791 88.7162 156.449 88.6172 156.121" stroke="#2E353A" stroke-width="0.5" stroke-linecap="round" stroke-linejoin="round"/>
<path d="M16.777 144.641C13.8427 145.162 11.1856 146.7 9.27147 148.984C7.35737 151.269 6.30845 154.154 6.30859 157.134C6.30859 157.244 6.30859 157.342 6.30859 157.452" stroke="#2E353A" stroke-width="0.5" stroke-linecap="round" stroke-linejoin="round"/>
<path d="M25.9403 146.534C24.1165 145.338 22.0156 144.633 19.8398 144.484" stroke="#2E353A" stroke-width="0.5" stroke-linecap="round" stroke-linejoin="round"/>
<path d="M21.0723 148.02C22.2382 148.272 23.347 148.74 24.3421 149.398" stroke="#2E353A" stroke-width="0.5" stroke-linecap="round" stroke-linejoin="round"/>
<path d="M9.60352 157.369C9.60352 157.296 9.60352 157.223 9.60352 157.137C9.60352 154.643 10.5946 152.25 12.3587 150.486C14.1229 148.722 16.5156 147.73 19.0105 147.73" stroke="#2E353A" stroke-width="0.5" stroke-linecap="round" stroke-linejoin="round"/>
<path d="M14.1055 153.109C15.1429 151.84 16.6338 151.024 18.2621 150.835C19.8905 150.646 21.5285 151.098 22.8292 152.096" stroke="#2E353A" stroke-width="0.5" stroke-linecap="round" stroke-linejoin="round"/>
<path d="M12.6523 157.294V157.136C12.6519 156.297 12.8221 155.466 13.1526 154.695" stroke="#2E353A" stroke-width="0.5" stroke-linecap="round" stroke-linejoin="round"/>
<path d="M19.6191 153.695C20.2992 153.82 20.9273 154.143 21.4249 154.623" stroke="#2E353A" stroke-width="0.5" stroke-linecap="round" stroke-linejoin="round"/>
<path d="M15.5078 157.222C15.5078 157.222 15.5078 157.222 15.5078 157.136C15.5106 156.308 15.806 155.507 16.3417 154.876C16.8775 154.244 17.6193 153.822 18.436 153.684" stroke="#2E353A" stroke-width="0.5" stroke-linecap="round" stroke-linejoin="round"/>
<path d="M307.479 309.855H198.756V384.342H307.479V309.855Z" fill="#2E353A" stroke="#2E353A" stroke-miterlimit="10"/>
<path d="M323.791 417.274H182.455L198.756 384.344H307.478L323.791 417.274Z" fill="white" stroke="#2E353A" stroke-linecap="round" stroke-linejoin="round"/>
<path d="M300.89 315.75H205.344V378.451H300.89V315.75Z" fill="white" stroke="#2E353A" stroke-miterlimit="10"/>
<path d="M267.436 341.078L253.149 324.18L238.861 341.078H244.84V367.542H261.458V341.078H267.436Z" fill="#004E9E"/>
<path d="M248.584 394.776L248.767 390.762H243.033L242.643 394.776H248.584Z" fill="white" stroke="#2E353A" stroke-miterlimit="10"/>
<path d="M260.456 394.776L260.26 390.762H254.514L254.526 394.776H260.456Z" fill="white" stroke="#2E353A" stroke-miterlimit="10"/>
<path d="M291.375 399.056H297.524L296.072 394.773H290.143L291.375 399.056Z" fill="white" stroke="#2E353A" stroke-miterlimit="10"/>
<path d="M242.643 394.776L243.033 390.762H237.286L236.713 394.776H242.643Z" fill="white" stroke="#2E353A" stroke-miterlimit="10"/>
<path d="M230.771 394.776L231.54 390.762H225.793L224.842 394.776H230.771Z" fill="white" stroke="#2E353A" stroke-miterlimit="10"/>
<path d="M284.199 394.776L283.235 390.762H277.488L278.269 394.776H284.199Z" fill="white" stroke="#2E353A" stroke-miterlimit="10"/>
<path d="M290.142 394.776L288.983 390.762H283.236L284.2 394.776H290.142Z" fill="white" stroke="#2E353A" stroke-miterlimit="10"/>
<path d="M224.84 394.776L225.792 390.762H220.045L218.898 394.776H224.84Z" fill="white" stroke="#2E353A" stroke-miterlimit="10"/>
<path d="M266.399 394.776L266.008 390.762H260.262L260.457 394.776H266.399Z" fill="white" stroke="#2E353A" stroke-miterlimit="10"/>
<path d="M296.071 394.776L294.729 390.762H288.982L290.142 394.776H296.071Z" fill="white" stroke="#2E353A" stroke-miterlimit="10"/>
<path d="M278.269 394.776L277.488 390.762H271.754L272.327 394.776H278.269Z" fill="white" stroke="#2E353A" stroke-miterlimit="10"/>
<path d="M272.328 394.776L271.754 390.762H266.008L266.398 394.776H272.328Z" fill="white" stroke="#2E353A" stroke-miterlimit="10"/>
<path d="M254.526 394.776L254.514 390.762H248.767L248.584 394.776H254.526Z" fill="white" stroke="#2E353A" stroke-miterlimit="10"/>
<path d="M212.969 394.773H207.028L205.393 399.056H211.53L212.969 394.773Z" fill="white" stroke="#2E353A" stroke-miterlimit="10"/>
<path d="M214.301 390.762H208.567L207.029 394.776H212.971L214.301 390.762Z" fill="white" stroke="#2E353A" stroke-miterlimit="10"/>
<path d="M218.9 394.776L220.047 390.762H214.301L212.971 394.776H218.9Z" fill="white" stroke="#2E353A" stroke-miterlimit="10"/>
<path d="M203.635 403.656L201.744 408.598H208.345L209.992 403.656H203.635Z" fill="white" stroke="#2E353A" stroke-miterlimit="10"/>
<path d="M211.531 399.059H205.394L203.637 403.658H209.993L211.531 399.059Z" fill="white" stroke="#2E353A" stroke-miterlimit="10"/>
<path d="M209.993 403.656L208.346 408.598H214.946L216.362 403.656H209.993Z" fill="white" stroke="#2E353A" stroke-miterlimit="10"/>
<path d="M236.713 394.776L237.287 390.762H231.54L230.771 394.776H236.713Z" fill="white" stroke="#2E353A" stroke-miterlimit="10"/>
<path d="M236.102 399.056L236.712 394.773H230.771L229.953 399.056H236.102Z" fill="white" stroke="#2E353A" stroke-miterlimit="10"/>
<path d="M229.953 399.056L230.771 394.773H224.841L223.816 399.056H229.953Z" fill="white" stroke="#2E353A" stroke-miterlimit="10"/>
<path d="M242.241 399.056L242.643 394.773H236.714L236.104 399.056H242.241Z" fill="white" stroke="#2E353A" stroke-miterlimit="10"/>
<path d="M218.899 394.773H212.969L211.529 399.056H217.679L218.899 394.773Z" fill="white" stroke="#2E353A" stroke-miterlimit="10"/>
<path d="M292.703 403.658H299.06L297.522 399.059H291.373L292.703 403.658Z" fill="white" stroke="#2E353A" stroke-miterlimit="10"/>
<path d="M223.817 399.056L224.842 394.773H218.9L217.68 399.056H223.817Z" fill="white" stroke="#2E353A" stroke-miterlimit="10"/>
<path d="M211.53 399.059L209.992 403.658H216.361L217.679 399.059H211.53Z" fill="white" stroke="#2E353A" stroke-miterlimit="10"/>
<path d="M279.087 399.056L278.27 394.773H272.328L272.95 399.056H279.087Z" fill="white" stroke="#2E353A" stroke-miterlimit="10"/>
<path d="M272.948 399.056L272.326 394.773H266.396L266.811 399.056H272.948Z" fill="white" stroke="#2E353A" stroke-miterlimit="10"/>
<path d="M291.373 399.056L290.141 394.773H284.199L285.236 399.056H291.373Z" fill="white" stroke="#2E353A" stroke-miterlimit="10"/>
<path d="M254.526 399.056V394.773H248.584L248.377 399.056H254.526Z" fill="white" stroke="#2E353A" stroke-miterlimit="10"/>
<path d="M266.812 399.056L266.397 394.773H260.455L260.663 399.056H266.812Z" fill="white" stroke="#2E353A" stroke-miterlimit="10"/>
<path d="M260.662 399.056L260.455 394.773H254.525V399.056H260.662Z" fill="white" stroke="#2E353A" stroke-miterlimit="10"/>
<path d="M248.377 399.056L248.585 394.773H242.643L242.24 399.056H248.377Z" fill="white" stroke="#2E353A" stroke-miterlimit="10"/>
<path d="M266.812 399.059L267.252 403.658H273.621L272.95 399.059H266.812Z" fill="white" stroke="#2E353A" stroke-miterlimit="10"/>
<path d="M272.951 399.059L273.622 403.658H279.979L279.088 399.059H272.951Z" fill="white" stroke="#2E353A" stroke-miterlimit="10"/>
<path d="M217.679 399.059L216.361 403.658H222.718L223.816 399.059H217.679Z" fill="white" stroke="#2E353A" stroke-miterlimit="10"/>
<path d="M279.086 399.059L279.977 403.658H286.333L285.235 399.059H279.086Z" fill="white" stroke="#2E353A" stroke-miterlimit="10"/>
<path d="M254.525 399.059V403.658H260.894L260.662 399.059H254.525Z" fill="white" stroke="#2E353A" stroke-miterlimit="10"/>
<path d="M285.236 399.059L286.334 403.658H292.703L291.373 399.059H285.236Z" fill="white" stroke="#2E353A" stroke-miterlimit="10"/>
<path d="M260.662 399.059L260.894 403.658H267.251L266.811 399.059H260.662Z" fill="white" stroke="#2E353A" stroke-miterlimit="10"/>
<path d="M229.955 399.059L229.076 403.658H235.445L236.104 399.059H229.955Z" fill="white" stroke="#2E353A" stroke-miterlimit="10"/>
<path d="M223.817 399.059L222.719 403.658H229.075L229.954 399.059H223.817Z" fill="white" stroke="#2E353A" stroke-miterlimit="10"/>
<path d="M248.377 399.059L248.17 403.658H254.527V399.059H248.377Z" fill="white" stroke="#2E353A" stroke-miterlimit="10"/>
<path d="M242.24 399.059L241.801 403.658H248.17L248.377 399.059H242.24Z" fill="white" stroke="#2E353A" stroke-miterlimit="10"/>
<path d="M236.102 399.059L235.443 403.658H241.8L242.239 399.059H236.102Z" fill="white" stroke="#2E353A" stroke-miterlimit="10"/>
<path d="M285.236 399.056L284.199 394.773H278.27L279.087 399.056H285.236Z" fill="white" stroke="#2E353A" stroke-miterlimit="10"/>
<path d="M214.299 390.76L215.678 386.648H210.126L208.564 390.76H214.299Z" fill="white" stroke="#2E353A" stroke-miterlimit="10"/>
<path d="M208.566 390.762H203.259L201.551 394.776H207.029L208.566 390.762Z" fill="white" stroke="#2E353A" stroke-miterlimit="10"/>
<path d="M210.127 386.648H205.015L203.258 390.76H208.565L210.127 386.648Z" fill="white" stroke="#2E353A" stroke-miterlimit="10"/>
<path d="M207.027 394.773H201.549L199.719 399.056H205.392L207.027 394.773Z" fill="white" stroke="#2E353A" stroke-miterlimit="10"/>
<path d="M205.394 399.059H199.72L197.756 403.658H203.637L205.394 399.059Z" fill="white" stroke="#2E353A" stroke-miterlimit="10"/>
<path d="M203.636 403.656H197.755L195.656 408.598H201.745L203.636 403.656Z" fill="white" stroke="#2E353A" stroke-miterlimit="10"/>
<path d="M302.012 394.773L303.659 399.056H309.088L307.258 394.773H302.012Z" fill="white" stroke="#2E353A" stroke-miterlimit="10"/>
<path d="M305.429 403.658H311.054L309.09 399.059H303.66L305.429 403.658Z" fill="white" stroke="#2E353A" stroke-miterlimit="10"/>
<path d="M307.321 408.598H313.153L311.054 403.656H305.43L307.321 408.598Z" fill="white" stroke="#2E353A" stroke-miterlimit="10"/>
<path d="M260.26 390.76L260.065 386.648H254.514V390.76H260.26Z" fill="white" stroke="#2E353A" stroke-miterlimit="10"/>
<path d="M302.012 394.776H307.258L305.55 390.762H300.475L302.012 394.776Z" fill="white" stroke="#2E353A" stroke-miterlimit="10"/>
<path d="M299.059 403.658H305.428L303.659 399.059H297.521L299.059 403.658Z" fill="white" stroke="#2E353A" stroke-miterlimit="10"/>
<path d="M220.047 390.76L221.231 386.648H215.679L214.301 390.76H220.047Z" fill="white" stroke="#2E353A" stroke-miterlimit="10"/>
<path d="M294.73 390.762L296.073 394.776H302.014L300.477 390.762H294.73Z" fill="white" stroke="#2E353A" stroke-miterlimit="10"/>
<path d="M305.55 390.76L303.806 386.648H298.889L300.475 390.76H305.55Z" fill="white" stroke="#2E353A" stroke-miterlimit="10"/>
<path d="M300.475 390.76L298.889 386.648H293.35L294.728 390.76H300.475Z" fill="white" stroke="#2E353A" stroke-miterlimit="10"/>
<path d="M279.977 403.656L280.928 408.598H287.529L286.333 403.656H279.977Z" fill="white" stroke="#2E353A" stroke-miterlimit="10"/>
<path d="M300.72 408.598H307.321L305.429 403.656H299.061L300.72 408.598Z" fill="white" stroke="#2E353A" stroke-miterlimit="10"/>
<path d="M294.729 390.76L293.35 386.648H287.799L288.982 390.76H294.729Z" fill="white" stroke="#2E353A" stroke-miterlimit="10"/>
<path d="M292.703 403.656L294.118 408.598H300.719L299.06 403.656H292.703Z" fill="white" stroke="#2E353A" stroke-miterlimit="10"/>
<path d="M286.336 403.656L287.532 408.598H294.12L292.705 403.656H286.336Z" fill="white" stroke="#2E353A" stroke-miterlimit="10"/>
<path d="M297.522 399.056H303.659L302.012 394.773H296.07L297.522 399.056Z" fill="white" stroke="#2E353A" stroke-miterlimit="10"/>
<path d="M243.032 390.76L243.422 386.648H237.871L237.285 390.76H243.032Z" fill="white" stroke="#2E353A" stroke-miterlimit="10"/>
<path d="M288.981 390.76L287.798 386.648H282.246L283.234 390.76H288.981Z" fill="white" stroke="#2E353A" stroke-miterlimit="10"/>
<path d="M237.286 390.76L237.871 386.648H232.32L231.539 390.76H237.286Z" fill="white" stroke="#2E353A" stroke-miterlimit="10"/>
<path d="M254.514 390.76V386.648H248.963L248.768 390.76H254.514Z" fill="white" stroke="#2E353A" stroke-miterlimit="10"/>
<path d="M231.54 390.76L232.32 386.648H226.769L225.793 390.76H231.54Z" fill="white" stroke="#2E353A" stroke-miterlimit="10"/>
<path d="M225.794 390.76L226.77 386.648H221.23L220.047 390.76H225.794Z" fill="white" stroke="#2E353A" stroke-miterlimit="10"/>
<path d="M248.768 390.76L248.963 386.648H243.424L243.033 390.76H248.768Z" fill="white" stroke="#2E353A" stroke-miterlimit="10"/>
<path d="M283.235 390.76L282.246 386.648H276.707L277.488 390.76H283.235Z" fill="white" stroke="#2E353A" stroke-miterlimit="10"/>
<path d="M277.489 390.76L276.708 386.648H271.156L271.754 390.76H277.489Z" fill="white" stroke="#2E353A" stroke-miterlimit="10"/>
<path d="M266.008 390.76L265.606 386.648H260.066L260.262 390.76H266.008Z" fill="white" stroke="#2E353A" stroke-miterlimit="10"/>
<path d="M279.978 403.656H273.622H267.253H260.896H254.527H248.171H241.802H235.445H229.076H222.719H216.363L214.947 408.598H221.548H228.137H234.737H241.338H247.939H254.527H261.128H267.729H274.329H280.93L279.978 403.656Z" fill="white" stroke="#2E353A" stroke-miterlimit="10"/>
<path d="M271.755 390.76L271.157 386.648H265.605L266.008 390.76H271.755Z" fill="white" stroke="#2E353A" stroke-miterlimit="10"/>
<path d="M323.852 417.273H182.455V419.274H323.852V417.273Z" fill="#2E353A" stroke="#2E353A" stroke-miterlimit="10"/>
<path d="M347.484 309.855H430.451V384.342H347.484C346.96 384.342 346.457 384.134 346.087 383.763C345.716 383.393 345.508 382.89 345.508 382.366V311.844C345.506 311.584 345.556 311.325 345.655 311.084C345.753 310.843 345.899 310.624 346.082 310.439C346.266 310.254 346.485 310.107 346.725 310.007C346.966 309.907 347.224 309.855 347.484 309.855Z" fill="white" stroke="#2E353A" stroke-linecap="round" stroke-linejoin="round"/>
<path d="M433.308 309.855H347.742V384.342H433.308V309.855Z" fill="#2E353A" stroke="#2E353A" stroke-miterlimit="10"/>
<path d="M428.634 315.75H354.33V378.451H428.634V315.75Z" fill="white" stroke="#2E353A" stroke-linecap="round" stroke-linejoin="round"/>
<path d="M379.709 341.078L390.787 324.18L401.866 341.078H397.23V367.542H384.345V341.078H379.709Z" fill="#004E9E"/>
<path d="M347.742 384.344L412.603 403.097H500.047L433.308 384.344H347.742Z" fill="white" stroke="#2E353A" stroke-linecap="round" stroke-linejoin="round"/>
<path d="M417.006 391.761L408.892 389.455L405.342 389.418L413.431 391.736L417.006 391.761Z" fill="white" stroke="#2E353A" stroke-width="0.25" stroke-miterlimit="10"/>
<path d="M424.071 391.823L415.933 389.529L412.432 389.492L420.545 391.798L424.071 391.823Z" fill="white" stroke="#2E353A" stroke-width="0.25" stroke-miterlimit="10"/>
<path d="M449.718 394.251L453.109 394.276L444.679 391.97L441.299 391.945L449.718 394.251Z" fill="white" stroke="#2E353A" stroke-width="0.25" stroke-miterlimit="10"/>
<path d="M413.432 391.738L405.342 389.419L401.768 389.383L409.832 391.713L413.432 391.738Z" fill="white" stroke="#2E353A" stroke-width="0.25" stroke-miterlimit="10"/>
<path d="M406.22 391.687L398.155 389.357L394.531 389.32L402.572 391.663L406.22 391.687Z" fill="white" stroke="#2E353A" stroke-width="0.25" stroke-miterlimit="10"/>
<path d="M437.906 391.919L429.707 389.649L426.303 389.625L434.477 391.894L437.906 391.919Z" fill="white" stroke="#2E353A" stroke-width="0.25" stroke-miterlimit="10"/>
<path d="M441.298 391.942L433.087 389.685L429.707 389.648L437.906 391.918L441.298 391.942Z" fill="white" stroke="#2E353A" stroke-width="0.25" stroke-miterlimit="10"/>
<path d="M402.574 391.664L394.533 389.322L390.873 389.285L398.889 391.64L402.574 391.664Z" fill="white" stroke="#2E353A" stroke-width="0.25" stroke-miterlimit="10"/>
<path d="M427.561 391.846L419.411 389.552L415.934 389.527L424.072 391.821L427.561 391.846Z" fill="white" stroke="#2E353A" stroke-width="0.25" stroke-miterlimit="10"/>
<path d="M444.679 391.969L436.455 389.724L433.088 389.688L441.299 391.945L444.679 391.969Z" fill="white" stroke="#2E353A" stroke-width="0.25" stroke-miterlimit="10"/>
<path d="M434.479 391.896L426.304 389.626L422.863 389.59L431.038 391.871L434.479 391.896Z" fill="white" stroke="#2E353A" stroke-width="0.25" stroke-miterlimit="10"/>
<path d="M431.038 391.869L422.863 389.587L419.41 389.551L427.56 391.845L431.038 391.869Z" fill="white" stroke="#2E353A" stroke-width="0.25" stroke-miterlimit="10"/>
<path d="M420.546 391.796L412.433 389.49L408.895 389.453L417.008 391.759L420.546 391.796Z" fill="white" stroke="#2E353A" stroke-width="0.25" stroke-miterlimit="10"/>
<path d="M395.192 391.603L391.459 391.578L399.658 394.006L403.404 394.031L395.192 391.603Z" fill="white" stroke="#2E353A" stroke-width="0.25" stroke-miterlimit="10"/>
<path d="M387.188 389.248L383.479 389.211L391.458 391.578L395.191 391.602L387.188 389.248Z" fill="white" stroke="#2E353A" stroke-width="0.25" stroke-miterlimit="10"/>
<path d="M398.888 391.638L390.872 389.283L387.188 389.246L395.191 391.601L398.888 391.638Z" fill="white" stroke="#2E353A" stroke-width="0.25" stroke-miterlimit="10"/>
<path d="M408.062 396.496L416.713 399.058H420.495L411.833 396.508L408.062 396.496Z" fill="white" stroke="#2E353A" stroke-width="0.25" stroke-miterlimit="10"/>
<path d="M403.404 394.028L399.658 394.004L408.065 396.493L411.835 396.505L403.404 394.028Z" fill="white" stroke="#2E353A" stroke-width="0.25" stroke-miterlimit="10"/>
<path d="M411.832 396.508L420.495 399.058H424.253L415.566 396.52L411.832 396.508Z" fill="white" stroke="#2E353A" stroke-width="0.25" stroke-miterlimit="10"/>
<path d="M409.833 391.71L401.768 389.38L398.156 389.355L406.221 391.686L409.833 391.71Z" fill="white" stroke="#2E353A" stroke-width="0.25" stroke-miterlimit="10"/>
<path d="M418.117 394.103L409.832 391.712L406.221 391.688L414.481 394.079L418.117 394.103Z" fill="white" stroke="#2E353A" stroke-width="0.25" stroke-miterlimit="10"/>
<path d="M414.482 394.08L406.222 391.688L402.574 391.664L410.822 394.068L414.482 394.08Z" fill="white" stroke="#2E353A" stroke-width="0.25" stroke-miterlimit="10"/>
<path d="M421.728 394.115L413.431 391.735L409.832 391.711L418.116 394.102L421.728 394.115Z" fill="white" stroke="#2E353A" stroke-width="0.25" stroke-miterlimit="10"/>
<path d="M398.888 391.638L395.191 391.602L403.403 394.03L407.124 394.042L398.888 391.638Z" fill="white" stroke="#2E353A" stroke-width="0.25" stroke-miterlimit="10"/>
<path d="M458.355 396.629L461.747 396.641L453.109 394.274L449.717 394.25L458.355 396.629Z" fill="white" stroke="#2E353A" stroke-width="0.25" stroke-miterlimit="10"/>
<path d="M410.821 394.065L402.573 391.661L398.889 391.637L407.124 394.04L410.821 394.065Z" fill="white" stroke="#2E353A" stroke-width="0.25" stroke-miterlimit="10"/>
<path d="M403.402 394.031L411.833 396.508L415.567 396.52L407.124 394.043L403.402 394.031Z" fill="white" stroke="#2E353A" stroke-width="0.25" stroke-miterlimit="10"/>
<path d="M442.874 394.226L434.48 391.896L431.039 391.871L439.409 394.201L442.874 394.226Z" fill="white" stroke="#2E353A" stroke-width="0.25" stroke-miterlimit="10"/>
<path d="M439.408 394.202L431.038 391.872L427.561 391.848L435.93 394.19L439.408 394.202Z" fill="white" stroke="#2E353A" stroke-width="0.25" stroke-miterlimit="10"/>
<path d="M449.717 394.248L441.298 391.942L437.906 391.918L446.313 394.236L449.717 394.248Z" fill="white" stroke="#2E353A" stroke-width="0.25" stroke-miterlimit="10"/>
<path d="M428.877 394.153L420.544 391.798L417.006 391.762L425.315 394.129L428.877 394.153Z" fill="white" stroke="#2E353A" stroke-width="0.25" stroke-miterlimit="10"/>
<path d="M435.932 394.187L427.562 391.845L424.072 391.82L432.418 394.163L435.932 394.187Z" fill="white" stroke="#2E353A" stroke-width="0.25" stroke-miterlimit="10"/>
<path d="M432.416 394.164L424.071 391.821L420.545 391.797L428.878 394.152L432.416 394.164Z" fill="white" stroke="#2E353A" stroke-width="0.25" stroke-miterlimit="10"/>
<path d="M425.315 394.126L417.007 391.759L413.432 391.734L421.728 394.114L425.315 394.126Z" fill="white" stroke="#2E353A" stroke-width="0.25" stroke-miterlimit="10"/>
<path d="M435.93 394.188L444.507 396.591L448.009 396.603L439.407 394.2L435.93 394.188Z" fill="white" stroke="#2E353A" stroke-width="0.25" stroke-miterlimit="10"/>
<path d="M439.408 394.199L448.01 396.603L451.475 396.615L442.873 394.224L439.408 394.199Z" fill="white" stroke="#2E353A" stroke-width="0.25" stroke-miterlimit="10"/>
<path d="M407.125 394.043L415.568 396.52L419.289 396.532L410.822 394.067L407.125 394.043Z" fill="white" stroke="#2E353A" stroke-width="0.25" stroke-miterlimit="10"/>
<path d="M442.873 394.227L451.475 396.618H454.928L446.314 394.239L442.873 394.227Z" fill="white" stroke="#2E353A" stroke-width="0.25" stroke-miterlimit="10"/>
<path d="M428.879 394.152L437.432 396.568L440.982 396.58L432.417 394.165L428.879 394.152Z" fill="white" stroke="#2E353A" stroke-width="0.25" stroke-miterlimit="10"/>
<path d="M446.312 394.238L454.926 396.617L458.355 396.63L449.717 394.25L446.312 394.238Z" fill="white" stroke="#2E353A" stroke-width="0.25" stroke-miterlimit="10"/>
<path d="M432.416 394.164L440.981 396.58L444.507 396.592L435.93 394.188L432.416 394.164Z" fill="white" stroke="#2E353A" stroke-width="0.25" stroke-miterlimit="10"/>
<path d="M414.48 394.078L422.96 396.543H426.62L418.116 394.103L414.48 394.078Z" fill="white" stroke="#2E353A" stroke-width="0.25" stroke-miterlimit="10"/>
<path d="M410.82 394.066L419.288 396.531L422.96 396.543L414.481 394.079L410.82 394.066Z" fill="white" stroke="#2E353A" stroke-width="0.25" stroke-miterlimit="10"/>
<path d="M425.314 394.129L433.855 396.569H437.43L428.877 394.153L425.314 394.129Z" fill="white" stroke="#2E353A" stroke-width="0.25" stroke-miterlimit="10"/>
<path d="M421.729 394.117L430.257 396.557L433.856 396.57L425.316 394.129L421.729 394.117Z" fill="white" stroke="#2E353A" stroke-width="0.25" stroke-miterlimit="10"/>
<path d="M418.117 394.102L426.621 396.542L430.257 396.554L421.729 394.114L418.117 394.102Z" fill="white" stroke="#2E353A" stroke-width="0.25" stroke-miterlimit="10"/>
<path d="M446.313 394.237L437.907 391.919L434.479 391.895L442.873 394.225L446.313 394.237Z" fill="white" stroke="#2E353A" stroke-width="0.25" stroke-miterlimit="10"/>
<path d="M387.188 389.245L378.659 386.732L374.975 386.695L383.479 389.209L387.188 389.245Z" fill="white" stroke="#2E353A" stroke-width="0.25" stroke-miterlimit="10"/>
<path d="M383.478 389.212L380.025 389.176L387.993 391.555L391.458 391.579L383.478 389.212Z" fill="white" stroke="#2E353A" stroke-width="0.25" stroke-miterlimit="10"/>
<path d="M374.975 386.697L371.547 386.648L380.027 389.174L383.479 389.211L374.975 386.697Z" fill="white" stroke="#2E353A" stroke-width="0.25" stroke-miterlimit="10"/>
<path d="M391.457 391.579L387.992 391.555L396.167 393.995L399.656 394.007L391.457 391.579Z" fill="white" stroke="#2E353A" stroke-width="0.25" stroke-miterlimit="10"/>
<path d="M399.657 394.004L396.168 393.992L404.562 396.493H408.064L399.657 394.004Z" fill="white" stroke="#2E353A" stroke-width="0.25" stroke-miterlimit="10"/>
<path d="M408.064 396.496H404.562L413.189 399.058H416.715L408.064 396.496Z" fill="white" stroke="#2E353A" stroke-width="0.25" stroke-miterlimit="10"/>
<path d="M448.033 391.992L456.476 394.286L459.429 394.31L450.974 392.017L448.033 391.992Z" fill="white" stroke="#2E353A" stroke-width="0.25" stroke-miterlimit="10"/>
<path d="M465.127 396.64L468.092 396.652L459.429 394.31L456.477 394.285L465.127 396.64Z" fill="white" stroke="#2E353A" stroke-width="0.25" stroke-miterlimit="10"/>
<path d="M474.011 399.056H476.976L468.094 396.653L465.129 396.641L474.011 399.056Z" fill="white" stroke="#2E353A" stroke-width="0.25" stroke-miterlimit="10"/>
<path d="M415.932 389.528L407.245 387.076L403.756 387.039L412.431 389.491L415.932 389.528Z" fill="white" stroke="#2E353A" stroke-width="0.25" stroke-miterlimit="10"/>
<path d="M448.035 391.991L450.975 392.015L442.728 389.783L439.787 389.746L448.035 391.991Z" fill="white" stroke="#2E353A" stroke-width="0.25" stroke-miterlimit="10"/>
<path d="M461.748 396.64H465.127L456.477 394.286L453.109 394.273L461.748 396.64Z" fill="white" stroke="#2E353A" stroke-width="0.25" stroke-miterlimit="10"/>
<path d="M390.873 389.284L382.32 386.783L378.66 386.734L387.189 389.248L390.873 389.284Z" fill="white" stroke="#2E353A" stroke-width="0.25" stroke-miterlimit="10"/>
<path d="M436.455 389.723L444.679 391.968L448.034 391.992L439.786 389.747L436.455 389.723Z" fill="white" stroke="#2E353A" stroke-width="0.25" stroke-miterlimit="10"/>
<path d="M442.725 389.783L433.916 387.392L431 387.355L439.785 389.747L442.725 389.783Z" fill="white" stroke="#2E353A" stroke-width="0.25" stroke-miterlimit="10"/>
<path d="M439.785 389.748L431.001 387.357L427.67 387.32L436.455 389.724L439.785 389.748Z" fill="white" stroke="#2E353A" stroke-width="0.25" stroke-miterlimit="10"/>
<path d="M451.475 396.617L460.308 399.057H463.773L454.928 396.617H451.475Z" fill="white" stroke="#2E353A" stroke-width="0.25" stroke-miterlimit="10"/>
<path d="M470.616 399.056H474.008L465.126 396.641H461.746L470.616 399.056Z" fill="white" stroke="#2E353A" stroke-width="0.25" stroke-miterlimit="10"/>
<path d="M436.456 389.721L427.671 387.318L424.328 387.281L433.088 389.685L436.456 389.721Z" fill="white" stroke="#2E353A" stroke-width="0.25" stroke-miterlimit="10"/>
<path d="M458.355 396.629L467.201 399.057H470.617L461.747 396.641L458.355 396.629Z" fill="white" stroke="#2E353A" stroke-width="0.25" stroke-miterlimit="10"/>
<path d="M454.928 396.617L463.773 399.057H467.202L458.356 396.629L454.928 396.617Z" fill="white" stroke="#2E353A" stroke-width="0.25" stroke-miterlimit="10"/>
<path d="M453.111 394.275L456.478 394.287L448.035 391.993L444.68 391.969L453.111 394.275Z" fill="white" stroke="#2E353A" stroke-width="0.25" stroke-miterlimit="10"/>
<path d="M405.343 389.42L396.717 386.955L393.154 386.906L401.768 389.383L405.343 389.42Z" fill="white" stroke="#2E353A" stroke-width="0.25" stroke-miterlimit="10"/>
<path d="M433.089 389.687L424.328 387.283L420.961 387.234L429.709 389.65L433.089 389.687Z" fill="white" stroke="#2E353A" stroke-width="0.25" stroke-miterlimit="10"/>
<path d="M401.767 389.381L393.153 386.904L389.566 386.867L398.156 389.356L401.767 389.381Z" fill="white" stroke="#2E353A" stroke-width="0.25" stroke-miterlimit="10"/>
<path d="M412.43 389.49L403.756 387.037L400.254 386.988L408.892 389.453L412.43 389.49Z" fill="white" stroke="#2E353A" stroke-width="0.25" stroke-miterlimit="10"/>
<path d="M398.156 389.358L389.567 386.869L385.955 386.82L394.532 389.321L398.156 389.358Z" fill="white" stroke="#2E353A" stroke-width="0.25" stroke-miterlimit="10"/>
<path d="M394.532 389.319L385.954 386.818L382.318 386.781L390.871 389.282L394.532 389.319Z" fill="white" stroke="#2E353A" stroke-width="0.25" stroke-miterlimit="10"/>
<path d="M408.891 389.454L400.253 386.99L396.715 386.953L405.341 389.418L408.891 389.454Z" fill="white" stroke="#2E353A" stroke-width="0.25" stroke-miterlimit="10"/>
<path d="M429.706 389.652L420.958 387.236L417.566 387.199L426.302 389.627L429.706 389.652Z" fill="white" stroke="#2E353A" stroke-width="0.25" stroke-miterlimit="10"/>
<path d="M426.303 389.625L417.567 387.197L414.15 387.16L422.862 389.588L426.303 389.625Z" fill="white" stroke="#2E353A" stroke-width="0.25" stroke-miterlimit="10"/>
<path d="M419.409 389.551L410.709 387.111L407.244 387.074L415.931 389.527L419.409 389.551Z" fill="white" stroke="#2E353A" stroke-width="0.25" stroke-miterlimit="10"/>
<path d="M451.474 396.617L448.009 396.605L444.507 396.593L440.981 396.581L437.431 396.568H433.856L430.256 396.556L426.62 396.544H422.96L419.288 396.532L415.566 396.52L424.253 399.057H427.975H431.684H435.356H438.992H442.616H446.203H449.766H453.304H456.818H460.307L451.474 396.617Z" fill="white" stroke="#2E353A" stroke-width="0.25" stroke-miterlimit="10"/>
<path d="M422.863 389.59L414.152 387.162L410.711 387.113L419.41 389.553L422.863 389.59Z" fill="white" stroke="#2E353A" stroke-width="0.25" stroke-miterlimit="10"/>
<path d="M347.742 384.344V386.833L412.578 406.293L412.603 403.097L347.742 384.344Z" fill="white" stroke="#2E353A" stroke-linecap="round" stroke-linejoin="round"/>
<path d="M500.046 403.094H412.602V406.278H500.046V403.094Z" fill="#2E353A" stroke="#2E353A" stroke-linecap="round" stroke-linejoin="round"/>
<path d="M155.541 384.344H72.5744L72.5744 309.857H155.541C156.065 309.857 156.568 310.065 156.939 310.436C157.309 310.806 157.518 311.309 157.518 311.833V382.355C157.519 382.616 157.469 382.874 157.371 383.115C157.272 383.356 157.127 383.576 156.943 383.761C156.759 383.945 156.541 384.092 156.3 384.192C156.06 384.292 155.802 384.344 155.541 384.344Z" fill="white" stroke="#2E353A" stroke-linecap="round" stroke-linejoin="round"/>
<path d="M69.7178 384.344H155.283V309.857H69.7178L69.7178 384.344Z" fill="#2E353A" stroke="#2E353A" stroke-miterlimit="10"/>
<path d="M74.3914 378.449H148.695V315.748H74.3914L74.3914 378.449Z" fill="white" stroke="#2E353A" stroke-linecap="round" stroke-linejoin="round"/>
<path d="M118.669 341.078L107.59 324.18L96.5117 341.078H101.148V367.542H114.032V341.078H118.669Z" fill="#004E9E"/>
<path d="M155.283 384.344L90.4229 403.097H2.97852L69.7178 384.344H155.283Z" fill="white" stroke="#2E353A" stroke-linecap="round" stroke-linejoin="round"/>
<path d="M86.0176 391.761L94.1312 389.455L97.6817 389.418L89.5925 391.736L86.0176 391.761Z" fill="white" stroke="#2E353A" stroke-width="0.25" stroke-miterlimit="10"/>
<path d="M78.9551 391.823L87.0931 389.529L90.5948 389.492L82.4812 391.798L78.9551 391.823Z" fill="white" stroke="#2E353A" stroke-width="0.25" stroke-miterlimit="10"/>
<path d="M53.3079 394.251L49.916 394.276L58.3469 391.97L61.7266 391.945L53.3079 394.251Z" fill="white" stroke="#2E353A" stroke-width="0.25" stroke-miterlimit="10"/>
<path d="M89.5938 391.738L97.683 389.419L101.258 389.383L93.193 391.713L89.5938 391.738Z" fill="white" stroke="#2E353A" stroke-width="0.25" stroke-miterlimit="10"/>
<path d="M96.8047 391.687L104.87 389.357L108.493 389.32L100.453 391.663L96.8047 391.687Z" fill="white" stroke="#2E353A" stroke-width="0.25" stroke-miterlimit="10"/>
<path d="M65.1191 391.919L73.3182 389.649L76.7223 389.625L68.5476 391.894L65.1191 391.919Z" fill="white" stroke="#2E353A" stroke-width="0.25" stroke-miterlimit="10"/>
<path d="M61.7266 391.942L69.9378 389.685L73.3175 389.648L65.1184 391.918L61.7266 391.942Z" fill="white" stroke="#2E353A" stroke-width="0.25" stroke-miterlimit="10"/>
<path d="M100.453 391.664L108.494 389.322L112.154 389.285L104.138 391.64L100.453 391.664Z" fill="white" stroke="#2E353A" stroke-width="0.25" stroke-miterlimit="10"/>
<path d="M75.4648 391.846L83.6151 389.552L87.0924 389.527L78.9543 391.821L75.4648 391.846Z" fill="white" stroke="#2E353A" stroke-width="0.25" stroke-miterlimit="10"/>
<path d="M58.3477 391.969L66.5711 389.724L69.9386 389.688L61.7273 391.945L58.3477 391.969Z" fill="white" stroke="#2E353A" stroke-width="0.25" stroke-miterlimit="10"/>
<path d="M68.5469 391.896L76.7215 389.626L80.1622 389.59L71.9875 391.871L68.5469 391.896Z" fill="white" stroke="#2E353A" stroke-width="0.25" stroke-miterlimit="10"/>
<path d="M71.9883 391.869L80.1629 389.587L83.6158 389.551L75.4656 391.845L71.9883 391.869Z" fill="white" stroke="#2E353A" stroke-width="0.25" stroke-miterlimit="10"/>
<path d="M82.4805 391.796L90.5941 389.49L94.1324 389.453L86.0188 391.759L82.4805 391.796Z" fill="white" stroke="#2E353A" stroke-width="0.25" stroke-miterlimit="10"/>
<path d="M107.834 391.603L111.568 391.578L103.369 394.006L99.623 394.031L107.834 391.603Z" fill="white" stroke="#2E353A" stroke-width="0.25" stroke-miterlimit="10"/>
<path d="M115.838 389.248L119.547 389.211L111.567 391.578L107.834 391.602L115.838 389.248Z" fill="white" stroke="#2E353A" stroke-width="0.25" stroke-miterlimit="10"/>
<path d="M104.137 391.638L112.153 389.283L115.837 389.246L107.834 391.601L104.137 391.638Z" fill="white" stroke="#2E353A" stroke-width="0.25" stroke-miterlimit="10"/>
<path d="M94.9621 396.496L86.3116 399.058H82.5293L91.192 396.508L94.9621 396.496Z" fill="white" stroke="#2E353A" stroke-width="0.25" stroke-miterlimit="10"/>
<path d="M99.6223 394.028L103.368 394.004L94.9615 396.493L91.1914 396.505L99.6223 394.028Z" fill="white" stroke="#2E353A" stroke-width="0.25" stroke-miterlimit="10"/>
<path d="M91.1901 396.508L82.5274 399.058H78.7695L87.4444 396.52L91.1901 396.508Z" fill="white" stroke="#2E353A" stroke-width="0.25" stroke-miterlimit="10"/>
<path d="M93.1934 391.71L101.258 389.38L104.87 389.355L96.8048 391.686L93.1934 391.71Z" fill="white" stroke="#2E353A" stroke-width="0.25" stroke-miterlimit="10"/>
<path d="M84.9082 394.103L93.1927 391.712L96.8041 391.688L88.5441 394.079L84.9082 394.103Z" fill="white" stroke="#2E353A" stroke-width="0.25" stroke-miterlimit="10"/>
<path d="M88.5449 394.08L96.805 391.688L100.453 391.664L92.2052 394.068L88.5449 394.08Z" fill="white" stroke="#2E353A" stroke-width="0.25" stroke-miterlimit="10"/>
<path d="M81.2969 394.115L89.5935 391.735L93.1928 391.711L84.9084 394.102L81.2969 394.115Z" fill="white" stroke="#2E353A" stroke-width="0.25" stroke-miterlimit="10"/>
<path d="M104.136 391.638L107.833 391.602L99.6217 394.03L95.9004 394.042L104.136 391.638Z" fill="white" stroke="#2E353A" stroke-width="0.25" stroke-miterlimit="10"/>
<path d="M44.6692 396.629L41.2773 396.641L49.9156 394.274L53.3075 394.25L44.6692 396.629Z" fill="white" stroke="#2E353A" stroke-width="0.25" stroke-miterlimit="10"/>
<path d="M92.2031 394.065L100.451 391.661L104.136 391.637L95.9 394.04L92.2031 394.065Z" fill="white" stroke="#2E353A" stroke-width="0.25" stroke-miterlimit="10"/>
<path d="M99.6219 394.031L91.191 396.508L87.4453 396.52L95.9006 394.043L99.6219 394.031Z" fill="white" stroke="#2E353A" stroke-width="0.25" stroke-miterlimit="10"/>
<path d="M60.1523 394.226L68.5466 391.896L71.9873 391.871L63.6174 394.201L60.1523 394.226Z" fill="white" stroke="#2E353A" stroke-width="0.25" stroke-miterlimit="10"/>
<path d="M63.6172 394.202L71.9871 391.872L75.4643 391.848L67.0945 394.19L63.6172 394.202Z" fill="white" stroke="#2E353A" stroke-width="0.25" stroke-miterlimit="10"/>
<path d="M53.3086 394.248L61.7273 391.942L65.1191 391.918L56.7127 394.236L53.3086 394.248Z" fill="white" stroke="#2E353A" stroke-width="0.25" stroke-miterlimit="10"/>
<path d="M74.1465 394.153L82.4797 391.798L86.018 391.762L77.7092 394.129L74.1465 394.153Z" fill="white" stroke="#2E353A" stroke-width="0.25" stroke-miterlimit="10"/>
<path d="M67.0938 394.187L75.4636 391.845L78.9531 391.82L70.6076 394.163L67.0938 394.187Z" fill="white" stroke="#2E353A" stroke-width="0.25" stroke-miterlimit="10"/>
<path d="M70.6094 394.164L78.9548 391.821L82.4809 391.797L74.1477 394.152L70.6094 394.164Z" fill="white" stroke="#2E353A" stroke-width="0.25" stroke-miterlimit="10"/>
<path d="M77.7109 394.126L86.0198 391.759L89.5947 391.734L81.298 394.114L77.7109 394.126Z" fill="white" stroke="#2E353A" stroke-width="0.25" stroke-miterlimit="10"/>
<path d="M67.0946 394.188L58.5173 396.591L55.0156 396.603L63.6173 394.2L67.0946 394.188Z" fill="white" stroke="#2E353A" stroke-width="0.25" stroke-miterlimit="10"/>
<path d="M63.6175 394.199L55.0159 396.603L51.5508 396.615L60.1525 394.224L63.6175 394.199Z" fill="white" stroke="#2E353A" stroke-width="0.25" stroke-miterlimit="10"/>
<path d="M95.9007 394.043L87.4454 396.52L83.7363 396.532L92.2038 394.067L95.9007 394.043Z" fill="white" stroke="#2E353A" stroke-width="0.25" stroke-miterlimit="10"/>
<path d="M60.1522 394.227L51.5505 396.618H48.0977L56.7115 394.239L60.1522 394.227Z" fill="white" stroke="#2E353A" stroke-width="0.25" stroke-miterlimit="10"/>
<path d="M74.1483 394.152L65.5954 396.568L62.0449 396.58L70.61 394.165L74.1483 394.152Z" fill="white" stroke="#2E353A" stroke-width="0.25" stroke-miterlimit="10"/>
<path d="M56.7123 394.238L48.0984 396.617L44.6699 396.63L53.3082 394.25L56.7123 394.238Z" fill="white" stroke="#2E353A" stroke-width="0.25" stroke-miterlimit="10"/>
<path d="M70.6087 394.164L62.0437 396.58L58.5176 396.592L67.0949 394.188L70.6087 394.164Z" fill="white" stroke="#2E353A" stroke-width="0.25" stroke-miterlimit="10"/>
<path d="M88.5443 394.078L80.0646 396.543H76.4043L84.9084 394.103L88.5443 394.078Z" fill="white" stroke="#2E353A" stroke-width="0.25" stroke-miterlimit="10"/>
<path d="M92.2025 394.066L83.735 396.531L80.0625 396.543L88.5422 394.079L92.2025 394.066Z" fill="white" stroke="#2E353A" stroke-width="0.25" stroke-miterlimit="10"/>
<path d="M77.7093 394.129L69.1686 396.569H65.5938L74.1466 394.153L77.7093 394.129Z" fill="white" stroke="#2E353A" stroke-width="0.25" stroke-miterlimit="10"/>
<path d="M81.2977 394.117L72.7692 396.557L69.1699 396.57L77.7106 394.129L81.2977 394.117Z" fill="white" stroke="#2E353A" stroke-width="0.25" stroke-miterlimit="10"/>
<path d="M84.9075 394.102L76.4035 396.542L72.7676 396.554L81.2961 394.114L84.9075 394.102Z" fill="white" stroke="#2E353A" stroke-width="0.25" stroke-miterlimit="10"/>
<path d="M56.7129 394.237L65.1194 391.919L68.5478 391.895L60.1536 394.225L56.7129 394.237Z" fill="white" stroke="#2E353A" stroke-width="0.25" stroke-miterlimit="10"/>
<path d="M115.838 389.245L124.366 386.732L128.051 386.695L119.547 389.209L115.838 389.245Z" fill="white" stroke="#2E353A" stroke-width="0.25" stroke-miterlimit="10"/>
<path d="M119.546 389.212L122.999 389.176L115.031 391.555L111.566 391.579L119.546 389.212Z" fill="white" stroke="#2E353A" stroke-width="0.25" stroke-miterlimit="10"/>
<path d="M128.051 386.697L131.479 386.648L123 389.174L119.547 389.211L128.051 386.697Z" fill="white" stroke="#2E353A" stroke-width="0.25" stroke-miterlimit="10"/>
<path d="M111.568 391.579L115.033 391.555L106.859 393.995L103.369 394.007L111.568 391.579Z" fill="white" stroke="#2E353A" stroke-width="0.25" stroke-miterlimit="10"/>
<path d="M103.369 394.004L106.859 393.992L98.4646 396.493H94.9629L103.369 394.004Z" fill="white" stroke="#2E353A" stroke-width="0.25" stroke-miterlimit="10"/>
<path d="M94.961 396.496H98.4627L89.8366 399.058H86.3105L94.961 396.496Z" fill="white" stroke="#2E353A" stroke-width="0.25" stroke-miterlimit="10"/>
<path d="M54.9914 391.992L46.5483 394.286L43.5957 394.31L52.051 392.017L54.9914 391.992Z" fill="white" stroke="#2E353A" stroke-width="0.25" stroke-miterlimit="10"/>
<path d="M37.8984 396.64L34.9336 396.652L43.5963 394.31L46.5489 394.285L37.8984 396.64Z" fill="white" stroke="#2E353A" stroke-width="0.25" stroke-miterlimit="10"/>
<path d="M29.0156 399.056H26.0508L34.9331 396.653L37.8979 396.641L29.0156 399.056Z" fill="white" stroke="#2E353A" stroke-width="0.25" stroke-miterlimit="10"/>
<path d="M87.0918 389.528L95.7789 387.076L99.2684 387.039L90.5935 389.491L87.0918 389.528Z" fill="white" stroke="#2E353A" stroke-width="0.25" stroke-miterlimit="10"/>
<path d="M54.9912 391.991L52.0508 392.015L60.2986 389.783L63.2269 389.746L54.9912 391.991Z" fill="white" stroke="#2E353A" stroke-width="0.25" stroke-miterlimit="10"/>
<path d="M41.2761 396.64H37.8965L46.547 394.286L49.9144 394.273L41.2761 396.64Z" fill="white" stroke="#2E353A" stroke-width="0.25" stroke-miterlimit="10"/>
<path d="M112.152 389.284L120.705 386.783L124.366 386.734L115.837 389.248L112.152 389.284Z" fill="white" stroke="#2E353A" stroke-width="0.25" stroke-miterlimit="10"/>
<path d="M66.5709 389.723L58.3475 391.968L54.9922 391.992L63.2278 389.747L66.5709 389.723Z" fill="white" stroke="#2E353A" stroke-width="0.25" stroke-miterlimit="10"/>
<path d="M60.2988 389.783L69.1079 387.392L72.024 387.355L63.2271 389.747L60.2988 389.783Z" fill="white" stroke="#2E353A" stroke-width="0.25" stroke-miterlimit="10"/>
<path d="M63.2266 389.748L72.0235 387.357L75.3543 387.32L66.5696 389.724L63.2266 389.748Z" fill="white" stroke="#2E353A" stroke-width="0.25" stroke-miterlimit="10"/>
<path d="M51.5505 396.617L42.717 399.057H39.252L48.0977 396.617H51.5505Z" fill="white" stroke="#2E353A" stroke-width="0.25" stroke-miterlimit="10"/>
<path d="M32.4075 399.056H29.0156L37.8979 396.641H41.2776L32.4075 399.056Z" fill="white" stroke="#2E353A" stroke-width="0.25" stroke-miterlimit="10"/>
<path d="M66.5703 389.721L75.355 387.318L78.6981 387.281L69.9378 389.685L66.5703 389.721Z" fill="white" stroke="#2E353A" stroke-width="0.25" stroke-miterlimit="10"/>
<path d="M44.6702 396.629L35.8245 399.057H32.4082L41.2783 396.641L44.6702 396.629Z" fill="white" stroke="#2E353A" stroke-width="0.25" stroke-miterlimit="10"/>
<path d="M48.0984 396.617L39.2527 399.057H35.8242L44.6699 396.629L48.0984 396.617Z" fill="white" stroke="#2E353A" stroke-width="0.25" stroke-miterlimit="10"/>
<path d="M49.9163 394.275L46.5488 394.287L54.9919 391.993L58.3472 391.969L49.9163 394.275Z" fill="white" stroke="#2E353A" stroke-width="0.25" stroke-miterlimit="10"/>
<path d="M97.6836 389.42L106.31 386.955L109.872 386.906L101.258 389.383L97.6836 389.42Z" fill="white" stroke="#2E353A" stroke-width="0.25" stroke-miterlimit="10"/>
<path d="M69.9375 389.687L78.6978 387.283L82.0653 387.234L73.3172 389.65L69.9375 389.687Z" fill="white" stroke="#2E353A" stroke-width="0.25" stroke-miterlimit="10"/>
<path d="M101.258 389.381L109.872 386.904L113.459 386.867L104.869 389.356L101.258 389.381Z" fill="white" stroke="#2E353A" stroke-width="0.25" stroke-miterlimit="10"/>
<path d="M90.5938 389.49L99.2686 387.037L102.77 386.988L94.132 389.453L90.5938 389.49Z" fill="white" stroke="#2E353A" stroke-width="0.25" stroke-miterlimit="10"/>
<path d="M104.869 389.358L113.459 386.869L117.07 386.82L108.493 389.321L104.869 389.358Z" fill="white" stroke="#2E353A" stroke-width="0.25" stroke-miterlimit="10"/>
<path d="M108.494 389.319L117.071 386.818L120.707 386.781L112.154 389.282L108.494 389.319Z" fill="white" stroke="#2E353A" stroke-width="0.25" stroke-miterlimit="10"/>
<path d="M94.1309 389.454L102.769 386.99L106.307 386.953L97.6813 389.418L94.1309 389.454Z" fill="white" stroke="#2E353A" stroke-width="0.25" stroke-miterlimit="10"/>
<path d="M73.3184 389.652L82.0665 387.236L85.4583 387.199L76.7224 389.627L73.3184 389.652Z" fill="white" stroke="#2E353A" stroke-width="0.25" stroke-miterlimit="10"/>
<path d="M76.7227 389.625L85.4585 387.197L88.8748 387.16L80.1633 389.588L76.7227 389.625Z" fill="white" stroke="#2E353A" stroke-width="0.25" stroke-miterlimit="10"/>
<path d="M83.6152 389.551L92.3145 387.111L95.7796 387.074L87.0925 389.527L83.6152 389.551Z" fill="white" stroke="#2E353A" stroke-width="0.25" stroke-miterlimit="10"/>
<path d="M51.5503 396.617L55.0154 396.605L58.5171 396.593L62.0431 396.581L65.5936 396.568H69.1685L72.7678 396.556L76.4037 396.544H80.064L83.7365 396.532L87.4456 396.52L78.7707 399.057H75.0494H71.3403H67.68H64.0319H60.4082H56.8211H53.2584H49.7202H46.2063H42.7168L51.5503 396.617Z" fill="white" stroke="#2E353A" stroke-width="0.25" stroke-miterlimit="10"/>
<path d="M80.1621 389.59L88.8736 387.162L92.3143 387.113L83.615 389.553L80.1621 389.59Z" fill="white" stroke="#2E353A" stroke-width="0.25" stroke-miterlimit="10"/>
<path d="M155.284 384.344V386.833L90.436 406.293L90.4238 403.097L155.284 384.344Z" fill="white" stroke="#2E353A" stroke-linecap="round" stroke-linejoin="round"/>
<path d="M2.97948 406.293H90.4238V403.108H2.97948V406.293Z" fill="#2E353A" stroke="#2E353A" stroke-linecap="round" stroke-linejoin="round"/>
</svg>
