<svg width="100" height="100" viewBox="0 0 100 100" fill="none" xmlns="http://www.w3.org/2000/svg">
<path d="M76.1363 9.1071V5.68324C76.1363 5.05597 75.6283 4.54688 74.9999 4.54688H70.4545C69.826 4.54688 69.3181 5.05597 69.3181 5.68324V9.1071C63.6283 9.40369 59.0908 14.1264 59.0908 19.8878C59.0908 25.8401 63.934 30.6832 69.8863 30.6832H75.5681C77.7613 30.6832 79.5454 32.4673 79.5454 34.6605C79.5454 36.8537 77.7613 38.6378 75.5681 38.6378H69.8863C67.8942 38.6378 65.909 37.2503 65.909 34.0923C65.909 33.4651 65.401 32.956 64.7726 32.956H60.2272C59.5988 32.956 59.0908 33.4651 59.0908 34.0923C59.0908 40.8696 63.892 45.1582 69.3181 45.4412V48.8651C69.3181 49.4923 69.826 50.0014 70.4545 50.0014H74.9999C75.6283 50.0014 76.1363 49.4923 76.1363 48.8651V45.4412C81.826 45.1446 86.3635 40.4219 86.3635 34.6605C86.3635 28.7082 81.5204 23.8651 75.5681 23.8651H69.8863C67.6931 23.8651 65.909 22.081 65.909 19.8878C65.909 17.6946 67.6931 15.9105 69.8863 15.9105H75.5681C77.5601 15.9105 79.5454 17.298 79.5454 20.456C79.5454 21.0832 80.0533 21.5923 80.6817 21.5923H85.2272C85.8556 21.5923 86.3635 21.0832 86.3635 20.456C86.3635 13.6787 81.5624 9.39006 76.1363 9.1071ZM81.7931 19.3196C81.5056 16.1389 78.8238 13.6378 75.5681 13.6378H69.8863C66.4408 13.6378 63.6363 16.4412 63.6363 19.8878C63.6363 23.3344 66.4408 26.1378 69.8863 26.1378H75.5681C80.2681 26.1378 84.0908 29.9605 84.0908 34.6605C84.0908 39.0128 80.8045 43.1832 74.9999 43.1832C74.3715 43.1832 73.8635 43.6923 73.8635 44.3196V47.7287H71.5908V44.3196C71.5908 43.6923 71.0829 43.1832 70.4545 43.1832C64.9635 43.1832 61.6601 39.4344 61.3829 35.2287H63.6624C63.9499 38.4094 66.6317 40.9105 69.8874 40.9105H75.5692C79.0147 40.9105 81.8192 38.1071 81.8192 34.6605C81.8192 31.2139 79.0135 28.4105 75.5681 28.4105H69.8863C65.1863 28.4105 61.3635 24.5878 61.3635 19.8878C61.3635 15.5355 64.6499 11.3651 70.4545 11.3651C71.0829 11.3651 71.5908 10.856 71.5908 10.2287V6.8196H73.8635V10.2287C73.8635 10.856 74.3715 11.3651 74.9999 11.3651C80.4908 11.3651 83.7942 15.1139 84.0715 19.3196H81.7931Z" fill="black"/>
<path d="M72.7273 0C58.0705 0 46.0818 11.6239 45.483 26.1364H27.2727C22.8875 26.1364 19.3182 29.7045 19.3182 34.0909V52.2727H14.7727C6.62727 52.2727 0 58.9 0 67.0455V85.2273C0 93.3727 6.62727 100 14.7727 100H26.1364C34.2818 100 40.9091 93.3727 40.9091 85.2273V67.0455C40.9091 58.9 34.2818 52.2727 26.1364 52.2727H21.5909V34.0909C21.5909 30.958 24.1398 28.4091 27.2727 28.4091H45.483C46.0818 42.9216 58.0705 54.5455 72.7273 54.5455C87.7648 54.5455 100 42.3102 100 27.2727C100 12.2352 87.7648 0 72.7273 0ZM14.7727 54.5455H19.3182V56.9795C17.3625 57.4875 15.9091 59.2523 15.9091 61.3636V65.9091C15.9091 68.0205 17.3625 69.7852 19.3182 70.2932V75H2.27273V67.0455C2.27273 60.1534 7.88068 54.5455 14.7727 54.5455ZM18.1818 65.9091V61.3636C18.1818 58.3614 22.7273 58.3591 22.7273 61.3636V65.9091C22.7273 68.9114 18.1818 68.9136 18.1818 65.9091ZM26.1364 97.7273H14.7727C7.88068 97.7273 2.27273 92.1193 2.27273 85.2273V77.2727H38.6364V85.2273C38.6364 92.1193 33.0284 97.7273 26.1364 97.7273ZM26.1364 54.5455C33.0284 54.5455 38.6364 60.1534 38.6364 67.0455V75H21.5909V70.2932C23.5466 69.7852 25 68.0205 25 65.9091V61.3636C25 59.2523 23.5466 57.4875 21.5909 56.9795V54.5455H26.1364ZM72.7273 52.2727C58.942 52.2727 47.7273 41.058 47.7273 27.2727C47.7273 13.4875 58.942 2.27273 72.7273 2.27273C86.5125 2.27273 97.7273 13.4875 97.7273 27.2727C97.7273 41.058 86.5125 52.2727 72.7273 52.2727Z" fill="black"/>
</svg>
