<svg width="90" height="120" viewBox="0 0 90 120" fill="none" xmlns="http://www.w3.org/2000/svg">
<path d="M83.2359 53.8018C85.1348 49.2127 86.0996 44.3648 86.0996 39.3484C86.0996 17.6517 67.6632 0 45.0007 0C22.3396 0 3.90322 17.6517 3.90322 39.3484C3.90322 41.9415 4.17212 44.5214 4.69467 47.0455C1.96824 47.9267 0 50.3978 0 53.3015V91.9478C0 95.5894 3.09375 98.5501 6.89578 98.5501H11.84V111.018C11.84 111.724 12.253 112.371 12.9086 112.693C13.1914 112.832 13.4991 112.9 13.8054 112.9C14.2102 112.9 14.6121 112.781 14.9517 112.547L24.9842 105.65H54.6881L75.0483 119.647C75.3893 119.881 75.7912 120 76.1946 120C76.5009 120 76.8086 119.931 77.0914 119.793C77.747 119.47 78.16 118.824 78.16 118.118V105.65H83.1042C86.9063 105.65 90 102.688 90 99.0478V60.4014C90.0014 56.8024 86.9783 53.8695 83.2359 53.8018ZM71.3128 46.6992H65.8197C65.9985 44.8996 66.1108 43.0722 66.1565 41.2315H82.1159C81.8817 45.6017 80.8283 49.8179 78.9751 53.7991H78.2099V53.3015C78.2086 49.6613 75.1148 46.6992 71.3128 46.6992ZM8.63255 46.6992C8.2389 44.9036 7.99079 43.0749 7.88961 41.2315H23.8449C23.8906 43.0722 24.0029 44.8996 24.1817 46.6992H8.63255ZM82.1159 37.4666H66.1579C66.0276 32.1025 65.3457 27.0515 64.2105 22.4969H77.7276C80.2655 26.9958 81.8207 32.0746 82.1159 37.4666ZM62.2242 37.4666H46.9675V22.4969H60.1187C61.3316 27.021 62.0814 32.1078 62.2242 37.4666ZM46.9675 18.7333V4.00916C51.8369 5.21018 56.1615 10.7933 58.9558 18.7333H46.9675ZM43.0352 4.00916V18.7333H31.047C33.8413 10.7933 38.1659 5.20885 43.0352 4.00916ZM43.0352 22.4969V37.4666H27.7772C27.9199 32.1078 28.6698 27.0197 29.8826 22.4969H43.0352ZM23.8435 37.4666H7.88683C8.18207 32.0746 9.73726 26.9958 12.2738 22.4969H25.7895C24.6557 27.0515 23.9738 32.1025 23.8435 37.4666ZM28.1334 46.6992C27.9449 44.9023 27.8271 43.0749 27.7786 41.2315H43.0352V46.6992H28.1334ZM46.9675 41.2315H62.2242C62.1757 43.0749 62.0579 44.9036 61.8694 46.6992H46.9675V41.2315ZM75.2784 18.7333H63.1363C61.326 13.1674 58.7923 8.5465 55.7581 5.28715C63.7156 7.59364 70.5546 12.3924 75.2784 18.7333ZM34.2447 5.28582C31.2105 8.5465 28.6768 13.1661 26.8665 18.732H14.7244C19.4468 12.3924 26.2858 7.59497 34.2447 5.28582ZM13.8054 94.7865H6.89439C5.2602 94.7865 3.93094 93.5138 3.93094 91.9478V53.3015C3.93094 51.7368 5.2602 50.4642 6.89439 50.4642H71.3114C72.9456 50.4642 74.2762 51.7368 74.2762 53.3015V91.9478C74.2762 93.5125 72.947 94.7865 71.3114 94.7865H34.6799C34.2682 94.7865 33.8676 94.9099 33.5336 95.1395L15.7723 107.35V96.6696C15.7723 95.6292 14.8921 94.7865 13.8054 94.7865ZM86.0704 99.0491C86.0704 100.614 84.7412 101.886 83.1056 101.886H76.1946C75.1093 101.886 74.2291 102.729 74.2291 103.768V114.45L56.4678 102.239C56.1337 102.01 55.7318 101.886 55.3215 101.886H30.4606L35.3119 98.5515H71.3114C75.1134 98.5515 78.2072 95.5894 78.2072 91.9492V57.5641H83.1042C84.7384 57.5641 86.0691 58.8368 86.0691 60.4014L86.0704 99.0491ZM24.1276 81.5885C24.4492 81.5885 24.7735 81.566 25.0993 81.5222C25.4361 81.9203 25.8464 82.2627 26.3246 82.5268C27.0051 82.9037 27.7605 83.0961 28.5257 83.0961C28.534 83.0961 28.5409 83.0948 28.5492 83.0948L30.7878 91.0932C31.0054 91.8695 31.5252 92.5185 32.2542 92.9206C32.7394 93.1887 33.2772 93.3254 33.8233 93.3254C34.0964 93.3254 34.3708 93.2909 34.6411 93.2218L37.0085 92.614C37.8194 92.4057 38.4972 91.908 38.9172 91.21C39.3371 90.5119 39.4494 89.7011 39.2318 88.926L37.1042 81.3258L50.6934 81.907C51.0787 82.406 51.568 82.8307 52.1474 83.1505C52.8848 83.5579 53.7012 83.7663 54.5273 83.7663C54.9403 83.7663 55.3548 83.7145 55.7637 83.6097C58.303 82.9581 59.8152 80.4499 59.136 78.0186L57.7763 73.1601C59.8277 71.8782 61.1417 69.6646 61.1417 67.2307C61.1417 63.4524 58.0341 60.3577 54.1392 60.1626L52.7808 55.3081C52.1002 52.8768 49.4805 51.429 46.9412 52.0806C44.9952 52.5795 43.6562 54.1707 43.4413 55.9809L31.1745 63.479L24.6904 65.1418C23.5538 65.4338 22.6029 66.1319 22.0138 67.1099C21.738 67.5678 21.5606 68.0614 21.4774 68.5671C20.0276 69.1284 18.8189 70.1304 18.0219 71.4522C17.0766 73.0182 16.8257 74.8389 17.3108 76.5774C18.1522 79.5939 21.0117 81.5885 24.1276 81.5885ZM34.3819 89.3905L32.3845 82.2534L33.2314 82.0358L35.2288 89.1729L34.3819 89.3905ZM44.2106 59.9754L49.2768 78.0797L37.4659 77.5754L34.246 66.0668L44.2106 59.9754ZM57.208 67.2307C57.208 67.8995 56.9959 68.5312 56.6272 69.0621L55.2855 64.2673C56.4234 64.8101 57.208 65.9328 57.208 67.2307ZM47.9558 55.7168C48.0251 55.6995 48.0958 55.6903 48.1651 55.6903C48.5338 55.6903 48.8817 55.9305 48.9801 56.2821L55.3354 78.9927C55.413 79.2674 55.3146 79.4904 55.2494 79.5992C55.1843 79.708 55.0318 79.9005 54.7449 79.9735C54.458 80.0478 54.2251 79.9535 54.1128 79.8912C53.9992 79.8288 53.7982 79.6828 53.722 79.4081L47.3667 56.6975C47.2475 56.2782 47.5178 55.8296 47.9558 55.7168ZM25.705 68.7781L30.584 67.5266L33.5322 78.0624L28.6532 79.3139C28.4966 79.3537 28.3704 79.3099 28.2914 79.2661C28.2124 79.2223 28.1085 79.1387 28.0669 78.9887L25.3668 69.3394C25.2989 69.1006 25.4541 68.8431 25.705 68.7781ZM21.4234 73.3353C21.6216 73.0062 21.8794 72.7235 22.1774 72.4926L23.6591 77.7877C22.4685 77.6139 21.4358 76.7871 21.1059 75.6033C20.8911 74.8376 21.0048 74.0321 21.4234 73.3353Z" fill="black"/>
</svg>
