<svg width="100" height="100" viewBox="0 0 100 100" fill="none" xmlns="http://www.w3.org/2000/svg">
<path d="M97.421 82.2765L79.722 65.4863C78.9433 64.748 77.9246 64.3592 76.8507 64.3922C76.3345 64.4086 75.8383 64.5251 75.3786 64.7252L68.3611 58.3619C68.5419 57.9428 68.6412 57.4882 68.6261 57.0171C68.601 56.1775 68.2543 55.4 67.6502 54.8276L63.9737 51.3389C71.6168 37.6524 69.0393 20.2075 57.5942 9.34874C43.8669 -3.67416 22.19 -3.00934 9.27285 10.8303C-3.64433 24.67 -2.98491 46.5243 10.7424 59.5472C13.8298 62.4749 17.3631 64.7556 21.2467 66.3524C21.8484 69.6689 23.8279 72.4979 26.5649 74.2252C18.334 76.8642 12.2798 84.6141 12.1618 93.7405C12.1542 94.3572 12.4934 94.9258 13.0372 95.2082C19.173 98.388 25.8037 100 32.7471 100C39.6905 100 46.3225 98.388 52.4583 95.2082C53.0021 94.9258 53.3413 94.3572 53.3337 93.7405C53.2157 84.6141 47.1628 76.8655 38.9306 74.2252C41.3598 72.6929 43.1899 70.2933 43.9938 67.4541C47.2519 66.4727 50.3192 65.0241 53.1365 63.1258L56.7251 66.531C57.3292 67.1046 58.1168 67.4022 58.9533 67.382C59.3816 67.3693 59.7923 67.2667 60.1691 67.0907L67.0849 73.5059C66.8626 74.0352 66.7433 74.6076 66.7621 75.2015C66.7948 76.283 67.2419 77.2859 68.0194 78.0242L85.7184 94.8144C87.301 96.3163 89.3233 97.0596 91.3417 97.0596C93.5285 97.0596 95.7103 96.1871 97.3243 94.4586L97.7727 93.9786C100.875 90.6545 100.717 85.4056 97.421 82.2765ZM69.1047 70.9593L62.5456 64.8759L66.2911 60.8616L72.9193 66.8716L69.1047 70.9593ZM12.256 35.1198C12.0776 29.2187 14.1903 23.6013 18.2021 19.3033C26.4857 10.4289 40.3864 10.0022 49.19 18.3523C57.9937 26.7037 58.4157 40.7195 50.1321 49.5939C50.0755 49.6547 50.0153 49.7091 49.9587 49.7686V28.2335C49.9587 27.3356 49.2365 26.6075 48.346 26.6075H38.6669C37.7763 26.6075 37.0541 27.3356 37.0541 28.2335V31.4854H28.989C28.0985 31.4854 27.3763 32.2135 27.3763 33.1114V38.397H19.3112C18.4206 38.397 17.6984 39.1251 17.6984 40.023V49.0304C14.331 45.182 12.413 40.3155 12.256 35.1198ZM40.6791 55.5545C40.571 55.4544 40.4542 55.3671 40.3437 55.2708C40.3223 55.2518 40.3022 55.2316 40.2809 55.2126V29.8607H46.7332V52.5545C44.8843 53.8601 42.8457 54.877 40.6791 55.5545ZM37.0541 53.2637C36.9398 53.2181 36.8217 53.1814 36.7062 53.1396C36.6924 53.1345 36.6773 53.1295 36.6635 53.1244C36.5065 53.0687 36.3545 53.0041 36.195 52.9547C36.1435 52.9382 36.0895 52.9268 36.038 52.9116C35.9124 52.8749 35.783 52.8471 35.6561 52.8141C35.621 52.8053 35.5858 52.7964 35.5506 52.7875C35.3949 52.7483 35.2416 52.7014 35.0834 52.6685C35.0457 52.6609 35.0067 52.6571 34.9691 52.6495C34.802 52.6166 34.6312 52.5976 34.4629 52.5723C34.4214 52.5659 34.3812 52.5596 34.3398 52.5533C34.2041 52.5343 34.071 52.5052 33.9328 52.4912C33.914 52.4887 33.8939 52.4887 33.875 52.4874C33.5045 52.4507 33.1302 52.4317 32.7547 52.4317C32.7521 52.4317 32.7509 52.4317 32.7484 52.4317C32.4004 52.4317 32.0563 52.4494 31.7121 52.4811C31.6732 52.4849 31.6343 52.4874 31.5966 52.4912C31.4999 52.5014 31.4044 52.5191 31.3077 52.5317C31.103 52.5571 30.8982 52.5837 30.696 52.6204C30.6646 52.6255 30.6319 52.628 30.6018 52.6343V34.7411H37.0541V53.2637ZM20.9227 41.6515H27.375V53.7512C27.3097 53.7854 27.2456 53.8196 27.1816 53.8538C27.1703 53.8601 27.159 53.8677 27.1477 53.8741C27.0158 53.9462 26.8877 54.0247 26.7583 54.1033C26.708 54.1337 26.6553 54.1615 26.605 54.1932C26.4882 54.2654 26.3739 54.3426 26.2584 54.4186C26.2119 54.4502 26.1667 54.4832 26.1202 54.5148C25.9707 54.6187 25.8175 54.7187 25.6718 54.8301C23.9724 54.1121 22.3872 53.1725 20.9214 52.0467L20.9227 41.6515ZM50.0668 92.7756C44.6494 95.4108 38.8289 96.7468 32.7484 96.7468C26.6678 96.7468 20.8461 95.4108 15.43 92.7756C16.0656 83.7176 23.6332 76.5096 32.7484 76.5096C41.8635 76.5096 49.4312 83.7176 50.0668 92.7756ZM32.7484 72.7727C28.0746 72.7727 24.2726 68.9395 24.2726 64.2275C24.2726 63.6387 24.3316 63.0638 24.4446 62.5079C24.8328 60.6033 25.8539 58.9305 27.2733 57.7161C27.3323 57.6654 27.3913 57.6161 27.4516 57.5679C27.5998 57.4476 27.7531 57.3337 27.9088 57.2235C27.9741 57.1766 28.0407 57.1311 28.1073 57.0867C28.2605 56.9854 28.4188 56.8892 28.5796 56.7967C28.6562 56.7524 28.7328 56.7094 28.8107 56.6676C28.9652 56.5853 29.1234 56.5105 29.2829 56.4384C29.3721 56.3978 29.4613 56.3561 29.5517 56.3193C29.705 56.256 29.8607 56.2016 30.0177 56.1471C30.1182 56.1129 30.2187 56.0762 30.3204 56.0445C30.4762 55.9977 30.6344 55.9597 30.7927 55.9217C30.8982 55.8964 31.0037 55.8673 31.1105 55.847C31.2826 55.8128 31.4584 55.79 31.6343 55.7659C31.7297 55.7533 31.8239 55.7356 31.9194 55.7254C32.1919 55.6988 32.467 55.6836 32.7459 55.6836C33.0423 55.6836 33.3375 55.7001 33.6301 55.7305C33.6464 55.7318 33.6615 55.7356 33.6766 55.7381C33.9529 55.7685 34.228 55.8115 34.498 55.8698C34.5169 55.8736 34.5357 55.8799 34.5546 55.885C34.8183 55.9432 35.0796 56.0129 35.3358 56.0952C35.3773 56.1091 35.4175 56.1269 35.4602 56.1408C35.6863 56.218 35.9111 56.3029 36.1309 56.3991C36.2075 56.4333 36.2804 56.4726 36.3557 56.508C36.5328 56.5916 36.7074 56.6777 36.8783 56.7739C36.9838 56.8335 37.0842 56.8993 37.1872 56.9626C37.3191 57.0449 37.451 57.126 37.5779 57.2159C37.6997 57.302 37.8165 57.3932 37.9346 57.4844C38.0351 57.5629 38.1343 57.6414 38.231 57.7237C38.3554 57.8313 38.4759 57.9428 38.5953 58.0567C38.6782 58.1365 38.7598 58.2163 38.8389 58.2999C39.9342 59.4446 40.7218 60.8908 41.0508 62.5066C41.1639 63.0625 41.2229 63.6374 41.2229 64.2263C41.2229 64.5099 41.2079 64.7911 41.1802 65.0671C41.1702 65.1748 41.1488 65.2811 41.135 65.3888C40.5698 69.5537 37.0302 72.7727 32.7484 72.7727ZM54.7217 60.1715C54.4893 59.7777 54.1037 59.5016 53.659 59.4092C53.551 59.3864 53.443 59.3762 53.335 59.3762C52.9959 59.3762 52.663 59.4839 52.3842 59.689C49.9449 61.4821 47.2834 62.8928 44.4459 63.8945C44.4422 63.7413 44.4208 63.5906 44.4108 63.4386C44.3982 63.2499 44.3882 63.0613 44.3668 62.8738C44.3429 62.6687 44.3078 62.4674 44.2739 62.2647C44.2437 62.0824 44.2161 61.8988 44.1771 61.719C44.1344 61.5189 44.0792 61.3251 44.0264 61.1288C43.9787 60.9528 43.9347 60.7768 43.8795 60.6033C43.8179 60.4108 43.7438 60.2234 43.6722 60.0347C43.6094 59.8676 43.5491 59.6992 43.4788 59.5345C43.3984 59.3497 43.308 59.1711 43.2188 58.9913C43.1409 58.833 43.0655 58.6722 42.9814 58.5177C42.9299 58.424 42.8746 58.3341 42.8206 58.2416C45.089 57.4046 47.2193 56.2408 49.1549 54.7896C49.2754 54.7187 49.3897 54.6376 49.4877 54.5389C50.5491 53.7158 51.5552 52.8141 52.4821 51.8213C61.9841 41.6401 61.4993 25.5628 51.4007 15.9818C41.3008 6.402 25.354 6.8908 15.852 17.0721C11.2486 22.0044 8.82696 28.4487 9.03044 35.2173C9.23517 41.987 12.0412 48.2706 16.9335 52.9116C17.3844 53.3397 17.8529 53.7424 18.329 54.1324C18.3566 54.1539 18.3817 54.1805 18.4119 54.1995C19.9216 55.4266 21.5495 56.4675 23.2878 57.3083C23.274 57.3273 23.2602 57.3476 23.2464 57.3666C23.1647 57.4806 23.0806 57.5907 23.004 57.7072C22.8683 57.9124 22.744 58.1264 22.6209 58.3417C22.5618 58.4442 22.4965 58.543 22.4413 58.6481C22.283 58.9457 22.1373 59.2509 22.0041 59.5624C21.9928 59.5903 21.9778 59.6156 21.9665 59.6434C21.8233 59.9854 21.6964 60.3349 21.5859 60.692C21.5532 60.7958 21.5319 60.9034 21.5017 61.0073C21.4301 61.2618 21.3598 61.5163 21.3045 61.7772C21.2744 61.9178 21.2568 62.0621 21.2317 62.2052C21.199 62.3926 21.1601 62.5775 21.1362 62.7675C18.1393 61.3669 15.3948 59.4927 12.9543 57.1779C0.521975 45.3846 -0.0746494 25.5932 11.6229 13.0591C23.3217 0.526244 42.9512 -0.076526 55.3836 11.7168C66.0613 21.8461 68.2179 38.3046 60.5133 50.8501C60.2671 51.2502 60.1892 51.7264 60.3274 52.1759C60.4656 52.6255 60.7733 52.9813 61.2004 53.1712L65.3579 57.1159L59.3113 63.5944C59.2145 63.6615 59.1228 63.7387 59.0387 63.8299C58.9671 63.9084 58.9056 63.9933 58.8528 64.0807L54.7217 60.1715ZM95.4239 91.7486L94.9755 92.2286C93.0927 94.2458 89.9324 94.3433 87.9303 92.4438L70.2313 75.6549C70.0279 75.4611 69.9914 75.2256 69.9877 75.1028C69.9839 74.9799 70.0065 74.7419 70.1987 74.5367L76.4023 67.8898C76.5945 67.6846 76.8281 67.6479 76.9499 67.6441C76.9575 67.6441 76.965 67.6441 76.9738 67.6441C77.1019 67.6441 77.3205 67.6745 77.5126 67.8568L95.2116 84.6471C97.2112 86.5453 97.3067 89.7314 95.4239 91.7486Z" fill="black"/>
</svg>
