<svg width="100" height="100" viewBox="0 0 100 100" fill="none" xmlns="http://www.w3.org/2000/svg">
<path d="M95 36.6667H93.3333V20C93.3333 19.44 93.0517 18.9167 92.5833 18.6083C92.1167 18.3 91.525 18.2467 91.01 18.4683L80 23.1867V1.66667C80 0.746667 79.2533 0 78.3333 0H1.66667C0.746667 0 0 0.746667 0 1.66667V98.3333C0 99.2533 0.746667 100 1.66667 100H66.6667C66.8867 100 67.1033 99.955 67.305 99.8717C67.5083 99.7867 67.6917 99.665 67.845 99.5117L79.51 87.8467L79.5117 87.8433C79.6517 87.7033 79.7517 87.54 79.8333 87.3667C79.8567 87.3167 79.87 87.2633 79.8883 87.21C79.9383 87.0667 79.9683 86.9217 79.9767 86.77C79.9817 86.7333 80 86.7033 80 86.6667V66.8133L91.01 71.5317C91.22 71.6217 91.4433 71.6667 91.6667 71.6667C91.9883 71.6667 92.3083 71.5733 92.5833 71.3917C93.0517 71.0833 93.3333 70.56 93.3333 70V53.3333H95C97.7567 53.3333 100 51.09 100 48.3333V41.6667C100 38.91 97.7567 36.6667 95 36.6667ZM68.3333 94.31V88.3333H74.31L68.3333 94.31ZM76.6667 85H66.6667C65.7467 85 65 85.7467 65 86.6667V96.6667H3.33333V3.33333H76.6667V24.615L56.325 33.3333H40C39.08 33.3333 38.3333 34.08 38.3333 35V55C38.3333 55.92 39.08 56.6667 40 56.6667V73.3333C39.08 73.3333 38.3333 74.08 38.3333 75V91.6667C38.3333 92.5867 39.08 93.3333 40 93.3333H60C60.92 93.3333 61.6667 92.5867 61.6667 91.6667V75C61.6667 74.08 60.92 73.3333 60 73.3333H51.6667V65H56.6667C57.5867 65 58.3333 64.2533 58.3333 63.3333V57.5267L76.6667 65.3833V85ZM41.6667 76.6667H50H58.3333V90H41.6667V76.6667ZM43.3333 73.3333V56.6667H48.3333V73.3333H43.3333ZM48.3333 41.6667V36.6667H55V53.3333H50H41.6667V36.6667H45V41.6667H48.3333ZM51.6667 56.6667H55V61.6667H51.6667V56.6667ZM90 67.4717L78.99 62.7533L58.3333 53.9017V36.0983L78.99 27.245L90 22.5283V38.3333V51.6667V67.4717ZM96.6667 48.3333C96.6667 49.2517 95.9183 50 95 50H93.3333V40H95C95.9183 40 96.6667 40.7483 96.6667 41.6667V48.3333Z" fill="black"/>
<path d="M39.9997 26.6641H63.333C64.253 26.6641 64.9997 25.9174 64.9997 24.9974V8.33073C64.9997 7.41073 64.253 6.66406 63.333 6.66406H39.9997C39.0797 6.66406 38.333 7.41073 38.333 8.33073V24.9974C38.333 25.9174 39.0797 26.6641 39.9997 26.6641ZM41.6663 9.9974H61.6663V23.3307H41.6663V9.9974Z" fill="black"/>
<path d="M33.333 40.0039H9.99967C9.07967 40.0039 8.33301 40.7506 8.33301 41.6706V58.3372C8.33301 59.2572 9.07967 60.0039 9.99967 60.0039H33.333C34.253 60.0039 34.9997 59.2572 34.9997 58.3372V41.6706C34.9997 40.7506 34.253 40.0039 33.333 40.0039ZM31.6663 56.6706H11.6663V43.3372H31.6663V56.6706Z" fill="black"/>
<path d="M33.3333 8.33203H10V11.6654H33.3333V8.33203Z" fill="black"/>
<path d="M33.3333 15.0039H10V18.3372H33.3333V15.0039Z" fill="black"/>
<path d="M33.3333 21.668H10V25.0013H33.3333V21.668Z" fill="black"/>
<path d="M33.3333 28.332H10V31.6654H33.3333V28.332Z" fill="black"/>
<path d="M33.3333 75H10V78.3333H33.3333V75Z" fill="black"/>
<path d="M33.3333 68.3359H10V71.6693H33.3333V68.3359Z" fill="black"/>
<path d="M33.3333 81.6641H10V84.9974H33.3333V81.6641Z" fill="black"/>
<path d="M33.3333 88.3359H10V91.6693H33.3333V88.3359Z" fill="black"/>
</svg>
