<svg width="101" height="100" viewBox="0 0 101 100" fill="none" xmlns="http://www.w3.org/2000/svg">
<path d="M48.5121 86.7747C50.5506 86.7747 52.2099 85.1601 52.2099 83.1757C52.2099 81.1831 50.5506 79.5625 48.5121 79.5625C46.4813 79.5625 44.8281 81.1831 44.8281 83.1757C44.8281 85.1601 46.4813 86.7747 48.5121 86.7747ZM48.5121 81.8663C49.2642 81.8663 49.8521 82.4415 49.8521 83.1757C49.8521 83.8897 49.2504 84.4709 48.5121 84.4709C47.7814 84.4709 47.1859 83.8897 47.1859 83.1757C47.1859 82.4535 47.7814 81.8663 48.5121 81.8663Z" fill="black"/>
<path d="M95.3833 16.741C95.1269 15.8269 94.8061 14.9614 94.4254 14.1537L97.3127 11.2814C97.761 10.8352 97.764 10.1213 97.3173 9.67205L91.1083 3.42125C90.8873 3.19852 90.5833 3.07253 90.2656 3.07178C89.9156 3.06428 89.6439 3.19552 89.4198 3.41825L86.775 6.05956C85.8771 5.57734 84.9407 5.17312 83.9752 4.8514V1.15192C83.9752 0.515962 83.4472 0 82.7963 0H74.0269C73.3761 0 72.8481 0.515962 72.8481 1.15192V4.8529C71.8749 5.17837 70.9447 5.5811 70.0713 6.05656L67.4342 3.419C67.2131 3.19702 66.9092 3.07178 66.5914 3.07178C66.2737 3.07178 65.9682 3.19777 65.7472 3.4205L59.5228 9.6713C59.0761 10.119 59.0777 10.833 59.5244 11.2799L62.4025 14.1567C62.031 14.9577 61.7117 15.8134 61.44 16.741H57.271C56.6202 16.741 56.0921 17.257 56.0921 17.893V20.1353H41.4422V11.0122C41.4422 10.3762 40.9141 9.86028 40.2633 9.86028H29.3081C28.6572 9.86028 28.1292 10.3762 28.1292 11.0122V20.1353H6.2955C3.23627 20.1353 0.748047 22.5674 0.748047 25.5574C0.748047 49.5007 0.748047 74.5648 0.748047 84.1124C0.748047 87.1017 3.23627 89.533 6.2955 89.533H37.135V97.6962H32.4287C31.7779 97.6962 31.2498 98.2121 31.2498 98.8481C31.2498 99.484 31.7779 100 32.4287 100C44.0615 100 52.9396 100 64.6098 100C65.2606 100 65.7887 99.484 65.7887 98.8481C65.7887 98.2121 65.2606 97.6962 64.6098 97.6962H59.9035V89.533H90.7445C93.8022 89.533 96.2904 87.1017 96.2904 84.1124C96.2821 31.9925 96.2829 36.36 96.2828 35.979L97.3143 34.9482C97.761 34.502 97.7625 33.7903 97.3189 33.3418L96.2828 32.297V27.8455H99.5692C100.22 27.8455 100.748 27.3295 100.748 26.6936V17.893C100.748 17.257 100.22 16.741 99.5692 16.741H95.3833ZM41.4422 22.4391H56.0921V25.8184H41.4422V22.4391ZM41.4422 28.1222H62.0202C62.0431 28.18 62.0772 28.2377 62.1008 28.2954C62.3269 28.8485 62.577 29.4007 62.8752 29.9588L59.5213 33.3411C59.0761 33.7896 59.0777 34.5028 59.5259 34.949L65.7503 41.154C65.9713 41.3753 66.2752 41.4997 66.5914 41.4997C66.9092 41.499 67.2147 41.3738 67.4357 41.1518L70.9969 37.5798C71.6063 37.8625 72.2249 38.1077 72.8481 38.3125V42.8106L65.4882 47.5021C64.9904 47.1836 64.3988 46.9938 63.759 46.9938C63.1145 46.9938 62.5183 47.1855 62.0181 47.5083L50.0688 38.509C49.6682 38.2082 49.1156 38.188 48.6935 38.464L34.9039 47.4674C34.419 47.1727 33.8527 46.9938 33.2393 46.9938C32.8145 46.9938 32.4114 47.0793 32.0416 47.2275L24.7586 40.5109C24.9373 40.1225 25.042 39.6957 25.042 39.2454C25.042 37.5224 23.6229 36.1148 21.8597 36.1148C20.0965 36.1148 18.6772 37.5224 18.6772 39.2454C18.6772 40.9472 20.0965 42.3551 21.8597 42.3551C22.2882 42.3551 22.695 42.2688 23.0674 42.1186L30.3477 48.8329C30.1648 49.2281 30.0568 49.6633 30.0568 50.1245C30.0568 51.8265 31.4761 53.2341 33.2393 53.2341C35.0024 53.2341 36.4217 51.8265 36.4217 50.1245C36.4217 49.8466 36.3729 49.5817 36.3035 49.3247L49.2998 40.839L60.6703 49.4023C60.614 49.6352 60.5765 49.8751 60.5765 50.1245C60.5765 51.8265 61.9958 53.2341 63.759 53.2341C65.5221 53.2341 66.9413 51.8265 66.9413 50.1245C66.9413 49.8704 66.9019 49.6265 66.8436 49.3897L74.3786 44.5873H82.7963C83.4472 44.5873 83.9752 44.0713 83.9752 43.4354V38.3155C84.603 38.11 85.2278 37.864 85.8433 37.579L88.1105 39.8491V71.1113H8.93722V28.1222H28.1292V29.3664H23.4291C22.9517 29.3664 22.5219 29.6469 22.3408 30.0773C22.1581 30.507 22.2579 31.0028 22.5956 31.332L33.9591 42.4514C34.1801 42.6682 34.4795 42.7896 34.7926 42.7896C35.1057 42.7896 35.4051 42.6682 35.6261 42.4514L46.9758 31.347C47.3135 31.0178 47.4133 30.522 47.2306 30.0923C47.0495 29.6618 46.6197 29.3814 46.1423 29.3814H41.4422V28.1222ZM29.3081 31.6702C29.9589 31.6702 30.4869 31.1542 30.4869 30.5183C30.4869 23.9649 30.4869 18.7432 30.4869 12.1641H39.0844C39.0844 18.7396 39.0844 23.957 39.0844 30.5333C39.0844 31.1692 39.6125 31.6852 40.2633 31.6852H43.2995L34.7926 40.0074L26.2719 31.6702H29.3081ZM3.10579 25.5574C3.10579 23.8378 4.5364 22.4391 6.2955 22.4391H28.1292V25.8184H7.75835C7.10751 25.8184 6.57947 26.3343 6.57947 26.9703V72.2633C6.57947 72.8992 7.10751 73.4152 7.75835 73.4152H89.2894C89.9402 73.4152 90.4682 72.8992 90.4682 72.2633V41.4592C90.7067 41.4169 90.9336 41.325 91.1052 41.1533L93.925 38.3357V76.7944H3.10579V25.5574ZM57.5458 97.6962H39.4927V89.533H57.5458V97.6962ZM93.9327 84.1124C93.9327 85.8313 92.5021 87.2292 90.7445 87.2292C73.035 87.2292 24.5415 87.2292 6.2955 87.2292C4.5364 87.2292 3.10579 85.8313 3.10579 84.1124V79.108H93.9327V84.1124ZM98.3903 25.5416H95.1039H94.0831C93.5674 25.5416 93.1115 25.8694 92.958 26.3501C92.6111 27.436 92.1306 28.4904 91.4905 29.5734C91.2265 30.0188 91.2987 30.582 91.6655 30.9518L94.8276 34.1383L90.261 38.7024L86.927 35.3652C86.5586 34.9977 85.9891 34.9115 85.524 35.156C84.5324 35.6764 83.5116 36.0784 82.4878 36.3484C82.1033 36.4502 81.806 36.7322 81.6814 37.0863C81.6398 37.2044 81.6175 37.3304 81.6175 37.4605V42.2834H75.2058V37.4605C75.2058 36.9416 74.8512 36.4871 74.3385 36.3499C73.3193 36.0761 72.3016 35.6749 71.3161 35.156C70.8572 34.9115 70.28 34.9985 69.9132 35.3659L66.5884 38.6994L62.0141 34.1383L65.1747 30.9503C65.54 30.5813 65.6121 30.0196 65.3496 29.5741C64.7525 28.5617 64.3012 27.592 63.9221 26.4678C63.9206 26.4648 63.8714 26.3238 63.8714 26.3216C63.7087 25.8551 63.259 25.5416 62.7555 25.5416H58.4499V21.2872V19.0449H62.3472C62.8906 19.0449 63.3634 18.6819 63.4923 18.1659C63.8438 16.7598 64.2951 15.5479 64.8723 14.4605C65.1056 14.0187 65.0242 13.4803 64.6681 13.1248L62.0141 10.4722L66.593 5.87432L69.0336 8.3154C69.4235 8.70687 70.0421 8.77436 70.5103 8.48188C71.6692 7.75969 72.9617 7.19573 74.3523 6.80501C74.8574 6.66327 75.2058 6.2118 75.2058 5.69809V2.30383H81.6175V5.69809C81.6175 6.2133 81.9674 6.66552 82.474 6.80651C83.8355 7.18448 85.1418 7.74994 86.3544 8.48863C86.8242 8.77511 87.4412 8.70237 87.828 8.30865L90.2595 5.87432L94.8245 10.47L92.1567 13.1233C91.796 13.4818 91.7162 14.027 91.9572 14.471C92.5466 15.5554 93.0025 16.7905 93.3095 18.1434C93.4292 18.6699 93.9081 19.0449 94.4607 19.0449H98.3903V25.5416Z" fill="black"/>
<path d="M78.4586 8.17188C70.9668 8.17188 65.0352 14.208 65.0352 21.5457C65.0352 28.9491 71.0569 34.9719 78.4586 34.9719C85.9879 34.9719 91.8714 28.8451 91.8714 21.5457C91.8714 14.2864 86.0141 8.17188 78.4586 8.17188ZM78.4586 32.6681C72.3571 32.6681 67.3929 27.6787 67.3929 21.5457C67.3929 15.464 72.3034 10.4757 78.4586 10.4757C84.6824 10.4757 89.5136 15.5352 89.5136 21.5457C89.5136 27.6063 84.6424 32.6681 78.4586 32.6681Z" fill="black"/>
<path d="M29.3127 7.99655H40.2694C40.9203 7.99655 41.4483 7.48059 41.4483 6.84464V1.26129C41.4483 0.625338 40.9203 0.109375 40.2694 0.109375H29.3127C28.6618 0.109375 28.1338 0.625338 28.1338 1.26129V6.84464C28.1338 7.48059 28.6618 7.99655 29.3127 7.99655ZM30.4915 2.41321H39.0905V5.69272H30.4915V2.41321Z" fill="black"/>
<path d="M12.2266 59.1713V67.0082C12.2266 67.6442 12.7546 68.1601 13.4054 68.1601H81.0095C81.6603 68.1601 82.1883 67.6442 82.1883 67.0082V47.1954C82.1883 46.7642 81.9412 46.369 81.5498 46.1717C81.1568 45.9722 80.6825 46.0075 80.3264 46.2572L63.5781 57.9061L50.0779 47.7331C49.6772 47.4309 49.1231 47.4121 48.7041 47.6866L33.3787 57.6826L22.6645 47.8073C22.4235 47.5854 22.0981 47.4684 21.7681 47.4961C21.4365 47.5201 21.1326 47.6791 20.9284 47.9341L12.4783 58.4603C12.3156 58.6628 12.2266 58.9133 12.2266 59.1713ZM14.5843 59.5695L21.986 50.3489L32.4439 59.988C32.843 60.3562 33.4524 60.4049 33.9068 60.1087L49.3089 50.0624L62.8306 60.2512C63.242 60.5609 63.8114 60.5722 64.2336 60.2774L79.8306 49.4295V65.8563H14.5843V59.5695Z" fill="black"/>
</svg>
