<svg width="20" height="20" viewBox="0 0 20 20" fill="none" xmlns="http://www.w3.org/2000/svg">
<path d="M12.0271 1.39281C12.0543 1.29128 12.1011 1.1961 12.1651 1.1127C12.2291 1.0293 12.3088 0.95932 12.3998 0.906757C12.4908 0.854194 12.5913 0.820079 12.6955 0.806361C12.7997 0.792642 12.9056 0.799589 13.0071 0.826806C14.4902 1.21376 15.8433 1.98906 16.9271 3.07286C18.0109 4.15667 18.7862 5.50979 19.1731 6.99287C19.2004 7.09438 19.2073 7.20026 19.1936 7.30446C19.1799 7.40866 19.1458 7.50913 19.0932 7.60014C19.0406 7.69115 18.9707 7.77091 18.8873 7.83487C18.8039 7.89882 18.7087 7.94572 18.6071 7.97288C18.5396 7.99063 18.47 7.9997 18.4001 7.99988C18.224 7.99993 18.0527 7.94184 17.913 7.83461C17.7732 7.72739 17.6727 7.57703 17.6271 7.40687C17.3117 6.19599 16.679 5.09116 15.7943 4.20628C14.9096 3.3214 13.8049 2.6885 12.5941 2.37282C12.4925 2.34577 12.3972 2.29895 12.3137 2.23504C12.2302 2.17114 12.1601 2.09139 12.1074 2.00037C12.0548 1.90935 12.0206 1.80884 12.0068 1.70459C11.993 1.60034 11.9999 1.49439 12.0271 1.39281ZM11.7941 5.57285C13.1731 5.94086 14.0591 6.82786 14.4271 8.20688C14.4727 8.37704 14.5732 8.5274 14.7129 8.63462C14.8527 8.74185 15.024 8.79994 15.2001 8.79988C15.27 8.79971 15.3395 8.79063 15.4071 8.77288C15.5086 8.74573 15.6038 8.69883 15.6872 8.63488C15.7706 8.57092 15.8406 8.49116 15.8932 8.40015C15.9457 8.30914 15.9798 8.20867 15.9936 8.10447C16.0073 8.00027 16.0003 7.89439 15.9731 7.79287C15.4611 5.87685 14.1231 4.53884 12.2071 4.02684C12.1056 3.99972 11.9997 3.99286 11.8956 4.00665C11.7914 4.02045 11.691 4.05462 11.6 4.10723C11.5091 4.15983 11.4294 4.22984 11.3655 4.31324C11.3016 4.39665 11.2547 4.49183 11.2276 4.59334C11.2005 4.69485 11.1936 4.80071 11.2074 4.90488C11.2212 5.00904 11.2554 5.10947 11.308 5.20042C11.3606 5.29138 11.4306 5.37108 11.514 5.43499C11.5974 5.49889 11.6926 5.54573 11.7941 5.57285ZM19.0371 13.4459L14.3261 11.3349L14.3131 11.3289C14.0685 11.2243 13.8017 11.1823 13.5369 11.2068C13.272 11.2312 13.0174 11.3213 12.7961 11.4689C12.77 11.4861 12.745 11.5048 12.7211 11.5249L10.2871 13.5999C8.74507 12.8509 7.15306 11.2709 6.40405 9.74889L8.48207 7.27787C8.50207 7.25287 8.52107 7.22787 8.53907 7.20087C8.6835 6.98017 8.77113 6.72718 8.79416 6.46443C8.81719 6.20168 8.7749 5.93731 8.67107 5.69485V5.68285L6.55406 0.963807C6.41679 0.647069 6.18078 0.383216 5.88124 0.211638C5.5817 0.0400599 5.2347 -0.0300417 4.89204 0.0117978C3.537 0.190106 2.2932 0.855574 1.39295 1.88391C0.4927 2.91225 -0.00244095 4.23313 9.04871e-06 5.59985C9.04871e-06 13.5399 6.46005 20 14.4001 20C15.7668 20.0024 17.0877 19.5073 18.116 18.607C19.1444 17.7068 19.8098 16.463 19.9882 15.1079C20.0301 14.7654 19.9601 14.4185 19.7887 14.119C19.6173 13.8194 19.3537 13.5834 19.0371 13.4459Z" fill="black"/>
</svg>
