<svg width="499" height="368" viewBox="0 0 499 368" fill="none" xmlns="http://www.w3.org/2000/svg">
<path d="M448.657 342.539H415.628V342.788H448.657V342.539Z" fill="#EBEBEB"/>
<path d="M330.305 345.254H321.639V345.503H330.305V345.254Z" fill="#EBEBEB"/>
<path d="M414.631 333.285H395.494V333.534H414.631V333.285Z" fill="#EBEBEB"/>
<path d="M95.3857 334.961H52.3151V335.21H95.3857V334.961Z" fill="#EBEBEB"/>
<path d="M110.584 334.961H104.271V335.21H110.584V334.961Z" fill="#EBEBEB"/>
<path d="M224.528 339.172H131.107V339.421H224.528V339.172Z" fill="#EBEBEB"/>
<path d="M236.345 282.018H43.7986C42.2884 282.018 40.84 281.419 39.7722 280.351C38.7043 279.283 38.1044 277.834 38.1044 276.324V5.64436C38.1175 4.14281 38.7232 2.70725 39.7897 1.65013C40.8561 0.593019 42.297 -5.75664e-05 43.7986 4.19093e-09H236.345C237.855 4.19095e-09 239.304 0.599925 240.371 1.6678C241.439 2.73567 242.039 4.18402 242.039 5.69422V276.324C242.039 277.834 241.439 279.283 240.371 280.351C239.304 281.419 237.855 282.018 236.345 282.018ZM43.7986 0.199448C42.3553 0.202084 40.9719 0.776588 39.9514 1.79714C38.9308 2.81768 38.3563 4.20109 38.3537 5.64436V276.324C38.3563 277.768 38.9308 279.151 39.9514 280.171C40.9719 281.192 42.3553 281.767 43.7986 281.769H236.345C237.788 281.767 239.172 281.192 240.192 280.171C241.213 279.151 241.787 277.768 241.79 276.324V5.64436C241.787 4.20109 241.213 2.81768 240.192 1.79714C239.172 0.776588 237.788 0.202084 236.345 0.199448H43.7986Z" fill="#EBEBEB"/>
<path d="M452.057 282.018H259.491C257.981 282.016 256.535 281.415 255.467 280.348C254.4 279.28 253.799 277.834 253.797 276.324V5.64436C253.812 4.14363 254.419 2.70957 255.485 1.65301C256.551 0.596456 257.99 0.00254125 259.491 0H452.057C453.555 0.00519011 454.991 0.600585 456.053 1.65714C457.115 2.71369 457.718 4.14626 457.731 5.64436V276.324C457.731 277.831 457.134 279.276 456.071 280.344C455.007 281.411 453.564 282.013 452.057 282.018ZM259.491 0.199448C258.048 0.202084 256.664 0.776588 255.644 1.79714C254.623 2.81768 254.049 4.20109 254.046 5.64436V276.324C254.049 277.768 254.623 279.151 255.644 280.171C256.664 281.192 258.048 281.767 259.491 281.769H452.057C453.5 281.767 454.884 281.192 455.904 280.171C456.925 279.151 457.499 277.768 457.502 276.324V5.64436C457.499 4.20109 456.925 2.81768 455.904 1.79714C454.884 0.776588 453.5 0.202084 452.057 0.199448H259.491Z" fill="#EBEBEB"/>
<path d="M498.618 326.496H0V326.745H498.618V326.496Z" fill="#EBEBEB"/>
<path d="M415.598 39.5586H291.153V172.081H415.598V39.5586Z" fill="#EBEBEB"/>
<path d="M408.119 47.0391H298.632V164.603H408.119V47.0391Z" fill="#F5F5F5"/>
<path d="M341.603 164.603H374.512L405.406 47.0391H372.498L341.603 164.603Z" fill="#FAFAFA"/>
<path d="M357.21 47.0391L326.316 164.603H334.294L365.188 47.0391H357.21Z" fill="#FAFAFA"/>
<path d="M417.164 45.7943H289.578L286.885 39.5117H419.857L417.164 45.7943Z" fill="#F5F5F5"/>
<path d="M417.164 49.4349H289.578L286.885 43.1523H419.857L417.164 49.4349Z" fill="#F0F0F0"/>
<path d="M417.164 53.0717H289.578L286.885 46.7891H419.857L417.164 53.0717Z" fill="#E6E6E6"/>
<path d="M417.164 56.7123H289.578L286.885 50.4297H419.857L417.164 56.7123Z" fill="#E0E0E0"/>
<path d="M424.504 31.6406H282.248V40.0174H424.504V31.6406Z" fill="#E0E0E0"/>
<path d="M283.704 115.968C283.32 115.968 282.952 115.815 282.681 115.544C282.41 115.273 282.258 114.905 282.258 114.522V65.6569C282.258 65.2734 282.41 64.9056 282.681 64.6345C282.952 64.3633 283.32 64.2109 283.704 64.2109C284.087 64.2109 284.455 64.3633 284.726 64.6345C284.997 64.9056 285.15 65.2734 285.15 65.6569V114.522C285.15 114.905 284.997 115.273 284.726 115.544C284.455 115.815 284.087 115.968 283.704 115.968Z" fill="#E0E0E0"/>
<path d="M284.222 38.3438H283.175V67.3633H284.222V38.3438Z" fill="#E0E0E0"/>
<path d="M90.2699 36.9961H88.4749V176.978H90.2699V36.9961Z" fill="#E0E0E0"/>
<path d="M202.01 36.9961H200.215V176.978H202.01V36.9961Z" fill="#E0E0E0"/>
<path d="M209.051 45.7943H81.4442L78.7517 39.5117H211.733L209.051 45.7943Z" fill="#F5F5F5"/>
<path d="M209.051 54.4193H81.4442L78.7517 48.1367H211.733L209.051 54.4193Z" fill="#F5F5F5"/>
<path d="M209.051 63.0443H81.4442L78.7517 56.7617H211.733L209.051 63.0443Z" fill="#F5F5F5"/>
<path d="M209.051 71.6732H81.4442L78.7517 65.3906H211.733L209.051 71.6732Z" fill="#F5F5F5"/>
<path d="M209.051 80.2982H81.4442L78.7517 74.0156H211.733L209.051 80.2982Z" fill="#F5F5F5"/>
<path d="M209.051 88.9232H81.4442L78.7517 82.6406H211.733L209.051 88.9232Z" fill="#F5F5F5"/>
<path d="M209.051 97.5482H81.4442L78.7517 91.2656H211.733L209.051 97.5482Z" fill="#F5F5F5"/>
<path d="M209.051 106.177H81.4442L78.7517 99.8945H211.733L209.051 106.177Z" fill="#F5F5F5"/>
<path d="M209.051 114.802H81.4442L78.7517 108.52H211.733L209.051 114.802Z" fill="#F5F5F5"/>
<path d="M209.051 123.427H81.4442L78.7517 117.145H211.733L209.051 123.427Z" fill="#F5F5F5"/>
<path d="M209.051 132.056H81.4442L78.7517 125.773H211.733L209.051 132.056Z" fill="#F5F5F5"/>
<path d="M209.051 140.669H81.4442L78.7517 134.387H211.733L209.051 140.669Z" fill="#F5F5F5"/>
<path d="M209.051 149.304H81.4442L78.7517 143.012H211.733L209.051 149.304Z" fill="#F5F5F5"/>
<path d="M209.051 157.923H81.4442L78.7517 151.641H211.733L209.051 157.923Z" fill="#F5F5F5"/>
<path d="M209.051 166.548H81.4442L78.7517 160.266H211.733L209.051 166.548Z" fill="#F5F5F5"/>
<path d="M209.051 175.173H81.4442L78.7517 168.891H211.733L209.051 175.173Z" fill="#F5F5F5"/>
<path d="M211.733 175.176H78.7517V178.766H211.733V175.176Z" fill="#E0E0E0"/>
<path d="M216.37 31.6406H74.1146V40.0174H216.37V31.6406Z" fill="#E0E0E0"/>
<path d="M75.5805 115.968C75.197 115.968 74.8292 115.815 74.558 115.544C74.2869 115.273 74.1345 114.905 74.1345 114.522V65.6569C74.1345 65.2734 74.2869 64.9056 74.558 64.6345C74.8292 64.3633 75.197 64.2109 75.5805 64.2109C75.964 64.2109 76.3318 64.3633 76.603 64.6345C76.8742 64.9056 77.0265 65.2734 77.0265 65.6569V114.522C77.0265 114.905 76.8742 115.273 76.603 115.544C76.3318 115.815 75.964 115.968 75.5805 115.968Z" fill="#E0E0E0"/>
<path d="M76.0991 38.3438H75.052V67.3633H76.0991V38.3438Z" fill="#E0E0E0"/>
<path d="M89.0731 266.642C88.9534 266.772 89.6216 267.709 86.8891 267.3C80.1578 266.303 68.4403 263.561 65.1793 256.64C60.5222 246.757 74.9622 250.367 74.4636 245.311C73.965 240.255 57.5106 241.133 55.7853 233.723C54.0601 226.314 65.1893 229.844 65.3389 226.234C65.4884 222.624 52.644 224.858 50.0911 216.86C47.5382 208.862 57.2513 214.756 56.1344 211.425C55.0175 208.094 44.1675 193.066 50.0612 191.321C55.9549 189.576 65.9372 205.003 69.8065 207.187C73.6758 209.371 77.0664 196.776 81.6536 202.101C86.2409 207.426 78.9611 226.035 84.8049 229.635C89.1628 232.327 87.9362 224.918 93.6803 226.304C101.449 228.179 98.8261 255.732 89.0731 266.642Z" fill="#EBEBEB"/>
<path d="M68.3007 226.274C70.2813 226.421 72.235 226.82 74.1146 227.461C72.8684 225.589 71.4851 223.813 69.976 222.146C69.895 222.05 69.8531 221.927 69.8589 221.801C69.8646 221.676 69.9174 221.557 70.0069 221.469C70.0963 221.381 70.2158 221.33 70.3413 221.326C70.4669 221.322 70.5893 221.365 70.6841 221.448C73.9368 225.096 76.7208 229.136 78.9711 233.474C81.0952 220.72 75.75 209.541 75.6902 209.461C75.6583 209.373 75.6602 209.276 75.6955 209.189C75.7307 209.103 75.7968 209.032 75.8811 208.991C75.9654 208.95 76.0618 208.942 76.1517 208.968C76.2417 208.994 76.3189 209.052 76.3683 209.132C76.4282 209.252 82.1224 221.149 79.5395 234.532C80.2276 235.838 80.9257 237.244 81.6038 238.75C84.0168 244.118 85.9232 249.701 87.298 255.424C89.7887 250.725 91.1542 245.512 91.287 240.196C91.2883 240.147 91.2991 240.1 91.3189 240.055C91.3386 240.011 91.3669 239.971 91.4021 239.938C91.4373 239.904 91.4787 239.878 91.524 239.861C91.5692 239.844 91.6175 239.836 91.6659 239.837C91.7157 239.838 91.7647 239.849 91.8102 239.869C91.8557 239.89 91.8967 239.919 91.931 239.955C91.9653 239.991 91.9921 240.033 92.0099 240.08C92.0278 240.126 92.0362 240.176 92.0349 240.226C91.9152 245.926 90.3836 251.508 87.5773 256.471C90.1219 267.733 90.9723 279.312 90.1003 290.826C90.0965 290.891 90.0798 290.955 90.0511 291.014C90.0225 291.073 89.9824 291.126 89.9333 291.17C89.8842 291.213 89.827 291.247 89.765 291.268C89.7029 291.289 89.6372 291.298 89.5717 291.294H89.5119C89.3912 291.272 89.2832 291.206 89.2093 291.108C89.1354 291.01 89.101 290.888 89.113 290.766C90.3396 272.815 87.667 258.445 83.9573 247.536C81.8987 245.151 79.0812 243.548 75.9794 242.998C75.8833 242.979 75.7981 242.924 75.7408 242.844C75.6835 242.765 75.6583 242.667 75.6703 242.569C75.6764 242.521 75.6921 242.474 75.7166 242.431C75.7411 242.389 75.7737 242.352 75.8127 242.322C75.8517 242.292 75.8963 242.27 75.9437 242.258C75.9912 242.246 76.0406 242.243 76.0891 242.25C78.8094 242.72 81.3329 243.974 83.349 245.86C81.1939 239.791 78.3427 233.991 74.8525 228.578C72.7493 227.699 70.5153 227.174 68.2409 227.022C68.1421 227.015 68.0502 226.969 67.985 226.894C67.9198 226.82 67.8863 226.722 67.8918 226.623C67.8942 226.573 67.9069 226.524 67.9291 226.479C67.9513 226.433 67.9825 226.393 68.0208 226.361C68.0591 226.328 68.1037 226.303 68.1518 226.289C68.2 226.274 68.2506 226.269 68.3007 226.274Z" fill="#F5F5F5"/>
<path d="M97.7292 270.462C103.324 270.562 112.877 265.366 116.677 260.32C120.476 255.274 109.776 258.326 110.873 254.337C111.97 250.348 125.173 253.29 127.606 247.516C130.04 241.742 120.526 243.078 120.905 240.126C121.284 237.174 131.147 237.783 134.308 231.65C137.469 225.517 128.803 228.957 130.159 226.414C131.516 223.871 142.395 213.181 137.848 210.957C133.301 208.733 123.099 219.862 119.688 221.109C116.278 222.355 115.47 214.657 111.022 218.337C106.575 222.016 109.905 238.092 104.68 240.216C100.781 241.801 102.436 234.432 97.9486 236.297C90.0106 239.558 95.4256 270.412 97.7292 270.462Z" fill="#E0E0E0"/>
<g opacity="0.3">
<path d="M97.7292 270.462C103.324 270.562 112.877 265.366 116.677 260.32C120.476 255.274 109.776 258.326 110.873 254.337C111.97 250.348 125.173 253.29 127.606 247.516C130.04 241.742 120.526 243.078 120.905 240.126C121.284 237.174 131.147 237.783 134.308 231.65C137.469 225.517 128.803 228.957 130.159 226.414C131.516 223.871 142.395 213.181 137.848 210.957C133.301 208.733 123.099 219.862 119.688 221.109C116.278 222.355 115.47 214.657 111.022 218.337C106.575 222.016 109.905 238.092 104.68 240.216C100.781 241.801 102.436 234.432 97.9486 236.297C90.0106 239.558 95.4256 270.412 97.7292 270.462Z" fill="#E0E0E0"/>
</g>
<path d="M99.5441 263.75C99.4596 263.719 99.3889 263.659 99.3447 263.581C97.2125 258.901 96.346 253.743 96.8317 248.622C96.8283 248.568 96.8366 248.514 96.8561 248.463C96.8755 248.413 96.9056 248.367 96.9444 248.329C96.9831 248.291 97.0295 248.261 97.0806 248.243C97.1316 248.224 97.186 248.217 97.2401 248.221C97.2942 248.226 97.3468 248.241 97.3942 248.268C97.4416 248.294 97.4828 248.331 97.515 248.374C97.5472 248.418 97.5696 248.468 97.5808 248.521C97.5919 248.574 97.5915 248.629 97.5796 248.682C97.1618 253.543 97.939 258.431 99.8433 262.923C102.156 256.684 105.005 250.658 108.36 244.913C107.362 232.946 113.525 223.073 113.585 222.973C113.638 222.89 113.722 222.831 113.818 222.81C113.915 222.788 114.016 222.806 114.099 222.859C114.182 222.912 114.241 222.995 114.263 223.092C114.284 223.188 114.266 223.289 114.213 223.372C110.649 229.563 108.858 236.615 109.038 243.756C113.059 236.858 117.857 230.444 123.338 224.639C123.383 224.587 123.439 224.545 123.501 224.516C123.563 224.486 123.63 224.47 123.699 224.468C123.768 224.465 123.836 224.477 123.9 224.503C123.964 224.529 124.021 224.567 124.07 224.616C124.118 224.665 124.155 224.723 124.18 224.787C124.205 224.851 124.216 224.92 124.213 224.989C124.209 225.057 124.192 225.125 124.162 225.186C124.132 225.248 124.089 225.303 124.036 225.347C119.987 229.608 116.332 234.227 113.117 239.149C116.485 237.88 120.058 237.238 123.657 237.254C123.756 237.259 123.849 237.303 123.916 237.375C123.983 237.448 124.019 237.544 124.016 237.643C124.014 237.739 123.974 237.83 123.905 237.897C123.836 237.964 123.744 238.002 123.647 238.002C119.778 237.969 115.941 238.719 112.369 240.206C110.166 243.588 108.135 247.079 106.285 250.667C107.788 249.624 109.499 248.92 111.299 248.604C113.1 248.287 114.949 248.365 116.717 248.832C116.813 248.858 116.895 248.92 116.945 249.006C116.996 249.092 117.01 249.194 116.986 249.291C116.973 249.338 116.951 249.382 116.921 249.421C116.891 249.46 116.854 249.492 116.811 249.516C116.768 249.541 116.721 249.556 116.672 249.562C116.624 249.567 116.574 249.563 116.527 249.55C114.61 249.057 112.602 249.042 110.679 249.509C108.755 249.975 106.976 250.907 105.498 252.222C99.0679 264.968 95.4012 278.928 94.7375 293.189C94.7323 293.318 94.6775 293.439 94.5846 293.529C94.4916 293.618 94.3677 293.668 94.2389 293.668C94.11 293.668 93.9861 293.618 93.8931 293.529C93.8002 293.439 93.7454 293.318 93.7402 293.189C94.1587 283.137 96.1161 273.209 99.5441 263.75Z" fill="#F5F5F5"/>
<path d="M81.9629 325.1C76.6277 315.068 73.1174 300.568 73.1174 294.186C73.1433 291.584 73.7409 289.019 74.8679 286.674C75.995 284.328 77.6239 282.259 79.6394 280.613H106.974C108.989 282.259 110.618 284.328 111.745 286.674C112.872 289.019 113.47 291.584 113.496 294.186C113.496 300.548 109.985 315.048 104.65 325.1H81.9629Z" fill="#F0F0F0"/>
<path d="M244.502 367.691C351.289 367.691 437.857 362.637 437.857 356.402C437.857 350.167 351.289 345.113 244.502 345.113C137.716 345.113 51.1483 350.167 51.1483 356.402C51.1483 362.637 137.716 367.691 244.502 367.691Z" fill="#F5F5F5"/>
<path d="M291.841 64.4631H267.908C267.128 64.4797 266.377 64.7568 265.773 65.2502C265.169 65.7436 264.748 66.4249 264.577 67.1856L264.417 67.9335C264.004 69.789 262.979 71.4517 261.506 72.6544C260.034 73.8572 258.2 74.5301 256.3 74.5651H233.563C231.759 74.6054 230.013 73.9307 228.705 72.6883C227.398 71.4458 226.634 69.7366 226.582 67.9335V67.1856C226.564 66.4467 226.253 65.7452 225.719 65.2349C225.184 64.7246 224.469 64.447 223.73 64.4631H199.796C195.865 64.533 192.096 66.041 189.202 68.7018C186.308 71.3627 184.489 74.9919 184.09 78.9031L164.883 298.834C164.68 300.673 164.871 302.533 165.444 304.293C166.017 306.052 166.958 307.669 168.204 309.036C169.45 310.403 170.974 311.489 172.673 312.222C174.371 312.954 176.207 313.316 178.057 313.284H270.072C274.003 313.211 277.772 311.701 280.666 309.039C283.56 306.376 285.379 302.746 285.778 298.834L305.025 78.9031C305.226 77.0641 305.034 75.2034 304.46 73.4447C303.886 71.686 302.944 70.0697 301.697 68.7035C300.449 67.3373 298.925 66.2525 297.226 65.5214C295.526 64.7902 293.691 64.4294 291.841 64.4631Z" fill="#9C9C9C"/>
<path opacity="0.7" d="M291.841 64.4631H267.908C267.128 64.4797 266.377 64.7568 265.773 65.2502C265.169 65.7436 264.748 66.4249 264.577 67.1856L264.417 67.9335C264.004 69.789 262.979 71.4517 261.506 72.6544C260.034 73.8572 258.2 74.5301 256.3 74.5651H233.563C231.759 74.6054 230.013 73.9307 228.705 72.6883C227.398 71.4458 226.634 69.7366 226.582 67.9335V67.1856C226.564 66.4467 226.253 65.7452 225.719 65.2349C225.184 64.7246 224.469 64.447 223.73 64.4631H199.796C195.865 64.533 192.096 66.041 189.202 68.7018C186.308 71.3627 184.489 74.9919 184.09 78.9031L164.883 298.834C164.68 300.673 164.871 302.533 165.444 304.293C166.017 306.052 166.958 307.669 168.204 309.036C169.45 310.403 170.974 311.489 172.673 312.222C174.371 312.954 176.207 313.316 178.057 313.284H270.072C274.003 313.211 277.772 311.701 280.666 309.039C283.56 306.376 285.379 302.746 285.778 298.834L305.025 78.9031C305.226 77.0641 305.034 75.2034 304.46 73.4447C303.886 71.686 302.944 70.0697 301.697 68.7035C300.449 67.3373 298.925 66.2525 297.226 65.5214C295.526 64.7902 293.691 64.4294 291.841 64.4631Z" fill="white"/>
<path d="M282.517 165.621H233.653C233.241 165.628 232.834 165.547 232.456 165.384C232.079 165.221 231.74 164.98 231.463 164.676C231.186 164.373 230.976 164.014 230.848 163.623C230.72 163.232 230.677 162.819 230.721 162.41L234.4 120.337C234.488 119.467 234.892 118.66 235.535 118.068C236.179 117.476 237.017 117.141 237.891 117.126H286.755C287.167 117.117 287.575 117.197 287.954 117.359C288.332 117.522 288.671 117.763 288.949 118.067C289.226 118.371 289.436 118.731 289.563 119.122C289.69 119.514 289.733 119.928 289.687 120.337L286.007 162.41C285.918 163.279 285.513 164.085 284.87 164.676C284.227 165.268 283.39 165.604 282.517 165.621Z" fill="white"/>
<path d="M266.262 297.18H184.489C183.467 297.199 182.453 296.999 181.514 296.596C180.575 296.192 179.733 295.592 179.044 294.837C178.355 294.082 177.835 293.189 177.519 292.217C177.202 291.246 177.097 290.218 177.209 289.202C177.43 287.042 178.435 285.037 180.034 283.567C181.632 282.097 183.714 281.264 185.885 281.224H267.658C268.68 281.205 269.694 281.404 270.633 281.808C271.572 282.212 272.414 282.811 273.103 283.566C273.791 284.321 274.311 285.214 274.628 286.186C274.944 287.158 275.05 288.186 274.938 289.202C274.719 291.363 273.714 293.368 272.115 294.839C270.517 296.309 268.434 297.142 266.262 297.18Z" fill="white"/>
<path d="M272.774 105.559H197.752C197.177 105.577 196.605 105.469 196.075 105.245C195.545 105.02 195.071 104.684 194.683 104.258C194.296 103.833 194.005 103.329 193.831 102.781C193.656 102.232 193.603 101.653 193.673 101.082L194.282 94.1011C194.408 92.8909 194.972 91.7686 195.869 90.9457C196.765 90.1228 197.932 89.6561 199.148 89.6335H274.17C274.743 89.6231 275.311 89.7347 275.837 89.9608C276.364 90.1869 276.836 90.5224 277.222 90.9449C277.609 91.3674 277.902 91.8673 278.08 92.4115C278.259 92.9556 278.32 93.5316 278.259 94.1011L277.641 101.082C277.517 102.294 276.953 103.418 276.056 104.243C275.16 105.068 273.992 105.536 272.774 105.559Z" fill="white"/>
<path d="M288.032 93.8619C287.998 94.1997 287.841 94.5133 287.591 94.743C287.341 94.9728 287.015 95.1028 286.675 95.1084C286.516 95.1107 286.358 95.0792 286.212 95.0158C286.065 94.9525 285.934 94.8588 285.827 94.741C285.719 94.6232 285.638 94.4839 285.588 94.3323C285.539 94.1808 285.522 94.0204 285.539 93.8619C285.573 93.525 285.73 93.2126 285.981 92.9845C286.231 92.7563 286.556 92.6285 286.895 92.6253C287.054 92.6216 287.212 92.6518 287.358 92.714C287.505 92.7762 287.636 92.8689 287.743 92.986C287.851 93.103 287.933 93.2417 287.982 93.3928C288.032 93.5438 288.049 93.7038 288.032 93.8619Z" fill="white"/>
<path d="M287.703 97.5904C287.671 97.9274 287.516 98.2408 287.268 98.4708C287.019 98.7007 286.695 98.8311 286.356 98.837C286.197 98.8393 286.039 98.8077 285.893 98.7444C285.746 98.681 285.615 98.5874 285.508 98.4695C285.4 98.3517 285.319 98.2124 285.269 98.0609C285.22 97.9093 285.203 97.749 285.22 97.5904C285.251 97.2534 285.406 96.94 285.655 96.7101C285.903 96.4801 286.227 96.3497 286.566 96.3439C286.725 96.3416 286.883 96.3731 287.03 96.4364C287.176 96.4998 287.307 96.5935 287.415 96.7113C287.522 96.8291 287.604 96.9684 287.653 97.1199C287.703 97.2715 287.72 97.4319 287.703 97.5904Z" fill="white"/>
<path d="M287.384 101.313C287.349 101.651 287.193 101.964 286.943 102.194C286.693 102.424 286.367 102.554 286.027 102.56C285.868 102.562 285.71 102.53 285.563 102.467C285.417 102.404 285.286 102.31 285.178 102.192C285.071 102.074 284.99 101.935 284.94 101.784C284.89 101.632 284.874 101.472 284.891 101.313C284.925 100.975 285.082 100.662 285.332 100.432C285.582 100.202 285.907 100.072 286.247 100.067C286.406 100.064 286.564 100.096 286.711 100.159C286.857 100.222 286.988 100.316 287.096 100.434C287.203 100.552 287.284 100.691 287.334 100.843C287.384 100.994 287.401 101.155 287.384 101.313Z" fill="white"/>
<path d="M276.444 235.029H185.167C184.755 235.038 184.347 234.958 183.969 234.795C183.59 234.633 183.251 234.392 182.974 234.088C182.696 233.784 182.487 233.424 182.359 233.033C182.232 232.641 182.19 232.227 182.235 231.818L186.483 183.801C186.571 182.932 186.975 182.124 187.618 181.532C188.261 180.941 189.1 180.605 189.974 180.59H281.221C281.631 180.583 282.039 180.664 282.416 180.827C282.793 180.99 283.131 181.232 283.407 181.535C283.684 181.839 283.892 182.198 284.019 182.589C284.146 182.98 284.188 183.393 284.143 183.801L279.944 231.818C279.856 232.69 279.451 233.498 278.806 234.09C278.16 234.683 277.32 235.017 276.444 235.029Z" fill="white"/>
<path d="M210.277 245.062H181.856C181.756 245.064 181.658 245.045 181.566 245.005C181.474 244.966 181.392 244.908 181.325 244.834C181.258 244.76 181.208 244.673 181.177 244.578C181.147 244.483 181.137 244.383 181.148 244.284C181.168 244.071 181.265 243.874 181.421 243.728C181.578 243.583 181.782 243.5 181.996 243.496H210.417C210.517 243.494 210.617 243.513 210.71 243.553C210.802 243.593 210.885 243.653 210.952 243.728C211.019 243.802 211.069 243.891 211.099 243.987C211.129 244.083 211.138 244.184 211.125 244.284C211.103 244.495 211.005 244.69 210.849 244.834C210.692 244.977 210.489 245.058 210.277 245.062Z" fill="white"/>
<path d="M245.799 245.062H215.293C215.193 245.065 215.093 245.047 215 245.009C214.907 244.97 214.824 244.912 214.756 244.838C214.688 244.764 214.636 244.676 214.605 244.581C214.574 244.485 214.564 244.384 214.575 244.284C214.595 244.071 214.692 243.874 214.849 243.728C215.005 243.583 215.209 243.5 215.423 243.496H245.938C246.039 243.494 246.139 243.513 246.231 243.553C246.324 243.593 246.406 243.653 246.473 243.728C246.541 243.802 246.591 243.891 246.621 243.987C246.651 244.083 246.659 244.184 246.646 244.284C246.625 244.495 246.526 244.69 246.37 244.834C246.214 244.977 246.011 245.058 245.799 245.062Z" fill="white"/>
<path d="M200.445 251.994H181.258C181.157 251.996 181.057 251.976 180.964 251.936C180.871 251.896 180.788 251.837 180.72 251.763C180.652 251.688 180.601 251.6 180.57 251.504C180.538 251.408 180.528 251.306 180.54 251.206C180.561 250.994 180.659 250.797 180.815 250.652C180.971 250.507 181.175 250.424 181.387 250.418H200.614C200.715 250.418 200.814 250.438 200.906 250.479C200.998 250.519 201.08 250.578 201.148 250.652C201.216 250.727 201.267 250.814 201.299 250.91C201.331 251.005 201.342 251.106 201.332 251.206C201.31 251.424 201.206 251.627 201.042 251.772C200.877 251.918 200.664 251.997 200.445 251.994Z" fill="white"/>
<path d="M236.983 251.994H205.491C205.39 251.996 205.289 251.976 205.197 251.936C205.104 251.897 205.021 251.837 204.953 251.763C204.885 251.688 204.834 251.6 204.802 251.504C204.771 251.408 204.761 251.306 204.773 251.206C204.795 250.992 204.894 250.794 205.052 250.649C205.21 250.504 205.416 250.422 205.63 250.418H237.113C237.214 250.416 237.314 250.436 237.407 250.475C237.5 250.515 237.583 250.574 237.651 250.649C237.719 250.724 237.77 250.812 237.801 250.908C237.832 251.004 237.842 251.106 237.831 251.206C237.811 251.419 237.714 251.616 237.558 251.762C237.401 251.907 237.197 251.99 236.983 251.994Z" fill="white"/>
<path d="M231.897 258.913H180.649C180.549 258.917 180.449 258.899 180.356 258.86C180.263 258.821 180.18 258.763 180.112 258.689C180.044 258.615 179.992 258.528 179.961 258.432C179.93 258.336 179.92 258.235 179.931 258.135C179.953 257.922 180.053 257.724 180.211 257.579C180.369 257.434 180.574 257.351 180.789 257.348H232.037C232.137 257.347 232.237 257.368 232.329 257.408C232.421 257.449 232.503 257.508 232.571 257.582C232.639 257.656 232.69 257.744 232.722 257.839C232.753 257.935 232.765 258.036 232.755 258.135C232.731 258.347 232.63 258.543 232.473 258.686C232.315 258.829 232.11 258.91 231.897 258.913Z" fill="white"/>
<path d="M240.334 258.914H236.953C236.853 258.917 236.753 258.899 236.66 258.86C236.567 258.821 236.484 258.763 236.416 258.689C236.348 258.616 236.296 258.528 236.265 258.432C236.234 258.337 236.224 258.236 236.235 258.136C236.255 257.923 236.352 257.725 236.509 257.58C236.665 257.434 236.87 257.352 237.083 257.348H240.474C240.574 257.346 240.674 257.365 240.766 257.405C240.859 257.445 240.941 257.504 241.009 257.579C241.076 257.654 241.126 257.742 241.156 257.838C241.186 257.935 241.195 258.036 241.182 258.136C241.16 258.346 241.061 258.542 240.905 258.685C240.749 258.829 240.546 258.91 240.334 258.914Z" fill="white"/>
<path d="M203.965 265.845H180.031C179.931 265.846 179.831 265.825 179.739 265.785C179.647 265.744 179.565 265.685 179.497 265.611C179.429 265.537 179.378 265.449 179.346 265.354C179.315 265.258 179.303 265.157 179.313 265.058C179.335 264.844 179.434 264.646 179.592 264.501C179.75 264.356 179.956 264.273 180.171 264.27H204.104C204.205 264.268 204.306 264.287 204.398 264.327C204.491 264.367 204.574 264.426 204.642 264.501C204.71 264.575 204.761 264.664 204.793 264.76C204.824 264.856 204.834 264.957 204.822 265.058C204.8 265.271 204.701 265.469 204.543 265.614C204.385 265.759 204.179 265.842 203.965 265.845Z" fill="white"/>
<path d="M238.778 265.845H208.981C208.88 265.846 208.781 265.825 208.689 265.785C208.597 265.744 208.515 265.685 208.447 265.611C208.379 265.537 208.328 265.449 208.296 265.354C208.264 265.258 208.253 265.157 208.263 265.058C208.285 264.844 208.384 264.646 208.542 264.501C208.7 264.356 208.906 264.273 209.121 264.27H238.908C239.009 264.268 239.109 264.287 239.202 264.327C239.295 264.367 239.378 264.426 239.446 264.501C239.514 264.575 239.565 264.664 239.596 264.76C239.627 264.856 239.637 264.957 239.626 265.058C239.604 265.269 239.506 265.466 239.35 265.611C239.194 265.756 238.991 265.839 238.778 265.845Z" fill="white"/>
<path d="M208.901 272.765H179.433C179.332 272.768 179.232 272.748 179.14 272.708C179.048 272.668 178.965 272.609 178.898 272.534C178.831 272.459 178.78 272.371 178.75 272.275C178.72 272.179 178.712 272.077 178.725 271.977C178.747 271.767 178.845 271.571 179.001 271.428C179.157 271.285 179.36 271.203 179.572 271.2H209.031C209.131 271.196 209.231 271.214 209.324 271.253C209.417 271.292 209.5 271.35 209.568 271.424C209.636 271.498 209.688 271.585 209.719 271.681C209.75 271.776 209.76 271.878 209.749 271.977C209.729 272.19 209.632 272.388 209.475 272.533C209.319 272.679 209.115 272.761 208.901 272.765Z" fill="white"/>
<path d="M237.641 272.765H213.907C213.807 272.768 213.707 272.748 213.614 272.708C213.522 272.668 213.439 272.609 213.372 272.534C213.305 272.459 213.255 272.371 213.225 272.275C213.195 272.179 213.186 272.077 213.199 271.977C213.221 271.767 213.319 271.571 213.476 271.428C213.632 271.285 213.835 271.203 214.047 271.2H237.781C237.882 271.196 237.982 271.214 238.074 271.253C238.167 271.292 238.25 271.35 238.319 271.424C238.387 271.498 238.438 271.585 238.469 271.681C238.5 271.776 238.511 271.878 238.499 271.977C238.477 272.191 238.378 272.389 238.22 272.534C238.062 272.679 237.856 272.762 237.641 272.765Z" fill="white"/>
<path d="M281.36 161.635C281.274 161.734 281.168 161.816 281.05 161.874C280.932 161.932 280.803 161.967 280.671 161.975C280.539 161.984 280.407 161.966 280.283 161.923C280.158 161.88 280.043 161.812 279.944 161.724L239.127 122.772C238.942 122.585 238.837 122.333 238.837 122.069C238.837 121.806 238.942 121.553 239.127 121.366C239.214 121.267 239.32 121.185 239.438 121.127C239.556 121.068 239.685 121.034 239.817 121.025C239.948 121.017 240.08 121.035 240.205 121.078C240.33 121.121 240.445 121.189 240.543 121.276L281.36 160.228C281.546 160.415 281.65 160.668 281.65 160.931C281.65 161.195 281.546 161.448 281.36 161.635Z" fill="#9C9C9C"/>
<path d="M235.517 161.623C235.436 161.517 235.377 161.396 235.344 161.267C235.31 161.138 235.303 161.003 235.322 160.871C235.342 160.739 235.388 160.612 235.457 160.498C235.527 160.384 235.618 160.285 235.727 160.207L256.549 143.184C256.747 143.013 257.004 142.927 257.266 142.943C257.527 142.96 257.771 143.079 257.945 143.274C258.025 143.38 258.083 143.5 258.115 143.629C258.148 143.757 258.155 143.89 258.135 144.021C258.116 144.152 258.07 144.278 258.002 144.391C257.933 144.504 257.843 144.602 257.736 144.68L236.913 161.713C236.716 161.884 236.458 161.971 236.197 161.954C235.936 161.937 235.692 161.819 235.517 161.623Z" fill="#9C9C9C"/>
<path d="M262.423 139.616C262.343 139.51 262.285 139.39 262.253 139.262C262.22 139.133 262.213 139 262.233 138.869C262.252 138.738 262.298 138.613 262.366 138.499C262.435 138.386 262.525 138.288 262.632 138.21L283.494 121.157C283.692 120.986 283.95 120.899 284.211 120.916C284.472 120.933 284.716 121.052 284.89 121.247C284.97 121.353 285.028 121.473 285.06 121.601C285.093 121.729 285.1 121.863 285.08 121.994C285.061 122.125 285.015 122.25 284.947 122.364C284.878 122.477 284.788 122.575 284.681 122.653L263.819 139.706C263.621 139.877 263.364 139.964 263.102 139.947C262.841 139.93 262.597 139.811 262.423 139.616Z" fill="#9C9C9C"/>
<g opacity="0.7">
<path d="M281.36 161.635C281.274 161.734 281.168 161.816 281.05 161.874C280.932 161.932 280.803 161.967 280.671 161.975C280.539 161.984 280.407 161.966 280.283 161.923C280.158 161.88 280.043 161.812 279.944 161.724L239.127 122.772C238.942 122.585 238.837 122.333 238.837 122.069C238.837 121.806 238.942 121.553 239.127 121.366C239.214 121.267 239.32 121.185 239.438 121.127C239.556 121.068 239.685 121.034 239.817 121.025C239.948 121.017 240.08 121.035 240.205 121.078C240.33 121.121 240.445 121.189 240.543 121.276L281.36 160.228C281.546 160.415 281.65 160.668 281.65 160.931C281.65 161.195 281.546 161.448 281.36 161.635Z" fill="white"/>
</g>
<g opacity="0.7">
<path d="M235.517 161.623C235.436 161.517 235.377 161.396 235.344 161.267C235.31 161.138 235.303 161.003 235.322 160.871C235.342 160.739 235.388 160.612 235.457 160.498C235.527 160.384 235.618 160.285 235.727 160.207L256.549 143.184C256.747 143.013 257.004 142.927 257.266 142.943C257.527 142.96 257.771 143.079 257.945 143.274C258.025 143.38 258.083 143.5 258.115 143.629C258.148 143.757 258.155 143.89 258.135 144.021C258.116 144.152 258.07 144.278 258.002 144.391C257.933 144.504 257.843 144.602 257.736 144.68L236.913 161.713C236.716 161.884 236.458 161.971 236.197 161.954C235.936 161.937 235.692 161.819 235.517 161.623Z" fill="white"/>
</g>
<g opacity="0.7">
<path d="M262.423 139.616C262.343 139.51 262.285 139.39 262.253 139.262C262.22 139.133 262.213 139 262.233 138.869C262.252 138.738 262.298 138.613 262.366 138.499C262.435 138.386 262.525 138.288 262.632 138.21L283.494 121.157C283.692 120.986 283.95 120.899 284.211 120.916C284.472 120.933 284.716 121.052 284.89 121.247C284.97 121.353 285.028 121.473 285.06 121.601C285.093 121.729 285.1 121.863 285.08 121.994C285.061 122.125 285.015 122.25 284.947 122.364C284.878 122.477 284.788 122.575 284.681 122.653L263.819 139.706C263.621 139.877 263.364 139.964 263.102 139.947C262.841 139.93 262.597 139.811 262.423 139.616Z" fill="white"/>
</g>
<path d="M165.282 59.6758H152.318C151.062 59.6811 149.86 60.1835 148.974 61.0732C148.088 61.9628 147.591 63.1672 147.591 64.4227V77.3868C147.591 78.6457 148.091 79.8531 148.981 80.7433C149.871 81.6335 151.079 82.1336 152.338 82.1336H165.302C166.561 82.1336 167.768 81.6335 168.658 80.7433C169.549 79.8531 170.049 78.6457 170.049 77.3868V64.4227C170.049 63.7976 169.925 63.1787 169.685 62.6015C169.446 62.0243 169.094 61.5001 168.651 61.0591C168.208 60.618 167.683 60.2688 167.105 60.0314C166.526 59.794 165.907 59.6732 165.282 59.6758ZM158.83 64.2631C160.774 64.2631 161.822 65.8487 161.822 67.7933C161.822 69.7379 160.774 71.3235 158.83 71.3235C156.885 71.3235 155.838 69.7479 155.838 67.7933C155.838 65.8388 156.875 64.2631 158.83 64.2631ZM166.618 77.4965H151.031C150.968 77.4966 150.906 77.4843 150.848 77.4604C150.79 77.4364 150.737 77.4012 150.692 77.3568L151.69 74.6344C152.001 73.7758 152.569 73.0339 153.316 72.5094C154.064 71.9848 154.955 71.7031 155.868 71.7025H161.762C162.676 71.7025 163.569 71.9838 164.318 72.5083C165.067 73.0328 165.637 73.775 165.95 74.6344L166.947 77.3568C166.905 77.4009 166.853 77.436 166.797 77.46C166.74 77.484 166.68 77.4964 166.618 77.4965Z" fill="#9C9C9C"/>
<path opacity="0.7" d="M165.282 59.6758H152.318C151.062 59.6811 149.86 60.1835 148.974 61.0732C148.088 61.9628 147.591 63.1672 147.591 64.4227V77.3868C147.591 78.6457 148.091 79.8531 148.981 80.7433C149.871 81.6335 151.079 82.1336 152.338 82.1336H165.302C166.561 82.1336 167.768 81.6335 168.658 80.7433C169.549 79.8531 170.049 78.6457 170.049 77.3868V64.4227C170.049 63.7976 169.925 63.1787 169.685 62.6015C169.446 62.0243 169.094 61.5001 168.651 61.0591C168.208 60.618 167.683 60.2688 167.105 60.0314C166.526 59.794 165.907 59.6732 165.282 59.6758ZM158.83 64.2631C160.774 64.2631 161.822 65.8487 161.822 67.7933C161.822 69.7379 160.774 71.3235 158.83 71.3235C156.885 71.3235 155.838 69.7479 155.838 67.7933C155.838 65.8388 156.875 64.2631 158.83 64.2631ZM166.618 77.4965H151.031C150.968 77.4966 150.906 77.4843 150.848 77.4604C150.79 77.4364 150.737 77.4012 150.692 77.3568L151.69 74.6344C152.001 73.7758 152.569 73.0339 153.316 72.5094C154.064 71.9848 154.955 71.7031 155.868 71.7025H161.762C162.676 71.7025 163.569 71.9838 164.318 72.5083C165.067 73.0328 165.637 73.775 165.95 74.6344L166.947 77.3568C166.905 77.4009 166.853 77.436 166.797 77.46C166.74 77.484 166.68 77.4964 166.618 77.4965Z" fill="white"/>
<path d="M119.329 112.809H109.516C108.677 112.807 107.846 112.971 107.071 113.292C106.295 113.612 105.591 114.082 104.997 114.674C104.403 115.267 103.932 115.971 103.611 116.746C103.29 117.521 103.124 118.352 103.124 119.191V129.004C103.124 130.699 103.798 132.325 104.996 133.524C106.195 134.723 107.821 135.396 109.516 135.396H119.329C120.168 135.396 120.999 135.231 121.774 134.909C122.549 134.588 123.253 134.117 123.846 133.523C124.439 132.929 124.908 132.225 125.229 131.449C125.549 130.674 125.713 129.843 125.712 129.004V119.191C125.713 118.352 125.549 117.522 125.228 116.747C124.908 115.972 124.438 115.268 123.845 114.675C123.252 114.082 122.548 113.612 121.773 113.292C120.998 112.971 120.168 112.807 119.329 112.809ZM114.423 129.452C114.423 129.452 110.434 125.075 110.434 122.841C110.434 121.771 110.859 120.745 111.615 119.988C112.372 119.232 113.398 118.807 114.468 118.807C115.538 118.807 116.564 119.232 117.32 119.988C118.077 120.745 118.502 121.771 118.502 122.841C118.452 125.075 114.423 129.452 114.423 129.452Z" fill="#9C9C9C"/>
<path d="M114.423 121.004C114.057 121.002 113.699 121.109 113.394 121.311C113.089 121.513 112.851 121.801 112.71 122.138C112.57 122.476 112.532 122.847 112.603 123.206C112.674 123.565 112.85 123.895 113.108 124.153C113.367 124.412 113.697 124.588 114.056 124.659C114.414 124.73 114.786 124.692 115.124 124.551C115.461 124.41 115.749 124.172 115.951 123.868C116.153 123.563 116.26 123.205 116.258 122.839C116.258 122.352 116.065 121.885 115.72 121.541C115.376 121.197 114.91 121.004 114.423 121.004Z" fill="#9C9C9C"/>
<g opacity="0.7">
<path d="M119.329 112.809H109.516C108.677 112.807 107.846 112.971 107.071 113.292C106.295 113.612 105.591 114.082 104.997 114.674C104.403 115.267 103.932 115.971 103.611 116.746C103.29 117.521 103.124 118.352 103.124 119.191V129.004C103.124 130.699 103.798 132.325 104.996 133.524C106.195 134.723 107.821 135.396 109.516 135.396H119.329C120.168 135.396 120.999 135.231 121.774 134.909C122.549 134.588 123.253 134.117 123.846 133.523C124.439 132.929 124.908 132.225 125.229 131.449C125.549 130.674 125.713 129.843 125.712 129.004V119.191C125.713 118.352 125.549 117.522 125.228 116.747C124.908 115.972 124.438 115.268 123.845 114.675C123.252 114.082 122.548 113.612 121.773 113.292C120.998 112.971 120.168 112.807 119.329 112.809ZM114.423 129.452C114.423 129.452 110.434 125.075 110.434 122.841C110.434 121.771 110.859 120.745 111.615 119.988C112.372 119.232 113.398 118.807 114.468 118.807C115.538 118.807 116.564 119.232 117.32 119.988C118.077 120.745 118.502 121.771 118.502 122.841C118.452 125.075 114.423 129.452 114.423 129.452Z" fill="white"/>
<path d="M114.423 121.004C114.057 121.002 113.699 121.109 113.394 121.311C113.089 121.513 112.851 121.801 112.71 122.138C112.57 122.476 112.532 122.847 112.603 123.206C112.674 123.565 112.85 123.895 113.108 124.153C113.367 124.412 113.697 124.588 114.056 124.659C114.414 124.73 114.786 124.692 115.124 124.551C115.461 124.41 115.749 124.172 115.951 123.868C116.153 123.563 116.26 123.205 116.258 122.839C116.258 122.352 116.065 121.885 115.72 121.541C115.376 121.197 114.91 121.004 114.423 121.004Z" fill="white"/>
</g>
<path d="M334.772 84.9947L341.344 80.7465L334.772 76.4883V84.9947Z" fill="#9C9C9C"/>
<path d="M343.239 69.1484H330.714C329.299 69.1484 327.941 69.7106 326.941 70.7111C325.94 71.7116 325.378 73.0687 325.378 74.4837V87.009C325.381 88.4231 325.944 89.7786 326.944 90.7786C327.944 91.7786 329.299 92.3415 330.714 92.3442H343.239C344.654 92.3442 346.011 91.7821 347.011 90.7815C348.012 89.781 348.574 88.4239 348.574 87.009V74.4837C348.575 73.7827 348.438 73.0883 348.171 72.4404C347.903 71.7925 347.51 71.2038 347.014 70.7082C346.519 70.2125 345.93 69.8195 345.282 69.5519C344.634 69.2842 343.94 69.1471 343.239 69.1484ZM336.976 89.0932C335.325 89.0932 333.711 88.6034 332.338 87.6858C330.965 86.7682 329.895 85.464 329.264 83.9382C328.632 82.4124 328.468 80.7337 328.79 79.1143C329.113 77.4948 329.909 76.0076 331.078 74.8407C332.246 73.6737 333.734 72.8796 335.354 72.5586C336.974 72.2377 338.652 72.4044 340.177 73.0377C341.702 73.671 343.005 74.7423 343.921 76.1163C344.837 77.4902 345.325 79.105 345.323 80.7563C345.322 81.8511 345.105 82.9349 344.685 83.9459C344.264 84.9569 343.649 85.8752 342.874 86.6484C342.099 87.4217 341.179 88.0347 340.167 88.4524C339.155 88.8702 338.071 89.0845 336.976 89.0832V89.0932Z" fill="#9C9C9C"/>
<g opacity="0.7">
<path d="M334.772 84.9947L341.344 80.7465L334.772 76.4883V84.9947Z" fill="white"/>
<path d="M343.239 69.1484H330.714C329.299 69.1484 327.941 69.7106 326.941 70.7111C325.94 71.7116 325.378 73.0687 325.378 74.4837V87.009C325.381 88.4231 325.944 89.7786 326.944 90.7786C327.944 91.7786 329.299 92.3415 330.714 92.3442H343.239C344.654 92.3442 346.011 91.7821 347.011 90.7815C348.012 89.781 348.574 88.4239 348.574 87.009V74.4837C348.575 73.7827 348.438 73.0883 348.171 72.4404C347.903 71.7925 347.51 71.2038 347.014 70.7082C346.519 70.2125 345.93 69.8195 345.282 69.5519C344.634 69.2842 343.94 69.1471 343.239 69.1484ZM336.976 89.0932C335.325 89.0932 333.711 88.6034 332.338 87.6858C330.965 86.7682 329.895 85.464 329.264 83.9382C328.632 82.4124 328.468 80.7337 328.79 79.1143C329.113 77.4948 329.909 76.0076 331.078 74.8407C332.246 73.6737 333.734 72.8796 335.354 72.5586C336.974 72.2377 338.652 72.4044 340.177 73.0377C341.702 73.671 343.005 74.7423 343.921 76.1163C344.837 77.4902 345.325 79.105 345.323 80.7563C345.322 81.8511 345.105 82.9349 344.685 83.9459C344.264 84.9569 343.649 85.8752 342.874 86.6484C342.099 87.4217 341.179 88.0347 340.167 88.4524C339.155 88.8702 338.071 89.0845 336.976 89.0832V89.0932Z" fill="white"/>
</g>
<path d="M355.535 117.184C355.535 116.925 355.535 116.665 355.535 116.416L357.041 115.578C356.931 114.865 356.744 114.166 356.482 113.494H354.767C354.549 113.026 354.288 112.579 353.989 112.158L354.877 110.692C354.422 110.129 353.91 109.615 353.351 109.156L351.875 110.044C351.456 109.75 351.012 109.493 350.549 109.276V107.551C349.874 107.296 349.176 107.109 348.464 106.992L347.627 108.498C347.377 108.498 347.118 108.498 346.859 108.498C346.599 108.498 346.35 108.498 346.091 108.498L345.253 106.992C344.542 107.111 343.844 107.298 343.169 107.551V109.276C342.704 109.491 342.26 109.748 341.843 110.044L340.367 109.156C339.801 109.612 339.287 110.127 338.831 110.692L339.719 112.158C339.426 112.581 339.169 113.028 338.951 113.494H337.235C336.975 114.168 336.785 114.866 336.667 115.578L338.173 116.416C338.173 116.665 338.173 116.925 338.173 117.184C338.173 117.443 338.173 117.703 338.173 117.952L336.667 118.789C336.783 119.502 336.974 120.201 337.235 120.874H338.951C339.169 121.34 339.426 121.787 339.719 122.21L338.831 123.686C339.289 124.246 339.804 124.757 340.367 125.212L341.843 124.324C342.258 124.624 342.702 124.881 343.169 125.092V126.817C343.843 127.074 344.541 127.261 345.253 127.376L346.091 125.87C346.35 125.87 346.599 125.87 346.859 125.87C347.118 125.87 347.377 125.87 347.627 125.87L348.464 127.376C349.177 127.264 349.876 127.077 350.549 126.817V125.092C351.014 124.879 351.458 124.622 351.875 124.324L353.351 125.212C353.908 124.754 354.419 124.243 354.877 123.686L353.989 122.21C354.288 121.789 354.549 121.342 354.767 120.874H356.482C356.745 120.202 356.932 119.503 357.041 118.789L355.535 117.952C355.515 117.673 355.535 117.443 355.535 117.184ZM346.839 123.088C345.671 123.088 344.53 122.741 343.559 122.093C342.588 121.444 341.831 120.522 341.385 119.443C340.938 118.364 340.821 117.177 341.049 116.032C341.276 114.887 341.839 113.835 342.664 113.009C343.49 112.184 344.542 111.622 345.687 111.394C346.832 111.166 348.019 111.283 349.098 111.73C350.177 112.177 351.099 112.933 351.747 113.904C352.396 114.875 352.742 116.016 352.742 117.184C352.742 118.75 352.12 120.251 351.013 121.358C349.906 122.466 348.405 123.088 346.839 123.088Z" fill="#9C9C9C"/>
<path opacity="0.7" d="M355.535 117.184C355.535 116.925 355.535 116.665 355.535 116.416L357.041 115.578C356.931 114.865 356.744 114.166 356.482 113.494H354.767C354.549 113.026 354.288 112.579 353.989 112.158L354.877 110.692C354.422 110.129 353.91 109.615 353.351 109.156L351.875 110.044C351.456 109.75 351.012 109.493 350.549 109.276V107.551C349.874 107.296 349.176 107.109 348.464 106.992L347.627 108.498C347.377 108.498 347.118 108.498 346.859 108.498C346.599 108.498 346.35 108.498 346.091 108.498L345.253 106.992C344.542 107.111 343.844 107.298 343.169 107.551V109.276C342.704 109.491 342.26 109.748 341.843 110.044L340.367 109.156C339.801 109.612 339.287 110.127 338.831 110.692L339.719 112.158C339.426 112.581 339.169 113.028 338.951 113.494H337.235C336.975 114.168 336.785 114.866 336.667 115.578L338.173 116.416C338.173 116.665 338.173 116.925 338.173 117.184C338.173 117.443 338.173 117.703 338.173 117.952L336.667 118.789C336.783 119.502 336.974 120.201 337.235 120.874H338.951C339.169 121.34 339.426 121.787 339.719 122.21L338.831 123.686C339.289 124.246 339.804 124.757 340.367 125.212L341.843 124.324C342.258 124.624 342.702 124.881 343.169 125.092V126.817C343.843 127.074 344.541 127.261 345.253 127.376L346.091 125.87C346.35 125.87 346.599 125.87 346.859 125.87C347.118 125.87 347.377 125.87 347.627 125.87L348.464 127.376C349.177 127.264 349.876 127.077 350.549 126.817V125.092C351.014 124.879 351.458 124.622 351.875 124.324L353.351 125.212C353.908 124.754 354.419 124.243 354.877 123.686L353.989 122.21C354.288 121.789 354.549 121.342 354.767 120.874H356.482C356.745 120.202 356.932 119.503 357.041 118.789L355.535 117.952C355.515 117.673 355.535 117.443 355.535 117.184ZM346.839 123.088C345.671 123.088 344.53 122.741 343.559 122.093C342.588 121.444 341.831 120.522 341.385 119.443C340.938 118.364 340.821 117.177 341.049 116.032C341.276 114.887 341.839 113.835 342.664 113.009C343.49 112.184 344.542 111.622 345.687 111.394C346.832 111.166 348.019 111.283 349.098 111.73C350.177 112.177 351.099 112.933 351.747 113.904C352.396 114.875 352.742 116.016 352.742 117.184C352.742 118.75 352.12 120.251 351.013 121.358C349.906 122.466 348.405 123.088 346.839 123.088Z" fill="white"/>
<path d="M332.808 146.831C332.808 146.442 332.808 146.063 332.758 145.684L335.012 144.437C334.842 143.367 334.561 142.318 334.174 141.306L331.601 141.356C331.276 140.658 330.889 139.99 330.444 139.361L331.771 137.157C331.091 136.319 330.326 135.553 329.487 134.874L327.283 136.19C326.652 135.752 325.985 135.369 325.289 135.043V132.47C324.281 132.082 323.234 131.801 322.167 131.633L320.921 133.887C320.542 133.887 320.163 133.887 319.774 133.887C319.385 133.887 319.006 133.887 318.627 133.887L317.41 131.633C316.344 131.804 315.298 132.084 314.289 132.47V135.043C313.593 135.368 312.926 135.752 312.295 136.19L310.141 134.874C309.298 135.553 308.53 136.318 307.847 137.157L309.173 139.361C308.732 139.99 308.348 140.658 308.026 141.356L305.454 141.306C305.062 142.316 304.781 143.366 304.616 144.437L306.87 145.684C306.79 146.446 306.79 147.215 306.87 147.978L304.616 149.234C304.782 150.302 305.063 151.348 305.454 152.355L308.026 152.306C308.346 153.005 308.73 153.672 309.173 154.3L307.847 156.504C308.53 157.343 309.298 158.108 310.141 158.788L312.344 157.471C312.973 157.913 313.641 158.297 314.339 158.618V161.191C315.346 161.582 316.393 161.863 317.46 162.029L318.717 159.775C319.479 159.855 320.248 159.855 321.01 159.775L322.257 162.029C323.325 161.865 324.372 161.584 325.378 161.191V158.618C326.076 158.297 326.744 157.913 327.373 157.471L329.577 158.788C330.416 158.108 331.181 157.343 331.86 156.504L330.534 154.3C330.981 153.673 331.368 153.005 331.691 152.306L334.264 152.355C334.65 151.347 334.931 150.301 335.101 149.234L332.848 147.978C332.788 147.589 332.808 147.22 332.808 146.831ZM319.844 151.956C318.83 151.956 317.839 151.656 316.996 151.093C316.153 150.529 315.496 149.729 315.108 148.792C314.72 147.856 314.619 146.825 314.816 145.831C315.014 144.836 315.502 143.923 316.219 143.206C316.936 142.489 317.849 142.001 318.844 141.803C319.838 141.606 320.869 141.707 321.805 142.095C322.742 142.483 323.542 143.14 324.106 143.983C324.669 144.826 324.969 145.817 324.969 146.831C324.969 147.506 324.836 148.175 324.576 148.799C324.317 149.423 323.937 149.989 323.458 150.466C322.978 150.942 322.41 151.319 321.784 151.575C321.159 151.831 320.489 151.96 319.814 151.956H319.844Z" fill="#9C9C9C"/>
<path opacity="0.7" d="M332.808 146.831C332.808 146.442 332.808 146.063 332.758 145.684L335.012 144.437C334.842 143.367 334.561 142.318 334.174 141.306L331.601 141.356C331.276 140.658 330.889 139.99 330.444 139.361L331.771 137.157C331.091 136.319 330.326 135.553 329.487 134.874L327.283 136.19C326.652 135.752 325.985 135.369 325.289 135.043V132.47C324.281 132.082 323.234 131.801 322.167 131.633L320.921 133.887C320.542 133.887 320.163 133.887 319.774 133.887C319.385 133.887 319.006 133.887 318.627 133.887L317.41 131.633C316.344 131.804 315.298 132.084 314.289 132.47V135.043C313.593 135.368 312.926 135.752 312.295 136.19L310.141 134.874C309.298 135.553 308.53 136.318 307.847 137.157L309.173 139.361C308.732 139.99 308.348 140.658 308.026 141.356L305.454 141.306C305.062 142.316 304.781 143.366 304.616 144.437L306.87 145.684C306.79 146.446 306.79 147.215 306.87 147.978L304.616 149.234C304.782 150.302 305.063 151.348 305.454 152.355L308.026 152.306C308.346 153.005 308.73 153.672 309.173 154.3L307.847 156.504C308.53 157.343 309.298 158.108 310.141 158.788L312.344 157.471C312.973 157.913 313.641 158.297 314.339 158.618V161.191C315.346 161.582 316.393 161.863 317.46 162.029L318.717 159.775C319.479 159.855 320.248 159.855 321.01 159.775L322.257 162.029C323.325 161.865 324.372 161.584 325.378 161.191V158.618C326.076 158.297 326.744 157.913 327.373 157.471L329.577 158.788C330.416 158.108 331.181 157.343 331.86 156.504L330.534 154.3C330.981 153.673 331.368 153.005 331.691 152.306L334.264 152.355C334.65 151.347 334.931 150.301 335.101 149.234L332.848 147.978C332.788 147.589 332.808 147.22 332.808 146.831ZM319.844 151.956C318.83 151.956 317.839 151.656 316.996 151.093C316.153 150.529 315.496 149.729 315.108 148.792C314.72 147.856 314.619 146.825 314.816 145.831C315.014 144.836 315.502 143.923 316.219 143.206C316.936 142.489 317.849 142.001 318.844 141.803C319.838 141.606 320.869 141.707 321.805 142.095C322.742 142.483 323.542 143.14 324.106 143.983C324.669 144.826 324.969 145.817 324.969 146.831C324.969 147.506 324.836 148.175 324.576 148.799C324.317 149.423 323.937 149.989 323.458 150.466C322.978 150.942 322.41 151.319 321.784 151.575C321.159 151.831 320.489 151.96 319.814 151.956H319.844Z" fill="white"/>
<path d="M296.179 89.0126V94.2381L291.193 96.8608C290.999 96.9649 290.837 97.1195 290.724 97.3082C290.611 97.497 290.552 97.7129 290.552 97.9329C290.552 98.1528 290.611 98.3687 290.724 98.5575C290.837 98.7462 290.999 98.9009 291.193 99.0049L296.179 101.628V106.853C296.179 107.411 296.401 107.946 296.795 108.341C297.19 108.736 297.725 108.957 298.283 108.957H316.124C316.683 108.957 317.219 108.736 317.615 108.342C318.011 107.947 318.235 107.412 318.238 106.853V89.0126C318.238 88.4519 318.015 87.9141 317.619 87.5177C317.222 87.1212 316.685 86.8984 316.124 86.8984H298.253C297.699 86.9063 297.17 87.1328 296.781 87.5288C296.393 87.9247 296.176 88.4579 296.179 89.0126Z" fill="#9C9C9C"/>
<g opacity="0.9">
<path d="M302.282 94.4579H312.424C312.755 94.4579 313.072 94.3266 313.306 94.0928C313.539 93.8591 313.671 93.542 313.671 93.2114C313.671 92.8808 313.539 92.5637 313.306 92.33C313.072 92.0962 312.755 91.9648 312.424 91.9648H302.282C301.952 91.9648 301.635 92.0962 301.401 92.33C301.167 92.5637 301.036 92.8808 301.036 93.2114C301.036 93.542 301.167 93.8591 301.401 94.0928C301.635 94.3266 301.952 94.4579 302.282 94.4579Z" fill="white"/>
<path d="M312.424 96.7305H302.282C301.952 96.7305 301.635 96.8618 301.401 97.0956C301.167 97.3293 301.036 97.6464 301.036 97.977C301.036 98.3076 301.167 98.6247 301.401 98.8585C301.635 99.0922 301.952 99.2236 302.282 99.2236H312.424C312.755 99.2236 313.072 99.0922 313.306 98.8585C313.539 98.6247 313.671 98.3076 313.671 97.977C313.671 97.6464 313.539 97.3293 313.306 97.0956C313.072 96.8618 312.755 96.7305 312.424 96.7305Z" fill="white"/>
<path d="M312.424 101.41H302.282C301.952 101.41 301.635 101.541 301.401 101.775C301.167 102.009 301.036 102.326 301.036 102.657C301.036 102.987 301.167 103.304 301.401 103.538C301.635 103.772 301.952 103.903 302.282 103.903H312.424C312.755 103.903 313.072 103.772 313.306 103.538C313.539 103.304 313.671 102.987 313.671 102.657C313.671 102.326 313.539 102.009 313.306 101.775C313.072 101.541 312.755 101.41 312.424 101.41Z" fill="white"/>
</g>
<path d="M195.359 80.7768H199.617L201.811 84.9353C201.955 85.2064 202.171 85.4331 202.434 85.5912C202.698 85.7493 202.999 85.8328 203.307 85.8328C203.614 85.8328 203.915 85.7493 204.179 85.5912C204.442 85.4331 204.658 85.2064 204.802 84.9353L206.996 80.7768H211.255C211.659 80.7768 212.059 80.697 212.432 80.5421C212.806 80.3871 213.145 80.1599 213.43 79.8737C213.715 79.5874 213.941 79.2476 214.095 78.8738C214.249 78.5 214.327 78.0995 214.326 77.6954V61.8293C214.326 61.0147 214.002 60.2335 213.426 59.6575C212.85 59.0814 212.069 58.7578 211.255 58.7578H195.359C194.955 58.7565 194.555 58.8351 194.182 58.989C193.808 59.1428 193.469 59.369 193.184 59.6545C192.898 59.94 192.672 60.2791 192.518 60.6524C192.364 61.0256 192.286 61.4256 192.287 61.8293V77.7851C192.308 78.5858 192.641 79.3467 193.214 79.9056C193.788 80.4645 194.558 80.7771 195.359 80.7768Z" fill="#9C9C9C"/>
<path opacity="0.9" d="M203.317 63.5156L198.41 66.3877V74.7844H202.06V69.15H204.583V74.7844H208.233V66.3877L203.317 63.5156Z" fill="white"/>
<path d="M243.126 308.934H239.337L236.893 304.287C236.772 304.062 236.592 303.874 236.373 303.743C236.153 303.612 235.903 303.543 235.647 303.543C235.391 303.543 235.14 303.612 234.921 303.743C234.702 303.874 234.522 304.062 234.4 304.287L231.957 308.934H228.068C227.14 308.934 226.249 309.303 225.593 309.96C224.936 310.616 224.568 311.506 224.568 312.435V327.493C224.568 328.421 224.936 329.312 225.593 329.968C226.249 330.624 227.14 330.993 228.068 330.993H243.126C244.055 330.993 244.945 330.624 245.601 329.968C246.258 329.312 246.626 328.421 246.626 327.493V312.435C246.626 311.506 246.258 310.616 245.601 309.96C244.945 309.303 244.055 308.934 243.126 308.934Z" fill="#9C9C9C"/>
<path opacity="0.9" d="M237.731 314.69C237 313.958 236.075 313.45 235.066 313.224C234.056 312.999 233.003 313.066 232.03 313.418C231.057 313.769 230.204 314.39 229.572 315.209C228.939 316.027 228.553 317.009 228.458 318.039C228.363 319.069 228.564 320.105 229.036 321.025C229.509 321.946 230.233 322.712 231.126 323.236C232.018 323.759 233.041 324.017 234.075 323.98C235.109 323.943 236.111 323.612 236.963 323.026C237.005 323.274 237.119 323.503 237.292 323.685L240.683 327.065C240.912 327.294 241.222 327.423 241.546 327.423C241.869 327.423 242.179 327.294 242.408 327.065C242.637 326.836 242.765 326.526 242.765 326.203C242.765 325.879 242.637 325.569 242.408 325.34L239.028 321.959C238.846 321.779 238.612 321.661 238.359 321.62C239.076 320.572 239.406 319.307 239.291 318.042C239.176 316.777 238.625 315.592 237.731 314.69ZM236.574 321.241C236.04 321.775 235.359 322.138 234.619 322.285C233.878 322.432 233.11 322.356 232.413 322.067C231.715 321.778 231.119 321.288 230.699 320.66C230.28 320.032 230.056 319.294 230.056 318.539C230.056 317.784 230.28 317.045 230.699 316.417C231.119 315.789 231.715 315.3 232.413 315.011C233.11 314.721 233.878 314.646 234.619 314.793C235.359 314.939 236.04 315.303 236.574 315.836C236.93 316.191 237.211 316.612 237.404 317.076C237.596 317.54 237.695 318.037 237.695 318.539C237.695 319.041 237.596 319.538 237.404 320.002C237.211 320.465 236.93 320.887 236.574 321.241Z" fill="white"/>
<path d="M404.17 208.65C404.17 208.65 396.043 228.794 388.085 230.968C380.127 233.142 368.14 231.377 368.14 231.377L364.43 232.374L360.79 231.835H360.661L356.562 231.736C356.414 231.748 356.266 231.718 356.135 231.649C356.003 231.579 355.895 231.474 355.821 231.345C355.748 231.216 355.713 231.069 355.72 230.921C355.728 230.773 355.778 230.63 355.864 230.509L357.33 228.515C357.453 228.351 357.624 228.229 357.818 228.165L361.728 226.909C361.882 226.875 362.042 226.875 362.196 226.909L368.18 227.856C368.18 227.856 384.784 225.134 386.479 223.598C388.174 222.062 393.171 205.957 393.171 205.957L404.17 208.65Z" fill="#EEC1BB"/>
<path opacity="0.1" d="M368.549 227.726L368.16 227.786L362.176 226.838C362.022 226.804 361.862 226.804 361.708 226.838L357.798 228.095C357.604 228.158 357.433 228.28 357.31 228.444L355.844 230.438C355.758 230.559 355.708 230.702 355.7 230.85C355.693 230.998 355.728 231.146 355.801 231.274C355.875 231.403 355.983 231.509 356.115 231.578C356.246 231.647 356.394 231.677 356.542 231.665L360.641 231.765H360.77L363.213 232.124C365.297 231.074 367.12 229.571 368.549 227.726Z" fill="black"/>
<path d="M409.076 188.694C403.173 186.759 394.866 191.197 391.685 209.785L403.941 213.405C403.941 213.405 417.513 191.466 409.076 188.694Z" fill="#9C9C9C"/>
<path d="M374.731 164.404C374.731 165.022 375.061 165.511 375.459 165.511C375.858 165.511 376.207 164.982 376.177 164.384C376.148 163.786 375.848 163.287 375.449 163.297C375.051 163.307 374.731 163.796 374.731 164.404Z" fill="#263238"/>
<path d="M377.145 165.012L374.243 169.808C374.243 169.808 375.24 170.945 377.424 170.108L377.145 165.012Z" fill="#D4827D"/>
<path d="M377.693 160.554C377.658 160.594 377.613 160.625 377.562 160.642C377.511 160.66 377.457 160.664 377.404 160.654C377.012 160.586 376.609 160.614 376.229 160.733C375.849 160.853 375.503 161.062 375.22 161.342C375.159 161.399 375.079 161.43 374.996 161.43C374.913 161.43 374.832 161.399 374.771 161.342C374.714 161.279 374.682 161.197 374.682 161.112C374.682 161.028 374.714 160.946 374.771 160.883C375.124 160.523 375.558 160.254 376.038 160.099C376.517 159.944 377.028 159.909 377.524 159.996C377.566 160 377.607 160.014 377.643 160.035C377.68 160.055 377.713 160.083 377.739 160.117C377.765 160.15 377.784 160.188 377.795 160.229C377.806 160.27 377.809 160.313 377.803 160.355C377.788 160.431 377.75 160.5 377.693 160.554Z" fill="#263238"/>
<path d="M398.196 160.057C398.645 168.164 399.014 171.595 395.434 176.202C389.72 181.138 379.987 181.926 377.115 174.118C374.532 167.137 374.233 155.04 381.732 150.862C383.004 150.153 384.403 149.702 385.85 149.535C387.296 149.367 388.762 149.486 390.162 149.885C391.563 150.285 392.871 150.956 394.011 151.861C395.152 152.766 396.103 153.887 396.81 155.16C397.64 156.665 398.114 158.34 398.196 160.057Z" fill="#EEC1BB"/>
<path d="M386.898 177.797L388.952 189.814L398.964 187.5L395.464 175.234L386.898 177.797Z" fill="#EEC1BB"/>
<path d="M379.688 160.653C380.196 155.388 378.381 161.471 375.948 154.52C373.515 147.57 385.013 141.925 386.848 143.222C388.683 144.518 387.636 146.503 393.719 147.629C395.378 147.893 396.885 148.752 397.957 150.046C399.029 151.34 399.593 152.98 399.543 154.66C399.543 154.66 403.043 156.275 401.796 163.795C400.882 168.612 398.831 173.142 395.813 177.008C395.813 177.008 393.509 174.635 389.83 176.819C388.394 175.881 387.179 174.643 386.269 173.189C384.634 170.735 384.125 168.402 381.882 168.202C377.195 167.774 379.518 162.389 379.688 160.653Z" fill="#263238"/>
<path d="M398.895 155.567C398.895 155.567 403.881 152.515 401.667 149.314C399.453 146.113 400.52 152.844 398.895 155.567Z" fill="#263238"/>
<path d="M381.114 163.715C380.008 164.952 379.438 166.577 379.528 168.233C379.668 170.427 381.822 170.816 383.517 169.619C385.212 168.422 386.818 166.089 385.841 164.164C385.624 163.744 385.305 163.385 384.914 163.121C384.522 162.856 384.07 162.694 383.6 162.649C383.129 162.605 382.655 162.679 382.221 162.865C381.786 163.051 381.406 163.344 381.114 163.715Z" fill="#FFC3BD"/>
<path opacity="0.1" d="M387.087 178.933L387.905 183.699C387.833 182.519 387.995 181.336 388.382 180.219C388.769 179.101 389.373 178.071 390.159 177.188C389.548 177.227 388.954 177.404 388.422 177.706C387.89 178.009 387.434 178.428 387.087 178.933Z" fill="black"/>
<path d="M316.692 209.926H313.83V226.809H316.692V209.926Z" fill="#9C9C9C"/>
<path opacity="0.7" d="M316.692 209.926H313.83V226.809H316.692V209.926Z" fill="white"/>
<path d="M297.027 176.398H289.897C288.614 176.398 287.384 176.908 286.477 177.815C285.57 178.722 285.06 179.952 285.06 181.235V214.273C285.06 214.909 285.185 215.538 285.428 216.124C285.671 216.711 286.028 217.244 286.477 217.693C286.926 218.143 287.459 218.499 288.046 218.742C288.633 218.985 289.262 219.11 289.897 219.11H297.027V176.398Z" fill="#9C9C9C"/>
<path d="M340.636 176.398H292.39C289.719 176.398 287.553 178.564 287.553 181.235V214.263C287.553 216.935 289.719 219.1 292.39 219.1H340.636C343.307 219.1 345.473 216.935 345.473 214.263V181.235C345.473 178.564 343.307 176.398 340.636 176.398Z" fill="#9C9C9C"/>
<path opacity="0.5" d="M340.636 176.398H292.39C289.719 176.398 287.553 178.564 287.553 181.235V214.263C287.553 216.935 289.719 219.1 292.39 219.1H340.636C343.307 219.1 345.473 216.935 345.473 214.263V181.235C345.473 178.564 343.307 176.398 340.636 176.398Z" fill="white"/>
<path d="M340.636 178.395H292.39C290.82 178.395 289.548 179.667 289.548 181.237V214.265C289.548 215.835 290.82 217.107 292.39 217.107H340.636C342.206 217.107 343.478 215.835 343.478 214.265V181.237C343.478 179.667 342.206 178.395 340.636 178.395Z" fill="#263238"/>
<path d="M304.845 233.892C304.929 231.185 306.063 228.617 308.007 226.732C309.952 224.847 312.553 223.793 315.261 223.793C317.969 223.793 320.571 224.847 322.515 226.732C324.46 228.617 325.594 231.185 325.677 233.892H304.845Z" fill="#9C9C9C"/>
<path d="M329.427 230.34H308.595V233.72H350.259V232.334L329.427 230.34Z" fill="#9C9C9C"/>
<path opacity="0.8" d="M329.427 230.34H308.595V233.72H350.259V232.334L329.427 230.34Z" fill="white"/>
<path d="M329.427 233.72H308.595V230.34L329.427 232.334V233.72Z" fill="#9C9C9C"/>
<path opacity="0.6" d="M329.427 233.72H308.595V230.34L329.427 232.334V233.72Z" fill="white"/>
<path d="M375.36 350.108H332.389C331.532 350.109 330.682 349.941 329.89 349.614C329.097 349.287 328.377 348.807 327.771 348.201C327.164 347.595 326.683 346.876 326.354 346.084C326.026 345.292 325.857 344.443 325.857 343.586V244.78C325.857 243.922 326.026 243.074 326.354 242.282C326.683 241.49 327.164 240.77 327.771 240.164C328.377 239.559 329.097 239.079 329.89 238.751C330.682 238.424 331.532 238.257 332.389 238.258H375.36C375.823 238.258 376.266 238.442 376.594 238.769C376.921 239.096 377.105 239.54 377.105 240.003C377.105 240.466 376.921 240.91 376.594 241.237C376.266 241.564 375.823 241.748 375.36 241.748H332.389C331.992 241.742 331.597 241.814 331.229 241.961C330.86 242.109 330.524 242.328 330.241 242.607C329.958 242.885 329.733 243.217 329.58 243.583C329.426 243.95 329.347 244.343 329.347 244.74V343.546C329.347 343.943 329.426 344.336 329.58 344.703C329.733 345.069 329.958 345.401 330.241 345.679C330.524 345.958 330.86 346.177 331.229 346.324C331.597 346.472 331.992 346.544 332.389 346.538H375.36C375.823 346.538 376.266 346.722 376.594 347.049C376.921 347.376 377.105 347.82 377.105 348.283C377.116 348.519 377.079 348.754 376.996 348.975C376.913 349.196 376.786 349.398 376.623 349.569C376.46 349.739 376.264 349.875 376.047 349.968C375.829 350.06 375.596 350.108 375.36 350.108Z" fill="#263238"/>
<g opacity="0.5">
<path d="M375.36 350.108H332.389C331.532 350.109 330.682 349.941 329.89 349.614C329.097 349.287 328.377 348.807 327.771 348.201C327.164 347.595 326.683 346.876 326.354 346.084C326.026 345.292 325.857 344.443 325.857 343.586V244.78C325.857 243.922 326.026 243.074 326.354 242.282C326.683 241.49 327.164 240.77 327.771 240.164C328.377 239.559 329.097 239.079 329.89 238.751C330.682 238.424 331.532 238.257 332.389 238.258H375.36C375.823 238.258 376.266 238.442 376.594 238.769C376.921 239.096 377.105 239.54 377.105 240.003C377.105 240.466 376.921 240.91 376.594 241.237C376.266 241.564 375.823 241.748 375.36 241.748H332.389C331.992 241.742 331.597 241.814 331.229 241.961C330.86 242.109 330.524 242.328 330.241 242.607C329.958 242.885 329.733 243.217 329.58 243.583C329.426 243.95 329.347 244.343 329.347 244.74V343.546C329.347 343.943 329.426 344.336 329.58 344.703C329.733 345.069 329.958 345.401 330.241 345.679C330.524 345.958 330.86 346.177 331.229 346.324C331.597 346.472 331.992 346.544 332.389 346.538H375.36C375.823 346.538 376.266 346.722 376.594 347.049C376.921 347.376 377.105 347.82 377.105 348.283C377.116 348.519 377.079 348.754 376.996 348.975C376.913 349.196 376.786 349.398 376.623 349.569C376.46 349.739 376.264 349.875 376.047 349.968C375.829 350.06 375.596 350.108 375.36 350.108Z" fill="white"/>
</g>
<path d="M332.219 233.723H271.198V238.838H332.219V233.723Z" fill="#9C9C9C"/>
<path opacity="0.2" d="M332.219 233.723H271.198V238.838H332.219V233.723Z" fill="white"/>
<path d="M381.473 233.723H329.427V238.838H381.473V233.723Z" fill="#9C9C9C"/>
<path opacity="0.5" d="M381.473 233.723H329.427V238.838H381.473V233.723Z" fill="white"/>
<path d="M363.223 313.859L366.105 342.999H359.205L352.294 314.617L363.223 313.859Z" fill="#EEC1BB"/>
<path d="M358.556 341.055L367.362 341.204C367.523 341.208 367.677 341.266 367.801 341.37C367.924 341.473 368.008 341.615 368.04 341.773L369.516 348.963C369.578 349.268 369.518 349.586 369.348 349.847C369.178 350.108 368.913 350.292 368.609 350.359H368.359C365.178 350.249 362.376 350.03 358.387 349.96C353.73 349.88 354.897 350.459 349.412 350.449C346.111 350.449 345.572 346.669 346.968 346.51C353.401 345.812 354.099 343.887 356.612 341.633C357.167 341.209 357.859 341.003 358.556 341.055Z" fill="#263238"/>
<path opacity="0.1" d="M365.358 335.39L363.223 313.859L352.294 314.617L357.35 335.39H365.358Z" fill="black"/>
<path d="M410.472 246.676L382.171 247.673C382.171 247.673 344.047 261.006 343.049 271.248C341.952 281.798 354.757 330.274 354.757 330.274H366.135C366.135 330.274 362.994 294.703 361.797 283.813C360.601 272.923 401.477 276.523 408.578 267.239C415.07 258.722 410.472 246.676 410.472 246.676Z" fill="#263238"/>
<path opacity="0.2" d="M410.472 246.676L382.171 247.673C382.171 247.673 344.047 261.006 343.049 271.248C341.952 281.798 354.757 330.274 354.757 330.274H366.135C366.135 330.274 362.994 294.703 361.797 283.813C360.601 272.923 401.477 276.523 408.578 267.239C415.07 258.722 410.472 246.676 410.472 246.676Z" fill="black"/>
<path d="M368.03 328.68L368.279 332.699H354.218L352.842 328.68H368.03Z" fill="#9C9C9C"/>
<path d="M336.886 315.246L337.644 342.999H330.863L326.844 315.246H336.886Z" fill="#EEC1BB"/>
<path d="M329.926 341.055L338.731 341.205C338.892 341.209 339.047 341.267 339.17 341.37C339.293 341.473 339.378 341.616 339.409 341.773L340.885 348.963C340.948 349.269 340.887 349.586 340.718 349.847C340.548 350.109 340.282 350.293 339.978 350.36H339.729C336.547 350.25 333.745 350.03 329.756 349.961C325.089 349.881 326.266 350.459 320.781 350.449C317.48 350.449 316.942 346.67 318.338 346.51C324.77 345.812 325.468 343.887 327.981 341.634C328.536 341.207 329.228 341.001 329.926 341.055Z" fill="#263238"/>
<path opacity="0.1" d="M337.435 335.37L336.886 315.246H326.844L329.766 335.39C331.95 335.4 334.952 335.38 337.435 335.37Z" fill="black"/>
<path d="M398.167 249.019C398.167 249.019 400.52 270.54 378.631 271.547C356.741 272.554 339.649 275.057 339.15 282.846C338.652 290.634 339.15 330.314 339.15 330.314H327.253C327.253 330.314 322.626 305.224 320.821 289.667C319.066 274.559 315.835 263.599 331.362 258.483C347.846 253.038 377.145 248.012 377.145 248.012L398.246 246.676L398.167 249.019Z" fill="#263238"/>
<path d="M340.905 328.68L340.157 332.699H327.094L325.717 328.68H340.905Z" fill="#9C9C9C"/>
<path d="M402.883 187.278C402.883 187.278 402.883 182.432 393.081 182.99C382.669 183.588 384.634 188.236 384.634 188.236L402.883 187.278Z" fill="#9C9C9C"/>
<path opacity="0.3" d="M402.883 187.278C402.883 187.278 402.883 182.432 393.081 182.99C382.669 183.588 384.634 188.236 384.634 188.236L402.883 187.278Z" fill="black"/>
<path d="M412.018 209.021C411.36 218.604 411.589 247.434 411.589 247.434C411.589 247.434 390.647 248.81 374.213 248.272L372.308 192.815C372.315 191.835 372.618 190.879 373.177 190.074C373.735 189.268 374.524 188.649 375.44 188.298C380.087 186.493 390.996 184.449 408.059 186.692C413.943 187.48 412.796 197.692 412.018 209.021Z" fill="#9C9C9C"/>
<path d="M375.669 208.65C375.669 208.65 367.531 228.794 359.583 230.968C351.636 233.142 339.639 231.377 339.639 231.377L335.929 232.374L332.299 231.835H332.169L328.061 231.736C327.913 231.748 327.765 231.718 327.634 231.649C327.502 231.579 327.394 231.474 327.32 231.345C327.247 231.216 327.212 231.069 327.219 230.921C327.227 230.773 327.277 230.63 327.363 230.509L328.839 228.515C328.962 228.351 329.132 228.229 329.327 228.165L333.227 226.909C333.384 226.874 333.548 226.874 333.705 226.909L339.689 227.856C339.689 227.856 356.293 225.134 357.978 223.598C359.663 222.062 364.679 205.957 364.679 205.957L375.669 208.65Z" fill="#EEC1BB"/>
<path opacity="0.1" d="M375.459 199.278C375.459 199.278 374.193 200.783 372.657 202.957L373.206 219.013C379.319 216.31 381.742 200.574 381.742 200.574L377.753 197.762L375.459 199.278Z" fill="black"/>
<path d="M380.575 188.694C374.672 186.759 366.355 191.197 363.174 209.785L375.44 213.365C375.44 213.365 389.012 191.466 380.575 188.694Z" fill="#9C9C9C"/>
<path d="M388.384 281.988H379.159V309.023H388.384V281.988Z" fill="#263238"/>
<path opacity="0.6" d="M388.384 281.988H379.159V309.023H388.384V281.988Z" fill="white"/>
<path d="M389.81 333.513V299.168H377.723V333.513L350.209 337.332V341.152L383.766 338.29L417.324 341.152V337.332L389.81 333.513Z" fill="#263238"/>
<path d="M349.811 350.518C351.821 350.518 353.45 348.888 353.45 346.878C353.45 344.868 351.821 343.238 349.811 343.238C347.8 343.238 346.171 344.868 346.171 346.878C346.171 348.888 347.8 350.518 349.811 350.518Z" fill="#9C9C9C"/>
<path d="M417.324 350.518C419.334 350.518 420.963 348.888 420.963 346.878C420.963 344.868 419.334 343.238 417.324 343.238C415.313 343.238 413.684 344.868 413.684 346.878C413.684 348.888 415.313 350.518 417.324 350.518Z" fill="#9C9C9C"/>
<path d="M383.766 350.518C385.777 350.518 387.406 348.888 387.406 346.878C387.406 344.868 385.777 343.238 383.766 343.238C381.756 343.238 380.127 344.868 380.127 346.878C380.127 348.888 381.756 350.518 383.766 350.518Z" fill="#9C9C9C"/>
<path opacity="0.3" d="M388.384 281.988H379.159V288.67H388.384V281.988Z" fill="black"/>
<path d="M420.235 220.707H390.179C387.816 220.709 385.539 221.592 383.792 223.184C382.046 224.775 380.956 226.961 380.735 229.313L378.202 256.468C377.921 259.461 376.572 262.252 374.402 264.332C372.233 266.412 369.387 267.642 366.385 267.797L337.375 269.252C335.677 269.339 334.078 270.075 332.907 271.307C331.736 272.539 331.083 274.174 331.083 275.874V276.482C331.083 277.94 331.661 279.337 332.692 280.368C333.722 281.398 335.12 281.977 336.577 281.977H424.922L429.679 231.118C429.807 229.801 429.658 228.471 429.242 227.215C428.826 225.958 428.151 224.803 427.262 223.822C426.372 222.842 425.288 222.058 424.078 221.522C422.868 220.985 421.559 220.708 420.235 220.707Z" fill="#9C9C9C"/>
<path opacity="0.3" d="M420.235 220.707H390.179C387.816 220.709 385.539 221.592 383.792 223.184C382.046 224.775 380.956 226.961 380.735 229.313L378.202 256.468C377.921 259.461 376.572 262.252 374.402 264.332C372.233 266.412 369.387 267.642 366.385 267.797L337.375 269.252C335.677 269.339 334.078 270.075 332.907 271.307C331.736 272.539 331.083 274.174 331.083 275.874V276.482C331.083 277.94 331.661 279.337 332.692 280.368C333.722 281.398 335.12 281.977 336.577 281.977H424.922L429.679 231.118C429.807 229.801 429.658 228.471 429.242 227.215C428.826 225.958 428.151 224.803 427.262 223.822C426.372 222.842 425.288 222.058 424.078 221.522C422.868 220.985 421.559 220.708 420.235 220.707Z" fill="white"/>
<path d="M351.247 251.301H355.385V272.951C355.385 273.48 355.175 273.987 354.801 274.361C354.427 274.735 353.92 274.945 353.391 274.945H353.241C352.712 274.945 352.205 274.735 351.831 274.361C351.457 273.987 351.247 273.48 351.247 272.951V251.301Z" fill="#263238"/>
<path opacity="0.2" d="M351.247 251.301H355.385V272.951C355.385 273.48 355.175 273.987 354.801 274.361C354.427 274.735 353.92 274.945 353.391 274.945H353.241C352.712 274.945 352.205 274.735 351.831 274.361C351.457 273.987 351.247 273.48 351.247 272.951V251.301Z" fill="white"/>
<path d="M371.201 245.091H361.997V252.72H371.221C371.739 252.746 372.256 252.667 372.742 252.487C373.228 252.308 373.672 252.031 374.047 251.674C374.423 251.317 374.722 250.888 374.926 250.412C375.13 249.936 375.236 249.423 375.236 248.905C375.236 248.387 375.13 247.875 374.926 247.399C374.722 246.923 374.423 246.493 374.047 246.137C373.672 245.78 373.228 245.503 372.742 245.323C372.256 245.144 371.739 245.064 371.221 245.091H371.201Z" fill="#9C9C9C"/>
<path opacity="0.5" d="M371.201 245.091H361.997V252.72H371.221C371.739 252.746 372.256 252.667 372.742 252.487C373.228 252.308 373.672 252.031 374.047 251.674C374.423 251.317 374.722 250.888 374.926 250.412C375.13 249.936 375.236 249.423 375.236 248.905C375.236 248.387 375.13 247.875 374.926 247.399C374.722 246.923 374.423 246.493 374.047 246.137C373.672 245.78 373.228 245.503 372.742 245.323C372.256 245.144 371.739 245.064 371.221 245.091H371.201Z" fill="white"/>
<path d="M367.522 245.09H335.281C333.249 245.09 331.601 246.737 331.601 248.77V249.049C331.601 251.081 333.249 252.729 335.281 252.729H367.522C369.554 252.729 371.201 251.081 371.201 249.049V248.77C371.201 246.737 369.554 245.09 367.522 245.09Z" fill="#9C9C9C"/>
<path opacity="0.3" d="M367.522 245.09H335.281C333.249 245.09 331.601 246.737 331.601 248.77V249.049C331.601 251.081 333.249 252.729 335.281 252.729H367.522C369.554 252.729 371.201 251.081 371.201 249.049V248.77C371.201 246.737 369.554 245.09 367.522 245.09Z" fill="white"/>
<path d="M426.997 281.988H382.809L387.735 229.364C387.956 227.012 389.046 224.826 390.793 223.234C392.539 221.643 394.816 220.76 397.179 220.758H427.236C428.556 220.759 429.861 221.036 431.068 221.57C432.275 222.104 433.358 222.884 434.246 223.86C435.135 224.836 435.81 225.986 436.229 227.238C436.648 228.489 436.802 229.815 436.68 231.129L432.382 277.142C432.241 278.472 431.613 279.703 430.619 280.598C429.625 281.493 428.334 281.988 426.997 281.988Z" fill="#9C9C9C"/>
<path opacity="0.5" d="M426.997 281.988H382.809L387.735 229.364C387.956 227.012 389.046 224.826 390.793 223.234C392.539 221.643 394.816 220.76 397.179 220.758H427.236C428.556 220.759 429.861 221.036 431.068 221.57C432.275 222.104 433.358 222.884 434.246 223.86C435.135 224.836 435.81 225.986 436.229 227.238C436.648 228.489 436.802 229.815 436.68 231.129L432.382 277.142C432.241 278.472 431.613 279.703 430.619 280.598C429.625 281.493 428.334 281.988 426.997 281.988Z" fill="white"/>
<path d="M323.773 350.108H280.802C279.944 350.109 279.095 349.941 278.303 349.614C277.51 349.287 276.79 348.807 276.184 348.201C275.577 347.595 275.096 346.876 274.767 346.084C274.439 345.292 274.27 344.443 274.27 343.586V244.78C274.27 243.922 274.439 243.074 274.767 242.282C275.096 241.49 275.577 240.77 276.184 240.164C276.79 239.559 277.51 239.079 278.303 238.751C279.095 238.424 279.944 238.257 280.802 238.258H323.773C324.236 238.258 324.679 238.442 325.007 238.769C325.334 239.096 325.518 239.54 325.518 240.003C325.518 240.466 325.334 240.91 325.007 241.237C324.679 241.564 324.236 241.748 323.773 241.748H280.802C280.405 241.742 280.01 241.814 279.642 241.961C279.273 242.109 278.937 242.328 278.654 242.607C278.371 242.885 278.146 243.217 277.993 243.583C277.839 243.95 277.76 244.343 277.76 244.74V343.546C277.76 343.943 277.839 344.336 277.993 344.703C278.146 345.069 278.371 345.401 278.654 345.679C278.937 345.958 279.273 346.177 279.642 346.324C280.01 346.472 280.405 346.544 280.802 346.538H323.773C324.236 346.538 324.679 346.722 325.007 347.049C325.334 347.376 325.518 347.82 325.518 348.283C325.529 348.519 325.492 348.754 325.409 348.975C325.326 349.196 325.199 349.398 325.036 349.569C324.873 349.739 324.677 349.875 324.46 349.968C324.242 350.06 324.009 350.108 323.773 350.108Z" fill="#263238"/>
<g opacity="0.5">
<path d="M323.773 350.108H280.802C279.944 350.109 279.095 349.941 278.303 349.614C277.51 349.287 276.79 348.807 276.184 348.201C275.577 347.595 275.096 346.876 274.767 346.084C274.439 345.292 274.27 344.443 274.27 343.586V244.78C274.27 243.922 274.439 243.074 274.767 242.282C275.096 241.49 275.577 240.77 276.184 240.164C276.79 239.559 277.51 239.079 278.303 238.751C279.095 238.424 279.944 238.257 280.802 238.258H323.773C324.236 238.258 324.679 238.442 325.007 238.769C325.334 239.096 325.518 239.54 325.518 240.003C325.518 240.466 325.334 240.91 325.007 241.237C324.679 241.564 324.236 241.748 323.773 241.748H280.802C280.405 241.742 280.01 241.814 279.642 241.961C279.273 242.109 278.937 242.328 278.654 242.607C278.371 242.885 278.146 243.217 277.993 243.583C277.839 243.95 277.76 244.343 277.76 244.74V343.546C277.76 343.943 277.839 344.336 277.993 344.703C278.146 345.069 278.371 345.401 278.654 345.679C278.937 345.958 279.273 346.177 279.642 346.324C280.01 346.472 280.405 346.544 280.802 346.538H323.773C324.236 346.538 324.679 346.722 325.007 347.049C325.334 347.376 325.518 347.82 325.518 348.283C325.529 348.519 325.492 348.754 325.409 348.975C325.326 349.196 325.199 349.398 325.036 349.569C324.873 349.739 324.677 349.875 324.46 349.968C324.242 350.06 324.009 350.108 323.773 350.108Z" fill="white"/>
</g>
<path d="M295.371 186.271L292.38 184.277C292.304 184.228 292.241 184.161 292.197 184.082C292.154 184.002 292.131 183.913 292.131 183.823C292.131 183.733 292.154 183.644 292.197 183.564C292.241 183.485 292.304 183.418 292.38 183.369L295.371 181.375C295.481 181.303 295.615 181.277 295.744 181.303C295.873 181.329 295.986 181.405 296.06 181.514C296.129 181.623 296.153 181.755 296.127 181.882C296.101 182.008 296.026 182.12 295.92 182.192L293.437 183.838L295.92 185.483C296.026 185.556 296.101 185.668 296.127 185.794C296.153 185.921 296.129 186.052 296.06 186.161C295.98 186.264 295.865 186.332 295.737 186.353C295.609 186.373 295.479 186.344 295.371 186.271Z" fill="white"/>
<path d="M301.993 186.133C301.933 186.024 301.918 185.896 301.949 185.776C301.981 185.655 302.057 185.551 302.163 185.485L304.646 183.84L302.163 182.164C302.056 182.092 301.982 181.979 301.958 181.852C301.933 181.725 301.96 181.593 302.033 181.486C302.068 181.433 302.114 181.386 302.167 181.35C302.22 181.314 302.28 181.289 302.343 181.276C302.406 181.263 302.471 181.262 302.534 181.274C302.597 181.287 302.657 181.311 302.711 181.347L305.703 183.341C305.779 183.39 305.842 183.457 305.885 183.536C305.929 183.616 305.951 183.704 305.951 183.795C305.951 183.885 305.929 183.974 305.885 184.054C305.842 184.133 305.779 184.2 305.703 184.249L302.711 186.243C302.657 186.285 302.596 186.316 302.53 186.333C302.464 186.35 302.396 186.354 302.328 186.343C302.261 186.333 302.197 186.309 302.139 186.273C302.081 186.237 302.032 186.189 301.993 186.133Z" fill="white"/>
<path d="M297.894 187.479C297.833 187.46 297.775 187.429 297.726 187.387C297.676 187.345 297.635 187.294 297.606 187.237C297.576 187.179 297.558 187.117 297.553 187.052C297.548 186.987 297.555 186.923 297.575 186.861L299.64 180.339C299.658 180.278 299.688 180.22 299.729 180.171C299.769 180.121 299.82 180.081 299.876 180.051C299.933 180.021 299.995 180.003 300.059 179.998C300.123 179.992 300.187 180 300.248 180.02C300.309 180.038 300.367 180.068 300.416 180.109C300.466 180.15 300.506 180.2 300.536 180.257C300.566 180.313 300.584 180.375 300.589 180.439C300.595 180.503 300.587 180.567 300.567 180.628L298.513 187.16C298.493 187.222 298.462 187.279 298.42 187.329C298.379 187.379 298.328 187.419 298.27 187.449C298.213 187.479 298.15 187.497 298.085 187.502C298.021 187.507 297.956 187.499 297.894 187.479Z" fill="white"/>
<path d="M314.827 192.467H292.619C292.551 192.467 292.484 192.453 292.422 192.427C292.36 192.401 292.303 192.363 292.256 192.314C292.208 192.266 292.171 192.209 292.146 192.146C292.121 192.083 292.109 192.016 292.11 191.948C292.109 191.881 292.121 191.813 292.146 191.751C292.171 191.688 292.208 191.63 292.256 191.582C292.303 191.534 292.36 191.496 292.422 191.469C292.484 191.443 292.551 191.43 292.619 191.43H314.827C314.965 191.43 315.097 191.484 315.194 191.582C315.291 191.679 315.346 191.811 315.346 191.948C315.346 192.016 315.333 192.084 315.307 192.147C315.281 192.21 315.242 192.267 315.194 192.315C315.146 192.363 315.089 192.401 315.026 192.427C314.963 192.453 314.896 192.467 314.827 192.467Z" fill="white"/>
<path d="M340.337 192.466H318.118C318.05 192.466 317.983 192.453 317.92 192.427C317.857 192.4 317.8 192.362 317.752 192.314C317.704 192.266 317.665 192.209 317.639 192.146C317.613 192.083 317.6 192.016 317.6 191.947C317.61 191.817 317.669 191.695 317.765 191.606C317.861 191.517 317.988 191.468 318.118 191.469H340.317C340.454 191.469 340.586 191.523 340.684 191.621C340.781 191.718 340.835 191.85 340.835 191.987C340.826 192.114 340.77 192.234 340.678 192.322C340.586 192.41 340.464 192.461 340.337 192.466Z" fill="white"/>
<path d="M305.314 197.031H292.619C292.551 197.031 292.484 197.018 292.422 196.991C292.36 196.965 292.303 196.927 292.256 196.879C292.208 196.83 292.171 196.773 292.146 196.71C292.121 196.647 292.109 196.58 292.11 196.512C292.11 196.378 292.164 196.248 292.259 196.153C292.355 196.057 292.484 196.004 292.619 196.004H305.314C305.45 196.004 305.58 196.057 305.677 196.152C305.774 196.247 305.83 196.377 305.832 196.512C305.832 196.65 305.778 196.782 305.681 196.879C305.583 196.976 305.451 197.031 305.314 197.031Z" fill="white"/>
<path d="M329.407 197.031H308.615C308.547 197.031 308.48 197.018 308.418 196.991C308.355 196.965 308.299 196.927 308.252 196.879C308.204 196.83 308.167 196.773 308.142 196.71C308.117 196.647 308.105 196.58 308.106 196.512C308.106 196.378 308.16 196.248 308.255 196.153C308.351 196.057 308.48 196.004 308.615 196.004H329.407C329.542 196.004 329.671 196.057 329.767 196.153C329.862 196.248 329.916 196.378 329.916 196.512C329.917 196.58 329.905 196.647 329.88 196.71C329.855 196.773 329.818 196.83 329.77 196.879C329.723 196.927 329.666 196.965 329.604 196.991C329.542 197.018 329.475 197.031 329.407 197.031Z" fill="white"/>
<path d="M326.445 201.611H292.619C292.483 201.609 292.354 201.553 292.259 201.456C292.164 201.359 292.11 201.229 292.11 201.093C292.109 201.025 292.121 200.958 292.146 200.895C292.171 200.832 292.208 200.775 292.256 200.727C292.303 200.678 292.36 200.64 292.422 200.614C292.484 200.588 292.551 200.574 292.619 200.574H326.445C326.583 200.574 326.715 200.629 326.812 200.726C326.909 200.823 326.964 200.955 326.964 201.093C326.964 201.23 326.909 201.362 326.812 201.459C326.715 201.557 326.583 201.611 326.445 201.611Z" fill="white"/>
<path d="M336.817 201.611H329.756C329.619 201.611 329.487 201.557 329.389 201.459C329.292 201.362 329.238 201.23 329.238 201.093C329.238 200.955 329.292 200.823 329.389 200.726C329.487 200.629 329.619 200.574 329.756 200.574H336.817C336.954 200.574 337.086 200.629 337.183 200.726C337.28 200.823 337.335 200.955 337.335 201.093C337.335 201.23 337.28 201.362 337.183 201.459C337.086 201.557 336.954 201.611 336.817 201.611Z" fill="white"/>
<path d="M308.415 206.178H292.619C292.551 206.178 292.484 206.164 292.422 206.138C292.36 206.112 292.303 206.074 292.256 206.025C292.208 205.977 292.171 205.92 292.146 205.857C292.121 205.794 292.109 205.727 292.11 205.659C292.109 205.592 292.121 205.524 292.146 205.462C292.171 205.399 292.208 205.341 292.256 205.293C292.303 205.245 292.36 205.206 292.422 205.18C292.484 205.154 292.551 205.141 292.619 205.141H308.415C308.553 205.141 308.685 205.195 308.782 205.293C308.879 205.39 308.934 205.522 308.934 205.659C308.934 205.797 308.879 205.929 308.782 206.026C308.685 206.123 308.553 206.178 308.415 206.178Z" fill="white"/>
<path d="M331.382 206.178H311.726C311.589 206.178 311.457 206.123 311.359 206.026C311.262 205.929 311.208 205.797 311.208 205.659C311.208 205.522 311.262 205.39 311.359 205.293C311.457 205.195 311.589 205.141 311.726 205.141H331.382C331.519 205.141 331.651 205.195 331.748 205.293C331.846 205.39 331.9 205.522 331.9 205.659C331.9 205.797 331.846 205.929 331.748 206.026C331.651 206.123 331.519 206.178 331.382 206.178Z" fill="white"/>
<path d="M314.827 210.746H292.619C292.551 210.746 292.484 210.733 292.422 210.706C292.36 210.68 292.303 210.642 292.256 210.594C292.208 210.545 292.171 210.488 292.146 210.425C292.121 210.362 292.109 210.295 292.11 210.227C292.11 210.093 292.164 209.963 292.259 209.868C292.355 209.772 292.484 209.719 292.619 209.719H314.827C314.895 209.718 314.962 209.73 315.025 209.755C315.088 209.78 315.145 209.817 315.194 209.864C315.242 209.912 315.28 209.968 315.306 210.03C315.333 210.093 315.346 210.16 315.346 210.227C315.346 210.365 315.291 210.497 315.194 210.594C315.097 210.691 314.965 210.746 314.827 210.746Z" fill="white"/>
<path d="M333.805 210.746H318.118C317.981 210.746 317.849 210.691 317.752 210.594C317.654 210.497 317.6 210.365 317.6 210.227C317.6 210.16 317.613 210.093 317.639 210.03C317.666 209.968 317.704 209.912 317.752 209.864C317.801 209.817 317.858 209.78 317.921 209.755C317.984 209.73 318.051 209.718 318.118 209.719H333.785C333.92 209.719 334.049 209.772 334.145 209.868C334.24 209.963 334.294 210.093 334.294 210.227C334.296 210.361 334.247 210.49 334.155 210.587C334.064 210.684 333.938 210.741 333.805 210.746Z" fill="white"/>
<path d="M141.079 121.484C141.488 126.181 140.471 134.688 136.931 137.44C142.705 139.524 148.828 143.114 152.737 147.851C156.616 142.207 152.208 138.986 152.208 138.986C147.222 137.211 147.751 133.431 149.037 129.951L141.079 121.484Z" fill="#FFBDA7"/>
<path d="M159.957 117.433C159.897 118.022 160.176 118.53 160.565 118.57C160.954 118.61 161.303 118.151 161.363 117.573C161.423 116.995 161.143 116.476 160.754 116.436C160.366 116.396 160.026 116.845 159.957 117.433Z" fill="#263238"/>
<path d="M160.605 116.447L162.051 116.168C162.051 116.168 161.223 117.235 160.605 116.447Z" fill="#263238"/>
<path d="M160.156 118.062C160.563 119.465 161.157 120.807 161.921 122.051C161.598 122.238 161.238 122.353 160.866 122.388C160.494 122.422 160.119 122.375 159.767 122.251L160.156 118.062Z" fill="#FFBDA7"/>
<path d="M161.632 114.335C161.724 114.32 161.809 114.274 161.871 114.205C161.933 114.139 161.967 114.051 161.967 113.961C161.967 113.87 161.933 113.783 161.871 113.716C161.461 113.342 160.968 113.071 160.431 112.927C159.895 112.783 159.332 112.77 158.79 112.889C158.714 112.941 158.66 113.021 158.639 113.112C158.619 113.202 158.634 113.297 158.68 113.377C158.711 113.429 158.755 113.47 158.808 113.499C158.86 113.527 158.92 113.54 158.979 113.537C159.411 113.454 159.855 113.474 160.277 113.593C160.7 113.713 161.089 113.929 161.413 114.225C161.471 114.286 161.548 114.325 161.632 114.335Z" fill="#263238"/>
<path d="M140.61 113.684C140.381 120.973 140.132 124.075 143.383 128.144C148.279 134.257 157.145 132.92 159.518 125.82C161.652 119.428 161.672 108.538 154.961 105.008C148.249 101.478 140.82 106.374 140.61 113.684Z" fill="#FFBDA7"/>
<path d="M140.929 127.457C133.759 126.231 135.814 121.713 135.814 121.713C128.753 120.287 134.208 116.837 134.208 116.837C128.334 114.304 134.208 112.03 134.208 112.03C128.544 107.333 136.621 105.707 136.621 105.707C134.627 98.3777 141.608 101.389 141.608 101.389C145.397 95.0868 148.668 101.1 148.668 101.1C155.31 92.125 156.925 99.6941 156.925 99.6941C163.716 97.909 161.114 105.049 161.114 105.049C166.698 106.545 162.31 109.377 162.31 109.377C164.464 112.1 156.676 112.568 156.676 112.568C156.676 112.568 160.386 118.552 156.676 120.197L147.242 127.427C147.242 127.427 142.884 125.652 140.929 127.457Z" fill="#263238"/>
<path d="M147.98 121.575C147.98 121.575 152.966 109.608 149.067 99.3964L152.358 98.2695C152.358 98.2695 156.656 113.118 147.98 121.575Z" fill="#9C9C9C"/>
<path d="M152.956 120.256C153.774 121.971 154.093 122.719 155.27 123.247C155.633 123.456 156.05 123.553 156.468 123.526C156.886 123.5 157.287 123.35 157.621 123.097C157.955 122.844 158.207 122.498 158.346 122.103C158.484 121.708 158.504 121.28 158.401 120.874C158.092 119.159 156.776 116.636 154.951 116.586C154.524 116.588 154.105 116.705 153.739 116.924C153.373 117.143 153.072 117.456 152.868 117.831C152.665 118.206 152.565 118.629 152.581 119.055C152.596 119.482 152.726 119.896 152.956 120.256Z" fill="#FFBDA7"/>
<path d="M147.8 145.167C147.8 145.167 154.552 150.154 157.294 152.148L176.83 142.934C176.802 141.851 177.102 140.784 177.688 139.874C178.275 138.963 179.123 138.25 180.121 137.828L181.517 137.249L184.459 135.933C185.007 135.688 185.61 135.593 186.207 135.656C186.804 135.719 187.374 135.938 187.859 136.292C188.429 136.707 188.857 137.289 189.083 137.956C189.31 138.624 189.325 139.345 189.126 140.022C188.716 141.424 187.949 142.696 186.9 143.713C185.851 144.73 184.557 145.458 183.142 145.826L180.29 146.574C180.29 146.574 163.547 159.258 157.563 159.558C151.58 159.857 142.814 153.983 142.814 153.983L147.8 145.167Z" fill="#FFBDA7"/>
<path d="M131.565 136.762C136.721 136.762 142.485 139.973 151.51 145.857C150.214 150.098 147.803 153.914 144.53 156.906C144.53 156.906 139.543 155.57 132.922 149.337C124.944 141.788 128.404 136.772 131.565 136.762Z" fill="#263238"/>
<path d="M229.494 151.701H180.629C180.218 151.707 179.811 151.627 179.433 151.464C179.056 151.301 178.717 151.06 178.44 150.756C178.163 150.452 177.953 150.093 177.825 149.703C177.697 149.312 177.654 148.899 177.698 148.49L181.377 106.426C181.465 105.557 181.869 104.749 182.512 104.157C183.156 103.566 183.994 103.23 184.868 103.215H233.732C234.143 103.208 234.55 103.289 234.927 103.452C235.304 103.615 235.642 103.857 235.919 104.16C236.195 104.464 236.404 104.823 236.531 105.214C236.657 105.605 236.7 106.018 236.654 106.426L232.974 148.49C232.887 149.358 232.484 150.164 231.843 150.755C231.202 151.347 230.366 151.683 229.494 151.701Z" fill="#9C9C9C"/>
<path opacity="0.4" d="M229.494 151.701H180.629C180.218 151.707 179.811 151.627 179.433 151.464C179.056 151.301 178.717 151.06 178.44 150.756C178.163 150.452 177.953 150.093 177.825 149.703C177.697 149.312 177.654 148.899 177.698 148.49L181.377 106.426C181.465 105.557 181.869 104.749 182.512 104.157C183.156 103.566 183.994 103.23 184.868 103.215H233.732C234.143 103.208 234.55 103.289 234.927 103.452C235.304 103.615 235.642 103.857 235.919 104.16C236.195 104.464 236.404 104.823 236.531 105.214C236.657 105.605 236.7 106.018 236.654 106.426L232.974 148.49C232.887 149.358 232.484 150.164 231.843 150.755C231.202 151.347 230.366 151.683 229.494 151.701Z" fill="white"/>
<path opacity="0.7" d="M229.674 149.704C230.004 149.698 230.321 149.571 230.564 149.346C230.806 149.122 230.958 148.816 230.99 148.487L234.67 106.424C234.687 106.269 234.671 106.113 234.622 105.965C234.574 105.817 234.495 105.681 234.391 105.566C234.286 105.451 234.158 105.359 234.015 105.297C233.873 105.236 233.718 105.205 233.563 105.207H184.698C184.367 105.213 184.048 105.34 183.804 105.564C183.56 105.788 183.406 106.094 183.372 106.424L179.702 148.487C179.685 148.642 179.701 148.798 179.749 148.946C179.797 149.094 179.876 149.23 179.981 149.345C180.086 149.46 180.214 149.552 180.356 149.614C180.499 149.675 180.653 149.706 180.809 149.704H229.674Z" fill="white"/>
<path d="M195.718 124.973L179.762 148.069V148.487C179.745 148.642 179.761 148.799 179.809 148.947C179.857 149.094 179.936 149.23 180.041 149.345C180.146 149.461 180.273 149.552 180.416 149.614C180.559 149.676 180.713 149.706 180.869 149.704H208.552L195.718 124.973Z" fill="#9C9C9C"/>
<path opacity="0.3" d="M195.718 124.973L179.762 148.069V148.487C179.745 148.642 179.761 148.799 179.809 148.947C179.857 149.094 179.936 149.23 180.041 149.345C180.146 149.461 180.273 149.552 180.416 149.614C180.559 149.676 180.713 149.706 180.869 149.704H208.552L195.718 124.973Z" fill="white"/>
<path d="M231.129 146.884L217.757 121.484L197.951 149.706H229.674C230.004 149.7 230.321 149.573 230.564 149.349C230.806 149.124 230.958 148.819 230.99 148.49L231.129 146.884Z" fill="#9C9C9C"/>
<path d="M212.591 116.994C212.469 118.21 211.905 119.338 211.006 120.165C210.107 120.993 208.936 121.461 207.714 121.482C207.139 121.492 206.569 121.38 206.041 121.153C205.513 120.926 205.039 120.589 204.651 120.164C204.263 119.74 203.97 119.237 203.792 118.691C203.613 118.144 203.553 117.566 203.616 116.994C203.735 115.777 204.298 114.646 205.197 113.817C206.097 112.988 207.269 112.518 208.492 112.497C209.068 112.486 209.64 112.598 210.168 112.826C210.697 113.054 211.172 113.392 211.56 113.818C211.948 114.243 212.24 114.747 212.418 115.295C212.596 115.843 212.655 116.422 212.591 116.994Z" fill="#9C9C9C"/>
<path opacity="0.4" d="M212.591 116.994C212.469 118.21 211.905 119.338 211.006 120.165C210.107 120.993 208.936 121.461 207.714 121.482C207.139 121.492 206.569 121.38 206.041 121.153C205.513 120.926 205.039 120.589 204.651 120.164C204.263 119.74 203.97 119.237 203.792 118.691C203.613 118.144 203.553 117.566 203.616 116.994C203.735 115.777 204.298 114.646 205.197 113.817C206.097 112.988 207.269 112.518 208.492 112.497C209.068 112.486 209.64 112.598 210.168 112.826C210.697 113.054 211.172 113.392 211.56 113.818C211.948 114.243 212.24 114.747 212.418 115.295C212.596 115.843 212.655 116.422 212.591 116.994Z" fill="white"/>
<path d="M90.6489 321.48L85.6826 336.2L93.2915 339.311L99.245 325.729L90.6489 321.48Z" fill="#FFBDA7"/>
<path d="M96.0239 338.941C95.9849 338.918 95.9531 338.884 95.932 338.843C95.9109 338.803 95.9013 338.757 95.9042 338.712C95.9098 338.668 95.9292 338.627 95.9597 338.595C95.9902 338.562 96.0301 338.541 96.0737 338.532C96.2333 338.532 99.8234 337.695 101.16 338.532C101.412 338.687 101.595 338.934 101.668 339.221C101.724 339.38 101.729 339.553 101.683 339.715C101.636 339.878 101.541 340.022 101.409 340.128C100.9 340.487 99.7137 340.337 98.6267 339.998C97.7304 339.721 96.8597 339.367 96.0239 338.941ZM96.7818 338.872C98.3474 339.57 100.561 340.238 101.14 339.799C101.219 339.739 101.319 339.639 101.239 339.33C101.224 339.24 101.187 339.155 101.131 339.082C101.076 339.009 101.003 338.95 100.92 338.911C100.803 338.837 100.675 338.78 100.541 338.742C99.2913 338.546 98.0154 338.59 96.7818 338.872Z" fill="#9C9C9C"/>
<path d="M95.9142 338.893C95.8949 338.859 95.8848 338.821 95.8848 338.783C95.8848 338.744 95.8949 338.706 95.9142 338.673C95.9142 338.573 96.9114 336.28 98.3175 335.681C98.5181 335.598 98.7334 335.555 98.9507 335.555C99.1681 335.555 99.3833 335.598 99.584 335.681C100.132 335.911 100.222 336.26 100.172 336.499C100.053 337.546 97.3601 338.793 96.1834 338.932C96.1695 338.939 96.1541 338.943 96.1385 338.943C96.1229 338.943 96.1076 338.939 96.0937 338.932C96.0628 338.942 96.0302 338.943 95.9987 338.936C95.9673 338.929 95.9382 338.914 95.9142 338.893ZM99.2948 336.07C99.0373 335.976 98.7545 335.976 98.497 336.07C97.6093 336.622 96.9129 337.433 96.5025 338.394C97.789 338.085 99.6239 337.028 99.7535 336.399C99.7535 336.34 99.7535 336.18 99.4145 336.04H99.2948V336.07Z" fill="#9C9C9C"/>
<path d="M95.5053 337.434L85.9518 334.442C85.7768 334.388 85.5888 334.395 85.4185 334.462C85.2482 334.529 85.1057 334.652 85.0144 334.811L80.8858 342.051C80.7966 342.203 80.7384 342.372 80.7146 342.547C80.6909 342.722 80.7021 342.9 80.7475 343.07C80.793 343.241 80.8718 343.401 80.9794 343.541C81.087 343.681 81.2212 343.798 81.3744 343.886C81.4559 343.936 81.5429 343.976 81.6337 344.005C85.0941 345.003 88.2155 345.761 92.5036 347.097C97.5696 348.653 96.0937 348.862 102.017 350.787C105.587 351.943 107.502 348.064 106.006 347.396C99.3147 344.404 99.2449 342.051 97.3302 338.73C96.8971 338.093 96.2494 337.633 95.5053 337.434Z" fill="#263238"/>
<path opacity="0.2" d="M88.2654 328.541L96.2433 332.57L99.2449 325.729L90.6488 321.48L88.2654 328.541Z" fill="#263238"/>
<path d="M124.375 185.336C124.375 185.336 113.655 193.523 115.949 219.172C116.168 221.546 116.946 224.029 116.946 226.741C116.946 228.546 116.447 229.813 115.859 233.871C115.001 239.775 113.426 261.794 111.76 264.656C110.095 267.518 109.417 267.01 104.78 274.908C99.7934 283.404 93.3114 298.303 88.2953 323.553C91.6446 325.917 95.4702 327.52 99.5042 328.25C99.5042 328.25 126.898 285.05 132.722 268.964C137.938 254.574 144.151 208.651 144.151 208.651L144.649 188.707L124.375 185.336Z" fill="#9C9C9C"/>
<path opacity="0.1" d="M136.103 219.172H128.344C128.344 219.172 125.791 243.584 134.228 263.948C135.106 260.677 135.993 256.758 136.861 252.519L140.221 231.019C139.743 227.389 139.374 224.617 139.314 224.437C139.144 223.869 136.103 219.172 136.103 219.172Z" fill="black"/>
<path d="M134.826 327.402L134.876 343.049L143.702 342.461L145.058 327.402H134.826Z" fill="#FFBDA7"/>
<path d="M144.719 342.192C144.675 342.187 144.634 342.167 144.602 342.137C144.569 342.106 144.548 342.066 144.539 342.023C144.529 341.979 144.533 341.933 144.551 341.891C144.569 341.85 144.6 341.816 144.639 341.793C144.779 341.713 147.9 339.799 149.446 340.138C149.734 340.202 149.987 340.373 150.154 340.617C150.257 340.751 150.317 340.913 150.326 341.083C150.335 341.252 150.292 341.419 150.204 341.564C149.437 342.139 148.488 342.419 147.531 342.352C146.591 342.383 145.65 342.33 144.719 342.192ZM145.417 341.883C147.122 342.033 149.406 341.933 149.835 341.325C149.895 341.245 149.944 341.115 149.775 340.846C149.729 340.768 149.665 340.701 149.589 340.651C149.513 340.6 149.426 340.568 149.336 340.557C149.201 340.537 149.063 340.537 148.927 340.557C147.682 340.765 146.489 341.216 145.417 341.883Z" fill="#9C9C9C"/>
<path d="M144.599 342.193C144.566 342.171 144.538 342.142 144.519 342.107C144.5 342.072 144.49 342.033 144.49 341.993C144.49 341.883 144.659 339.4 145.786 338.403C145.947 338.256 146.136 338.143 146.341 338.071C146.547 337.999 146.765 337.969 146.983 337.984C147.581 337.984 147.781 338.323 147.81 338.573C148.04 339.57 145.916 341.654 144.819 342.183C144.79 342.193 144.758 342.193 144.729 342.183C144.688 342.201 144.642 342.205 144.599 342.193ZM146.853 338.403C146.579 338.409 146.316 338.515 146.115 338.702C145.457 339.515 145.067 340.511 144.998 341.554C146.105 340.846 147.491 339.241 147.412 338.623C147.412 338.563 147.362 338.403 146.973 338.383H146.853V338.403Z" fill="#9C9C9C"/>
<path d="M143.742 340.945L133.769 341.304C133.587 341.312 133.413 341.381 133.276 341.501C133.138 341.62 133.045 341.783 133.011 341.962L131.496 350.159C131.428 350.507 131.502 350.867 131.7 351.161C131.898 351.454 132.205 351.657 132.553 351.725C132.649 351.735 132.746 351.735 132.842 351.725C136.442 351.525 139.633 351.216 144.121 351.067C149.416 350.877 148.11 351.555 154.322 351.426C158.082 351.336 158.611 347.048 157.015 346.898C149.705 346.24 148.868 344.066 145.966 341.563C145.327 341.088 144.534 340.868 143.742 340.945Z" fill="#263238"/>
<path opacity="0.2" d="M134.856 335.5L144.35 335.3L145.058 327.402H134.826L134.856 335.5Z" fill="#263238"/>
<path d="M130.349 182.496C130.349 182.496 119.648 196.667 127.576 224.38L136.552 264.858C136.552 264.858 128.035 283.267 132.563 331.832C136.951 332.449 141.41 332.348 145.766 331.533C145.766 331.533 155.738 280.245 157.244 262.923C158.91 243.836 157.912 186.306 157.912 186.306L130.349 182.496Z" fill="#9C9C9C"/>
<path d="M136.811 136.563C136.811 136.563 135.155 129.483 145.786 132.574C156.417 135.666 155.519 141.719 155.519 141.719L136.811 136.563Z" fill="#263238"/>
<path opacity="0.4" d="M136.811 136.563C136.811 136.563 135.155 129.483 145.786 132.574C156.417 135.666 155.519 141.719 155.519 141.719L136.811 136.563Z" fill="black"/>
<path d="M163.178 154.274C163.178 156.757 162.181 160.347 161.183 164.366C160.725 166.271 160.306 168.256 160.027 170.27C158.521 181.24 158.032 192.798 158.032 192.798C152.164 194.078 146.094 194.135 140.203 192.967C134.311 191.798 128.723 189.429 123.787 186.006C123.787 186.006 127.965 182.466 127.108 157.944C126.719 146.895 122.73 133.761 140.989 135.825C156.407 137.571 161.592 142.357 162.839 149.847C162.839 149.936 162.839 150.036 162.839 150.136L162.929 150.834C163.079 151.975 163.163 153.124 163.178 154.274Z" fill="#263238"/>
<path opacity="0.4" d="M163.178 154.275C163.178 156.758 162.181 160.348 161.183 164.367C157.015 159.38 152.836 149.957 152.836 149.957L156.277 144.891L162.34 147.713C162.55 148.413 162.716 149.126 162.839 149.847C162.839 149.937 162.839 150.036 162.839 150.136L162.928 150.834C163.079 151.975 163.163 153.124 163.178 154.275Z" fill="black"/>
<path d="M169.53 149.946C169.53 149.946 175.514 155.85 177.877 158.223L198.56 152.021C198.695 150.951 199.148 149.947 199.858 149.137C200.569 148.326 201.506 147.747 202.549 147.473L204.005 147.094L207.116 146.237C207.696 146.08 208.306 146.077 208.887 146.23C209.468 146.382 209.999 146.683 210.427 147.104C210.928 147.598 211.265 148.235 211.39 148.928C211.515 149.621 211.422 150.335 211.125 150.974C210.509 152.299 209.561 153.443 208.373 154.294C207.185 155.145 205.797 155.674 204.344 155.83L201.412 156.139C201.412 156.139 182.953 166.221 177.009 165.663C171.066 165.104 163.258 157.954 163.258 157.954L169.53 149.946Z" fill="#FFBDA7"/>
<path d="M154.671 139.204C159.777 139.952 164.993 144.011 173.09 151.171C171.172 155.176 168.214 158.592 164.524 161.064C164.524 161.064 159.807 158.999 154.183 151.849C147.382 143.193 151.58 138.745 154.671 139.204Z" fill="#263238"/>
</svg>
