<svg width="680" height="439" viewBox="0 0 680 439" fill="none" xmlns="http://www.w3.org/2000/svg">
<path d="M200.414 227.411H21.3965L34.6322 99.8867H215.166L200.414 227.411Z" fill="#F5F5F5"/>
<path d="M41.0795 206.011C40.9147 206.011 42.7711 186.811 45.2095 163.174C47.648 139.536 49.7569 120.336 49.9107 120.336C50.0644 120.336 48.2191 139.525 45.7807 163.174C43.3422 186.822 41.2333 206.022 41.0795 206.011Z" fill="#E0E0E0"/>
<path d="M73.6691 124.675C70.683 124.958 67.6822 125.053 64.6842 124.961C61.6862 125.053 58.6853 124.958 55.6992 124.675C58.6849 124.386 61.6862 124.29 64.6842 124.39C67.6822 124.29 70.6835 124.386 73.6691 124.675Z" fill="#E0E0E0"/>
<path d="M150.13 124.672C150.13 124.826 134.104 124.958 114.344 124.958C94.5836 124.958 78.5469 124.826 78.5469 124.672C78.5469 124.519 94.5726 124.387 114.344 124.387C134.115 124.387 150.13 124.508 150.13 124.672Z" fill="#E0E0E0"/>
<path d="M71.55 169.984C68.5643 170.273 65.563 170.369 62.565 170.269C59.567 170.369 56.5657 170.273 53.5801 169.984C56.5661 169.701 59.567 169.606 62.565 169.698C65.563 169.606 68.5639 169.701 71.55 169.984Z" fill="#E0E0E0"/>
<path d="M148.009 169.981C148.009 170.146 131.983 170.266 112.223 170.266C92.4625 170.266 76.4258 170.146 76.4258 169.981C76.4258 169.816 92.4515 169.695 112.223 169.695C131.994 169.695 148.009 169.827 148.009 169.981Z" fill="#E0E0E0"/>
<path d="M123.625 190.93C123.625 191.095 107.599 191.216 87.839 191.216C68.0787 191.216 52.042 191.095 52.042 190.93C52.042 190.765 68.0677 190.645 87.839 190.645C107.61 190.645 123.625 190.721 123.625 190.93Z" fill="#E0E0E0"/>
<path d="M81.589 137.472C81.589 137.626 75.9322 137.758 68.9463 137.758C61.9605 137.758 56.3037 137.626 56.3037 137.472C56.3037 137.319 61.9715 137.176 68.9463 137.176C75.9212 137.176 81.589 137.308 81.589 137.472Z" fill="#E0E0E0"/>
<path d="M80.9522 156.219C80.9522 156.384 75.2845 156.505 68.3096 156.505C61.3348 156.505 55.667 156.384 55.667 156.219C55.667 156.054 61.3238 155.934 68.3096 155.934C75.2955 155.934 80.9522 156.065 80.9522 156.219Z" fill="#E0E0E0"/>
<path d="M102.326 183.032C102.326 183.185 96.6585 183.317 89.6836 183.317C82.7088 183.317 77.041 183.185 77.041 183.032C77.041 182.878 82.6978 182.746 89.6836 182.746C96.6695 182.746 102.326 182.867 102.326 183.032Z" fill="#E0E0E0"/>
<path d="M173.548 137.472C173.548 137.626 159.093 137.758 141.255 137.758C123.417 137.758 108.951 137.626 108.951 137.472C108.951 137.319 123.417 137.176 141.255 137.176C159.093 137.176 173.548 137.308 173.548 137.472Z" fill="#E0E0E0"/>
<path d="M153.634 157.309C153.634 157.474 139.179 157.595 121.341 157.595C103.503 157.595 89.0479 157.474 89.0479 157.309C89.0479 157.144 103.503 157.023 121.341 157.023C139.179 157.023 153.634 157.155 153.634 157.309Z" fill="#E0E0E0"/>
<path d="M175.865 183.032C175.865 183.185 161.399 183.317 143.572 183.317C125.745 183.317 111.268 183.185 111.268 183.032C111.268 182.878 125.734 182.746 143.572 182.746C161.41 182.746 175.865 182.867 175.865 183.032Z" fill="#E0E0E0"/>
<path d="M116.892 206.012C116.892 206.166 102.426 206.298 84.588 206.298C66.7499 206.298 52.2949 206.166 52.2949 206.012C52.2949 205.858 66.7499 205.727 84.588 205.727C102.426 205.727 116.892 205.847 116.892 206.012Z" fill="#E0E0E0"/>
<path d="M188.321 206.012C188.321 206.166 173.855 206.298 156.028 206.298C138.201 206.298 123.724 206.166 123.724 206.012C123.724 205.858 138.179 205.727 156.028 205.727C173.877 205.727 188.321 205.847 188.321 206.012Z" fill="#E0E0E0"/>
<path d="M116.88 213.481C116.88 213.646 102.425 213.767 84.5872 213.767C66.7492 213.767 52.2832 213.646 52.2832 213.481C52.2832 213.316 66.7492 213.195 84.5872 213.195C102.425 213.195 116.88 213.327 116.88 213.481Z" fill="#E0E0E0"/>
<path d="M120.023 142.852C120.023 143.006 105.568 143.138 87.7298 143.138C69.8917 143.138 55.4258 143.006 55.4258 142.852C55.4258 142.698 69.8917 142.566 87.7298 142.566C105.568 142.566 120.023 142.687 120.023 142.852Z" fill="#E0E0E0"/>
<path d="M102.799 137.538C100.037 137.821 97.259 137.917 94.4841 137.824C91.7055 137.917 88.9239 137.821 86.1582 137.538C88.9234 137.249 91.7055 137.154 94.4841 137.253C97.259 137.154 100.037 137.249 102.799 137.538Z" fill="#E0E0E0"/>
<path d="M69.4406 176.148C66.6749 176.431 63.8933 176.526 61.1147 176.434C58.3398 176.526 55.5618 176.431 52.7998 176.148C55.5618 175.865 58.3398 175.77 61.1147 175.862C63.8933 175.77 66.6749 175.865 69.4406 176.148Z" fill="#E0E0E0"/>
<path d="M69.0451 183.031C66.2831 183.313 63.5051 183.409 60.7302 183.316C57.9516 183.409 55.17 183.313 52.4043 183.031C55.1695 182.741 57.9516 182.646 60.7302 182.745C63.5051 182.646 66.2835 182.741 69.0451 183.031Z" fill="#E0E0E0"/>
<path d="M213.188 113.372C213.188 113.536 172.932 113.657 123.284 113.657C73.6359 113.657 33.3574 113.536 33.3574 113.372C33.3574 113.207 73.6139 113.086 123.284 113.086C172.953 113.086 213.188 113.218 213.188 113.372Z" fill="#E0E0E0"/>
<path d="M45.4952 109.43C46.672 109.43 47.6261 108.476 47.6261 107.299C47.6261 106.122 46.672 105.168 45.4952 105.168C44.3183 105.168 43.3643 106.122 43.3643 107.299C43.3643 108.476 44.3183 109.43 45.4952 109.43Z" fill="white"/>
<path d="M54.6456 109.43C55.8224 109.43 56.7765 108.476 56.7765 107.299C56.7765 106.122 55.8224 105.168 54.6456 105.168C53.4687 105.168 52.5146 106.122 52.5146 107.299C52.5146 108.476 53.4687 109.43 54.6456 109.43Z" fill="white"/>
<path d="M63.795 109.43C64.9718 109.43 65.9259 108.476 65.9259 107.299C65.9259 106.122 64.9718 105.168 63.795 105.168C62.6181 105.168 61.6641 106.122 61.6641 107.299C61.6641 108.476 62.6181 109.43 63.795 109.43Z" fill="white"/>
<path d="M665.248 163.646H486.23L499.466 36.1328H680L665.248 163.646Z" fill="#F5F5F5"/>
<path d="M505.913 142.25C505.759 142.25 507.605 123.05 510.043 99.4126C512.482 75.775 514.591 56.5749 514.744 56.6408C514.898 56.7067 513.053 75.8299 510.614 99.4785C508.176 123.127 506.067 142.261 505.913 142.25Z" fill="#E0E0E0"/>
<path d="M538.503 60.9106C532.519 61.2914 526.517 61.2914 520.533 60.9106C526.517 60.5298 532.519 60.5298 538.503 60.9106Z" fill="#E0E0E0"/>
<path d="M614.973 60.9106C614.973 61.0644 598.947 61.1962 579.176 61.1962C559.405 61.1962 543.379 61.0644 543.379 60.9106C543.379 60.7568 559.405 60.625 579.176 60.625C598.947 60.625 614.973 60.7568 614.973 60.9106Z" fill="#E0E0E0"/>
<path d="M536.393 106.231C530.405 106.611 524.4 106.611 518.412 106.231C524.4 105.85 530.405 105.85 536.393 106.231Z" fill="#E0E0E0"/>
<path d="M612.908 106.231C612.908 106.385 596.883 106.516 577.111 106.516C557.34 106.516 541.314 106.385 541.314 106.231C541.314 106.077 557.34 105.945 577.111 105.945C596.883 105.945 612.908 106.066 612.908 106.231Z" fill="#E0E0E0"/>
<path d="M588.469 127.125C588.469 127.279 572.443 127.411 552.672 127.411C532.901 127.411 516.875 127.279 516.875 127.125C516.875 126.972 532.901 126.84 552.672 126.84C572.443 126.84 588.469 126.961 588.469 127.125Z" fill="#E0E0E0"/>
<path d="M546.434 73.706C546.434 73.8598 540.766 73.9916 533.791 73.9916C526.816 73.9916 521.148 73.8598 521.148 73.706C521.148 73.5522 526.805 73.3984 533.824 73.3984C540.843 73.3984 546.434 73.5412 546.434 73.706Z" fill="#E0E0E0"/>
<path d="M545.785 92.4575C545.785 92.6222 540.128 92.743 533.143 92.743C526.157 92.743 520.5 92.6222 520.5 92.4575C520.5 92.2927 526.157 92.1719 533.143 92.1719C540.128 92.1719 545.785 92.3037 545.785 92.4575Z" fill="#E0E0E0"/>
<path d="M567.16 119.27C567.16 119.424 561.503 119.556 554.518 119.556C547.532 119.556 541.875 119.424 541.875 119.27C541.875 119.116 547.532 118.984 554.518 118.984C561.503 118.984 567.16 119.116 567.16 119.27Z" fill="#E0E0E0"/>
<path d="M638.413 73.7075C638.413 73.8612 623.948 73.993 606.109 73.993C588.271 73.993 573.816 73.8612 573.816 73.7075C573.816 73.5537 588.271 73.4219 606.109 73.4219C623.948 73.4219 638.413 73.5427 638.413 73.7075Z" fill="#E0E0E0"/>
<path d="M618.478 93.5473C618.478 93.7121 604.012 93.8329 586.174 93.8329C568.336 93.8329 553.881 93.7121 553.881 93.5473C553.881 93.3825 568.336 93.2617 586.174 93.2617C604.012 93.2617 618.478 93.3935 618.478 93.5473Z" fill="#E0E0E0"/>
<path d="M640.698 119.27C640.698 119.424 626.243 119.556 608.405 119.556C590.567 119.556 576.112 119.424 576.112 119.27C576.112 119.116 590.567 118.984 608.405 118.984C626.243 118.984 640.698 119.116 640.698 119.27Z" fill="#E0E0E0"/>
<path d="M581.724 142.25C581.724 142.404 567.258 142.536 549.431 142.536C531.604 142.536 517.127 142.404 517.127 142.25C517.127 142.097 531.582 141.965 549.431 141.965C567.28 141.965 581.724 142.086 581.724 142.25Z" fill="#E0E0E0"/>
<path d="M653.155 142.25C653.155 142.404 638.7 142.536 620.862 142.536C603.024 142.536 588.558 142.404 588.558 142.25C588.558 142.097 603.024 141.965 620.862 141.965C638.7 141.965 653.155 142.086 653.155 142.25Z" fill="#E0E0E0"/>
<path d="M581.713 149.719C581.713 149.884 567.258 150.005 549.42 150.005C531.582 150.005 517.127 149.884 517.127 149.719C517.127 149.554 531.582 149.434 549.42 149.434C567.258 149.434 581.713 149.565 581.713 149.719Z" fill="#E0E0E0"/>
<path d="M584.867 79.0903C584.867 79.244 570.401 79.3759 552.563 79.3759C534.725 79.3759 520.27 79.244 520.27 79.0903C520.27 78.9365 534.725 78.8047 552.563 78.8047C570.401 78.8047 584.867 78.8926 584.867 79.0903Z" fill="#E0E0E0"/>
<path d="M567.632 73.7739C562.095 74.1547 556.539 74.1547 551.002 73.7739C556.539 73.3931 562.095 73.3931 567.632 73.7739Z" fill="#E0E0E0"/>
<path d="M534.275 112.383C528.734 112.764 523.174 112.764 517.634 112.383C523.174 112.002 528.734 112.002 534.275 112.383Z" fill="#E0E0E0"/>
<path d="M533.879 119.27C528.342 119.651 522.786 119.651 517.249 119.27C522.786 118.889 528.342 118.889 533.879 119.27Z" fill="#E0E0E0"/>
<path d="M678.033 49.6098C678.033 49.7746 637.765 49.8954 588.117 49.8954C538.47 49.8954 498.202 49.7746 498.202 49.6098C498.202 49.445 538.448 49.3242 588.117 49.3242C637.787 49.3242 678.033 49.456 678.033 49.6098Z" fill="#E0E0E0"/>
<path d="M510.329 45.6681C511.506 45.6681 512.46 44.714 512.46 43.5371C512.46 42.3603 511.506 41.4062 510.329 41.4062C509.152 41.4062 508.198 42.3603 508.198 43.5371C508.198 44.714 509.152 45.6681 510.329 45.6681Z" fill="white"/>
<path d="M519.479 45.6681C520.655 45.6681 521.609 44.714 521.609 43.5371C521.609 42.3603 520.655 41.4062 519.479 41.4062C518.302 41.4062 517.348 42.3603 517.348 43.5371C517.348 44.714 518.302 45.6681 519.479 45.6681Z" fill="white"/>
<path d="M528.629 45.6681C529.806 45.6681 530.76 44.714 530.76 43.5371C530.76 42.3603 529.806 41.4062 528.629 41.4062C527.452 41.4062 526.498 42.3603 526.498 43.5371C526.498 44.714 527.452 45.6681 528.629 45.6681Z" fill="white"/>
<path d="M289.78 80.3865H178.281L186.519 0.960938H298.963L289.78 80.3865Z" fill="#EBEBEB"/>
<path d="M190.54 67.0509C190.386 67.0509 191.484 55.0893 193 40.3707C194.516 25.6521 195.878 13.7234 196.043 13.7344C196.208 13.7454 195.098 25.707 193.571 40.4256C192.045 55.1442 190.694 67.0728 190.54 67.0509Z" fill="#E0E0E0"/>
<path d="M210.894 16.395C207.173 16.7758 203.422 16.7758 199.701 16.395C203.422 16.0142 207.173 16.0142 210.894 16.395Z" fill="#E0E0E0"/>
<path d="M258.464 16.395C258.464 16.5597 248.48 16.6805 236.167 16.6805C223.854 16.6805 213.869 16.5597 213.869 16.395C213.869 16.2302 223.854 16.1094 236.167 16.1094C248.48 16.1094 258.464 16.2851 258.464 16.395Z" fill="#E0E0E0"/>
<path d="M209.52 44.6215C205.799 45.0023 202.048 45.0023 198.327 44.6215C202.048 44.2407 205.799 44.2407 209.52 44.6215Z" fill="#E0E0E0"/>
<path d="M257.147 44.6215C257.147 44.7753 247.162 44.9071 234.849 44.9071C222.536 44.9071 212.552 44.7753 212.552 44.6215C212.552 44.4677 222.536 44.3359 234.849 44.3359C247.162 44.3359 257.147 44.4677 257.147 44.6215Z" fill="#E0E0E0"/>
<path d="M241.955 57.6254C241.955 57.7902 231.971 57.911 219.658 57.911C207.345 57.911 197.371 57.7902 197.371 57.6254C197.371 57.4607 207.345 57.3398 219.658 57.3398C231.971 57.3398 241.955 57.4717 241.955 57.6254Z" fill="#E0E0E0"/>
<path d="M215.77 24.3666C213.155 24.6492 210.523 24.7446 207.895 24.6521C205.27 24.7448 202.642 24.6494 200.03 24.3666C202.641 24.0771 205.27 23.9816 207.895 24.081C210.523 23.9819 213.156 24.0774 215.77 24.3666Z" fill="#E0E0E0"/>
<path d="M215.374 36.0541C212.76 36.3433 210.127 36.4387 207.499 36.3397C204.87 36.4387 202.238 36.3433 199.623 36.0541C202.238 35.7715 204.87 35.676 207.499 35.7685C210.127 35.676 212.759 35.7715 215.374 36.0541Z" fill="#E0E0E0"/>
<path d="M228.687 52.7377C226.072 53.0269 223.44 53.1223 220.811 53.0233C218.182 53.1223 215.55 53.0269 212.936 52.7377C215.551 52.4551 218.182 52.3596 220.811 52.4521C223.44 52.3596 226.072 52.4551 228.687 52.7377Z" fill="#E0E0E0"/>
<path d="M273.062 24.3637C273.062 24.5175 264.055 24.6493 252.95 24.6493C241.845 24.6493 232.86 24.5175 232.86 24.3637C232.86 24.2099 241.867 24.0781 252.983 24.0781C264.099 24.0781 273.062 24.199 273.062 24.3637Z" fill="#E0E0E0"/>
<path d="M260.64 36.727C260.64 36.8808 251.633 37.0126 240.528 37.0126C229.423 37.0126 220.416 36.8808 220.416 36.727C220.416 36.5732 229.423 36.4414 240.528 36.4414C251.633 36.4414 260.64 36.5732 260.64 36.727Z" fill="#E0E0E0"/>
<path d="M274.49 52.7387C274.49 52.9035 265.483 53.0243 254.379 53.0243C243.274 53.0243 234.256 52.9035 234.256 52.7387C234.256 52.574 243.263 52.4531 254.379 52.4531C265.494 52.4531 274.49 52.5849 274.49 52.7387Z" fill="#E0E0E0"/>
<path d="M237.76 67.0512C237.76 67.216 228.753 67.3368 217.637 67.3368C206.521 67.3368 197.525 67.216 197.525 67.0512C197.525 66.8864 206.532 66.7656 217.637 66.7656C228.742 66.7656 237.76 66.8974 237.76 67.0512Z" fill="#E0E0E0"/>
<path d="M282.289 67.0512C282.289 67.216 273.282 67.3368 262.177 67.3368C251.073 67.3368 242.055 67.216 242.055 67.0512C242.055 66.8864 251.062 66.7656 262.177 66.7656C273.293 66.7656 282.289 66.8974 282.289 67.0512Z" fill="#E0E0E0"/>
<path d="M237.749 71.7075C237.749 71.8722 228.742 71.993 217.637 71.993C206.532 71.993 197.525 71.8722 197.525 71.7075C197.525 71.5427 206.521 71.4219 217.637 71.4219C228.753 71.4219 237.749 71.5537 237.749 71.7075Z" fill="#E0E0E0"/>
<path d="M239.704 27.7192C239.704 27.8839 230.697 28.0048 219.592 28.0048C208.487 28.0048 199.48 27.8839 199.48 27.7192C199.48 27.5544 208.487 27.4336 219.592 27.4336C230.697 27.4336 239.704 27.5654 239.704 27.7192Z" fill="#E0E0E0"/>
<path d="M228.984 24.4143C225.538 24.7949 222.061 24.7949 218.615 24.4143C222.061 24.0338 225.538 24.0338 228.984 24.4143Z" fill="#E0E0E0"/>
<path d="M208.203 48.4575C204.761 48.8383 201.287 48.8383 197.845 48.4575C201.287 48.0767 204.761 48.0767 208.203 48.4575Z" fill="#E0E0E0"/>
<path d="M207.961 52.7385C204.515 53.1191 201.038 53.1191 197.592 52.7385C201.038 52.358 204.515 52.358 207.961 52.7385Z" fill="#E0E0E0"/>
<path d="M297.732 9.3637C297.732 9.51748 272.667 9.64929 241.714 9.64929C210.761 9.64929 185.695 9.51748 185.695 9.3637C185.695 9.20993 210.761 9.07812 241.714 9.07812C272.667 9.07812 297.732 9.19894 297.732 9.3637Z" fill="#E0E0E0"/>
<path d="M194.614 5.57261C194.606 5.83482 194.52 6.08856 194.367 6.30189C194.214 6.51521 194.002 6.67858 193.756 6.77139C193.511 6.86421 193.244 6.88233 192.988 6.82347C192.732 6.76461 192.5 6.6314 192.32 6.44063C192.14 6.24986 192.02 6.01005 191.976 5.75143C191.932 5.4928 191.965 5.22692 192.072 4.98729C192.179 4.74766 192.354 4.54499 192.576 4.40482C192.798 4.26465 193.056 4.19325 193.318 4.19961C193.494 4.20386 193.667 4.24285 193.827 4.31431C193.987 4.38577 194.132 4.48828 194.253 4.61594C194.373 4.7436 194.467 4.89387 194.529 5.05807C194.591 5.22227 194.62 5.39716 194.614 5.57261Z" fill="white"/>
<path d="M200.316 5.57222C200.307 5.83304 200.222 6.08555 200.071 6.29826C199.919 6.51097 199.709 6.67446 199.465 6.76836C199.222 6.86225 198.956 6.88237 198.701 6.82624C198.447 6.7701 198.214 6.64018 198.032 6.45268C197.851 6.26517 197.729 6.02838 197.681 5.77184C197.633 5.51529 197.662 5.25035 197.763 5.01004C197.865 4.76973 198.035 4.5647 198.253 4.42051C198.47 4.27632 198.726 4.19936 198.987 4.19922C199.165 4.19912 199.341 4.2349 199.506 4.30442C199.67 4.37395 199.818 4.47579 199.942 4.6039C200.066 4.732 200.163 4.88375 200.227 5.05011C200.291 5.21646 200.322 5.39403 200.316 5.57222Z" fill="white"/>
<path d="M206.016 5.57222C206.007 5.83304 205.922 6.08555 205.771 6.29826C205.62 6.51097 205.409 6.67446 205.166 6.76836C204.922 6.86225 204.656 6.88237 204.402 6.82624C204.147 6.7701 203.914 6.64018 203.733 6.45268C203.551 6.26517 203.429 6.02838 203.381 5.77184C203.333 5.51529 203.362 5.25035 203.464 5.01004C203.565 4.76973 203.736 4.5647 203.953 4.42051C204.171 4.27632 204.426 4.19936 204.687 4.19922C204.865 4.19912 205.042 4.2349 205.206 4.30442C205.37 4.37395 205.518 4.47579 205.642 4.6039C205.766 4.732 205.863 4.88375 205.928 5.05011C205.992 5.21646 206.022 5.39403 206.016 5.57222Z" fill="white"/>
<path d="M592.808 218.992H536.657V400.734H592.808V218.992Z" fill="#EBEBEB"/>
<path d="M640.479 219.027H592.809V400.703H640.479V219.027Z" fill="#E0E0E0"/>
<path d="M586.087 226.352H541.041V265.499H586.087V226.352Z" fill="#E0E0E0"/>
<path d="M586.087 269.938H541.041V309.085H586.087V269.938Z" fill="#E0E0E0"/>
<path d="M586.087 313.523H541.041V352.671H586.087V313.523Z" fill="#E0E0E0"/>
<path d="M586.087 357.117H541.041V396.264H586.087V357.117Z" fill="#E0E0E0"/>
<path d="M563.568 233.583C563.57 233.894 563.48 234.199 563.309 234.459C563.138 234.719 562.893 234.922 562.606 235.042C562.319 235.163 562.003 235.195 561.698 235.136C561.392 235.077 561.112 234.928 560.891 234.709C560.67 234.489 560.519 234.21 560.458 233.905C560.396 233.6 560.427 233.283 560.545 232.996C560.664 232.708 560.865 232.462 561.124 232.289C561.382 232.116 561.686 232.023 561.997 232.023C562.412 232.023 562.81 232.187 563.104 232.48C563.399 232.772 563.565 233.168 563.568 233.583Z" fill="#FAFAFA"/>
<path d="M563.568 277.704C563.57 278.015 563.48 278.32 563.309 278.58C563.138 278.84 562.893 279.043 562.606 279.163C562.319 279.284 562.003 279.316 561.698 279.257C561.392 279.198 561.112 279.049 560.891 278.83C560.67 278.611 560.519 278.331 560.458 278.026C560.396 277.721 560.427 277.404 560.545 277.117C560.664 276.829 560.865 276.583 561.124 276.41C561.382 276.237 561.686 276.145 561.997 276.145C562.412 276.145 562.81 276.309 563.104 276.601C563.399 276.893 563.565 277.29 563.568 277.704Z" fill="#FAFAFA"/>
<path d="M563.568 321.774C563.568 322.084 563.476 322.388 563.303 322.646C563.131 322.905 562.886 323.106 562.599 323.225C562.312 323.344 561.996 323.375 561.691 323.314C561.386 323.254 561.106 323.104 560.887 322.885C560.667 322.665 560.518 322.385 560.457 322.08C560.396 321.776 560.427 321.46 560.546 321.173C560.665 320.886 560.867 320.64 561.125 320.468C561.383 320.295 561.687 320.203 561.997 320.203C562.414 320.203 562.814 320.369 563.108 320.663C563.403 320.958 563.568 321.357 563.568 321.774Z" fill="#FAFAFA"/>
<path d="M563.568 365.861C563.57 366.172 563.48 366.476 563.309 366.736C563.138 366.996 562.893 367.199 562.606 367.319C562.319 367.44 562.003 367.473 561.698 367.413C561.392 367.354 561.112 367.205 560.891 366.986C560.67 366.767 560.519 366.487 560.458 366.182C560.396 365.877 560.427 365.561 560.545 365.273C560.664 364.985 560.865 364.739 561.124 364.566C561.382 364.393 561.686 364.301 561.997 364.301C562.412 364.301 562.81 364.465 563.104 364.757C563.399 365.049 563.565 365.446 563.568 365.861Z" fill="#FAFAFA"/>
<path d="M543.149 400.734H536.657V437.19H543.149V400.734Z" fill="#E0E0E0"/>
<path d="M592.577 400.734H586.086V437.19H592.577V400.734Z" fill="#E0E0E0"/>
<path d="M639.776 400.734H633.284V437.19H639.776V400.734Z" fill="#E0E0E0"/>
<path d="M64.9599 426.898C63.3013 425.481 59.5887 420.978 62.4446 415.738C63.543 413.827 65.7398 412.871 67.7499 412.026C69.8219 411.326 71.7769 410.319 73.5494 409.038C76.7019 406.369 77.5696 401.931 79.6566 398.372C82.0621 394.297 86.5436 391.233 91.2777 391.453C96.6928 391.694 101.163 396.099 103.261 401.118C105.359 406.138 105.381 411.718 105.458 417.144C105.458 420.143 105.348 423.526 103.129 425.558C101.097 427.425 98.0219 427.447 95.2539 427.359L65.597 426.459" fill="#F5F5F5"/>
<path d="M121.605 345.805H43.7168L57.7544 429.075C58.0391 430.807 58.8094 432.424 59.976 433.736C61.1426 435.048 62.6575 436.003 64.3448 436.489L64.6194 436.566C64.847 436.636 65.0779 436.695 65.3114 436.742C65.8671 436.869 66.4333 436.947 67.0029 436.972V437.049L67.3874 436.994H102.097C102.739 436.99 103.379 436.924 104.008 436.796C106.031 436.49 107.898 435.528 109.321 434.057C110.744 432.587 111.644 430.689 111.884 428.657L118.628 371.277L118.935 368.992L121.605 346.266V345.805ZM106.908 398.923H98.9225L99.7244 374.759H108.984L106.908 398.923ZM109.764 374.759H117.453L114.597 398.923H107.644L109.764 374.759ZM86.928 425.714L86.4447 404.723H97.9559L97.253 425.714H86.928ZM74.4831 404.723H85.6758L86.1701 425.714H76.1197L74.4831 404.723ZM75.3508 425.714H65.9704C65.0807 420.046 63.9164 412.675 62.6752 404.723H73.7252L75.3508 425.714ZM74.0327 398.923L72.1435 374.759H84.9728L85.533 398.923H74.0327ZM86.3129 398.923L85.7527 374.759H98.9335L98.1207 398.923H86.3129ZM85.6099 368.959L85.0936 346.574H99.8891L99.1422 368.959H85.6099ZM84.841 368.959H71.6602L69.9137 346.574H84.2918L84.841 368.959ZM70.9133 368.959H57.0075C56.5132 365.872 56.0409 362.94 55.6235 360.315C54.1736 351.264 53.6244 347.859 53.3278 346.574H69.1997L70.9133 368.959ZM71.3746 374.759L73.2529 398.923H61.7526C61.3681 396.474 60.9727 393.992 60.5773 391.509C59.6766 385.809 58.7759 380.097 57.9301 374.759H71.3746ZM60.9727 398.923H53.4487L49.3846 374.759H57.1173L60.9727 398.923ZM61.8844 404.723C62.9828 411.983 64.1581 419.145 65.1796 425.714H57.9521L54.4152 404.723H61.8844ZM98.0219 425.714L98.7248 404.723H106.414L104.612 425.714H98.0219ZM99.955 368.992L100.702 346.607H111.433L109.522 368.992H99.955ZM52.6248 346.607C52.9324 348.232 54.3493 357.041 56.2606 368.992H48.4399L44.6614 346.607H52.6248ZM111.444 425.692H105.447L107.248 404.701H113.938L111.444 425.692ZM118.134 368.937H110.291L112.213 346.552H120.77L118.134 368.937Z" fill="#E0E0E0"/>
<path d="M634.877 437.184C634.877 437.349 492.722 437.47 317.439 437.47C142.155 437.47 0 437.349 0 437.184C0 437.019 142.122 436.898 317.493 436.898C492.865 436.898 634.877 437.03 634.877 437.184Z" fill="#263238"/>
<path d="M354.982 199.586H233.169L242.176 112.812H365.021L354.982 199.586Z" fill="#263238"/>
<path d="M348.787 199.586H226.963L235.97 112.812H358.815L348.787 199.586Z" fill="#455A64"/>
<path d="M344.261 195.661H231.225L239.583 115.148H353.576L344.261 195.661Z" fill="#F5F5F5"/>
<path d="M243.483 182.232C243.318 182.232 244.438 170.095 245.987 155.178C247.536 140.262 248.898 128.158 249.052 128.18C249.206 128.202 248.096 140.262 246.547 155.233C244.999 170.205 243.637 182.243 243.483 182.232Z" fill="#263238"/>
<path d="M264.055 130.875C260.283 131.256 256.482 131.256 252.709 130.875C256.482 130.495 260.283 130.495 264.055 130.875Z" fill="#263238"/>
<path d="M312.342 130.875C312.342 131.029 302.226 131.161 289.737 131.161C277.248 131.161 267.143 131.029 267.143 130.875C267.143 130.722 277.259 130.59 289.737 130.59C302.215 130.59 312.342 130.722 312.342 130.875Z" fill="#004E9E"/>
<path d="M262.727 159.489C258.95 159.87 255.145 159.87 251.369 159.489C255.145 159.108 258.95 159.108 262.727 159.489Z" fill="#263238"/>
<path d="M311.001 159.489C311.001 159.653 300.885 159.774 288.407 159.774C275.929 159.774 265.802 159.653 265.802 159.489C265.802 159.324 275.918 159.203 288.407 159.203C300.896 159.203 311.001 159.335 311.001 159.489Z" fill="#004E9E"/>
<path d="M295.602 172.68C295.602 172.834 285.485 172.966 273.007 172.966C260.53 172.966 250.402 172.834 250.402 172.68C250.402 172.526 260.519 172.395 273.007 172.395C285.496 172.395 295.602 172.526 295.602 172.68Z" fill="#004E9E"/>
<path d="M269.108 138.945C266.458 139.241 263.789 139.34 261.123 139.241C258.458 139.34 255.788 139.241 253.138 138.945C255.789 138.662 258.458 138.567 261.123 138.659C263.788 138.567 266.457 138.662 269.108 138.945Z" fill="#004E9E"/>
<path d="M268.658 150.8C266.006 151.082 263.338 151.178 260.673 151.085C258.008 151.178 255.339 151.082 252.688 150.8C255.339 150.511 258.008 150.415 260.673 150.514C263.338 150.415 266.007 150.511 268.658 150.8Z" fill="#004E9E"/>
<path d="M282.157 167.726C279.506 168.008 276.837 168.104 274.172 168.012C271.507 168.104 268.838 168.009 266.187 167.726C268.838 167.436 271.507 167.341 274.172 167.44C276.837 167.342 279.506 167.437 282.157 167.726Z" fill="#004E9E"/>
<path d="M327.137 138.946C327.137 139.11 318.009 139.242 306.751 139.242C295.492 139.242 286.354 139.11 286.354 138.946C286.354 138.781 295.481 138.66 306.751 138.66C318.02 138.66 327.137 138.792 327.137 138.946Z" fill="#263238"/>
<path d="M314.55 151.481C314.55 151.646 305.423 151.766 294.164 151.766C282.905 151.766 273.767 151.646 273.767 151.481C273.767 151.316 282.894 151.195 294.164 151.195C305.434 151.195 314.55 151.327 314.55 151.481Z" fill="#263238"/>
<path d="M328.587 167.727C328.587 167.881 319.459 168.013 308.201 168.013C296.942 168.013 287.781 167.87 287.781 167.727C287.781 167.584 296.909 167.441 308.179 167.441C319.448 167.441 328.587 167.562 328.587 167.727Z" fill="#263238"/>
<path d="M291.351 182.235C291.351 182.389 282.213 182.52 270.954 182.52C259.695 182.52 250.557 182.389 250.557 182.235C250.557 182.081 259.695 181.949 270.954 181.949C282.213 181.949 291.351 182.07 291.351 182.235Z" fill="#263238"/>
<path d="M336.452 182.235C336.452 182.389 327.324 182.52 316.065 182.52C304.807 182.52 295.668 182.389 295.668 182.235C295.668 182.081 304.796 181.949 316.065 181.949C327.335 181.949 336.452 182.07 336.452 182.235Z" fill="#263238"/>
<path d="M291.34 186.946C291.34 187.11 282.213 187.231 270.954 187.231C259.695 187.231 250.557 187.11 250.557 186.946C250.557 186.781 259.684 186.66 270.954 186.66C282.224 186.66 291.34 186.792 291.34 186.946Z" fill="#263238"/>
<path d="M293.329 142.356C293.329 142.51 284.201 142.641 272.942 142.641C261.684 142.641 252.545 142.51 252.545 142.356C252.545 142.202 261.673 142.07 272.942 142.07C284.212 142.07 293.329 142.202 293.329 142.356Z" fill="#263238"/>
<path d="M282.453 139.004C278.96 139.384 275.435 139.384 271.941 139.004C275.434 138.608 278.96 138.608 282.453 139.004Z" fill="#455A64"/>
<path d="M261.42 163.375C257.93 163.756 254.409 163.756 250.919 163.375C254.409 162.995 257.93 162.995 261.42 163.375Z" fill="#455A64"/>
<path d="M261.134 167.727C257.644 168.108 254.123 168.108 250.633 167.727C254.123 167.346 257.644 167.346 261.134 167.727Z" fill="#455A64"/>
<path d="M352.159 123.746C352.159 123.9 326.742 124.031 295.383 124.031C264.023 124.031 238.606 123.9 238.606 123.746C238.606 123.592 264.023 123.449 295.383 123.449C326.742 123.449 352.159 123.581 352.159 123.746Z" fill="#263238"/>
<path d="M247.613 119.902C247.613 120.17 247.534 120.431 247.385 120.654C247.236 120.876 247.024 121.049 246.777 121.151C246.529 121.253 246.257 121.279 245.995 121.226C245.732 121.173 245.491 121.043 245.303 120.853C245.114 120.663 244.987 120.421 244.936 120.159C244.885 119.896 244.913 119.624 245.017 119.377C245.121 119.131 245.296 118.92 245.52 118.773C245.743 118.626 246.005 118.549 246.273 118.551C246.45 118.551 246.625 118.586 246.789 118.654C246.952 118.722 247.1 118.822 247.225 118.947C247.349 119.073 247.448 119.222 247.514 119.386C247.581 119.55 247.615 119.725 247.613 119.902Z" fill="white"/>
<path d="M253.391 119.902C253.391 120.17 253.311 120.431 253.162 120.654C253.013 120.876 252.801 121.049 252.554 121.151C252.306 121.253 252.034 121.279 251.772 121.226C251.509 121.173 251.269 121.043 251.08 120.853C250.892 120.663 250.764 120.421 250.713 120.159C250.662 119.896 250.691 119.624 250.794 119.377C250.898 119.131 251.073 118.92 251.297 118.773C251.521 118.626 251.783 118.549 252.05 118.551C252.227 118.551 252.403 118.586 252.566 118.654C252.729 118.722 252.877 118.822 253.002 118.947C253.127 119.073 253.225 119.222 253.292 119.386C253.358 119.55 253.392 119.725 253.391 119.902Z" fill="white"/>
<path d="M259.223 119.902C259.223 120.17 259.143 120.431 258.994 120.654C258.845 120.876 258.634 121.049 258.386 121.151C258.138 121.253 257.866 121.279 257.604 121.226C257.342 121.173 257.101 121.043 256.912 120.853C256.724 120.663 256.596 120.421 256.545 120.159C256.494 119.896 256.523 119.624 256.627 119.377C256.73 119.131 256.905 118.92 257.129 118.773C257.353 118.626 257.615 118.549 257.883 118.551C258.059 118.551 258.235 118.586 258.398 118.654C258.561 118.722 258.709 118.822 258.834 118.947C258.959 119.073 259.057 119.222 259.124 119.386C259.19 119.55 259.224 119.725 259.223 119.902Z" fill="white"/>
<path d="M515.008 202.226H386.868L396.336 110.938H525.575L515.008 202.226Z" fill="#263238"/>
<path d="M508.483 202.226H380.344L389.823 110.938H519.05L508.483 202.226Z" fill="#455A64"/>
<path d="M503.738 198.085H384.836L393.623 113.387H513.536L503.738 198.085Z" fill="#EBEBEB"/>
<path d="M397.787 182.685C397.633 182.685 398.819 169.922 400.434 154.226C402.049 138.53 403.499 125.81 403.652 125.832C403.806 125.854 402.62 138.585 401.005 154.292C399.391 169.999 397.941 182.696 397.787 182.685Z" fill="#263238"/>
<path d="M419.436 128.668C415.465 129.048 411.467 129.048 407.496 128.668C411.466 128.272 415.466 128.272 419.436 128.668Z" fill="#263238"/>
<path d="M470.227 128.668C470.227 128.821 459.583 128.953 446.446 128.953C433.309 128.953 422.677 128.821 422.677 128.668C422.677 128.514 433.32 128.371 446.446 128.371C459.572 128.371 470.227 128.503 470.227 128.668Z" fill="#004E9E"/>
<path d="M418.03 158.762C414.06 159.143 410.062 159.143 406.091 158.762C410.062 158.381 414.06 158.381 418.03 158.762Z" fill="#263238"/>
<path d="M468.82 158.762C468.82 158.916 458.166 159.048 445.04 159.048C431.914 159.048 421.271 158.916 421.271 158.762C421.271 158.608 431.914 158.477 445.04 158.477C458.166 158.477 468.82 158.608 468.82 158.762Z" fill="#004E9E"/>
<path d="M452.619 172.637C452.619 172.802 441.976 172.923 428.85 172.923C415.724 172.923 405.069 172.802 405.069 172.637C405.069 172.472 415.713 172.352 428.85 172.352C441.987 172.352 452.619 172.483 452.619 172.637Z" fill="#004E9E"/>
<path d="M424.698 137.114C419.106 137.494 413.495 137.494 407.903 137.114C413.495 136.733 419.106 136.733 424.698 137.114Z" fill="#004E9E"/>
<path d="M424.269 149.614C418.678 150.009 413.066 150.009 407.475 149.614C413.066 149.233 418.677 149.233 424.269 149.614Z" fill="#004E9E"/>
<path d="M438.471 167.43C432.88 167.811 427.268 167.811 421.677 167.43C427.268 167.049 432.88 167.049 438.471 167.43Z" fill="#004E9E"/>
<path d="M485.791 137.114C485.791 137.278 476.191 137.399 464.34 137.399C452.488 137.399 442.888 137.278 442.888 137.114C442.888 136.949 452.488 136.828 464.34 136.828C476.191 136.828 485.791 137.004 485.791 137.114Z" fill="#263238"/>
<path d="M472.554 150.297C472.554 150.462 462.943 150.583 451.102 150.583C439.261 150.583 429.65 150.462 429.65 150.297C429.65 150.133 439.25 150.012 451.102 150.012C462.954 150.012 472.554 150.187 472.554 150.297Z" fill="#263238"/>
<path d="M487.318 167.426C487.318 167.58 477.707 167.712 465.866 167.712C454.025 167.712 444.414 167.58 444.414 167.426C444.414 167.272 454.014 167.141 465.866 167.141C477.718 167.141 487.318 167.261 487.318 167.426Z" fill="#263238"/>
<path d="M448.149 182.684C448.149 182.838 438.549 182.97 426.697 182.97C414.845 182.97 405.245 182.838 405.245 182.684C405.245 182.53 414.856 182.398 426.697 182.398C438.538 182.398 448.149 182.53 448.149 182.684Z" fill="#263238"/>
<path d="M495.588 182.684C495.588 182.838 485.977 182.97 474.136 182.97C462.296 182.97 452.685 182.838 452.685 182.684C452.685 182.53 462.285 182.398 474.136 182.398C485.988 182.398 495.588 182.53 495.588 182.684Z" fill="#263238"/>
<path d="M448.148 187.637C448.148 187.791 438.548 187.923 426.696 187.923C414.844 187.923 405.244 187.791 405.244 187.637C405.244 187.483 414.844 187.352 426.696 187.352C438.548 187.352 448.148 187.494 448.148 187.637Z" fill="#263238"/>
<path d="M450.225 140.739C450.225 140.892 440.625 141.024 428.773 141.024C416.921 141.024 407.321 140.892 407.321 140.739C407.321 140.585 416.921 140.453 428.773 140.453C440.625 140.453 450.225 140.585 450.225 140.739Z" fill="#263238"/>
<path d="M438.778 137.2C435.105 137.58 431.402 137.58 427.729 137.2C431.402 136.819 435.105 136.819 438.778 137.2Z" fill="#455A64"/>
<path d="M416.624 162.848C412.951 163.229 409.248 163.229 405.574 162.848C409.248 162.467 412.951 162.467 416.624 162.848Z" fill="#455A64"/>
<path d="M416.36 167.43C412.687 167.811 408.984 167.811 405.311 167.43C408.984 167.049 412.687 167.049 416.36 167.43Z" fill="#455A64"/>
<path d="M512.108 121.157C512.108 121.321 485.373 121.442 452.388 121.442C419.403 121.442 392.668 121.321 392.668 121.157C392.668 120.992 419.403 120.871 452.388 120.871C485.373 120.871 512.108 121.003 512.108 121.157Z" fill="#263238"/>
<path d="M402.137 117.124C402.137 117.404 402.054 117.678 401.898 117.911C401.742 118.144 401.521 118.326 401.262 118.433C401.003 118.54 400.718 118.568 400.443 118.514C400.168 118.459 399.916 118.324 399.718 118.126C399.52 117.928 399.385 117.675 399.33 117.4C399.275 117.126 399.303 116.841 399.411 116.582C399.518 116.323 399.699 116.102 399.932 115.946C400.165 115.79 400.439 115.707 400.72 115.707C400.906 115.706 401.091 115.741 401.264 115.812C401.436 115.883 401.593 115.987 401.725 116.119C401.857 116.251 401.961 116.407 402.032 116.58C402.102 116.753 402.138 116.938 402.137 117.124Z" fill="white"/>
<path d="M408.21 117.124C408.21 117.404 408.127 117.678 407.971 117.911C407.815 118.144 407.594 118.326 407.335 118.433C407.076 118.54 406.791 118.568 406.516 118.514C406.242 118.459 405.989 118.324 405.791 118.126C405.593 117.928 405.458 117.675 405.403 117.4C405.349 117.126 405.377 116.841 405.484 116.582C405.591 116.323 405.773 116.102 406.006 115.946C406.239 115.79 406.513 115.707 406.793 115.707C406.979 115.706 407.164 115.741 407.337 115.812C407.509 115.883 407.666 115.987 407.798 116.119C407.93 116.251 408.034 116.407 408.105 116.58C408.176 116.753 408.211 116.938 408.21 117.124Z" fill="white"/>
<path d="M414.296 117.124C414.296 117.404 414.213 117.678 414.057 117.911C413.901 118.144 413.68 118.326 413.421 118.433C413.162 118.54 412.877 118.568 412.602 118.514C412.328 118.459 412.075 118.324 411.877 118.126C411.679 117.928 411.544 117.675 411.489 117.4C411.434 117.126 411.463 116.841 411.57 116.582C411.677 116.323 411.859 116.102 412.092 115.946C412.325 115.79 412.599 115.707 412.879 115.707C413.065 115.706 413.25 115.741 413.423 115.812C413.595 115.883 413.752 115.987 413.884 116.119C414.016 116.251 414.12 116.407 414.191 116.58C414.262 116.753 414.297 116.938 414.296 117.124Z" fill="white"/>
<path d="M441.898 94.1654H319.525L328.576 6.99609H451.982L441.898 94.1654Z" fill="#263238"/>
<path d="M435.671 94.1654H313.298L322.349 6.99609H445.754L435.671 94.1654Z" fill="#455A64"/>
<path d="M431.123 90.2184H317.581L325.973 9.33203H440.481L431.123 90.2184Z" fill="#FAFAFA"/>
<path d="M330.059 76.7004C329.905 76.7004 331.037 64.5081 332.585 49.5259C334.134 34.5436 335.507 22.3843 335.672 22.4063C335.837 22.4282 334.694 34.5876 333.145 49.5808C331.597 64.574 330.224 76.7004 330.059 76.7004Z" fill="#263238"/>
<path d="M350.742 25.0746C346.951 25.4554 343.132 25.4554 339.341 25.0746C343.132 24.6939 346.951 24.6939 350.742 25.0746Z" fill="#263238"/>
<path d="M399.236 25.0746C399.236 25.2284 389.076 25.3602 376.532 25.3602C363.988 25.3602 353.828 25.2284 353.828 25.0746C353.828 24.9209 363.988 24.7891 376.532 24.7891C389.076 24.7891 399.236 24.8879 399.236 25.0746Z" fill="#004E9E"/>
<path d="M349.391 53.8012C345.6 54.182 341.78 54.182 337.989 53.8012C341.78 53.4204 345.6 53.4204 349.391 53.8012Z" fill="#263238"/>
<path d="M397.896 53.8012C397.896 53.955 387.725 54.0868 375.192 54.0868C362.659 54.0868 352.488 53.955 352.488 53.8012C352.488 53.6474 362.648 53.5156 375.192 53.5156C387.736 53.5156 397.896 53.6365 397.896 53.8012Z" fill="#004E9E"/>
<path d="M382.431 67.0473C382.431 67.2011 372.26 67.3329 359.727 67.3329C347.195 67.3329 337.023 67.2011 337.023 67.0473C337.023 66.8935 347.184 66.7617 359.727 66.7617C372.271 66.7617 382.431 66.8935 382.431 67.0473Z" fill="#004E9E"/>
<path d="M355.761 33.1684C350.423 33.5492 345.063 33.5492 339.725 33.1684C345.063 32.7876 350.423 32.7876 355.761 33.1684Z" fill="#004E9E"/>
<path d="M355.355 45.0668C350.016 45.4476 344.657 45.4476 339.318 45.0668C344.657 44.6861 350.016 44.6861 355.355 45.0668Z" fill="#004E9E"/>
<path d="M368.909 62.0668C363.57 62.4476 358.211 62.4476 352.872 62.0668C358.211 61.6861 363.57 61.6861 368.909 62.0668Z" fill="#004E9E"/>
<path d="M414.097 33.1684C414.097 33.3222 404.926 33.454 393.612 33.454C382.299 33.454 373.127 33.3222 373.127 33.1684C373.127 33.0146 382.288 32.8828 393.612 32.8828C404.937 32.8828 414.097 33.0036 414.097 33.1684Z" fill="#263238"/>
<path d="M401.455 45.7582C401.455 45.912 392.283 46.0438 380.97 46.0438C369.656 46.0438 360.484 45.912 360.484 45.7582C360.484 45.6045 369.656 45.4727 380.97 45.4727C392.283 45.4727 401.455 45.5935 401.455 45.7582Z" fill="#263238"/>
<path d="M415.558 62.0668C415.558 62.2206 406.387 62.3524 395.073 62.3524C383.76 62.3524 374.588 62.2206 374.588 62.0668C374.588 61.9131 383.76 61.7812 395.073 61.7812C406.387 61.7812 415.558 61.9021 415.558 62.0668Z" fill="#263238"/>
<path d="M378.147 76.6996C378.147 76.8534 368.976 76.9852 357.662 76.9852C346.349 76.9852 337.21 76.7985 337.21 76.6996C337.21 76.6008 346.382 76.4141 357.695 76.4141C369.009 76.4141 378.147 76.48 378.147 76.6996Z" fill="#263238"/>
<path d="M423.456 76.6996C423.456 76.8534 414.284 76.9852 402.971 76.9852C391.657 76.9852 382.485 76.8534 382.485 76.6996C382.485 76.5459 391.657 76.4141 402.971 76.4141C414.284 76.4141 423.456 76.48 423.456 76.6996Z" fill="#263238"/>
<path d="M378.146 81.3793C378.146 81.5441 368.975 81.6649 357.661 81.6649C346.347 81.6649 337.176 81.5441 337.176 81.3793C337.176 81.2146 346.347 81.0938 357.661 81.0938C368.975 81.0938 378.146 81.2256 378.146 81.3793Z" fill="#263238"/>
<path d="M380.135 36.5864C380.135 36.7401 370.964 36.8719 359.65 36.8719C348.337 36.8719 339.165 36.7401 339.165 36.5864C339.165 36.4326 348.337 36.3008 359.65 36.3008C370.964 36.3008 380.135 36.4216 380.135 36.5864Z" fill="#263238"/>
<path d="M369.217 33.2153C365.709 33.5961 362.169 33.5961 358.661 33.2153C362.169 32.8345 365.709 32.8345 369.217 33.2153Z" fill="#455A64"/>
<path d="M348.051 57.6957C344.543 58.0765 341.003 58.0765 337.495 57.6957C341.003 57.315 344.543 57.315 348.051 57.6957Z" fill="#455A64"/>
<path d="M347.809 62.0668C344.3 62.4476 340.761 62.4476 337.253 62.0668C340.761 61.6861 344.3 61.6861 347.809 62.0668Z" fill="#455A64"/>
<path d="M439.229 17.8832C439.229 18.048 413.702 18.1798 382.211 18.1798C350.72 18.1798 325.127 18.048 325.127 17.8832C325.127 17.7185 350.654 17.5977 382.167 17.5977C413.68 17.5977 439.229 17.7295 439.229 17.8832Z" fill="#263238"/>
<path d="M332.871 15.3779C333.617 15.3779 334.222 14.773 334.222 14.0268C334.222 13.2807 333.617 12.6758 332.871 12.6758C332.124 12.6758 331.52 13.2807 331.52 14.0268C331.52 14.773 332.124 15.3779 332.871 15.3779Z" fill="white"/>
<path d="M338.67 15.3779C339.417 15.3779 340.021 14.773 340.021 14.0268C340.021 13.2807 339.417 12.6758 338.67 12.6758C337.924 12.6758 337.319 13.2807 337.319 14.0268C337.319 14.773 337.924 15.3779 338.67 15.3779Z" fill="white"/>
<path d="M344.47 15.3779C345.216 15.3779 345.821 14.773 345.821 14.0268C345.821 13.2807 345.216 12.6758 344.47 12.6758C343.724 12.6758 343.119 13.2807 343.119 14.0268C343.119 14.773 343.724 15.3779 344.47 15.3779Z" fill="white"/>
<path d="M234.597 423.449H225.062V436.454H234.597V423.449Z" fill="#263238"/>
<path d="M285.706 271.691H370.294V267.572H285.706V271.691Z" fill="#263238"/>
<path d="M383.398 271.691L399.27 212.234H333.212L318.845 271.691H383.398Z" fill="#263238"/>
<path d="M322.81 267.202H381.816L395.546 214.984H336.232L322.81 267.202Z" fill="#F5F5F5"/>
<path d="M337.705 225.098L334.047 239.882H373.172L377.346 225.098H337.705Z" fill="#E0E0E0"/>
<path d="M369.063 223.149C369.063 223.314 362.209 223.434 353.741 223.434C345.272 223.434 338.418 223.314 338.418 223.149C338.418 222.984 345.272 222.863 353.741 222.863C362.209 222.863 369.063 222.995 369.063 223.149Z" fill="#455A64"/>
<path d="M351.259 227.922C347.149 228.303 343.013 228.303 338.902 227.922C343.013 227.542 347.149 227.542 351.259 227.922Z" fill="#263238"/>
<path d="M361.166 227.696C358.5 228.077 355.793 228.077 353.126 227.696C355.793 227.315 358.5 227.315 361.166 227.696Z" fill="#263238"/>
<path d="M372.36 230.606C372.36 230.771 364.792 230.902 355.455 230.902C346.119 230.902 338.551 230.771 338.551 230.606C338.551 230.441 346.119 230.32 355.455 230.32C364.792 230.32 372.36 230.474 372.36 230.606Z" fill="#455A64"/>
<path d="M348.81 233.053C345.159 233.436 341.477 233.436 337.826 233.053C341.477 232.67 345.159 232.67 348.81 233.053Z" fill="#004E9E"/>
<path d="M369.327 236.555C369.327 236.709 362.308 236.841 353.653 236.841C344.998 236.841 337.968 236.709 337.968 236.555C337.968 236.401 344.987 236.27 353.653 236.27C362.319 236.27 369.327 236.39 369.327 236.555Z" fill="#455A64"/>
<path d="M346.25 244.127C342.232 244.505 338.187 244.505 334.168 244.127C338.187 243.749 342.232 243.749 346.25 244.127Z" fill="#455A64"/>
<path d="M356.619 244.178C355.255 244.444 353.863 244.529 352.478 244.43C351.092 244.515 349.702 244.404 348.348 244.101C349.711 243.835 351.103 243.75 352.489 243.848C353.874 243.763 355.264 243.874 356.619 244.178Z" fill="#263238"/>
<path d="M362.474 243.895C362.474 244.06 361.683 244.181 360.716 244.181C359.75 244.181 358.97 244.06 358.97 243.895C358.97 243.73 359.761 243.609 360.716 243.609C361.672 243.609 362.474 243.741 362.474 243.895Z" fill="#263238"/>
<path d="M338.209 247.157C338.209 247.321 337.341 247.442 336.276 247.442C335.21 247.442 334.354 247.321 334.354 247.157C334.354 246.992 335.221 246.871 336.276 246.871C337.33 246.871 338.209 247.003 338.209 247.157Z" fill="#004E9E"/>
<path d="M349.743 247.157C346.686 247.537 343.594 247.537 340.538 247.157C343.594 246.776 346.686 246.776 349.743 247.157Z" fill="#263238"/>
<path d="M377.247 246.805C377.247 246.97 371.755 247.091 364.955 247.091C358.156 247.091 352.653 246.97 352.653 246.805C352.653 246.64 358.145 246.52 364.955 246.52C371.766 246.52 377.247 246.651 377.247 246.805Z" fill="#455A64"/>
<path d="M337.617 250.309C337.617 250.463 336.739 250.595 335.64 250.595C334.542 250.595 333.663 250.463 333.663 250.309C333.663 250.155 334.542 250.023 335.64 250.023C336.739 250.023 337.617 250.144 337.617 250.309Z" fill="#263238"/>
<path d="M343.68 250.243C342.92 250.526 342.103 250.624 341.297 250.529C340.487 250.624 339.667 250.526 338.902 250.243C339.668 249.967 340.487 249.869 341.297 249.958C342.103 249.869 342.918 249.966 343.68 250.243Z" fill="#263238"/>
<path d="M361.748 249.954C356.589 250.334 351.409 250.334 346.25 249.954C351.409 249.573 356.589 249.573 361.748 249.954Z" fill="#455A64"/>
<path d="M352.192 255.437C349.074 255.719 345.942 255.815 342.812 255.722C339.682 255.815 336.55 255.72 333.432 255.437C336.549 255.147 339.682 255.052 342.812 255.151C345.942 255.052 349.075 255.148 352.192 255.437Z" fill="#455A64"/>
<path d="M363.144 255.196C360.323 255.577 357.464 255.577 354.643 255.196C357.464 254.815 360.323 254.815 363.144 255.196Z" fill="#004E9E"/>
<path d="M379.41 255.196C374.717 255.577 370 255.577 365.307 255.196C370 254.815 374.717 254.815 379.41 255.196Z" fill="#263238"/>
<path d="M375.655 222.915C375.655 223.079 374.996 223.2 374.194 223.2C373.392 223.2 372.733 223.079 372.733 222.915C372.733 222.75 373.392 222.629 374.194 222.629C374.996 222.629 375.655 222.783 375.655 222.915Z" fill="#263238"/>
<path d="M345.899 220.938C343.778 221.319 341.606 221.319 339.484 220.938C341.606 220.557 343.778 220.557 345.899 220.938Z" fill="#004E9E"/>
<path d="M394.558 218.741H335.244L336.244 214.984H395.557L394.558 218.741Z" fill="#EBEBEB"/>
<path d="M338.737 217.534C339.095 217.534 339.385 217.244 339.385 216.886C339.385 216.528 339.095 216.238 338.737 216.238C338.379 216.238 338.089 216.528 338.089 216.886C338.089 217.244 338.379 217.534 338.737 217.534Z" fill="#FAFAFA"/>
<path d="M340.966 217.534C341.324 217.534 341.615 217.244 341.615 216.886C341.615 216.528 341.324 216.238 340.966 216.238C340.609 216.238 340.318 216.528 340.318 216.886C340.318 217.244 340.609 217.534 340.966 217.534Z" fill="#FAFAFA"/>
<path d="M343.197 217.534C343.555 217.534 343.845 217.244 343.845 216.886C343.845 216.528 343.555 216.238 343.197 216.238C342.839 216.238 342.549 216.528 342.549 216.886C342.549 217.244 342.839 217.534 343.197 217.534Z" fill="#FAFAFA"/>
<path d="M466.845 277.23H326.205V359.292H466.845V277.23Z" fill="#263238"/>
<path d="M390.275 277.23H326.205V359.292H390.275V277.23Z" fill="#455A64"/>
<path d="M383.75 305.098C383.733 304.96 383.733 304.82 383.75 304.681V303.484C383.75 302.385 383.75 300.881 383.695 298.925C383.695 294.96 383.629 289.292 383.585 282.307L383.794 282.515L332.257 282.592L332.542 282.307V288.227C332.542 290.182 332.542 292.126 332.542 294.027C332.542 297.838 332.542 301.54 332.542 305.076L332.279 304.813L369.196 304.934L379.916 305.011H382.794H383.552H383.816H383.585H382.86H380.037L369.372 305.076L332.279 305.208H332.004V304.934C332.004 301.397 332.004 297.695 332.004 293.884V282.329L332.289 282.043L383.827 282.12H384.035V282.329C383.98 289.369 383.947 295.081 383.914 299.068C383.914 301.001 383.914 302.517 383.914 303.583V304.747C383.761 304.978 383.75 305.164 383.75 305.098Z" fill="#263238"/>
<path d="M360.166 293.705C360.023 293.082 359.675 292.525 359.178 292.124C358.911 291.937 358.602 291.818 358.278 291.778C357.955 291.738 357.626 291.777 357.321 291.893C356.955 292.034 356.639 292.283 356.416 292.606C356.192 292.929 356.072 293.312 356.069 293.705C356.075 294.098 356.197 294.479 356.42 294.802C356.643 295.125 356.956 295.374 357.321 295.518C357.628 295.629 357.956 295.665 358.279 295.623C358.602 295.581 358.91 295.462 359.178 295.276C359.671 294.871 360.018 294.315 360.166 293.694C360.166 293.694 360.265 293.892 360.166 294.254C360.078 294.781 359.801 295.257 359.386 295.595C359.072 295.851 358.697 296.023 358.297 296.095C357.897 296.166 357.486 296.133 357.102 296.001C356.621 295.836 356.204 295.525 355.908 295.112C355.613 294.698 355.454 294.203 355.454 293.694C355.454 293.186 355.613 292.691 355.908 292.277C356.204 291.863 356.621 291.552 357.102 291.388C357.485 291.254 357.896 291.22 358.295 291.289C358.695 291.358 359.071 291.528 359.386 291.783C359.801 292.12 360.078 292.597 360.166 293.123C360.276 293.508 360.199 293.705 360.166 293.705Z" fill="#263238"/>
<path d="M383.75 330.195C383.734 330.052 383.734 329.909 383.75 329.766V328.569C383.75 327.471 383.75 325.966 383.695 324.011C383.695 320.056 383.629 314.389 383.585 307.392L383.794 307.601L332.257 307.688L332.542 307.403V313.323C332.542 315.289 332.542 317.223 332.542 319.134C332.542 322.945 332.542 326.647 332.542 330.184L332.279 329.909L369.196 330.041L379.916 330.118H382.794H383.552H383.816H383.585H382.86H380.037L369.372 330.195L332.279 330.326H332.004V330.052C332.004 326.515 332.004 322.813 332.004 319.002V307.414C331.938 307.414 332.542 306.865 332.29 307.117L383.827 307.205H384.035V307.359C383.981 314.411 383.948 320.122 383.915 324.11C383.915 326.043 383.915 327.548 383.915 328.624V329.777C383.761 330.074 383.75 330.206 383.75 330.195Z" fill="#263238"/>
<path d="M360.166 318.795C360.012 318.186 359.665 317.643 359.178 317.246C358.885 317.037 358.541 316.912 358.182 316.886C357.823 316.859 357.464 316.931 357.144 317.094C356.823 317.257 356.553 317.505 356.364 317.811C356.175 318.116 356.073 318.468 356.069 318.828C356.072 319.221 356.192 319.604 356.416 319.927C356.639 320.25 356.955 320.499 357.321 320.64C357.626 320.756 357.955 320.795 358.278 320.755C358.602 320.715 358.911 320.596 359.178 320.409C359.673 320.006 360.021 319.45 360.166 318.828C360.166 318.828 360.265 319.025 360.166 319.388C360.078 319.915 359.801 320.391 359.386 320.728C359.072 320.985 358.697 321.157 358.297 321.228C357.897 321.299 357.486 321.267 357.102 321.134C356.621 320.97 356.204 320.659 355.908 320.245C355.613 319.831 355.454 319.336 355.454 318.828C355.454 318.319 355.613 317.824 355.908 317.41C356.204 316.997 356.621 316.686 357.102 316.521C357.486 316.389 357.897 316.356 358.297 316.427C358.697 316.499 359.072 316.671 359.386 316.927C359.801 317.265 360.078 317.741 360.166 318.268C360.276 318.597 360.199 318.795 360.166 318.795Z" fill="#263238"/>
<path d="M383.75 355.282C383.733 355.143 383.733 355.003 383.75 354.865V353.667C383.75 352.569 383.75 351.064 383.695 349.109C383.695 345.144 383.629 339.476 383.585 332.49L383.794 332.699L332.257 332.776L332.542 332.49V338.411C332.542 340.366 332.542 342.31 332.542 344.21C332.542 348.022 332.542 351.723 332.542 355.26L332.279 354.996L369.196 355.117L379.916 355.194H382.794H383.552H383.816H383.585H382.86H380.037L369.372 355.26L332.279 355.392H332.004V355.117C332.004 351.58 332.004 347.879 332.004 344.067V332.512L332.289 332.227L383.827 332.303H384.035V332.512C383.98 339.553 383.947 345.265 383.914 349.252C383.914 351.185 383.914 352.701 383.914 353.766V354.931C383.761 355.161 383.75 355.293 383.75 355.282Z" fill="#263238"/>
<path d="M360.166 343.894C360.023 343.27 359.675 342.714 359.178 342.312C358.911 342.125 358.602 342.006 358.278 341.966C357.955 341.926 357.626 341.965 357.321 342.081C356.955 342.222 356.639 342.471 356.416 342.794C356.192 343.117 356.072 343.501 356.069 343.894C356.073 344.253 356.175 344.605 356.364 344.911C356.553 345.216 356.823 345.464 357.144 345.627C357.464 345.79 357.823 345.863 358.182 345.836C358.541 345.809 358.885 345.684 359.178 345.475C359.671 345.07 360.018 344.515 360.166 343.894C360.166 343.894 360.265 344.091 360.166 344.454C360.078 344.98 359.801 345.457 359.386 345.794C359.072 346.051 358.697 346.223 358.297 346.294C357.897 346.365 357.486 346.333 357.102 346.2C356.621 346.035 356.204 345.724 355.908 345.311C355.613 344.897 355.454 344.402 355.454 343.894C355.454 343.385 355.613 342.89 355.908 342.476C356.204 342.063 356.621 341.752 357.102 341.587C357.485 341.453 357.896 341.419 358.295 341.488C358.695 341.557 359.071 341.727 359.386 341.982C359.801 342.319 360.078 342.796 360.166 343.322C360.276 343.696 360.199 343.894 360.166 343.894Z" fill="#263238"/>
<path d="M232.543 426.086L138.553 426.009V277.23H232.543V426.086Z" fill="#263238"/>
<path d="M471.951 271.508H134.017V279.306H471.951V271.508Z" fill="#263238"/>
<path d="M149.031 279.309H138.553V437.149H149.031V279.309Z" fill="#263238"/>
<path d="M466.844 279.309H456.365V437.193H466.844V279.309Z" fill="#263238"/>
<path d="M400.752 279.309H390.273V437.193H400.752V279.309Z" fill="#263238"/>
<path d="M181.534 271.508C181.534 271.662 171.461 271.794 159.038 271.794C146.615 271.794 136.543 271.662 136.543 271.508C136.543 271.354 146.615 271.223 159.038 271.223C171.461 271.223 181.534 271.343 181.534 271.508Z" fill="#455A64"/>
<path d="M280.346 429.461L280.61 418.18L259.465 417.543L258.905 434.019L260.212 434.14C266.034 434.645 289.869 436.271 293.791 435.238C298.184 434.052 280.346 429.461 280.346 429.461Z" fill="#004E9E"/>
<g opacity="0.4">
<path d="M289.045 432.02C289.045 432.02 295.295 434.019 294.472 435.04C293.648 436.062 269.516 435.304 258.905 434.052V433.579L287.057 434.678C287.057 434.678 287.782 432.031 289.045 432.02Z" fill="white"/>
</g>
<path d="M258.62 433.555H258.983L260.081 433.654L263.914 433.939C267.155 434.159 271.603 434.389 276.59 434.554C281.577 434.719 286.036 434.752 289.288 434.741C286.047 434.741 281.599 434.631 276.601 434.477C271.603 434.324 267.166 434.115 263.925 433.939L260.081 433.741H258.983L258.62 433.555Z" fill="#263238"/>
<path d="M287.08 435.006C287.268 434.373 287.53 433.765 287.86 433.194C288.257 432.67 288.71 432.192 289.211 431.766C288.57 432.027 288.023 432.477 287.643 433.055C287.262 433.634 287.066 434.314 287.08 435.006Z" fill="#263238"/>
<path d="M280.939 431.652C280.994 431.652 281.313 431.334 281.631 430.862C281.95 430.389 282.169 429.961 282.114 429.928C282.059 429.895 281.741 430.236 281.422 430.719C281.104 431.202 280.884 431.609 280.939 431.652Z" fill="#263238"/>
<path d="M279.258 430.701C279.258 430.701 279.642 430.536 280.016 430.218C280.389 429.899 280.653 429.602 280.609 429.547C280.565 429.493 280.224 429.712 279.851 430.031C279.477 430.349 279.214 430.646 279.258 430.701Z" fill="#263238"/>
<path d="M278.237 428.665C278.587 428.799 278.961 428.859 279.336 428.841C279.704 428.897 280.08 428.867 280.434 428.753C280.084 428.62 279.71 428.56 279.336 428.577C278.732 428.555 278.237 428.588 278.237 428.665Z" fill="#263238"/>
<path d="M277.896 427.246C278.256 427.493 278.68 427.631 279.116 427.642C279.544 427.725 279.988 427.679 280.39 427.51C279.978 427.425 279.558 427.385 279.138 427.389C278.731 427.295 278.314 427.247 277.896 427.246Z" fill="#263238"/>
<path d="M281.719 429.832C282.166 429.908 282.623 429.908 283.07 429.832C283.564 429.783 284.053 429.691 284.531 429.557C284.82 429.481 285.099 429.375 285.365 429.239C285.53 429.153 285.656 429.008 285.717 428.832C285.743 428.733 285.739 428.627 285.706 428.53C285.673 428.432 285.612 428.346 285.53 428.283C285.019 428.013 284.431 427.927 283.864 428.041C283.298 428.156 282.788 428.462 282.422 428.909C282.205 429.175 282.045 429.481 281.949 429.81C281.925 429.929 281.925 430.053 281.949 430.172C282.107 429.772 282.329 429.401 282.608 429.074C282.922 428.727 283.331 428.479 283.784 428.36C284.325 428.2 284.907 428.256 285.409 428.514C285.618 428.678 285.519 428.931 285.278 429.074C285.031 429.195 284.773 429.295 284.509 429.37C284.045 429.514 283.571 429.624 283.092 429.7C282.29 429.799 281.719 429.788 281.719 429.832Z" fill="#263238"/>
<path d="M282.06 429.907C282.235 429.63 282.302 429.297 282.246 428.974C282.218 428.614 282.101 428.267 281.906 427.963C281.799 427.759 281.642 427.586 281.45 427.459C281.258 427.333 281.037 427.256 280.807 427.238C280.668 427.262 280.544 427.341 280.462 427.456C280.379 427.571 280.346 427.714 280.368 427.853C280.396 428.072 280.471 428.282 280.588 428.468C280.753 428.774 280.96 429.055 281.203 429.303C281.407 429.553 281.667 429.752 281.961 429.885C281.961 429.885 281.697 429.633 281.335 429.182C281.127 428.928 280.946 428.651 280.796 428.359C280.621 428.062 280.5 427.546 280.851 427.491C281.203 427.436 281.521 427.82 281.719 428.095C281.906 428.364 282.029 428.672 282.082 428.996C282.106 429.3 282.099 429.605 282.06 429.907Z" fill="#263238"/>
<path d="M259.224 427.778C259.224 427.833 259.839 427.778 260.783 427.888C262.027 428.057 263.196 428.579 264.153 429.39C265.111 430.201 265.816 431.269 266.188 432.468C266.33 432.971 266.447 433.48 266.539 433.995C266.567 433.853 266.567 433.708 266.539 433.566C266.502 433.196 266.436 432.829 266.341 432.468C266.001 431.212 265.287 430.089 264.295 429.248C263.302 428.407 262.078 427.886 260.783 427.756C260.396 427.717 260.006 427.717 259.619 427.756C259.487 427.747 259.354 427.755 259.224 427.778Z" fill="#263238"/>
<path d="M261.685 419.047C261.499 420.486 261.393 421.935 261.366 423.386C261.265 424.848 261.247 426.315 261.311 427.779C261.497 426.34 261.603 424.891 261.63 423.44C261.737 421.978 261.756 420.511 261.685 419.047Z" fill="#263238"/>
<path d="M269.297 432.128C270.3 432.398 271.334 432.535 272.372 432.535C273.407 432.614 274.448 432.563 275.47 432.381C275.47 432.304 274.086 432.381 272.383 432.282C270.681 432.183 269.308 432.062 269.297 432.128Z" fill="#263238"/>
<path d="M265.155 431.994C265.155 431.994 265.254 432.291 265.386 432.609C265.518 432.928 265.584 433.224 265.661 433.213C265.737 433.202 265.781 432.884 265.661 432.521C265.54 432.159 265.199 431.95 265.155 431.994Z" fill="#263238"/>
<path d="M263.617 430.004C263.617 430.004 263.694 430.279 263.903 430.509C264.111 430.74 264.331 430.883 264.386 430.828C264.441 430.773 264.309 430.564 264.089 430.334C263.87 430.103 263.705 429.96 263.617 430.004Z" fill="#263238"/>
<path d="M261.421 429.052C261.421 429.129 261.717 429.129 262.025 429.25C262.333 429.371 262.552 429.535 262.607 429.491C262.662 429.448 262.497 429.151 262.113 429.008C261.728 428.865 261.421 428.986 261.421 429.052Z" fill="#263238"/>
<path d="M259.861 428.577C259.861 428.643 259.96 428.753 260.125 428.829C260.29 428.906 260.465 428.906 260.487 428.829C260.509 428.753 260.4 428.643 260.224 428.577C260.048 428.511 259.894 428.511 259.861 428.577Z" fill="#263238"/>
<g opacity="0.3">
<path d="M259.267 427.22L280.401 427.517L280.445 424.969L259.146 425.869L259.267 427.22Z" fill="black"/>
</g>
<path d="M313.694 431.216V419.925L292.539 419.848L292.418 436.324L293.725 436.412C299.558 436.752 323.382 437.752 327.325 436.587C331.653 435.324 313.694 431.216 313.694 431.216Z" fill="#004E9E"/>
<g opacity="0.4">
<path d="M322.459 433.535C322.459 433.535 328.753 435.38 327.951 436.413C327.149 437.445 303.018 437.347 292.374 436.413V435.941L320.537 436.303C320.537 436.303 321.229 433.59 322.459 433.535Z" fill="white"/>
</g>
<path d="M292.088 435.871H292.45L293.494 435.937L297.338 436.124C300.579 436.256 305.027 436.376 310.025 436.398C315.023 436.42 319.471 436.398 322.722 436.256L326.567 436.113L327.61 436.047H327.973H326.567L322.722 436.102C319.427 436.102 314.979 436.201 310.025 436.179C305.071 436.157 300.59 436.058 297.338 435.981L293.494 435.871H292.088Z" fill="#263238"/>
<path d="M320.581 436.584C320.746 435.944 320.989 435.328 321.306 434.749C321.687 434.209 322.129 433.715 322.624 433.277C321.963 433.518 321.415 433.995 321.086 434.617C320.677 435.186 320.496 435.888 320.581 436.584Z" fill="#263238"/>
<path d="M314.353 433.39C314.408 433.39 314.704 433.06 315.023 432.577C315.342 432.094 315.528 431.676 315.473 431.632C315.418 431.588 315.111 431.962 314.803 432.445C314.496 432.929 314.287 433.346 314.353 433.39Z" fill="#263238"/>
<path d="M312.639 432.476C312.639 432.476 313.023 432.3 313.385 431.981C313.748 431.663 314.012 431.344 313.968 431.289C313.924 431.234 313.583 431.465 313.221 431.784C312.858 432.102 312.595 432.421 312.639 432.476Z" fill="#263238"/>
<path d="M311.562 430.477C311.915 430.601 312.289 430.65 312.661 430.62C313.031 430.665 313.406 430.627 313.759 430.51C313.759 430.433 313.276 430.367 312.661 430.367C312.046 430.367 311.562 430.378 311.562 430.477Z" fill="#263238"/>
<path d="M311.2 429.063C311.565 429.303 311.993 429.429 312.43 429.425C312.862 429.511 313.309 429.453 313.705 429.26C313.29 429.197 312.871 429.167 312.452 429.172C312.039 429.099 311.62 429.062 311.2 429.063Z" fill="#263238"/>
<path d="M315.078 431.547C315.525 431.631 315.983 431.631 316.429 431.547C316.922 431.493 317.408 431.386 317.879 431.228C318.17 431.153 318.45 431.043 318.714 430.899C318.877 430.803 318.998 430.651 319.054 430.47C319.074 430.37 319.065 430.266 319.028 430.171C318.991 430.076 318.928 429.993 318.846 429.932C318.328 429.675 317.737 429.606 317.174 429.736C316.611 429.866 316.111 430.188 315.759 430.646C315.554 430.916 315.401 431.221 315.309 431.547C315.28 431.67 315.28 431.798 315.309 431.92C315.455 431.522 315.666 431.151 315.935 430.822C316.244 430.465 316.647 430.202 317.099 430.064C317.632 429.889 318.213 429.933 318.714 430.185C318.934 430.35 318.846 430.602 318.604 430.745C318.364 430.878 318.109 430.985 317.846 431.064C317.387 431.217 316.917 431.339 316.44 431.426C315.594 431.481 315.078 431.481 315.078 431.547Z" fill="#263238"/>
<path d="M315.429 431.621C315.588 431.333 315.643 430.999 315.583 430.676C315.546 430.318 315.421 429.975 315.22 429.676C315.108 429.48 314.949 429.314 314.757 429.194C314.566 429.073 314.348 429.001 314.122 428.984C314.053 428.997 313.988 429.024 313.929 429.063C313.871 429.102 313.821 429.152 313.782 429.21C313.743 429.268 313.716 429.334 313.703 429.402C313.69 429.471 313.69 429.542 313.705 429.61C313.736 429.826 313.815 430.033 313.935 430.215C314.111 430.516 314.325 430.792 314.572 431.038C314.99 431.456 315.33 431.621 315.341 431.588C315.352 431.555 315.078 431.346 314.704 430.918C314.488 430.661 314.297 430.386 314.133 430.094C313.946 429.808 313.825 429.292 314.133 429.237C314.44 429.182 314.814 429.545 315.023 429.808C315.215 430.072 315.347 430.376 315.407 430.698C315.44 431.004 315.448 431.313 315.429 431.621Z" fill="#263238"/>
<path d="M292.539 430.095C292.539 430.095 293.143 430.04 294.099 430.161C295.344 430.305 296.524 430.796 297.504 431.578C298.477 432.369 299.211 433.415 299.624 434.599C299.942 435.499 299.975 436.114 300.019 436.103C300.041 435.961 300.041 435.817 300.019 435.675C299.978 435.303 299.905 434.936 299.8 434.577C299.424 433.331 298.681 432.228 297.668 431.413C296.654 430.597 295.418 430.107 294.121 430.007C293.733 429.972 293.344 429.972 292.956 430.007C292.682 430.04 292.539 430.073 292.539 430.095Z" fill="#263238"/>
<path d="M294.768 421.297C294.615 422.756 294.549 424.223 294.57 425.69C294.496 427.155 294.514 428.622 294.625 430.084C294.772 428.624 294.838 427.158 294.823 425.69C294.897 424.226 294.879 422.759 294.768 421.297Z" fill="#263238"/>
<path d="M302.721 434.182C303.731 434.421 304.769 434.528 305.807 434.5C306.846 434.552 307.887 434.471 308.905 434.259C308.905 434.193 307.51 434.259 305.807 434.259C304.105 434.259 302.732 434.105 302.721 434.182Z" fill="#263238"/>
<path d="M298.568 434.147C298.568 434.202 298.689 434.443 298.821 434.762C298.953 435.08 299.041 435.366 299.118 435.355C299.194 435.344 299.227 435.025 299.063 434.663C298.898 434.3 298.623 434.103 298.568 434.147Z" fill="#263238"/>
<path d="M297.02 432.204C296.965 432.204 297.107 432.467 297.327 432.698C297.547 432.929 297.756 433.061 297.81 433.006C297.865 432.951 297.723 432.742 297.503 432.511C297.283 432.281 297.075 432.149 297.02 432.204Z" fill="#263238"/>
<path d="M294.789 431.301C294.789 431.378 295.086 431.378 295.393 431.488C295.701 431.598 295.931 431.763 295.986 431.719C296.041 431.675 295.866 431.378 295.481 431.247C295.097 431.115 294.767 431.236 294.789 431.301Z" fill="#263238"/>
<path d="M293.197 430.876C293.197 430.942 293.296 431.052 293.472 431.129C293.648 431.206 293.812 431.195 293.834 431.129C293.856 431.063 293.736 430.953 293.56 430.887C293.384 430.821 293.274 430.81 293.197 430.876Z" fill="#263238"/>
<g opacity="0.3">
<path d="M292.571 429.524L313.704 429.271L313.682 426.723L292.406 428.184L292.571 429.524Z" fill="black"/>
</g>
<path d="M266.989 237.929L275.458 263.423C277.743 270.31 283.762 271.496 291.022 271.496H338.133V260.918L295.097 254.778L284.838 228.57L266.989 237.929Z" fill="#FFBE9D"/>
<path d="M343.317 258.731L347.052 256.963C347.052 256.963 351.083 249.175 352.006 249.494C352.928 249.812 353.203 252.097 351.588 255.667L356.553 254.25C356.553 254.25 367.317 259.226 366.845 259.896C366.373 260.566 365.483 262.158 363.143 260.994C360.804 259.83 357.717 258.38 357.717 258.38L351.918 260.039L359.398 260.994L366.439 267.387C366.439 267.387 364.121 269.122 362.133 267.288L343.855 271.209L338.133 271.539V260.961L343.317 258.731Z" fill="#FFBE9D"/>
<path d="M362.133 267.257C362.056 267.257 361.716 266.763 361.035 266.049C360.646 265.64 360.198 265.292 359.705 265.017C359.085 264.72 358.414 264.545 357.728 264.5C355.871 264.374 354.031 264.061 352.236 263.567C354.097 263.504 355.959 263.629 357.794 263.94C358.563 263.987 359.313 264.201 359.991 264.566C360.519 264.885 360.985 265.299 361.364 265.785C361.746 266.199 362.012 266.707 362.133 267.257Z" fill="#EB996E"/>
<path d="M359.278 267.982C359.201 267.982 359.146 267.609 358.64 267.499C358.135 267.389 357.278 267.301 356.444 267.214C355.368 267.196 354.295 267.09 353.236 266.895C354.294 266.526 355.43 266.439 356.532 266.642C357.312 266.71 358.083 266.869 358.827 267.115C358.957 267.163 359.075 267.24 359.17 267.341C359.265 267.442 359.336 267.564 359.376 267.697C359.376 267.895 359.31 267.993 359.278 267.982Z" fill="#EB996E"/>
<path d="M227.216 133.068L224.656 184.891L246.844 186.977L248.074 174.456C248.074 174.456 255.895 176.389 258.267 169.15C259.794 164.526 261.145 128.301 261.145 128.301L227.216 133.068Z" fill="#FFBE9D"/>
<path d="M263.056 134.295C263.672 139.15 256.894 141.984 256.894 141.984L255.708 153.463C254.648 153.387 253.583 153.387 252.523 153.463C253.094 148.08 246.152 149.135 245.449 152.804C244.746 156.472 248.744 158.691 248.744 158.691C245.976 162.942 244.845 165.194 240.913 169.181C236.651 173.497 234.322 173.849 229.929 173.717L225.085 173.497C225.085 173.497 223.349 169.356 222.086 159.57C221.482 154.869 217.802 148.695 218.857 141.051C221.822 119.313 242.648 121.609 242.648 121.609C253.533 121.84 261.629 123.048 263.056 134.295Z" fill="#263238"/>
<path d="M247.142 122.168C251.843 122.289 256.72 122.662 260.85 124.914C264.98 127.166 268.165 131.812 267.319 136.436L264.969 136.865L264.002 135.129C264.002 136.052 264.002 136.974 264.002 137.897L259.872 139.05C259.251 135.524 258.009 132.136 256.203 129.044" fill="#263238"/>
<path d="M228.095 146.013C227.932 145.763 227.809 145.489 227.732 145.201C227.466 144.432 227.268 143.642 227.139 142.839C226.693 140.173 226.879 137.439 227.682 134.858C228.485 132.276 229.883 129.92 231.764 127.978C232.318 127.386 232.924 126.845 233.576 126.363C233.804 126.164 234.064 126.004 234.345 125.891C234.4 125.968 233.389 126.725 232.06 128.241C230.334 130.216 229.036 132.527 228.249 135.029C227.493 137.54 227.261 140.18 227.568 142.784C227.776 144.794 228.194 145.98 228.095 146.013Z" fill="#455A64"/>
<path d="M232.467 144.202C232.041 143.367 231.748 142.47 231.599 141.544C231.111 139.331 230.967 137.057 231.171 134.8C231.361 132.536 231.895 130.314 232.752 128.21C233.062 127.321 233.51 126.487 234.081 125.738C232.899 128.648 232.112 131.703 231.742 134.822C231.564 137.967 231.808 141.122 232.467 144.202Z" fill="#455A64"/>
<path d="M260.794 136.164C260.684 136.164 260.498 134.824 259.597 132.868C258.44 130.291 256.586 128.087 254.243 126.508C251.901 124.928 249.163 124.034 246.339 123.927C244.143 123.829 242.835 124.158 242.813 124.059C243.103 123.913 243.415 123.817 243.736 123.774C244.597 123.603 245.473 123.522 246.35 123.532C249.282 123.528 252.148 124.404 254.576 126.047C257.005 127.69 258.884 130.024 259.971 132.748C260.302 133.558 260.549 134.401 260.706 135.263C260.785 135.556 260.815 135.861 260.794 136.164Z" fill="#455A64"/>
<path d="M228.787 117.973C230.028 118.235 231.147 118.899 231.972 119.862C232.936 120.688 233.593 121.814 233.84 123.058C233.686 123.124 232.972 121.652 231.566 120.257C230.16 118.862 228.71 118.137 228.787 117.973Z" fill="#263238"/>
<path d="M233.96 117.996C234.125 118.051 233.784 119.215 233.85 120.654C233.916 122.093 234.311 123.214 234.158 123.29C233.54 122.564 233.225 121.628 233.279 120.676C233.148 119.728 233.392 118.766 233.96 117.996Z" fill="#455A64"/>
<path d="M263.003 232.372L266.617 244.641L289.617 234.24C288.794 231.669 284.982 220.224 277.711 202.056C275.72 197.076 272.481 192.692 268.304 189.327C264.127 185.962 259.154 183.73 253.864 182.845C246.613 181.522 239.266 180.787 231.896 180.648C219.001 180.791 200.043 188.854 197.472 201.518C195.517 211.162 197.395 228.198 197.395 248.892L199.076 288.435L265.156 290.632L263.003 232.372Z" fill="#004E9E"/>
<g opacity="0.3">
<path d="M197.428 239.751C205.468 241.398 213.717 239.751 221.911 239.256C226.876 238.96 232.39 238.422 236.322 241.453C239.442 243.87 240.716 247.945 241.595 251.789C245.022 266.431 245.637 276.251 246.406 291.266L206.632 293.682L197.428 239.751Z" fill="black"/>
</g>
<path d="M275.778 198.266C275.778 198.431 258.423 198.552 237.026 198.552C215.629 198.552 198.285 198.431 198.285 198.266C198.285 198.101 215.629 197.98 237.026 197.98C258.423 197.98 275.778 198.112 275.778 198.266Z" fill="#FAFAFA"/>
<path d="M280.599 209.372C280.599 209.525 261.729 209.657 238.475 209.657C215.222 209.657 196.352 209.525 196.352 209.372C196.352 209.218 215.2 209.086 238.475 209.086C261.75 209.086 280.599 209.218 280.599 209.372Z" fill="#FAFAFA"/>
<path d="M286.683 223.297C286.683 223.462 266.561 223.583 241.737 223.583C216.913 223.583 196.79 223.462 196.79 223.297C196.79 223.133 216.913 223.012 241.737 223.012C266.561 223.012 286.683 223.144 286.683 223.297Z" fill="#FAFAFA"/>
<path d="M262.519 238.325C262.519 238.478 256.225 238.61 248.481 238.61C240.737 238.61 234.433 238.478 234.433 238.325C234.433 238.171 240.715 238.039 248.481 238.039C256.247 238.039 262.519 238.16 262.519 238.325Z" fill="#FAFAFA"/>
<path d="M263.803 254.639C263.803 254.792 257.213 254.869 249.107 254.803C241.001 254.738 234.41 254.562 234.41 254.397C234.41 254.232 241.001 254.166 249.107 254.232C257.213 254.298 263.803 254.452 263.803 254.639Z" fill="#FAFAFA"/>
<path d="M264.441 267.87C264.061 267.939 263.673 267.957 263.288 267.925L260.135 267.859C257.477 267.804 253.808 267.727 249.755 267.727C245.702 267.727 242.066 267.793 239.375 267.848L236.223 267.914C235.836 267.964 235.445 267.964 235.059 267.914C235.434 267.804 235.821 267.745 236.212 267.738C236.948 267.661 238.024 267.584 239.353 267.507C242.011 267.343 245.691 267.211 249.755 267.211C253.819 267.211 257.499 267.354 260.146 267.518C261.475 267.595 262.552 267.683 263.299 267.76C263.682 267.751 264.066 267.787 264.441 267.87Z" fill="#FAFAFA"/>
<path d="M264.232 278.594C264.232 278.748 257.751 278.88 249.755 278.88C241.759 278.88 235.289 278.748 235.289 278.594C235.289 278.44 241.759 278.309 249.755 278.309C257.751 278.309 264.232 278.429 264.232 278.594Z" fill="#FAFAFA"/>
<path d="M266.199 187.383C266.199 187.548 253.48 187.669 237.795 187.669C222.109 187.669 209.379 187.548 209.379 187.383C209.379 187.218 222.098 187.098 237.795 187.098C253.491 187.098 266.199 187.229 266.199 187.383Z" fill="#FAFAFA"/>
<path d="M264.715 189.445C264.715 189.511 264.056 189.544 262.958 189.972C261.434 190.641 260.117 191.707 259.146 193.059C257.745 195.09 256.956 197.48 256.873 199.946C256.789 202.979 257.025 206.013 257.576 208.997C258.5 214.462 259.732 219.871 261.266 225.198C261.804 227.186 262.255 228.823 262.595 230.064C262.78 230.654 262.924 231.256 263.024 231.865C262.76 231.307 262.547 230.726 262.387 230.13C262.013 229.032 261.486 227.351 260.871 225.308C259.237 219.99 257.952 214.571 257.026 209.085C256.476 206.056 256.255 202.978 256.367 199.902C256.482 197.348 257.345 194.884 258.85 192.817C259.879 191.431 261.286 190.37 262.903 189.764C263.341 189.615 263.794 189.512 264.254 189.456C264.406 189.43 264.562 189.427 264.715 189.445Z" fill="#263238"/>
<path d="M288.881 231.098C287.857 231.813 286.773 232.437 285.641 232.965C283.598 234.063 280.731 235.436 277.523 236.886C274.316 238.336 271.372 239.544 269.219 240.368C268.075 240.863 266.892 241.263 265.683 241.565C266.77 240.959 267.901 240.434 269.066 239.995C271.175 239.072 274.096 237.798 277.293 236.37C280.489 234.942 283.367 233.569 285.454 232.602C286.561 232.024 287.706 231.521 288.881 231.098Z" fill="#263238"/>
<path d="M219.472 289.086L298.425 291.876C304.585 292.096 310.414 294.723 314.66 299.191C318.907 303.659 321.233 309.614 321.14 315.777L317.845 428.539L287.342 427.529L289.616 321.95L219.461 320.105L219.472 289.086Z" fill="#263238"/>
<path d="M186.85 289.086L265.814 291.876C271.974 292.096 277.803 294.723 282.049 299.191C286.296 303.659 288.622 309.614 288.529 315.777L285.234 428.539L254.325 426.09L257.027 321.95L186.872 320.105L186.85 289.086Z" fill="#263238"/>
<path d="M245.944 330.039H238.179V423.085H245.944V330.039Z" fill="#455A64"/>
<path d="M173.01 239.73V308.226C173.01 312.541 174.724 316.678 177.774 319.729C180.825 322.78 184.963 324.494 189.277 324.494H234.894V239.73C234.894 238.778 234.706 237.835 234.342 236.956C233.978 236.076 233.444 235.277 232.77 234.604C232.097 233.931 231.298 233.397 230.419 233.032C229.539 232.668 228.596 232.48 227.644 232.48H180.259C179.307 232.48 178.365 232.668 177.485 233.032C176.605 233.397 175.806 233.931 175.133 234.604C174.46 235.277 173.926 236.076 173.562 236.956C173.197 237.835 173.01 238.778 173.01 239.73Z" fill="#455A64"/>
<path d="M296.273 330.043H185.202C185.202 326.839 186.475 323.766 188.741 321.5C191.007 319.234 194.08 317.961 197.285 317.961H284.245C287.45 317.961 290.523 319.234 292.789 321.5C295.055 323.766 296.328 326.839 296.328 330.043H296.273Z" fill="#455A64"/>
<path d="M234.894 316.391C234.908 316.566 234.908 316.742 234.894 316.918C234.885 317.421 234.822 317.922 234.707 318.412C234.341 319.963 233.531 321.373 232.376 322.471C231.221 323.57 229.772 324.308 228.205 324.596C226.746 324.752 225.278 324.807 223.811 324.76H213.826C206.742 324.76 200.327 324.76 195.692 324.695L190.2 324.618L188.706 324.563C188.529 324.56 188.352 324.542 188.179 324.508C188.35 324.459 188.528 324.437 188.706 324.442L190.2 324.387L195.692 324.288C200.327 324.233 206.742 324.2 213.826 324.189H223.8C225.239 324.247 226.681 324.214 228.117 324.09C229.333 323.883 230.484 323.394 231.478 322.662C232.946 321.58 234.003 320.031 234.476 318.269C234.861 317.116 234.828 316.391 234.894 316.391Z" fill="#263238"/>
<path d="M248.876 330.284C246.615 330.573 244.333 330.669 242.055 330.57C239.781 330.669 237.503 330.573 235.245 330.284C237.503 330.002 239.781 329.907 242.055 329.999C244.333 329.907 246.614 330.002 248.876 330.284Z" fill="#263238"/>
<path d="M282.663 325.091C282.337 324.015 282.109 322.912 281.982 321.795C281.609 319.686 281.114 316.622 280.521 312.843C279.928 309.065 279.522 304.485 277.435 299.948C276.341 297.589 274.957 295.375 273.316 293.358C271.521 291.218 269.436 289.34 267.121 287.778C264.815 286.198 262.281 284.979 259.608 284.164C257.118 283.369 254.531 282.922 251.919 282.835C246.899 282.725 242.308 282.747 238.485 282.67C234.663 282.593 231.554 282.56 229.412 282.495C228.309 282.52 227.206 282.443 226.117 282.264C227.207 282.093 228.31 282.02 229.412 282.044C231.554 281.978 234.652 281.912 238.485 281.868C242.319 281.825 246.855 281.726 251.952 281.792C257.584 281.924 263.06 283.674 267.725 286.833C270.133 288.449 272.294 290.406 274.139 292.644C275.838 294.745 277.259 297.056 278.368 299.52C278.621 300.102 278.83 300.706 279.06 301.288L279.39 302.167C279.467 302.463 279.555 302.76 279.631 303.057C279.796 303.639 279.961 304.221 280.115 304.792C280.268 305.363 280.323 305.945 280.433 306.506C280.818 308.757 281.026 310.822 281.29 312.734C281.773 316.523 282.158 319.61 282.388 321.729C282.581 322.839 282.673 323.964 282.663 325.091Z" fill="#455A64"/>
<path d="M276.029 431.481H274.93C275.01 427.09 274.215 422.728 272.59 418.649C270.965 414.569 268.544 410.855 265.467 407.721C262.391 404.588 258.721 402.1 254.672 400.401C250.623 398.702 246.276 397.827 241.885 397.827C237.494 397.827 233.147 398.702 229.098 400.401C225.049 402.1 221.379 404.588 218.302 407.721C215.226 410.855 212.804 414.569 211.18 418.649C209.555 422.728 208.759 427.09 208.839 431.481H207.741C207.659 426.945 208.483 422.439 210.162 418.225C211.841 414.011 214.343 410.174 217.522 406.938C220.701 403.702 224.492 401.132 228.675 399.377C232.858 397.622 237.349 396.719 241.885 396.719C246.421 396.719 250.911 397.622 255.094 399.377C259.277 401.132 263.069 403.702 266.248 406.938C269.426 410.174 271.928 414.011 273.608 418.225C275.287 422.439 276.11 426.945 276.029 431.481Z" fill="#455A64"/>
<path d="M213.409 433.216C213.409 434.229 213.109 435.218 212.546 436.06C211.984 436.902 211.185 437.558 210.249 437.945C209.314 438.333 208.285 438.434 207.292 438.236C206.299 438.039 205.387 437.551 204.671 436.836C203.955 436.12 203.468 435.208 203.27 434.215C203.073 433.222 203.174 432.193 203.561 431.257C203.949 430.322 204.605 429.523 205.447 428.96C206.288 428.398 207.278 428.098 208.29 428.098C208.963 428.096 209.629 428.228 210.251 428.484C210.873 428.741 211.437 429.118 211.913 429.594C212.389 430.069 212.766 430.634 213.022 431.256C213.279 431.877 213.41 432.544 213.409 433.216Z" fill="#263238"/>
<path d="M280.851 432.513C280.851 433.525 280.551 434.515 279.989 435.357C279.426 436.199 278.627 436.855 277.692 437.242C276.756 437.629 275.727 437.731 274.734 437.533C273.741 437.336 272.829 436.848 272.113 436.132C271.398 435.417 270.91 434.505 270.713 433.512C270.515 432.519 270.616 431.49 271.004 430.554C271.391 429.619 272.047 428.82 272.889 428.257C273.731 427.695 274.72 427.395 275.733 427.395C277.09 427.395 278.392 427.934 279.352 428.894C280.312 429.854 280.851 431.156 280.851 432.513Z" fill="#263238"/>
<path d="M275.701 423.086C275.701 423.251 260.839 423.383 242.518 423.383C224.196 423.383 209.335 423.251 209.335 423.086C209.335 422.922 224.185 422.801 242.518 422.801C260.85 422.801 275.701 422.933 275.701 423.086Z" fill="#455A64"/>
<path d="M162.345 209.354C163.155 209.866 163.854 210.535 164.401 211.322C164.948 212.108 165.332 212.997 165.53 213.934C165.906 215.823 165.846 217.773 165.354 219.635C164.52 223.238 162.059 226.687 159.423 229.345C156.666 226.302 156.501 221.535 156.567 219.108C156.677 215.274 159.214 208.409 162.345 209.354Z" fill="#004E9E"/>
<path d="M162.3 235.804C162.217 234.739 162.416 233.67 162.877 232.706C163.338 231.742 164.044 230.917 164.925 230.312C165.821 229.722 166.825 229.314 167.879 229.115C168.933 228.915 170.016 228.926 171.066 229.148C171.558 229.2 172.033 229.358 172.458 229.612C172.883 229.866 173.248 230.21 173.526 230.62C173.72 231.041 173.798 231.507 173.751 231.968C173.705 232.43 173.536 232.871 173.262 233.245C172.695 233.993 171.936 234.574 171.066 234.926C168.199 236.288 165.178 237.122 162.278 235.826" fill="#004E9E"/>
<path d="M157.665 243.844C157.817 243.038 158.053 242.25 158.368 241.493C158.675 240.652 159.084 239.851 159.587 239.11C160.162 238.184 160.8 237.299 161.498 236.463C162.783 234.922 164.428 233.722 166.288 232.97C166.853 232.762 167.438 232.611 168.034 232.519C168.252 232.483 168.475 232.483 168.693 232.519C168.693 232.596 167.77 232.695 166.397 233.277C164.629 234.085 163.064 235.279 161.817 236.77C161.128 237.591 160.49 238.453 159.906 239.351C159.403 240.067 158.976 240.832 158.632 241.636C158.362 242.394 158.039 243.132 157.665 243.844Z" fill="#263238"/>
<path d="M160.872 214.746C160.913 215.159 160.913 215.575 160.872 215.987C160.872 216.778 160.762 217.931 160.663 219.348C160.454 222.193 160.114 226.115 159.653 230.442C159.191 234.77 158.642 238.658 158.192 241.426C157.961 242.832 157.774 243.964 157.621 244.722C157.564 245.131 157.472 245.536 157.346 245.93C157.342 245.513 157.379 245.098 157.456 244.689C157.577 243.832 157.719 242.7 157.895 241.393C158.269 238.57 158.763 234.671 159.235 230.343C159.708 226.016 160.07 222.182 160.334 219.283C160.476 217.92 160.597 216.789 160.685 215.921C160.719 215.526 160.781 215.133 160.872 214.746Z" fill="#263238"/>
<path d="M157.489 236.676C157.065 234.453 156.119 232.362 154.729 230.576C153.339 228.791 151.544 227.361 149.493 226.406C148.394 225.933 147.087 225.637 146.252 226.406C145.418 227.174 145.637 228.602 146.077 229.646C147.034 231.849 148.623 233.718 150.642 235.018C152.662 236.318 155.022 236.991 157.423 236.95" fill="#004E9E"/>
<path d="M150.294 229.672C150.502 229.736 150.698 229.832 150.876 229.957C153.097 231.233 155.03 232.953 156.555 235.01C157.155 235.92 157.604 236.922 157.884 237.976C158.101 238.837 158.201 239.724 158.18 240.612C158.165 241.207 158.095 241.799 157.972 242.38C157.943 242.6 157.884 242.814 157.796 243.018C157.708 243.018 157.906 242.084 157.884 240.612C157.863 239.755 157.741 238.903 157.521 238.075C157.227 237.069 156.783 236.114 156.203 235.241C155.094 233.67 153.74 232.287 152.194 231.144C151.531 230.693 150.896 230.201 150.294 229.672Z" fill="#263238"/>
<path d="M157.127 271.514C153.484 271.511 149.992 270.062 147.417 267.486C144.843 264.909 143.396 261.415 143.396 257.773V244.043H170.857V257.773C170.857 261.415 169.41 264.909 166.836 267.486C164.261 270.062 160.769 271.511 157.127 271.514Z" fill="#263238"/>
<path d="M170.868 250.797C170.757 250.937 170.632 251.066 170.494 251.181L169.396 252.203L165.211 255.739L165.112 255.816L164.991 255.75L157.072 250.994H157.302L149.844 255.739L149.734 255.816L149.624 255.728L145.066 252.159L143.814 251.148C143.659 251.034 143.519 250.901 143.396 250.753C143.575 250.826 143.742 250.926 143.891 251.049C144.242 251.302 144.682 251.62 145.209 251.983L149.855 255.432H149.635L157.006 250.577L157.127 250.5L157.247 250.566L165.167 255.421H164.947L169.198 251.983L170.395 251.038C170.703 250.884 170.857 250.775 170.868 250.797Z" fill="#E0E0E0"/>
<path d="M170.868 248.05C170.757 248.191 170.632 248.32 170.494 248.435L169.396 249.456L165.255 253.026L165.156 253.103L165.035 253.037L157.072 248.248H157.302L149.888 253.048L149.778 253.125L149.668 253.037L145.11 249.467L143.858 248.457C143.703 248.343 143.563 248.21 143.44 248.061C143.619 248.134 143.786 248.234 143.935 248.358L145.253 249.291L149.899 252.74H149.679L157.05 247.885L157.17 247.809L157.291 247.874L165.211 252.729H164.991L169.242 249.291L170.439 248.347C170.703 248.138 170.857 248.05 170.868 248.05Z" fill="#E0E0E0"/>
<path d="M170.868 253.542C170.868 253.542 170.747 253.696 170.495 253.938L169.396 254.948L165.255 258.518L165.156 258.606L165.036 258.529L157.072 253.795H157.303L149.889 258.595L149.779 258.672L149.669 258.595C147.835 257.145 146.286 255.937 145.111 255.025L143.858 254.004C143.573 253.762 143.43 253.63 143.441 253.608C143.617 253.687 143.783 253.786 143.935 253.905C144.287 254.168 144.726 254.476 145.253 254.849L149.9 258.287H149.68L157.05 253.432L157.171 253.355L157.292 253.432L165.211 258.276H164.992L169.243 254.827L170.44 253.894C170.567 253.758 170.711 253.64 170.868 253.542Z" fill="#E0E0E0"/>
<path d="M526.75 303.761C521.06 304.683 518.512 311.669 519.061 317.414C519.61 323.159 521.928 328.782 521.258 334.505C520.456 341.787 514.953 347.939 514.316 355.232C513.558 363.832 519.643 371.466 521.456 379.902C522.345 384.01 522.224 388.36 523.751 392.27C525.055 395.601 527.473 398.376 530.593 400.123C533.714 401.87 537.344 402.481 540.864 401.851C544.385 401.222 547.578 399.39 549.899 396.67C552.221 393.949 553.527 390.508 553.595 386.932C553.716 380.341 549.641 374.113 550.135 367.523C550.497 362.657 553.353 358.044 552.749 353.244C552.013 347.477 546.675 343.358 544.786 337.866C542.896 332.374 544.72 326.311 544.061 320.533C542.896 310.175 537.152 302.959 526.761 303.783" fill="#004E9E"/>
<path d="M497.687 353.926C496.71 363.526 500.983 374.795 505.892 383.11C510.89 391.462 518.42 398.003 527.388 401.783C528.388 402.201 529.64 402.552 530.486 401.871C530.787 401.542 531.013 401.152 531.147 400.727C531.282 400.302 531.322 399.853 531.266 399.411C531.339 389.221 528.105 379.282 522.051 371.085C515.997 362.888 507.448 356.875 497.687 353.948" fill="#004E9E"/>
<g opacity="0.2">
<path d="M497.687 353.926C496.71 363.526 500.983 374.795 505.892 383.11C510.89 391.462 518.42 398.003 527.388 401.783C528.388 402.201 529.64 402.552 530.486 401.871C530.787 401.542 531.013 401.152 531.147 400.727C531.282 400.302 531.322 399.853 531.266 399.411C531.339 389.221 528.105 379.282 522.051 371.085C515.997 362.888 507.448 356.875 497.687 353.948" fill="black"/>
</g>
<path d="M539.503 421.827C539.388 421.664 539.295 421.487 539.228 421.3L538.536 419.718C537.965 418.356 537.097 416.423 535.999 413.951C533.139 407.647 529.96 401.491 526.476 395.509C522.968 389.534 519.163 383.738 515.074 378.143C513.504 376.001 512.208 374.277 511.296 373.102C510.878 372.552 510.527 372.091 510.263 371.729C510.134 371.576 510.02 371.41 509.923 371.234C509.923 371.234 510.088 371.366 510.34 371.663L511.439 372.97C512.405 374.068 513.745 375.793 515.36 377.913C523.768 388.991 530.815 401.039 536.35 413.798C537.449 416.247 538.218 418.246 538.734 419.641L539.327 421.256C539.403 421.44 539.461 421.632 539.503 421.827Z" fill="#263238"/>
<path d="M533.319 330.324C533.381 330.628 533.417 330.937 533.429 331.247C533.429 331.895 533.538 332.774 533.615 333.894C533.769 336.234 533.978 339.551 534.241 343.615C534.758 351.831 535.483 363.177 536.372 375.699C537.262 388.221 538.119 399.568 538.756 407.773C539.063 411.837 539.316 415.143 539.503 417.494C539.58 418.592 539.635 419.482 539.679 420.13C539.705 420.44 539.705 420.753 539.679 421.063C539.679 421.063 539.624 420.745 539.547 420.141C539.47 419.537 539.382 418.614 539.261 417.504C539.041 415.165 538.734 411.859 538.349 407.806C537.614 399.601 536.68 388.276 535.801 375.743C534.922 363.21 534.274 351.864 533.824 343.615C533.637 339.54 533.484 336.234 533.374 333.883C533.374 332.785 533.308 331.884 533.286 331.225C533.269 330.924 533.28 330.623 533.319 330.324Z" fill="#263238"/>
<path d="M524.488 408.145H548.532V425.796C548.529 428.856 547.312 431.789 545.147 433.952C542.983 436.114 540.048 437.329 536.988 437.329C534.035 437.331 531.194 436.199 529.05 434.168C526.906 432.136 525.623 429.36 525.466 426.411L524.488 408.145Z" fill="#263238"/>
<path d="M402.719 175.434L460.056 207.188L457.903 211.231L401.071 178.883L402.719 175.434Z" fill="#004E9E"/>
<path d="M399.896 172.433L402.533 168.402L404.07 169.347L401.709 173.411L399.896 172.433Z" fill="#004E9E"/>
<path d="M453.542 202.164L456.485 203.856L446.885 265.125L442.338 265.179L453.542 202.164Z" fill="#004E9E"/>
<path d="M429.125 271.509C429.125 271.509 436.122 264.435 445.48 264.918C448.155 265.016 450.784 265.642 453.215 266.76C455.647 267.878 457.834 269.466 459.65 271.432L429.125 271.509Z" fill="#004E9E"/>
<path d="M399.951 200.213L377.247 187.098L383.837 175.752C384.698 174.261 385.843 172.954 387.208 171.905C388.574 170.857 390.132 170.088 391.795 169.642C393.458 169.197 395.192 169.083 396.898 169.307C398.605 169.532 400.251 170.091 401.741 170.952C404.751 172.691 406.946 175.553 407.846 178.91C408.746 182.267 408.277 185.844 406.541 188.856L399.951 200.213Z" fill="#004E9E"/>
</svg>
