<svg width="64" height="61" viewBox="0 0 64 61" fill="none" xmlns="http://www.w3.org/2000/svg">
<path d="M62.9333 39.8345H1.06667C0.477867 39.8345 0 39.3649 0 38.7862V4.19415C0 1.88166 1.91467 0 4.26773 0H59.7323C62.0853 0 64 1.88166 64 4.19415V38.7862C64 39.3649 63.5221 39.8345 62.9333 39.8345ZM2.13333 37.7379H61.8667V4.19415C61.8667 3.03686 60.9088 2.09655 59.7323 2.09655H4.26773C3.0912 2.09655 2.13333 3.03686 2.13333 4.19415V37.7379Z" fill="black"/>
<path d="M59.7323 48.221H4.26773C1.91467 48.221 0 46.3394 0 44.0269V38.7866C0 38.2079 0.477867 37.7383 1.06667 37.7383H62.9333C63.5221 37.7383 64 38.2079 64 38.7866V44.0269C64 46.3394 62.0853 48.221 59.7323 48.221ZM2.13333 39.8348V44.0269C2.13333 45.1842 3.0912 46.1245 4.26773 46.1245H59.7323C60.9088 46.1245 61.8667 45.1842 61.8667 44.0269V39.8348H2.13333Z" fill="black"/>
<path d="M35.2001 44.0262H28.8001C28.2113 44.0262 27.7334 43.5566 27.7334 42.978C27.7334 42.3993 28.2113 41.9297 28.8001 41.9297H35.2001C35.7889 41.9297 36.2667 42.3993 36.2667 42.978C36.2667 43.5566 35.7889 44.0262 35.2001 44.0262Z" fill="black"/>
<path d="M58.6666 39.8328H5.33327C4.74447 39.8328 4.2666 39.3632 4.2666 38.7845V5.23968C4.2666 4.66103 4.74447 4.19141 5.33327 4.19141H58.6666C59.2554 4.19141 59.7333 4.66103 59.7333 5.23968V38.7845C59.7333 39.3632 59.2554 39.8328 58.6666 39.8328ZM6.39994 37.7362H57.5999V6.28796H6.39994V37.7362Z" fill="black"/>
<path d="M45.8669 60.8014H18.1336C16.3693 60.8014 14.9336 59.3904 14.9336 57.6565C14.9336 55.9227 16.3693 54.5117 18.1336 54.5117H45.8669C47.6312 54.5117 49.0669 55.9227 49.0669 57.6565C49.0669 59.3904 47.6312 60.8014 45.8669 60.8014ZM18.1336 56.6083C17.5448 56.6083 17.0669 57.0789 17.0669 57.6565C17.0669 58.2341 17.5448 58.7048 18.1336 58.7048H45.8669C46.4557 58.7048 46.9336 58.2341 46.9336 57.6565C46.9336 57.0789 46.4557 56.6083 45.8669 56.6083H18.1336Z" fill="black"/>
<path d="M43.7335 56.6078H20.2669C19.6781 56.6078 19.2002 56.1381 19.2002 55.5595C19.2002 54.9808 19.6781 54.5112 20.2669 54.5112C23.8061 54.5112 25.6002 52.0425 25.6002 47.1733C25.6002 46.5946 26.0781 46.125 26.6669 46.125H37.3335C37.9223 46.125 38.4002 46.5946 38.4002 47.1733C38.4002 52.0425 40.1943 54.5112 43.7335 54.5112C44.3223 54.5112 44.8002 54.9808 44.8002 55.5595C44.8002 56.1381 44.3223 56.6078 43.7335 56.6078ZM25.4626 54.5112H38.5389C37.2247 53.0814 36.4514 50.9523 36.2967 48.2216H27.7047C27.549 50.9523 26.7757 53.0814 25.4626 54.5112Z" fill="black"/>
<path d="M47.1984 35.6396C46.9158 35.6396 46.6438 35.5295 46.4443 35.3324L43.8693 32.8008L42.3611 34.2842C42.0955 34.5452 41.7083 34.6479 41.3456 34.5598C40.9819 34.4697 40.6928 34.1982 40.5851 33.8439L37.3851 23.3611C37.272 22.9921 37.3744 22.5917 37.6528 22.3191C37.9301 22.0466 38.3365 21.9449 38.7131 22.056L49.3797 25.2008C49.7392 25.3078 50.0155 25.5908 50.1072 25.9483C50.199 26.3057 50.0923 26.6852 49.8267 26.9462L48.3941 28.3541L50.9691 30.8846C51.3862 31.2945 51.3862 31.957 50.9691 32.3669L47.9526 35.3324C47.7531 35.5295 47.4811 35.6396 47.1984 35.6396ZM43.8693 30.4034C44.2256 30.4034 44.5819 30.5366 44.8539 30.8039L47.1984 33.109L48.7067 31.6257L46.232 29.1937C46.0037 28.9715 45.8779 28.6717 45.8779 28.3541C45.8779 28.0375 46.0027 27.7398 46.2299 27.5154L47.0555 26.7041L39.9974 24.6232L42.1147 31.5597L42.8848 30.8028C43.1558 30.5376 43.512 30.4034 43.8693 30.4034Z" fill="black"/>
<path d="M44.8005 15.7246H14.9339C14.3451 15.7246 13.8672 15.255 13.8672 14.6764V9.43499C13.8672 8.85635 14.3451 8.38672 14.9339 8.38672H44.8005C45.3893 8.38672 45.8672 8.85635 45.8672 9.43499V14.6764C45.8672 15.255 45.3893 15.7246 44.8005 15.7246ZM16.0005 13.6281H43.7339V10.4833H16.0005V13.6281Z" fill="black"/>
<path d="M27.7328 26.2076H19.1995C18.6107 26.2076 18.1328 25.738 18.1328 25.1593V20.9662C18.1328 20.3876 18.6107 19.918 19.1995 19.918H27.7328C28.3216 19.918 28.7995 20.3876 28.7995 20.9662V25.1593C28.7995 25.738 28.3216 26.2076 27.7328 26.2076ZM20.2661 24.1111H26.6661V22.0145H20.2661V24.1111Z" fill="black"/>
<path d="M40.3269 30.4005H14.9339C14.3451 30.4005 13.8672 29.9309 13.8672 29.3522V9.43499C13.8672 8.85635 14.3451 8.38672 14.9339 8.38672H44.8005C45.3893 8.38672 45.8672 8.85635 45.8672 9.43499V24.9474C45.8672 25.2786 45.7083 25.591 45.4373 25.7881C45.1675 25.9862 44.8176 26.047 44.4944 25.9516L39.9984 24.6256L41.3488 29.0503C41.4459 29.368 41.384 29.7118 41.1824 29.9781C40.9819 30.2443 40.6651 30.4005 40.3269 30.4005ZM16.0005 28.304H38.8933L37.3851 23.3645C37.272 22.9944 37.3744 22.595 37.6528 22.3215C37.9301 22.0489 38.3365 21.9472 38.7131 22.0583L43.7339 23.5385V10.4833H16.0005V28.304Z" fill="black"/>
</svg>
