<svg width="64" height="60" viewBox="0 0 64 60" fill="none" xmlns="http://www.w3.org/2000/svg">
<path d="M33.4329 17.1407C33.5158 16.8848 33.6966 16.6724 33.9356 16.5501C34.1745 16.4277 34.4522 16.4054 34.7076 16.488C36.4733 17.0586 38.0125 18.1769 39.1031 19.6814C40.1937 21.1859 40.7792 22.9989 40.7752 24.8586C40.768 25.1229 40.6582 25.3738 40.4692 25.5581C40.2802 25.7425 40.027 25.8456 39.7633 25.8456C39.4996 25.8456 39.2463 25.7425 39.0574 25.5581C38.8684 25.3738 38.7586 25.1229 38.7514 24.8586C38.7547 23.4278 38.3045 22.0329 37.4655 20.8754C36.6266 19.7178 35.4424 18.8574 34.0839 18.4185C33.8287 18.3354 33.6168 18.1541 33.4947 17.9146C33.3727 17.675 33.3504 17.3967 33.4329 17.1407ZM64 52.3758C63.9978 54.3972 63.1958 56.3352 61.77 57.7645C60.3441 59.1938 58.4109 59.9978 56.3945 60H7.60547C5.58837 60 3.65389 59.1967 2.22759 57.7669C0.801288 56.3371 0 54.3979 0 52.3758C0 50.3538 0.801288 48.4145 2.22759 46.9847C3.65389 45.5549 5.58837 44.7516 7.60547 44.7516H9.41633C8.72422 42.9333 8.45113 40.9817 8.61749 39.0426C8.78385 37.1036 9.38536 35.2273 10.377 33.5542C11.3687 31.8811 12.7249 30.4543 14.3441 29.3806C15.9634 28.307 17.8038 27.6142 19.7278 27.354C19.5983 26.4939 19.5365 25.6248 19.543 24.7549C19.543 21.443 20.8554 18.2667 23.1916 15.9249C25.5277 13.583 28.6962 12.2673 32 12.2673C35.3038 12.2673 38.4723 13.583 40.8084 15.9249C43.1446 18.2667 44.457 21.443 44.457 24.7549C44.5267 26.4703 44.229 28.1806 43.5839 29.7709C43.7327 30.28 43.8498 30.798 43.9345 31.3217C46.665 32.0638 49.0759 33.6861 50.7952 35.9383C52.5144 38.1905 53.4465 40.9474 53.4474 43.7834C53.4474 44.1061 53.4355 44.4289 53.4117 44.7516H56.3915C58.4084 44.7531 60.3424 45.5567 61.7689 46.9861C63.1954 48.4155 63.9978 50.3539 64 52.3758ZM21.5668 24.7549C21.555 25.6356 21.6271 26.5153 21.7821 27.3822C21.7989 27.4398 21.8109 27.4987 21.8178 27.5584C22.142 29.0685 22.9871 30.4157 24.2044 31.3628C25.8844 32.9456 27.779 34.7289 27.9699 40.6056H36.0309C36.2248 34.7281 38.1171 32.9456 39.7964 31.3628C40.5041 30.7662 41.1065 30.0543 41.5783 29.257C41.5928 29.225 41.6095 29.1937 41.627 29.1625C42.2459 27.7798 42.523 26.2679 42.4347 24.7549C42.4112 21.9965 41.3016 19.359 39.3475 17.4167C37.3934 15.4744 34.753 14.3846 32.0011 14.3846C29.2493 14.3846 26.6089 15.4744 24.6548 17.4167C22.7007 19.359 21.5903 21.9965 21.5668 24.7549ZM26.4784 47.475C26.4788 47.7237 26.5776 47.9621 26.7531 48.1379C26.9287 48.3137 27.1666 48.4126 27.4147 48.4128H33.6146C33.6146 48.3327 33.6086 48.2527 33.6086 48.1726C33.6089 47.6226 33.6689 47.0743 33.7873 46.5372H27.4147C27.1663 46.5374 26.9282 46.6365 26.7526 46.8126C26.577 46.9887 26.4784 47.2275 26.4784 47.4765V47.475ZM30.9094 50.4416L31.0356 50.9646C31.1421 51.4037 31.4091 52.1418 32 52.1418C32.5909 52.1418 32.8579 51.4037 32.9644 50.9646L33.0906 50.4416H30.9094ZM35.6324 48.1726C35.6324 49.2778 35.9593 50.3581 36.5718 51.277C37.1843 52.1959 38.0548 52.9121 39.0733 53.335C40.0918 53.758 41.2126 53.8686 42.2939 53.653C43.3751 53.4374 44.3683 52.9052 45.1479 52.1238C45.9274 51.3423 46.4583 50.3466 46.6734 49.2627C46.8884 48.1788 46.7781 47.0553 46.3562 46.0343C45.9343 45.0132 45.2198 44.1405 44.3032 43.5266C43.3865 42.9126 42.3089 42.5849 41.2064 42.5849C39.7284 42.5867 38.3114 43.1762 37.2664 44.224C36.2214 45.2719 35.6338 46.6925 35.6324 48.1741V48.1726ZM36.0005 42.6329H27.4147C27.1666 42.6329 26.9286 42.7317 26.7532 42.9076C26.5778 43.0834 26.4792 43.3219 26.4792 43.5707C26.4792 43.8194 26.5778 44.0579 26.7532 44.2338C26.9286 44.4096 27.1666 44.5084 27.4147 44.5084H34.5478C34.9319 43.8118 35.422 43.1796 36.0005 42.6344V42.6329ZM61.9762 52.3758C61.9746 50.8923 61.386 49.4701 60.3396 48.4211C59.2932 47.3721 57.8744 46.7821 56.3945 46.7804H52.2739C52.1268 46.7805 51.9815 46.7484 51.848 46.6864C51.7146 46.6243 51.5962 46.5339 51.5012 46.4213C51.4062 46.3087 51.3369 46.1767 51.298 46.0345C51.2591 45.8923 51.2516 45.7433 51.2761 45.5979C51.7409 42.8277 51.1203 39.9845 49.5439 37.662C47.9674 35.3395 45.5569 33.7172 42.8157 33.1339C42.6061 33.0897 42.4158 32.98 42.2723 32.8205C42.1288 32.6611 42.0395 32.4601 42.0172 32.2465C42.0103 32.1809 42.0019 32.1161 41.9943 32.0505C41.7274 32.3265 41.4536 32.5842 41.1813 32.8412C39.6245 34.308 38.1513 35.6995 38.0441 40.9929C38.1267 41.0397 38.2069 41.0906 38.2844 41.1454C39.6265 40.584 41.1011 40.4206 42.5332 40.6744C43.9652 40.9283 45.2945 41.5888 46.3632 42.5775C47.4319 43.5663 48.195 44.8417 48.562 46.2523C48.9291 47.663 48.8845 49.1496 48.4337 50.5356C47.983 51.9216 47.1448 53.1489 46.0189 54.0715C44.893 54.9942 43.5266 55.5736 42.0819 55.7409C40.6373 55.9081 39.1751 55.6563 37.869 55.0152C36.5629 54.3741 35.4677 53.3707 34.7136 52.1242C34.5322 52.7074 34.1727 53.2188 33.6858 53.5863C33.1989 53.9537 32.6093 54.1586 32 54.1721C30.5785 54.1721 29.4834 53.1527 29.0696 51.4449L28.8262 50.4431H27.4147C26.846 50.4436 26.2894 50.2797 25.8113 49.9711C25.3332 49.6625 24.954 49.2222 24.7192 48.7031C24.4843 48.184 24.4038 47.608 24.4872 47.0441C24.5705 46.4803 24.8143 45.9525 25.1893 45.524C24.8995 45.1932 24.687 44.8017 24.5672 44.3782C24.4474 43.9546 24.4233 43.5096 24.4968 43.0755C24.5702 42.6415 24.7393 42.2293 24.9917 41.869C25.2442 41.5088 25.5736 41.2095 25.9559 40.9929C25.8487 35.6995 24.3755 34.308 22.8187 32.8412C21.6816 31.9046 20.7946 30.6995 20.2374 29.334C18.4756 29.533 16.7891 30.1614 15.3255 31.1645C13.8618 32.1675 12.6654 33.5146 11.8409 35.088C11.0163 36.6614 10.5887 38.4133 10.5954 40.1906C10.602 41.968 11.0427 43.7166 11.879 45.2838C11.9619 45.4383 12.0034 45.6118 11.9994 45.7872C11.9954 45.9626 11.9461 46.134 11.8563 46.2845C11.7665 46.4351 11.6392 46.5598 11.4869 46.6463C11.3347 46.7328 11.1626 46.7782 10.9876 46.7782H7.60547C6.86704 46.7695 6.13425 46.9078 5.44954 47.1851C4.76482 47.4624 4.14181 47.8732 3.61659 48.3936C3.09137 48.914 2.67439 49.5337 2.38979 50.2168C2.1052 50.8999 1.95866 51.6329 1.95866 52.3732C1.95866 53.1134 2.1052 53.8464 2.38979 54.5295C2.67439 55.2126 3.09137 55.8323 3.61659 56.3527C4.14181 56.8731 4.76482 57.2839 5.44954 57.5612C6.13425 57.8385 6.86704 57.9768 7.60547 57.9682H56.3945C57.8739 57.9665 59.2922 57.3769 60.3385 56.3286C61.3848 55.2803 61.9738 53.8588 61.9762 52.3758ZM39.6055 51.1026C39.6993 51.1968 39.8108 51.2716 39.9336 51.3227C40.0563 51.3737 40.1879 51.3999 40.3208 51.3999C40.4536 51.3999 40.5852 51.3737 40.7079 51.3227C40.8307 51.2716 40.9422 51.1968 41.0361 51.1026L45.4472 46.6806C45.6271 46.4885 45.7254 46.2337 45.7212 45.9702C45.717 45.7068 45.6106 45.4553 45.4247 45.2691C45.2387 45.0829 44.9877 44.9766 44.7249 44.9726C44.4621 44.9687 44.2081 45.0674 44.0166 45.248L40.3211 48.9533L39.0282 47.6572C38.8385 47.4669 38.5812 47.36 38.3128 47.3599C38.0444 47.3599 37.7871 47.4667 37.5972 47.6568C37.4074 47.847 37.3008 48.105 37.3007 48.374C37.3006 48.643 37.4072 48.9011 37.5969 49.0913L39.6055 51.1026ZM32.632 9.50964C32.7649 9.50964 32.8965 9.48339 33.0193 9.43238C33.1421 9.38137 33.2536 9.30661 33.3475 9.21237C33.4415 9.11813 33.516 9.00626 33.5668 8.88314C33.6176 8.76003 33.6436 8.62809 33.6435 8.49486V1.01402C33.6435 0.745082 33.537 0.487163 33.3473 0.296998C33.1576 0.106833 32.9003 0 32.632 0C32.3637 0 32.1065 0.106833 31.9168 0.296998C31.7271 0.487163 31.6205 0.745082 31.6205 1.01402V8.49486C31.6204 8.62809 31.6465 8.76003 31.6973 8.88314C31.7481 9.00626 31.8225 9.11813 31.9165 9.21237C32.0104 9.30661 32.122 9.38137 32.2447 9.43238C32.3675 9.48339 32.4991 9.50964 32.632 9.50964ZM43.9695 14.4364C44.1024 14.4366 44.2341 14.4104 44.3569 14.3593C44.4798 14.3083 44.5913 14.2334 44.6852 14.139L49.9618 8.84939C50.1515 8.65921 50.2581 8.40128 50.2581 8.13233C50.2581 7.86338 50.1515 7.60545 49.9618 7.41528C49.7721 7.2251 49.5148 7.11826 49.2465 7.11826C48.9782 7.11826 48.721 7.2251 48.5312 7.41528L43.2561 12.7049C43.1149 12.8468 43.0187 13.0275 42.9798 13.2241C42.9409 13.4207 42.961 13.6245 43.0374 13.8097C43.1139 13.9949 43.2434 14.1533 43.4095 14.2648C43.5757 14.3763 43.771 14.436 43.971 14.4364H43.9695ZM47.1143 25.4853C47.1143 25.7543 47.2209 26.0122 47.4106 26.2024C47.6003 26.3925 47.8576 26.4994 48.1259 26.4994H55.5884C55.8519 26.4921 56.1023 26.3821 56.2861 26.1926C56.47 26.0032 56.5729 25.7493 56.5729 25.485C56.5729 25.2206 56.47 24.9668 56.2861 24.7773C56.1023 24.5879 55.8519 24.4778 55.5884 24.4706H48.1236C47.8556 24.4712 47.5988 24.5784 47.4095 24.7686C47.2203 24.9589 47.1141 25.2167 47.1143 25.4853ZM19.5841 14.1413C19.678 14.2355 19.7895 14.3103 19.9123 14.3613C20.035 14.4123 20.1666 14.4386 20.2995 14.4386C20.4324 14.4386 20.5639 14.4124 20.6867 14.3615C20.8095 14.3106 20.9211 14.2359 21.015 14.1417C21.109 14.0475 21.1836 13.9357 21.2345 13.8127C21.2854 13.6896 21.3116 13.5577 21.3116 13.4245C21.3116 13.2913 21.2855 13.1594 21.2347 13.0364C21.1839 12.9133 21.1094 12.8014 21.0154 12.7072L15.7388 7.41756C15.549 7.22729 15.2917 7.12035 15.0233 7.12028C14.755 7.12021 14.4976 7.22701 14.3078 7.41718C14.118 7.60736 14.0113 7.86533 14.0112 8.13435C14.0112 8.40337 14.1177 8.6614 14.3074 8.85167L19.5841 14.1413ZM8.68164 26.4994H16.1441C16.4077 26.4921 16.658 26.3821 16.8419 26.1926C17.0258 26.0032 17.1287 25.7493 17.1287 25.485C17.1287 25.2206 17.0258 24.9668 16.8419 24.7773C16.658 24.5879 16.4077 24.4778 16.1441 24.4706H8.68164C8.54642 24.4668 8.41183 24.4903 8.28582 24.5396C8.15981 24.5889 8.04493 24.6631 7.94798 24.7576C7.85103 24.8522 7.77396 24.9653 7.72134 25.0902C7.66872 25.2151 7.64161 25.3494 7.64161 25.485C7.64161 25.6206 7.66872 25.7548 7.72134 25.8797C7.77396 26.0046 7.85103 26.1177 7.94798 26.2123C8.04493 26.3068 8.15981 26.381 8.28582 26.4303C8.41183 26.4796 8.54642 26.5031 8.68164 26.4994ZM19.2875 49.2888H10.4339C10.1704 49.296 9.92002 49.4061 9.73615 49.5955C9.55228 49.785 9.4494 50.0389 9.4494 50.3032C9.4494 50.5675 9.55228 50.8214 9.73615 51.0108C9.92002 51.2003 10.1704 51.3103 10.4339 51.3176H19.2875C19.4227 51.3213 19.5573 51.2978 19.6833 51.2485C19.8093 51.1992 19.9242 51.1251 20.0211 51.0305C20.1181 50.936 20.1951 50.8229 20.2478 50.6979C20.3004 50.573 20.3275 50.4388 20.3275 50.3032C20.3275 50.1676 20.3004 50.0334 20.2478 49.9084C20.1951 49.7835 20.1181 49.6704 20.0211 49.5759C19.9242 49.4813 19.8093 49.4072 19.6833 49.3579C19.5573 49.3086 19.4227 49.2851 19.2875 49.2888ZM19.2875 53.8534H10.4339C10.1704 53.8606 9.92002 53.9707 9.73615 54.1601C9.55228 54.3496 9.4494 54.6035 9.4494 54.8678C9.4494 55.1321 9.55228 55.386 9.73615 55.5754C9.92002 55.7649 10.1704 55.8749 10.4339 55.8822H19.2875C19.4227 55.8859 19.5573 55.8624 19.6833 55.8131C19.8093 55.7638 19.9242 55.6897 20.0211 55.5951C20.1181 55.5005 20.1951 55.3875 20.2478 55.2625C20.3004 55.1376 20.3275 55.0034 20.3275 54.8678C20.3275 54.7322 20.3004 54.598 20.2478 54.473C20.1951 54.3481 20.1181 54.235 20.0211 54.1405C19.9242 54.0459 19.8093 53.9718 19.6833 53.9225C19.5573 53.8732 19.4227 53.8497 19.2875 53.8534Z" fill="black"/>
</svg>
