<svg width="64" height="70" viewBox="0 0 64 70" fill="none" xmlns="http://www.w3.org/2000/svg">
<path fill-rule="evenodd" clip-rule="evenodd" d="M58.1658 55.2603H5.83373C2.61835 55.2603 0 52.8528 0 49.8934L0.000293787 18.8474C0.000293787 15.8879 2.61825 13.4807 5.83353 13.4807L20.6834 13.4805C21.1416 13.4805 21.5136 13.8229 21.5136 14.2449C21.5138 14.6668 21.1416 15.0091 20.6831 15.0091L5.83373 15.0089C3.53374 15.0089 1.66126 16.731 1.66126 18.8474L1.66131 49.8934C1.66131 52.0097 3.53369 53.7319 5.83353 53.7319H58.1661C60.4677 53.7319 62.3384 52.01 62.3384 49.8934L62.3385 18.8474C62.3385 16.7308 60.4677 15.0091 58.1661 15.0091L43.3185 15.0089C42.8598 15.0089 42.4877 14.667 42.4877 14.2449C42.488 13.8229 42.8598 13.4807 43.3183 13.4807L58.1661 13.4805C61.3835 13.4805 63.9997 15.8882 63.9997 18.8474L64 49.8934C64 52.8525 61.3828 55.2604 58.1658 55.2603Z" fill="black"/>
<path fill-rule="evenodd" clip-rule="evenodd" d="M55.7569 48.4425H8.24386C7.78364 48.4425 7.41309 48.1005 7.41309 47.6786L7.41338 21.0648C7.41338 20.6428 7.78339 20.3009 8.24371 20.3009L19.5596 20.3008C20.0198 20.3008 20.3902 20.643 20.3902 21.065C20.3905 21.4868 20.0198 21.8292 19.5595 21.8292L9.07439 21.8289V46.9144H54.926V21.8289H44.4392C43.9806 21.8289 43.6084 21.4871 43.6084 21.065C43.6087 20.6428 43.9805 20.3009 44.439 20.3009L55.7569 20.3008C56.2152 20.3008 56.5872 20.643 56.5872 21.065L56.5874 47.6785C56.5874 48.1005 56.2152 48.4426 55.7569 48.4425Z" fill="black"/>
<path fill-rule="evenodd" clip-rule="evenodd" d="M24.485 61.7771C24.0264 61.7771 23.6543 61.4348 23.6543 61.0128L23.6545 54.4945C23.6545 54.0725 24.0263 53.7305 24.4849 53.7305C24.9437 53.7305 25.3156 54.0726 25.3156 54.4946V61.0127C25.3156 61.4346 24.9435 61.7771 24.485 61.7771ZM39.5165 61.7771C39.0578 61.7771 38.6855 61.4348 38.6855 61.0128L38.6856 54.4945C38.6856 54.0725 39.0575 53.7305 39.5161 53.7305C39.9748 53.7305 40.3468 54.0726 40.3468 54.4946L40.347 61.0127C40.347 61.4346 39.9748 61.7771 39.5165 61.7771Z" fill="black"/>
<path fill-rule="evenodd" clip-rule="evenodd" d="M19.1029 68.4725H44.898V61.7785H19.1029V68.4725ZM45.7284 70.001H18.2705C17.8118 70.001 17.4414 69.6589 17.4414 69.2368L17.4415 61.0141C17.4415 60.5921 17.8118 60.2501 18.2703 60.2501L45.7284 60.25C46.1871 60.25 46.559 60.5923 46.559 61.0141V69.2366C46.559 69.6589 46.187 70.0012 45.7284 70.001Z" fill="black"/>
<path fill-rule="evenodd" clip-rule="evenodd" d="M32.0007 9.84079C29.4243 9.84079 27.3283 11.7692 27.3283 14.1395C27.3283 16.5095 29.4239 18.4383 32.0006 18.4383C34.5775 18.438 36.6731 16.5097 36.6731 14.1395C36.6731 11.769 34.5773 9.84088 32.0007 9.84079ZM32.0007 19.9664C28.5088 19.9664 25.667 17.3525 25.667 14.1395C25.6673 10.9262 28.5085 8.3125 32.0006 8.3125C35.4929 8.31236 38.3343 10.9265 38.3343 14.1395C38.3345 17.3523 35.4928 19.9666 32.0007 19.9664Z" fill="black"/>
<path fill-rule="evenodd" clip-rule="evenodd" d="M29.2738 26.7469H34.7264V24.0249C34.7264 23.6954 34.9566 23.4031 35.2958 23.2997C36.6597 22.8848 37.8968 22.2265 38.9749 21.3429C39.2416 21.1235 39.6324 21.0869 39.9422 21.2517L42.5072 22.614L45.2343 18.2704L42.6715 16.9093C42.3615 16.7448 42.2005 16.4162 42.2714 16.0936C42.4152 15.4539 42.4878 14.7962 42.4878 14.1377C42.4881 13.4791 42.4151 12.8213 42.2714 12.1819C42.2007 11.8593 42.3614 11.5307 42.6712 11.3661L45.2343 10.0049L42.5072 5.66136L39.9424 7.02359C39.6325 7.18839 39.2414 7.15179 38.9749 6.93261C37.8971 6.04896 36.6594 5.39082 35.2958 4.9761C34.957 4.87262 34.7264 4.58019 34.7264 4.25058V1.52807H29.2738V4.2504C29.2738 4.57997 29.0451 4.87267 28.7043 4.9761C27.3426 5.39055 26.105 6.0491 25.0269 6.93261C24.7587 7.15184 24.3693 7.18853 24.0578 7.02386L21.4935 5.66136L18.768 10.0049L21.3308 11.3661C21.6403 11.5305 21.8013 11.8594 21.7286 12.1819C21.585 12.8211 21.5123 13.4794 21.5123 14.1377C21.5126 14.7958 21.585 15.4542 21.7286 16.0936C21.8015 16.416 21.6403 16.7449 21.3306 16.9094L18.768 18.2704L21.4935 22.614L24.0579 21.2517C24.3694 21.087 24.7587 21.1237 25.0269 21.3429C26.1051 22.2264 27.3424 22.8848 28.7043 23.2995C29.0452 23.4027 29.2736 23.6953 29.2736 24.025L29.2738 26.7469ZM35.5574 28.2753H28.4449C27.9846 28.2753 27.6123 27.9333 27.6123 27.5113L27.6124 24.5626C26.4443 24.1467 25.3627 23.5711 24.3832 22.8443L21.6041 24.3197C21.2077 24.5311 20.6989 24.4058 20.4705 24.0401L16.9126 18.3728C16.8036 18.1973 16.7741 17.9889 16.8313 17.7932C16.8869 17.5974 17.0268 17.4304 17.2172 17.3291L19.9948 15.854C19.8994 15.288 19.851 14.7129 19.851 14.1377C19.8512 13.5626 19.8994 12.9874 19.9946 12.4213L17.2175 10.9463C17.0271 10.8449 16.8866 10.6782 16.8313 10.4824C16.7744 10.2865 16.8035 10.0781 16.9126 9.90256L20.4707 4.23537C20.6992 3.86966 21.2077 3.74474 21.604 3.95576L24.3834 5.43103C25.3611 4.70425 26.4442 4.12864 27.6123 3.71293L27.6124 0.764057C27.6124 0.342068 27.9844 0 28.4447 0H35.5574C36.0157 0 36.3877 0.342158 36.3877 0.764238L36.3879 3.71275C37.556 4.12864 38.6391 4.70452 39.6186 5.4313L42.3962 3.95562C42.7941 3.74465 43.3011 3.86997 43.5313 4.23546L47.0876 9.90246C47.1986 10.078 47.2277 10.2866 47.1705 10.4824C47.1137 10.678 46.975 10.8451 46.7829 10.9464L44.0074 12.421C44.1008 12.9873 44.1491 13.5626 44.1491 14.1377C44.1491 14.7128 44.1006 15.2881 44.0072 15.8542L46.7831 17.329C46.9751 17.4301 47.1134 17.5974 47.1705 17.7932C47.2278 17.9889 47.1982 18.1974 47.0875 18.373L43.5316 24.0399C43.3015 24.4053 42.794 24.5306 42.3961 24.32L39.6188 22.8439C38.6392 23.5711 37.5558 24.1469 36.3877 24.5627L36.3879 27.5113C36.3879 27.9332 36.0157 28.2754 35.5574 28.2753Z" fill="black"/>
<path fill-rule="evenodd" clip-rule="evenodd" d="M20.6729 34.3095C19.5119 34.3095 18.5685 35.1782 18.5685 36.2458C18.5688 37.3133 19.5116 38.1821 20.6728 38.1821C21.8325 38.182 22.7771 37.3135 22.7771 36.2458C22.7771 35.1781 21.8322 34.3096 20.6729 34.3095ZM20.6729 39.7104C18.5965 39.7104 16.9072 38.1562 16.9072 36.2458C16.9074 34.3353 18.5962 32.7813 20.6728 32.7813C22.7494 32.781 24.4384 34.3354 24.4384 36.2458C24.4385 38.1562 22.7494 39.7105 20.6729 39.7104Z" fill="black"/>
<path fill-rule="evenodd" clip-rule="evenodd" d="M22.5874 41.2365C22.8261 41.2365 23.0561 41.3306 23.217 41.5015L24.5062 42.8749L26.467 41.3163L25.415 40.1945C25.1658 39.929 25.1448 39.5422 25.3646 39.2554C26.045 38.3655 26.4046 37.3177 26.4046 36.2251C26.4047 36.1787 26.4029 36.1327 26.4029 36.0868C26.3942 35.7603 26.6105 35.4649 26.9428 35.3512L28.5646 34.7964L27.6593 32.5616L26.0395 33.116C25.7074 33.2299 25.3317 33.1371 25.1067 32.8846C24.4284 32.1224 23.5372 31.5524 22.53 31.2353C22.1946 31.1291 21.9693 30.8389 21.9693 30.5122L21.9695 28.9226H19.3771V30.512C19.3771 30.8386 19.1503 31.1294 18.8146 31.2353C17.8076 31.5521 16.9162 32.1227 16.2378 32.8846C16.013 33.1369 15.6374 33.23 15.3051 33.1162L13.6854 32.5616L12.7821 34.7964L14.4018 35.3512C14.7359 35.4648 14.9521 35.7612 14.9434 36.0879C14.9418 36.1336 14.94 36.1792 14.94 36.2251C14.9403 37.3174 15.2999 38.3653 15.9817 39.2554C16.2018 39.5422 16.1808 39.9293 15.9315 40.1946L14.878 41.3163L16.8404 42.8749L18.1296 41.5012C18.3441 41.2723 18.6848 41.182 18.9997 41.27C20.0815 41.5728 21.265 41.573 22.3466 41.27C22.4262 41.2476 22.5075 41.2367 22.5874 41.2365ZM24.4198 44.7168C24.1881 44.7168 23.9559 44.6274 23.7916 44.4522L22.2981 42.8609C21.234 43.0809 20.1107 43.0809 19.0482 42.8612L17.5549 44.452C17.4096 44.6054 17.2052 44.7001 16.9854 44.7149C16.7657 44.7304 16.5493 44.6636 16.3832 44.5312L13.1629 41.9737C12.8167 41.6978 12.7786 41.2154 13.0779 40.8959L14.2686 39.6264C13.6873 38.7029 13.3531 37.6729 13.2907 36.6014L11.424 35.9623C10.9945 35.8151 10.7746 35.3753 10.9356 34.9798L12.4188 31.3122C12.4951 31.1223 12.6505 30.9685 12.8513 30.8841C13.0503 30.7996 13.2804 30.7921 13.4864 30.8627L15.3538 31.5016C16.027 30.859 16.8297 30.346 17.7157 29.99V28.1585C17.7157 27.7366 18.0877 27.3946 18.5464 27.3946L22.8 27.3945C23.2587 27.3945 23.6306 27.7367 23.6306 28.1587L23.631 29.9897C24.5167 30.3457 25.3179 30.8592 25.9927 31.5018L27.8602 30.8626C28.2893 30.7154 28.7667 30.9169 28.9277 31.3125L30.4109 34.9798C30.4869 35.1696 30.4782 35.3799 30.3882 35.5642C30.2969 35.7485 30.1287 35.8917 29.921 35.9624L28.0557 36.6014C27.9918 37.6727 27.6575 38.7032 27.0761 39.6265L28.2686 40.8958C28.5681 41.2153 28.5297 41.6979 28.1818 41.9737L24.9634 44.5312C24.8056 44.6559 24.6135 44.717 24.4198 44.7168Z" fill="black"/>
<path fill-rule="evenodd" clip-rule="evenodd" d="M43.3284 34.3095C42.1669 34.3095 41.2238 35.1782 41.2238 36.2458C41.2239 37.3133 42.1669 38.1821 43.3281 38.1821C44.4876 38.182 45.4324 37.3135 45.4324 36.2458C45.4325 35.1781 44.4876 34.3096 43.3284 34.3095ZM43.3284 39.7104C41.2515 39.7104 39.5625 38.1562 39.5625 36.2458C39.5628 34.3353 41.2515 32.7813 43.3281 32.7813C45.4049 32.781 47.0937 34.3354 47.0937 36.2458C47.0939 38.1562 45.4047 39.7105 43.3284 39.7104Z" fill="black"/>
<path fill-rule="evenodd" clip-rule="evenodd" d="M45.2424 41.2365C45.4815 41.2365 45.7113 41.3306 45.8722 41.5015L47.1616 42.8749L49.1225 41.3163L48.07 40.1945C47.8208 39.929 47.8001 39.5422 48.0199 39.2554C48.7 38.3655 49.0599 37.3177 49.0599 36.2251C49.0602 36.1787 49.0582 36.1327 49.0582 36.0868C49.0496 35.7603 49.2658 35.4649 49.598 35.3512L51.2196 34.7964L50.3162 32.5616L48.6949 33.116C48.3628 33.23 47.9887 33.1371 47.7637 32.8846C47.0837 32.1224 46.1924 31.5524 45.1853 31.2353C44.8495 31.1291 44.6246 30.8389 44.6246 30.5122L44.6249 28.9226H42.0325V30.512C42.0325 30.8386 41.8055 31.1294 41.4698 31.2353C40.463 31.5521 39.5715 32.1227 38.8932 32.8846C38.6684 33.1369 38.2944 33.23 37.9604 33.1162L36.3407 32.5616L35.4374 34.7964L37.0572 35.3512C37.3913 35.4648 37.6073 35.7612 37.5986 36.0879C37.5973 36.1336 37.597 36.1792 37.597 36.2251C37.5973 37.3174 37.9552 38.3655 38.637 39.2554C38.8568 39.5418 38.836 39.9293 38.5868 40.1946L37.533 41.3163L39.4954 42.8749L40.7846 41.5012C40.9991 41.2723 41.3401 41.182 41.655 41.27C42.7369 41.5728 43.9203 41.5731 45.0018 41.27C45.0816 41.2476 45.1627 41.2367 45.2424 41.2365ZM47.0751 44.7168C46.8431 44.7168 46.6112 44.6274 46.4468 44.4522L44.9535 42.8609C43.8894 43.0809 42.766 43.0809 41.7035 42.8612L40.2103 44.452C39.9089 44.7716 39.3846 44.8071 39.0385 44.5312L35.8182 41.9737C35.652 41.8411 35.5498 41.6534 35.5324 41.4512C35.5172 41.2487 35.5896 41.0493 35.7332 40.8959L36.924 39.6264C36.3427 38.7029 36.0084 37.673 35.9461 36.6014L34.0789 35.9623C33.6499 35.8151 33.4299 35.3753 33.5908 34.9798L35.0742 31.3122C35.1501 31.1223 35.3057 30.9685 35.5065 30.8841C35.7073 30.7996 35.9357 30.7921 36.1416 30.8627L38.0088 31.5016C38.682 30.859 39.485 30.346 40.3709 29.99L40.3711 28.1585C40.3711 27.7366 40.743 27.3946 41.2016 27.3946L45.4554 27.3945C45.9141 27.3945 46.2859 27.7367 46.2859 28.1587L46.2859 29.9897C47.1721 30.3457 47.9731 30.8592 48.648 31.5018L50.5152 30.8626C50.9447 30.7154 51.4237 30.9169 51.583 31.3125L53.0663 34.9798C53.1422 35.1696 53.1352 35.3799 53.0435 35.5642C52.9518 35.7485 52.7839 35.8917 52.5762 35.9624L50.7111 36.6014C50.6468 37.6727 50.3128 38.7032 49.7313 39.6265L50.9236 40.8958C51.223 41.2153 51.1849 41.6979 50.837 41.9737L47.6183 44.5312C47.461 44.6559 47.2688 44.717 47.0751 44.7168Z" fill="black"/>
</svg>
