<svg width="64" height="64" viewBox="0 0 64 64" fill="none" xmlns="http://www.w3.org/2000/svg">
<path d="M60.8 0H3.2C1.44 0 0 1.44 0 3.2V50.1333C0 51.8933 1.44 53.3333 3.2 53.3333H25.2267L22.6667 61.8667H19.2V64H44.8V61.8667H41.3333L38.7733 53.3333H60.8C62.56 53.3333 64 51.8933 64 50.1333V3.2C64 1.44 62.56 0 60.8 0ZM39.0933 61.8667H24.9067L27.4667 53.3333H36.5333L39.0933 61.8667ZM61.8667 50.1333C61.8667 50.72 61.3867 51.2 60.8 51.2H3.2C2.61333 51.2 2.13333 50.72 2.13333 50.1333V46.9333H61.8667V50.1333ZM61.8667 44.8H2.13333V3.2C2.13333 2.61333 2.61333 2.13333 3.2 2.13333H60.8C61.3867 2.13333 61.8667 2.61333 61.8667 3.2V44.8Z" fill="black"/>
<path d="M56.533 18.1339H42.4797C42.1997 18.1339 41.9197 18.0272 41.7197 17.8272L38.7063 14.8005C38.1063 14.2005 37.293 13.8672 36.4397 13.8672H24.533C22.773 13.8672 21.333 15.3072 21.333 17.0672V39.4672C21.333 41.2272 22.773 42.6672 24.533 42.6672H56.533C58.293 42.6672 59.733 41.2272 59.733 39.4672V21.3339C59.733 19.5739 58.293 18.1339 56.533 18.1339ZM57.5997 39.4672C57.5997 40.0539 57.1197 40.5339 56.533 40.5339H24.533C23.9463 40.5339 23.4663 40.0539 23.4663 39.4672V17.0672C23.4663 16.4805 23.9463 16.0005 24.533 16.0005H36.453C36.733 16.0005 37.013 16.1072 37.213 16.3072L40.2263 19.3205C40.8263 19.9205 41.6397 20.2539 42.493 20.2539H56.533C57.1197 20.2539 57.5997 20.7339 57.5997 21.3205V39.4672Z" fill="black"/>
<path d="M33.373 23.7734L27.293 29.8668L33.373 35.9601L34.893 34.4401L30.3063 29.8668L34.893 25.2934L33.373 23.7734Z" fill="black"/>
<path d="M42.8019 25.079L37.4668 34.6836L39.3318 35.7195L44.6669 26.115L42.8019 25.079Z" fill="black"/>
<path d="M46.1738 25.2934L50.7605 29.8668L46.1738 34.4401L47.6938 35.9601L53.7738 29.8668L47.6938 23.7734L46.1738 25.2934Z" fill="black"/>
<path d="M24.9066 6.39896L26.6266 10.4256L30.4399 12.0123L34.5199 10.3723L36.6266 12.4923L38.1333 10.9723L35.0399 7.87896L30.4533 9.70563L28.2533 8.78563L26.3066 4.26562H20.6266L18.6799 8.78563L16.4799 9.70563L11.8933 7.87896L7.87993 11.8923L9.7066 16.479L8.7866 18.679L4.2666 20.6256V26.3056L8.7866 28.2523L9.7066 30.4523L7.87993 35.039L11.8933 39.0523L16.4799 37.2256L18.7866 38.1856L19.6133 36.2123L16.4933 34.919L12.4133 36.559L10.3733 34.519L12.0133 30.439L10.4266 26.6256L6.39993 24.9056V22.0256L10.4266 20.3056L12.0133 16.4923L10.3733 12.4123L12.4133 10.3723L16.4933 12.0123L20.3066 10.4256L22.0266 6.39896H24.9066Z" fill="black"/>
<path d="M19.68 15.8129L18.7333 13.9062C13.4533 16.5329 11.3066 22.9329 13.92 28.2129C14.96 30.2929 16.64 31.9862 18.7333 33.0263L19.68 31.1196C15.4533 29.0262 13.7333 23.9062 15.8266 19.6796C16.6533 17.9996 18 16.6529 19.68 15.8129Z" fill="black"/>
</svg>
