<svg width="427" height="318" viewBox="0 0 427 318" fill="none" xmlns="http://www.w3.org/2000/svg">
<path d="M426.124 279.027H0V279.24H426.124V279.027Z" fill="#EBEBEB"/>
<path d="M66.8674 287.141H44.709V287.354H66.8674V287.141Z" fill="#EBEBEB"/>
<path d="M170.816 284.828H124.709V285.041H170.816V284.828Z" fill="#EBEBEB"/>
<path d="M90.1499 295.059H67.7188V295.272H90.1499V295.059Z" fill="#EBEBEB"/>
<path d="M383.426 293.625H367.037V293.838H383.426V293.625Z" fill="#EBEBEB"/>
<path d="M359.445 293.625H333.631V293.838H359.445V293.625Z" fill="#EBEBEB"/>
<path d="M266.575 290.027H220.076V290.24H266.575V290.027Z" fill="#EBEBEB"/>
<path d="M201.983 241.016H37.4223C36.1331 241.014 34.8975 240.5 33.9868 239.587C33.076 238.675 32.5645 237.439 32.5645 236.149V4.82372C32.5757 3.54197 33.0922 2.31639 34.0017 1.41321C34.9113 0.510035 36.1405 0.00219572 37.4223 0H201.983C203.273 0 204.511 0.512702 205.424 1.42532C206.337 2.33793 206.849 3.5757 206.849 4.86634V236.149C206.849 237.44 206.337 238.678 205.424 239.59C204.511 240.503 203.273 241.016 201.983 241.016ZM37.4223 0.17045C36.1896 0.172708 35.0082 0.663957 34.1374 1.53637C33.2666 2.40878 32.7775 3.59107 32.7775 4.82372V236.149C32.7775 237.382 33.2666 238.564 34.1374 239.437C35.0082 240.309 36.1896 240.8 37.4223 240.803H201.983C203.216 240.8 204.399 240.31 205.271 239.437C206.143 238.565 206.634 237.383 206.636 236.149V4.82372C206.634 3.59029 206.143 2.40802 205.271 1.53585C204.399 0.66368 203.216 0.172703 201.983 0.17045H37.4223Z" fill="#EBEBEB"/>
<path d="M386.334 241.016H221.765C220.475 241.014 219.238 240.5 218.326 239.588C217.414 238.676 216.901 237.439 216.898 236.149V4.82372C216.912 3.54119 217.43 2.31562 218.341 1.41268C219.252 0.509737 220.482 0.00217178 221.765 0H386.334C387.614 0.00443552 388.841 0.513266 389.749 1.4162C390.657 2.31914 391.172 3.54344 391.183 4.82372V236.149C391.183 237.437 390.673 238.672 389.764 239.584C388.855 240.497 387.622 241.011 386.334 241.016ZM221.765 0.17045C220.531 0.172703 219.349 0.66368 218.477 1.53585C217.605 2.40802 217.114 3.59029 217.111 4.82372V236.149C217.114 237.383 217.605 238.565 218.477 239.437C219.349 240.31 220.531 240.8 221.765 240.803H386.334C387.567 240.8 388.75 240.31 389.622 239.437C390.494 238.565 390.985 237.383 390.987 236.149V4.82372C390.985 3.59029 390.494 2.40802 389.622 1.53585C388.75 0.66368 387.567 0.172703 386.334 0.17045H221.765Z" fill="#EBEBEB"/>
<path d="M160.938 192.547C160.52 192.547 160.085 192.547 159.685 192.598C150.838 193.305 143.68 201.734 143.117 212.106C142.991 214.395 143.186 216.689 143.697 218.924C145.65 227.881 146.588 237.029 146.492 246.196V272.965C146.492 274.908 147.839 276.485 149.492 276.485H265.5V192.547H160.938Z" fill="#F0F0F0"/>
<path d="M283.356 213.481C283.356 201.43 274.672 191.766 264.249 192.601C255.403 193.308 248.244 201.737 247.681 212.109C247.553 214.397 247.745 216.692 248.252 218.927C250.208 227.884 251.149 237.032 251.056 246.199V272.968C251.056 274.911 252.394 276.488 254.056 276.488H276.982C278.635 276.488 279.981 274.911 279.981 272.968V244.597C279.912 235.996 280.838 227.417 282.743 219.029C283.162 217.21 283.368 215.348 283.356 213.481Z" fill="#FAFAFA"/>
<path d="M240.898 229.016H121.617V276.477H240.898V229.016Z" fill="#F5F5F5"/>
<path d="M82.4651 172.152H207.95C209.872 172.152 211.775 172.531 213.55 173.266C215.325 174.002 216.939 175.079 218.297 176.438C219.656 177.797 220.734 179.41 221.469 181.186C222.205 182.961 222.583 184.864 222.583 186.785V237.068H67.832V186.785C67.832 184.864 68.2105 182.961 68.9459 181.186C69.6813 179.41 70.7592 177.797 72.118 176.438C73.4768 175.079 75.0899 174.002 76.8653 173.266C78.6407 172.531 80.5435 172.152 82.4651 172.152Z" fill="#E6E6E6"/>
<path d="M93.1074 172.152H211.723C215.55 172.152 219.22 173.672 221.926 176.378C224.632 179.084 226.152 182.754 226.152 186.581V237.051H78.7129V186.572C78.7151 182.753 80.2316 179.09 82.9299 176.387C85.6281 173.684 89.2881 172.161 93.1074 172.152Z" fill="#F5F5F5"/>
<path d="M125.639 227.312H240.846C241.677 227.312 242.475 227.643 243.063 228.231C243.651 228.819 243.982 229.617 243.982 230.449V235.503C243.98 236.333 243.648 237.128 243.06 237.715C242.472 238.301 241.676 238.63 240.846 238.63H125.639C125.39 238.63 125.152 238.532 124.976 238.356C124.8 238.18 124.701 237.942 124.701 237.693V228.25C124.701 228.001 124.8 227.763 124.976 227.587C125.152 227.411 125.39 227.313 125.639 227.312Z" fill="#EBEBEB"/>
<path d="M60.5098 276.477H266.396V276.673C266.396 277.296 266.148 277.895 265.707 278.336C265.266 278.777 264.668 279.025 264.044 279.025H62.8705C62.5609 279.026 62.2541 278.966 61.9677 278.848C61.6814 278.73 61.421 278.557 61.2017 278.339C60.9824 278.12 60.8084 277.861 60.6896 277.575C60.5709 277.289 60.5098 276.982 60.5098 276.673V276.477Z" fill="#E6E6E6"/>
<path d="M61.4122 192.547C60.9917 192.547 60.5741 192.564 60.1594 192.598C51.313 193.305 44.1541 201.734 43.5917 212.106C43.466 214.395 43.6611 216.689 44.1712 218.924C46.1245 227.881 47.0622 237.029 46.9666 246.196V272.965C46.9666 274.908 48.3131 276.485 49.9665 276.485H122.467V192.547H61.4122Z" fill="#F0F0F0"/>
<path d="M140.323 213.481C140.323 201.43 131.647 191.766 121.216 192.601C112.369 193.308 105.21 201.737 104.648 212.109C104.52 214.397 104.712 216.692 105.219 218.927C107.179 227.883 108.12 237.032 108.023 246.199V272.968C108.023 274.911 109.361 276.488 111.023 276.488H133.914C135.568 276.488 136.914 274.911 136.914 272.968V244.597C136.845 235.996 137.771 227.417 139.675 219.029C140.106 217.211 140.324 215.349 140.323 213.481Z" fill="#FAFAFA"/>
<path d="M52.7371 116.961L375.236 116.961V19.4723L52.7371 19.4723V116.961Z" fill="#EBEBEB"/>
<path d="M61.2593 109.48L366.705 109.48V26.9658L61.2593 26.9658V109.48Z" fill="#FAFAFA"/>
<path d="M236.107 109.48H260.464L237.521 26.9648H213.164L236.107 109.48Z" fill="white"/>
<path d="M265.228 109.48H289.593L266.651 26.9648H242.285L265.228 109.48Z" fill="white"/>
<path d="M186.276 109.48H198.463L175.52 26.9648H163.342L186.276 109.48Z" fill="white"/>
<path d="M208.247 109.48H219.727V26.9658H208.247V109.48Z" fill="#EBEBEB"/>
<path d="M208.238 26.9648H205.682V109.48H208.238V26.9648Z" fill="#E0E0E0"/>
<path d="M52.7373 19.4805H50.8965V116.969H52.7373V19.4805Z" fill="#E0E0E0"/>
<path d="M371.99 274.28C374.065 274.273 376.053 273.446 377.52 271.978C378.988 270.511 379.815 268.523 379.822 266.448V189.805C379.815 187.73 378.988 185.741 377.52 184.274C376.053 182.807 374.065 181.979 371.99 181.973C369.915 181.979 367.928 182.807 366.462 184.275C364.996 185.742 364.171 187.73 364.166 189.805V266.448C364.171 268.522 364.996 270.51 366.462 271.978C367.928 273.445 369.915 274.273 371.99 274.28Z" fill="#F5F5F5"/>
<path d="M367.507 271.195C368.91 271.193 370.254 270.635 371.246 269.643C372.238 268.651 372.797 267.306 372.799 265.903V190.351C372.797 188.948 372.238 187.603 371.246 186.611C370.254 185.619 368.91 185.061 367.507 185.059C366.105 185.063 364.762 185.622 363.772 186.614C362.782 187.606 362.225 188.95 362.223 190.351V265.903C362.225 267.304 362.782 268.648 363.772 269.64C364.762 270.632 366.105 271.191 367.507 271.195Z" fill="#EBEBEB"/>
<path d="M360.621 274.28C362.696 274.273 364.683 273.445 366.149 271.978C367.615 270.51 368.44 268.522 368.445 266.448V189.805C368.44 187.73 367.615 185.742 366.149 184.275C364.683 182.807 362.696 181.979 360.621 181.973C358.546 181.979 356.558 182.807 355.09 184.274C353.623 185.741 352.796 187.73 352.789 189.805V266.448C352.796 268.523 353.623 270.511 355.09 271.978C356.558 273.446 358.546 274.273 360.621 274.28Z" fill="#F5F5F5"/>
<path d="M356.138 271.195C357.54 271.191 358.884 270.632 359.876 269.64C360.867 268.649 361.426 267.305 361.431 265.903V190.351C361.426 188.949 360.867 187.605 359.876 186.614C358.884 185.622 357.54 185.063 356.138 185.059C354.736 185.063 353.392 185.622 352.401 186.614C351.409 187.605 350.85 188.949 350.846 190.351V265.903C350.85 267.305 351.409 268.649 352.401 269.64C353.392 270.632 354.736 271.191 356.138 271.195Z" fill="#EBEBEB"/>
<path d="M349.252 274.28C351.326 274.273 353.314 273.445 354.78 271.978C356.246 270.51 357.071 268.522 357.076 266.448V189.805C357.071 187.73 356.246 185.742 354.78 184.275C353.314 182.807 351.326 181.979 349.252 181.973C347.177 181.979 345.189 182.807 343.721 184.274C342.254 185.741 341.427 187.73 341.42 189.805V266.448C341.427 268.523 342.254 270.511 343.721 271.978C345.189 273.446 347.177 274.273 349.252 274.28Z" fill="#F5F5F5"/>
<path d="M344.769 271.195C346.171 271.191 347.513 270.632 348.503 269.64C349.494 268.648 350.051 267.304 350.053 265.903V190.351C350.051 188.95 349.494 187.606 348.503 186.614C347.513 185.622 346.171 185.063 344.769 185.059C343.366 185.061 342.021 185.619 341.029 186.611C340.037 187.603 339.479 188.948 339.477 190.351V265.903C339.479 267.306 340.037 268.651 341.029 269.643C342.021 270.635 343.366 271.193 344.769 271.195Z" fill="#EBEBEB"/>
<path d="M330.051 266.445C330.051 270.771 333.556 274.277 337.879 274.277C342.202 274.277 345.707 270.771 345.707 266.445V189.811C345.707 185.485 342.202 181.979 337.879 181.979C333.556 181.979 330.051 185.485 330.051 189.811V266.445Z" fill="#F5F5F5"/>
<path d="M333.391 271.195C334.794 271.193 336.139 270.635 337.131 269.643C338.123 268.651 338.682 267.306 338.684 265.903V190.351C338.682 188.948 338.123 187.603 337.131 186.611C336.139 185.619 334.794 185.061 333.391 185.059C331.99 185.063 330.647 185.622 329.657 186.614C328.667 187.606 328.11 188.95 328.107 190.351V265.903C328.11 267.304 328.667 268.648 329.657 269.64C330.647 270.632 331.99 271.191 333.391 271.195Z" fill="#EBEBEB"/>
<path d="M326.506 274.28C328.581 274.273 330.569 273.446 332.037 271.978C333.504 270.511 334.331 268.523 334.338 266.448V189.805C334.331 187.73 333.504 185.741 332.037 184.274C330.569 182.807 328.581 181.979 326.506 181.973C324.431 181.979 322.443 182.807 320.975 184.274C319.508 185.741 318.681 187.73 318.674 189.805V266.448C318.681 268.523 319.508 270.511 320.975 271.978C322.443 273.446 324.431 274.273 326.506 274.28Z" fill="#F5F5F5"/>
<path d="M322.023 271.195C323.426 271.193 324.771 270.635 325.763 269.643C326.755 268.651 327.313 267.306 327.315 265.903V190.351C327.313 188.948 326.755 187.603 325.763 186.611C324.771 185.619 323.426 185.061 322.023 185.059C320.621 185.063 319.277 185.622 318.286 186.614C317.294 187.605 316.735 188.949 316.73 190.351V265.903C316.735 267.305 317.294 268.649 318.286 269.64C319.277 270.632 320.621 271.191 322.023 271.195Z" fill="#EBEBEB"/>
<path d="M315.135 274.28C317.209 274.273 319.197 273.445 320.663 271.978C322.129 270.51 322.954 268.522 322.959 266.448V189.805C322.954 187.73 322.129 185.742 320.663 184.275C319.197 182.807 317.209 181.979 315.135 181.973C313.06 181.979 311.072 182.807 309.604 184.274C308.137 185.741 307.309 187.73 307.303 189.805V266.448C307.309 268.523 308.137 270.511 309.604 271.978C311.072 273.446 313.06 274.273 315.135 274.28Z" fill="#F5F5F5"/>
<path d="M310.652 271.195C312.054 271.191 313.398 270.632 314.389 269.64C315.381 268.649 315.94 267.305 315.944 265.903V190.351C315.94 188.949 315.381 187.605 314.389 186.614C313.398 185.622 312.054 185.063 310.652 185.059C309.249 185.061 307.904 185.619 306.912 186.611C305.92 187.603 305.362 188.948 305.359 190.351V265.903C305.362 267.306 305.92 268.651 306.912 269.643C307.904 270.635 309.249 271.193 310.652 271.195Z" fill="#EBEBEB"/>
<path d="M303.759 274.28C305.834 274.273 307.823 273.446 309.29 271.978C310.757 270.511 311.585 268.523 311.591 266.448V189.805C311.585 187.73 310.757 185.741 309.29 184.274C307.823 182.807 305.834 181.979 303.759 181.973C301.685 181.979 299.698 182.807 298.232 184.275C296.766 185.742 295.94 187.73 295.936 189.805V266.448C295.94 268.522 296.766 270.51 298.232 271.978C299.698 273.445 301.685 274.273 303.759 274.28Z" fill="#F5F5F5"/>
<path d="M294.162 264.018H317.121C317.573 264.018 318.007 263.839 318.326 263.519C318.646 263.199 318.826 262.766 318.826 262.314C318.826 261.862 318.646 261.428 318.326 261.109C318.007 260.789 317.573 260.609 317.121 260.609H294.162C293.709 260.609 293.276 260.789 292.956 261.109C292.637 261.428 292.457 261.862 292.457 262.314C292.457 262.766 292.637 263.199 292.956 263.519C293.276 263.839 293.709 264.018 294.162 264.018Z" fill="#F5F5F5"/>
<path d="M294.162 197.968H317.121C317.573 197.968 318.007 197.788 318.326 197.468C318.646 197.149 318.826 196.715 318.826 196.263C318.826 195.811 318.646 195.377 318.326 195.058C318.007 194.738 317.573 194.559 317.121 194.559H294.162C293.709 194.559 293.276 194.738 292.956 195.058C292.637 195.377 292.457 195.811 292.457 196.263C292.457 196.715 292.637 197.149 292.956 197.468C293.276 197.788 293.709 197.968 294.162 197.968Z" fill="#F5F5F5"/>
<path d="M213.061 317.514C304.322 317.514 378.303 313.194 378.303 307.866C378.303 302.538 304.322 298.219 213.061 298.219C121.8 298.219 47.8184 302.538 47.8184 307.866C47.8184 313.194 121.8 317.514 213.061 317.514Z" fill="#F5F5F5"/>
<path d="M344 259.647H246.4C245.175 259.652 243.96 259.409 242.831 258.931C241.702 258.454 240.682 257.752 239.832 256.868C238.983 255.984 238.322 254.937 237.889 253.79C237.456 252.643 237.261 251.42 237.316 250.195L244.483 64.9164C244.604 62.3872 245.688 60 247.511 58.2432C249.335 56.4863 251.76 55.4925 254.292 55.4649H351.892C353.118 55.4591 354.332 55.7024 355.461 56.1801C356.59 56.6577 357.61 57.3597 358.46 58.2435C359.309 59.1274 359.971 60.1746 360.403 61.3216C360.836 62.4687 361.031 63.6916 360.977 64.9164L353.809 250.195C353.688 252.724 352.604 255.111 350.781 256.868C348.958 258.625 346.532 259.619 344 259.647Z" fill="#004E9E"/>
<path d="M360.913 127.423L360.316 142.734L361.253 142.771L361.849 127.459L360.913 127.423Z" fill="#004E9E"/>
<path d="M361.4 115.505L361.152 121.832L362.089 121.869L362.337 115.541L361.4 115.505Z" fill="#004E9E"/>
<path opacity="0.8" d="M344 259.647H246.4C245.175 259.652 243.96 259.409 242.831 258.931C241.702 258.454 240.682 257.752 239.832 256.868C238.983 255.984 238.322 254.937 237.889 253.79C237.456 252.643 237.261 251.42 237.316 250.195L244.483 64.9164C244.604 62.3872 245.688 60 247.511 58.2432C249.335 56.4863 251.76 55.4925 254.292 55.4649H351.892C353.118 55.4591 354.332 55.7024 355.461 56.1801C356.59 56.6577 357.61 57.3597 358.46 58.2435C359.309 59.1274 359.971 60.1746 360.403 61.3216C360.836 62.4687 361.031 63.6916 360.977 64.9164L353.809 250.195C353.688 252.724 352.604 255.111 350.781 256.868C348.958 258.625 346.532 259.619 344 259.647Z" fill="white"/>
<path d="M334.658 255.886H248.581C247.507 255.891 246.442 255.677 245.453 255.258C244.463 254.84 243.569 254.224 242.824 253.45C242.079 252.676 241.499 251.758 241.119 250.753C240.739 249.748 240.567 248.676 240.613 247.602L247.32 74.0847C247.429 71.8669 248.38 69.7743 249.98 68.2346C251.58 66.6948 253.707 65.8243 255.928 65.8009H342.005C343.08 65.7952 344.145 66.008 345.135 66.4264C346.125 66.8447 347.02 67.4599 347.765 68.2346C348.51 69.0093 349.09 69.9273 349.47 70.9329C349.849 71.9386 350.021 73.0109 349.973 74.0847L343.266 247.602C343.156 249.82 342.203 251.911 340.604 253.45C339.005 254.99 336.878 255.861 334.658 255.886Z" fill="#004E9E"/>
<path opacity="0.8" d="M296.034 246.063C298.312 243.828 298.417 240.24 296.268 238.05C294.119 235.859 290.53 235.895 288.252 238.129C285.974 240.364 285.869 243.952 288.018 246.142C290.167 248.333 293.756 248.298 296.034 246.063Z" fill="white"/>
<path d="M293.674 202.625C289.129 202.655 284.625 201.759 280.437 199.992C276.249 198.225 272.464 195.623 269.315 192.346C266.165 189.068 263.715 185.184 262.116 180.929C260.516 176.674 259.8 172.138 260.011 167.597L261.161 137.726H261.102C260.765 137.724 260.428 137.696 260.096 137.641L258.937 167.597C258.722 172.276 259.461 176.95 261.111 181.334C262.76 185.718 265.284 189.72 268.53 193.097C271.777 196.474 275.676 199.155 279.992 200.976C284.307 202.797 288.948 203.72 293.632 203.69C303.559 203.646 313.062 199.66 320.052 192.611C319.798 192.353 319.575 192.067 319.387 191.758C316.029 195.176 312.029 197.895 307.616 199.76C303.203 201.625 298.465 202.598 293.674 202.625Z" fill="white"/>
<path d="M297.799 95.8289C279.535 95.8289 263.879 109.465 260.828 127.098C261.055 127.085 261.283 127.085 261.51 127.098C261.646 127.098 261.774 127.098 261.91 127.098C264.927 110.053 280.089 96.9113 297.756 96.9113C302.302 96.8798 306.807 97.7746 310.996 99.5413C315.186 101.308 318.971 103.909 322.122 107.187C325.272 110.464 327.722 114.349 329.323 118.605C330.923 122.86 331.639 127.397 331.428 131.939L330.048 167.614C329.824 173.185 328.304 178.628 325.608 183.508C325.946 183.606 326.27 183.75 326.571 183.934C329.332 178.921 330.887 173.333 331.113 167.614L332.494 131.939C332.713 127.258 331.976 122.582 330.328 118.195C328.68 113.809 326.156 109.804 322.909 106.425C319.663 103.046 315.762 100.364 311.445 98.5421C307.127 96.7203 302.484 95.7972 297.799 95.8289Z" fill="white"/>
<path d="M297.518 103.124C303.261 103.11 308.885 104.759 313.711 107.871C313.864 107.541 314.049 107.227 314.265 106.934C309.272 103.729 303.46 102.036 297.527 102.059C290.814 102.08 284.269 104.163 278.777 108.025C278.966 108.326 279.123 108.646 279.246 108.979C284.585 105.186 290.969 103.14 297.518 103.124Z" fill="white"/>
<path d="M264.537 171.022C264.272 169.197 264.175 167.351 264.247 165.508L265.466 133.975C265.731 127.475 267.986 121.213 271.926 116.035C271.621 115.881 271.335 115.692 271.073 115.473C267.017 120.815 264.697 127.273 264.426 133.975L263.207 165.508C263.133 167.437 263.235 169.368 263.514 171.278C263.846 171.159 264.188 171.074 264.537 171.022Z" fill="white"/>
<path d="M321.954 114.004C321.695 114.267 321.41 114.501 321.101 114.703C325.326 120.226 327.474 127.059 327.169 134.006L325.951 165.539C325.561 173.804 322.023 181.607 316.063 187.345C310.102 193.084 302.171 196.324 293.898 196.399C287.329 196.429 280.936 194.28 275.719 190.289C275.414 190.526 275.082 190.726 274.73 190.885C280.178 195.177 286.92 197.496 293.855 197.465C302.415 197.387 310.62 194.036 316.787 188.099C322.953 182.162 326.613 174.09 327.016 165.539L328.235 134.006C328.555 126.808 326.331 119.727 321.954 114.004Z" fill="white"/>
<path d="M269.148 146.509L269.549 136.094C269.886 128.946 272.946 122.197 278.101 117.234C283.257 112.27 290.116 109.468 297.272 109.402C303.296 109.358 309.141 111.45 313.769 115.307C318.397 119.164 321.508 124.536 322.55 130.47C322.899 130.408 323.252 130.376 323.607 130.376C322.547 124.177 319.319 118.558 314.498 114.52C309.677 110.483 303.577 108.291 297.289 108.337C289.847 108.403 282.712 111.316 277.35 116.478C271.988 121.64 268.806 128.66 268.458 136.094L268.074 146.586C268.32 146.555 268.568 146.538 268.816 146.534L269.148 146.509Z" fill="white"/>
<path d="M305.266 187.715C301.783 189.285 298.007 190.101 294.186 190.11C290.716 190.143 287.276 189.467 284.076 188.125C280.876 186.782 277.983 184.801 275.575 182.303C273.167 179.805 271.293 176.841 270.069 173.594C268.846 170.347 268.297 166.884 268.457 163.417L268.704 157.145H268.372C268.127 157.146 267.882 157.129 267.639 157.094L267.392 163.4C267.225 166.999 267.793 170.594 269.061 173.967C270.329 177.339 272.271 180.417 274.768 183.015C277.264 185.612 280.264 187.673 283.583 189.073C286.903 190.473 290.473 191.183 294.076 191.158C298.12 191.154 302.116 190.282 305.794 188.601C305.584 188.327 305.407 188.03 305.266 187.715Z" fill="white"/>
<path d="M323.197 141.046C323.044 141.046 322.891 141.046 322.746 141.046L321.893 163.443C321.602 170.25 318.81 176.71 314.053 181.588C314.266 181.879 314.446 182.194 314.59 182.525C319.666 177.434 322.652 170.626 322.959 163.443L323.811 141.038C323.615 141.029 323.41 141.046 323.197 141.046Z" fill="white"/>
<path d="M306.586 116.631C303.597 115.282 300.354 114.587 297.075 114.594C290.749 114.65 284.684 117.126 280.126 121.512C275.568 125.899 272.862 131.865 272.564 138.184L271.669 161.323C271.621 162.687 271.689 164.052 271.874 165.405C272.184 165.122 272.524 164.873 272.888 164.663C272.751 163.555 272.699 162.438 272.735 161.323L273.63 138.184C273.915 132.15 276.498 126.455 280.85 122.266C285.202 118.077 290.992 115.713 297.032 115.659C300.134 115.663 303.199 116.329 306.023 117.611C306.179 117.267 306.367 116.939 306.586 116.631Z" fill="white"/>
<path d="M314.784 122.996C314.577 123.303 314.34 123.588 314.077 123.848C317.282 127.92 318.918 133.007 318.688 138.183L317.793 161.322C317.513 167.181 315.065 172.727 310.924 176.882C306.783 181.037 301.246 183.504 295.387 183.804C295.276 184.185 295.125 184.554 294.936 184.903C301.161 184.71 307.083 182.174 311.519 177.801C315.954 173.429 318.576 167.543 318.858 161.322L319.753 138.183C319.997 132.685 318.231 127.286 314.784 122.996Z" fill="white"/>
<path d="M292.566 122.409C292.583 122.035 292.634 121.665 292.719 121.301C289.997 121.891 287.426 123.037 285.168 124.667C285.497 124.835 285.801 125.047 286.071 125.298C288.035 123.935 290.238 122.954 292.566 122.409Z" fill="white"/>
<path d="M312.876 164C311.677 167.915 309.263 171.346 305.984 173.797C302.705 176.249 298.732 177.593 294.638 177.636C292.251 177.653 289.886 177.183 287.687 176.254C285.488 175.326 283.501 173.959 281.848 172.237C280.196 170.514 278.911 168.473 278.074 166.238C277.237 164.003 276.864 161.62 276.979 159.236L277.712 140.274C277.803 138.032 278.3 135.826 279.178 133.762C278.874 133.516 278.604 133.229 278.377 132.91C277.345 135.225 276.767 137.716 276.672 140.248L275.939 159.211C275.824 161.73 276.222 164.246 277.11 166.606C277.998 168.967 279.358 171.122 281.106 172.94C282.853 174.757 284.953 176.201 287.277 177.181C289.6 178.161 292.099 178.658 294.621 178.642C298.957 178.593 303.165 177.167 306.637 174.571C310.11 171.974 312.668 168.341 313.941 164.196C313.581 164.163 313.224 164.098 312.876 164Z" fill="white"/>
<path d="M314.477 140.271L314.324 144.209C314.606 144.158 314.89 144.13 315.176 144.123H315.406L315.551 140.246C315.719 136.22 314.572 132.249 312.282 128.934C309.992 125.619 306.685 123.14 302.861 121.871C302.895 122.251 302.895 122.633 302.861 123.013C306.388 124.27 309.419 126.625 311.509 129.731C313.6 132.837 314.64 136.531 314.477 140.271Z" fill="white"/>
<path d="M296.58 127.098C292.487 127.137 288.564 128.741 285.617 131.581C282.669 134.421 280.92 138.282 280.728 142.37L280.566 146.581C280.923 146.604 281.276 146.658 281.623 146.743L281.794 142.37C281.972 138.561 283.606 134.965 286.356 132.324C289.107 129.682 292.766 128.196 296.58 128.172C298.422 128.162 300.246 128.527 301.942 129.244C303.638 129.961 305.17 131.016 306.446 132.344C307.722 133.672 308.714 135.246 309.362 136.97C310.01 138.693 310.301 140.531 310.216 142.37L309.645 157.148C309.485 160.476 308.217 163.653 306.042 166.177C303.868 168.7 300.912 170.424 297.645 171.074C297.684 171.431 297.684 171.791 297.645 172.148C301.194 171.483 304.415 169.641 306.787 166.919C309.16 164.197 310.545 160.755 310.719 157.148L311.29 142.37C311.382 140.388 311.068 138.408 310.368 136.551C309.669 134.693 308.598 132.998 307.221 131.569C305.845 130.14 304.191 129.006 302.361 128.237C300.532 127.469 298.565 127.081 296.58 127.098Z" fill="white"/>
<path d="M286.628 139.623C286.849 139.61 287.071 139.61 287.293 139.623C288.21 138.042 289.525 136.727 291.106 135.81C292.688 134.892 294.481 134.403 296.309 134.39C297.424 134.39 298.531 134.581 299.582 134.953C299.701 134.612 299.852 134.284 300.034 133.973C298.854 133.541 297.608 133.318 296.352 133.316C294.236 133.338 292.166 133.936 290.364 135.046C288.563 136.156 287.097 137.735 286.125 139.615C286.293 139.609 286.46 139.612 286.628 139.623Z" fill="white"/>
<path d="M305.547 155.058C305.491 156.278 305.22 157.478 304.746 158.603C305.078 158.726 305.391 158.895 305.675 159.106C306.233 157.826 306.551 156.453 306.613 155.058L307.022 144.456C307.054 143.467 306.954 142.478 306.723 141.516C306.402 141.686 306.061 141.817 305.709 141.908C305.905 142.745 305.988 143.605 305.956 144.464L305.547 155.058Z" fill="white"/>
<path d="M297.433 164.81C296.668 164.995 295.884 165.089 295.098 165.092C293.8 165.094 292.515 164.833 291.321 164.324C290.127 163.815 289.048 163.07 288.151 162.132C287.254 161.194 286.556 160.083 286.101 158.868C285.645 157.652 285.441 156.357 285.501 155.061L285.689 150.262C285.331 150.231 284.977 150.166 284.632 150.066L284.436 155.061C284.373 156.498 284.602 157.933 285.11 159.279C285.619 160.625 286.396 161.854 287.394 162.89C288.392 163.926 289.59 164.749 290.916 165.307C292.242 165.866 293.668 166.149 295.106 166.14C295.999 166.137 296.889 166.028 297.757 165.816C297.62 165.491 297.511 165.154 297.433 164.81Z" fill="white"/>
<path d="M296.103 139.606C294.239 139.628 292.454 140.364 291.116 141.662C289.778 142.961 288.988 144.723 288.91 146.586L288.663 153.011C288.64 153.611 288.7 154.21 288.842 154.793C289.113 154.466 289.428 154.179 289.779 153.94C289.737 153.636 289.72 153.328 289.728 153.02L289.975 146.594C290.052 145.022 290.726 143.539 291.861 142.449C292.995 141.359 294.504 140.744 296.078 140.731C296.836 140.729 297.587 140.881 298.285 141.177C298.983 141.474 299.613 141.909 300.138 142.456C300.663 143.004 301.072 143.652 301.339 144.362C301.607 145.071 301.727 145.828 301.694 146.586L301.447 153.011C301.391 154.151 301.021 155.253 300.377 156.195C299.733 157.137 298.841 157.881 297.799 158.347C297.781 158.749 297.724 159.148 297.629 159.54C299.002 159.064 300.201 158.188 301.072 157.025C301.942 155.861 302.444 154.463 302.512 153.011L302.768 146.586C302.815 145.683 302.678 144.78 302.364 143.933C302.05 143.085 301.566 142.311 300.942 141.657C300.318 141.003 299.567 140.484 298.734 140.131C297.902 139.779 297.007 139.6 296.103 139.606Z" fill="white"/>
<path d="M314.025 62.9832H284.111C283.89 62.9833 283.67 62.9389 283.466 62.8527C283.262 62.7664 283.078 62.64 282.924 62.481C282.769 62.3221 282.649 62.1337 282.569 61.9272C282.489 61.7206 282.451 61.5001 282.458 61.2787C282.484 60.8204 282.683 60.3892 283.016 60.0726C283.348 59.756 283.789 59.5778 284.248 59.5742H314.153C314.375 59.573 314.595 59.6165 314.8 59.7023C315.005 59.7881 315.191 59.9143 315.346 60.0734C315.501 60.2325 315.623 60.4212 315.703 60.6283C315.784 60.8354 315.822 61.0566 315.815 61.2787C315.787 61.7363 315.587 62.1664 315.255 62.4826C314.923 62.7988 314.484 62.9776 314.025 62.9832Z" fill="#004E9E"/>
<path opacity="0.2" d="M267.241 92.8962C265.472 93.0348 263.696 93.0747 261.923 93.0155C261.296 92.8813 260.653 92.841 260.014 92.8962H259.818C254.814 92.5297 249.864 91.6355 245.048 90.2287C244.554 90.0838 244.043 89.9133 243.523 89.7344L239.381 197.007L267.062 178.539C268.313 177.717 269.352 176.61 270.092 175.31C270.833 174.009 271.255 172.551 271.323 171.056L274.101 99.3392C274.141 98.4463 273.987 97.5555 273.65 96.7276C273.314 95.8997 272.802 95.1543 272.15 94.5425C271.499 93.9307 270.723 93.4668 269.876 93.1827C269.028 92.8985 268.129 92.8008 267.241 92.8962Z" fill="black"/>
<path d="M260.568 84.8918C258.802 85.0333 257.029 85.076 255.258 85.0196C254.631 84.8867 253.989 84.8436 253.349 84.8918H253.145C248.144 84.5286 243.196 83.6344 238.384 82.2242C232.35 80.3484 226.79 77.1978 222.08 72.9858C220.936 71.884 219.407 71.2725 217.819 71.2813H210.592C208.972 71.2931 207.413 71.8997 206.212 72.9858C201.212 77.1852 195.414 80.3279 189.167 82.2242C184.284 83.6281 179.268 84.5221 174.201 84.8918H173.997C173.355 84.8436 172.709 84.8866 172.079 85.0196C170.311 85.0761 168.541 85.0334 166.778 84.8918C165.87 84.8223 164.957 84.9355 164.094 85.2246C163.23 85.5138 162.433 85.9729 161.75 86.5751C161.067 87.1772 160.511 87.9101 160.116 88.7305C159.721 89.551 159.494 90.4422 159.449 91.3518L156.67 163.077C156.607 164.529 156.909 165.974 157.547 167.279C158.186 168.585 159.141 169.71 160.327 170.551L200.51 198.812C201.99 199.85 203.756 200.404 205.564 200.397H212.782C214.628 200.39 216.431 199.839 217.964 198.812L260.329 170.551C261.577 169.728 262.613 168.622 263.353 167.323C264.094 166.025 264.518 164.57 264.591 163.077L267.36 91.3518C267.397 90.465 267.243 89.5806 266.91 88.7579C266.577 87.9352 266.072 87.1931 265.429 86.5815C264.786 85.9698 264.02 85.5026 263.181 85.2112C262.343 84.9198 261.452 84.8109 260.568 84.8918Z" fill="#004E9E"/>
<path opacity="0.8" d="M260.568 84.8918C258.802 85.0333 257.029 85.076 255.258 85.0196C254.631 84.8867 253.989 84.8436 253.349 84.8918H253.145C248.144 84.5286 243.196 83.6344 238.384 82.2242C232.35 80.3484 226.79 77.1978 222.08 72.9858C220.936 71.884 219.407 71.2725 217.819 71.2813H210.592C208.972 71.2931 207.413 71.8997 206.212 72.9858C201.212 77.1852 195.414 80.3279 189.167 82.2242C184.284 83.6281 179.268 84.5221 174.201 84.8918H173.997C173.355 84.8436 172.709 84.8866 172.079 85.0196C170.311 85.0761 168.541 85.0334 166.778 84.8918C165.87 84.8223 164.957 84.9355 164.094 85.2246C163.23 85.5138 162.433 85.9729 161.75 86.5751C161.067 87.1772 160.511 87.9101 160.116 88.7305C159.721 89.551 159.494 90.4422 159.449 91.3518L156.67 163.077C156.607 164.529 156.909 165.974 157.547 167.279C158.186 168.585 159.141 169.71 160.327 170.551L200.51 198.812C201.99 199.85 203.756 200.404 205.564 200.397H212.782C214.628 200.39 216.431 199.839 217.964 198.812L260.329 170.551C261.577 169.728 262.613 168.622 263.353 167.323C264.094 166.025 264.518 164.57 264.591 163.077L267.36 91.3518C267.397 90.465 267.243 89.5806 266.91 88.7579C266.577 87.9352 266.072 87.1931 265.429 86.5815C264.786 85.9698 264.02 85.5026 263.181 85.2112C262.343 84.9198 261.452 84.8109 260.568 84.8918Z" fill="white"/>
<path d="M161.367 162.942L164.017 94.3612C164.076 93.1038 164.614 91.9166 165.52 91.0434C166.427 90.1701 167.633 89.677 168.892 89.6653H170.452C177.195 89.5815 183.896 88.5779 190.369 86.6824C196.525 84.8166 202.298 81.8639 207.414 77.9639C208.256 77.2773 209.31 76.9023 210.396 76.9023C211.483 76.9023 212.537 77.2773 213.379 77.9639C218.234 81.8886 223.794 84.8506 229.76 86.6909C236.154 88.5961 242.783 89.6 249.455 89.6738H250.895C251.516 89.6684 252.131 89.7899 252.703 90.0307C253.276 90.2715 253.793 90.6266 254.223 91.0742C254.653 91.5218 254.987 92.0526 255.205 92.6339C255.422 93.2152 255.519 93.8349 255.489 94.4549L252.838 162.95C252.803 163.722 252.586 164.474 252.206 165.146C251.825 165.819 251.291 166.392 250.648 166.819L208.547 194.944C207.766 195.476 206.842 195.761 205.897 195.761C204.951 195.761 204.027 195.476 203.246 194.944L163.31 166.819C162.685 166.389 162.18 165.808 161.84 165.13C161.5 164.452 161.338 163.699 161.367 162.942Z" fill="#004E9E"/>
<path opacity="0.2" d="M173.066 159.32L175.316 101.018C181.341 100.541 187.303 99.459 193.111 97.7878C199.036 96.0058 204.684 93.407 209.892 90.0664C214.88 93.4226 220.337 96.0244 226.085 97.7878C231.807 99.4663 237.688 100.549 243.633 101.018L241.374 159.32L206.313 182.706L173.066 159.32Z" fill="white"/>
<path opacity="0.2" d="M184.855 153.224L186.483 111.115C189.602 110.527 192.747 109.785 195.858 108.89C200.52 107.517 205.038 105.696 209.349 103.453C213.517 105.704 217.903 107.526 222.44 108.89C225.519 109.782 228.596 110.524 231.669 111.115L230.042 153.224L206.861 168.744L184.855 153.224Z" fill="white"/>
<path d="M107.502 87.4768C105.908 90.7835 104.297 94.1755 102.746 97.5163C101.974 99.2208 101.229 100.891 100.513 102.528C99.845 104.092 99.259 105.691 98.7578 107.317C98.4067 108.871 98.2464 110.463 98.2805 112.056C98.2805 113.845 98.2805 115.703 98.2805 117.553L98.5618 128.785L94.6244 129.365C93.6385 125.654 92.8393 121.897 92.2296 118.107C91.9398 116.198 91.65 114.28 91.4966 112.294C91.4114 111.306 91.3432 110.3 91.3262 109.243C91.3262 108.706 91.3262 108.169 91.3262 107.539C91.3262 107.249 91.3688 106.942 91.4199 106.601C91.471 106.26 91.5222 106.022 91.5733 105.749C91.9958 103.722 92.5654 101.728 93.2778 99.7833C93.934 97.9254 94.6499 96.1101 95.3914 94.3289C96.8828 90.758 98.4851 87.3149 100.275 83.8633L107.502 87.4768Z" fill="#FF8B7B"/>
<path d="M101.416 130.333L98.143 126.566L94.4442 126.754C92.7397 130.802 96.447 133.384 96.447 133.384L97.1032 135.6C97.171 135.821 97.2864 136.024 97.4414 136.196C97.5965 136.367 97.7872 136.502 98.0002 136.592C98.2133 136.681 98.4433 136.723 98.6742 136.713C98.905 136.704 99.131 136.644 99.3361 136.538L101.416 135.506C101.705 135.365 101.948 135.144 102.117 134.869C102.286 134.595 102.374 134.278 102.37 133.955V132.686C102.335 131.814 101.998 130.983 101.416 130.333Z" fill="#FF8B7B"/>
<path d="M91.0016 298.688C90.3735 298.408 89.7813 298.053 89.2375 297.632C89.2088 297.611 89.187 297.582 89.1748 297.548C89.1627 297.515 89.1608 297.479 89.1693 297.444C89.1784 297.408 89.1977 297.375 89.2248 297.349C89.252 297.324 89.286 297.306 89.3227 297.299C89.638 297.24 92.4249 296.728 93.0896 297.461C93.1626 297.545 93.2121 297.647 93.2331 297.756C93.254 297.866 93.2457 297.978 93.209 298.083C93.1728 298.264 93.0912 298.432 92.9719 298.572C92.8526 298.713 92.6995 298.82 92.5272 298.884C92.0118 299.007 91.4692 298.938 91.0016 298.688ZM89.8255 297.589C90.9505 298.365 91.905 298.723 92.3823 298.535C92.4952 298.489 92.5944 298.414 92.6705 298.319C92.7466 298.223 92.797 298.11 92.8169 297.99C92.8448 297.95 92.8597 297.902 92.8597 297.853C92.8597 297.804 92.8448 297.757 92.8169 297.717C92.459 297.325 90.942 297.436 89.8255 297.589Z" fill="#004E9E"/>
<path d="M89.2713 297.656L89.1946 297.596C89.1797 297.567 89.1719 297.535 89.1719 297.502C89.1719 297.47 89.1797 297.437 89.1946 297.408C89.1946 297.323 90.1662 295.227 91.2485 294.852C91.3862 294.794 91.5357 294.772 91.6841 294.785C91.8326 294.798 91.9756 294.848 92.1008 294.928C92.2341 294.988 92.3426 295.092 92.4079 295.222C92.4732 295.353 92.4911 295.502 92.4587 295.644C92.2542 296.539 90.2685 297.562 89.4162 297.664C89.3928 297.673 89.3678 297.677 89.3429 297.675C89.3179 297.674 89.2935 297.667 89.2713 297.656ZM91.8281 295.21C91.6855 295.154 91.5275 295.154 91.3849 295.21C90.7372 295.431 90.0639 296.539 89.6804 297.221C90.6008 296.957 91.9303 296.113 92.0497 295.576C92.0497 295.482 92.0497 295.372 91.8622 295.252L91.8281 295.21Z" fill="#004E9E"/>
<path d="M120.422 56.7773C121.129 61.4477 122.723 71.632 119.322 74.6745C119.322 74.6745 120.379 79.4216 129.029 79.592C138.549 79.7795 133.793 74.9558 133.793 74.9558C128.68 73.6178 128.961 69.7741 130.035 66.1776L120.422 56.7773Z" fill="#FF8B7B"/>
<path d="M139.905 49.0394L139.751 48.9627C139.684 48.8928 139.646 48.7997 139.646 48.7027C139.646 48.6058 139.684 48.5127 139.751 48.4428C140.12 47.9748 140.594 47.6005 141.134 47.3502C141.675 47.0999 142.267 46.9808 142.862 47.0025C142.91 47.0078 142.957 47.0226 142.999 47.0461C143.042 47.0696 143.079 47.1013 143.109 47.1393C143.139 47.1774 143.162 47.2211 143.175 47.2678C143.188 47.3145 143.192 47.3634 143.186 47.4116C143.173 47.5104 143.122 47.6003 143.044 47.6623C142.966 47.7244 142.867 47.7536 142.768 47.744C142.298 47.7357 141.832 47.8368 141.408 48.0395C140.983 48.2421 140.611 48.5406 140.322 48.9115C140.272 48.971 140.206 49.0147 140.132 49.0374C140.058 49.0601 139.979 49.0608 139.905 49.0394Z" fill="#263238"/>
<path d="M141.675 53.6328C142.041 55.1259 142.615 56.5603 143.38 57.8941C143.037 58.0936 142.655 58.2153 142.26 58.2507C141.866 58.286 141.468 58.2341 141.096 58.0986L141.675 53.6328Z" fill="#FF5652"/>
<path d="M141.243 52.4905C141.167 53.1212 141.439 53.6666 141.848 53.7092C142.258 53.7518 142.65 53.266 142.701 52.6354C142.752 52.0047 142.505 51.4593 142.096 51.4167C141.687 51.3741 141.32 51.8598 141.243 52.4905Z" fill="#263238"/>
<path d="M141.941 51.4343L143.501 51.1445C143.501 51.1445 142.581 52.2525 141.941 51.4343Z" fill="#263238"/>
<path d="M148.836 301.807L157.137 299.182L156.327 282.273L148.018 284.89L148.836 301.807Z" fill="#FF8B7B"/>
<path d="M80.6992 295.766L88.1734 297.88L94.4375 280.571L86.9547 278.457L80.6992 295.766Z" fill="#FF8B7B"/>
<path d="M89.1274 296.388L81.1162 292.979C80.9766 292.92 80.8206 292.914 80.6766 292.961C80.5326 293.008 80.4104 293.105 80.3322 293.235L76.5737 299.328C76.4827 299.48 76.425 299.649 76.4047 299.825C76.3844 300.001 76.4018 300.179 76.4559 300.348C76.5099 300.517 76.5993 300.672 76.7181 300.803C76.8369 300.934 76.9824 301.039 77.1447 301.109C79.9657 302.234 81.406 302.635 84.9002 304.126C87.0649 305.038 88.7609 307.816 93.525 307.816C96.7464 307.816 97.3601 304.902 96.0817 304.476C90.116 302.567 91.3347 299.729 90.116 297.317C89.9075 296.899 89.5569 296.57 89.1274 296.388Z" fill="#263238"/>
<path d="M160.103 300.35C159.399 300.331 158.699 300.236 158.015 300.069C157.979 300.059 157.947 300.039 157.921 300.012C157.896 299.985 157.878 299.952 157.87 299.915C157.864 299.88 157.868 299.844 157.881 299.81C157.895 299.777 157.918 299.748 157.947 299.728C158.211 299.557 160.504 298.023 161.467 298.432C161.571 298.478 161.662 298.55 161.731 298.641C161.799 298.732 161.844 298.839 161.859 298.952C161.902 299.127 161.898 299.31 161.849 299.484C161.8 299.657 161.706 299.815 161.578 299.941C161.152 300.251 160.628 300.397 160.103 300.35ZM158.535 299.804C159.907 300.077 160.938 300.026 161.322 299.668C161.406 299.582 161.466 299.475 161.496 299.358C161.525 299.242 161.524 299.119 161.492 299.003C161.488 298.953 161.47 298.905 161.442 298.863C161.414 298.821 161.375 298.788 161.33 298.765C160.836 298.543 159.49 299.216 158.518 299.804H158.535Z" fill="#004E9E"/>
<path d="M158.058 300.07H157.964C157.936 300.055 157.912 300.033 157.896 300.006C157.879 299.979 157.87 299.948 157.871 299.916C157.871 299.814 157.802 297.555 158.629 296.805C158.732 296.706 158.856 296.632 158.992 296.589C159.128 296.547 159.272 296.536 159.413 296.558C159.561 296.563 159.703 296.615 159.818 296.707C159.933 296.8 160.015 296.927 160.052 297.07C160.257 297.922 158.885 299.626 158.152 300.078C158.12 300.084 158.088 300.081 158.058 300.07ZM159.294 296.891C159.142 296.893 158.997 296.951 158.885 297.053C158.39 297.504 158.263 298.757 158.237 299.524C158.97 298.928 159.814 297.658 159.686 297.121C159.686 297.036 159.618 296.925 159.379 296.899L159.294 296.891Z" fill="#004E9E"/>
<path d="M157.366 298.977H148.554C148.403 298.972 148.255 299.024 148.141 299.124C148.027 299.224 147.955 299.363 147.94 299.514L147.165 306.485C147.153 306.664 147.178 306.843 147.239 307.012C147.299 307.18 147.393 307.335 147.515 307.466C147.637 307.597 147.785 307.701 147.949 307.773C148.113 307.845 148.29 307.882 148.469 307.883C151.545 307.832 153.02 307.653 156.898 307.653C159.284 307.653 162.77 307.9 166.068 307.9C169.366 307.9 169.426 304.644 168.045 304.346C161.858 303.025 160.826 301.201 158.67 299.463C158.303 299.158 157.843 298.987 157.366 298.977Z" fill="#263238"/>
<path opacity="0.2" d="M156.318 282.273L156.762 291.333L148.435 293.617L148.018 284.898L156.318 282.273Z" fill="black"/>
<path opacity="0.2" d="M86.9546 278.465L94.4289 280.578L91.2073 289.493L83.7246 287.379L86.9546 278.465Z" fill="black"/>
<path d="M103.975 75.6628C100.702 76.4298 97.1055 88.2164 97.1055 88.2164L106.233 97.8723C106.233 97.8723 113.989 86.7335 112.463 82.7109C110.852 78.5178 107.801 74.7594 103.975 75.6628Z" fill="#004E9E"/>
<path opacity="0.2" d="M103.975 75.6628C100.702 76.4298 97.1055 88.2164 97.1055 88.2164L106.233 97.8723C106.233 97.8723 113.989 86.7335 112.463 82.7109C110.852 78.5178 107.801 74.7594 103.975 75.6628Z" fill="black"/>
<path opacity="0.4" d="M109.028 83.0515C110.732 81.5174 111.806 81.9435 112.556 83.1367C113.272 86.6053 108.423 94.4631 106.59 97.2584C105.815 93.9773 105.269 86.5371 109.028 83.0515Z" fill="black"/>
<path d="M145.733 78.4062C146.185 81.8152 145.904 92.2893 139.29 123.976L107.425 123.354C108.541 110.408 108.916 102.414 103.922 75.6961C108.425 74.8678 112.982 74.3637 117.558 74.1876C122.388 73.9369 127.229 74.0308 132.046 74.4688C136.657 74.9802 141.711 75.9858 143.978 76.4716C144.435 76.5724 144.849 76.8127 145.163 77.1593C145.478 77.5059 145.677 77.9416 145.733 78.4062Z" fill="#004E9E"/>
<path opacity="0.2" d="M145.733 78.4062C146.185 81.8152 145.904 92.2893 139.29 123.976L107.425 123.354C108.541 110.408 108.916 102.414 103.922 75.6961C108.425 74.8678 112.982 74.3637 117.558 74.1876C122.388 73.9369 127.229 74.0308 132.046 74.4688C136.657 74.9802 141.711 75.9858 143.978 76.4716C144.435 76.5724 144.849 76.8127 145.163 77.1593C145.478 77.5059 145.677 77.9416 145.733 78.4062Z" fill="black"/>
<path d="M120.415 48.3235C119.955 56.1216 119.563 59.4028 123.014 63.7663C128.128 70.3116 137.775 68.8798 140.545 61.3544C143.034 54.5364 143.366 42.9288 136.19 39.1278C129.014 35.3268 120.867 40.5255 120.415 48.3235Z" fill="#FF8B7B"/>
<path d="M130.896 123.782C130.896 123.782 126.268 180.678 120.166 210.873C115.24 235.29 92.8941 288.052 92.8941 288.052L83.1699 283.945C83.1699 283.945 94.4281 224.185 102.039 209.654C110.561 159.533 96.7633 142.446 107.442 123.355L130.896 123.782Z" fill="#263238"/>
<path opacity="0.4" d="M122.227 154.895C118.742 169.715 121 183.172 123.361 192.053C124.759 182.533 126.02 172.28 127.094 162.676C125.619 159.914 123.77 157.306 122.227 154.895Z" fill="black"/>
<path d="M139.307 123.945C139.307 123.945 151.409 179.503 152.943 203.255C154.562 227.97 157.809 286.519 157.809 286.519L147.139 289.383C147.139 289.383 135.14 229.035 136.06 210.874C130.094 185.102 109.291 123.391 109.291 123.391L139.307 123.945Z" fill="#263238"/>
<path d="M159.421 289.228L145.564 291.563L144.234 286.62L159.072 284.098L159.421 289.228Z" fill="#004E9E"/>
<path d="M94.6419 288.539L81.6621 284.866L82.3865 280.051L96.2611 283.468L94.6419 288.539Z" fill="#004E9E"/>
<path d="M107.051 121.445L105.483 124.266C105.363 124.479 105.619 124.709 105.986 124.718L139.402 125.374C139.692 125.374 139.939 125.246 139.965 125.067L140.382 122.221C140.382 122.025 140.169 121.854 139.854 121.846L107.579 121.215C107.479 121.203 107.377 121.218 107.284 121.258C107.191 121.299 107.111 121.363 107.051 121.445Z" fill="white"/>
<path d="M111.217 125.138H110.365C110.194 125.138 110.067 125.035 110.084 124.933L110.655 121.234C110.655 121.132 110.825 121.047 110.995 121.047H111.848C112.018 121.047 112.146 121.141 112.129 121.251L111.558 124.942C111.549 125.052 111.396 125.138 111.217 125.138Z" fill="#263238"/>
<path d="M132.174 125.544H131.322C131.151 125.544 131.024 125.45 131.041 125.339L131.612 121.649C131.612 121.538 131.782 121.453 131.961 121.453H132.813C132.984 121.453 133.112 121.547 133.095 121.658L132.524 125.348C132.498 125.459 132.345 125.544 132.174 125.544Z" fill="#263238"/>
<path d="M147.497 82.4219C149.056 85.7371 150.795 89.1802 152.61 92.4443C154.333 95.6801 156.296 98.7824 158.482 101.725C158.755 102.075 159.028 102.433 159.249 102.688C159.471 102.944 159.752 103.251 160.042 103.541C160.638 104.122 161.27 104.666 161.934 105.168C163.364 106.248 164.864 107.23 166.425 108.109C169.693 109.953 173.065 111.606 176.524 113.06L175.485 116.895C171.471 116.22 167.543 115.114 163.766 113.597C161.801 112.819 159.903 111.881 158.09 110.793C157.137 110.215 156.223 109.574 155.354 108.876C154.903 108.518 154.502 108.117 154.034 107.7C153.565 107.282 153.181 106.847 152.874 106.472C152.142 105.68 151.494 104.87 150.829 104.06C150.164 103.251 149.568 102.407 148.988 101.563C147.795 99.8589 146.721 98.1544 145.681 96.4499C143.609 92.9872 141.761 89.3946 140.15 85.6945L147.497 82.4219Z" fill="#FF8B7B"/>
<path d="M143.501 76.3197C150.966 77.9475 152.773 89.6829 152.773 89.6829L145.418 98.2565C145.418 98.2565 133.734 87.1773 134.339 81.1519C134.74 76.7032 139.427 75.4333 143.501 76.3197Z" fill="#004E9E"/>
<path opacity="0.2" d="M143.501 76.3197C150.966 77.9475 152.773 89.6829 152.773 89.6829L145.418 98.2565C145.418 98.2565 133.734 87.1773 134.339 81.1519C134.74 76.7032 139.427 75.4333 143.501 76.3197Z" fill="black"/>
<path d="M185.159 116.075L183.088 113.63C183.088 113.63 176.406 112.07 173.449 113.519L172.537 116.272L180.003 120.141L181.562 120.874C181.933 121.048 182.355 121.082 182.749 120.971C183.143 120.86 183.485 120.611 183.71 120.269L185.21 118.155C185.432 117.851 185.548 117.483 185.538 117.107C185.529 116.73 185.396 116.368 185.159 116.075Z" fill="#FF8B7B"/>
<path d="M142.207 91.4032C143.51 87.926 144.235 83.7329 143.911 81.7302C143.468 85.2926 140.758 90.1674 138.039 93.7895C133.154 95.7414 127.891 96.5621 122.644 96.1902C117.397 95.8182 112.302 94.2632 107.742 91.6418C105.5 87.1079 103.642 80.0257 104.818 75.7985C103.378 77.9462 102.313 83.8182 102.995 87.9601C100.702 85.6164 99.364 82.983 99.3555 80.3921C99.3555 67.9408 114.364 68.6993 114.568 59.6143C114.773 50.5294 111.074 31.9589 129.602 35.9218C141.738 35.3508 139.198 46.0551 137.221 52.5662C135.423 58.5746 153.78 81.6364 142.207 91.4032Z" fill="#263238"/>
<path d="M129.636 35.9226C137.221 31.8745 144.976 38.2493 141.005 44.9224C137.502 44.769 134.664 46.9934 137.408 51.4421C129.269 46.3116 124.283 36.3743 129.636 35.9226Z" fill="#263238"/>
<path d="M137.612 50.2842C138.437 51.7059 138.784 53.3551 138.601 54.9887C138.362 57.0852 136.726 57.0852 135.575 55.8409C134.425 54.5966 133.47 52.0143 134.135 50.4121C134.268 50.0662 134.5 49.767 134.801 49.5516C135.103 49.3362 135.461 49.2141 135.831 49.2005C136.202 49.1869 136.568 49.2823 136.885 49.475C137.201 49.6677 137.454 49.9491 137.612 50.2842Z" fill="#FF8B7B"/>
</svg>
