<svg width="100" height="100" viewBox="0 0 100 100" fill="none" xmlns="http://www.w3.org/2000/svg">
<path d="M52.344 67.1875C49.0545 67.188 45.8018 66.4954 42.7979 65.1546C39.794 63.8139 37.1064 61.8553 34.9101 59.4063C32.663 60.365 30.13 60.4061 27.8529 59.521C25.5758 58.6358 23.7356 56.8947 22.726 54.67C20.1504 54.5678 17.6271 53.9126 15.3272 52.7489C13.0273 51.5852 11.0047 49.9403 9.39667 47.9259C7.78867 45.9114 6.63293 43.5746 6.00791 41.0739C5.38289 38.5733 5.30322 35.9675 5.77431 33.4334C6.2454 30.8993 7.25622 28.4962 8.73815 26.3872C10.2201 24.2783 12.1384 22.5129 14.3629 21.2109C16.5875 19.9089 19.0661 19.1008 21.6305 18.8414C24.195 18.582 26.7852 18.8774 29.2254 19.7076C31.4516 14.4783 35.5024 10.2362 40.6236 7.77145C45.7448 5.30665 51.5872 4.78708 57.0629 6.30948C62.5387 7.83189 67.2745 11.2925 70.3886 16.0469C73.5026 20.8013 74.7826 26.5254 73.9901 32.1534C77.8213 33.5198 80.9685 36.3267 82.7624 39.9773C83.2956 39.8894 83.8349 39.8447 84.3753 39.8438C85.9474 39.842 87.4985 40.2052 88.9065 40.9048C90.3144 41.6045 91.5406 42.6214 92.4887 43.8755C93.4368 45.1297 94.0807 46.5868 94.3699 48.1321C94.659 49.6775 94.5854 51.2688 94.155 52.7809C93.7245 54.293 92.9489 55.6845 91.8892 56.8458C90.8295 58.0072 89.5146 58.9066 88.0482 59.4734C86.5817 60.0402 85.0037 60.2587 83.4384 60.1119C81.8732 59.9651 80.3633 59.4569 79.0278 58.6274C76.1873 61.1258 72.5332 62.5027 68.7503 62.5C68.0347 62.4966 67.3203 62.442 66.6125 62.3368C62.5294 65.4978 57.5077 67.2049 52.344 67.1875ZM35.1123 57.6699C35.2253 57.6698 35.3369 57.6943 35.4395 57.7416C35.5421 57.7889 35.6332 57.8578 35.7066 57.9438C39.3778 62.2529 44.5778 64.9693 50.2118 65.521C55.8458 66.0727 61.474 64.4167 65.9114 60.9017C65.9963 60.8345 66.0943 60.7857 66.1991 60.7583C66.3039 60.731 66.4133 60.7258 66.5202 60.743C68.6518 61.1048 70.8385 60.9612 72.9044 60.3235C74.9703 59.6858 76.8576 58.572 78.4144 57.0717C78.5457 56.9468 78.7163 56.8715 78.897 56.8587C79.0777 56.8459 79.2572 56.8964 79.4047 57.0015C80.507 57.7842 81.7784 58.2957 83.1156 58.4944C84.4528 58.6931 85.8181 58.5734 87.1003 58.1451C88.3825 57.7167 89.5456 56.9918 90.4948 56.0293C91.4441 55.0668 92.1528 53.8938 92.5634 52.6057C92.9739 51.3177 93.0746 49.951 92.8574 48.6166C92.6402 47.2823 92.1111 46.0181 91.3132 44.9268C90.5154 43.8355 89.4712 42.9478 88.2656 42.3361C87.0601 41.7244 85.7272 41.4058 84.3753 41.4063C83.7391 41.4083 83.105 41.4807 82.4847 41.6222C82.3084 41.6622 82.1236 41.6398 81.9621 41.5586C81.8005 41.4775 81.6721 41.3427 81.5989 41.1774C80.7851 39.3388 79.5863 37.6962 78.0835 36.3603C76.5808 35.0244 74.809 34.0264 72.8877 33.4336C72.7066 33.3778 72.552 33.2582 72.4525 33.0969C72.353 32.9357 72.3154 32.7438 72.3468 32.557C73.2514 27.2153 72.1415 21.7281 69.232 17.1579C66.3226 12.5878 61.8205 9.26002 56.598 7.81918C51.3754 6.37834 45.8039 6.92696 40.9627 9.35877C36.1215 11.7906 32.355 15.9325 30.3928 20.9824C30.3177 21.1754 30.169 21.3307 29.9794 21.4141C29.7899 21.4976 29.5749 21.5022 29.3819 21.4272C27.1422 20.5563 24.7386 20.188 22.3409 20.3485C19.9432 20.509 17.6101 21.1942 15.5064 22.3558C13.4028 23.5174 11.5801 25.127 10.1671 27.0708C8.75412 29.0145 7.78543 31.2449 7.32952 33.6043C6.87362 35.9637 6.94162 38.3945 7.52873 40.7247C8.11584 43.0549 9.20772 45.2277 10.7272 47.0894C12.2466 48.951 14.1565 50.4562 16.3218 51.4984C18.4871 52.5406 20.8549 53.0943 23.2578 53.1205C23.4135 53.1221 23.5652 53.1703 23.6934 53.2588C23.8216 53.3473 23.9204 53.4721 23.9772 53.6171C24.3702 54.6318 24.9714 55.5528 25.742 56.3209C26.5126 57.0891 27.4356 57.6873 28.4515 58.077C29.4674 58.4667 30.5536 58.6393 31.6403 58.5836C32.7269 58.5279 33.7898 58.2453 34.7606 57.7538C34.8696 57.6986 34.9901 57.6699 35.1123 57.6699Z" fill="black"/>
<path d="M43.75 33.5938C42.3594 33.5938 40.9999 33.1814 39.8436 32.4088C38.6874 31.6362 37.7862 30.538 37.254 29.2532C36.7218 27.9685 36.5826 26.5547 36.8539 25.1908C37.1252 23.8268 37.7948 22.574 38.7782 21.5907C39.7615 20.6073 41.0143 19.9377 42.3783 19.6664C43.7422 19.3951 45.156 19.5343 46.4407 20.0665C47.7255 20.5987 48.8237 21.4999 49.5963 22.6562C50.3689 23.8124 50.7813 25.1719 50.7813 26.5625C50.7792 28.4267 50.0378 30.2139 48.7196 31.5321C47.4014 32.8503 45.6142 33.5917 43.75 33.5938ZM43.75 21.0938C42.6684 21.0938 41.6111 21.4145 40.7117 22.0154C39.8124 22.6163 39.1115 23.4704 38.6975 24.4697C38.2836 25.469 38.1753 26.5686 38.3863 27.6294C38.5973 28.6902 39.1182 29.6647 39.883 30.4295C40.6478 31.1943 41.6223 31.7152 42.6831 31.9262C43.7439 32.1372 44.8435 32.0289 45.8428 31.615C46.8421 31.2011 47.6962 30.5001 48.2971 29.6008C48.898 28.7014 49.2188 27.6441 49.2188 26.5625C49.217 25.1126 48.6403 23.7227 47.6151 22.6975C46.5898 21.6722 45.1999 21.0955 43.75 21.0938Z" fill="black"/>
<path d="M73.4375 53.9063C72.6649 53.9063 71.9097 53.6772 71.2673 53.2479C70.6249 52.8187 70.1243 52.2086 69.8286 51.4949C69.5329 50.7811 69.4556 49.9957 69.6063 49.2379C69.757 48.4802 70.1291 47.7842 70.6754 47.2379C71.2217 46.6916 71.9177 46.3195 72.6754 46.1688C73.4332 46.0181 74.2186 46.0954 74.9324 46.3911C75.6461 46.6868 76.2562 47.1874 76.6854 47.8298C77.1146 48.4722 77.3438 49.2274 77.3438 50C77.3425 51.0356 76.9306 52.0285 76.1983 52.7608C75.466 53.4931 74.4731 53.905 73.4375 53.9063ZM73.4375 47.6563C72.974 47.6563 72.5208 47.7937 72.1354 48.0512C71.75 48.3088 71.4495 48.6748 71.2722 49.1031C71.0948 49.5314 71.0484 50.0026 71.1388 50.4572C71.2292 50.9119 71.4524 51.3295 71.7802 51.6573C72.108 51.9851 72.5256 52.2083 72.9803 52.2987C73.4349 52.3892 73.9061 52.3427 74.3344 52.1653C74.7627 51.988 75.1287 51.6875 75.3863 51.3021C75.6438 50.9167 75.7813 50.4636 75.7813 50C75.7806 49.3786 75.5334 48.7829 75.094 48.3435C74.6546 47.9041 74.0589 47.6569 73.4375 47.6563Z" fill="black"/>
<path d="M32.0312 43.75H19.5313C19.4286 43.7501 19.327 43.7299 19.2322 43.6906C19.1374 43.6514 19.0513 43.5939 18.9787 43.5213C18.9061 43.4487 18.8486 43.3626 18.8094 43.2678C18.7701 43.173 18.7499 43.0714 18.75 42.9688V30.4688C18.7499 30.3661 18.7701 30.2645 18.8094 30.1697C18.8486 30.0749 18.9061 29.9888 18.9787 29.9162C19.0513 29.8436 19.1374 29.7861 19.2322 29.7469C19.327 29.7076 19.4286 29.6874 19.5313 29.6875H32.0312C32.1339 29.6874 32.2355 29.7076 32.3303 29.7469C32.4251 29.7861 32.5112 29.8436 32.5838 29.9162C32.6564 29.9888 32.7139 30.0749 32.7531 30.1697C32.7924 30.2645 32.8126 30.3661 32.8125 30.4688V42.9688C32.8126 43.0714 32.7924 43.173 32.7531 43.2678C32.7139 43.3626 32.6564 43.4487 32.5838 43.5213C32.5112 43.5939 32.4251 43.6514 32.3303 43.6906C32.2355 43.7299 32.1339 43.7501 32.0312 43.75ZM20.3125 42.1875H31.25V31.25H20.3125V42.1875Z" fill="black"/>
<path d="M63.2812 50.0015H49.2187C49.0822 50.0015 48.9482 49.9659 48.8299 49.898C48.7115 49.8301 48.6131 49.7325 48.5442 49.6147C48.4754 49.4969 48.4386 49.3632 48.4375 49.2268C48.4365 49.0904 48.4711 48.9561 48.5381 48.8372L55.5694 36.3372C55.6432 36.2241 55.7441 36.1311 55.863 36.0668C55.9818 36.0024 56.1148 35.9688 56.2499 35.9688C56.385 35.9688 56.518 36.0024 56.6369 36.0668C56.7557 36.1311 56.8566 36.2241 56.9304 36.3372L63.9617 48.8372C64.0287 48.9561 64.0634 49.0904 64.0623 49.2268C64.0612 49.3632 64.0244 49.4969 63.9556 49.6147C63.8867 49.7325 63.7883 49.8301 63.6699 49.898C63.5516 49.9659 63.4176 50.0015 63.2812 50.0015ZM50.5546 48.439H61.9452L56.2499 38.314L50.5546 48.439Z" fill="black"/>
<path d="M62.5001 24.2179C62.3975 24.218 62.2958 24.1978 62.2011 24.1585C62.1063 24.1193 62.0202 24.0616 61.9477 23.989L56.479 18.5202C56.3328 18.3737 56.2508 18.1751 56.251 17.9681C56.2511 17.7611 56.3334 17.5627 56.4798 17.4163C56.6261 17.2699 56.8246 17.1877 57.0316 17.1875C57.2385 17.1873 57.4371 17.2693 57.5837 17.4155L63.0524 22.8842C63.1617 22.9935 63.2361 23.1327 63.2662 23.2842C63.2963 23.4358 63.2809 23.5928 63.2218 23.7356C63.1626 23.8783 63.0625 24.0003 62.9341 24.0862C62.8056 24.172 62.6546 24.2178 62.5001 24.2179Z" fill="black"/>
<path d="M57.0311 24.2179C56.8766 24.2178 56.7256 24.172 56.5972 24.0862C56.4687 24.0003 56.3686 23.8783 56.3095 23.7356C56.2503 23.5928 56.2349 23.4358 56.265 23.2842C56.2951 23.1327 56.3695 22.9935 56.4788 22.8842L61.9475 17.4155C62.0941 17.2693 62.2927 17.1873 62.4996 17.1875C62.7066 17.1877 62.9051 17.2699 63.0514 17.4163C63.1978 17.5627 63.2801 17.7611 63.2802 17.9681C63.2804 18.1751 63.1984 18.3737 63.0523 18.5202L57.5835 23.989C57.5111 24.0616 57.425 24.1193 57.3302 24.1585C57.2354 24.1978 57.1337 24.218 57.0311 24.2179Z" fill="black"/>
<path d="M39.0626 53.9054C38.96 53.9055 38.8583 53.8853 38.7636 53.846C38.6688 53.8068 38.5827 53.7491 38.5102 53.6765L33.0415 48.2077C32.8953 48.0611 32.8133 47.8626 32.8135 47.6556C32.8136 47.4486 32.8959 47.2502 33.0423 47.1038C33.1886 46.9574 33.3871 46.8752 33.5941 46.875C33.801 46.8748 33.9996 46.9568 34.1462 47.103L39.6149 52.5717C39.7242 52.681 39.7986 52.8202 39.8287 52.9717C39.8588 53.1233 39.8434 53.2803 39.7843 53.4231C39.7251 53.5658 39.625 53.6878 39.4966 53.7737C39.3681 53.8595 39.2171 53.9053 39.0626 53.9054Z" fill="black"/>
<path d="M33.5936 53.9054C33.4391 53.9053 33.2881 53.8595 33.1597 53.7737C33.0312 53.6878 32.9311 53.5658 32.872 53.4231C32.8128 53.2803 32.7974 53.1233 32.8275 52.9717C32.8576 52.8202 32.932 52.681 33.0413 52.5717L38.51 47.103C38.6566 46.9568 38.8552 46.8748 39.0621 46.875C39.2691 46.8752 39.4676 46.9574 39.6139 47.1038C39.7603 47.2502 39.8426 47.4486 39.8427 47.6556C39.8429 47.8626 39.7609 48.0611 39.6148 48.2077L34.146 53.6765C34.0736 53.7491 33.9875 53.8068 33.8927 53.846C33.7979 53.8853 33.6962 53.9055 33.5936 53.9054Z" fill="black"/>
<path d="M73.955 56.762C75.6534 56.7506 77.2882 57.4073 78.5067 58.5905C79.7252 59.7736 80.4297 61.3884 80.4683 63.0864C80.4772 63.9261 80.3175 64.759 79.9988 65.5358C79.68 66.3127 79.2086 67.0177 78.6126 67.6092C77.3938 68.8317 75.741 69.5225 74.0148 69.5309L73.9514 69.5312C72.253 69.5426 70.6181 68.8859 69.3995 67.7027C68.1809 66.5195 67.4763 64.9047 67.4377 63.2067C67.4288 62.367 67.5885 61.5341 67.9072 60.7572C68.226 59.9804 68.6973 59.2753 69.2934 58.6839C70.5122 57.4614 72.165 56.7705 73.8912 56.7622L73.955 56.762ZM73.9546 55.1994L73.8766 55.1998C72.8252 55.1926 71.7828 55.394 70.8099 55.7925C69.8369 56.191 68.9526 56.7786 68.2084 57.5213C67.4641 58.264 66.8746 59.1469 66.474 60.119C66.0734 61.0912 65.8697 62.1331 65.8746 63.1845C65.8795 64.2359 66.0931 65.2759 66.5028 66.2442C66.9125 67.2125 67.5103 68.0899 68.2615 68.8255C69.0128 69.5611 69.9025 70.1404 70.8792 70.5297C71.8559 70.9191 72.9001 71.1107 73.9514 71.0936L74.0294 71.0933C76.1652 71.0791 78.2094 70.2238 79.7188 68.7126C80.4607 67.9738 81.0473 67.0942 81.4443 66.1254C81.8414 65.1567 82.0407 64.1183 82.0307 63.0714C81.9932 60.9599 81.1239 58.9486 79.6116 57.4745C78.0993 56.0005 76.0664 55.1829 73.9546 55.1994Z" fill="black"/>
<path d="M57.0494 92.968C56.8435 92.968 56.646 92.8867 56.4997 92.7419C56.3534 92.597 56.2702 92.4002 56.2682 92.1943C56.2417 89.8132 56.6933 87.4509 57.5961 85.2473C58.4988 83.0437 59.8345 81.0437 61.5241 79.3655C64.9482 75.9277 69.5931 73.9837 74.4452 73.9578C74.5024 73.957 74.5597 73.957 74.6176 73.957C79.4586 73.9693 84.0996 75.889 87.5348 79.2999C90.9699 82.7109 92.9222 87.3383 92.9687 92.179C92.9701 92.3859 92.8895 92.5849 92.7445 92.7324C92.5994 92.8799 92.4019 92.9638 92.195 92.9659C91.9882 92.9679 91.789 92.8878 91.6411 92.7431C91.4932 92.5985 91.4087 92.4011 91.4062 92.1943C91.3639 87.7651 89.5779 83.531 86.4352 80.4097C83.2924 77.2884 79.0462 75.5314 74.6169 75.5195C74.5642 75.5195 74.5124 75.5195 74.459 75.5203C70.0174 75.5435 65.7653 77.3223 62.6303 80.4687C61.0876 82.0003 59.868 83.8259 59.0435 85.8374C58.2191 87.8489 57.8067 90.0053 57.8307 92.1791C57.8326 92.3862 57.7522 92.5857 57.6071 92.7336C57.462 92.8815 57.2642 92.9658 57.0571 92.968H57.0494Z" fill="black"/>
<path d="M59.2112 61.8478C60.114 61.8403 60.9835 62.1879 61.6323 62.8157C62.281 63.4435 62.657 64.3012 62.6791 65.2037C62.6836 65.6485 62.5989 66.0897 62.4299 66.5011C62.2609 66.9125 62.011 67.2859 61.6952 67.5991C61.3685 67.9249 60.9808 68.1831 60.5541 68.3588C60.1275 68.5346 59.6704 68.6243 59.209 68.6231C58.3062 68.6307 57.4366 68.2831 56.7878 67.6553C56.139 67.0275 55.763 66.1698 55.7409 65.2672C55.7363 64.8224 55.8211 64.3813 55.9901 63.9698C56.1591 63.5584 56.4089 63.185 56.7248 62.8719C57.3749 62.2202 58.2563 61.8521 59.1768 61.848L59.2112 61.8478ZM59.2109 60.2853L59.1624 60.2856C58.5075 60.281 57.8582 60.4065 57.2521 60.6547C56.646 60.9029 56.0952 61.2689 55.6315 61.7315C55.1679 62.1941 54.8007 62.7441 54.5512 63.3496C54.3016 63.9552 54.1747 64.6042 54.1778 65.2591C54.1809 65.9141 54.3139 66.5619 54.5691 67.165C54.8244 67.7682 55.1968 68.3147 55.6647 68.7729C56.1327 69.2311 56.6869 69.5919 57.2953 69.8344C57.9037 70.0769 58.5542 70.1963 59.209 70.1856L59.2576 70.1853C60.588 70.1765 61.8612 69.6437 62.8014 68.7024C63.2635 68.2422 63.6289 67.6943 63.8762 67.0909C64.1235 66.4875 64.2477 65.8407 64.2414 65.1886C64.2181 63.8734 63.6765 62.6206 62.7346 61.7024C61.7926 60.7842 60.5263 60.275 59.2109 60.2853Z" fill="black"/>
<path d="M48.4375 84.3741C48.2316 84.3741 48.034 84.2928 47.8877 84.148C47.7414 84.0031 47.6582 83.8063 47.6563 83.6004C47.6532 80.4737 48.8508 77.4652 51.0017 75.1959C52.058 74.0528 53.3357 73.1364 54.7572 72.5025C56.1787 71.8686 57.7142 71.5305 59.2705 71.5086C59.3079 71.5086 59.3453 71.5079 59.3819 71.5079C61.0818 71.5033 62.7626 71.8669 64.3087 72.5737C65.8547 73.2806 67.2293 74.3139 68.338 75.6026C68.4722 75.7599 68.5385 75.964 68.5225 76.1701C68.5065 76.3763 68.4094 76.5677 68.2525 76.7024C68.0956 76.837 67.8917 76.904 67.6855 76.8887C67.4793 76.8733 67.2876 76.7768 67.1524 76.6203C66.1902 75.5028 64.9974 74.6068 63.6561 73.994C62.3147 73.3812 60.8566 73.0661 59.3819 73.0703C59.3499 73.0703 59.3178 73.0711 59.285 73.0711C57.939 73.0916 56.6113 73.3858 55.3826 73.9356C54.154 74.4854 53.0499 75.2794 52.1378 76.2693C50.263 78.2436 49.2181 80.8625 49.2188 83.5851C49.2208 83.7923 49.1404 83.9918 48.9953 84.1398C48.8502 84.2877 48.6523 84.372 48.4451 84.374L48.4375 84.3741Z" fill="black"/>
</svg>
