<svg width="100" height="100" viewBox="0 0 100 100" fill="none" xmlns="http://www.w3.org/2000/svg">
<path d="M27.4779 57.5472H0.450937C0.202289 57.5472 0.000488281 57.3358 0.000488281 57.0755V0.471698C0.000488281 0.211321 0.202289 0 0.450937 0H27.4779C27.7265 0 27.9283 0.211321 27.9283 0.471698V57.0755C27.9283 57.3358 27.7265 57.5472 27.4779 57.5472ZM0.901386 56.6038H27.0274V0.943396H0.901386V56.6038Z" fill="black"/>
<path d="M27.4774 99.9979H0.450449C0.201801 99.9979 0 99.7866 0 99.5262V78.2998C0 78.0394 0.201801 77.8281 0.450449 77.8281H27.4774C27.726 77.8281 27.9278 78.0394 27.9278 78.2998V99.5262C27.9278 99.7866 27.726 99.9979 27.4774 99.9979ZM0.900898 99.0545H27.0269V78.7715H0.900898V99.0545Z" fill="black"/>
<path d="M27.4774 64.627H0.450449C0.201801 64.627 0 64.4157 0 64.1553C0 63.8949 0.201801 63.6836 0.450449 63.6836H27.4774C27.726 63.6836 27.9278 63.8949 27.9278 64.1553C27.9278 64.4157 27.726 64.627 27.4774 64.627Z" fill="black"/>
<path d="M27.4774 10.3731H0.450449C0.201801 10.3731 0 10.1618 0 9.90139C0 9.64101 0.201801 9.42969 0.450449 9.42969H27.4774C27.726 9.42969 27.9278 9.64101 27.9278 9.90139C27.9278 10.1618 27.726 10.3731 27.4774 10.3731Z" fill="black"/>
<path d="M27.4774 71.7012H0.450449C0.201801 71.7012 0 71.4899 0 71.2295C0 70.9691 0.201801 70.7578 0.450449 70.7578H27.4774C27.726 70.7578 27.9278 70.9691 27.9278 71.2295C27.9278 71.4899 27.726 71.7012 27.4774 71.7012Z" fill="black"/>
<path d="M0.450908 99.9979C0.313971 99.9979 0.178836 99.9328 0.0900977 99.8092C-0.0592262 99.6007 -0.0186855 99.305 0.180188 99.1488L27.2071 77.9224C27.4065 77.766 27.6887 77.8087 27.8378 78.0165C27.9871 78.225 27.9466 78.5208 27.7477 78.6769L0.720727 99.9033C0.639872 99.9672 0.545052 99.9979 0.450908 99.9979Z" fill="black"/>
<path d="M27.4772 99.9978C27.3833 99.9978 27.2882 99.9672 27.2071 99.9035L0.180187 78.6771C-0.018686 78.5209 -0.0592259 78.2252 0.090098 78.0167C0.239647 77.8087 0.521853 77.766 0.720727 77.9226L27.7477 99.149C27.9465 99.3051 27.9871 99.6009 27.8378 99.8094C27.7493 99.9327 27.6139 99.9978 27.4772 99.9978Z" fill="black"/>
<path d="M99.5497 57.5472H72.5227C72.2741 57.5472 72.0723 57.3358 72.0723 57.0755V0.471698C72.0723 0.211321 72.2741 0 72.5227 0H99.5497C99.7983 0 100 0.211321 100 0.471698V57.0755C100 57.3358 99.7983 57.5472 99.5497 57.5472ZM72.9732 56.6038H99.0992V0.943396H72.9732V56.6038Z" fill="black"/>
<path d="M99.5497 92.92H72.5227C72.2741 92.92 72.0723 92.7086 72.0723 92.4483C72.0723 92.1879 72.2741 91.9766 72.5227 91.9766H99.5497C99.7983 91.9766 100 92.1879 100 92.4483C100 92.7086 99.7983 92.92 99.5497 92.92Z" fill="black"/>
<path d="M99.5497 10.3731H72.5227C72.2741 10.3731 72.0723 10.1618 72.0723 9.90139C72.0723 9.64101 72.2741 9.42969 72.5227 9.42969H99.5497C99.7983 9.42969 100 9.64101 100 9.90139C100 10.1618 99.7983 10.3731 99.5497 10.3731Z" fill="black"/>
<path d="M99.5497 99.9942H72.5227C72.2741 99.9942 72.0723 99.7829 72.0723 99.5225C72.0723 99.2621 72.2741 99.0508 72.5227 99.0508H99.5497C99.7983 99.0508 100 99.2621 100 99.5225C100 99.7829 99.7983 99.9942 99.5497 99.9942Z" fill="black"/>
<path d="M63.5135 100H36.4866C36.2379 100 36.0361 99.789 36.0361 99.5286V42.9248C36.0361 42.6644 36.2379 42.4531 36.4866 42.4531H63.5135C63.7622 42.4531 63.964 42.6644 63.964 42.9248V99.5286C63.964 99.789 63.7622 100 63.5135 100ZM36.937 99.0569H63.0631V43.3965H36.937V99.0569Z" fill="black"/>
<path d="M63.5135 22.1698H36.4866C36.2379 22.1698 36.0361 21.9585 36.0361 21.6981V0.471698C36.0361 0.211321 36.2379 0 36.4866 0H63.5135C63.7622 0 63.964 0.211321 63.964 0.471698V21.6981C63.964 21.9585 63.7622 22.1698 63.5135 22.1698ZM36.937 21.2264H63.0631V0.943396H36.937V21.2264Z" fill="black"/>
<path d="M63.5135 36.3184H36.4866C36.2379 36.3184 36.0361 36.1071 36.0361 35.8467C36.0361 35.5863 36.2379 35.375 36.4866 35.375H63.5135C63.7622 35.375 63.964 35.5863 63.964 35.8467C63.964 36.1071 63.7622 36.3184 63.5135 36.3184Z" fill="black"/>
<path d="M63.5135 90.5645H36.4866C36.2379 90.5645 36.0361 90.3532 36.0361 90.0928C36.0361 89.8324 36.2379 89.6211 36.4866 89.6211H63.5135C63.7622 89.6211 63.964 89.8324 63.964 90.0928C63.964 90.3532 63.7622 90.5645 63.5135 90.5645Z" fill="black"/>
<path d="M63.5135 29.2481H36.4866C36.2379 29.2481 36.0361 29.0368 36.0361 28.7764C36.0361 28.516 36.2379 28.3047 36.4866 28.3047H63.5135C63.7622 28.3047 63.964 28.516 63.964 28.7764C63.964 29.0368 63.7622 29.2481 63.5135 29.2481Z" fill="black"/>
<path d="M63.5131 22.1696C63.4192 22.1696 63.3243 22.139 63.2433 22.0753L36.2163 0.848862C36.0174 0.692494 35.9769 0.396739 36.1262 0.188485C36.2756 -0.01977 36.558 -0.0617506 36.7569 0.0941456L63.7838 21.3206C63.9829 21.4769 64.0232 21.7727 63.8737 21.9809C63.7854 22.1045 63.65 22.1696 63.5131 22.1696Z" fill="black"/>
<path d="M36.487 22.1698C36.3501 22.1698 36.215 22.1047 36.1262 21.9811C35.9769 21.7726 36.0174 21.4769 36.2163 21.3208L63.2433 0.0943481C63.443 -0.0620198 63.725 -0.0195675 63.8739 0.188687C64.0232 0.397178 63.9829 0.692932 63.784 0.849064L36.7571 22.0755C36.676 22.1392 36.5812 22.1698 36.487 22.1698Z" fill="black"/>
<path d="M99.5497 85.8534H72.5227C72.2741 85.8534 72.0723 85.6421 72.0723 85.3817V64.1553C72.0723 63.8949 72.2741 63.6836 72.5227 63.6836H99.5497C99.7983 63.6836 100 63.8949 100 64.1553V85.3817C100 85.6421 99.7983 85.8534 99.5497 85.8534ZM72.9732 84.91H99.0992V64.627H72.9732V84.91Z" fill="black"/>
<path d="M16.2164 16.9805H11.7119V21.6974H16.2164V16.9805Z" fill="black"/>
<path d="M16.2164 24.0547H11.7119V28.7717H16.2164V24.0547Z" fill="black"/>
<path d="M16.2164 31.1328H11.7119V35.8498H16.2164V31.1328Z" fill="black"/>
<path d="M52.2525 64.1523H47.748V68.8693H52.2525V64.1523Z" fill="black"/>
<path d="M52.2525 71.2266H47.748V75.9435H52.2525V71.2266Z" fill="black"/>
<path d="M52.2525 78.3008H47.748V83.0178H52.2525V78.3008Z" fill="black"/>
<path d="M88.2882 16.9805H83.7837V21.6974H88.2882V16.9805Z" fill="black"/>
<path d="M88.2882 24.0547H83.7837V28.7717H88.2882V24.0547Z" fill="black"/>
<path d="M88.2882 31.1328H83.7837V35.8498H88.2882V31.1328Z" fill="black"/>
</svg>
