<svg width="100" height="100" viewBox="0 0 100 100" fill="none" xmlns="http://www.w3.org/2000/svg">
<path d="M100 30.3531H97.4321L99.2481 28.537L71.463 0.751852L69.6469 2.5679V0H30.3531V2.56914L28.537 0.753086L0.751852 28.537L2.5679 30.3531H0V69.6469H2.5679L0.751852 71.463L28.5358 99.2481L30.3519 97.4321V100H69.6457V97.4321L71.4617 99.2481L99.2469 71.463L97.4309 69.6469H99.9988L100 30.3531ZM1.23457 68.4123V31.5877H3.8037L22.2148 50L3.80247 68.4123H1.23457ZM30.3531 95.6864L28.537 97.5025L2.49753 71.463L4.31358 69.6469H30.3531V95.6864ZM30.3531 68.4123H5.54815L23.0877 50.8728L30.3531 58.1383V68.4123ZM30.3531 56.3926L23.9605 50L30.3531 43.6074V56.3926ZM30.3531 41.8617L23.0877 49.1272L5.54938 31.5877H30.3531V41.8617ZM30.3531 30.3531H4.31481L2.49877 28.537L28.537 2.49753L30.3531 4.31358V30.3531ZM31.5877 5.54938L49.1272 23.0889L41.8617 30.3543H31.5877V5.54938ZM50 23.9605L56.3926 30.3531H43.6074L50 23.9605ZM31.5877 31.5877H40.6272L31.5877 40.6272V31.5877ZM31.5877 59.3728L40.6272 68.4123H31.5877V59.3728ZM31.5877 69.6469H41.8617L49.1272 76.9123L31.5877 94.4518V69.6469ZM43.6074 69.6469H56.3914L50 76.0395L43.6074 69.6469ZM68.4123 98.7654H31.5877V96.1975L50 77.7852L68.4123 96.1975V98.7654ZM68.4123 94.4518L50.8728 76.9123L58.1383 69.6469H68.4123V94.4518ZM68.4123 68.4123H59.3728L68.4123 59.3728V68.4123ZM68.4123 57.6272L57.6272 68.4123H42.3728L31.5877 57.6272V42.3728L42.3728 31.5877H57.6259L68.4111 42.3728V57.6272H68.4123ZM68.4123 40.6272L59.3728 31.5877H68.4123V40.6272ZM68.4123 30.3531H58.1383L50.8728 23.0877L68.4123 5.54815V30.3531ZM68.4123 3.80247L50 22.2148L31.5877 3.8037V1.23457H68.4123V3.80247ZM69.6469 4.31358L71.463 2.49753L97.5025 28.5358L95.6864 30.3519H69.6469V4.31358ZM69.6469 31.5877H94.4518L76.9123 49.1272L69.6469 41.8617V31.5877ZM69.6469 43.6074L76.0395 50L69.6469 56.3926V43.6074ZM69.6469 58.1383L76.9123 50.8728L94.4518 68.4123H69.6469V58.1383ZM97.5025 71.463L71.463 97.5025L69.6469 95.6864V69.6469H95.6864L97.5025 71.463ZM98.7654 68.4123H96.1975L77.7852 50L96.1975 31.5877H98.7654V68.4123Z" fill="black"/>
</svg>
