<svg width="100" height="100" viewBox="0 0 100 100" fill="none" xmlns="http://www.w3.org/2000/svg">
<path d="M85.8448 14.8657V9.36914C85.8448 9.05684 85.5976 8.74453 85.2268 8.74453H78.6138C70.394 3.06059 60.7527 0 50.7405 0C32.5704 0 15.9453 9.99375 7.29279 26.1087H0.618033C0.309017 26.1087 0 26.3585 0 26.7333V32.8545C0 33.1668 0.247213 33.4791 0.618033 33.4791H4.07902C2.22492 38.7883 1.29787 44.3473 1.29787 49.9688C1.29787 53.2792 1.60689 56.5896 2.28672 59.8376L0.988853 60.1499C0.74164 60.2124 0.494427 60.4622 0.494427 60.7745V67.3329C0.494427 67.6452 0.679837 67.8951 0.988853 67.9575L4.94427 68.8944C5.5005 70.2061 6.05673 71.5178 6.73656 72.8295L4.44984 76.5147C4.32623 76.7645 4.32623 77.0768 4.51164 77.2642L9.08509 81.8863C9.2705 82.0737 9.57952 82.1362 9.82673 81.9488L11.6808 80.762C21.1367 93.0044 35.2897 100 50.6169 100C77.934 100 99.9978 77.514 99.9978 50.0937C100.121 36.727 95.0535 24.2973 85.8448 14.8657ZM84.6088 9.99375C84.6088 16.3648 84.6088 53.654 84.6088 63.3979H51.6676V9.99375H84.6088ZM30.8399 84.6346H26.1428L27.0699 80.5122C27.6879 80.3248 28.3059 80.075 28.924 79.8251V80.5122C28.924 82.1362 29.6656 83.6352 30.8399 84.6346ZM28.924 68.1449C27.5025 70.5184 24.9067 72.0175 22.1256 72.0175C17.7376 72.0175 14.2148 68.3948 14.2148 64.0225C14.2148 59.5878 17.7994 56.0275 22.1256 56.0275C24.9067 56.0275 27.5025 57.5265 28.924 59.9001V68.1449ZM30.16 80.5122V33.5415H32.694V74.4535C32.694 74.7658 32.9412 75.0781 33.312 75.0781H68.2309C68.5399 75.0781 68.8489 74.8282 68.8489 74.4535V64.6471H71.3829V80.5122C71.3829 82.7608 69.5288 84.6346 67.3038 84.6346H34.1772C31.9523 84.6346 30.16 82.7608 30.16 80.5122ZM41.9645 26.1711H33.8682V22.9232H50.4315V64.0225C50.4315 64.3348 50.6787 64.6471 51.0496 64.6471H67.4892V73.8288H33.8682V33.5415H41.9645C42.2735 33.5415 42.5825 33.2917 42.5825 32.9169V26.7958C42.5825 26.421 42.2735 26.1711 41.9645 26.1711ZM50.4933 19.1131H45.5491C45.24 19.1131 44.931 19.3629 44.931 19.7377C44.931 20.05 45.1782 20.3623 45.5491 20.3623H50.4933V21.7364H33.2502C32.1995 21.7364 32.8176 23.2979 32.6322 26.2336H30.0982V20.7995C30.0982 18.5509 31.9523 16.6771 34.1772 16.6771H50.4315V19.1131H50.4933ZM41.3464 27.4204V32.2923H9.82673V27.4204C23.9797 27.4204 35.1661 27.4204 41.3464 27.4204ZM50.7405 1.24922C59.8874 1.24922 68.7253 3.81012 76.4507 8.74453H51.1114C50.8023 8.74453 50.4933 8.99438 50.4933 9.36914V15.4279H34.1772C31.2725 15.4279 28.8622 17.8014 28.8622 20.7995V26.2336C23.4235 26.2336 13.2259 26.2336 8.65247 26.2336C17.1813 10.8057 33.2502 1.24922 50.7405 1.24922ZM1.23607 32.2923V27.4204H7.66361H8.65247V32.2923H1.23607ZM5.37689 33.5415C13.7821 33.5415 20.0243 33.5415 28.924 33.5415V48.2199C28.3059 47.97 27.6879 47.7202 27.0699 47.5328L25.9574 42.6608C25.8956 42.411 25.6484 42.1611 25.3394 42.1611H18.85C18.541 42.1611 18.2938 42.3485 18.232 42.6608L17.1195 47.5328C16.0071 47.9076 14.9564 48.3448 13.9676 48.8445L9.88853 46.1586C9.64132 46.0337 9.3323 46.0337 9.14689 46.2211L4.57345 50.8432C4.32623 51.0931 4.32623 51.4054 4.44984 51.6552L7.04558 55.9026C6.48935 56.9019 6.05673 57.9638 5.74771 59.0881L3.46099 59.6502C2.84295 56.5272 2.53394 53.2792 2.53394 50.0312C2.53394 44.3473 3.46099 38.7883 5.37689 33.5415ZM9.64132 80.5746L5.74771 76.6396L8.28165 72.5172C8.40525 72.3298 8.40525 72.0799 8.28165 71.8926C7.66361 70.7683 7.16919 69.5815 6.79837 68.3323C6.73656 68.1449 6.55115 67.9575 6.36574 67.8951L1.73049 66.8332V61.2117L6.42755 60.1499C6.67476 60.0874 6.79837 59.9625 6.86017 59.7127C7.23099 58.4635 7.72542 57.2767 8.34345 56.1524C8.46706 55.965 8.46706 55.7152 8.34345 55.5278L5.80951 51.4054L9.70312 47.4703L13.7821 50.0312C13.9676 50.1562 14.2148 50.1562 14.4002 50.0312C15.4508 49.4066 16.6251 48.9069 17.923 48.5322C18.1084 48.4697 18.2938 48.2823 18.3556 48.0949L19.4062 43.3479H24.9067L25.9574 48.0949C26.0192 48.3448 26.1428 48.4697 26.39 48.5322C27.3171 48.782 28.1205 49.0943 28.924 49.5315V57.7764C27.1935 55.8401 24.7213 54.7158 22.1256 54.7158C17.0577 54.7158 12.9787 58.8382 12.9787 63.96C12.9787 69.0818 17.0577 73.2042 22.1256 73.2042C24.7213 73.2042 27.1935 72.0799 28.924 70.1437V78.3885C28.0587 78.7633 27.2553 79.138 26.39 79.3879C26.2046 79.4503 26.0192 79.6377 25.9574 79.8251L24.9067 84.5721H19.4062L18.3556 79.8251C18.2938 79.5753 18.1702 79.4503 17.923 79.3879C16.6869 79.0131 15.5126 78.5134 14.4002 77.8888C14.2148 77.7639 13.9676 77.7639 13.7821 77.8888L9.64132 80.5746ZM16.8723 84.6346C15.4508 83.198 14.0912 81.6365 12.7933 80.0125L14.0294 79.2005C15.0182 79.7626 16.0689 80.1999 17.1813 80.5122L18.1084 84.6346H16.8723ZM50.7405 98.6883C38.4417 98.6883 26.9463 94.1287 18.1702 85.8838H83.3109C74.6584 93.8164 63.2248 98.6883 50.7405 98.6883ZM84.547 84.6346H70.6412C71.8155 83.6352 72.5571 82.1986 72.5571 80.5122V64.6471H85.2886C85.5976 64.6471 85.9066 64.3972 85.9066 64.0225V16.6771C94.2501 25.7339 98.8853 37.4766 98.8853 49.9688C98.8853 63.5228 93.3848 75.7651 84.547 84.6346Z" fill="black"/>
</svg>
