<svg width="86" height="100" viewBox="0 0 86 100" fill="none" xmlns="http://www.w3.org/2000/svg">
<path d="M85.3031 28.7792C85.3031 27.8966 84.6044 27.1785 83.7455 27.1785C72.6861 27.1785 81.2534 27.1785 62.0935 27.1785V17.3595C62.0935 14.0428 59.4681 11.3447 56.2409 11.3447H23.08L23.0704 10.6931C23.0598 9.99016 22.593 9.36658 21.9337 9.17635L20.4314 8.74805C20.2549 8.20387 20.0475 7.69769 19.7833 7.20291L20.504 5.79821C20.8345 5.1719 20.7194 4.41139 20.2167 3.9049L19.0312 2.71843C18.5403 2.224 17.7791 2.12286 17.1818 2.47335L15.8078 3.27199L14.3237 2.67136L13.8585 1.12389C13.6541 0.451291 13.0288 -0.00501552 12.3516 4.1615e-05L10.6926 0.0237711C10.0086 0.0342743 9.40188 0.513921 9.21565 1.19391L8.79286 2.73049C8.25537 2.9176 7.76481 3.13856 7.30379 3.40114L5.93244 2.65035C5.32 2.3197 4.56146 2.44807 4.08605 2.95728L2.94029 4.17488C2.45428 4.68525 2.35814 5.4516 2.70297 6.08568L3.47362 7.46588C3.21131 7.99571 3.00994 8.50804 2.86232 9.02114L1.37174 9.49923C0.712368 9.71396 0.2767 10.3364 0.287299 11.0475L0.310388 12.7451C0.320986 13.4477 0.787692 14.0712 1.44668 14.2619L2.94597 14.6909C3.12311 15.2196 3.34568 15.7428 3.59853 16.2252L2.87405 17.6365C2.55686 18.2581 2.67609 19.0346 3.16437 19.5255L4.35252 20.7143C4.84838 21.2029 5.60919 21.3037 6.19815 20.9571L7.55663 20.1721C8.0222 20.4171 8.52828 20.6245 9.06501 20.7902L9.52982 22.3147C9.73497 22.9896 10.3296 23.4386 11.0128 23.4386C11.0204 23.4386 11.0284 23.4386 11.0363 23.4386L11.9073 23.4276V71.0936H6.84995C5.44908 71.0936 4.30937 72.2649 4.30937 73.7046V86.3602C4.30937 87.7999 5.44907 88.9712 6.84995 88.9712H11.9073V93.9852C11.9073 96.2192 13.1042 98.1685 14.872 99.2033H3.11819C2.90396 99.2033 2.7306 99.3815 2.7306 99.6017C2.7306 99.8218 2.90396 100 3.11819 100H71.448C71.6623 100 71.8356 99.8218 71.8356 99.6017C71.8356 99.3815 71.6623 99.2033 71.448 99.2033H59.129C60.8967 98.1685 62.0935 96.2192 62.0935 93.9852V83.0866L63.7688 83.0626C64.6439 83.0424 65.3884 82.4515 65.622 81.5917L66.2011 79.451C66.9218 79.2133 67.6315 78.8986 68.3159 78.5127L70.2292 79.5502C70.9908 79.9665 71.9416 79.8109 72.5427 79.1729L74.095 77.5219C74.7014 76.868 74.8172 75.9091 74.3842 75.1385L73.3228 73.2117C73.6006 72.6306 73.8368 72.0517 74.0272 71.4849C74.0768 71.3309 74.123 71.1729 74.168 71.0166L76.2298 70.3537C77.0493 70.0966 77.6148 69.2991 77.6049 68.4141L77.5743 66.124C77.555 65.2386 76.9664 64.4556 76.1431 64.2194L74.0564 63.6231C73.817 62.8787 73.57 62.2345 73.1472 61.4493L74.1487 59.4926C74.5534 58.7107 74.4023 57.7331 73.7827 57.1161L72.1949 55.5239C71.5805 54.9027 70.6229 54.7751 69.8628 55.2147L67.9703 56.3233L65.8506 55.4601L65.2086 53.326C64.9577 52.4737 64.1916 51.877 63.3127 51.912L62.0935 51.9302V36.0128C81.2777 36.0128 72.6941 36.0128 83.7455 36.0128C84.6044 36.0128 85.3031 35.2947 85.3031 34.4121V28.7792ZM53.0626 35.2162C52.6311 35.2162 52.2802 34.8555 52.2802 34.4121V28.7792C52.2802 28.3358 52.6311 27.9752 53.0626 27.9752H75.0519V35.2162C70.5824 35.2162 60.7155 35.2162 53.0626 35.2162ZM15.1632 88.9712H19.1641C20.565 88.9712 21.7047 87.7999 21.7047 86.3602V77.3761H46.4503C46.6646 77.3761 46.8379 77.1979 46.8379 76.9777C46.8379 76.7575 46.6646 76.5794 46.4503 76.5794H21.7047V73.7046C21.7047 73.5978 21.6862 73.4961 21.674 73.3926H42.6156C42.8298 73.3926 43.0032 73.2145 43.0032 72.9943C43.0032 72.7741 42.8298 72.5959 42.6156 72.5959H21.4554C21.0481 71.7112 20.1779 71.0936 19.1641 71.0936H15.1632V17.3595C15.1632 15.8879 16.3283 14.6909 17.7602 14.6909H24.2653C24.4557 16.2256 25.7313 17.4155 27.2718 17.4155H48.8531C50.3937 17.4155 51.6693 16.2256 51.8596 14.6909H56.2409C57.6728 14.6909 58.8375 15.8879 58.8375 17.3595V27.1785H53.0626C52.2037 27.1785 51.505 27.8966 51.505 28.7792V34.4121C51.505 35.2947 52.2037 36.0128 53.0626 36.0128H58.8375V93.9852C58.8375 95.4525 57.6728 96.646 56.2409 96.646H17.7602C16.3283 96.646 15.1632 95.4525 15.1632 93.9852V88.9712ZM11.0257 22.6419C10.6585 22.6508 10.3739 22.4197 10.2694 22.0766L9.74254 20.3479C9.70318 20.2187 9.60287 20.1191 9.47607 20.083C8.84471 19.9032 8.25953 19.6628 7.73718 19.3688C7.62022 19.3026 7.4779 19.3034 7.36094 19.3711L5.81661 20.2639C5.51986 20.4377 5.13907 20.3856 4.89077 20.1413L3.70565 18.9552C3.46075 18.709 3.40132 18.3192 3.5603 18.0076L4.38205 16.4065C4.44375 16.2863 4.44147 16.1419 4.37599 16.0237C4.0728 15.4756 3.81049 14.8598 3.61745 14.2424C3.57771 14.1148 3.47778 14.0164 3.35249 13.9806L1.65562 13.4947C1.32518 13.3994 1.09088 13.0859 1.08558 12.7334L1.06249 11.0358C1.05719 10.6787 1.27559 10.3663 1.60414 10.2594L3.2942 9.71748C3.42138 9.67662 3.51942 9.57158 3.55348 9.43932C3.70527 8.85114 3.9354 8.26413 4.25714 7.64444C4.31997 7.52346 4.31808 7.37758 4.25146 7.25854L3.37748 5.69278C3.20412 5.3738 3.25105 4.98751 3.49595 4.73038L4.64436 3.51006C4.88358 3.25409 5.26587 3.19069 5.5702 3.35485L7.12854 4.20755C7.24739 4.27329 7.39198 4.27018 7.50743 4.19899C8.0275 3.8839 8.58959 3.63026 9.22587 3.42292C9.34965 3.38286 9.44579 3.28132 9.48137 3.15295L9.96284 1.40631C10.056 1.0667 10.3607 0.825517 10.7036 0.82046L12.363 0.79673C12.6934 0.795174 13.0159 1.02352 13.1185 1.36001L13.6382 3.08915C13.6726 3.20469 13.7567 3.29805 13.8664 3.3424L15.6958 4.08307C15.8048 4.12664 15.9271 4.11808 16.0285 4.05895L17.5641 3.16618C17.8624 2.99112 18.2439 3.04053 18.4896 3.28833L19.6747 4.4748C19.9272 4.72882 19.9866 5.10811 19.8204 5.42242L18.9987 7.02397C18.9362 7.14573 18.9393 7.29239 19.007 7.41103C19.2292 7.8016 19.423 8.22523 19.582 8.66908C19.641 8.83597 19.7005 9.00324 19.7523 9.1853C19.7898 9.31795 19.8912 9.42104 20.0207 9.45799L21.7251 9.94386C22.0556 10.0392 22.2899 10.3523 22.2952 10.7055L22.3047 11.3447H17.7602C17.0955 11.3447 16.436 11.4616 15.8227 11.6832C15.731 9.39225 13.8546 7.55579 11.6306 7.60826C9.33394 7.64373 7.51626 9.58804 7.55853 11.9231C7.57102 13.0575 8.01539 14.1183 8.80989 14.9107C9.58708 15.6857 10.6151 16.1257 11.763 16.1089C11.8671 16.1059 11.9606 16.0943 12.0574 16.0854C11.9686 16.4991 11.9073 16.9218 11.9073 17.3595V22.6307L11.0257 22.6419ZM12.2895 15.2508C11.189 15.4644 10.1266 15.1145 9.35003 14.3393C8.70466 13.6958 8.34394 12.8346 8.33372 11.9111C8.29899 9.99485 9.79351 8.4337 11.6419 8.40495C13.4732 8.36994 15.0266 9.90107 15.0546 11.7987C15.0546 11.8821 15.0472 11.9608 15.0431 12.0412C13.7718 12.7276 12.7857 13.8779 12.2895 15.2508ZM12.6825 17.3595C12.6825 14.5015 14.9411 12.1414 17.7602 12.1414C17.8549 12.1414 22.7974 12.1414 22.7043 12.1414H56.2409C59.0408 12.1414 61.3183 14.4824 61.3183 17.3595V27.1785H59.6127V17.3595C59.6127 15.4487 58.1002 13.8942 56.2409 13.8942H51.4966C51.2824 13.8942 51.1091 14.0724 51.1091 14.2926C51.1091 15.5751 50.0969 16.6189 48.8531 16.6189H27.2718C26.028 16.6189 25.0159 15.5751 25.0159 14.2926C25.0159 14.0724 24.8425 13.8942 24.6283 13.8942H17.7602C15.9009 13.8942 14.388 15.4487 14.388 17.3595V71.0936H12.6825V17.3595ZM5.08457 86.3602V73.7046C5.08457 72.7041 5.87642 71.8903 6.84995 71.8903C9.30454 71.8903 19.4444 71.8903 19.1641 71.8903C20.1376 71.8903 20.9295 72.7041 20.9295 73.7046V86.3602C20.9295 87.3607 20.1376 88.1745 19.1641 88.1745H6.84995C5.87642 88.1745 5.08457 87.3607 5.08457 86.3602ZM62.0935 62.9482C62.2057 62.9395 62.3179 62.9233 62.4285 62.9221C64.9558 62.9221 67.0357 65.0126 67.0781 67.6124C67.1137 70.2452 65.0588 72.4228 62.4932 72.4668C62.3706 72.4704 62.228 72.4493 62.0935 72.4386V62.9482ZM63.3271 52.7087C63.8509 52.6943 64.3165 53.0456 64.4675 53.5594L65.1651 55.8779C65.1996 55.9931 65.2832 56.086 65.3926 56.1304L67.8579 57.1344C67.9665 57.1784 68.0899 57.1694 68.1925 57.1103L70.2451 55.9079C70.7035 55.6414 71.2815 55.7177 71.6524 56.093L73.2426 57.6872C73.6162 58.0595 73.7074 58.6481 73.4636 59.1199L72.3629 61.2707C72.3008 61.3917 72.3035 61.5372 72.3701 61.6555C72.6824 62.211 72.9439 62.7848 73.1483 63.3621C73.2316 63.5962 73.3077 63.8308 73.3838 64.0724C73.4235 64.1996 73.5231 64.2976 73.6487 64.3338L75.9353 64.9869C76.4323 65.1293 76.7873 65.6043 76.7991 66.1384L76.8297 68.4242C76.8358 68.9572 76.4959 69.4372 76.0008 69.5928L73.7452 70.3179C73.6854 70.337 73.6234 70.379 73.5791 70.4245C73.5333 70.4712 73.5 70.5291 73.4814 70.5925C73.4143 70.8269 73.3534 71.0425 73.2929 71.2294C73.0946 71.8199 72.8406 72.4302 72.5382 73.0433C72.4799 73.1623 72.4829 73.3035 72.5469 73.4195L73.7112 75.5337C73.972 75.9986 73.9008 76.5767 73.5359 76.9699L71.9859 78.6189C71.6233 79.0025 71.0506 79.097 70.5922 78.8461L68.4915 77.7071C68.3745 77.6437 68.2337 77.646 68.1183 77.7137C67.3631 78.1568 66.5743 78.5065 65.773 78.7532C65.6454 78.7924 65.5467 78.8963 65.5107 79.0282L64.8752 81.3782C64.7344 81.8971 64.2828 82.2538 63.7544 82.2659L62.0935 82.2899V73.2396C62.264 73.2513 62.2896 73.2706 62.5106 73.2635C65.4982 73.2121 67.8946 70.6719 67.8533 67.6003C67.8037 64.5649 65.3775 62.1254 62.4338 62.1254C62.3215 62.1247 62.2071 62.1437 62.0935 62.1515V52.7271L63.3271 52.7087ZM61.3183 93.9852C61.3183 96.858 59.0408 99.1955 56.2409 99.1955H17.7602C14.9603 99.1955 12.6825 96.858 12.6825 93.9852V88.9712H14.388V93.9852C14.388 95.8917 15.9009 97.4427 17.7602 97.4427H56.2409C58.1002 97.4427 59.6127 95.8917 59.6127 93.9852V36.0128H61.3183C61.3183 56.0026 61.3183 72.1608 61.3183 93.9852ZM84.5279 34.4121C84.5279 34.8555 84.177 35.2162 83.7455 35.2162H75.8271V27.9752H83.7455C84.177 27.9752 84.5279 28.3358 84.5279 28.7792V34.4121Z" fill="black"/>
</svg>
