<svg width="125" height="100" viewBox="0 0 125 100" fill="none" xmlns="http://www.w3.org/2000/svg">
<path d="M15.6337 17.079C16.795 17.079 17.7396 16.1089 17.7396 14.9164C17.7396 13.7303 16.795 12.7656 15.6337 12.7656C14.473 12.7656 13.5283 13.7303 13.5283 14.9164C13.5283 16.1089 14.473 17.079 15.6337 17.079ZM15.6337 13.7028C16.2919 13.7028 16.827 14.2474 16.827 14.9164C16.827 15.5918 16.2919 16.1419 15.6337 16.1419C14.976 16.1419 14.4409 15.5918 14.4409 14.9164C14.4409 14.2474 14.976 13.7028 15.6337 13.7028Z" fill="black"/>
<path d="M22.4169 17.079C23.5782 17.079 24.5228 16.1089 24.5228 14.9164C24.5228 13.7303 23.5782 12.7656 22.4169 12.7656C21.2562 12.7656 20.3115 13.7303 20.3115 14.9164C20.3115 16.1089 21.2562 17.079 22.4169 17.079ZM22.4169 13.7028C23.0751 13.7028 23.6102 14.2474 23.6102 14.9164C23.6102 15.5918 23.0751 16.1419 22.4169 16.1419C21.7593 16.1419 21.2241 15.5918 21.2241 14.9164C21.2241 14.2474 21.7593 13.7028 22.4169 13.7028Z" fill="black"/>
<path d="M29.2006 17.079C30.3614 17.079 31.306 16.1089 31.306 14.9164C31.306 13.7303 30.3614 12.7656 29.2006 12.7656C28.0394 12.7656 27.0947 13.7303 27.0947 14.9164C27.0947 16.1089 28.0394 17.079 29.2006 17.079ZM29.2006 13.7028C29.8583 13.7028 30.3934 14.2474 30.3934 14.9164C30.3934 15.5918 29.8583 16.1419 29.2006 16.1419C28.5425 16.1419 28.0073 15.5918 28.0073 14.9164C28.0073 14.2474 28.5425 13.7028 29.2006 13.7028Z" fill="black"/>
<path d="M66.6291 15.3903H94.8836C95.1359 15.3903 95.3399 15.1807 95.3399 14.9217C95.3399 14.6627 95.1359 14.4531 94.8836 14.4531H66.6291C66.3769 14.4531 66.1729 14.6627 66.1729 14.9217C66.1729 15.1807 66.3769 15.3903 66.6291 15.3903Z" fill="black"/>
<path d="M55.6516 15.3903H60.9016C61.1538 15.3903 61.3578 15.1807 61.3578 14.9217C61.3578 14.6627 61.1538 14.4531 60.9016 14.4531H55.6516C55.3994 14.4531 55.1953 14.6627 55.1953 14.9217C55.1953 15.1807 55.3994 15.3903 55.6516 15.3903Z" fill="black"/>
<path d="M12.8217 23.3912C12.6435 23.2081 12.3547 23.2081 12.1765 23.3912L9.33094 26.3135C9.15271 26.4965 9.15271 26.793 9.33094 26.9761C9.50917 27.1591 9.79792 27.1591 9.97616 26.9761L12.8217 24.0538C12.9999 23.8708 12.9999 23.5742 12.8217 23.3912Z" fill="black"/>
<path d="M13.7467 25.3638C13.5685 25.1808 13.2797 25.1808 13.1015 25.3638L11.2518 27.2629C11.0736 27.446 11.0736 27.7425 11.2518 27.9255C11.4301 28.1086 11.7188 28.1086 11.8971 27.9255L13.7467 26.0265C13.9249 25.8434 13.9249 25.5469 13.7467 25.3638Z" fill="black"/>
<path d="M101.525 0.46859V6.14292C101.525 6.40193 101.729 6.61151 101.982 6.61151C102.234 6.61151 102.438 6.40193 102.438 6.14292V0.46859C102.438 0.209584 102.234 0 101.982 0C101.729 0 101.525 0.209584 101.525 0.46859Z" fill="black"/>
<path d="M105.672 10.402H111.197C111.45 10.402 111.654 10.1924 111.654 9.93343C111.654 9.67443 111.45 9.46484 111.197 9.46484H105.672C105.42 9.46484 105.216 9.67443 105.216 9.93343C105.216 10.1924 105.42 10.402 105.672 10.402Z" fill="black"/>
<path d="M108.848 2.88338C108.67 2.70033 108.381 2.70033 108.203 2.88338L103.505 7.70839C103.327 7.89143 103.327 8.18796 103.505 8.371C103.683 8.55404 103.972 8.55405 104.15 8.371L108.848 3.54599C109.027 3.36295 109.027 3.06642 108.848 2.88338Z" fill="black"/>
<path d="M29.4534 58.5748L28.7115 59.3367V58.4211C28.7115 57.1288 27.688 56.0781 26.4301 56.0781H16.1476C14.8897 56.0781 13.8662 57.1288 13.8662 58.4211V68.9808C13.8662 70.2731 14.8897 71.3238 16.1476 71.3238H26.4301C27.688 71.3238 28.7115 70.2731 28.7115 68.9808V60.662L30.0987 59.2374C30.2769 59.0544 30.2769 58.7579 30.0987 58.5748C29.9204 58.3918 29.6317 58.3918 29.4534 58.5748ZM27.799 68.9808C27.799 69.756 27.1849 70.3866 26.4301 70.3866H16.1476C15.3928 70.3866 14.7788 69.756 14.7788 68.9808V58.4211C14.7788 57.6459 15.3928 57.0153 16.1476 57.0153H26.4301C27.1849 57.0153 27.799 57.6459 27.799 58.4211V60.2739L22.1279 66.0979L19.4713 63.3696C19.2931 63.1866 19.0043 63.1866 18.8261 63.3696C18.6479 63.5527 18.6479 63.8492 18.8261 64.0323L21.8053 67.0918C21.8944 67.1833 22.0112 67.2291 22.1279 67.2291C22.2447 67.2291 22.3614 67.1833 22.4505 67.0918L27.799 61.5992V68.9808Z" fill="black"/>
<path d="M36.0686 68.1442H73.484C73.7362 68.1442 73.9403 67.9346 73.9403 67.6756C73.9403 67.4166 73.7362 67.207 73.484 67.207H36.0686C35.8164 67.207 35.6123 67.4166 35.6123 67.6756C35.6123 67.9346 35.8164 68.1442 36.0686 68.1442Z" fill="black"/>
<path d="M35.4983 82.3005H92.6481C92.9003 82.3005 93.1043 82.0909 93.1043 81.8319C93.1043 81.5729 92.9003 81.3633 92.6481 81.3633H35.4983C35.2461 81.3633 35.042 81.5729 35.042 81.8319C35.042 82.0909 35.2461 82.3005 35.4983 82.3005Z" fill="black"/>
<path d="M92.6481 85.3359H35.4983C35.2461 85.3359 35.042 85.5455 35.042 85.8045C35.042 86.0635 35.2461 86.2731 35.4983 86.2731H92.6481C92.9003 86.2731 93.1043 86.0635 93.1043 85.8045C93.1043 85.5455 92.9003 85.3359 92.6481 85.3359Z" fill="black"/>
<path d="M73.4841 89.3086H35.4983C35.2461 89.3086 35.042 89.5182 35.042 89.7772C35.042 90.0362 35.2461 90.2458 35.4983 90.2458H73.4841C73.7363 90.2458 73.9403 90.0362 73.9403 89.7772C73.9403 89.5182 73.7363 89.3086 73.4841 89.3086Z" fill="black"/>
<path d="M29.4534 36.4733L28.7115 37.2352V36.3195C28.7115 35.0272 27.688 33.9766 26.4301 33.9766H16.1476C14.8897 33.9766 13.8662 35.0272 13.8662 36.3195V46.8793C13.8662 48.1715 14.8897 49.2222 16.1476 49.2222H26.4301C27.688 49.2222 28.7115 48.1715 28.7115 46.8793V38.5604L30.0987 37.1359C30.2769 36.9528 30.2769 36.6563 30.0987 36.4733C29.9204 36.2902 29.6317 36.2902 29.4534 36.4733ZM27.799 46.8793C27.799 47.6544 27.1849 48.285 26.4301 48.285H16.1476C15.3928 48.285 14.7788 47.6544 14.7788 46.8793V36.3195C14.7788 35.5443 15.3928 34.9137 16.1476 34.9137H26.4301C27.1849 34.9137 27.799 35.5443 27.799 36.3195V38.1724L22.1279 43.9963L19.4713 41.2681C19.2931 41.085 19.0043 41.085 18.8261 41.2681C18.6479 41.4511 18.6479 41.7476 18.8261 41.9307L21.8053 44.9903C21.9835 45.1733 22.2723 45.1733 22.4505 44.9903L27.799 39.4976V46.8793Z" fill="black"/>
<path d="M36.0686 46.0387H73.484C73.7362 46.0387 73.9403 45.8292 73.9403 45.5702C73.9403 45.3111 73.7362 45.1016 73.484 45.1016H36.0686C35.8164 45.1016 35.6123 45.3111 35.6123 45.5702C35.6123 45.8292 35.8164 46.0387 36.0686 46.0387Z" fill="black"/>
<path d="M103.57 78.2616C103.57 78.5206 103.774 78.7301 104.027 78.7301H104.697C104.949 78.7301 105.153 78.5206 105.153 78.2616C105.153 78.0026 104.949 77.793 104.697 77.793H104.027C103.774 77.793 103.57 78.0026 103.57 78.2616Z" fill="black"/>
<path d="M101.976 27.5508C91.6316 27.5508 83.248 36.2382 83.248 46.784C83.248 57.3937 91.6342 66.0173 101.976 66.0173C112.266 66.0173 120.728 57.3869 120.712 46.7776C120.725 36.171 112.261 27.5508 101.976 27.5508ZM89.8877 60.2066H92.6433C92.8955 60.2066 93.0996 59.997 93.0996 59.738C93.0996 59.479 92.8955 59.2694 92.6433 59.2694H88.966C85.7394 55.695 84.1606 51.266 84.1606 46.784C84.1606 45.1527 84.3895 43.5787 84.7814 42.0725H92.6433C92.8955 42.0725 93.0996 41.8629 93.0996 41.6039C93.0996 41.3449 92.8955 41.1353 92.6433 41.1353H85.0393C85.3742 40.079 85.7929 39.0613 86.3007 38.0986H92.6433C92.8955 38.0986 93.0996 37.889 93.0996 37.63C93.0996 37.371 92.8955 37.1614 92.6433 37.1614H86.8522C89.9985 31.9655 95.5924 28.488 101.976 28.488C102.151 28.488 102.324 28.5072 102.499 28.5126V45.8054L99.255 48.6913L95.1244 45.1403C94.5295 44.6351 93.6602 44.6342 93.0511 45.1449C92.3747 45.7352 92.2846 46.7822 92.8501 47.4796L97.6536 53.3882C97.7111 53.4568 97.777 53.5255 97.8862 53.6362C98.2783 53.9813 98.7689 54.1671 99.2822 54.1671C99.3343 54.1671 99.3869 54.1652 99.44 54.1616C100.013 54.1185 100.532 53.8513 100.919 53.39L102.499 51.5177V65.0547C102.324 65.0599 102.152 65.0801 101.976 65.0801C97.4699 65.0801 93.1842 63.3476 89.8877 60.2066ZM100.209 52.797C99.9983 53.0496 99.702 53.2024 99.3744 53.2262C99.0407 53.2546 98.7283 53.1429 98.4908 52.9333C98.4405 52.8821 98.3906 52.8308 98.3509 52.7832L93.551 46.8792C93.3046 46.5753 93.3452 46.1177 93.6343 45.8651C93.7662 45.7553 93.9302 45.7004 94.0933 45.7004C94.2546 45.7004 94.4146 45.7544 94.5411 45.8615L99.2648 49.9214L110.826 39.6371C110.868 39.5978 110.913 39.595 110.95 39.5941C111 39.5978 111.047 39.6215 111.083 39.6646C111.145 39.735 111.144 39.8439 111.082 39.9153L100.209 52.797ZM119.799 46.7776C119.813 56.3668 112.567 64.2496 103.412 65.0103V50.4362L111.769 40.5331C112.133 40.1075 112.132 39.4669 111.77 39.0477C111.579 38.8198 111.301 38.678 111.008 38.6587C110.713 38.6514 110.433 38.7402 110.222 38.9342L103.412 44.9935V28.5555C112.634 29.3239 119.81 37.2743 119.799 46.7776Z" fill="black"/>
<path d="M103.412 23.2136V14.7987C103.412 11.946 101.152 9.625 98.3746 9.625H11.1055C8.32766 9.625 6.06806 11.946 6.06806 14.7987V91.3976H3.00106C1.94055 91.3976 1.07789 92.2835 1.07789 93.3726V97.9752C1.07789 98.3758 1.19625 98.748 1.3966 99.0598H0.456286C0.204081 99.0598 0 99.2694 0 99.5284C0 99.7874 0.204081 99.9969 0.456286 99.9969C11.7215 99.9969 94.9388 99.9969 108.596 99.9969C108.848 99.9969 109.052 99.7874 109.052 99.5284C109.052 99.2694 108.848 99.0598 108.596 99.0598H106.63C106.927 98.6706 107.117 98.1892 107.14 97.6531L107.146 74.932C107.146 73.5848 106.079 72.4883 104.767 72.4883H104.042V70.3177C115.773 69.2385 125 59.0982 125 46.7818C125 34.4157 115.649 23.9965 103.412 23.2136ZM101.97 23.1455C92.6161 23.1455 84.5539 28.9104 80.9601 37.1592H35.4985C35.2463 37.1592 35.0422 37.3688 35.0422 37.6278C35.0422 37.8868 35.2463 38.0964 35.4985 38.0964H80.5756C80.1965 39.0787 79.8782 40.0918 79.6288 41.1331H35.4985C35.2463 41.1331 35.0422 41.3427 35.0422 41.6017C35.0422 41.8607 35.2463 42.0703 35.4985 42.0703H79.4203C79.1199 43.5911 78.961 45.164 78.961 46.7745C78.961 51.2354 80.18 55.5485 82.437 59.2672H35.4985C35.2463 59.2672 35.0422 59.4767 35.0422 59.7357C35.0422 59.9948 35.2463 60.2043 35.4985 60.2043H83.0573C83.6211 61.0407 84.2198 61.8553 84.8919 62.6178C85.0771 62.8281 85.2702 63.0292 85.462 63.2319H35.4985C35.2463 63.2319 35.0422 63.4414 35.0422 63.7005C35.0422 63.9595 35.2463 64.169 35.4985 64.169H86.3989C90.129 67.6874 94.8934 69.8522 99.9261 70.3169V72.4883H99.1726C99.116 72.4883 99.0608 72.4902 99.0612 72.4957C97.7895 72.5433 96.7932 73.6131 96.7932 74.932V97.5533C96.7932 98.1243 96.9928 98.6433 97.3137 99.0598H51.1025L58.4072 96.1109C58.7341 95.9786 58.8041 95.451 58.4235 95.2512C56.0606 94.2945 51.8315 92.5822 48.971 91.4269C48.9179 91.4049 48.8609 91.3939 48.8039 91.3939H28.6772C28.69 91.2916 28.709 91.1916 28.709 91.0846V82.7671L30.0984 81.3403C30.2766 81.1573 30.2766 80.8607 30.0984 80.6777C29.9201 80.4946 29.6314 80.4946 29.4532 80.6777L28.709 81.4419V80.523C28.709 79.2307 27.6855 78.1801 26.4276 78.1801H16.1518C14.8939 78.1801 13.8704 79.2307 13.8704 80.523V91.0846C13.8704 91.1916 13.8894 91.2916 13.9022 91.3939C13.8103 91.3939 6.5259 91.393 6.98064 91.393V20.2177H102.499V23.1705C102.322 23.1663 102.147 23.1455 101.97 23.1455ZM9.29147 95.6662V92.3302H10.6648V99.0177H7.00514V92.3302H8.3789V95.6662H9.29147ZM14.7829 91.0846V80.523C14.7829 79.7478 15.397 79.1172 16.1518 79.1172H26.4276C27.1824 79.1172 27.7964 79.7478 27.7964 80.523V82.3791L22.1276 88.2008L19.471 85.4725C19.2928 85.2895 19.004 85.2895 18.8258 85.4725C18.6476 85.6555 18.6476 85.9521 18.8258 86.1351L21.805 89.1947C21.9833 89.3777 22.272 89.3777 22.4502 89.1947L27.7964 83.7043V91.0846C27.7964 91.193 27.7853 91.2961 27.7645 91.3939H14.8149C14.7941 91.2961 14.7829 91.193 14.7829 91.0846ZM48.3502 92.3311V95.1893H11.58V92.3311H48.3502ZM48.3502 96.1455V99.0131H11.58V96.1267L48.3502 96.1455ZM56.9782 95.6696L49.2628 98.7922V92.5535C49.3586 92.5922 57.4866 95.875 56.9782 95.6696ZM11.1055 10.5622H98.3746C100.649 10.5622 102.499 12.4631 102.499 14.7987V19.2805H6.98064V14.7987C6.98064 12.4631 8.83118 10.5622 11.1055 10.5622ZM1.99046 93.3726C1.99046 92.8006 2.44362 92.3348 3.00106 92.3348H6.09124V99.014H3.00106C2.44362 99.014 1.99046 98.5482 1.99046 97.9752V93.3726ZM106.233 74.932L106.227 97.6311C106.193 98.4319 105.552 99.0598 104.767 99.0598H99.1726C98.3639 99.0598 97.7057 98.3843 97.7057 97.5533V78.731H102.202C102.454 78.731 102.658 78.5214 102.658 78.2624C102.658 78.0034 102.454 77.7938 102.202 77.7938H97.7057V74.932C97.7057 74.1339 98.3287 73.4612 99.1726 73.4255C99.329 73.4255 105.013 73.4255 104.767 73.4255C105.576 73.4255 106.233 74.101 106.233 74.932ZM103.129 72.4883H100.839V70.3872C101.592 70.4256 102.287 70.4309 103.129 70.3879V72.4883ZM101.97 69.4809C89.9864 69.4809 79.8736 59.5257 79.8736 46.7745C79.8736 34.2626 89.7858 24.0826 101.97 24.0826C114.181 24.0826 124.087 34.2799 124.087 46.7818C124.087 59.2983 114.165 69.4809 101.97 69.4809Z" fill="black"/>
</svg>
