<svg width="648" height="368" viewBox="0 0 648 368" fill="none" xmlns="http://www.w3.org/2000/svg">
<path d="M40.6349 278.848C40.6116 283.905 41.9739 288.872 44.5741 293.209C45.7389 294.998 47.0054 296.718 48.3673 298.361C48.7591 298.782 49.0362 299.297 49.1719 299.856C49.3076 300.415 49.2975 300.999 49.1423 301.553C49.0146 301.979 48.7914 302.371 48.4897 302.699C48.188 303.027 47.8158 303.281 47.4011 303.444C46.9864 303.607 46.5402 303.673 46.0962 303.637C45.6523 303.602 45.2222 303.466 44.8385 303.24C44.3035 302.884 43.8215 302.454 43.4069 301.963C38.5043 296.556 35.4733 289.714 34.7627 282.45C33.7415 272.256 36.8508 263.383 43.5163 255.697C43.8073 255.281 44.181 254.929 44.614 254.664C45.0471 254.399 45.5301 254.226 46.033 254.156C46.6096 254.09 47.1927 254.195 47.7109 254.456C48.2291 254.717 48.6598 255.124 48.9502 255.626C49.2406 256.129 49.3781 256.705 49.3458 257.284C49.3135 257.864 49.1129 258.421 48.7685 258.888C48.349 259.49 47.8567 260.019 47.3551 260.584C43.2163 265.5 40.8694 271.676 40.6988 278.1C40.6623 278.292 40.6441 278.502 40.6349 278.848Z" fill="#263238"/>
<path d="M56.9035 263.821C56.9007 264.26 56.8106 264.694 56.6384 265.098C56.4662 265.502 56.2153 265.867 55.9005 266.173C52.7611 269.408 50.9306 273.69 50.7622 278.194C50.5939 282.698 52.0995 287.105 54.9887 290.565C55.4172 291.076 55.9005 291.568 56.2652 292.106C56.717 292.711 56.923 293.465 56.8418 294.216C56.7606 294.967 56.3983 295.66 55.8275 296.155C55.2711 296.649 54.548 296.915 53.8036 296.898C53.0592 296.881 52.3488 296.583 51.8155 296.063C49.3011 293.647 47.3842 290.678 46.2168 287.392C45.0557 284.355 44.5255 281.114 44.6588 277.865C44.792 274.617 45.5859 271.43 46.9919 268.499C48.1474 265.986 49.7441 263.701 51.7061 261.751C52.1333 261.309 52.6872 261.01 53.2915 260.896C53.8957 260.781 54.5205 260.857 55.0798 261.113C55.6243 261.324 56.0911 261.696 56.4172 262.18C56.7433 262.665 56.913 263.237 56.9035 263.821Z" fill="#263238"/>
<path d="M54.8146 278.966C54.8061 276.998 55.207 275.049 55.9918 273.244C56.7767 271.439 57.9284 269.817 59.3737 268.48C59.9164 267.94 60.6441 267.627 61.4093 267.603C62.1745 267.579 62.9202 267.847 63.4952 268.353C64.0742 268.889 64.4246 269.628 64.4738 270.415C64.5231 271.203 64.2673 271.979 63.7597 272.584C62.8756 273.583 62.1247 274.692 61.5257 275.884C60.2309 279.058 60.9512 281.957 63.2217 284.492C63.6682 284.873 64.0129 285.36 64.2246 285.907C64.4363 286.455 64.5084 287.046 64.4344 287.629C64.3491 288.132 64.1343 288.605 63.8112 289C63.4881 289.396 63.0678 289.7 62.5915 289.884C62.1151 290.068 61.5992 290.125 61.0942 290.049C60.5892 289.974 60.1126 289.768 59.7111 289.453C58.0482 288.095 56.761 286.334 55.9726 284.337C55.2465 282.637 54.8534 280.814 54.8146 278.966Z" fill="#263238"/>
<path d="M72.6035 278.831C72.6109 279.312 72.5216 279.789 72.3409 280.235C72.1602 280.681 71.8918 281.086 71.5516 281.426C71.2115 281.766 70.8065 282.035 70.3606 282.215C69.9148 282.396 69.4372 282.485 68.9562 282.478C67.9967 282.478 67.0758 282.1 66.3931 281.426C65.7104 280.752 65.3208 279.836 65.3088 278.876C65.2979 277.909 65.6718 276.977 66.3481 276.285C67.0244 275.593 67.9478 275.199 68.9151 275.188C69.8824 275.177 70.8145 275.551 71.5062 276.227C72.1979 276.903 72.5926 277.827 72.6035 278.794V278.831Z" fill="#263238"/>
<path d="M598.012 278.943C598.034 273.883 596.672 268.913 594.073 264.572C592.912 262.781 591.646 261.06 590.279 259.42C589.887 258.998 589.609 258.482 589.474 257.921C589.338 257.361 589.348 256.775 589.504 256.22C589.635 255.795 589.86 255.406 590.163 255.081C590.467 254.757 590.84 254.505 591.254 254.346C591.669 254.187 592.115 254.125 592.557 254.163C592.999 254.202 593.427 254.341 593.808 254.569C594.345 254.923 594.828 255.353 595.24 255.846C600.142 261.253 603.173 268.095 603.884 275.359C604.905 285.554 601.796 294.426 595.13 302.112C594.84 302.529 594.467 302.88 594.034 303.144C593.6 303.408 593.117 303.578 592.614 303.644C592.037 303.712 591.454 303.61 590.935 303.35C590.416 303.09 589.984 302.684 589.693 302.182C589.402 301.68 589.265 301.103 589.298 300.524C589.331 299.944 589.532 299.387 589.878 298.921C590.298 298.31 590.79 297.79 591.292 297.225C595.425 292.306 597.772 286.132 597.948 279.709C597.984 279.535 598.003 279.298 598.012 278.943Z" fill="#263238"/>
<path d="M581.745 293.98C581.746 293.541 581.835 293.106 582.008 292.702C582.18 292.298 582.432 291.932 582.748 291.628C585.88 288.386 587.7 284.101 587.859 279.596C588.017 275.092 586.502 270.689 583.606 267.236C583.186 266.725 582.694 266.233 582.338 265.695C581.886 265.09 581.68 264.336 581.761 263.585C581.843 262.834 582.205 262.141 582.776 261.647C583.332 261.152 584.055 260.886 584.8 260.903C585.544 260.92 586.254 261.218 586.788 261.738C589.302 264.151 591.219 267.117 592.386 270.4C593.548 273.438 594.078 276.681 593.945 279.931C593.812 283.181 593.018 286.37 591.611 289.302C590.455 291.812 588.858 294.094 586.897 296.041C586.471 296.485 585.918 296.785 585.313 296.901C584.709 297.017 584.084 296.943 583.523 296.688C582.988 296.469 582.532 296.093 582.214 295.61C581.897 295.126 581.734 294.558 581.745 293.98Z" fill="#263238"/>
<path d="M583.805 278.832C583.811 280.8 583.409 282.747 582.624 284.552C581.839 286.357 580.689 287.98 579.246 289.318C578.703 289.858 577.974 290.172 577.209 290.194C576.443 290.216 575.697 289.945 575.124 289.436C574.546 288.901 574.196 288.164 574.147 287.378C574.097 286.592 574.353 285.817 574.86 285.214C575.751 284.203 576.508 283.082 577.112 281.877C578.398 278.704 577.687 275.795 575.416 273.269C574.97 272.888 574.626 272.401 574.414 271.854C574.203 271.306 574.13 270.715 574.203 270.133C574.289 269.629 574.504 269.157 574.827 268.761C575.15 268.366 575.57 268.061 576.046 267.877C576.523 267.693 577.039 267.637 577.544 267.712C578.049 267.788 578.525 267.994 578.927 268.309C580.592 269.664 581.879 271.426 582.665 273.424C583.39 275.136 583.778 276.972 583.805 278.832Z" fill="#263238"/>
<path d="M566.044 278.968C566.035 278.487 566.123 278.009 566.304 277.562C566.484 277.116 566.752 276.71 567.093 276.37C567.433 276.029 567.838 275.761 568.285 275.581C568.731 275.401 569.21 275.312 569.691 275.321C570.649 275.321 571.568 275.698 572.251 276.37C572.933 277.042 573.324 277.956 573.338 278.914C573.344 279.392 573.256 279.868 573.078 280.313C572.9 280.758 572.637 281.163 572.302 281.506C571.968 281.849 571.569 282.123 571.129 282.311C570.689 282.5 570.215 282.6 569.736 282.606C569.257 282.612 568.782 282.524 568.337 282.346C567.892 282.168 567.487 281.905 567.144 281.57C566.801 281.236 566.527 280.837 566.339 280.397C566.15 279.957 566.05 279.484 566.044 279.005V278.968Z" fill="#263238"/>
<path d="M342.669 109.504C337.607 109.483 332.635 110.845 328.29 113.443C326.503 114.606 324.786 115.873 323.147 117.236C322.725 117.629 322.208 117.907 321.648 118.042C321.088 118.178 320.502 118.167 319.946 118.011C319.522 117.881 319.132 117.656 318.808 117.353C318.483 117.049 318.232 116.676 318.073 116.262C317.914 115.847 317.851 115.401 317.89 114.959C317.929 114.516 318.067 114.089 318.296 113.708C318.652 113.172 319.081 112.69 319.573 112.276C324.982 107.382 331.818 104.353 339.077 103.632C349.28 102.611 358.143 105.72 365.839 112.385C366.252 112.679 366.601 113.053 366.865 113.486C367.128 113.918 367.3 114.4 367.371 114.902C367.44 115.48 367.339 116.066 367.079 116.586C366.819 117.107 366.411 117.54 365.907 117.831C365.403 118.123 364.825 118.26 364.244 118.225C363.663 118.191 363.104 117.986 362.638 117.638C362.037 117.227 361.508 116.726 360.942 116.233C356.033 112.09 349.858 109.742 343.435 109.577L342.669 109.504Z" fill="#263238"/>
<path d="M357.67 125.769C357.232 125.768 356.799 125.678 356.396 125.506C355.994 125.334 355.63 125.082 355.326 124.766C352.085 121.635 347.799 119.814 343.295 119.656C338.791 119.498 334.388 121.013 330.935 123.909C330.424 124.328 329.932 124.821 329.394 125.176C328.787 125.629 328.032 125.835 327.279 125.754C326.527 125.673 325.833 125.31 325.336 124.739C324.845 124.18 324.582 123.457 324.601 122.713C324.619 121.969 324.918 121.26 325.436 120.727C327.849 118.212 330.815 116.296 334.099 115.128C337.136 113.966 340.378 113.436 343.626 113.571C346.875 113.706 350.062 114.503 352.992 115.912C355.507 117.06 357.793 118.654 359.74 120.617C360.182 121.045 360.481 121.599 360.595 122.203C360.709 122.807 360.634 123.432 360.378 123.991C360.161 124.528 359.786 124.986 359.302 125.303C358.818 125.621 358.248 125.784 357.67 125.769Z" fill="#263238"/>
<path d="M342.559 123.692C344.526 123.683 346.473 124.083 348.277 124.868C350.081 125.653 351.701 126.805 353.036 128.251C353.58 128.791 353.896 129.52 353.92 130.286C353.943 131.053 353.673 131.799 353.163 132.372C352.628 132.951 351.891 133.301 351.105 133.35C350.319 133.399 349.544 133.144 348.941 132.637C347.929 131.748 346.807 130.991 345.604 130.384C342.431 129.099 339.522 129.819 336.996 132.08C336.613 132.525 336.127 132.868 335.58 133.081C335.033 133.294 334.443 133.37 333.86 133.302C333.355 133.218 332.88 133.003 332.484 132.679C332.087 132.356 331.782 131.934 331.597 131.456C331.413 130.979 331.357 130.461 331.434 129.955C331.511 129.449 331.718 128.971 332.036 128.57C333.39 126.903 335.152 125.615 337.151 124.831C338.862 124.101 340.699 123.713 342.559 123.692Z" fill="#263238"/>
<path d="M342.691 141.475C342.209 141.485 341.731 141.397 341.284 141.217C340.837 141.037 340.431 140.769 340.09 140.428C339.749 140.088 339.481 139.682 339.301 139.235C339.121 138.788 339.034 138.309 339.044 137.827C339.044 136.869 339.42 135.95 340.093 135.267C340.765 134.585 341.679 134.194 342.636 134.18C343.115 134.175 343.591 134.264 344.035 134.442C344.48 134.62 344.885 134.884 345.227 135.219C345.57 135.554 345.843 135.953 346.031 136.394C346.22 136.834 346.319 137.307 346.325 137.786C346.33 138.265 346.241 138.741 346.063 139.185C345.884 139.63 345.62 140.035 345.285 140.377C344.951 140.72 344.552 140.993 344.111 141.181C343.671 141.37 343.197 141.469 342.718 141.475H342.691Z" fill="#263238"/>
<g opacity="0.2">
<path d="M9.34375 307.047H38.1941V46.154H114.077V170.327H130.38V324.609H149.201V94.3169H184.315V1H240.758V172.835H262.085V104.484H309.747V119.529H350.506V322.722H366.809V285.72H411.343V322.093H432.662V138.969H504.779V310.804H525.477V71.2385H550.562V27.3428H563.109V2.25833H583.178V164.683H615.785V319.585H640.87" stroke="black" stroke-miterlimit="10"/>
<path d="M114.076 38H38.1934V46.1518H114.076V38Z" stroke="black" stroke-miterlimit="10"/>
<path d="M184.316 94.3164H148.982V98.447H184.316V94.3164Z" stroke="black" stroke-miterlimit="10"/>
<path d="M240.757 1H184.15V5.01206H240.757V1Z" stroke="black" stroke-miterlimit="10"/>
<path d="M274.813 95.9609H266.57V104.477H274.813V95.9609Z" stroke="black" stroke-miterlimit="10"/>
<path d="M296.241 99.5312H292.119V104.473H296.241V99.5312Z" stroke="black" stroke-miterlimit="10"/>
<path d="M350.642 119.527H309.746V124.524H350.642V119.527Z" stroke="black" stroke-miterlimit="10"/>
<path d="M504.77 135.25H432.662V138.979H504.77V135.25Z" stroke="black" stroke-miterlimit="10"/>
<path d="M479.776 127.824H451.199V135.247H479.776V127.824Z" stroke="black" stroke-miterlimit="10"/>
<path d="M473.723 128.1V121.234H494.604V134.976" stroke="black" stroke-miterlimit="10"/>
<path d="M336.109 117.479V61.9664H402.199V107.968H424.931V29.7148H497.896V124.354H520.637" stroke="black" stroke-miterlimit="10"/>
<path d="M288.518 89.9861V28.6562H243.574" stroke="black" stroke-miterlimit="10"/>
<path d="M146.822 105.325H132.014V62.4961H117.734" stroke="black" stroke-miterlimit="10"/>
<path d="M35.7888 93.6875H23.625V260.234" stroke="black" stroke-miterlimit="10"/>
<path d="M542.84 63.0226V42.9258H549.186" stroke="black" stroke-miterlimit="10"/>
<path d="M585.67 43.4531H608.402V127.524H647V224.808" stroke="black" stroke-miterlimit="10"/>
<path d="M194.263 12.7891H188.592V23.8952H194.263V12.7891Z" stroke="black" stroke-miterlimit="10"/>
<path d="M204.476 12.7891H198.805V23.8952H204.476V12.7891Z" stroke="black" stroke-miterlimit="10"/>
<path d="M214.687 12.7891H209.016V23.8952H214.687V12.7891Z" stroke="black" stroke-miterlimit="10"/>
<path d="M224.902 12.7891H219.23V23.8952H224.902V12.7891Z" stroke="black" stroke-miterlimit="10"/>
<path d="M235.115 12.7891H229.443V23.8952H235.115V12.7891Z" stroke="black" stroke-miterlimit="10"/>
<path d="M194.263 31.5664H188.592V42.6725H194.263V31.5664Z" stroke="black" stroke-miterlimit="10"/>
<path d="M204.476 31.5664H198.805V42.6725H204.476V31.5664Z" stroke="black" stroke-miterlimit="10"/>
<path d="M214.687 31.5664H209.016V42.6725H214.687V31.5664Z" stroke="black" stroke-miterlimit="10"/>
<path d="M224.902 31.5664H219.23V42.6725H224.902V31.5664Z" stroke="black" stroke-miterlimit="10"/>
<path d="M235.115 31.5664H229.443V42.6725H235.115V31.5664Z" stroke="black" stroke-miterlimit="10"/>
<path d="M194.263 50.332H188.592V61.4382H194.263V50.332Z" stroke="black" stroke-miterlimit="10"/>
<path d="M204.476 50.332H198.805V61.4382H204.476V50.332Z" stroke="black" stroke-miterlimit="10"/>
<path d="M214.687 50.332H209.016V61.4382H214.687V50.332Z" stroke="black" stroke-miterlimit="10"/>
<path d="M224.902 50.332H219.23V61.4382H224.902V50.332Z" stroke="black" stroke-miterlimit="10"/>
<path d="M235.115 50.332H229.443V61.4382H235.115V50.332Z" stroke="black" stroke-miterlimit="10"/>
<path d="M194.263 69.1055H188.592V80.2116H194.263V69.1055Z" stroke="black" stroke-miterlimit="10"/>
<path d="M204.476 69.1055H198.805V80.2116H204.476V69.1055Z" stroke="black" stroke-miterlimit="10"/>
<path d="M214.687 69.1055H209.016V80.2116H214.687V69.1055Z" stroke="black" stroke-miterlimit="10"/>
<path d="M224.902 69.1055H219.23V80.2116H224.902V69.1055Z" stroke="black" stroke-miterlimit="10"/>
<path d="M235.115 69.1055H229.443V80.2116H235.115V69.1055Z" stroke="black" stroke-miterlimit="10"/>
<path d="M194.263 87.8711H188.592V98.9772H194.263V87.8711Z" stroke="black" stroke-miterlimit="10"/>
<path d="M204.476 87.8711H198.805V98.9772H204.476V87.8711Z" stroke="black" stroke-miterlimit="10"/>
<path d="M214.687 87.8711H209.016V98.9772H214.687V87.8711Z" stroke="black" stroke-miterlimit="10"/>
<path d="M224.902 87.8711H219.23V98.9772H224.902V87.8711Z" stroke="black" stroke-miterlimit="10"/>
<path d="M235.115 87.8711H229.443V98.9772H235.115V87.8711Z" stroke="black" stroke-miterlimit="10"/>
<path d="M194.263 106.645H188.592V117.751H194.263V106.645Z" stroke="black" stroke-miterlimit="10"/>
<path d="M204.476 106.645H198.805V117.751H204.476V106.645Z" stroke="black" stroke-miterlimit="10"/>
<path d="M214.687 106.645H209.016V117.751H214.687V106.645Z" stroke="black" stroke-miterlimit="10"/>
<path d="M224.902 106.645H219.23V117.751H224.902V106.645Z" stroke="black" stroke-miterlimit="10"/>
<path d="M235.115 106.645H229.443V117.751H235.115V106.645Z" stroke="black" stroke-miterlimit="10"/>
<path d="M159.441 106.645H153.77V117.751H159.441V106.645Z" stroke="black" stroke-miterlimit="10"/>
<path d="M169.654 106.645H163.982V117.751H169.654V106.645Z" stroke="black" stroke-miterlimit="10"/>
<path d="M179.865 106.645H174.193V117.751H179.865V106.645Z" stroke="black" stroke-miterlimit="10"/>
<path d="M159.441 124.883H153.77V135.989H159.441V124.883Z" stroke="black" stroke-miterlimit="10"/>
<path d="M169.654 124.883H163.982V135.989H169.654V124.883Z" stroke="black" stroke-miterlimit="10"/>
<path d="M179.865 124.883H174.193V135.989H179.865V124.883Z" stroke="black" stroke-miterlimit="10"/>
<path d="M159.441 143.125H153.77V154.231H159.441V143.125Z" stroke="black" stroke-miterlimit="10"/>
<path d="M169.654 143.125H163.982V154.231H169.654V143.125Z" stroke="black" stroke-miterlimit="10"/>
<path d="M179.865 143.125H174.193V154.231H179.865V143.125Z" stroke="black" stroke-miterlimit="10"/>
<path d="M159.441 161.363H153.77V172.469H159.441V161.363Z" stroke="black" stroke-miterlimit="10"/>
<path d="M169.654 161.363H163.982V172.469H169.654V161.363Z" stroke="black" stroke-miterlimit="10"/>
<path d="M179.865 161.363H174.193V172.469H179.865V161.363Z" stroke="black" stroke-miterlimit="10"/>
<path d="M159.441 179.609H153.77V190.715H159.441V179.609Z" stroke="black" stroke-miterlimit="10"/>
<path d="M169.654 179.609H163.982V190.715H169.654V179.609Z" stroke="black" stroke-miterlimit="10"/>
<path d="M179.865 179.609H174.193V190.715H179.865V179.609Z" stroke="black" stroke-miterlimit="10"/>
<path d="M159.441 197.844H153.77V208.95H159.441V197.844Z" stroke="black" stroke-miterlimit="10"/>
<path d="M169.654 197.844H163.982V208.95H169.654V197.844Z" stroke="black" stroke-miterlimit="10"/>
<path d="M179.865 197.844H174.193V208.95H179.865V197.844Z" stroke="black" stroke-miterlimit="10"/>
<path d="M159.441 216.094H153.77V227.2H159.441V216.094Z" stroke="black" stroke-miterlimit="10"/>
<path d="M169.654 216.094H163.982V227.2H169.654V216.094Z" stroke="black" stroke-miterlimit="10"/>
<path d="M179.865 216.094H174.193V227.2H179.865V216.094Z" stroke="black" stroke-miterlimit="10"/>
<path d="M159.441 234.328H153.77V245.434H159.441V234.328Z" stroke="black" stroke-miterlimit="10"/>
<path d="M169.654 234.328H163.982V245.434H169.654V234.328Z" stroke="black" stroke-miterlimit="10"/>
<path d="M179.865 234.328H174.193V245.434H179.865V234.328Z" stroke="black" stroke-miterlimit="10"/>
<path d="M159.441 252.574H153.77V263.68H159.441V252.574Z" stroke="black" stroke-miterlimit="10"/>
<path d="M169.654 252.574H163.982V263.68H169.654V252.574Z" stroke="black" stroke-miterlimit="10"/>
<path d="M179.865 252.574H174.193V263.68H179.865V252.574Z" stroke="black" stroke-miterlimit="10"/>
<path d="M159.441 270.812H153.77V281.919H159.441V270.812Z" stroke="black" stroke-miterlimit="10"/>
<path d="M169.654 270.812H163.982V281.919H169.654V270.812Z" stroke="black" stroke-miterlimit="10"/>
<path d="M179.865 270.812H174.193V281.919H179.865V270.812Z" stroke="black" stroke-miterlimit="10"/>
<path d="M159.441 289.055H153.77V300.161H159.441V289.055Z" stroke="black" stroke-miterlimit="10"/>
<path d="M169.654 289.055H163.982V300.161H169.654V289.055Z" stroke="black" stroke-miterlimit="10"/>
<path d="M179.865 289.055H174.193V300.161H179.865V289.055Z" stroke="black" stroke-miterlimit="10"/>
<path d="M250.504 181.727H244.832V192.833H250.504V181.727Z" stroke="black" stroke-miterlimit="10"/>
<path d="M260.718 181.727H255.047V192.833H260.718V181.727Z" stroke="black" stroke-miterlimit="10"/>
<path d="M250.504 199.965H244.832V211.071H250.504V199.965Z" stroke="black" stroke-miterlimit="10"/>
<path d="M260.718 199.965H255.047V211.071H260.718V199.965Z" stroke="black" stroke-miterlimit="10"/>
<path d="M250.504 218.207H244.832V229.313H250.504V218.207Z" stroke="black" stroke-miterlimit="10"/>
<path d="M260.718 218.207H255.047V229.313H260.718V218.207Z" stroke="black" stroke-miterlimit="10"/>
<path d="M250.504 236.445H244.832V247.551H250.504V236.445Z" stroke="black" stroke-miterlimit="10"/>
<path d="M260.718 236.445H255.047V247.551H260.718V236.445Z" stroke="black" stroke-miterlimit="10"/>
<path d="M250.504 254.688H244.832V265.794H250.504V254.688Z" stroke="black" stroke-miterlimit="10"/>
<path d="M260.718 254.688H255.047V265.794H260.718V254.688Z" stroke="black" stroke-miterlimit="10"/>
<path d="M250.504 272.926H244.832V284.032H250.504V272.926Z" stroke="black" stroke-miterlimit="10"/>
<path d="M260.718 272.926H255.047V284.032H260.718V272.926Z" stroke="black" stroke-miterlimit="10"/>
<path d="M250.504 291.172H244.832V302.278H250.504V291.172Z" stroke="black" stroke-miterlimit="10"/>
<path d="M260.718 291.172H255.047V302.278H260.718V291.172Z" stroke="black" stroke-miterlimit="10"/>
<path d="M194.263 125.41H188.592V136.516H194.263V125.41Z" stroke="black" stroke-miterlimit="10"/>
<path d="M204.476 125.41H198.805V136.516H204.476V125.41Z" stroke="black" stroke-miterlimit="10"/>
<path d="M214.687 125.41H209.016V136.516H214.687V125.41Z" stroke="black" stroke-miterlimit="10"/>
<path d="M224.902 125.41H219.23V136.516H224.902V125.41Z" stroke="black" stroke-miterlimit="10"/>
<path d="M235.115 125.41H229.443V136.516H235.115V125.41Z" stroke="black" stroke-miterlimit="10"/>
<path d="M194.263 144.188H188.592V155.294H194.263V144.188Z" stroke="black" stroke-miterlimit="10"/>
<path d="M204.476 144.188H198.805V155.294H204.476V144.188Z" stroke="black" stroke-miterlimit="10"/>
<path d="M214.687 144.188H209.016V155.294H214.687V144.188Z" stroke="black" stroke-miterlimit="10"/>
<path d="M224.902 144.188H219.23V155.294H224.902V144.188Z" stroke="black" stroke-miterlimit="10"/>
<path d="M235.115 144.188H229.443V155.294H235.115V144.188Z" stroke="black" stroke-miterlimit="10"/>
<path d="M194.263 162.949H188.592V174.055H194.263V162.949Z" stroke="black" stroke-miterlimit="10"/>
<path d="M204.476 162.949H198.805V174.055H204.476V162.949Z" stroke="black" stroke-miterlimit="10"/>
<path d="M214.687 162.949H209.016V174.055H214.687V162.949Z" stroke="black" stroke-miterlimit="10"/>
<path d="M224.902 162.949H219.23V174.055H224.902V162.949Z" stroke="black" stroke-miterlimit="10"/>
<path d="M235.115 162.949H229.443V174.055H235.115V162.949Z" stroke="black" stroke-miterlimit="10"/>
<path d="M194.263 181.727H188.592V192.833H194.263V181.727Z" stroke="black" stroke-miterlimit="10"/>
<path d="M204.476 181.727H198.805V192.833H204.476V181.727Z" stroke="black" stroke-miterlimit="10"/>
<path d="M214.687 181.727H209.016V192.833H214.687V181.727Z" stroke="black" stroke-miterlimit="10"/>
<path d="M224.902 181.727H219.23V192.833H224.902V181.727Z" stroke="black" stroke-miterlimit="10"/>
<path d="M235.115 181.727H229.443V192.833H235.115V181.727Z" stroke="black" stroke-miterlimit="10"/>
<path d="M194.263 200.492H188.592V211.598H194.263V200.492Z" stroke="black" stroke-miterlimit="10"/>
<path d="M204.476 200.492H198.805V211.598H204.476V200.492Z" stroke="black" stroke-miterlimit="10"/>
<path d="M214.687 200.492H209.016V211.598H214.687V200.492Z" stroke="black" stroke-miterlimit="10"/>
<path d="M224.902 200.492H219.23V211.598H224.902V200.492Z" stroke="black" stroke-miterlimit="10"/>
<path d="M235.115 200.492H229.443V211.598H235.115V200.492Z" stroke="black" stroke-miterlimit="10"/>
<path d="M194.263 219.266H188.592V230.372H194.263V219.266Z" stroke="black" stroke-miterlimit="10"/>
<path d="M204.476 219.266H198.805V230.372H204.476V219.266Z" stroke="black" stroke-miterlimit="10"/>
<path d="M214.687 219.266H209.016V230.372H214.687V219.266Z" stroke="black" stroke-miterlimit="10"/>
<path d="M224.902 219.266H219.23V230.372H224.902V219.266Z" stroke="black" stroke-miterlimit="10"/>
<path d="M235.115 219.266H229.443V230.372H235.115V219.266Z" stroke="black" stroke-miterlimit="10"/>
<path d="M194.263 238.031H188.592V249.137H194.263V238.031Z" stroke="black" stroke-miterlimit="10"/>
<path d="M204.476 238.031H198.805V249.137H204.476V238.031Z" stroke="black" stroke-miterlimit="10"/>
<path d="M214.687 238.031H209.016V249.137H214.687V238.031Z" stroke="black" stroke-miterlimit="10"/>
<path d="M224.902 238.031H219.23V249.137H224.902V238.031Z" stroke="black" stroke-miterlimit="10"/>
<path d="M235.115 238.031H229.443V249.137H235.115V238.031Z" stroke="black" stroke-miterlimit="10"/>
<path d="M194.263 256.805H188.592V267.911H194.263V256.805Z" stroke="black" stroke-miterlimit="10"/>
<path d="M204.476 256.805H198.805V267.911H204.476V256.805Z" stroke="black" stroke-miterlimit="10"/>
<path d="M214.687 256.805H209.016V267.911H214.687V256.805Z" stroke="black" stroke-miterlimit="10"/>
<path d="M224.902 256.805H219.23V267.911H224.902V256.805Z" stroke="black" stroke-miterlimit="10"/>
<path d="M235.115 256.805H229.443V267.911H235.115V256.805Z" stroke="black" stroke-miterlimit="10"/>
<path d="M194.263 275.57H188.592V286.676H194.263V275.57Z" stroke="black" stroke-miterlimit="10"/>
<path d="M204.476 275.57H198.805V286.676H204.476V275.57Z" stroke="black" stroke-miterlimit="10"/>
<path d="M214.687 275.57H209.016V286.676H214.687V275.57Z" stroke="black" stroke-miterlimit="10"/>
<path d="M224.902 275.57H219.23V286.676H224.902V275.57Z" stroke="black" stroke-miterlimit="10"/>
<path d="M235.115 275.57H229.443V286.676H235.115V275.57Z" stroke="black" stroke-miterlimit="10"/>
<path d="M194.263 294.863H188.592V305.969H194.263V294.863Z" stroke="black" stroke-miterlimit="10"/>
<path d="M204.476 294.863H198.805V305.969H204.476V294.863Z" stroke="black" stroke-miterlimit="10"/>
<path d="M214.687 294.863H209.016V305.969H214.687V294.863Z" stroke="black" stroke-miterlimit="10"/>
<path d="M224.902 294.863H219.23V305.969H224.902V294.863Z" stroke="black" stroke-miterlimit="10"/>
<path d="M235.115 294.863H229.443V305.969H235.115V294.863Z" stroke="black" stroke-miterlimit="10"/>
<path d="M184.314 98.4492V324.748" stroke="black" stroke-miterlimit="10"/>
<path d="M271.068 109.016V321.573" stroke="black" stroke-miterlimit="10"/>
<path d="M282.174 109.016V321.573" stroke="black" stroke-miterlimit="10"/>
<path d="M293.279 109.016V321.573" stroke="black" stroke-miterlimit="10"/>
<path d="M304.375 109.016V321.573" stroke="black" stroke-miterlimit="10"/>
<path d="M315.482 130.168V321.571" stroke="black" stroke-miterlimit="10"/>
<path d="M326.59 130.168V321.571" stroke="black" stroke-miterlimit="10"/>
<path d="M337.695 130.168V321.571" stroke="black" stroke-miterlimit="10"/>
<path d="M41.0742 58.2656H110.337" stroke="black" stroke-miterlimit="10"/>
<path d="M41.0742 72.0039H110.337" stroke="black" stroke-miterlimit="10"/>
<path d="M41.0742 85.7539H110.337" stroke="black" stroke-miterlimit="10"/>
<path d="M41.0742 99.5039H110.337" stroke="black" stroke-miterlimit="10"/>
<path d="M41.0742 113.246H110.337" stroke="black" stroke-miterlimit="10"/>
<path d="M41.0742 126.996H110.337" stroke="black" stroke-miterlimit="10"/>
<path d="M41.0742 140.746H110.337" stroke="black" stroke-miterlimit="10"/>
<path d="M41.0742 154.488H110.337" stroke="black" stroke-miterlimit="10"/>
<path d="M41.0742 168.238H110.337" stroke="black" stroke-miterlimit="10"/>
<path d="M41.0742 181.992H110.337" stroke="black" stroke-miterlimit="10"/>
<path d="M41.0742 195.73H110.337" stroke="black" stroke-miterlimit="10"/>
<path d="M41.0742 209.48H110.337" stroke="black" stroke-miterlimit="10"/>
<path d="M41.0742 223.223H110.337" stroke="black" stroke-miterlimit="10"/>
<path d="M41.0742 236.973H110.337" stroke="black" stroke-miterlimit="10"/>
<path d="M41.0742 250.723H110.337" stroke="black" stroke-miterlimit="10"/>
<path d="M41.0742 264.465H110.337" stroke="black" stroke-miterlimit="10"/>
<path d="M41.0742 278.215H110.337" stroke="black" stroke-miterlimit="10"/>
<path d="M41.0742 291.965H110.337" stroke="black" stroke-miterlimit="10"/>
<path d="M41.0742 305.707H110.337" stroke="black" stroke-miterlimit="10"/>
<path d="M41.0742 319.461H110.337" stroke="black" stroke-miterlimit="10"/>
<path d="M41.0742 333.199H110.337" stroke="black" stroke-miterlimit="10"/>
<path d="M50.0566 37.6367V336.371" stroke="black" stroke-miterlimit="10"/>
<path d="M525.916 96.332H541.253V103.736H525.916" stroke="black" stroke-miterlimit="10"/>
<path d="M615.275 179.344H597.832V186.739H615.275" stroke="black" stroke-miterlimit="10"/>
<path d="M615.275 196.789H597.832V204.193H615.275" stroke="black" stroke-miterlimit="10"/>
<path d="M615.275 214.238H597.832V221.633H615.275" stroke="black" stroke-miterlimit="10"/>
<path d="M615.275 231.684H597.832V239.088H615.275" stroke="black" stroke-miterlimit="10"/>
<path d="M615.275 249.137H597.832V256.532H615.275" stroke="black" stroke-miterlimit="10"/>
<path d="M615.275 266.582H597.832V273.986H615.275" stroke="black" stroke-miterlimit="10"/>
<path d="M615.275 284.031H597.832V291.435H615.275" stroke="black" stroke-miterlimit="10"/>
<path d="M615.275 301.477H597.832V308.881H615.275" stroke="black" stroke-miterlimit="10"/>
<path d="M525.916 116.422H541.253V123.826H525.916" stroke="black" stroke-miterlimit="10"/>
<path d="M525.916 136.52H541.253V143.924H525.916" stroke="black" stroke-miterlimit="10"/>
<path d="M525.916 156.605H541.253V164.01H525.916" stroke="black" stroke-miterlimit="10"/>
<path d="M525.916 176.699H541.253V184.103H525.916" stroke="black" stroke-miterlimit="10"/>
<path d="M525.916 196.789H541.253V204.193H525.916" stroke="black" stroke-miterlimit="10"/>
<path d="M525.916 216.887H541.253V224.282H525.916" stroke="black" stroke-miterlimit="10"/>
<path d="M525.916 236.973H541.253V244.377H525.916" stroke="black" stroke-miterlimit="10"/>
<path d="M525.916 257.07H541.253V264.465H525.916" stroke="black" stroke-miterlimit="10"/>
<path d="M525.916 277.156H541.253V284.56H525.916" stroke="black" stroke-miterlimit="10"/>
<path d="M501.597 144.449H434.979V150.796H501.597V144.449Z" stroke="black" stroke-miterlimit="10"/>
<path d="M501.597 155.547H434.979V161.893H501.597V155.547Z" stroke="black" stroke-miterlimit="10"/>
<path d="M501.597 166.652H434.979V172.999H501.597V166.652Z" stroke="black" stroke-miterlimit="10"/>
<path d="M501.597 177.762H434.979V184.108H501.597V177.762Z" stroke="black" stroke-miterlimit="10"/>
<path d="M501.597 188.855H434.979V195.202H501.597V188.855Z" stroke="black" stroke-miterlimit="10"/>
<path d="M501.597 199.965H434.979V206.311H501.597V199.965Z" stroke="black" stroke-miterlimit="10"/>
<path d="M501.597 211.07H434.979V217.417H501.597V211.07Z" stroke="black" stroke-miterlimit="10"/>
<path d="M501.597 222.164H434.979V228.51H501.597V222.164Z" stroke="black" stroke-miterlimit="10"/>
<path d="M501.597 233.273H434.979V239.62H501.597V233.273Z" stroke="black" stroke-miterlimit="10"/>
<path d="M501.597 244.379H434.979V250.725H501.597V244.379Z" stroke="black" stroke-miterlimit="10"/>
<path d="M501.597 255.48H434.979V261.827H501.597V255.48Z" stroke="black" stroke-miterlimit="10"/>
<path d="M501.597 266.582H434.979V272.928H501.597V266.582Z" stroke="black" stroke-miterlimit="10"/>
<path d="M501.597 277.688H434.979V284.034H501.597V277.688Z" stroke="black" stroke-miterlimit="10"/>
<path d="M501.597 288.793H434.979V295.139H501.597V288.793Z" stroke="black" stroke-miterlimit="10"/>
<path d="M501.597 299.891H434.979V306.237H501.597V299.891Z" stroke="black" stroke-miterlimit="10"/>
<path d="M501.597 310.992H434.979V317.339H501.597V310.992Z" stroke="black" stroke-miterlimit="10"/>
<path d="M501.597 322.102H434.979V328.448H501.597V322.102Z" stroke="black" stroke-miterlimit="10"/>
<path d="M550.773 78.8789V324.217" stroke="black" stroke-miterlimit="10"/>
<path d="M564.514 32.3594V324.219" stroke="black" stroke-miterlimit="10"/>
<path d="M406.428 268.168H373.119V285.62H406.428V268.168Z" stroke="black" stroke-miterlimit="10"/>
<path d="M398.495 237.504H381.043V268.169H398.495V237.504Z" stroke="black" stroke-miterlimit="10"/>
<path d="M240.758 172.836V324.328" stroke="black" stroke-miterlimit="10"/>
<path d="M432.088 156.242H351.199" stroke="black" stroke-miterlimit="10"/>
<path d="M432.088 165.273H351.199" stroke="black" stroke-miterlimit="10"/>
<path d="M367.148 172.051H354.811V181.087H367.148V172.051Z" stroke="black" stroke-miterlimit="10"/>
<path d="M382.366 172.051H370.029V181.087H382.366V172.051Z" stroke="black" stroke-miterlimit="10"/>
<path d="M397.581 172.051H385.244V181.087H397.581V172.051Z" stroke="black" stroke-miterlimit="10"/>
<path d="M412.802 172.051H400.465V181.087H412.802V172.051Z" stroke="black" stroke-miterlimit="10"/>
<path d="M428.021 172.051H415.684V181.087H428.021V172.051Z" stroke="black" stroke-miterlimit="10"/>
<path d="M367.148 186.055H354.811V195.091H367.148V186.055Z" stroke="black" stroke-miterlimit="10"/>
<path d="M382.366 186.055H370.029V195.091H382.366V186.055Z" stroke="black" stroke-miterlimit="10"/>
<path d="M397.581 186.055H385.244V195.091H397.581V186.055Z" stroke="black" stroke-miterlimit="10"/>
<path d="M412.802 186.055H400.465V195.091H412.802V186.055Z" stroke="black" stroke-miterlimit="10"/>
<path d="M428.021 186.055H415.684V195.091H428.021V186.055Z" stroke="black" stroke-miterlimit="10"/>
<path d="M367.148 200.062H354.811V209.099H367.148V200.062Z" stroke="black" stroke-miterlimit="10"/>
<path d="M382.366 200.062H370.029V209.099H382.366V200.062Z" stroke="black" stroke-miterlimit="10"/>
<path d="M397.581 200.062H385.244V209.099H397.581V200.062Z" stroke="black" stroke-miterlimit="10"/>
<path d="M412.802 200.062H400.465V209.099H412.802V200.062Z" stroke="black" stroke-miterlimit="10"/>
<path d="M428.021 200.062H415.684V209.099H428.021V200.062Z" stroke="black" stroke-miterlimit="10"/>
<path d="M367.148 225.371H354.811V234.407H367.148V225.371Z" stroke="black" stroke-miterlimit="10"/>
<path d="M382.366 225.371H370.029V234.407H382.366V225.371Z" stroke="black" stroke-miterlimit="10"/>
<path d="M397.581 225.371H385.244V234.407H397.581V225.371Z" stroke="black" stroke-miterlimit="10"/>
<path d="M412.802 225.371H400.465V234.407H412.802V225.371Z" stroke="black" stroke-miterlimit="10"/>
<path d="M428.021 225.371H415.684V234.407H428.021V225.371Z" stroke="black" stroke-miterlimit="10"/>
</g>
<path d="M1 366.516H643.669" stroke="#263238" stroke-linecap="round" stroke-linejoin="round"/>
<path d="M507.758 264.238C496.032 264.238 486.521 287.134 486.521 315.374C486.521 343.613 496.032 366.519 507.758 366.519H526.907V264.238H507.758Z" fill="#263238" stroke="#263238" stroke-linecap="round" stroke-linejoin="round"/>
<path d="M527.017 366.509C535.513 366.509 542.4 343.615 542.4 315.374C542.4 287.132 535.513 264.238 527.017 264.238C518.522 264.238 511.635 287.132 511.635 315.374C511.635 343.615 518.522 366.509 527.017 366.509Z" fill="#263238" stroke="#263238" stroke-linecap="round" stroke-linejoin="round"/>
<path d="M539.219 315.373C539.219 333.409 535.909 348.628 531.387 353.351C531.021 353.793 530.568 354.155 530.057 354.415C529.546 354.675 528.986 354.828 528.414 354.864C525.678 354.864 523.153 351.117 521.247 344.935C519.013 337.704 517.6 327.136 517.6 315.373C517.6 311.507 517.755 307.777 518.037 304.249C518.453 297.539 519.678 290.905 521.685 284.489C523.508 279.109 525.87 275.891 528.414 275.891C529.745 275.891 531.031 276.802 532.207 278.398C535.089 282.356 537.395 290.69 538.499 301.194C538.986 305.905 539.226 310.637 539.219 315.373Z" fill="#CCCCCC" stroke="#263238" stroke-linecap="round" stroke-linejoin="round"/>
<path d="M538.499 301.181L532.864 314.594L531.387 353.393C531.021 353.835 530.568 354.197 530.057 354.457C529.546 354.717 528.987 354.87 528.414 354.906C525.679 354.906 523.153 351.159 521.247 344.977L528.414 315.415L518.047 304.291C518.463 297.581 519.688 290.947 521.694 284.531L531.834 309.543L532.189 278.395C535.089 282.352 537.396 290.686 538.499 301.181Z" fill="white" stroke="#263238" stroke-linecap="round" stroke-linejoin="round"/>
<path d="M118.107 341.148C121.755 356.312 128.621 366.516 136.444 366.516H161.556C169.371 366.516 176.2 356.33 179.884 341.176C156.559 341.303 133.992 341.331 118.107 341.148Z" fill="#263238" stroke="#263238" stroke-linecap="round" stroke-linejoin="round"/>
<path d="M351.938 341.148C355.585 356.312 362.451 366.516 370.274 366.516H395.386C403.21 366.516 410.039 356.33 413.723 341.176C390.389 341.303 367.831 341.331 351.938 341.148Z" fill="#263238" stroke="#263238" stroke-linecap="round" stroke-linejoin="round"/>
<path d="M385.337 162.978C385.337 162.978 308.123 152.455 239.134 174.677C170.144 196.898 101.027 253.094 96.3498 269.453C91.6721 285.811 91.0794 303.965 92.8392 313.913C94.5991 323.862 98.1005 332.05 96.9334 336.144C95.7662 340.238 91.0794 337.895 95.7662 340.238C100.453 342.581 282.382 340.238 282.382 340.238C282.382 340.238 288.227 339.071 290.588 334.968C292.95 330.864 295.85 279.401 306.381 268.869C316.913 258.337 330.955 259.504 335.049 281.151C339.143 302.798 338.523 341.113 338.523 341.113H514.781C514.781 341.113 507.012 287.881 525.312 269.453C531.768 262.951 543.33 276.027 543.33 285.346C543.33 303.054 541.105 337.895 541.105 337.895C544.022 335.015 546.054 331.361 546.959 327.363C548.71 320.351 551.637 282.318 550.47 268.285C549.303 254.252 551.053 249.565 544.616 241.961C538.178 234.356 522.604 214.606 509.519 205.104C487.043 188.755 430.965 164.154 385.337 162.978Z" fill="white" stroke="#263238" stroke-linecap="round" stroke-linejoin="round"/>
<path d="M244.95 276.901C241.148 276.482 117.412 276.901 112.735 276.901C108.057 276.901 102.176 276.053 98.802 285.764C95.4282 295.475 94.6167 318.745 95.4556 324.216C95.4978 324.601 95.4978 324.989 95.4556 325.374C96.6683 330.034 97.5619 333.791 96.8871 336.161C95.72 340.255 91.0332 337.912 95.72 340.255C99.5679 342.179 223.468 340.939 267.217 340.438C268.758 338.249 270.327 333.836 268.549 325.484C265.64 311.533 252.555 277.713 244.95 276.901Z" fill="#CCCCCC" stroke="#263238" stroke-linecap="round" stroke-linejoin="round"/>
<path d="M241.997 274.365C241.997 274.365 209.481 272.249 207.347 276.48C205.213 280.711 220.86 292.1 225.93 292.948C231 293.796 243.665 287.03 246.2 282.006C248.735 276.982 247.057 274.784 241.997 274.365Z" fill="white" stroke="#263238" stroke-linecap="round" stroke-linejoin="round"/>
<path d="M97.9005 274.365C97.9005 274.365 118.873 272.249 120.25 276.48C121.626 280.711 111.523 292.1 108.259 292.948C104.995 293.796 96.8063 287.03 95.1741 282.006C93.5419 276.982 94.627 274.784 97.9005 274.365Z" fill="white" stroke="#263238" stroke-linecap="round" stroke-linejoin="round"/>
<path d="M369.718 287.262H323.342L341.259 230.3C343.083 224.4 349.402 219.613 355.302 219.613H380.304C386.213 219.613 389.495 224.4 387.599 230.3L369.718 287.262Z" fill="#CCCCCC" stroke="#263238" stroke-linecap="round" stroke-linejoin="round"/>
<path d="M381.053 217.385H356.516C354.118 217.385 352.786 215.443 353.534 213.045L356.516 203.543C356.931 202.335 357.697 201.277 358.715 200.504C359.732 199.731 360.957 199.278 362.233 199.203H386.761C389.15 199.203 390.491 201.145 389.734 203.543L386.752 213.045C386.346 214.255 385.585 215.316 384.569 216.09C383.553 216.864 382.328 217.315 381.053 217.385Z" fill="#CCCCCC" stroke="#263238" stroke-linecap="round" stroke-linejoin="round"/>
<path d="M345.536 230.547L351.554 239.319L338.277 281.628" stroke="#263238" stroke-linecap="round" stroke-linejoin="round"/>
<path d="M382.508 230.547L370.983 239.319L357.697 281.628" stroke="#263238" stroke-linecap="round" stroke-linejoin="round"/>
<path d="M355.838 239.637H366.178" stroke="#263238" stroke-linecap="round" stroke-linejoin="round"/>
<path d="M352.5 250.285H362.84" stroke="#263238" stroke-linecap="round" stroke-linejoin="round"/>
<path d="M349.154 260.945H359.494" stroke="#263238" stroke-linecap="round" stroke-linejoin="round"/>
<path d="M345.809 271.594H356.149" stroke="#263238" stroke-linecap="round" stroke-linejoin="round"/>
<path d="M452.139 287.262H405.754L423.653 230.3C425.477 224.4 431.787 219.613 437.695 219.613H462.698C468.597 219.613 471.88 224.4 469.992 230.3L452.139 287.262Z" fill="#CCCCCC" stroke="#263238" stroke-linecap="round" stroke-linejoin="round"/>
<path d="M463.444 217.385H438.925C436.527 217.385 435.196 215.443 435.952 213.045L438.934 203.543C439.341 202.333 440.101 201.272 441.117 200.498C442.133 199.725 443.358 199.273 444.633 199.203H469.171C471.569 199.203 472.9 201.145 472.152 203.543L469.171 213.045C468.755 214.255 467.988 215.314 466.968 216.087C465.948 216.86 464.722 217.312 463.444 217.385Z" fill="#CCCCCC" stroke="#263238" stroke-linecap="round" stroke-linejoin="round"/>
<path d="M427.948 230.547L433.966 239.319L420.689 281.628" stroke="#263238" stroke-linecap="round" stroke-linejoin="round"/>
<path d="M464.932 230.547L453.397 239.319L440.121 281.628" stroke="#263238" stroke-linecap="round" stroke-linejoin="round"/>
<path d="M438.26 239.637H448.6" stroke="#263238" stroke-linecap="round" stroke-linejoin="round"/>
<path d="M434.914 250.285H445.254" stroke="#263238" stroke-linecap="round" stroke-linejoin="round"/>
<path d="M431.568 260.945H441.909" stroke="#263238" stroke-linecap="round" stroke-linejoin="round"/>
<path d="M428.221 271.594H438.561" stroke="#263238" stroke-linecap="round" stroke-linejoin="round"/>
<path d="M407.358 282.567H330.609C330.153 282.567 329.701 282.477 329.279 282.302C328.858 282.128 328.475 281.872 328.152 281.549C327.83 281.227 327.574 280.844 327.399 280.422C327.225 280.001 327.135 279.549 327.135 279.093V272.564C327.135 272.108 327.225 271.656 327.399 271.234C327.574 270.813 327.83 270.43 328.152 270.107C328.475 269.785 328.858 269.529 329.279 269.354C329.701 269.18 330.153 269.09 330.609 269.09H411.47L407.358 282.567Z" fill="#CCCCCC" stroke="#263238" stroke-linecap="round" stroke-linejoin="round"/>
<path d="M330.609 269.09H362.113C362.783 269.09 363.425 269.356 363.899 269.83C364.372 270.303 364.638 270.946 364.638 271.616V280.041C364.638 280.711 364.372 281.353 363.899 281.827C363.425 282.301 362.783 282.567 362.113 282.567H330.609C330.153 282.567 329.701 282.477 329.279 282.302C328.858 282.128 328.475 281.872 328.152 281.549C327.83 281.227 327.574 280.844 327.399 280.422C327.225 280.001 327.135 279.549 327.135 279.093V272.564C327.135 271.643 327.501 270.759 328.152 270.107C328.804 269.456 329.687 269.09 330.609 269.09Z" fill="#CCCCCC" stroke="#263238" stroke-linecap="round" stroke-linejoin="round"/>
<path d="M453.414 293.059H291.408C290.457 293.047 289.548 292.664 288.875 291.991C288.202 291.318 287.818 290.409 287.807 289.457C287.818 288.506 288.202 287.596 288.875 286.923C289.548 286.251 290.457 285.867 291.408 285.855H453.414C454.373 285.855 455.294 286.233 455.977 286.908C456.659 287.582 457.049 288.498 457.061 289.457C457.049 290.417 456.659 291.333 455.977 292.007C455.294 292.681 454.373 293.059 453.414 293.059Z" fill="#CCCCCC" stroke="#263238" stroke-linecap="round" stroke-linejoin="round"/>
<path d="M548.655 248.746H541.862C540.617 248.746 539.422 249.241 538.541 250.121C537.661 251.002 537.166 252.197 537.166 253.442C537.166 254.687 537.661 255.882 538.541 256.763C539.422 257.643 540.617 258.138 541.862 258.138H549.968C549.777 254.363 549.567 251.482 548.655 248.746Z" fill="#004E9E" stroke="#263238" stroke-linecap="round" stroke-linejoin="round"/>
<path d="M491.83 228.759C491.83 228.759 513.368 226.224 514.626 222.431C515.884 218.638 512.091 214.826 506.173 210.176" stroke="#8F8F8F" stroke-linecap="round" stroke-linejoin="round"/>
<path d="M364.057 257.898C364.057 257.898 365.324 264.281 367.44 266.342C369.555 268.403 490.984 336.07 490.984 336.07" stroke="#8F8F8F" stroke-linecap="round" stroke-linejoin="round"/>
<path d="M468.606 338.979C468.606 338.979 373.775 312.792 366.572 307.731C359.368 302.67 342.919 267.191 338.305 257.48C333.691 247.769 333.664 238.468 334.931 236.781" stroke="#8F8F8F" stroke-linecap="round" stroke-linejoin="round"/>
<path d="M419.678 174.205C419.678 174.205 402.891 170.476 386.105 178.864C369.318 187.253 342.282 218.985 339.018 226.891" stroke="#8F8F8F" stroke-linecap="round" stroke-linejoin="round"/>
<path d="M363.736 252.064C363.736 252.064 363.736 246 365.131 245.07C366.527 244.14 482.803 230.152 482.803 230.152" stroke="#8F8F8F" stroke-linecap="round" stroke-linejoin="round"/>
<path d="M306.365 268.87C295.834 279.402 292.907 330.875 290.572 334.969C288.238 339.063 282.366 340.24 282.366 340.24L271.615 340.367C275.263 355.969 282.183 366.519 290.144 366.519H315.274V264.238H312.538C310.254 265.454 308.171 267.017 306.365 268.87Z" fill="#263238" stroke="#263238" stroke-linecap="round" stroke-linejoin="round"/>
<path d="M315.271 264.238C313.143 264.282 311.081 264.986 309.372 266.253C308.536 266.881 307.739 267.557 306.983 268.278C306.018 269.278 305.139 270.357 304.356 271.506C299.223 279.894 296.15 298.423 294.053 313.35C294.053 314.024 294.053 314.699 294.053 315.374C294.053 343.641 303.554 366.519 315.289 366.519C327.025 366.519 336.526 343.622 336.526 315.374C336.526 287.125 326.997 264.238 315.271 264.238Z" fill="#263238" stroke="#263238" stroke-linecap="round" stroke-linejoin="round"/>
<path d="M332.141 315.374C332.141 333.83 327.363 349.331 320.898 353.671C319.829 354.426 318.559 354.845 317.251 354.875C313.212 354.875 309.537 350.617 306.856 343.705C304.066 336.529 302.297 326.499 302.297 315.383C302.297 302.262 304.713 290.636 308.434 283.469C310.895 278.719 313.905 275.91 317.214 275.91C324.081 275.91 329.852 288.165 331.594 304.843C331.956 308.342 332.139 311.857 332.141 315.374Z" fill="#CCCCCC" stroke="#263238" stroke-linecap="round" stroke-linejoin="round"/>
<path d="M331.564 304.822L321.197 316.11L320.841 353.66C319.772 354.414 318.502 354.833 317.194 354.863C313.154 354.863 309.48 350.605 306.799 343.693L317.194 315.372L308.413 283.458C310.875 278.707 313.884 275.898 317.194 275.898C324.051 275.889 329.823 288.144 331.564 304.822Z" fill="white" stroke="#263238" stroke-linecap="round" stroke-linejoin="round"/>
<path d="M375.908 163.735C375.908 163.735 347.194 198.385 326.496 209.327C322.292 211.552 315.991 214.36 308.578 217.424C279.481 229.451 233.087 245.472 227.699 246.484C220.942 247.743 146.618 248.591 137.746 246.484C128.874 244.378 152.509 221.181 152.509 221.181C152.509 221.181 152.837 220.807 153.421 220.16C154.606 218.856 156.822 216.421 159.557 213.494C183.265 198.267 211.185 183.695 239.124 174.696C251.435 170.79 264.007 167.758 276.746 165.623C283.685 164.656 290.36 163.991 296.505 163.745C338.276 162.039 375.908 163.735 375.908 163.735Z" fill="#004E9E"/>
<path d="M308.513 217.441C279.417 229.468 233.023 245.489 227.634 246.502C220.877 247.76 146.554 248.608 137.681 246.502C128.809 244.395 152.508 221.18 152.508 221.18C152.508 221.18 152.836 220.806 153.42 220.159C163.103 223.031 180.866 226.542 208.987 225.967C244.484 225.247 289.283 219.922 308.513 217.441Z" fill="#8F8F8F" stroke="#263238" stroke-linecap="round" stroke-linejoin="round"/>
<path d="M264.099 234.348H140.737C136.46 239.992 133.57 245.518 137.682 246.493C146.554 248.609 220.878 247.761 227.634 246.493C230.598 245.937 245.999 240.831 264.099 234.348Z" fill="#263238" stroke="#263238" stroke-linecap="round" stroke-linejoin="round"/>
<path d="M234.301 176.273C224.56 179.662 215 183.551 205.66 187.927L284.169 226.99C292.758 223.753 301.184 220.47 308.515 217.443C313.074 215.564 317.177 213.795 320.651 212.172L234.301 176.273Z" fill="white"/>
<path d="M271.047 166.633C265.376 167.709 259.668 168.958 253.969 170.408L329.131 207.793C334.285 204.55 339.164 200.89 343.72 196.851L271.047 166.633Z" fill="white"/>
<path d="M375.908 163.735C375.908 163.735 347.194 198.385 326.496 209.327C322.292 211.552 315.991 214.36 308.578 217.424C279.481 229.451 233.087 245.472 227.699 246.484C220.942 247.743 146.618 248.591 137.746 246.484C128.874 244.378 152.509 221.181 152.509 221.181C152.509 221.181 152.837 220.807 153.421 220.16C154.606 218.856 156.822 216.421 159.557 213.494C183.265 198.267 211.185 183.695 239.124 174.696C251.435 170.79 264.007 167.758 276.746 165.623C283.685 164.656 290.36 163.991 296.505 163.745C338.276 162.039 375.908 163.735 375.908 163.735Z" stroke="#263238" stroke-linecap="round" stroke-linejoin="round"/>
<path d="M203.866 296.178H121.618C120.893 296.178 120.197 295.89 119.684 295.377C119.171 294.864 118.883 294.168 118.883 293.443C118.883 292.717 119.171 292.021 119.684 291.508C120.197 290.995 120.893 290.707 121.618 290.707H203.866C204.591 290.707 205.287 290.995 205.8 291.508C206.313 292.021 206.601 292.717 206.601 293.443C206.601 294.168 206.313 294.864 205.8 295.377C205.287 295.89 204.591 296.178 203.866 296.178Z" fill="#263238" stroke="#263238" stroke-linecap="round" stroke-linejoin="round"/>
<path d="M203.866 307.803H121.618C120.893 307.803 120.197 307.515 119.684 307.002C119.171 306.489 118.883 305.793 118.883 305.068C118.883 304.342 119.171 303.646 119.684 303.133C120.197 302.62 120.893 302.332 121.618 302.332H203.866C204.591 302.332 205.287 302.62 205.8 303.133C206.313 303.646 206.601 304.342 206.601 305.068C206.601 305.793 206.313 306.489 205.8 307.002C205.287 307.515 204.591 307.803 203.866 307.803Z" fill="#263238" stroke="#263238" stroke-linecap="round" stroke-linejoin="round"/>
<path d="M203.866 319.475H121.618C120.893 319.475 120.197 319.187 119.684 318.674C119.171 318.161 118.883 317.465 118.883 316.739C118.883 316.014 119.171 315.318 119.684 314.805C120.197 314.292 120.893 314.004 121.618 314.004H203.866C204.591 314.004 205.287 314.292 205.8 314.805C206.313 315.318 206.601 316.014 206.601 316.739C206.601 317.465 206.313 318.161 205.8 318.674C205.287 319.187 204.591 319.475 203.866 319.475Z" fill="#263238" stroke="#263238" stroke-linecap="round" stroke-linejoin="round"/>
<path d="M441.078 219.658L436.419 214.634L432.142 202.169L447.944 207.385L449.622 201.431C449.622 201.431 434.741 193.051 431.021 191.191C427.3 189.331 422.459 188.036 422.276 190.635C422.094 193.233 425.44 229.15 425.44 229.15C425.44 229.15 414.088 262.45 414.088 263.198C414.088 263.946 414.644 264.311 415.392 264.502C416.14 264.694 423.762 263.937 433.063 265.615C442.364 267.292 445.719 268.222 445.719 268.222C446.446 268.218 447.146 267.952 447.692 267.473C448.238 266.994 448.593 266.334 448.692 265.615C449.066 263.007 460.6 237.147 460.6 237.147C460.6 237.147 488.867 214.269 490.554 212.218C492.241 210.166 495.761 204.403 495.578 202.725C495.396 201.048 461.713 202.361 461.713 202.361L461.157 208.123L474.743 210.914L458.923 220.944L454.09 221.318L441.078 219.658Z" fill="#004E9E" stroke="#263238" stroke-linecap="round" stroke-linejoin="round"/>
<path d="M425.449 229.15L431.586 215.008" stroke="#263238" stroke-linecap="round" stroke-linejoin="round"/>
<path d="M460.611 237.147L465.818 227.473" stroke="#263238" stroke-linecap="round" stroke-linejoin="round"/>
<path d="M484.791 204.594L474.752 210.913L481.071 204.776" stroke="#263238" stroke-linecap="round" stroke-linejoin="round"/>
<path d="M429.908 193.242L432.142 202.169L433.072 195.659" stroke="#263238" stroke-linecap="round" stroke-linejoin="round"/>
<path d="M438.278 226.359L438.47 233.608L426.188 259.103L427.309 263.936L434.558 258.911L440.886 234.173L447.588 228.775L443.868 224.125L438.278 226.359Z" fill="#263238" stroke="#263238" stroke-linecap="round" stroke-linejoin="round"/>
<path d="M441.076 219.658C441.076 219.658 432.697 228.22 433.627 228.22C434.557 228.22 441.076 226.916 441.076 226.916L451.681 231.94C451.681 231.94 455.766 224.645 455.958 220.998C456.149 217.351 454.654 218.582 453.35 218.39C452.046 218.199 444.605 216.311 441.076 219.658Z" fill="#004E9E" stroke="#263238" stroke-linecap="round" stroke-linejoin="round"/>
<path d="M446.661 196.781C446.352 196.379 446.126 195.92 445.996 195.431C445.865 194.941 445.834 194.43 445.903 193.928C445.971 193.426 446.139 192.942 446.396 192.505C446.653 192.069 446.994 191.687 447.399 191.383C450.381 188.775 453.91 190.827 455.214 192.122C456.518 193.417 457.448 191.009 460.986 192.313C464.523 193.617 465.444 196.033 465.262 198.076C465.08 200.118 466.566 202.544 466.748 205.708C466.931 208.872 463.22 214.27 461.359 215.009C459.499 215.747 460.794 216.313 458.195 216.313C455.597 216.313 457.63 211.106 457.63 208.872C457.63 206.638 459.682 203.656 457.63 201.796C455.578 199.936 450.381 200.684 448.329 199.973C446.278 199.261 446.661 196.781 446.661 196.781Z" fill="#263238" stroke="#263238" stroke-linecap="round" stroke-linejoin="round"/>
<path d="M446.657 196.781C446.657 196.781 439.737 208.681 440.138 212.064C440.539 215.446 440.138 217.826 441.05 219.686L441.962 221.51C441.962 221.51 439.354 230.446 441.214 230.255C443.074 230.063 451.818 223.188 452.375 222.814C452.931 222.44 457.773 218.911 457.773 218.911C457.773 218.911 462.241 218.538 462.605 216.677C462.786 215.448 462.524 214.194 461.867 213.14L458.511 212.957C458.511 212.957 460.381 210.723 460.007 209.419C459.633 208.115 458.885 208.115 460.007 206.629C461.128 205.143 462.241 204.395 461.675 202.353C461.11 200.31 460.007 198.258 455.539 198.067C451.071 197.875 449.448 200.128 446.657 196.781Z" fill="white" stroke="#263238" stroke-linecap="round" stroke-linejoin="round"/>
<path d="M448.145 205.148C448.145 205.148 444.233 210.355 444.607 210.911C444.861 211.148 445.16 211.331 445.486 211.45C445.812 211.57 446.159 211.622 446.506 211.605C446.853 211.588 447.193 211.502 447.505 211.352C447.818 211.201 448.098 210.989 448.328 210.729" stroke="#263238" stroke-linecap="round" stroke-linejoin="round"/>
<path d="M443.494 213.522C444.93 214.011 446.436 214.264 447.953 214.269C449.631 214.078 451.491 211.844 451.491 211.844" stroke="#263238" stroke-linecap="round" stroke-linejoin="round"/>
<path d="M444.424 203.292C444.424 203.292 445.91 201.469 448.326 203.101" stroke="#263238" stroke-linecap="round" stroke-linejoin="round"/>
<path d="M452.24 203.472C452.24 203.472 455.03 203.098 455.769 204.958" stroke="#263238" stroke-linecap="round" stroke-linejoin="round"/>
<path d="M443.305 205.527C444.304 205.965 445.426 206.029 446.469 205.71" stroke="#263238" stroke-linecap="round" stroke-linejoin="round"/>
<path d="M451.117 206.82C452.115 207.261 453.238 207.328 454.281 207.012" stroke="#263238" stroke-linecap="round" stroke-linejoin="round"/>
<path d="M442.006 221.516C443.044 221.739 444.1 221.864 445.161 221.889C446.471 221.842 447.778 221.717 449.073 221.516L441.076 226.914L442.006 221.516Z" fill="#263238" stroke="#263238" stroke-linecap="round" stroke-linejoin="round"/>
<path d="M415.402 264.502L411.435 264.557C411.435 264.557 395.414 256.898 389.615 253.88C383.816 250.861 378.472 256.898 377.761 261.302C377.05 265.706 380.314 272.445 380.314 272.445L363.145 319.094L375.217 323.042L392.861 285.921H435.571C435.571 285.921 440.441 285.228 443.231 282.447C446.021 279.666 447.635 268.049 447.635 268.049C447.635 268.049 426.335 263.053 415.402 264.502Z" fill="#263238" stroke="#263238" stroke-linecap="round" stroke-linejoin="round"/>
<path d="M437.42 271.051C437.42 271.051 429.068 268.269 422.566 268.962C416.065 269.655 392.631 270.786 392.631 270.786" stroke="white" stroke-linecap="round" stroke-linejoin="round"/>
<path d="M393.789 255.968C393.789 255.968 389.841 251.555 387.06 251.09C384.279 250.625 376.118 251.792 375.452 256.661C374.787 261.531 380.094 276.394 380.094 276.394L385.665 299.372L399.826 293.335L390.306 258.057" fill="#263238"/>
<path d="M393.789 255.968C393.789 255.968 389.841 251.555 387.06 251.09C384.279 250.625 376.118 251.792 375.452 256.661C374.787 261.531 380.094 276.394 380.094 276.394L385.665 299.372L399.826 293.335L390.306 258.057" stroke="#263238" stroke-linecap="round" stroke-linejoin="round"/>
<path d="M397.477 282.412L392.498 261.914" stroke="white" stroke-linecap="round" stroke-linejoin="round"/>
<path d="M391.01 294.961C391.01 294.961 392.834 304.945 392.633 306.103C391.671 309.082 390.263 311.898 388.457 314.456C386.633 316.781 384.044 317.711 385.667 318.632C387.29 319.553 392.633 318.632 394.484 317.72C396.335 316.808 401.679 309.824 403.311 308.428C404.943 307.033 405.399 307.517 406.329 305.875C407.259 304.234 404.934 301.006 403.539 300.304C402.144 299.602 400.53 298.69 400.53 298.69L398.214 292.426L391.01 294.961Z" fill="white" stroke="#263238" stroke-linecap="round" stroke-linejoin="round"/>
<path d="M393.791 302.617C392.879 302.873 392.633 303.912 392.579 304.788C392.645 305.222 392.664 305.662 392.633 306.101C391.671 309.08 390.263 311.896 388.457 314.453C386.633 316.778 384.044 317.708 385.667 318.629C387.29 319.55 392.633 318.629 394.484 317.717C396.335 316.806 401.679 309.821 403.311 308.426C404.943 307.031 405.399 307.514 406.329 305.873C407.259 304.231 404.934 301.004 403.539 300.301C402.144 299.599 400.53 298.688 400.53 298.688L397.284 303.101C396.202 302.567 394.977 302.397 393.791 302.617Z" fill="#263238" stroke="#263238" stroke-linecap="round" stroke-linejoin="round"/>
<path d="M365.943 317.938L361.529 322.114C361.529 322.114 353.633 323.937 349.457 323.937C345.281 323.937 343.658 323.7 343.43 324.849C343.202 325.998 348.071 329.718 354.098 331.341C360.125 332.965 363.153 332.509 364.548 332.965C365.943 333.42 367.566 334.597 368.952 333.202C370.338 331.806 372.672 319.971 372.672 319.971L365.943 317.938Z" fill="white" stroke="#263238" stroke-linecap="round" stroke-linejoin="round"/>
<path d="M343.43 324.902C343.193 326.06 348.071 329.771 354.099 331.394C360.126 333.017 363.153 332.562 364.548 333.017C365.943 333.473 367.566 334.65 368.952 333.255C369.645 332.562 370.575 329.288 371.323 326.17L364.311 324.665C364.627 323.853 364.71 322.968 364.548 322.112C364.311 320.489 361.53 322.112 361.53 322.112C361.53 322.112 353.634 323.936 349.457 323.936C345.281 323.936 343.658 323.735 343.43 324.902Z" fill="#263238" stroke="#263238" stroke-linecap="round" stroke-linejoin="round"/>
<path d="M417.123 166.012H511.27" stroke="#263238" stroke-linecap="round" stroke-linejoin="round"/>
<path d="M483.551 181.035H557.564" stroke="#263238" stroke-linecap="round" stroke-linejoin="round"/>
<path d="M547.971 278.359H589.094" stroke="#263238" stroke-linecap="round" stroke-linejoin="round"/>
<path d="M546.979 327.359H642.994" stroke="#263238" stroke-linecap="round" stroke-linejoin="round"/>
<path d="M333.463 355.117H346.484" stroke="#263238" stroke-linecap="round" stroke-linejoin="round"/>
<path d="M166.926 354.434H214.213" stroke="#263238" stroke-linecap="round" stroke-linejoin="round"/>
<path d="M205.303 348.941H246.426" stroke="#263238" stroke-linecap="round" stroke-linejoin="round"/>
<path d="M399.25 353.738H432.149" stroke="#263238" stroke-linecap="round" stroke-linejoin="round"/>
<path d="M428.039 346.891H450.652" stroke="#263238" stroke-linecap="round" stroke-linejoin="round"/>
<path d="M536.318 356.484H606.183" stroke="#263238" stroke-linecap="round" stroke-linejoin="round"/>
<path d="M524.674 229.695H611.024" stroke="#263238" stroke-linecap="round" stroke-linejoin="round"/>
</svg>
