<svg width="27" height="24" viewBox="0 0 27 24" fill="none" xmlns="http://www.w3.org/2000/svg">
<path d="M26.709 4.70807L22.9715 8.44557C22.2165 17.1981 14.8353 24.0006 6.00153 24.0006C4.18653 24.0006 2.69028 23.7131 1.55403 23.1456C0.637777 22.6868 0.262777 22.1956 0.169027 22.0556C0.0854325 21.9302 0.0312493 21.7876 0.0105263 21.6383C-0.0101967 21.4891 0.00307638 21.3371 0.0493532 21.1937C0.0956301 21.0503 0.173714 20.9192 0.277772 20.8102C0.381829 20.7012 0.509169 20.6172 0.650277 20.5643C0.682777 20.5518 3.68028 19.4006 5.58403 17.2093C4.52826 16.3413 3.60662 15.3219 2.84903 14.1843C1.29903 11.8831 -0.435973 7.88557 0.0990268 1.91182C0.115985 1.722 0.186829 1.54098 0.303218 1.39007C0.419606 1.23917 0.576691 1.12466 0.755974 1.06004C0.935258 0.995422 1.12927 0.983377 1.31517 1.02532C1.50107 1.06727 1.67112 1.16147 1.80528 1.29682C1.84903 1.34057 5.96528 5.43432 10.9978 6.76182V6.00057C10.9959 5.20231 11.1537 4.41174 11.462 3.6754C11.7702 2.93907 12.2227 2.27186 12.7928 1.71307C13.3464 1.16022 14.0051 0.723868 14.7301 0.429746C15.4551 0.135624 16.2317 -0.0103063 17.014 0.000565725C18.0635 0.0109169 19.0924 0.292632 20.0007 0.818322C20.9091 1.34401 21.666 2.09579 22.1978 3.00057H26.0015C26.1994 3.00041 26.3929 3.05897 26.5575 3.16885C26.7221 3.27872 26.8504 3.43495 26.9261 3.61778C27.0019 3.8006 27.0217 4.00179 26.9831 4.19587C26.9444 4.38996 26.849 4.56821 26.709 4.70807Z" fill="black"/>
</svg>
