<svg width="90" height="80" viewBox="0 0 90 80" fill="none" xmlns="http://www.w3.org/2000/svg">
<path d="M63.248 55.576C65.106 52.377 66.088 48.719 66.088 44.999C66.088 33.371 56.628 23.911 45 23.911C33.372 23.911 23.912 33.371 23.912 44.999C23.912 48.719 24.894 52.376 26.752 55.576C28.554 58.679 31.136 61.29 34.219 63.127C35.031 63.611 35.478 64.397 35.478 65.342V70.14C35.478 71.915 36.607 73.431 38.185 74.008C38.237 76.942 40.638 79.314 43.584 79.314H46.414C49.36 79.314 51.762 76.942 51.814 74.008C53.392 73.431 54.521 71.915 54.521 70.14V65.342C54.521 64.397 54.968 63.611 55.78 63.127C58.863 61.291 61.445 58.68 63.248 55.576ZM50.405 71.433H39.595C38.882 71.433 38.302 70.853 38.302 70.14V69.576H51.698V70.14C51.698 70.853 51.118 71.433 50.405 71.433ZM46.415 76.49H43.585C42.28 76.49 41.202 75.515 41.032 74.256H48.967C48.798 75.516 47.719 76.49 46.415 76.49ZM54.335 60.702C52.659 61.701 51.698 63.392 51.698 65.342V66.752H38.302V65.342C38.302 63.392 37.341 61.7 35.665 60.702C30.157 57.42 26.736 51.404 26.736 45C26.736 34.929 34.929 26.736 45 26.736C55.071 26.736 63.264 34.929 63.264 45C63.264 51.404 59.843 57.42 54.335 60.702ZM45 28.819C36.078 28.819 28.819 36.078 28.819 45C28.819 53.922 36.078 61.181 45 61.181C53.922 61.181 61.181 53.922 61.181 45C61.181 36.078 53.922 28.819 45 28.819ZM45 58.358C37.635 58.358 31.642 52.366 31.642 45C31.642 37.634 37.635 31.642 45 31.642C52.365 31.642 58.358 37.634 58.358 45C58.358 52.366 52.365 58.358 45 58.358ZM45 32.819C38.283 32.819 32.819 38.283 32.819 45C32.819 51.717 38.283 57.181 45 57.181C51.717 57.181 57.181 51.717 57.181 45C57.181 38.283 51.717 32.819 45 32.819ZM45 54.358C39.84 54.358 35.642 50.16 35.642 45C35.642 39.84 39.84 35.643 45 35.643C50.16 35.643 54.358 39.841 54.358 45.001C54.358 50.161 50.16 54.358 45 54.358ZM48.977 47.308C48.977 48.956 47.899 50.358 46.411 50.844V51.127C46.411 51.907 45.779 52.539 44.999 52.539C44.219 52.539 43.587 51.907 43.587 51.127V50.904C42.764 50.686 42.026 50.188 41.515 49.482C41.058 48.85 41.2 47.968 41.832 47.511C42.464 47.054 43.346 47.196 43.803 47.828C43.973 48.064 44.245 48.204 44.53 48.204H45.256C45.742 48.204 46.152 47.794 46.152 47.308C46.152 46.822 45.742 46.412 45.256 46.412H44.74C42.689 46.412 41.021 44.743 41.021 42.693C41.021 41.045 42.099 39.643 43.587 39.157V38.874C43.587 38.094 44.219 37.462 44.999 37.462C45.779 37.462 46.411 38.094 46.411 38.874V39.097C47.234 39.315 47.972 39.813 48.483 40.519C48.94 41.151 48.798 42.033 48.166 42.49C47.534 42.947 46.652 42.805 46.195 42.173C46.025 41.937 45.753 41.797 45.468 41.797H44.742C44.256 41.797 43.846 42.207 43.846 42.693C43.846 43.179 44.256 43.589 44.742 43.589H45.258C47.309 43.588 48.977 45.257 48.977 47.308ZM39.579 11.295H40.847V19.548C40.847 20.852 41.908 21.914 43.213 21.914H46.788C48.092 21.914 49.154 20.853 49.154 19.548V11.295H50.42H50.421C51.244 11.295 51.981 10.835 52.344 10.095C52.705 9.359 52.617 8.498 52.114 7.846L46.693 0.830999C46.284 0.302999 45.667 0 45 0C44.332 0 43.716 0.303 43.307 0.832L37.886 7.847C37.383 8.498 37.294 9.36 37.656 10.095C38.019 10.835 38.756 11.295 39.579 11.295ZM45 3.258L49.028 8.471H47.741C46.961 8.471 46.329 9.103 46.329 9.883V19.09H43.67V9.883C43.67 9.103 43.038 8.471 42.258 8.471H40.971L45 3.258ZM13.698 23.759C13.802 24.576 14.349 25.247 15.125 25.512C15.906 25.778 16.752 25.582 17.333 25L18.229 24.104L24.065 29.94C24.526 30.401 25.132 30.632 25.738 30.631C26.344 30.631 26.95 30.4 27.411 29.939L29.938 27.412C30.385 26.966 30.63 26.372 30.63 25.739C30.63 25.107 30.384 24.512 29.938 24.066L24.102 18.23L24.998 17.334C25.58 16.752 25.777 15.906 25.51 15.125C25.245 14.349 24.574 13.803 23.757 13.698L14.964 12.571C14.302 12.485 13.651 12.708 13.179 13.18C12.707 13.652 12.485 14.303 12.57 14.965L13.698 23.759ZM22.019 16.322L21.109 17.232C20.844 17.497 20.695 17.856 20.695 18.23C20.695 18.604 20.844 18.963 21.109 19.228L27.619 25.738L25.739 27.618L19.229 21.108C18.953 20.832 18.592 20.695 18.231 20.695C17.87 20.695 17.508 20.833 17.233 21.108L16.323 22.018L15.485 15.483L22.019 16.322ZM21.913 46.787V43.212C21.913 41.907 20.852 40.846 19.547 40.846H11.294V39.58C11.294 38.757 10.835 38.019 10.094 37.655C9.358 37.293 8.497 37.382 7.845 37.885L0.832 43.307C0.303 43.715 0 44.333 0 45C0 45.667 0.303 46.285 0.832 46.693L7.847 52.114C8.232 52.412 8.691 52.564 9.155 52.564C9.474 52.564 9.796 52.491 10.096 52.344C10.836 51.98 11.296 51.243 11.296 50.42V49.152H19.549C20.852 49.153 21.913 48.092 21.913 46.787ZM19.09 46.33H9.883C9.103 46.33 8.471 46.962 8.471 47.742V49.029L3.258 45.001L8.471 40.973V42.26C8.471 43.04 9.103 43.672 9.883 43.672H19.09V46.33ZM27.412 60.061C26.966 59.614 26.371 59.368 25.739 59.368C25.106 59.368 24.512 59.614 24.066 60.06L18.23 65.897L17.334 65.001C16.752 64.419 15.906 64.222 15.125 64.489C14.349 64.754 13.802 65.425 13.698 66.242L12.571 75.035C12.486 75.697 12.708 76.348 13.18 76.82C13.586 77.226 14.124 77.447 14.689 77.447C14.781 77.447 14.873 77.441 14.966 77.429L23.759 76.302C24.576 76.197 25.247 75.651 25.512 74.875C25.778 74.094 25.582 73.248 25 72.666L24.104 71.77L29.94 65.934C30.386 65.488 30.632 64.894 30.632 64.261C30.632 63.629 30.386 63.034 29.94 62.588L27.412 60.061ZM21.109 70.772C20.558 71.323 20.558 72.217 21.109 72.769L22.019 73.679L15.484 74.517L16.322 67.982L17.232 68.892C17.783 69.443 18.677 69.443 19.228 68.892L25.738 62.382L27.618 64.262L21.109 70.772ZM62.588 29.939C63.034 30.385 63.628 30.631 64.261 30.631C64.893 30.631 65.488 30.385 65.934 29.939L71.77 24.103L72.665 24.998C73.247 25.581 74.093 25.777 74.874 25.511C75.65 25.246 76.197 24.575 76.301 23.758L77.428 14.965C77.513 14.302 77.291 13.652 76.819 13.18C76.347 12.708 75.696 12.485 75.034 12.571L66.241 13.698C65.424 13.803 64.753 14.35 64.488 15.125C64.222 15.906 64.418 16.752 65 17.333L65.896 18.229L60.06 24.065C59.138 24.987 59.138 26.488 60.06 27.411L62.588 29.939ZM68.891 19.228C69.442 18.677 69.442 17.783 68.891 17.231L67.981 16.321L74.516 15.483L73.678 22.018L72.768 21.108C72.217 20.557 71.323 20.557 70.772 21.108L64.262 27.618L62.382 25.738L68.891 19.228ZM89.168 43.307L82.153 37.886C81.501 37.382 80.64 37.294 79.904 37.656C79.164 38.02 78.704 38.757 78.704 39.579V40.847H70.451C69.147 40.847 68.085 41.908 68.085 43.213V46.788C68.085 48.093 69.146 49.154 70.451 49.154H78.704V50.42C78.704 51.243 79.163 51.981 79.903 52.344C80.203 52.492 80.525 52.564 80.844 52.564C81.307 52.564 81.766 52.411 82.151 52.114L89.166 46.693C89.697 46.284 90 45.667 90 44.999C90 44.332 89.697 43.715 89.168 43.307ZM81.529 49.028V47.741C81.529 46.961 80.897 46.329 80.117 46.329H70.91V43.67H80.117C80.897 43.67 81.529 43.038 81.529 42.258V40.971L86.742 44.999L81.529 49.028ZM76.302 66.241C76.197 65.424 75.651 64.753 74.875 64.488C74.094 64.222 73.248 64.418 72.667 65L71.77 65.897L65.934 60.061C65.488 59.615 64.894 59.369 64.261 59.369C63.629 59.369 63.034 59.615 62.588 60.061L60.06 62.589C59.138 63.511 59.138 65.012 60.06 65.935L65.896 71.771L65 72.666C64.418 73.248 64.221 74.094 64.487 74.875C64.752 75.651 65.423 76.198 66.24 76.302L75.033 77.429C75.126 77.441 75.218 77.447 75.31 77.447C75.874 77.447 76.412 77.226 76.818 76.82C77.29 76.348 77.512 75.697 77.427 75.034L76.302 66.241ZM67.981 73.678L68.891 72.768C69.442 72.217 69.442 71.323 68.891 70.771L62.381 64.261L64.261 62.381L70.771 68.891C71.322 69.442 72.216 69.442 72.767 68.891L73.677 67.981L74.515 74.516L67.981 73.678Z" fill="black"/>
</svg>
