<svg width="64" height="71" viewBox="0 0 64 71" fill="none" xmlns="http://www.w3.org/2000/svg">
<path fill-rule="evenodd" clip-rule="evenodd" d="M44.8565 31.8849H40.8294V33.9261C40.829 34.1313 40.7615 34.3309 40.6371 34.4947C40.5128 34.6585 40.3382 34.7776 40.1399 34.8342C39.4492 35.0306 38.7823 35.3018 38.1513 35.643C37.9685 35.763 37.7497 35.8167 37.5317 35.795C37.3137 35.7733 37.1099 35.6776 36.9547 35.5239L35.5049 34.0823L32.657 36.9141L34.1067 38.3557C34.2519 38.5008 34.3458 38.6889 34.3744 38.8916C34.403 39.0943 34.3648 39.3007 34.2654 39.48C33.9124 40.1144 33.6314 40.7857 33.4275 41.4818C33.3776 41.6884 33.2594 41.8723 33.0917 42.0039C32.924 42.1356 32.7167 42.2074 32.503 42.2077H30.4502V46.2128H32.4991C32.7056 46.2132 32.9063 46.2805 33.0711 46.4043C33.2358 46.5281 33.3556 46.7018 33.4124 46.8992C33.5139 47.2533 33.6357 47.6013 33.7774 47.9415C33.9101 48.2606 34.0598 48.5725 34.2258 48.8757C34.3467 49.0576 34.4008 49.2753 34.379 49.4923C34.3572 49.7092 34.2607 49.912 34.1059 50.0664L32.6562 51.5056L35.5033 54.3374L36.9539 52.8958C37.0993 52.7508 37.2883 52.6569 37.4922 52.6284C37.6962 52.5999 37.9039 52.6384 38.0838 52.738C38.7224 53.0899 39.3984 53.3699 40.0994 53.5728C40.3071 53.6224 40.4921 53.74 40.6245 53.9067C40.7569 54.0734 40.8291 54.2796 40.8294 54.492V56.5293H44.8565V54.4936C44.857 54.2883 44.9246 54.0886 45.0491 53.9248C45.1736 53.761 45.3483 53.6419 45.5469 53.5854C46.2373 53.3893 46.904 53.1181 47.5346 52.7767C47.7175 52.6564 47.9365 52.6026 48.1547 52.6243C48.3728 52.646 48.5768 52.7419 48.7321 52.8958L50.1818 54.3374L53.0298 51.5056L51.58 50.064C51.4349 49.9188 51.341 49.7308 51.3124 49.5281C51.2837 49.3254 51.322 49.1189 51.4213 48.9396C51.6018 48.6158 51.7637 48.2821 51.9061 47.94C52.0425 47.6127 52.1604 47.2782 52.2592 46.9379C52.3091 46.7312 52.4275 46.5472 52.5954 46.4155C52.7632 46.2838 52.9707 46.2121 53.1845 46.212H55.2405V42.2053H53.1877C52.9812 42.2049 52.7804 42.1376 52.6157 42.0138C52.4509 41.89 52.3311 41.7163 52.2743 41.5189C52.0761 40.8338 51.8031 40.1723 51.4602 39.5463C51.3393 39.3644 51.2854 39.1466 51.3073 38.9296C51.3293 38.7127 51.4259 38.51 51.5808 38.3557L53.0305 36.9141L50.1826 34.0823L48.7336 35.5199C48.5877 35.664 48.3988 35.7573 48.1951 35.7857C47.9914 35.8142 47.7839 35.7763 47.6037 35.6777C47.278 35.4982 46.9423 35.3372 46.5983 35.1956C46.2692 35.0601 45.9327 34.9429 45.5905 34.8445C45.3822 34.7957 45.1964 34.6786 45.0632 34.5119C44.9301 34.3453 44.8572 34.1389 44.8565 33.9261V31.8849ZM40.5953 29.9952H45.0906C45.5326 29.9952 45.9564 30.1697 46.2689 30.4805C46.5814 30.7912 46.757 31.2127 46.757 31.6521V33.2349C46.9469 33.3022 47.1352 33.3743 47.322 33.4511C47.5077 33.53 47.6926 33.6089 47.8774 33.6981L49.0042 32.5776C49.0292 32.5519 49.0557 32.5276 49.0836 32.505C49.3867 32.2398 49.7765 32.0934 50.1802 32.0932C50.3982 32.0926 50.6141 32.1349 50.8157 32.2175C51.0172 32.3001 51.2003 32.4214 51.3546 32.5745L54.5398 35.7408C54.6946 35.8947 54.8173 36.0774 54.9011 36.2784C54.9848 36.4795 55.028 36.6949 55.028 36.9125C55.028 37.1301 54.9848 37.3456 54.9011 37.5467C54.8173 37.7477 54.6946 37.9304 54.5398 38.0842L53.4154 39.2023C53.5032 39.3848 53.5857 39.5689 53.663 39.7546C53.7402 39.9403 53.813 40.1278 53.8812 40.3172H55.4706C55.9126 40.3172 56.3364 40.4918 56.6489 40.8025C56.9614 41.1132 57.137 41.5347 57.137 41.9741V46.4448C57.137 46.8842 56.9614 47.3057 56.6489 47.6164C56.3364 47.9271 55.9126 48.1017 55.4706 48.1017H53.8788C53.8114 48.2903 53.7384 48.4781 53.6614 48.6635C53.5844 48.8489 53.5027 49.0328 53.413 49.2158L54.5398 50.3354C54.6946 50.4893 54.8173 50.672 54.9011 50.873C54.9848 51.0741 55.028 51.2895 55.028 51.5071C55.028 51.7247 54.9848 51.9402 54.9011 52.1413C54.8173 52.3423 54.6946 52.525 54.5398 52.6788L51.361 55.8397C51.2061 55.993 51.0222 56.1145 50.82 56.1971C50.6178 56.2797 50.4012 56.3218 50.1826 56.321C49.9638 56.3214 49.747 56.2789 49.5448 56.1957C49.3425 56.1126 49.1588 55.9905 49.0042 55.8365L47.8774 54.7169C47.6944 54.8042 47.5093 54.8863 47.322 54.9631C47.1347 55.042 46.9459 55.1122 46.7562 55.18V56.762C46.7562 57.2015 46.5806 57.6229 46.2681 57.9337C45.9556 58.2444 45.5318 58.419 45.0898 58.419H40.5953C40.1534 58.419 39.7295 58.2444 39.417 57.9337C39.1045 57.6229 38.9289 57.2015 38.9289 56.762V55.1816C38.7393 55.1138 38.5504 55.042 38.3632 54.9646C38.1759 54.8873 37.9926 54.8068 37.8077 54.7185L36.6809 55.8381C36.3684 56.1486 35.9447 56.3231 35.5029 56.3231C35.0611 56.3231 34.6374 56.1486 34.325 55.8381L31.1453 52.6773C30.8331 52.3664 30.6579 51.9449 30.6581 51.5056C30.6568 51.0668 30.8306 50.6454 31.1414 50.3339L32.2682 49.2142C32.1798 49.0312 32.0973 48.8471 32.0206 48.6619C31.9412 48.4757 31.8706 48.2879 31.8024 48.0993H30.2153C29.7734 48.0993 29.3495 47.9248 29.037 47.614C28.7245 47.3033 28.5489 46.8818 28.5489 46.4424V41.9741C28.5489 41.5347 28.7245 41.1132 29.037 40.8025C29.3495 40.4918 29.7734 40.3172 30.2153 40.3172H31.8024C31.8698 40.1286 31.9428 39.9408 32.0206 39.7554C32.0983 39.57 32.1793 39.3861 32.2682 39.2031L31.1422 38.0827C31.1168 38.0574 31.0937 38.0314 31.0715 38.0038C30.7916 37.688 30.6431 37.2781 30.656 36.8574C30.669 36.4367 30.8425 36.0366 31.1414 35.7385L34.321 32.5776C34.4754 32.4236 34.659 32.3015 34.8611 32.2184C35.0632 32.1352 35.2798 32.0927 35.4986 32.0932C35.7167 32.0926 35.9327 32.1349 36.1344 32.2174C36.336 32.3 36.5193 32.4214 36.6738 32.5745L37.8006 33.6949C37.9847 33.6073 38.1695 33.5245 38.356 33.4479C38.5425 33.3714 38.7314 33.2988 38.9218 33.2317V31.6521C38.9218 31.2127 39.0974 30.7912 39.4099 30.4805C39.7224 30.1697 40.1462 29.9952 40.5882 29.9952H40.5953ZM45.6127 41.4542C46.2539 42.0913 46.653 42.9297 46.742 43.8266C46.8311 44.7235 46.6046 45.6234 46.1012 46.3729C45.5978 47.1224 44.8486 47.6751 43.9813 47.9369C43.114 48.1987 42.1822 48.1533 41.3447 47.8086C40.5073 47.4638 39.8159 46.8409 39.3886 46.0461C38.9612 45.2513 38.8242 44.3337 39.001 43.4498C39.1778 42.5658 39.6573 41.7701 40.358 41.1983C41.0586 40.6266 41.937 40.314 42.8434 40.314C43.3577 40.3133 43.8672 40.4136 44.3425 40.6093C44.8177 40.805 45.2494 41.0921 45.6127 41.4542ZM42.8434 38.4243C44.189 38.4245 45.493 38.8885 46.5331 39.7375C47.5732 40.5864 48.2851 41.7677 48.5475 43.08C48.81 44.3923 48.6066 45.7545 47.9722 46.9345C47.3378 48.1145 46.3116 49.0393 45.0683 49.5513C43.8251 50.0633 42.4418 50.1308 41.1541 49.7423C39.8664 49.3539 38.754 48.5335 38.0064 47.421C37.2589 46.3084 36.9223 44.9726 37.0542 43.641C37.1861 42.3094 37.7783 41.0645 38.7298 40.1183C39.2693 39.5802 39.9104 39.1534 40.6164 38.8626C41.3224 38.5717 42.0792 38.4233 42.8434 38.4243ZM17.6222 44.469H13.5943V46.5063C13.5938 46.7116 13.5262 46.9113 13.4017 47.0751C13.2772 47.2389 13.1025 47.358 12.9039 47.4145C12.215 47.6116 11.5497 47.883 10.9201 48.224C10.7372 48.3442 10.5181 48.3978 10.3 48.376C10.0818 48.3541 9.87792 48.2581 9.72273 48.1041L8.27297 46.6625L5.42503 49.4943L6.87479 50.9359C7.02065 51.0804 7.11508 51.2684 7.14372 51.4712C7.17236 51.674 7.13366 51.8805 7.03349 52.0595C6.85354 52.3835 6.69194 52.7172 6.54945 53.0591C6.41312 53.3865 6.29497 53.721 6.19554 54.0612C6.14584 54.2679 6.02764 54.452 5.85995 54.5838C5.69226 54.7156 5.48485 54.7875 5.27109 54.7879H3.21509V58.7922H5.26395C5.47036 58.7926 5.67104 58.8597 5.83577 58.9834C6.0005 59.1071 6.12035 59.2806 6.17729 59.4779C6.37577 60.1659 6.64986 60.83 6.99461 61.4583C7.11534 61.6401 7.16934 61.8577 7.14751 62.0744C7.12568 62.2912 7.02936 62.4938 6.87479 62.6482L5.42107 64.0905L8.269 66.9215L9.71876 65.48C9.86476 65.3357 10.0539 65.2423 10.2577 65.2139C10.4616 65.1854 10.6692 65.2234 10.8495 65.3222C11.4886 65.6745 12.1651 65.955 12.8666 66.1585C13.0744 66.2081 13.2594 66.3257 13.3918 66.4924C13.5242 66.6592 13.5963 66.8653 13.5967 67.0778V69.1166H17.6246V67.0778C17.625 66.8724 17.6926 66.6728 17.8172 66.509C17.9417 66.3452 18.1164 66.2261 18.3149 66.1696C18.6712 66.0691 19.0212 65.9479 19.3632 65.8066C19.684 65.6746 19.9976 65.5257 20.3027 65.3608C20.4856 65.2406 20.7046 65.1868 20.9227 65.2085C21.1409 65.2302 21.3448 65.3261 21.5001 65.48L22.9443 66.9215L25.7923 64.0897L24.3457 62.6466C24.1998 62.502 24.1054 62.3141 24.0767 62.1113C24.0481 61.9085 24.0868 61.7019 24.187 61.523C24.3668 61.1989 24.5284 60.8652 24.671 60.5233C24.8073 60.1958 24.9252 59.861 25.0241 59.5205C25.074 59.3138 25.1924 59.1298 25.3602 58.9981C25.5281 58.8664 25.7356 58.7947 25.9494 58.7946H27.9982V54.7903H25.9525C25.7461 54.7899 25.5455 54.7228 25.3807 54.5991C25.216 54.4754 25.0961 54.3019 25.0392 54.1046C24.8424 53.4175 24.5693 52.7544 24.2251 52.1273C24.1042 51.9454 24.0502 51.7276 24.0722 51.5106C24.0942 51.2937 24.1908 51.091 24.3457 50.9367L25.7954 49.4951L22.9443 46.6625L21.4946 48.1041C21.3491 48.249 21.1601 48.3428 20.9562 48.3713C20.7523 48.3998 20.5446 48.3613 20.3646 48.2619C20.0389 48.0824 19.7033 47.9214 19.3592 47.7798C19.0301 47.6441 18.6937 47.5269 18.3514 47.4287C18.1436 47.3791 17.9585 47.2613 17.8261 47.0945C17.6937 46.9276 17.6216 46.7212 17.6214 46.5087L17.6222 44.469ZM13.3602 42.5754C13.1414 42.5754 12.9247 42.6182 12.7225 42.7015C12.5203 42.7848 12.3366 42.9068 12.1819 43.0607C12.0272 43.2145 11.9044 43.3972 11.8207 43.5982C11.7369 43.7993 11.6938 44.0147 11.6938 44.2323V45.8151C11.5039 45.8824 11.3153 45.9548 11.128 46.0321C10.9408 46.1094 10.7556 46.1915 10.5726 46.2783L9.44658 45.1579C9.13327 44.8489 8.70949 44.676 8.26821 44.6773V44.6734C8.04939 44.673 7.83264 44.7156 7.63042 44.7988C7.42821 44.8819 7.24449 45.0039 7.08983 45.1579L3.911 48.3187C3.75569 48.4729 3.63266 48.6562 3.54903 48.858C3.46541 49.0598 3.42283 49.2761 3.42378 49.4943C3.42276 49.8968 3.5698 50.2858 3.8372 50.5879C3.85921 50.6155 3.88279 50.6419 3.90783 50.6668L5.03462 51.7872C4.94575 51.9703 4.86296 52.1544 4.78625 52.3396C4.7069 52.5258 4.63628 52.7128 4.56804 52.9013H2.981C2.53905 52.9013 2.11519 53.0759 1.80269 53.3867C1.49018 53.6974 1.31461 54.1188 1.31461 54.5583V59.0281C1.31461 59.4676 1.49018 59.889 1.80269 60.1998C2.11519 60.5105 2.53905 60.6851 2.981 60.6851H4.56804C4.63628 60.8744 4.70849 61.0622 4.78625 61.2477C4.86402 61.4331 4.94496 61.6161 5.03383 61.8L3.90783 62.9204C3.75339 63.0743 3.6311 63.257 3.54803 63.4581C3.46495 63.6592 3.42272 63.8747 3.42378 64.0921C3.42336 64.3097 3.46618 64.5252 3.5498 64.7263C3.63341 64.9274 3.75616 65.11 3.911 65.2638L7.08983 68.4246C7.24458 68.5785 7.42828 68.7006 7.63047 68.7838C7.83266 68.8671 8.04936 68.91 8.26821 68.91C8.48705 68.91 8.70376 68.8671 8.90595 68.7838C9.10813 68.7006 9.29184 68.5785 9.44658 68.4246L10.5734 67.3018C10.7575 67.3892 10.9426 67.4712 11.1288 67.548C11.3153 67.6269 11.5042 67.6979 11.6938 67.765V69.343C11.6938 69.7825 11.8694 70.2039 12.1819 70.5147C12.4944 70.8254 12.9183 71 13.3602 71H17.8563C18.2982 71 18.7221 70.8254 19.0346 70.5147C19.3471 70.2039 19.5227 69.7825 19.5227 69.343V67.765C19.7123 67.6971 19.9012 67.6253 20.0884 67.548C20.2757 67.4707 20.459 67.3902 20.6439 67.3018L21.7699 68.4223C22.0826 68.7327 22.5064 68.907 22.9483 68.9067C23.1669 68.9077 23.3836 68.8657 23.5858 68.7831C23.788 68.7005 23.9718 68.5789 24.1267 68.4254L27.3087 65.2614C27.62 64.9508 27.7948 64.5302 27.7948 64.0917C27.7948 63.6532 27.62 63.2325 27.3087 62.922L26.1819 61.8015C26.2707 61.6185 26.3535 61.4344 26.4302 61.2492C26.507 61.0641 26.5794 60.8765 26.6477 60.6867H28.2395C28.6814 60.6867 29.1053 60.5121 29.4178 60.2013C29.7303 59.8906 29.9059 59.4692 29.9059 59.0297V54.5575C29.9059 54.1181 29.7303 53.6966 29.4178 53.3859C29.1053 53.0751 28.6814 52.9006 28.2395 52.9006H26.6437C26.5763 52.712 26.5032 52.5242 26.4263 52.338C26.3493 52.1518 26.2676 51.9695 26.1779 51.7857L27.3047 50.6652C27.4595 50.5114 27.5822 50.3287 27.666 50.1277C27.7497 49.9266 27.7928 49.7112 27.7928 49.4935C27.7928 49.2759 27.7497 49.0605 27.666 48.8594C27.5822 48.6584 27.4595 48.4757 27.3047 48.3218L24.1259 45.1618C23.9715 45.0088 23.7884 44.8876 23.5868 44.8052C23.3853 44.7227 23.1694 44.6806 22.9515 44.6813V44.6773C22.5477 44.6776 22.1579 44.824 21.8548 45.0892C21.827 45.1121 21.7993 45.1358 21.7755 45.1618L20.6431 46.2822C20.4598 46.1946 20.2741 46.1118 20.0877 46.0352C19.9012 45.9587 19.7123 45.8861 19.5227 45.8191V44.2363C19.5227 43.7968 19.3471 43.3754 19.0346 43.0646C18.7221 42.7539 18.2982 42.5793 17.8563 42.5793L13.3602 42.5754ZM18.3776 54.0352C19.0181 54.6723 19.4167 55.5105 19.5053 56.407C19.594 57.3035 19.3673 58.2028 18.8639 58.9518C18.3605 59.7008 17.6115 60.253 16.7445 60.5144C15.8775 60.7758 14.9462 60.7302 14.1092 60.3854C13.2722 60.0406 12.5814 59.4179 12.1544 58.6233C11.7274 57.8288 11.5906 56.9117 11.7674 56.0282C11.9442 55.1447 12.4236 54.3494 13.124 53.778C13.8243 53.2065 14.7023 52.8942 15.6082 52.8942C16.1227 52.8935 16.6322 52.994 17.1075 53.1898C17.5828 53.3856 18.0144 53.6729 18.3776 54.0352ZM15.6082 51.0045C16.9538 51.003 18.2583 51.4655 19.2994 52.313C20.3405 53.1606 21.0539 54.3409 21.3181 55.6528C21.5822 56.9647 21.3807 58.3271 20.7479 59.5079C20.1152 60.6887 19.0902 61.6148 17.8478 62.1284C16.6054 62.6421 15.2222 62.7115 13.9341 62.3249C12.6459 61.9383 11.5324 61.1196 10.7832 60.0082C10.034 58.8968 9.69553 57.5616 9.82541 56.2299C9.95528 54.8982 10.5455 53.6524 11.4954 52.7049C12.0348 52.1668 12.6758 51.7401 13.3817 51.4493C14.0875 51.1586 14.8442 51.0096 15.6082 51.0108V51.0045ZM38.6242 25.983C38.6242 26.2341 38.5239 26.4749 38.3453 26.6525C38.1668 26.83 37.9246 26.9298 37.672 26.9298C37.4195 26.9298 37.1773 26.83 36.9987 26.6525C36.8201 26.4749 36.7198 26.2341 36.7198 25.983V10.8289H33.6568C33.4665 10.8281 33.2807 10.7706 33.1236 10.6637C32.9665 10.5569 32.8451 10.4057 32.7753 10.2297C32.7054 10.0536 32.6902 9.86077 32.7316 9.67603C32.7731 9.4913 32.8692 9.32316 33.0077 9.1933L40.9889 0.313612C41.1563 0.127648 41.391 0.0153723 41.6416 0.00146441C41.8922 -0.0124435 42.1381 0.0731549 42.3252 0.239443C42.3532 0.264124 42.3797 0.290473 42.4045 0.318346L50.4413 9.25642C50.563 9.39186 50.6428 9.55943 50.6709 9.73892C50.699 9.9184 50.6742 10.1021 50.5997 10.268C50.5251 10.4338 50.4038 10.5746 50.2506 10.6735C50.0973 10.7723 49.9185 10.8249 49.7359 10.825H46.6657V24.8689C46.6657 25.12 46.5654 25.3608 46.3868 25.5384C46.2083 25.7159 45.9661 25.8157 45.7135 25.8157C45.461 25.8157 45.2188 25.7159 45.0402 25.5384C44.8616 25.3608 44.7613 25.12 44.7613 24.8689V9.8837C44.7613 9.63258 44.8616 9.39175 45.0402 9.21419C45.2188 9.03662 45.461 8.93687 45.7135 8.93687H47.618L41.6944 2.35561L35.7723 8.93844H37.6768C37.9293 8.93844 38.1715 9.0382 38.3501 9.21576C38.5287 9.39333 38.629 9.63416 38.629 9.88527V25.9814L38.6242 25.983ZM22.2714 32.8009C22.2714 33.052 22.1711 33.2929 21.9925 33.4704C21.8139 33.648 21.5717 33.7478 21.3192 33.7478C21.0666 33.7478 20.8244 33.648 20.6459 33.4704C20.4673 33.2929 20.367 33.052 20.367 32.8009V17.6461H17.2961C17.1071 17.6434 16.9233 17.5848 16.768 17.4779C16.6126 17.3709 16.4928 17.2205 16.4237 17.0456C16.3546 16.8707 16.3394 16.6794 16.38 16.4959C16.4206 16.3124 16.5152 16.1451 16.6517 16.0152L24.6361 7.13868C24.8036 6.95267 25.0385 6.84037 25.2892 6.82646C25.5399 6.81256 25.7859 6.89818 25.9732 7.06451C26.001 7.08936 26.0275 7.1157 26.0525 7.14341L34.0885 16.0736C34.2106 16.2089 34.2906 16.3765 34.3189 16.5561C34.3472 16.7357 34.3225 16.9196 34.2479 17.0856C34.1733 17.2516 34.0518 17.3925 33.8984 17.4912C33.7449 17.59 33.5659 17.6424 33.383 17.6422V17.6461H30.3129V31.6868C30.3129 31.8112 30.2883 31.9343 30.2404 32.0492C30.1926 32.164 30.1224 32.2684 30.034 32.3563C29.9456 32.4443 29.8406 32.514 29.7251 32.5616C29.6096 32.6092 29.4858 32.6337 29.3607 32.6337C29.2357 32.6337 29.1118 32.6092 28.9963 32.5616C28.8808 32.514 28.7758 32.4443 28.6874 32.3563C28.599 32.2684 28.5288 32.164 28.481 32.0492C28.4331 31.9343 28.4085 31.8112 28.4085 31.6868V16.7017C28.4085 16.4505 28.5088 16.2097 28.6874 16.0322C28.866 15.8546 29.1082 15.7548 29.3607 15.7548H31.2651L25.3431 9.172L19.4219 15.7548H21.3263C21.5789 15.7548 21.8211 15.8546 21.9997 16.0322C22.1782 16.2097 22.2786 16.4505 22.2786 16.7017V32.7978L22.2714 32.8009ZM5.9186 39.6181V23.5188C5.9186 23.3945 5.89397 23.2714 5.84612 23.1565C5.79827 23.0416 5.72812 22.9373 5.6397 22.8493C5.55128 22.7614 5.44631 22.6917 5.33078 22.6441C5.21525 22.5965 5.09143 22.572 4.96638 22.572H3.06749L8.98872 15.9892L14.9107 22.572H13.0063C12.8813 22.572 12.7574 22.5965 12.6419 22.6441C12.5264 22.6917 12.4214 22.7614 12.333 22.8493C12.2446 22.9373 12.1744 23.0416 12.1266 23.1565C12.0787 23.2714 12.0541 23.3945 12.0541 23.5188V38.5024C12.0457 38.6316 12.064 38.7612 12.108 38.8831C12.1519 39.005 12.2206 39.1166 12.3096 39.2111C12.3987 39.3055 12.5063 39.3808 12.6258 39.4323C12.7453 39.4838 12.8741 39.5103 13.0043 39.5103C13.1345 39.5103 13.2634 39.4838 13.3829 39.4323C13.5024 39.3808 13.61 39.3055 13.699 39.2111C13.7881 39.1166 13.8567 39.005 13.9007 38.8831C13.9446 38.7612 13.963 38.6316 13.9546 38.5024V24.4641H17.0247V24.4578C17.2075 24.458 17.3865 24.4056 17.54 24.3068C17.6935 24.2081 17.8149 24.0672 17.8895 23.9012C17.9642 23.7352 17.9888 23.5513 17.9605 23.3717C17.9322 23.1921 17.8522 23.0245 17.7301 22.8892L9.69892 13.9566C9.67391 13.929 9.64742 13.9026 9.61957 13.8777C9.43254 13.7114 9.18673 13.6256 8.93615 13.6394C8.68558 13.6531 8.45075 13.7653 8.28329 13.9511L0.298909 22.8284C0.160477 22.9583 0.0643324 23.1263 0.0228753 23.311C-0.0185817 23.4956 -0.00344956 23.6884 0.06632 23.8644C0.13609 24.0405 0.257296 24.1917 0.414308 24.2986C0.57132 24.4054 0.756935 24.4631 0.947213 24.4641H4.01813V39.6181C4.00973 39.7473 4.02807 39.8769 4.07202 39.9988C4.11597 40.1207 4.1846 40.2323 4.27366 40.3267C4.36272 40.4212 4.47032 40.4965 4.58981 40.548C4.7093 40.5995 4.83814 40.626 4.96836 40.626C5.09859 40.626 5.22743 40.5995 5.34691 40.548C5.4664 40.4965 5.57401 40.4212 5.66307 40.3267C5.75213 40.2323 5.82076 40.1207 5.86471 39.9988C5.90866 39.8769 5.927 39.7473 5.9186 39.6181ZM52.6568 28.9797C52.7112 29.2165 52.6714 29.465 52.5458 29.6733C52.4202 29.8816 52.2185 30.0335 51.9829 30.0974C51.7472 30.1613 51.4959 30.1321 51.2813 30.016C51.0668 29.8999 50.9057 29.7059 50.8317 29.4744L49.8835 26.0421C49.8415 25.9162 49.8265 25.7828 49.8397 25.6507C49.8529 25.5187 49.8938 25.3908 49.9599 25.2755C50.026 25.1602 50.1157 25.06 50.2232 24.9813C50.3308 24.9027 50.4537 24.8475 50.5841 24.8192L54.0391 23.8723C54.2772 23.8183 54.5271 23.8578 54.7366 23.9827C54.9461 24.1076 55.099 24.3081 55.1632 24.5424C55.2274 24.7767 55.1981 25.0267 55.0813 25.24C54.9646 25.4533 54.7694 25.6135 54.5366 25.6871L53.4122 25.994C57.812 28.5148 61.1524 32.5258 62.823 37.2938C64.4935 42.0619 64.3826 47.2685 62.5106 51.9619C60.6385 56.6553 57.1302 60.5221 52.6271 62.8554C48.124 65.1887 42.9268 65.8327 37.9855 64.6696C36.3965 64.2964 34.8568 63.7404 33.3973 63.0127C33.1729 62.9011 33.0022 62.7053 32.9229 62.4686C32.8436 62.2318 32.8621 61.9734 32.9744 61.7503C33.0867 61.5271 33.2835 61.3574 33.5216 61.2785C33.7597 61.1997 34.0196 61.2181 34.244 61.3297C35.5712 61.989 36.9711 62.4921 38.4155 62.8289C42.9315 63.8876 47.6802 63.2886 51.7872 61.142C55.8942 58.9954 59.083 55.4458 60.7666 51.1467C62.4502 46.8476 62.5153 42.0884 60.9497 37.7454C59.3841 33.4024 56.2934 29.768 52.2466 27.5113L52.6568 28.9797Z" fill="black"/>
</svg>
