<svg width="65" height="59" viewBox="0 0 65 59" fill="none" xmlns="http://www.w3.org/2000/svg">
<path fill-rule="evenodd" clip-rule="evenodd" d="M41.8742 29.3782C42.9503 29.3782 43.822 30.2526 43.822 31.3305C43.822 32.4083 42.9496 33.2827 41.8742 33.2827C40.7988 33.2827 39.9263 32.4083 39.9263 31.3305C39.9263 30.2526 40.7988 29.3782 41.8742 29.3782ZM59.4785 2.28126L57.9344 1.63992L57.1234 2.59903C56.9666 2.78362 56.7218 2.88785 56.4632 2.85528C56.1881 2.82053 55.9129 2.80316 55.6399 2.80316C55.3784 2.80316 55.1177 2.81909 54.8599 2.85021C54.6064 2.89726 54.3355 2.8104 54.1579 2.59903L53.3461 1.63847L51.8027 2.27909L51.906 3.53426H51.9038C51.9233 3.77675 51.8244 4.02431 51.6178 4.18429C51.4026 4.3515 51.1953 4.53391 50.9988 4.7308C50.8176 4.91249 50.6464 5.10503 50.4868 5.30844C50.3416 5.5256 50.0859 5.65879 49.8079 5.63635L48.5563 5.53211L47.9164 7.07972L48.8733 7.89262C49.0582 8.05042 49.1622 8.29508 49.129 8.55423C49.0943 8.83002 49.077 9.10581 49.077 9.37943C49.077 9.64146 49.0929 9.90278 49.1239 10.1612C49.1709 10.4153 49.0842 10.6867 48.8733 10.8648L47.9149 11.6784L48.5541 13.2253L49.8064 13.1218V13.124C50.0484 13.1044 50.2954 13.2036 50.455 13.4106C50.6218 13.6263 50.8038 13.8341 51.0003 14.0309C51.1816 14.2126 51.3737 14.3842 51.5766 14.5442C51.7933 14.6897 51.9262 14.9459 51.9038 15.2246L51.7998 16.479L53.3439 17.1204L54.155 16.1613C54.3117 15.9767 54.5566 15.8724 54.8151 15.905C55.0903 15.9398 55.3655 15.9571 55.6385 15.9571C55.8999 15.9571 56.1606 15.9412 56.4185 15.9101C56.672 15.863 56.9428 15.9499 57.1205 16.1613L57.9323 17.1218L59.4757 16.4812L59.3724 15.226H59.3745C59.355 14.9835 59.454 14.736 59.6606 14.576C59.8758 14.4088 60.0831 14.2264 60.2795 14.0295C60.4608 13.8478 60.632 13.6553 60.7916 13.4519C60.9367 13.2347 61.1924 13.1015 61.4705 13.124L62.7221 13.2282L63.362 11.6806L62.405 10.8677C62.2201 10.7099 62.1161 10.4652 62.1494 10.2061C62.184 9.93028 62.2014 9.65449 62.2014 9.38087C62.2014 9.11884 62.1855 8.85752 62.1544 8.59911C62.1075 8.34503 62.1941 8.07358 62.405 7.89551L63.3634 7.0819L62.7243 5.53501L61.4719 5.63852V5.63635C61.23 5.65589 60.983 5.55672 60.8233 5.3497C60.6565 5.13399 60.4745 4.92624 60.2781 4.72935C60.0968 4.54766 59.9047 4.37611 59.7017 4.21614C59.4851 4.07064 59.3522 3.81439 59.3745 3.53571L59.4785 2.28126ZM58.0038 0.0568388L60.5496 1.1144C60.8551 1.2418 61.0313 1.54944 61.0053 1.86287L60.8898 3.27005C61.0429 3.40179 61.1895 3.5386 61.3311 3.68048C61.4719 3.82163 61.6077 3.96858 61.7377 4.12059L63.141 4.00477C63.4913 3.97581 63.8047 4.19514 63.9094 4.51654L64.9422 7.01747C65.0679 7.32366 64.9747 7.66533 64.7357 7.86801L63.661 8.78079C63.6762 8.98058 63.6834 9.18109 63.6834 9.38232C63.6834 9.58283 63.6762 9.78406 63.661 9.98457L64.7349 10.8966C64.9877 11.1109 65.0621 11.4591 64.9415 11.7501L63.8863 14.3017C63.7592 14.6079 63.4523 14.7845 63.1395 14.7584L61.7355 14.6426C61.6041 14.7961 61.4676 14.943 61.326 15.0849C61.1852 15.226 61.0386 15.3621 60.8869 15.4924L61.0025 16.8989C61.0313 17.25 60.8125 17.5641 60.4918 17.6691L57.9965 18.7042C57.691 18.8301 57.3501 18.7368 57.1479 18.4972L56.2379 17.4208C56.0386 17.436 55.8385 17.4432 55.6377 17.4432C55.4377 17.4432 55.2369 17.436 55.0368 17.4208L54.1268 18.4964C53.913 18.7498 53.5657 18.8243 53.2753 18.7035L50.7295 17.6459C50.4239 17.5185 50.2477 17.2109 50.2737 16.8974L50.3893 15.4902C50.2362 15.3585 50.0896 15.2217 49.948 15.0798C49.8072 14.9387 49.6714 14.7917 49.5414 14.6397L48.1381 14.7555C47.7878 14.7845 47.4744 14.5652 47.3696 14.2438L46.3368 11.7428C46.2112 11.4366 46.3043 11.095 46.5434 10.8923L47.6181 9.97951C47.6029 9.77972 47.5957 9.57921 47.5957 9.37798C47.5957 9.17747 47.6029 8.97624 47.6181 8.77573L46.5448 7.86366C46.2921 7.6494 46.2177 7.30122 46.3383 7.01023L47.3935 4.45863C47.5206 4.15244 47.8275 3.97581 48.1403 4.00187L49.5443 4.11769C49.6757 3.96423 49.8122 3.81729 49.9538 3.67541C50.0946 3.53426 50.2412 3.39817 50.3929 3.26788L50.2773 1.86142C50.2484 1.51035 50.4673 1.19619 50.788 1.09123L53.2833 0.0561147C53.5888 -0.0698369 53.9297 0.0235412 54.1319 0.263139L55.0419 1.33952C55.2412 1.32432 55.4413 1.31708 55.6421 1.31708C55.8421 1.31708 56.0429 1.32432 56.243 1.33952L57.153 0.263863C57.3668 0.010512 57.7141 -0.0640457 58.0045 0.0568388H58.0038ZM58.4624 8.20677C58.7614 8.93136 58.7852 9.77031 58.4624 10.5521C58.1388 11.3346 57.5314 11.9108 56.8106 12.2097C56.0877 12.5094 55.2506 12.5333 54.4706 12.2097C53.6906 11.8854 53.1157 11.2759 52.8174 10.5542C52.5184 9.82967 52.4946 8.99071 52.8174 8.20894C53.141 7.42645 53.7484 6.85026 54.4692 6.55131C55.1921 6.25163 56.0292 6.22774 56.8092 6.55131C57.5899 6.8756 58.1641 7.48436 58.4624 8.20677ZM57.3783 5.17597C58.5353 5.65662 59.3897 6.56361 59.8346 7.64144C60.2788 8.71709 60.3134 9.96286 59.8346 11.1232C59.355 12.2828 58.4501 13.1392 57.3747 13.585C56.3166 14.0237 55.0939 14.0642 53.9499 13.6046C53.9167 13.5937 53.8849 13.58 53.8538 13.5648C52.7206 13.0791 51.8836 12.1822 51.4445 11.1189C51.0068 10.0584 50.9663 8.83291 51.425 7.68632C51.4358 7.65302 51.4495 7.62117 51.4647 7.59004C51.9493 6.45431 52.8441 5.61536 53.9051 5.17525C54.9783 4.73008 56.2213 4.69461 57.379 5.17525L57.3783 5.17597ZM41.8908 50.7147H36.3636C36.3101 50.7147 36.2603 50.7371 36.2242 50.7733C36.1881 50.8095 36.1657 50.8588 36.1657 50.913V56.9573C37.1551 55.8961 39.2294 53.5045 40.996 51.6528C41.3137 51.3199 41.6142 51.0042 41.8908 50.7147ZM39.0033 6.23281H5.62617C5.16178 6.23281 4.74 6.42318 4.43449 6.72865C4.12899 7.03484 3.93977 7.45758 3.93977 7.92302V53.7332H1.68713C1.63368 53.7332 1.58385 53.7108 1.54774 53.6746C1.51163 53.6384 1.48924 53.5892 1.48924 53.5349V4.14882C1.48924 4.09525 1.51163 4.0453 1.54774 4.00911C1.58385 3.97292 1.63368 3.95048 1.68713 3.95048H38.627C38.7303 3.95048 38.8242 3.99319 38.8928 4.06123C38.9614 4.13 39.004 4.2241 39.004 4.32761V6.23208L39.0033 6.23281ZM11.399 28.435H26.3665C26.7774 28.435 27.1111 28.1013 27.1111 27.6887C27.1111 27.2761 26.7781 26.9424 26.3665 26.9424H11.399C10.988 26.9424 10.6543 27.2761 10.6543 27.6887C10.6543 28.1013 10.9873 28.435 11.399 28.435ZM11.399 33.3623H26.3665C26.7774 33.3623 27.1111 33.0286 27.1111 32.616C27.1111 32.2034 26.7781 31.8697 26.3665 31.8697H11.399C10.988 31.8697 10.6543 32.2034 10.6543 32.616C10.6543 33.0286 10.9873 33.3623 11.399 33.3623ZM8.58082 28.435H9.09649C9.50744 28.435 9.84111 28.1013 9.84111 27.6887C9.84111 27.2761 9.50816 26.9424 9.09649 26.9424H8.58082C8.16987 26.9424 7.8362 27.2761 7.8362 27.6887C7.8362 28.1013 8.16915 28.435 8.58082 28.435ZM8.58082 33.3623H9.09649C9.50744 33.3623 9.84111 33.0286 9.84111 32.616C9.84111 32.2034 9.50816 31.8697 9.09649 31.8697H8.58082C8.16987 31.8697 7.8362 32.2034 7.8362 32.616C7.8362 33.0286 8.16915 33.3623 8.58082 33.3623ZM41.8742 19.0763C38.7448 19.0763 35.6153 20.2728 33.2276 22.6659C30.84 25.0589 29.6461 28.1954 29.6461 31.3319C29.6461 34.4684 30.84 37.6049 33.2276 39.998C35.6153 42.391 38.7448 43.5876 41.8742 43.5876C45.0036 43.5876 48.133 42.391 50.5207 39.998C52.9084 37.6049 54.1023 34.4684 54.1023 31.3319C54.1023 28.1954 52.9084 25.0589 50.5207 22.6659C48.133 20.2728 45.0036 19.0763 41.8742 19.0763ZM32.1754 21.6112C34.8534 18.9271 38.3641 17.5844 41.8742 17.5844C42.2302 17.5844 42.587 17.5981 42.9424 17.6264V8.10254C42.9424 7.99903 42.8998 7.90492 42.8319 7.83616C42.7633 7.76739 42.6694 7.72541 42.5661 7.72541H5.62617C5.57273 7.72541 5.52289 7.74785 5.48678 7.78404C5.45067 7.82023 5.42828 7.87018 5.42828 7.92374V57.3091C5.42828 57.3626 5.45067 57.4126 5.48678 57.4488C5.52289 57.485 5.57201 57.5074 5.62617 57.5074H34.6772V50.9138C34.6772 50.4483 34.8671 50.0256 35.1719 49.7194C35.4774 49.4132 35.8992 49.2236 36.3636 49.2236H42.9424V45.0382C42.587 45.0657 42.2302 45.0802 41.8742 45.0802C38.3641 45.0802 34.8534 43.7381 32.1754 41.0533C29.4973 38.3693 28.1576 34.8506 28.1576 31.3326C28.1576 27.8147 29.4966 24.2953 32.1754 21.6112ZM51.0017 41.5941C51.196 41.4203 51.3867 41.2401 51.573 41.0533C51.7593 40.8666 51.9392 40.6755 52.1125 40.4808L54.4258 42.7993L53.315 43.9126L51.0017 41.5941ZM52.5213 45.2264C52.4715 45.4284 52.4469 45.6347 52.4469 45.8417C52.4469 46.4946 52.6946 47.1483 53.1901 47.6448L59.2973 53.7658C59.7927 54.2623 60.4449 54.5106 61.0963 54.5106C61.7478 54.5106 62.4 54.2623 62.8954 53.7658L64.2568 52.4013C64.7523 51.9047 65 51.2511 65 50.5982C65 49.9452 64.7523 49.2916 64.2568 48.795L58.1496 42.6741C57.6542 42.1775 57.002 41.9292 56.3506 41.9292C56.1447 41.9292 55.9382 41.9538 55.7367 42.0038L53.0478 39.3088C54.7429 36.9302 55.5901 34.1311 55.5901 31.3326C55.5901 27.8147 54.251 24.296 51.5723 21.6119C49.5472 19.5822 47.0468 18.3205 44.4302 17.8254V8.10326C44.4302 7.58787 44.2207 7.12026 43.8834 6.78222C43.5462 6.44345 43.0796 6.23426 42.5654 6.23426H40.4911V4.32978C40.4911 3.81439 40.2817 3.34678 39.9444 3.00874C39.6064 2.66997 39.1405 2.46078 38.6263 2.46078H1.68641C1.22201 2.46078 0.800231 2.65115 0.494728 2.95662C0.189224 3.26281 0 3.68555 0 4.15099V53.5363C0 54.0018 0.189224 54.4245 0.494728 54.7307C0.800231 55.0369 1.22201 55.2265 1.68641 55.2265H3.93904V57.3098C3.93904 57.7752 4.12827 58.198 4.43377 58.5042C4.73927 58.8103 5.16106 59 5.62545 59H35.5922C36.0415 59 39.545 55.3279 42.0706 52.6793C43.0117 51.6926 43.8134 50.8522 44.2185 50.4353C44.3587 50.2905 44.4287 50.1038 44.4287 49.9163H44.4309V44.8391C46.3397 44.4779 48.1865 43.7085 49.8324 42.5307L52.5213 45.2264ZM54.0885 45.2901C54.1312 45.2199 54.1824 45.1533 54.2431 45.0932L55.6045 43.7287C55.6645 43.6687 55.7309 43.6165 55.801 43.5738C55.8558 43.5543 55.9086 43.5282 55.9584 43.4956C56.0841 43.4457 56.2177 43.4211 56.3513 43.4211C56.6229 43.4211 56.8937 43.5239 57.0981 43.7287L63.2053 49.8497C63.4096 50.0545 63.5122 50.326 63.5122 50.5982C63.5122 50.8703 63.4096 51.1418 63.2053 51.3466L61.8439 52.7111C61.6395 52.916 61.3686 53.0187 61.0971 53.0187C60.8255 53.0187 60.5547 52.916 60.3503 52.7111L54.2431 46.5902C54.0387 46.3853 53.9362 46.1139 53.9362 45.8417C53.9362 45.7078 53.9607 45.5738 54.0105 45.4479C54.043 45.3979 54.069 45.3451 54.0885 45.2901ZM41.8742 21.8182C39.4446 21.8182 37.015 22.7469 35.1618 24.6051C33.3085 26.4625 32.3812 28.8976 32.3812 31.3326C32.3812 33.7677 33.3078 36.2028 35.1618 38.0602C37.015 39.9176 39.4446 40.847 41.8742 40.847C44.3038 40.847 46.7334 39.9183 48.5866 38.0602C50.4398 36.2028 51.3672 33.7677 51.3672 31.3326C51.3672 28.8976 50.4406 26.4625 48.5866 24.6051C46.7326 22.7477 44.3038 21.8182 41.8742 21.8182ZM34.1095 23.5497C31.9652 25.6988 30.8927 28.5154 30.8927 31.3319C30.8927 34.1485 31.9652 36.965 34.1095 39.1141C36.2538 41.2633 39.064 42.3382 41.8742 42.3382C44.6844 42.3382 47.4946 41.2633 49.6389 39.1141C51.7832 36.965 52.8557 34.1485 52.8557 31.3319C52.8557 28.5154 51.7832 25.6988 49.6389 23.5497C47.4946 21.4006 44.6844 20.3256 41.8742 20.3256C39.064 20.3256 36.2538 21.4006 34.1095 23.5497ZM50.4933 31.7177C50.6291 31.4926 50.6413 31.2023 50.5005 30.9591C49.6259 29.4434 48.362 28.1788 46.8446 27.3007C45.3784 26.4524 43.6812 25.9674 41.8742 25.9674C40.0672 25.9674 38.3699 26.4531 36.9038 27.3007C35.3907 28.1759 34.1297 29.4361 33.2551 30.9461C33.1193 31.1712 33.107 31.4615 33.2479 31.7047C34.1225 33.2205 35.3864 34.485 36.9038 35.3631C38.3699 36.2115 40.0672 36.6964 41.8742 36.6964C43.6812 36.6964 45.3784 36.2107 46.8446 35.3631C48.3577 34.4879 49.6187 33.2277 50.4933 31.7177ZM44.5529 28.6471C43.8675 27.9602 42.9207 27.5353 41.8742 27.5353C40.8277 27.5353 39.8808 27.9602 39.1954 28.6471C38.51 29.3341 38.0861 30.283 38.0861 31.3319C38.0861 32.3808 38.51 33.3298 39.1954 34.0167C39.8808 34.7037 40.8277 35.1286 41.8742 35.1286C42.9207 35.1286 43.8675 34.7037 44.5529 34.0167C45.2383 33.3298 45.6623 32.3808 45.6623 31.3319C45.6623 30.283 45.2383 29.3341 44.5529 28.6471ZM37.2107 33.8075C36.8193 33.0692 36.5976 32.2266 36.5976 31.3319C36.5976 30.4372 36.8193 29.5947 37.2107 28.8563C36.235 29.502 35.4001 30.346 34.7617 31.3319C35.4001 32.3178 36.235 33.1618 37.2107 33.8075ZM46.5383 28.8563C47.5141 29.502 48.349 30.346 48.9874 31.3319C48.349 32.3178 47.5141 33.1618 46.5383 33.8075C46.9298 33.0692 47.1508 32.2266 47.1508 31.3319C47.1508 30.4372 46.9298 29.5947 46.5383 28.8563ZM11.399 38.2897H26.3665C26.7774 38.2897 27.1111 37.956 27.1111 37.5434C27.1111 37.1308 26.7781 36.7971 26.3665 36.7971H11.399C10.988 36.7971 10.6543 37.1308 10.6543 37.5434C10.6543 37.956 10.9873 38.2897 11.399 38.2897ZM11.399 43.217H30.5186C30.9295 43.217 31.2632 42.8833 31.2632 42.4707C31.2632 42.0581 30.9302 41.7244 30.5186 41.7244H11.399C10.988 41.7244 10.6543 42.0581 10.6543 42.4707C10.6543 42.8833 10.9873 43.217 11.399 43.217ZM8.58082 38.2897H9.09649C9.50744 38.2897 9.84111 37.956 9.84111 37.5434C9.84111 37.1308 9.50816 36.7971 9.09649 36.7971H8.58082C8.16987 36.7971 7.8362 37.1308 7.8362 37.5434C7.8362 37.956 8.16915 38.2897 8.58082 38.2897ZM8.58082 43.217H9.09649C9.50744 43.217 9.84111 42.8833 9.84111 42.4707C9.84111 42.0581 9.50816 41.7244 9.09649 41.7244H8.58082C8.16987 41.7244 7.8362 42.0581 7.8362 42.4707C7.8362 42.8833 8.16915 43.217 8.58082 43.217ZM11.399 48.1443H33.0688C33.4797 48.1443 33.8134 47.8106 33.8134 47.398C33.8134 46.9854 33.4804 46.6517 33.0688 46.6517H11.399C10.988 46.6517 10.6543 46.9854 10.6543 47.398C10.6543 47.8106 10.9873 48.1443 11.399 48.1443ZM11.399 53.0716H31.8735C32.2844 53.0716 32.6181 52.7379 32.6181 52.3253C32.6181 51.9127 32.2851 51.579 31.8735 51.579H11.399C10.988 51.579 10.6543 51.9127 10.6543 52.3253C10.6543 52.7379 10.9873 53.0716 11.399 53.0716ZM8.58082 48.1443H9.09649C9.50744 48.1443 9.84111 47.8106 9.84111 47.398C9.84111 46.9854 9.50816 46.6517 9.09649 46.6517H8.58082C8.16987 46.6517 7.8362 46.9854 7.8362 47.398C7.8362 47.8106 8.16915 48.1443 8.58082 48.1443ZM8.58082 53.0716H9.09649C9.50744 53.0716 9.84111 52.7379 9.84111 52.3253C9.84111 51.9127 9.50816 51.579 9.09649 51.579H8.58082C8.16987 51.579 7.8362 51.9127 7.8362 52.3253C7.8362 52.7379 8.16915 53.0716 8.58082 53.0716ZM33.6386 11.9593H14.7321V13.8275H33.6386V11.9593ZM13.9882 10.4674C13.5772 10.4674 13.2435 10.8011 13.2435 11.2137V14.5738C13.2435 14.9857 13.5765 15.3201 13.9882 15.3201H34.3832C34.7942 15.3201 35.1278 14.9864 35.1278 14.5738V11.2137C35.1278 10.8018 34.7949 10.4674 34.3832 10.4674H13.9882ZM11.3997 19.4136H31.8742C32.2851 19.4136 32.6188 19.0799 32.6188 18.6673C32.6188 18.2547 32.2859 17.921 31.8742 17.921H11.3997C10.9887 17.921 10.6551 18.2547 10.6551 18.6673C10.6551 19.0799 10.988 19.4136 11.3997 19.4136ZM11.3997 24.3409H26.3672C26.7781 24.3409 27.1118 24.0072 27.1118 23.5946C27.1118 23.182 26.7789 22.8483 26.3672 22.8483H11.3997C10.9887 22.8483 10.6551 23.182 10.6551 23.5946C10.6551 24.0072 10.988 24.3409 11.3997 24.3409ZM8.58154 19.4136H9.09721C9.50816 19.4136 9.84183 19.0799 9.84183 18.6673C9.84183 18.2547 9.50888 17.921 9.09721 17.921H8.58154C8.17059 17.921 7.83692 18.2547 7.83692 18.6673C7.83692 19.0799 8.16987 19.4136 8.58154 19.4136ZM8.58154 24.3409H9.09721C9.50816 24.3409 9.84183 24.0072 9.84183 23.5946C9.84183 23.182 9.50888 22.8483 9.09721 22.8483H8.58154C8.17059 22.8483 7.83692 23.182 7.83692 23.5946C7.83692 24.0072 8.16987 24.3409 8.58154 24.3409Z" fill="black"/>
</svg>
