<svg width="65" height="68" viewBox="0 0 65 68" fill="none" xmlns="http://www.w3.org/2000/svg">
<path d="M63.19 31.6675C64.32 31.6675 64.32 33.3675 63.19 33.3675H57.99C56.95 33.3675 56.95 31.6675 57.99 31.6675H63.19ZM53.73 9.5475C54.49 8.7875 55.72 10.0175 54.86 10.7775L51.17 14.3675C50.41 15.1275 49.28 13.9875 50.04 13.2375L53.73 9.5475ZM9.2 10.7775C8.35 10.0175 9.58 8.7875 10.33 9.5475L14.02 13.2375C14.78 13.9975 13.64 15.1275 12.89 14.3675L9.2 10.7775ZM31.23 0.8475C31.23 -0.2825 32.84 -0.2825 32.84 0.8475V5.9575C32.84 7.0875 31.23 7.0875 31.23 5.9575V0.8475ZM40.78 60.8875V57.9575H23.29V60.8875H40.78ZM40.78 56.3475V54.5475C40.78 53.9775 40.31 53.5075 39.74 53.5075H32.84V56.3475H40.78ZM31.23 53.5175H24.33C23.76 53.5175 23.29 53.9875 23.29 54.5575V56.3575H31.23V53.5175ZM23.95 62.5975L25.84 65.6275H38.23L40.12 62.5975H23.95ZM42.39 54.5575V61.7475C42.39 61.9375 42.39 62.0275 42.3 62.2175L39.46 66.8475C39.27 67.1275 38.99 67.3175 38.7 67.3175H25.37C25.09 67.3175 24.8 67.1275 24.71 66.8475L21.78 62.2175C21.69 62.1275 21.69 61.9375 21.69 61.7475V54.5575C21.69 53.7975 21.97 53.1375 22.45 52.6675C17.34 50.2075 13.28 45.9575 11.01 40.7575C10.92 40.2875 11.1 39.8075 11.48 39.6275L15.92 37.8275C14.6 36.7875 11.57 36.6975 10.34 36.6975C9.87 36.6975 9.49 36.3175 9.49 35.8475V28.1875C9.49 27.7175 9.87 27.3375 10.34 27.3375C17.43 27.3375 18.38 24.9775 13.37 19.9575C13.09 19.6775 13.09 19.1075 13.37 18.8275L18.85 13.3475C19.13 13.0675 19.7 13.0675 19.98 13.3475C24.9 18.6475 27.36 16.9375 27.36 10.3175C27.36 9.8475 27.74 9.4675 28.21 9.4675H35.87C36.34 9.4675 36.72 9.8475 36.72 10.3175C36.72 17.4075 39.08 18.3575 44.1 13.3475C44.38 13.0675 44.95 13.0675 45.23 13.4375L50.71 18.8275C50.99 19.1075 50.99 19.6775 50.71 19.9575C49.76 20.8075 47.78 23.0775 47.59 24.6875L51.94 22.8875C52.41 22.6975 52.89 22.8875 53.07 23.3575C56 30.5475 55.15 38.6775 50.61 45.1075C48.34 48.3275 45.22 50.9675 41.63 52.6675C42.1 53.1375 42.39 53.7975 42.39 54.5575ZM24.89 51.8175H31.23V41.9875C29.15 41.7975 27.26 41.0375 25.56 39.6275C24.8 38.9675 25.84 37.6375 26.69 38.3975C29.81 41.0475 34.54 40.9475 37.56 38.2075C39.07 36.8875 40.02 34.9975 40.3 32.9075C40.39 31.8675 42.1 32.0575 41.91 33.0975C41.63 35.6475 40.49 37.8275 38.69 39.4375C36.99 40.9475 34.91 41.7975 32.83 41.9875V51.8175H39.17C43.43 50.3075 47.02 47.4675 49.57 43.6875C53.26 38.1075 54.11 31.0175 51.84 24.6775L36.52 31.0075C36.61 31.3875 36.61 31.6675 36.61 32.0475C36.61 34.5975 34.53 36.5875 31.98 36.5875C30.37 36.5875 28.95 35.8275 28.1 34.5075L12.88 40.8475C15.25 45.9475 19.6 49.9175 24.89 51.8175ZM31.98 27.4175C33.68 27.4175 35.1 28.2675 35.95 29.4975L39.35 28.0775C38.69 26.8475 37.74 25.8075 36.61 25.0475C33.39 22.8775 28.95 23.3475 26.11 26.0875C24.6 27.5975 23.75 29.6775 23.75 32.0475C23.75 32.8075 23.84 33.6575 24.03 34.4075L27.53 32.9875C27.44 32.7075 27.44 32.3275 27.44 32.0375C27.45 29.4975 29.43 27.4175 31.98 27.4175ZM31.98 29.0275C30.37 29.0275 29.05 30.3475 29.05 32.0575C29.05 33.6675 30.37 34.9875 31.98 34.9875C33.68 34.9875 35.01 33.6675 35.01 32.0575C35.01 30.3475 33.69 29.0275 31.98 29.0275ZM40.87 27.4175L45.88 25.3375C45.6 23.1675 47.58 20.7975 48.91 19.3775L44.65 15.1175C39.07 20.3175 35.29 18.7075 35 11.1475H28.95C28.76 18.7075 24.98 20.3175 19.4 15.1175L15.14 19.3775C20.34 24.9575 18.73 28.7375 11.17 29.0275V35.0775C13.16 35.0775 16.18 35.4575 17.51 37.1575L22.52 35.0775C22.24 34.0375 22.05 33.0875 22.05 32.0475C22.05 29.2075 23.18 26.7475 24.98 24.9575C28.29 21.6475 33.58 21.0775 37.56 23.7275C38.98 24.6775 40.12 25.9075 40.87 27.4175ZM42.1 46.9875C41.82 47.3675 41.34 47.3675 40.97 47.0775C40.59 46.6975 40.59 46.2275 40.88 45.8475L41.73 44.9975C42.01 44.6175 42.2 44.3375 42.49 44.0475C42.77 43.6675 43.34 43.6675 43.72 43.9575C44 44.2375 44.1 44.8075 43.81 45.0875C43.53 45.4675 43.24 45.7475 42.96 46.0375L42.1 46.9875ZM46.17 42.0775C45.89 42.4575 45.41 42.5475 45.04 42.2675C44.67 41.9875 44.57 41.5075 44.76 41.1375C45.89 39.5275 46.75 37.9275 47.22 36.3175C47.79 34.7075 47.98 33.0075 47.88 31.1175C47.88 30.6475 48.16 30.2675 48.64 30.2675C49.11 30.2675 49.49 30.5475 49.59 31.0275C49.68 33.1075 49.4 34.9975 48.83 36.7975C48.25 38.6675 47.4 40.3675 46.17 42.0775ZM0.78 33.3775C-0.26 33.3775 -0.26 31.6775 0.78 31.6775H5.98C7.11 31.6775 7.11 33.3775 5.98 33.3775H0.78Z" fill="black"/>
</svg>
