<svg width="64" height="77" viewBox="0 0 64 77" fill="none" xmlns="http://www.w3.org/2000/svg">
<path fill-rule="evenodd" clip-rule="evenodd" d="M63.6736 40.015V11.8667C63.6736 11.0279 63.0201 10.332 62.1813 10.2818L61.5859 10.2474C52.1079 9.67317 42.9368 6.65408 34.9697 1.48906L33.3768 0.454453C32.4401 -0.151484 31.2335 -0.151484 30.2968 0.454453L28.7039 1.48906C20.7368 6.65408 11.5657 9.67317 2.08771 10.2474H2.08504C0.912859 10.3162 0 11.2873 0 12.4621C0 15.8357 0 28.7112 0 40.015C0 51.9856 6.5674 62.9903 17.1012 68.6766C24.3274 72.5742 31.207 76.2865 31.207 76.2865C31.6013 76.4982 32.0723 76.4982 32.4639 76.2865C32.4639 76.2865 39.3435 72.5742 46.5698 68.6766C57.1062 62.9903 63.6736 51.9856 63.6736 40.015ZM61.0276 12.8616V40.015C61.0276 51.0118 54.9947 61.1249 45.313 66.3481L31.8368 73.6193L18.358 66.3481C8.67889 61.1249 2.64601 51.0118 2.64601 40.015V12.8616C12.4389 12.2001 21.9037 9.05138 30.1434 3.70908L31.7362 2.67447C31.7971 2.63742 31.8765 2.63742 31.9373 2.67447L33.5303 3.70908C41.7699 9.05138 51.2347 12.2001 61.0276 12.8616ZM57.7492 17.0053C57.7492 16.1638 57.0956 15.4706 56.2568 15.4203C56.2145 15.4177 56.1642 15.4124 56.1087 15.4097C48.3294 14.9387 40.8041 12.4621 34.2632 8.22316L33.3768 7.64632C32.4401 7.04038 31.2335 7.04038 30.2968 7.64632C30.0455 7.81037 29.7464 8.00354 29.4104 8.22316C22.8695 12.4621 15.3442 14.9387 7.56227 15.4097C6.64146 15.4653 5.92442 16.23 5.92442 17.1508V39.0757C5.92442 49.1623 11.4572 58.4392 20.3372 63.2285C25.9759 66.2714 31.207 69.0947 31.207 69.0947C31.6013 69.3064 32.0723 69.3064 32.4639 69.0947C32.4639 69.0947 37.6977 66.2714 43.3364 63.2285C52.2137 58.4392 57.7492 49.1623 57.7492 39.0757V17.0053ZM55.1032 17.9922V39.0757C55.1032 48.1912 50.1022 56.5711 42.0795 60.9L31.8368 66.4275L21.5941 60.9C13.5714 56.5711 8.57043 48.1912 8.57043 39.0757V17.9922C16.5058 17.3704 24.1634 14.7773 30.8498 10.4432C31.1859 10.2236 31.4875 10.0304 31.7362 9.86634C31.7971 9.82665 31.8765 9.82665 31.9373 9.86634L32.8238 10.4432C39.5103 14.7773 47.1678 17.3704 55.1032 17.9922ZM15.9422 36.4482C15.4421 36.9695 15.4474 37.7923 15.9581 38.303L28.0133 50.3768C28.262 50.6255 28.5981 50.7657 28.95 50.7657C29.2993 50.7657 29.638 50.6255 29.884 50.3794L50.1551 30.1268C50.6711 29.6109 50.6738 28.7774 50.1631 28.2588L45.7786 23.832C45.5326 23.5833 45.1965 23.4404 44.8446 23.4404C44.4953 23.4377 44.1566 23.5753 43.9079 23.824L28.9924 38.6338L22.2292 31.8706C21.9778 31.6192 21.6364 31.479 21.2819 31.4843C20.9247 31.4869 20.586 31.6325 20.3399 31.8865L15.9422 36.4482ZM18.747 37.3504L21.311 34.6939L28.053 41.4386C28.569 41.9519 29.4025 41.9545 29.9211 41.4412L44.8314 26.6341L47.3557 29.1849L28.95 47.572L18.747 37.3504Z" fill="black"/>
</svg>
