<svg width="64" height="66" viewBox="0 0 64 66" fill="none" xmlns="http://www.w3.org/2000/svg">
<path d="M63.5578 42.8951C64.3766 41.2701 64.0375 39.3412 62.7137 38.0953L61.071 36.5491C60.7724 36.2684 60.6057 35.9776 60.5119 35.5782L59.9983 33.3787C59.5842 31.606 58.088 30.3471 56.275 30.2458L54.0257 30.1207C53.6173 30.0975 53.3028 29.9832 52.9753 29.7372L51.1717 28.3835C49.7181 27.2924 47.7652 27.2924 46.3115 28.3835L44.508 29.7372C44.1805 29.9832 43.8659 30.0982 43.4576 30.1207L41.2082 30.2458C39.5367 30.3392 38.1364 31.4187 37.6033 32.9757C35.074 31.0511 32.1956 29.6692 29.1433 28.8986C32.417 27.1839 34.8482 24.0445 35.5812 20.2453H35.6432C37.1337 20.2453 38.3464 19.0291 38.3464 17.5343C38.3464 16.3065 37.5283 15.2668 36.4101 14.9347C36.4036 9.5047 33.0894 4.70993 28.0885 2.77669C28.002 2.34041 27.8158 1.9374 27.5287 1.5865C26.7784 0.668351 25.4114 0.135841 23.4657 0.0027132C23.4174 -0.000904399 23.3698 -0.000904399 23.3214 0.0027132C21.3758 0.135841 20.0094 0.668351 19.2584 1.5865C18.9713 1.9374 18.7859 2.34041 18.6993 2.77669C13.6984 4.70993 10.385 9.5047 10.3777 14.9347C9.25955 15.2668 8.44146 16.3065 8.44146 17.5343C8.44146 19.0291 9.65417 20.2453 11.1446 20.2453H11.2067C11.9396 24.0445 14.3708 27.1832 17.6431 28.8979C13.9423 29.8313 10.4997 31.6618 7.62049 34.2729C3.32517 38.1698 0.619857 43.4855 0.00593056 49.2389C-0.0258118 49.5392 0.0708581 49.8395 0.272134 50.0638C0.473409 50.288 0.760533 50.4168 1.06136 50.4168H35.1945C35.5992 51.3205 36.3315 52.0657 37.2982 52.481L38.052 52.8052L34.1881 61.1285C33.9789 61.58 34.0359 62.1053 34.3382 62.5011C34.6397 62.8961 35.131 63.0878 35.6209 63.0025L38.9322 62.4222L40.6217 65.338C40.8612 65.7504 41.2963 66 41.7673 66C41.7875 66 41.8085 65.9993 41.8287 65.9986C42.325 65.9761 42.7636 65.6816 42.9735 65.2302L46.5691 57.4849L48.1815 56.9965C48.5732 56.8771 48.9072 56.8779 49.2997 56.9965L50.912 57.4849L54.5076 65.2302C54.7175 65.6816 55.1561 65.9761 55.651 65.9986C55.6719 65.9993 55.6921 66 55.7131 66C56.1856 66 56.6206 65.7504 56.8601 65.3373L58.549 62.4222L61.861 63.0025C62.3501 63.0886 62.8414 62.8954 63.1429 62.5003C63.4445 62.1053 63.5022 61.5793 63.293 61.1278L59.4291 52.8045L60.183 52.4803C61.8516 51.7633 62.8284 50.0674 62.6127 48.2593L62.3451 46.0157C62.2967 45.6083 62.3544 45.2777 62.5391 44.9116L63.5578 42.8951ZM18.8342 5.02683L19.4871 10.069C19.5628 10.6522 20.0952 11.0624 20.676 10.9879C21.2574 10.9119 21.6672 10.378 21.5922 9.79483L20.7748 3.48357C20.7359 3.18475 20.8167 3.0386 20.9011 2.93586C21.2387 2.52346 22.1679 2.22392 23.3943 2.13131C24.6214 2.22392 25.5506 2.52346 25.8875 2.93586C25.9719 3.0386 26.0527 3.18475 26.0137 3.48357L25.1964 9.79483C25.1206 10.378 25.5311 10.9119 26.1126 10.9879C26.1588 10.9937 26.2049 10.9966 26.2504 10.9966C26.7756 10.9966 27.2322 10.6052 27.3015 10.069L27.9544 5.02683C31.7512 6.77413 34.235 10.5574 34.2841 14.8226H30.6539V9.07854C30.6539 8.49032 30.1785 8.01425 29.5927 8.01425C29.0069 8.01425 28.5315 8.49104 28.5315 9.07854V14.8226H18.2578V9.07854C18.2578 8.49032 17.7824 8.01425 17.1966 8.01425C16.6108 8.01425 16.1354 8.49104 16.1354 9.07854V14.8226H12.5052C12.5535 10.5574 15.0374 6.77413 18.8342 5.02683ZM35.6439 16.9519C35.9585 16.9519 36.224 17.2181 36.224 17.5336C36.224 17.849 35.9585 18.1153 35.6439 18.1153H11.1461C10.8315 18.1153 10.566 17.849 10.566 17.5336C10.566 17.2181 10.8315 16.9519 11.1461 16.9519M13.3781 20.2446H33.4112C32.3305 24.844 28.2206 28.1816 23.3986 28.1831C23.3972 28.1831 23.3957 28.1831 23.395 28.1831C23.3936 28.1831 23.3928 28.1831 23.3914 28.1831C18.5687 28.1816 14.4588 24.844 13.3781 20.2446ZM23.3907 30.3124C23.3921 30.3124 23.3936 30.3124 23.3943 30.3124C23.3957 30.3124 23.3964 30.3124 23.3979 30.3124C28.3937 30.3131 33.2149 32.0633 37.0471 35.2504L36.9706 35.5782C36.8776 35.9776 36.7102 36.2684 36.4115 36.5491L34.7689 38.0953C33.4451 39.3412 33.106 41.2701 33.9248 42.8951L34.9413 44.9116C35.126 45.2777 35.1837 45.6083 35.1353 46.0157L34.8677 48.2593C34.8663 48.2687 34.8663 48.2781 34.8655 48.2868H2.27479C3.94848 37.9614 12.8255 30.3146 23.3907 30.3124ZM41.693 62.9467L40.3974 60.7104C40.1737 60.3247 39.7351 60.12 39.2972 60.1966L36.7571 60.6416L39.9551 53.753C40.0532 53.8499 40.1427 53.9614 40.2271 54.0909L41.46 55.9821C42.0855 56.9408 43.0442 57.5616 44.1018 57.7591L41.693 62.9467ZM58.1868 60.1966C57.7489 60.12 57.3096 60.3247 57.0866 60.7104L55.791 62.9467L53.3822 57.7584C54.4398 57.5609 55.3985 56.9415 56.024 55.9821L57.2569 54.0909C57.3413 53.9614 57.4308 53.8499 57.5289 53.753L60.7269 60.6416L58.1868 60.1966ZM61.6633 41.935L60.6468 43.9515C60.2746 44.6895 60.1418 45.4477 60.2392 46.2689L60.5069 48.5125C60.6108 49.3873 60.157 50.1774 59.349 50.5239L57.2778 51.4131C56.5196 51.7387 55.9316 52.2336 55.4808 52.926L54.2479 54.8173C53.7667 55.5545 52.9125 55.8664 52.0713 55.6117L49.915 54.9584C49.1258 54.7189 48.3582 54.7196 47.569 54.9584L45.4127 55.6117C44.5722 55.8671 43.7173 55.5553 43.2369 54.8173L42.004 52.9267C41.5524 52.2343 40.9644 51.7402 40.2069 51.4138L38.1357 50.5246C37.3277 50.1774 36.8732 49.388 36.9778 48.5133L37.2455 46.2696C37.3436 45.4484 37.2101 44.6902 36.8379 43.9522L35.8214 41.9357C35.4254 41.1493 35.5826 40.2514 36.2232 39.6487L37.8659 38.1025C38.4669 37.5367 38.8506 36.8697 39.0389 36.0644L39.5526 33.8642C39.7531 33.0061 40.4493 32.42 41.3266 32.3715L43.5759 32.2464C44.3991 32.2008 45.1205 31.9374 45.7806 31.4418L47.5841 30.0881C47.9362 29.824 48.3387 29.6923 48.742 29.6923C49.1453 29.6923 49.5478 29.8247 49.8999 30.0881L51.7034 31.4425C52.3635 31.9381 53.0849 32.2015 53.9081 32.2471L56.1575 32.3723C57.0347 32.4215 57.7309 33.0075 57.9314 33.8649L58.4451 36.0644C58.6334 36.8697 59.0172 37.536 59.6181 38.1025L61.2608 39.6487C61.9014 40.2507 62.0594 41.1485 61.6633 41.935ZM58.4357 40.4373L57.394 40.0351C57.2259 39.4837 57.0051 38.9498 56.7346 38.4397L57.1876 37.4166C57.3658 37.0144 57.2785 36.5433 56.9683 36.2315L55.1857 34.4437C54.8755 34.1326 54.4058 34.045 54.0047 34.2237L52.9839 34.6788C52.4753 34.4075 51.9437 34.1861 51.3939 34.0175L50.9928 32.9728C50.8348 32.5618 50.4417 32.2905 50.0023 32.2905H47.4817C47.0423 32.2905 46.6492 32.5618 46.4912 32.9728L46.0901 34.0175C45.5403 34.1861 45.0087 34.4075 44.5001 34.6788L43.4785 34.2237C43.0774 34.045 42.6078 34.1326 42.2976 34.4437L40.515 36.2315C40.2048 36.5433 40.1175 37.0136 40.2956 37.4166L40.7494 38.4404C40.4789 38.9505 40.2581 39.4837 40.09 40.0351L39.0483 40.4373C38.6385 40.5958 38.368 40.9901 38.368 41.4307V43.9587C38.368 44.3993 38.6385 44.7936 39.0483 44.9521L40.09 45.3544C40.2581 45.9064 40.4789 46.4396 40.7494 46.9497L40.2964 47.9735C40.1182 48.3758 40.2055 48.8468 40.5157 49.1586L42.2983 50.9465C42.6085 51.2583 43.0782 51.3451 43.48 51.1664L44.5008 50.7113C45.0094 50.9826 45.5411 51.204 46.0908 51.3726L46.4919 52.4174C46.6499 52.8283 47.0431 53.0996 47.4824 53.0996H50.003C50.4424 53.0996 50.8356 52.8283 50.9935 52.4174L51.3947 51.3726C51.9451 51.204 52.4768 50.9826 52.9854 50.7113L54.0062 51.1657C54.4073 51.3444 54.8769 51.2568 55.1879 50.9457L56.9705 49.1579C57.2807 48.8468 57.368 48.3758 57.1898 47.9735L56.736 46.9497C57.0066 46.4396 57.2273 45.9064 57.3954 45.3551L58.4371 44.9528C58.8469 44.7944 59.1174 44.4 59.1174 43.9594V41.4314C59.116 40.9901 58.8455 40.5958 58.4357 40.4373ZM56.9929 43.2279L56.13 43.5608C55.8032 43.6867 55.5594 43.9667 55.4786 44.3082C55.3091 45.0223 55.0277 45.7024 54.6425 46.3304C54.4592 46.6292 54.434 46.9997 54.5761 47.3209L54.952 48.1696L54.2002 48.9235L53.3547 48.5465C53.0344 48.404 52.6651 48.4286 52.3671 48.6131C51.7417 48.9995 51.0628 49.2816 50.35 49.4517C50.0095 49.5327 49.7311 49.7772 49.6048 50.105L49.273 50.9703H48.2103L47.8777 50.1043C47.7522 49.7765 47.473 49.5327 47.1325 49.4509C46.4205 49.2809 45.7416 48.9987 45.1162 48.6124C44.8182 48.4286 44.4488 48.404 44.1285 48.5458L43.2823 48.9228L42.5306 48.1689L42.9065 47.3209C43.0486 46.9997 43.024 46.6292 42.8401 46.3304C42.4548 45.7031 42.1735 45.0223 42.004 44.3074C41.9232 43.9659 41.6793 43.6867 41.3525 43.5608L40.4897 43.2279V42.1615L41.3525 41.8287C41.6793 41.7028 41.9224 41.4228 42.004 41.082C42.1735 40.3671 42.4548 39.687 42.8401 39.0597C43.0233 38.7609 43.0486 38.3905 42.9065 38.0693L42.5306 37.2206L43.2823 36.4667L44.1285 36.8436C44.4481 36.9861 44.8175 36.9615 45.1154 36.777C45.7409 36.3907 46.4198 36.1085 47.1318 35.9385C47.4723 35.8575 47.7508 35.6129 47.8763 35.2851L48.2089 34.4191H49.2722L49.6048 35.2851C49.7303 35.6129 50.0095 35.8567 50.3493 35.9385C51.0614 36.1085 51.7402 36.3907 52.3657 36.777C52.6636 36.9608 53.033 36.9861 53.3533 36.8436L54.1995 36.4667L54.9512 37.2206L54.5754 38.0685C54.4333 38.3898 54.4578 38.7602 54.6418 39.059C55.027 39.6863 55.3083 40.3671 55.4779 41.082C55.5587 41.4235 55.8025 41.7028 56.1293 41.8294L56.9921 42.1622L56.9929 43.2279ZM48.742 37.2213C45.733 37.2213 43.2845 39.6769 43.2845 42.6947C43.2845 45.7125 45.7323 48.1681 48.742 48.1681C51.751 48.1681 54.1995 45.7125 54.1995 42.6947C54.1988 39.6769 51.751 37.2213 48.742 37.2213ZM48.742 46.0388C46.9031 46.0388 45.4076 44.5382 45.4076 42.6947C45.4076 40.8505 46.9031 39.3506 48.742 39.3506C50.5809 39.3506 52.0764 40.8512 52.0764 42.6947C52.0764 44.539 50.5802 46.0388 48.742 46.0388Z" fill="black"/>
</svg>
