<svg width="69" height="66" viewBox="0 0 69 66" fill="none" xmlns="http://www.w3.org/2000/svg">
<path d="M55.323 0.328387C55.2186 0.220045 55.0927 0.134902 54.9535 0.0784492C54.8144 0.021996 54.6649 -0.00451455 54.5149 0.000627404C54.3656 0.00354856 54.2184 0.036648 54.082 0.097954C53.9457 0.15926 53.823 0.247518 53.7213 0.357471L49.5863 4.832C49.3909 5.04225 49.2836 5.32009 49.2867 5.60778C49.2898 5.89548 49.4031 6.17091 49.603 6.37684L49.9169 6.70124L48.2752 8.35123L45.6817 7.70018C44.5476 7.41906 43.3603 7.43715 42.2351 7.75268C41.11 8.06822 40.0849 8.67051 39.2594 9.50118L33.1376 15.9658L26.7643 9.56047C25.9961 8.78376 25.0269 8.23872 23.9664 7.98704C22.9059 7.73537 21.7965 7.78713 20.7638 8.13645C20.6383 8.17875 20.5212 8.24273 20.4176 8.3255L20.1383 8.54922L19.4237 7.78967L20.8217 6.38467C21.0303 6.17489 21.1476 5.89042 21.1476 5.59379C21.1476 5.29717 21.0303 5.0127 20.8217 4.80292L16.3695 0.328387C16.1607 0.118676 15.8777 0.00086637 15.5825 0.00086637C15.2874 0.00086637 15.0043 0.118676 14.7956 0.328387L0.325887 14.8706C0.117222 15.0804 0 15.3649 0 15.6615C0 15.9581 0.117222 16.2426 0.325887 16.4524L4.7781 20.9269C4.98683 21.1366 5.26989 21.2544 5.56503 21.2544C5.86018 21.2544 6.14324 21.1366 6.35196 20.9269L6.85506 20.4213L9.49189 23.0724L8.84409 25.6789C8.56483 26.8063 8.57825 27.9869 8.88305 29.1077C9.18786 30.2284 9.77385 31.2517 10.5849 32.0797L19.1777 41.4829C19.7422 42.0133 20.4127 42.4168 21.1445 42.6664V50.6971C21.1421 51.6571 21.4069 52.5986 21.9091 53.4152C22.4112 54.2318 23.1307 54.891 23.9861 55.3182C24.4714 55.5595 24.8797 55.9329 25.1644 56.3958C25.4491 56.8587 25.5989 57.3927 25.5967 57.9369V58.1696H24.4836C24.1884 58.1696 23.9053 58.2874 23.6966 58.4972C23.4878 58.707 23.3706 58.9915 23.3706 59.2882V64.8814C23.3706 65.178 23.4878 65.4626 23.6966 65.6724C23.9053 65.8821 24.1884 66 24.4836 66H45.6317C45.9269 66 46.21 65.8821 46.4187 65.6724C46.6274 65.4626 46.7447 65.178 46.7447 64.8814V59.2882C46.7447 58.9915 46.6274 58.707 46.4187 58.4972C46.21 58.2874 45.9269 58.1696 45.6317 58.1696H44.5186V57.023L45.8164 55.7321C46.7799 55.1197 47.574 54.273 48.1254 53.2703C48.6768 52.2676 48.9676 51.1413 48.9708 49.9957V36.7835C49.8091 36.9214 50.6684 36.8468 51.4707 36.5665C52.273 36.2862 52.9931 35.809 53.5655 35.1783L59.4491 28.7573C60.1271 28.0809 60.6028 27.2269 60.8222 26.2924C61.0416 25.3579 60.9958 24.3804 60.6902 23.4707C60.5121 22.9315 61.4693 21.1663 62.6135 19.8127C62.8174 20.0155 63.0914 20.1313 63.3782 20.136H63.3893C63.6812 20.1351 63.961 20.019 64.1685 19.8127L68.6719 15.3382C68.7759 15.2343 68.8584 15.1107 68.9147 14.9746C68.971 14.8385 69 14.6925 69 14.5451C69 14.3977 68.971 14.2517 68.9147 14.1156C68.8584 13.9795 68.7759 13.8559 68.6719 13.752L55.323 0.328387ZM6.00024 17.9838C5.89302 18.0909 5.80923 18.2193 5.75425 18.3608L5.5617 18.5543L2.68334 15.6615L15.5792 2.70101L18.4575 5.59379L17.3734 6.68334C17.2419 6.73445 17.1214 6.8104 17.0184 6.90707L6.00024 17.9838ZM21.1445 39.7759V40.2121C21.0135 40.1337 20.8918 40.0406 20.7816 39.9347L12.1877 30.5315C11.6383 29.9757 11.2405 29.2871 11.0325 28.5321C10.8245 27.7771 10.8133 26.9809 11.0001 26.2203L11.8004 23.0008C11.8472 22.8135 11.845 22.6171 11.7939 22.4309C11.7427 22.2447 11.6445 22.0749 11.5087 21.9381L8.42558 18.8395L17.8454 9.37254L19.2222 10.8368C19.4145 11.0413 19.6764 11.1655 19.9557 11.1846C20.235 11.2036 20.5112 11.1162 20.7293 10.9397L21.6431 10.2003C22.2635 10.0256 22.919 10.0205 23.542 10.1855C24.165 10.3505 24.7329 10.6796 25.1871 11.1389L31.5983 17.5833L30.5564 18.6829C30.2186 18.5856 29.8693 18.5345 29.518 18.5308C29.301 18.5179 29.0833 18.5213 28.8668 18.5409C27.9097 18.67 27.0379 19.1619 26.43 19.916C25.822 20.6701 25.5239 21.6292 25.5967 22.597V34.2946C24.3406 34.5544 23.212 35.2414 22.401 36.2398C21.5901 37.2382 21.1463 38.487 21.1445 39.7759ZM44.5186 63.7627H25.5967V60.4068H44.5186V63.7627ZM46.7447 35.3685V49.9957C46.7424 50.779 46.5395 51.5485 46.1555 52.2302C45.7714 52.9118 45.2192 53.4825 44.552 53.8874C44.4759 53.9332 44.4057 53.988 44.3427 54.0508L42.6264 55.76C42.5208 55.8635 42.4368 55.9872 42.3794 56.1238C42.3221 56.2604 42.2925 56.4071 42.2925 56.5554V58.1696H27.8228V57.9369C27.826 56.9769 27.5615 56.0352 27.0592 55.2186C26.557 54.402 25.837 53.7432 24.9812 53.3169C24.4956 53.0755 24.0873 52.702 23.8025 52.2388C23.5178 51.7757 23.3681 51.2415 23.3706 50.6971V39.7759C23.3734 39.0843 23.5888 38.4104 23.9873 37.8466C24.3858 37.2827 24.9479 36.8563 25.5967 36.6258V43.6273H27.8228V22.597C27.808 22.1656 27.9489 21.7433 28.2195 21.408C28.4902 21.0727 28.8722 20.847 29.2954 20.7725C29.7808 20.7844 30.2466 20.9678 30.611 21.2905C30.7775 21.4328 30.913 21.6083 31.0088 21.8058C31.1045 22.0033 31.1586 22.2186 31.1675 22.4382V39.1528H33.3936V20.1998C33.3934 19.9644 33.4425 19.7316 33.5376 19.5165C33.6328 19.3014 33.7719 19.1089 33.946 18.9514C34.12 18.7939 34.3251 18.6749 34.5479 18.6023C34.7707 18.5296 35.0062 18.5049 35.2391 18.5297C35.666 18.6009 36.0526 18.8259 36.3265 19.1627C36.6003 19.4995 36.7428 19.9251 36.7272 20.3598V39.1528H38.9533V23.5557C38.9531 23.3203 39.0022 23.0875 39.0974 22.8724C39.1925 22.6573 39.3316 22.4648 39.5057 22.3073C39.6797 22.1498 39.8848 22.0308 40.1076 21.9582C40.3304 21.8855 40.5659 21.8608 40.7988 21.8856C41.2268 21.9556 41.6146 22.1801 41.8896 22.517C42.1646 22.8539 42.3079 23.2801 42.2925 23.7157V39.1528H44.5186V29.914C45.1674 30.1445 45.7295 30.5709 46.128 31.1348C46.5265 31.6986 46.7419 32.3725 46.7447 33.0641V35.3685ZM58.5798 24.1821C58.753 24.7055 58.7758 25.2673 58.6457 25.8032C58.5155 26.339 58.2377 26.8271 57.8441 27.2114L51.9605 33.6335C51.5748 34.0203 51.1004 34.3061 50.5792 34.4656C50.0579 34.6252 49.5056 34.6536 48.9708 34.5485V33.0641C48.969 31.7752 48.5252 30.5264 47.7142 29.528C46.9033 28.5296 45.7747 27.8426 44.5186 27.5828V23.7157C44.531 22.7264 44.1815 21.767 43.5367 21.0196C42.8918 20.2721 41.9964 19.7885 41.0203 19.6606C40.3065 19.5877 39.5867 19.7143 38.94 20.0264C38.9217 19.7955 38.8845 19.5665 38.8287 19.3418C38.8097 19.2702 38.7808 19.2031 38.7597 19.1326C38.7169 18.9853 38.6664 18.8405 38.6083 18.6986C38.5738 18.618 38.5293 18.5442 38.4892 18.4659C38.4269 18.344 38.3667 18.222 38.2933 18.1079C38.2432 18.0296 38.182 17.958 38.1308 17.8842C38.054 17.7802 37.9783 17.6773 37.8926 17.5811C37.8291 17.5106 37.7612 17.4457 37.6934 17.3797C37.6032 17.2925 37.513 17.2074 37.4162 17.1291C37.3416 17.0687 37.2637 17.0173 37.1847 16.9602C37.0834 16.8898 36.981 16.8238 36.8741 16.7633C36.7896 16.7164 36.7027 16.6739 36.6148 16.6336C36.5035 16.5821 36.3922 16.5374 36.2809 16.4971C36.1874 16.4647 36.0939 16.4367 35.9982 16.411C35.9436 16.3976 35.8924 16.3741 35.8368 16.3629L40.86 11.0617C41.4132 10.5098 42.0983 10.11 42.8495 9.90082C43.6007 9.69161 44.3927 9.67996 45.1497 9.86697L48.3531 10.6724C48.5396 10.7193 48.735 10.7169 48.9203 10.6653C49.1057 10.6138 49.2745 10.5148 49.4105 10.3782L51.3327 8.44631L61.0586 18.2209C60.0212 19.4257 57.9242 22.2033 58.5798 24.1788V24.1821ZM63.4049 17.4323L63.1344 17.1526L63.101 17.1202L51.9371 5.5759L54.565 2.73009L66.3144 14.5429L63.4049 17.4323Z" fill="black"/>
</svg>
