<svg width="64" height="64" viewBox="0 0 64 64" fill="none" xmlns="http://www.w3.org/2000/svg">
<path d="M32.0005 51.5252C27.164 51.5285 22.4988 49.7345 18.9106 46.4917C15.3223 43.2488 13.067 38.7883 12.5825 33.9762C12.098 29.164 13.4188 24.3435 16.2886 20.4504C19.1583 16.5573 23.3722 13.8693 28.1123 12.9084C32.8524 11.9475 37.7804 12.7821 41.9397 15.2502C46.0991 17.7183 49.1929 21.6438 50.6208 26.2648C52.0486 30.8857 51.7085 35.8723 49.6665 40.2566C47.6245 44.6409 44.0263 48.11 39.5704 49.9905C37.1756 51.0049 34.6012 51.5268 32.0005 51.5252ZM32.0005 14.5428C28.5455 14.5414 25.1677 15.5648 22.2944 17.4835C19.4211 19.4021 17.1814 22.1298 15.8586 25.3216C14.5358 28.5133 14.1893 32.0257 14.863 35.4143C15.5367 38.803 17.2003 41.9157 19.6434 44.3588C22.0864 46.8018 25.1992 48.4654 28.5879 49.1391C31.9765 49.8129 35.4889 49.4664 38.6806 48.1436C41.8724 46.8208 44.6001 44.5811 46.5187 41.7078C48.4374 38.8345 49.4608 35.4567 49.4594 32.0017C49.4539 27.373 47.6127 22.9354 44.3397 19.6624C41.0667 16.3894 36.6292 14.5483 32.0005 14.5428Z" fill="black"/>
<path d="M37.9045 63.9794H26.0955C25.8217 63.9794 25.5592 63.8706 25.3656 63.677C25.172 63.4834 25.0632 63.2209 25.0632 62.9471V58.2125C22.7173 57.6011 20.4649 56.6751 18.3673 55.4598L15.0228 58.8043C14.9268 58.9011 14.8127 58.9778 14.6869 59.0303C14.5611 59.0827 14.4262 59.1096 14.2899 59.1096C14.1536 59.1096 14.0187 59.0827 13.8929 59.0303C13.7671 58.9778 13.653 58.9011 13.557 58.8043L5.21634 50.443C5.11959 50.347 5.0428 50.2329 4.99039 50.1071C4.93799 49.9813 4.911 49.8464 4.911 49.7101C4.911 49.5738 4.93799 49.4389 4.99039 49.3131C5.0428 49.1873 5.11959 49.0732 5.21634 48.9772L8.56086 45.6327C7.34717 43.5318 6.42132 41.2774 5.80817 38.9299H1.03226C0.758486 38.9299 0.495927 38.8211 0.302341 38.6276C0.108755 38.434 0 38.1714 0 37.8976V26.1024C0 25.8286 0.108755 25.566 0.302341 25.3724C0.495927 25.1789 0.758486 25.0701 1.03226 25.0701H5.76688C6.38003 22.7226 7.30588 20.4682 8.51957 18.3673L5.17505 15.0228C5.0783 14.9268 5.00151 14.8127 4.9491 14.6869C4.89669 14.5611 4.86971 14.4262 4.86971 14.2899C4.86971 14.1536 4.89669 14.0187 4.9491 13.8929C5.00151 13.7671 5.0783 13.653 5.17505 13.557L13.557 5.21634C13.653 5.11959 13.7671 5.0428 13.8929 4.99039C14.0187 4.93799 14.1536 4.911 14.2899 4.911C14.4262 4.911 14.5611 4.93799 14.6869 4.99039C14.8127 5.0428 14.9268 5.11959 15.0228 5.21634L18.3673 8.56086C20.4649 7.34555 22.7173 6.41959 25.0632 5.80817V1.03226C25.0632 0.758486 25.172 0.495927 25.3656 0.302341C25.5592 0.108755 25.8217 0 26.0955 0H37.9045C38.1783 0 38.4408 0.108755 38.6344 0.302341C38.828 0.495927 38.9368 0.758486 38.9368 1.03226V5.76688C41.2827 6.3783 43.5351 7.30426 45.6327 8.51957L48.9772 5.17505C49.0732 5.0783 49.1873 5.00151 49.3131 4.9491C49.4389 4.89669 49.5738 4.86971 49.7101 4.86971C49.8464 4.86971 49.9813 4.89669 50.1071 4.9491C50.2329 5.00151 50.347 5.0783 50.443 5.17505L58.7837 13.557C58.8804 13.653 58.9572 13.7671 59.0096 13.8929C59.062 14.0187 59.089 14.1536 59.089 14.2899C59.089 14.4262 59.062 14.5611 59.0096 14.6869C58.9572 14.8127 58.8804 14.9268 58.7837 15.0228L55.4391 18.3673C56.6528 20.4682 57.5787 22.7226 58.1918 25.0701H62.9677C63.2415 25.0701 63.5041 25.1789 63.6977 25.3724C63.8912 25.566 64 25.8286 64 26.1024V37.8976C64 38.1714 63.8912 38.434 63.6977 38.6276C63.5041 38.8211 63.2415 38.9299 62.9677 38.9299H58.2125C57.5993 41.2774 56.6735 43.5318 55.4598 45.6327L58.8043 48.9772C58.9011 49.0732 58.9778 49.1873 59.0303 49.3131C59.0827 49.4389 59.1096 49.5738 59.1096 49.7101C59.1096 49.8464 59.0827 49.9813 59.0303 50.1071C58.9778 50.2329 58.9011 50.347 58.8043 50.443L50.443 58.7837C50.347 58.8804 50.2329 58.9572 50.1071 59.0096C49.9813 59.062 49.8464 59.089 49.7101 59.089C49.5738 59.089 49.4389 59.062 49.3131 59.0096C49.1873 58.9572 49.0732 58.8804 48.9772 58.7837L45.6327 55.4391C43.5351 56.6544 41.2827 57.5804 38.9368 58.1918V62.9677C38.9314 63.2379 38.8202 63.4952 38.6272 63.6843C38.4342 63.8735 38.1748 63.9794 37.9045 63.9794ZM27.1277 61.9148H36.8723V57.4004C36.8736 57.1678 36.953 56.9423 37.0978 56.7601C37.2425 56.5779 37.4442 56.4496 37.6705 56.3957C40.3509 55.7784 42.9094 54.7178 45.2404 53.2576C45.4383 53.1344 45.6721 53.0823 45.9036 53.1098C46.135 53.1373 46.3501 53.2429 46.5135 53.409L49.7067 56.5953L56.5884 49.7135L53.409 46.5204C53.2429 46.357 53.1373 46.1419 53.1098 45.9104C53.0823 45.679 53.1344 45.4451 53.2576 45.2473C54.7149 42.9148 55.7753 40.3568 56.3957 37.6774C56.4497 37.4493 56.5788 37.2458 56.7622 37.0998C56.9457 36.9538 57.1728 36.8737 57.4073 36.8723H61.9148V27.1346H57.4073C57.1728 27.1332 56.9457 27.0531 56.7622 26.9071C56.5788 26.761 56.4497 26.5576 56.3957 26.3295C55.7753 23.65 54.7149 21.0921 53.2576 18.7596C53.1344 18.5617 53.0823 18.3279 53.1098 18.0964C53.1373 17.865 53.2429 17.6499 53.409 17.4865L56.5953 14.3002L49.7135 7.41849L46.5204 10.591C46.357 10.7571 46.1419 10.8627 45.9104 10.8902C45.679 10.9177 45.4451 10.8656 45.2473 10.7424C42.9163 9.28224 40.3578 8.22163 37.6774 7.6043C37.4511 7.55038 37.2494 7.42205 37.1047 7.23988C36.9599 7.05771 36.8805 6.83224 36.8791 6.59957V2.08516H27.1277V6.59957C27.1264 6.83224 27.047 7.05771 26.9022 7.23988C26.7575 7.42205 26.5558 7.55038 26.3295 7.6043C23.6491 8.22163 21.0906 9.28224 18.7596 10.7424C18.5617 10.8656 18.3279 10.9177 18.0964 10.8902C17.865 10.8627 17.6499 10.7571 17.4865 10.591L14.2933 7.40473L7.41161 14.2865L10.5978 17.4727C10.764 17.6361 10.8695 17.8512 10.8971 18.0827C10.9246 18.3141 10.8724 18.548 10.7492 18.7458C9.29198 21.0783 8.23157 23.6363 7.61118 26.3157C7.5572 26.5439 7.42812 26.7473 7.24467 26.8933C7.06122 27.0393 6.83403 27.1194 6.59957 27.1209H2.08516V36.8654H6.59269C6.82715 36.8668 7.05434 36.9469 7.23779 37.0929C7.42124 37.239 7.55032 37.4424 7.6043 37.6705C8.22469 40.35 9.2851 42.9079 10.7424 45.2404C10.8656 45.4383 10.9177 45.6721 10.8902 45.9036C10.8627 46.135 10.7571 46.3501 10.591 46.5135L7.40473 49.6998L14.2865 56.5815L17.4796 53.3953C17.643 53.2291 17.8581 53.1236 18.0895 53.0961C18.321 53.0685 18.5549 53.1207 18.7527 53.2439C21.0837 54.704 23.6422 55.7646 26.3226 56.3819C26.5489 56.4359 26.7506 56.5642 26.8953 56.7464C27.0401 56.9285 27.1195 57.154 27.1209 57.3867L27.1277 61.9148Z" fill="black"/>
<path d="M24.4653 38.622C23.9004 38.622 23.3483 38.4545 22.8786 38.1407C22.409 37.8269 22.0429 37.3808 21.8268 36.859C21.6106 36.3371 21.5541 35.7629 21.6643 35.2089C21.7744 34.6549 22.0464 34.146 22.4459 33.7466C22.8453 33.3472 23.3541 33.0752 23.9081 32.965C24.4621 32.8548 25.0364 32.9114 25.5582 33.1275C26.0801 33.3437 26.5261 33.7098 26.8399 34.1794C27.1537 34.6491 27.3212 35.2012 27.3212 35.7661C27.3212 36.5235 27.0203 37.2499 26.4847 37.7855C25.9491 38.3211 25.2227 38.622 24.4653 38.622ZM24.4653 34.9816C24.3085 34.9816 24.1552 35.0282 24.0249 35.1154C23.8946 35.2027 23.7932 35.3267 23.7335 35.4717C23.6738 35.6167 23.6585 35.7762 23.6896 35.9299C23.7207 36.0836 23.7968 36.2246 23.9082 36.335C24.0195 36.4454 24.1612 36.5202 24.3152 36.55C24.4691 36.5797 24.6285 36.5631 24.7729 36.5021C24.9174 36.4412 25.0405 36.3387 25.1267 36.2076C25.2128 36.0766 25.2581 35.9229 25.2567 35.7661C25.2567 35.6625 25.2362 35.5599 25.1963 35.4643C25.1565 35.3686 25.0981 35.2818 25.0245 35.2089C24.9509 35.1359 24.8636 35.0783 24.7676 35.0393C24.6716 35.0003 24.5689 34.9806 24.4653 34.9816Z" fill="black"/>
<path d="M39.5698 31.0868C39.0044 31.0882 38.4513 30.9217 37.9806 30.6084C37.5099 30.2951 37.1428 29.8491 36.9257 29.327C36.7087 28.8049 36.6516 28.2301 36.7616 27.6754C36.8715 27.1208 37.1437 26.6113 37.5435 26.2115C37.9433 25.8117 38.4528 25.5395 39.0075 25.4295C39.5621 25.3196 40.1369 25.3767 40.659 25.5937C41.1812 25.8107 41.6271 26.1778 41.9404 26.6485C42.2537 27.1192 42.4202 27.6724 42.4189 28.2378C42.417 28.9928 42.1163 29.7164 41.5824 30.2504C41.0485 30.7843 40.3249 31.085 39.5698 31.0868ZM39.5698 27.4464C39.413 27.445 39.2593 27.4903 39.1283 27.5764C38.9972 27.6625 38.8947 27.7856 38.8338 27.9301C38.7728 28.0746 38.7562 28.234 38.7859 28.3879C38.8157 28.5419 38.8905 28.6835 39.0009 28.7949C39.1113 28.9063 39.2523 28.9823 39.406 29.0134C39.5597 29.0445 39.7192 29.0293 39.8642 28.9696C40.0092 28.9099 40.1332 28.8085 40.2205 28.6782C40.3077 28.5479 40.3543 28.3946 40.3543 28.2378C40.3543 28.0291 40.2719 27.8288 40.125 27.6806C39.978 27.5324 39.7785 27.4482 39.5698 27.4464Z" fill="black"/>
<path d="M31.9994 34.8504C31.4359 34.8504 30.8851 34.6833 30.4166 34.3703C29.9481 34.0572 29.5829 33.6122 29.3673 33.0917C29.1516 32.5711 29.0952 31.9982 29.2051 31.4456C29.3151 30.8929 29.5864 30.3853 29.9849 29.9868C30.3833 29.5884 30.8909 29.317 31.4436 29.2071C31.9963 29.0972 32.5691 29.1536 33.0897 29.3692C33.6103 29.5849 34.0553 29.95 34.3683 30.4185C34.6814 30.8871 34.8485 31.4379 34.8485 32.0014C34.8485 32.757 34.5483 33.4816 34.014 34.0159C33.4797 34.5502 32.755 34.8504 31.9994 34.8504ZM31.9994 31.2169C31.8443 31.2169 31.6926 31.2629 31.5636 31.3491C31.4346 31.4353 31.334 31.5578 31.2746 31.7012C31.2152 31.8445 31.1997 32.0022 31.23 32.1544C31.2603 32.3066 31.335 32.4464 31.4447 32.5561C31.5544 32.6658 31.6942 32.7405 31.8464 32.7708C31.9986 32.8011 32.1563 32.7856 32.2996 32.7262C32.443 32.6668 32.5655 32.5662 32.6517 32.4372C32.7379 32.3082 32.7839 32.1565 32.7839 32.0014C32.7839 31.7933 32.7013 31.5938 32.5542 31.4466C32.407 31.2995 32.2075 31.2169 31.9994 31.2169Z" fill="black"/>
<path d="M31.9991 31.2178C31.7253 31.2178 31.4627 31.1091 31.2691 30.9155C31.0756 30.7219 30.9668 30.4593 30.9668 30.1856V21.5284C30.9668 21.2546 31.0756 20.992 31.2691 20.7984C31.4627 20.6049 31.7253 20.4961 31.9991 20.4961C32.2728 20.4961 32.5354 20.6049 32.729 20.7984C32.9226 20.992 33.0313 21.2546 33.0313 21.5284V30.1856C33.0313 30.4593 32.9226 30.7219 32.729 30.9155C32.5354 31.1091 32.2728 31.2178 31.9991 31.2178Z" fill="black"/>
<path d="M39.5694 27.4466C39.2956 27.4466 39.033 27.3379 38.8394 27.1443C38.6459 26.9507 38.5371 26.6881 38.5371 26.4144V21.5284C38.5371 21.2546 38.6459 20.992 38.8394 20.7984C39.033 20.6049 39.2956 20.4961 39.5694 20.4961C39.8431 20.4961 40.1057 20.6049 40.2993 20.7984C40.4929 20.992 40.6016 21.2546 40.6016 21.5284V26.4144C40.6016 26.6881 40.4929 26.9507 40.2993 27.1443C40.1057 27.3379 39.8431 27.4466 39.5694 27.4466Z" fill="black"/>
<path d="M24.4639 43.5052C24.1901 43.5052 23.9276 43.3965 23.734 43.2029C23.5404 43.0093 23.4316 42.7467 23.4316 42.473V37.5869C23.4316 37.3132 23.5404 37.0506 23.734 36.857C23.9276 36.6634 24.1901 36.5547 24.4639 36.5547C24.7377 36.5547 25.0002 36.6634 25.1938 36.857C25.3874 37.0506 25.4962 37.3132 25.4962 37.5869V42.473C25.4962 42.7467 25.3874 43.0093 25.1938 43.2029C25.0002 43.3965 24.7377 43.5052 24.4639 43.5052Z" fill="black"/>
<path d="M31.9991 43.5069C31.7253 43.5069 31.4627 43.3981 31.2691 43.2045C31.0756 43.011 30.9668 42.7484 30.9668 42.4746V33.8174C30.9668 33.5436 31.0756 33.2811 31.2691 33.0875C31.4627 32.8939 31.7253 32.7852 31.9991 32.7852C32.2728 32.7852 32.5354 32.8939 32.729 33.0875C32.9226 33.2811 33.0313 33.5436 33.0313 33.8174V42.4746C33.0313 42.7484 32.9226 43.011 32.729 43.2045C32.5354 43.3981 32.2728 43.5069 31.9991 43.5069Z" fill="black"/>
<path d="M39.5694 43.5063C39.2956 43.5063 39.033 43.3975 38.8394 43.204C38.6459 43.0104 38.5371 42.7478 38.5371 42.474V30.0869C38.5371 29.8132 38.6459 29.5506 38.8394 29.357C39.033 29.1634 39.2956 29.0547 39.5694 29.0547C39.8431 29.0547 40.1057 29.1634 40.2993 29.357C40.4929 29.5506 40.6016 29.8132 40.6016 30.0869V42.474C40.6016 42.7478 40.4929 43.0104 40.2993 43.204C40.1057 43.3975 39.8431 43.5063 39.5694 43.5063Z" fill="black"/>
<path d="M24.4639 34.979C24.1901 34.979 23.9276 34.8702 23.734 34.6766C23.5404 34.483 23.4316 34.2205 23.4316 33.9467V21.5596C23.4316 21.2858 23.5404 21.0233 23.734 20.8297C23.9276 20.6361 24.1901 20.5273 24.4639 20.5273C24.7377 20.5273 25.0002 20.6361 25.1938 20.8297C25.3874 21.0233 25.4962 21.2858 25.4962 21.5596V33.9467C25.4962 34.2205 25.3874 34.483 25.1938 34.6766C25.0002 34.8702 24.7377 34.979 24.4639 34.979Z" fill="black"/>
</svg>
