<svg width="64" height="67" viewBox="0 0 64 67" fill="none" xmlns="http://www.w3.org/2000/svg">
<path d="M64 38.0137C64 34.4874 62.4321 31.3137 59.9376 29.1979V28.4926C59.9376 21.6516 57.2294 14.5989 52.5256 9.09789C47.5367 3.24421 41.0512 0 34.3519 0H29.7194C15.0379 0 4.13363 15.0221 4.13363 28.4926V29.1274C1.56793 31.3137 0 34.4874 0 38.0137C0 43.0916 3.2784 47.5347 8.12472 49.0863C9.26503 51.4842 11.7595 53.1063 14.6102 53.1063C18.5301 53.1063 21.7372 49.9326 21.7372 46.0537V30.3968C21.7372 26.5179 18.5301 23.3442 14.6102 23.3442C11.9733 23.3442 9.62138 24.7547 8.4098 26.9411C7.91091 27.0821 7.41203 27.2937 6.91314 27.5053C7.41203 15.7274 17.1759 2.68 29.7194 2.68H34.3519C46.8241 2.68 56.6592 15.7274 57.2294 27.4347C56.6592 27.1526 56.0178 26.9411 55.3051 26.7295C54.0223 24.6842 51.7416 23.2737 49.1759 23.2737C45.2561 23.2737 42.049 26.4474 42.049 30.3263V46.0537C42.049 49.58 44.6147 52.4716 48.0356 53.0358V56.5621C48.0356 59.3126 45.755 61.5695 42.9755 61.5695H37.9154C37.1314 59.9474 34.922 58.8189 32.2138 58.8189C28.8641 58.8189 26.2272 60.6526 26.2272 62.9095C26.2272 65.2368 28.8641 67 32.2138 67C34.922 67 37.1314 65.8716 37.9154 64.2495H42.9755C47.2517 64.2495 50.7439 60.7937 50.7439 56.5621V52.9653C52.882 52.4716 54.6637 51.0611 55.5902 49.2274C60.5078 47.7463 64 43.2326 64 38.0137ZM14.6102 25.9537C17.0334 25.9537 19.029 27.9284 19.029 30.3263V46.0537C19.029 48.4516 17.0334 50.4263 14.6102 50.4263C12.1871 50.4263 10.1915 48.4516 10.1915 46.0537V30.3968C10.1203 27.9284 12.1158 25.9537 14.6102 25.9537ZM7.41203 30.3968V45.9126C4.56125 44.361 2.70824 41.3284 2.70824 38.0137C2.70824 34.6284 4.56125 31.6663 7.41203 30.1147C7.41203 30.1853 7.41203 30.2558 7.41203 30.3968ZM32.1425 64.32C30.0757 64.32 28.8641 63.4032 28.8641 62.9095C28.8641 62.4158 30.147 61.4989 32.1425 61.4989C34.2094 61.4989 35.4209 62.4158 35.4209 62.9095C35.4922 63.4032 34.2094 64.32 32.1425 64.32ZM49.1759 50.4968C46.7528 50.4968 44.7572 48.5221 44.7572 46.1242V30.3968C44.7572 27.9989 46.7528 26.0242 49.1759 26.0242C51.5991 26.0242 53.5947 27.9989 53.5947 30.3968V46.1242C53.5947 48.5221 51.5991 50.4968 49.1759 50.4968ZM56.3029 46.0537V30.3968C56.3029 30.2558 56.3029 30.1147 56.3029 29.9737C59.2962 31.4547 61.2918 34.5579 61.2918 38.0137C61.2918 41.4695 59.2962 44.5726 56.3029 46.0537Z" fill="black"/>
</svg>
