<svg width="65" height="58" viewBox="0 0 65 58" fill="none" xmlns="http://www.w3.org/2000/svg">
<path d="M32.4983 28.3047C30.3896 28.3047 28.3282 28.9313 26.5749 30.1054C24.8216 31.2795 23.4551 32.9483 22.6482 34.9007C21.8414 36.8532 21.6304 39.0015 22.0419 41.0741C22.4535 43.1467 23.4691 45.0505 24.9603 46.5446C26.4516 48.0387 28.3515 49.0562 30.4197 49.4682C32.488 49.8802 34.6317 49.6683 36.5798 48.8593C38.5278 48.0503 40.1928 46.6805 41.364 44.9232C42.5352 43.1659 43.1602 41.1 43.1597 38.9868C43.1559 36.1545 42.0314 33.4394 40.0327 31.4368C38.0341 29.4343 35.3245 28.3079 32.4983 28.3047ZM26.5439 45.8862C27.1303 44.8173 27.9921 43.9257 29.0394 43.3042C30.0867 42.6826 31.2812 42.354 32.4983 42.3525C33.7149 42.355 34.9086 42.684 35.9552 43.3055C37.0019 43.9269 37.8633 44.8181 38.4498 45.8862C36.7978 47.3239 34.6834 48.1156 32.4954 48.1156C30.3074 48.1156 28.193 47.3239 26.541 45.8862H26.5439ZM29.9321 38.2239C29.9322 37.7153 30.0829 37.2181 30.3649 36.7953C30.647 36.3725 31.0478 36.043 31.5168 35.8484C31.9857 35.6539 32.5017 35.6031 32.9994 35.7024C33.4972 35.8017 33.9543 36.0467 34.3132 36.4064C34.672 36.7661 34.9163 37.2243 35.0153 37.7231C35.1142 38.222 35.0634 38.739 34.8691 39.2089C34.6749 39.6788 34.346 40.0804 33.924 40.3629C33.502 40.6455 33.0058 40.7963 32.4983 40.7963C31.8178 40.7955 31.1654 40.5242 30.6843 40.042C30.2032 39.5597 29.9327 38.9058 29.9321 38.2239ZM39.5766 44.7266C38.5725 43.1223 37.0564 41.9054 35.2747 41.274C35.8884 40.7133 36.3184 39.9797 36.5085 39.1696C36.6986 38.3595 36.6397 37.5107 36.3397 36.7347C36.0397 35.9588 35.5125 35.2918 34.8274 34.8215C34.1423 34.3512 33.3313 34.0996 32.5008 34.0996C31.6704 34.0996 30.8594 34.3512 30.1743 34.8215C29.4892 35.2918 28.962 35.9588 28.662 36.7347C28.362 37.5107 28.3031 38.3595 28.4932 39.1696C28.6833 39.9797 29.1133 40.7133 29.727 41.274C27.9431 41.9038 26.4249 43.1209 25.4201 44.7266C24.3369 43.3872 23.6545 41.7677 23.4518 40.0557C23.2491 38.3436 23.5344 36.6091 24.2748 35.0528C25.0151 33.4966 26.1801 32.1823 27.635 31.2622C29.0899 30.3421 30.7751 29.8538 32.4954 29.8538C34.2158 29.8538 35.901 30.3421 37.3558 31.2622C38.8107 32.1823 39.9758 33.4966 40.7161 35.0528C41.4564 36.6091 41.7418 38.3436 41.5391 40.0557C41.3364 41.7677 40.6539 43.3872 39.5708 44.7266H39.5766ZM50.8006 35.7064L46.839 35.1592C46.5024 33.8915 45.9986 32.6744 45.341 31.5401L47.757 28.3452C47.8699 28.195 47.9248 28.009 47.9116 27.8214C47.8983 27.6338 47.8177 27.4573 47.6847 27.3246L44.1413 23.7736C44.0089 23.64 43.8327 23.559 43.6453 23.5457C43.4579 23.5324 43.272 23.5877 43.1222 23.7012L39.9341 26.1224C38.8024 25.4629 37.5879 24.9577 36.3227 24.6204L35.7774 20.651C35.7518 20.4647 35.6597 20.2939 35.5181 20.1703C35.3766 20.0467 35.1952 19.9786 35.0075 19.9786H29.9928C29.805 19.9784 29.6235 20.0465 29.482 20.1701C29.3404 20.2937 29.2483 20.4646 29.2228 20.651L28.6775 24.6212C27.4125 24.9584 26.198 25.4632 25.0662 26.1224L21.8781 23.7012C21.7281 23.588 21.5423 23.5329 21.355 23.5462C21.1677 23.5595 20.9915 23.6403 20.8589 23.7736L17.3155 27.3253C17.1824 27.458 17.1017 27.6344 17.0885 27.8221C17.0752 28.0097 17.1302 28.1958 17.2433 28.3459L19.6593 31.5409C19.0016 32.6751 18.4979 33.8922 18.1613 35.1599L14.1996 35.7071C14.0137 35.7327 13.8433 35.8248 13.72 35.9666C13.5966 36.1083 13.5286 36.29 13.5286 36.478V41.5006C13.5286 41.6887 13.5966 41.8705 13.7199 42.0123C13.8432 42.1542 14.0137 42.2465 14.1996 42.2722L18.1613 42.8187C18.4976 44.0865 19.0014 45.3036 19.6593 46.4377L17.2433 49.6327C17.1301 49.7829 17.0751 49.9691 17.0884 50.1569C17.1017 50.3446 17.1823 50.5212 17.3155 50.654L20.8589 54.205C20.9915 54.3383 21.1677 54.4191 21.355 54.4324C21.5423 54.4457 21.7281 54.3906 21.8781 54.2774L25.0662 51.8555C26.1979 52.5151 27.4124 53.0205 28.6775 53.3582L29.2228 57.3276C29.2485 57.5139 29.3406 57.6847 29.4821 57.8083C29.6236 57.9319 29.805 58 29.9928 58H35.0039C35.1916 58 35.373 57.9319 35.5145 57.8083C35.6561 57.6847 35.7482 57.5139 35.7738 57.3276L36.3191 53.3574C37.5844 53.0204 38.7989 52.5153 39.9305 51.8555L43.1186 54.2774C43.2685 54.3906 43.4543 54.4457 43.6416 54.4324C43.829 54.4191 44.0051 54.3383 44.1377 54.205L47.6811 50.654C47.8143 50.5212 47.895 50.3446 47.9082 50.1569C47.9215 49.9691 47.8665 49.7829 47.7534 49.6327L45.3381 46.4421C45.9958 45.3079 46.4996 44.0908 46.8361 42.823L50.7977 42.2765C50.9837 42.2508 51.1541 42.1585 51.2775 42.0167C51.4008 41.8748 51.4687 41.6931 51.4687 41.5049V36.4773C51.4687 36.2892 51.4007 36.1075 51.2774 35.9658C51.154 35.8241 50.9836 35.732 50.7977 35.7064H50.8006ZM49.9173 40.8209L46.1051 41.3479C45.9491 41.37 45.8034 41.439 45.6873 41.5459C45.5712 41.6528 45.4903 41.7925 45.4551 41.9465C45.124 43.4089 44.5465 44.8041 43.7477 46.0722C43.6637 46.2062 43.6224 46.3627 43.6293 46.5208C43.6361 46.6789 43.6907 46.8312 43.7859 46.9574L46.1116 50.0329L43.5259 52.6242L40.457 50.2935C40.3312 50.1977 40.1792 50.1427 40.0213 50.1359C39.8635 50.129 39.7073 50.1706 39.5737 50.2551C38.3084 51.0559 36.9161 51.6345 35.4567 51.9663C35.303 52.0013 35.1635 52.0824 35.0568 52.1987C34.9501 52.3151 34.8813 52.4612 34.8594 52.6177L34.3343 56.4387H30.6695L30.1444 52.6184C30.1227 52.4619 30.0539 52.3157 29.9472 52.1993C29.8405 52.083 29.7009 52.0019 29.5471 51.967C28.0878 51.6347 26.6956 51.0559 25.4302 50.2551C25.2964 50.171 25.1403 50.1296 24.9826 50.1365C24.8248 50.1433 24.6728 50.1981 24.5469 50.2935L21.4779 52.6242L18.8922 50.0329L21.2179 46.9574C21.3132 46.8312 21.3678 46.6789 21.3745 46.5207C21.3813 46.3626 21.3397 46.2061 21.2555 46.0722C20.457 44.804 19.8798 43.4088 19.5488 41.9465C19.5136 41.7925 19.4326 41.6528 19.3166 41.5459C19.2005 41.439 19.0548 41.37 18.8987 41.3479L15.0866 40.8209V37.1562L18.8987 36.63C19.0549 36.608 19.2008 36.5388 19.3168 36.4318C19.4329 36.3247 19.5138 36.1849 19.5488 36.0307C19.8796 34.5681 20.4571 33.1729 21.2562 31.9049C21.3401 31.7709 21.3814 31.6145 21.3746 31.4564C21.3678 31.2982 21.3131 31.146 21.2179 31.0197L18.8922 27.9442L21.4779 25.3529L24.5469 27.6836C24.6728 27.7791 24.8249 27.8339 24.9827 27.8406C25.1405 27.8473 25.2966 27.8057 25.4302 27.7213C26.6957 26.9212 28.0879 26.3428 29.5471 26.0109C29.7009 25.9759 29.8404 25.8948 29.947 25.7784C30.0537 25.6621 30.1226 25.5159 30.1444 25.3595L30.6695 21.5384H34.3271L34.8522 25.3595C34.874 25.516 34.9428 25.6622 35.0495 25.7785C35.1562 25.8949 35.2957 25.9759 35.4495 26.0109C36.9087 26.3431 38.3009 26.9217 39.5664 27.722C39.7001 27.8064 39.8562 27.8481 40.014 27.8413C40.1718 27.8346 40.3238 27.7799 40.4498 27.6844L43.5187 25.3537L46.1044 27.9449L43.7787 31.0204C43.6834 31.1467 43.6288 31.299 43.6221 31.4572C43.6154 31.6153 43.6569 31.7718 43.7412 31.9057C44.5396 33.1739 45.1167 34.5691 45.4479 36.0314C45.4828 36.1856 45.5637 36.3255 45.6798 36.4325C45.7959 36.5396 45.9417 36.6087 46.0979 36.6307L49.9101 37.157L49.9173 40.8209ZM14.1288 25.2994L13.1769 20.3159L16.8699 16.8416C16.9774 16.7405 17.054 16.6109 17.0907 16.4678C17.1275 16.3247 17.1228 16.1741 17.0774 16.0336C17.032 15.8931 16.9476 15.7684 16.8341 15.6741C16.7206 15.5798 16.5827 15.5198 16.4365 15.5011L11.4124 14.8685L9.26003 10.2758C9.19709 10.1422 9.09754 10.0292 8.97299 9.95009C8.84843 9.87097 8.704 9.82897 8.55653 9.82897C8.40907 9.82897 8.26464 9.87097 8.14008 9.95009C8.01553 10.0292 7.91598 10.1422 7.85305 10.2758L5.70213 14.8713L0.678745 15.504C0.532517 15.5227 0.394614 15.5827 0.281131 15.677C0.167648 15.7713 0.0832654 15.8959 0.0378317 16.0365C-0.00760201 16.177 -0.0122127 16.3276 0.0245373 16.4707C0.0612873 16.6137 0.137882 16.7434 0.245383 16.8445L3.93835 20.3188L2.98278 25.2994C2.95496 25.4446 2.96899 25.5947 3.02322 25.7322C3.07744 25.8697 3.16963 25.9888 3.28899 26.0757C3.40834 26.1626 3.54993 26.2136 3.69716 26.2227C3.8444 26.2319 3.99119 26.1988 4.12036 26.1274L8.55581 23.6802L12.9913 26.1274C13.1204 26.1988 13.2672 26.2319 13.4145 26.2227C13.5617 26.2136 13.7033 26.1626 13.8226 26.0757C13.942 25.9888 14.0342 25.8697 14.0884 25.7322C14.1426 25.5947 14.1567 25.4446 14.1288 25.2994ZM11.5706 20.1871L12.2928 23.9639L8.93067 22.1095C8.81578 22.0464 8.68686 22.0132 8.55581 22.0132C8.42477 22.0132 8.29584 22.0464 8.18096 22.1095L4.81951 23.9639L5.54178 20.1871C5.56648 20.0582 5.55824 19.9252 5.51783 19.8004C5.47742 19.6756 5.40615 19.5631 5.31066 19.4734L2.51114 16.8423L6.31822 16.3631C6.44815 16.3466 6.57182 16.2975 6.67775 16.2203C6.78369 16.1431 6.86846 16.0404 6.92421 15.9216L8.55581 12.4415L10.1874 15.9216C10.2433 16.0404 10.3282 16.1432 10.4342 16.2204C10.5403 16.2976 10.6641 16.3467 10.7941 16.3631L14.6005 16.8423L11.8024 19.4734C11.7069 19.5631 11.6355 19.6756 11.5949 19.8004C11.5544 19.9251 11.546 20.0582 11.5706 20.1871ZM64.9622 16.2256C64.9166 16.085 64.8321 15.9602 64.7183 15.866C64.6046 15.7718 64.4665 15.712 64.3201 15.6936L59.2945 15.061L57.1443 10.4684C57.0814 10.3347 56.9818 10.2217 56.8573 10.1426C56.7327 10.0635 56.5883 10.0215 56.4408 10.0215C56.2934 10.0215 56.1489 10.0635 56.0244 10.1426C55.8998 10.2217 55.8003 10.3347 55.7373 10.4684L53.585 15.061L48.5609 15.6936C48.4145 15.712 48.2764 15.7719 48.1627 15.8661C48.049 15.9604 47.9645 16.0852 47.919 16.2258C47.8736 16.3665 47.869 16.5172 47.9059 16.6604C47.9429 16.8035 48.0197 16.9332 48.1275 17.0341L51.8205 20.5084L50.8685 25.4919C50.8411 25.6369 50.8554 25.7868 50.9097 25.924C50.964 26.0612 51.056 26.1801 51.1752 26.2669C51.2943 26.3536 51.4356 26.4047 51.5826 26.4141C51.7296 26.4235 51.8762 26.3909 52.0054 26.32L56.4408 23.8727L60.8763 26.32C61.0055 26.3914 61.1524 26.4245 61.2997 26.4154C61.447 26.4062 61.5887 26.3551 61.7081 26.2681C61.8274 26.1811 61.9196 26.0619 61.9738 25.9243C62.0279 25.7867 62.0418 25.6364 62.0139 25.4912L61.0619 20.5077L64.7549 17.0334C64.8623 16.9323 64.9388 16.8027 64.9755 16.6597C65.0122 16.5166 65.0076 16.3661 64.9622 16.2256ZM59.6896 19.6623C59.5942 19.7522 59.5229 19.8649 59.4825 19.9898C59.4421 20.1147 59.4338 20.2478 59.4585 20.3767L60.1807 24.1536L56.82 22.2992C56.7052 22.2358 56.5762 22.2026 56.4452 22.2026C56.3141 22.2026 56.1851 22.2358 56.0703 22.2992L52.7089 24.1536L53.4311 20.3767C53.4556 20.2477 53.4472 20.1146 53.4066 19.9897C53.3661 19.8648 53.2948 19.7522 53.1993 19.6623L50.4005 17.0319L54.2076 16.5521C54.3376 16.5357 54.4613 16.4867 54.5674 16.4097C54.6734 16.3326 54.7584 16.23 54.8143 16.1112L56.4459 12.6304L58.0724 16.1141C58.1282 16.2328 58.213 16.3354 58.319 16.4125C58.4249 16.4896 58.5485 16.5386 58.6784 16.5549L62.4855 17.0348L59.6896 19.6623ZM27.8758 10.4807L26.9253 15.4627C26.8975 15.6079 26.9115 15.758 26.9657 15.8955C27.0199 16.033 27.1121 16.1521 27.2315 16.239C27.3509 16.3259 27.4924 16.3769 27.6397 16.3861C27.7869 16.3952 27.9337 16.3622 28.0629 16.2908L32.4983 13.845L36.9338 16.2922C37.0631 16.3638 37.21 16.3969 37.3574 16.3877C37.5048 16.3785 37.6466 16.3273 37.766 16.2403C37.8854 16.1532 37.9776 16.0338 38.0317 15.896C38.0857 15.7583 38.0995 15.608 38.0714 15.4627L37.1208 10.4807L40.8138 7.00635C40.9213 6.90527 40.9979 6.77562 41.0347 6.63256C41.0714 6.48949 41.0668 6.3389 41.0214 6.19836C40.9759 6.05782 40.8915 5.93313 40.7781 5.83884C40.6646 5.74455 40.5267 5.68455 40.3804 5.66584L35.3542 5.03974L33.2018 0.447844C33.1391 0.313956 33.0396 0.200736 32.915 0.121427C32.7905 0.0421179 32.6459 0 32.4983 0C32.3507 0 32.2062 0.0421179 32.0816 0.121427C31.957 0.200736 31.8576 0.313956 31.7948 0.447844L29.6425 5.03974L24.6184 5.67236C24.4721 5.69106 24.3342 5.75107 24.2207 5.84536C24.1073 5.93965 24.0229 6.06434 23.9774 6.20488C23.932 6.34542 23.9274 6.49601 23.9642 6.63907C24.0009 6.78214 24.0775 6.91178 24.185 7.01287L27.8758 10.4807ZM30.2593 6.52791C30.3892 6.51145 30.5129 6.46235 30.6189 6.38516C30.7248 6.30796 30.8096 6.20519 30.8653 6.08638L32.4983 2.60627L34.1299 6.08638C34.1856 6.20519 34.2704 6.30796 34.3763 6.38516C34.4823 6.46235 34.606 6.51145 34.7359 6.52791L38.543 7.00707L35.7485 9.63815C35.653 9.72787 35.5816 9.84035 35.5411 9.96513C35.5005 10.0899 35.4921 10.2229 35.5167 10.3518L36.239 14.1287L32.8732 12.2779C32.7583 12.2147 32.6294 12.1816 32.4983 12.1816C32.3673 12.1816 32.2383 12.2147 32.1235 12.2779L28.762 14.1323L29.4843 10.3555C29.5088 10.2266 29.5004 10.0935 29.4599 9.96875C29.4194 9.84396 29.348 9.73149 29.2524 9.64177L26.4544 7.01069L30.2593 6.52791Z" fill="black"/>
</svg>
