<svg width="64" height="63" viewBox="0 0 64 63" fill="none" xmlns="http://www.w3.org/2000/svg">
<path d="M25.0483 24.2347C24.9153 24.3504 24.7491 24.4219 24.5731 24.4389C24.3971 24.456 24.2202 24.4179 24.0672 24.3299L21.7257 22.9852C21.1997 22.6864 20.5762 22.6061 19.9909 22.7619C19.4057 22.9177 18.9061 23.2968 18.6011 23.8168L17.9378 24.9578C17.6371 25.4802 17.5564 26.0994 17.7133 26.6806C17.8701 27.2617 18.2518 27.7579 18.7752 28.0609L21.0589 29.3713C21.2283 29.451 21.3662 29.5843 21.4511 29.7502C21.5359 29.9162 21.5628 30.1055 21.5276 30.2883C21.2506 31.6849 21.2506 33.1218 21.5276 34.5184C21.5635 34.7016 21.5369 34.8915 21.452 35.0581C21.3671 35.2247 21.2288 35.3584 21.0589 35.4382L18.8196 36.7213C18.5532 36.8674 18.3188 37.0646 18.1299 37.3016C17.9411 37.5385 17.8015 37.8104 17.7195 38.1014C17.6374 38.3924 17.6145 38.6967 17.6519 38.9966C17.6894 39.2965 17.7866 39.586 17.9378 39.8482L18.6011 40.9892C18.9049 41.5095 19.4038 41.8891 19.9887 42.0449C20.5737 42.2008 21.1969 42.1202 21.7221 41.8208L24.0672 40.4768C24.2201 40.3887 24.397 40.3505 24.573 40.3674C24.749 40.3844 24.9152 40.4557 25.0483 40.5713C25.5861 41.0401 26.169 41.4554 26.7885 41.811C27.3905 42.1572 28.0248 42.4449 28.6825 42.6699C28.8613 42.7177 29.0192 42.8228 29.1318 42.9688C29.2443 43.1149 29.3051 43.2938 29.3048 43.4777V46.1664C29.306 46.7676 29.5469 47.3438 29.9749 47.7689C30.403 48.194 30.9832 48.4333 31.5885 48.4344H32.9165C33.5216 48.4327 34.1015 48.1933 34.5294 47.7683C34.9573 47.3433 35.1985 46.7674 35.2001 46.1664V43.4777C35.1998 43.2938 35.2607 43.1149 35.3732 42.9688C35.4857 42.8228 35.6437 42.7177 35.8225 42.6699C36.4799 42.4442 37.1141 42.1566 37.7164 41.811C38.3354 41.4545 38.9182 41.0393 39.4567 40.5713C39.5892 40.4559 39.7548 40.3847 39.9302 40.3677C40.1056 40.3508 40.2819 40.3889 40.4343 40.4768L42.7793 41.8243C43.3058 42.1224 43.9295 42.202 44.5147 42.0456C45.0999 41.8892 45.5992 41.5095 45.9039 40.9892L46.5671 39.8482C46.8661 39.326 46.9456 38.7078 46.7885 38.1278C46.6313 37.5477 46.2501 37.0527 45.7277 36.75L43.444 35.4396C43.274 35.3598 43.1357 35.2261 43.0508 35.0595C42.966 34.8929 42.9394 34.703 42.9753 34.5198C43.2523 33.1232 43.2523 31.6863 42.9753 30.2897C42.9389 30.1102 42.9631 29.9237 43.0441 29.7592C43.1251 29.5947 43.2585 29.4614 43.4235 29.3797C44.1545 28.9856 45.0228 28.4424 45.7721 28.0315C46.271 27.7247 46.6333 27.2405 46.7854 26.6777C46.9374 26.1148 46.8677 25.5155 46.5904 25.0019L45.9032 23.8168C45.5979 23.2971 45.0984 22.9182 44.5132 22.7624C43.928 22.6067 43.3046 22.6868 42.7786 22.9852L40.4639 24.3096C40.3105 24.4075 40.1292 24.4532 39.9473 24.4397C39.7655 24.4262 39.593 24.3542 39.456 24.2347C38.9173 23.768 38.3345 23.354 37.7157 22.9985C37.1134 22.6529 36.4792 22.3653 35.8218 22.1396C35.6434 22.0911 35.4859 21.9858 35.3735 21.8399C35.2611 21.694 35.2 21.5155 35.1994 21.3318V18.6431C35.1985 18.0415 34.9577 17.4648 34.5297 17.0392C34.1018 16.6135 33.5215 16.3735 32.9157 16.3716H31.5885C30.9828 16.3735 30.4025 16.6135 29.9745 17.0392C29.5466 17.4648 29.3058 18.0415 29.3048 18.6431V21.3318C29.3043 21.5155 29.2432 21.694 29.1308 21.8399C29.0183 21.9858 28.8609 22.0911 28.6825 22.1396C27.3466 22.5991 26.1126 23.3105 25.0483 24.2347ZM3.00224 27.5009L0.500045 32.4674H2.03801C2.04832 37.0687 3.12372 41.6061 5.18111 45.7288C7.23849 49.8516 10.2228 53.4494 13.9034 56.2442C17.5839 59.039 21.8622 60.956 26.4077 61.8471C30.9531 62.7381 35.644 62.5793 40.1178 61.383C40.9686 61.1562 41.8031 60.893 42.6334 60.592C42.7983 60.5321 42.9436 60.4287 43.0537 60.2929C43.1639 60.1572 43.2347 59.9942 43.2586 59.8215C43.2825 59.6488 43.2586 59.4729 43.1894 59.3126C43.1203 59.1524 43.0085 59.0139 42.866 58.912C42.7384 58.8198 42.5898 58.7605 42.4335 58.7392C42.2772 58.718 42.118 58.7355 41.9701 58.7902C37.7007 60.3417 33.1176 60.8482 28.6092 60.2668C24.1007 59.6855 19.7999 58.0334 16.0709 55.4506C12.342 52.8678 9.29485 49.4303 7.18776 45.4295C5.08067 41.4287 3.97569 36.9824 3.96646 32.4674H5.50443L3.00224 27.5009ZM61.5042 37.3058L64 32.34H62.4649C62.4579 27.311 61.1779 22.3644 58.7425 17.9552C56.3072 13.546 52.7946 9.8156 48.5279 7.10717C44.2612 4.39874 39.3773 2.79918 34.3253 2.45557C29.2733 2.11196 24.2154 3.03534 19.6168 5.1408C19.3861 5.2483 19.2076 5.44214 19.1203 5.67995C19.0331 5.91776 19.0442 6.1802 19.1512 6.4099C19.2583 6.6396 19.4525 6.81787 19.6915 6.90576C19.9305 6.99364 20.1948 6.98399 20.4266 6.8789C24.7316 4.91275 29.4649 4.05208 34.192 4.3759C38.9191 4.69971 43.4886 6.19763 47.481 8.73215C51.4734 11.2667 54.7607 14.7566 57.0412 18.8815C59.3217 23.0064 60.5224 27.6342 60.5329 32.34H58.9956L61.5042 37.3058ZM54.7377 39.1895C55.733 39.1895 56.706 39.4826 57.5336 40.0318C58.3612 40.581 59.0063 41.3616 59.3872 42.2748C59.7681 43.1881 59.8677 44.193 59.6735 45.1626C59.4794 46.1321 59 47.0226 58.2962 47.7216C57.5924 48.4206 56.6957 48.8966 55.7195 49.0895C54.7432 49.2823 53.7314 49.1833 52.8118 48.805C51.8922 48.4268 51.1062 47.7862 50.5532 46.9642C50.0002 46.1423 49.7051 45.176 49.7051 44.1875C49.7051 42.8619 50.2353 41.5907 51.1791 40.6534C52.1229 39.7161 53.4029 39.1895 54.7377 39.1895ZM57.1031 41.8383C56.6353 41.3739 56.0394 41.0577 55.3907 40.9297C54.7419 40.8017 54.0696 40.8675 53.4585 41.119C52.8475 41.3704 52.3252 41.7962 51.9578 42.3423C51.5904 42.8885 51.3943 43.5306 51.3943 44.1875C51.3943 44.8444 51.5904 45.4865 51.9578 46.0327C52.3252 46.5788 52.8475 47.0046 53.4585 47.256C54.0696 47.5075 54.7419 47.5733 55.3907 47.4453C56.0394 47.3173 56.6353 47.0011 57.1031 46.5367C57.7298 45.9133 58.0818 45.0684 58.0818 44.1875C58.0818 43.3066 57.7298 42.4617 57.1031 41.8383ZM46.288 58.2666V56.7861C46.2716 55.0745 46.8554 53.4107 47.9395 52.08C48.4338 51.4573 49.0613 50.9515 49.7766 50.5993C50.492 50.247 51.2772 50.057 52.0755 50.043H57.3914C58.1898 50.0571 58.9751 50.2471 59.6905 50.5994C60.4059 50.9516 61.0336 51.4574 61.5281 52.08C62.6104 53.4111 63.1927 55.0746 63.1753 56.7854V58.2659C63.183 58.8737 62.9709 59.464 62.5776 59.9298C60.5089 62.3406 57.7368 63 54.732 63C51.7273 63 48.9523 62.3413 46.8864 59.9312C46.4926 59.4657 46.2803 58.8745 46.288 58.2666ZM47.9796 56.7861V58.2666C47.9673 58.4762 48.0356 58.6826 48.1706 58.8441C49.8869 60.8468 52.2115 61.3221 54.7348 61.3221C57.2582 61.3221 59.582 60.8468 61.3019 58.8441C61.4359 58.682 61.504 58.476 61.4929 58.2666V56.7861C61.5114 55.4664 61.0679 54.1813 60.2383 53.1503C59.9005 52.7173 59.4702 52.3642 58.9784 52.1164C58.4866 51.8686 57.9455 51.7324 57.3942 51.7174H52.0755C51.5241 51.732 50.9829 51.8682 50.4911 52.116C49.9992 52.3638 49.569 52.7171 49.2314 53.1503C48.4003 54.1805 47.9567 55.4662 47.9768 56.7861H47.9796ZM8.44432 4.90423e-08C9.4397 -0.000138402 10.4128 0.292872 11.2405 0.841975C12.0682 1.39108 12.7133 2.17161 13.0943 3.08486C13.4753 3.99812 13.5751 5.00307 13.381 5.97263C13.1869 6.94219 12.7076 7.83282 12.0038 8.53187C11.3001 9.23092 10.4033 9.70701 9.42709 9.89991C8.45085 10.0928 7.43893 9.99388 6.51931 9.61562C5.59968 9.23735 4.81366 8.59674 4.26064 7.77481C3.70763 6.95288 3.41245 5.98654 3.41245 4.998C3.41236 4.34169 3.54245 3.69178 3.79528 3.0854C4.04811 2.47902 4.41874 1.92804 4.886 1.46392C5.35327 0.999806 5.90801 0.631645 6.51855 0.380464C7.12909 0.129282 7.78347 4.26035e-08 8.44432 4.90423e-08ZM10.8105 2.6481C10.3427 2.18373 9.74675 1.86755 9.09803 1.73951C8.44931 1.61147 7.77692 1.67734 7.16589 1.92878C6.55486 2.18022 6.03261 2.60595 5.66519 3.15213C5.29776 3.69832 5.10165 4.34044 5.10165 4.9973C5.10165 5.65416 5.29776 6.29628 5.66519 6.84247C6.03261 7.38865 6.55486 7.81438 7.16589 8.06582C7.77692 8.31726 8.44931 8.38313 9.09803 8.25509C9.74675 8.12706 10.3427 7.81087 10.8105 7.3465C11.4372 6.7231 11.7891 5.8782 11.7891 4.9973C11.7891 4.1164 11.4372 3.2715 10.8105 2.6481ZM0.000312042 19.0778V17.5973C-0.0154731 15.8862 0.568066 14.2228 1.65105 12.8919C2.14552 12.2692 2.77316 11.7634 3.48859 11.4111C4.20402 11.0588 4.98935 10.8688 5.78777 10.8549H11.1037C11.902 10.8687 12.6873 11.0586 13.4026 11.411C14.118 11.7633 14.7455 12.2691 15.2397 12.8919C16.3232 14.2226 16.907 15.8861 16.8912 17.5973V19.0778C16.8982 19.686 16.6845 20.2764 16.2892 20.741C14.2212 23.1518 11.4491 23.8105 8.44362 23.8105C5.43817 23.8105 2.67096 23.1518 0.599428 20.741C0.204875 20.2762 -0.00782023 19.6857 0.000312042 19.0778ZM1.69193 17.5973V19.0778C1.6797 19.2872 1.74797 19.4933 1.88295 19.6546C3.59501 21.658 5.92099 22.1333 8.44432 22.1333C10.9677 22.1333 13.2922 21.658 15.0113 19.6546C15.1455 19.4928 15.2138 19.2871 15.2031 19.0778V17.5973C15.2214 16.2774 14.778 14.9921 13.9484 13.9608C13.6106 13.528 13.1803 13.1752 12.6884 12.9278C12.1966 12.6803 11.6556 12.5445 11.1044 12.53H5.78848C5.23741 12.5438 4.69632 12.6791 4.20443 12.9262C3.71253 13.1733 3.28214 13.526 2.94444 13.9587C2.11371 14.9901 1.67081 16.2767 1.69193 17.5973ZM32.2511 25.4737C33.6312 25.4737 34.9803 25.8801 36.1278 26.6416C37.2753 27.4031 38.1697 28.4854 38.6979 29.7517C39.226 31.018 39.3642 32.4114 39.0949 33.7557C38.8257 35.1 38.1611 36.3348 37.1852 37.304C36.2093 38.2731 34.966 38.9331 33.6124 39.2005C32.2588 39.4679 30.8558 39.3307 29.5807 38.8062C28.3057 38.2817 27.2159 37.3934 26.4491 36.2538C25.6824 35.1142 25.2731 33.7743 25.2731 32.4037C25.2731 30.5658 26.0083 28.8031 27.3169 27.5034C28.6255 26.2038 30.4004 25.4737 32.2511 25.4737ZM35.991 28.6888C35.2515 27.9551 34.3095 27.4556 33.2842 27.2535C32.2589 27.0513 31.1963 27.1556 30.2307 27.5531C29.265 27.9507 28.4397 28.6236 27.8591 29.4868C27.2785 30.3501 26.9686 31.3649 26.9686 32.403C26.9686 33.4411 27.2785 34.4559 27.8591 35.3192C28.4397 36.1824 29.265 36.8553 30.2307 37.2529C31.1963 37.6504 32.2589 37.7547 33.2842 37.5525C34.3095 37.3504 35.2515 36.8509 35.991 36.1172C36.9825 35.1319 37.5394 33.796 37.5394 32.403C37.5394 31.01 36.9825 29.6741 35.991 28.6888ZM19.7704 34.2468C19.5893 33.0244 19.5893 31.7823 19.7704 30.5599L17.9308 29.5099C17.0207 28.9858 16.357 28.1246 16.0853 27.1152C15.8137 26.1059 15.9562 25.0307 16.4816 24.1255L17.1449 22.981C17.6726 22.0771 18.5397 21.418 19.5561 21.1482C20.5725 20.8784 21.6551 21.02 22.5665 21.5418L24.4062 22.5918C25.3785 21.8231 26.4602 21.2017 27.616 20.748V18.6431C27.6175 17.5974 28.0366 16.595 28.7813 15.8558C29.5261 15.1166 30.5356 14.7009 31.5885 14.7H32.9165C33.9696 14.7015 34.9791 15.1176 35.7238 15.8572C36.4684 16.5967 36.8875 17.5993 36.8889 18.6452V20.748C38.0447 21.2015 39.1264 21.8226 40.0988 22.5911L41.9314 21.5411C42.3868 21.2806 42.8897 21.1123 43.411 21.0461C43.9323 20.9798 44.4616 21.0169 44.9684 21.1552C45.4751 21.2934 45.9493 21.5302 46.3633 21.8516C46.7773 22.1731 47.1231 22.5729 47.3805 23.0279L48.0198 24.1248C48.546 25.0299 48.6888 26.1054 48.417 27.115C48.1451 28.1246 47.4808 28.9858 46.57 29.5092L44.731 30.5648C44.9122 31.7862 44.9122 33.0275 44.731 34.2489L46.5671 35.2989C47.0218 35.5604 47.4197 35.9089 47.7379 36.3241C48.056 36.7394 48.2881 37.2132 48.4207 37.7181C48.5532 38.223 48.5836 38.749 48.5101 39.2657C48.4365 39.7824 48.2606 40.2794 47.9923 40.7281L47.358 41.8278C46.8308 42.7317 45.964 43.3909 44.9479 43.6607C43.9319 43.9305 42.8495 43.7889 41.9384 43.267L40.0988 42.217C39.1269 42.9871 38.0451 43.6094 36.8889 44.0636V46.1685C36.8863 47.2138 36.4669 48.2156 35.7224 48.9546C34.9779 49.6935 33.969 50.1096 32.9165 50.1116H31.5885C30.5354 50.1101 29.5259 49.694 28.7812 48.9544C28.0365 48.2149 27.6175 47.2123 27.616 46.1664V44.0615C26.4595 43.6081 25.3776 42.9857 24.4062 42.2149L22.5665 43.2705C21.6547 43.7921 20.5717 43.9331 19.5553 43.6626C18.5389 43.3921 17.672 42.7323 17.1449 41.8278L16.4506 40.6329C15.9396 39.7208 15.8134 38.6447 16.0998 37.6404C16.3863 36.6361 17.0619 35.7855 17.9787 35.2751L19.7704 34.2468Z" fill="black"/>
</svg>
