<svg width="625" height="400" viewBox="0 0 625 400" fill="none" xmlns="http://www.w3.org/2000/svg">
<path opacity="0.3" fill-rule="evenodd" clip-rule="evenodd" d="M0 0.999999C0 0.447715 0.427862 0 0.955657 0H4.9012C5.42899 0 5.85686 0.447715 5.85686 0.999999C5.85686 1.55228 5.42899 2 4.9012 2H0.955657C0.427862 2 0 1.55228 0 0.999999ZM11.8366 0.999999C11.8366 0.447715 12.2645 0 12.7923 0H20.6834C21.2112 0 21.639 0.447715 21.639 0.999999C21.639 1.55228 21.2112 2 20.6834 2H12.7923C12.2645 2 11.8366 1.55228 11.8366 0.999999ZM27.6188 0.999999C27.6188 0.447715 28.0467 0 28.5745 0H36.4655C36.9933 0 37.4212 0.447715 37.4212 0.999999C37.4212 1.55228 36.9933 2 36.4655 2H28.5745C28.0467 2 27.6188 1.55228 27.6188 0.999999ZM43.401 0.999999C43.401 0.447715 43.8288 0 44.3566 0H52.2477C52.7755 0 53.2034 0.447715 53.2034 0.999999C53.2034 1.55228 52.7755 2 52.2477 2H44.3566C43.8288 2 43.401 1.55228 43.401 0.999999ZM59.1831 0.999999C59.1831 0.447715 59.611 0 60.1388 0H68.0299C68.5577 0 68.9855 0.447715 68.9855 0.999999C68.9855 1.55228 68.5577 2 68.0299 2H60.1388C59.611 2 59.1831 1.55228 59.1831 0.999999ZM74.9653 0.999999C74.9653 0.447715 75.3932 0 75.921 0H83.812C84.3398 0 84.7677 0.447715 84.7677 0.999999C84.7677 1.55228 84.3398 2 83.812 2H75.921C75.3932 2 74.9653 1.55228 74.9653 0.999999ZM90.7475 0.999999C90.7475 0.447715 91.1753 0 91.7031 0H99.5942C100.122 0 100.55 0.447715 100.55 0.999999C100.55 1.55228 100.122 2 99.5942 2H91.7031C91.1753 2 90.7475 1.55228 90.7475 0.999999ZM106.53 0.999999C106.53 0.447715 106.957 0 107.485 0H115.376C115.904 0 116.332 0.447715 116.332 0.999999C116.332 1.55228 115.904 2 115.376 2H107.485C106.957 2 106.53 1.55228 106.53 0.999999ZM122.312 0.999999C122.312 0.447715 122.74 0 123.267 0H131.159C131.686 0 132.114 0.447715 132.114 0.999999C132.114 1.55228 131.686 2 131.159 2H123.267C122.74 2 122.312 1.55228 122.312 0.999999ZM138.094 0.999999C138.094 0.447715 138.522 0 139.05 0H146.941C147.469 0 147.896 0.447715 147.896 0.999999C147.896 1.55228 147.469 2 146.941 2H139.05C138.522 2 138.094 1.55228 138.094 0.999999ZM153.876 0.999999C153.876 0.447715 154.304 0 154.832 0H162.723C163.251 0 163.679 0.447715 163.679 0.999999C163.679 1.55228 163.251 2 162.723 2H154.832C154.304 2 153.876 1.55228 153.876 0.999999ZM169.658 0.999999C169.658 0.447715 170.086 0 170.614 0H178.505C179.033 0 179.461 0.447715 179.461 0.999999C179.461 1.55228 179.033 2 178.505 2H170.614C170.086 2 169.658 1.55228 169.658 0.999999ZM185.44 0.999999C185.44 0.447715 185.868 0 186.396 0H194.287C194.815 0 195.243 0.447715 195.243 0.999999C195.243 1.55228 194.815 2 194.287 2H186.396C185.868 2 185.44 1.55228 185.44 0.999999ZM201.223 0.999999C201.223 0.447715 201.65 0 202.178 0H210.069C210.597 0 211.025 0.447715 211.025 0.999999C211.025 1.55228 210.597 2 210.069 2H202.178C201.65 2 201.223 1.55228 201.223 0.999999ZM217.005 0.999999C217.005 0.447715 217.433 0 217.96 0H221.906C222.058 0 222.209 0.0381273 222.344 0.111202L225.665 1.903C226.134 2.15611 226.318 2.75923 226.076 3.2501C225.834 3.74097 225.258 3.93371 224.789 3.6806L221.674 2H217.96C217.433 2 217.005 1.55228 217.005 0.999999ZM231.019 5.9171C231.261 5.42623 231.837 5.23349 232.307 5.4866L238.948 9.0702C239.417 9.32331 239.601 9.92643 239.36 10.4173C239.118 10.9082 238.541 11.1009 238.072 10.8478L231.431 7.2642C230.961 7.01109 230.777 6.40797 231.019 5.9171ZM244.302 13.0843C244.544 12.5934 245.121 12.4007 245.59 12.6538L252.232 16.2374C252.701 16.4905 252.885 17.0936 252.643 17.5845C252.401 18.0754 251.825 18.2681 251.356 18.015L244.714 14.4314C244.245 14.1783 244.061 13.5752 244.302 13.0843ZM257.586 20.2515C257.828 19.7606 258.404 19.5679 258.873 19.821L265.515 23.4046C265.984 23.6577 266.168 24.2608 265.926 24.7517C265.684 25.2426 265.108 25.4353 264.639 25.1822L257.997 21.5986C257.528 21.3455 257.344 20.7424 257.586 20.2515ZM270.869 27.4187C271.111 26.9278 271.687 26.7351 272.156 26.9882L278.798 30.5718C279.267 30.8249 279.451 31.428 279.21 31.9189C278.968 32.4098 278.391 32.6025 277.922 32.3494L271.281 28.7658C270.811 28.5127 270.627 27.9096 270.869 27.4187ZM284.152 34.5859C284.394 34.095 284.971 33.9023 285.44 34.1554L292.081 37.739C292.551 37.9921 292.735 38.5952 292.493 39.0861C292.251 39.577 291.675 39.7697 291.206 39.5166L284.564 35.933C284.095 35.6799 283.911 35.0768 284.152 34.5859ZM297.436 41.7531C297.678 41.2622 298.254 41.0695 298.723 41.3226L305.365 44.9062C305.834 45.1593 306.018 45.7624 305.776 46.2533C305.534 46.7442 304.958 46.9369 304.489 46.6838L297.847 43.1002C297.378 42.8471 297.194 42.244 297.436 41.7531ZM310.719 48.9203C310.961 48.4294 311.537 48.2367 312.006 48.4898L318.648 52.0734C319.117 52.3265 319.301 52.9296 319.06 53.4205C318.818 53.9114 318.241 54.1041 317.772 53.851L311.131 50.2674C310.661 50.0143 310.477 49.4112 310.719 48.9203ZM324.002 56.0875C324.244 55.5966 324.821 55.4039 325.29 55.657L331.931 59.2406C332.401 59.4937 332.585 60.0968 332.343 60.5877C332.101 61.0786 331.525 61.2713 331.056 61.0182L324.414 57.4346C323.945 57.1815 323.761 56.5784 324.002 56.0875ZM337.286 63.2547C337.528 62.7638 338.104 62.5711 338.573 62.8242L345.215 66.4078C345.684 66.6609 345.868 67.264 345.626 67.7549C345.384 68.2458 344.808 68.4385 344.339 68.1854L337.697 64.6018C337.228 64.3487 337.044 63.7456 337.286 63.2547ZM350.569 70.4219C350.811 69.931 351.387 69.7383 351.856 69.9914L358.498 73.575C358.967 73.8281 359.151 74.4312 358.91 74.9221C358.668 75.413 358.091 75.6057 357.622 75.3526L350.98 71.769C350.511 71.5159 350.327 70.9128 350.569 70.4219ZM363.852 77.5891C364.094 77.0982 364.671 76.9055 365.14 77.1586L371.781 80.7422C372.251 80.9953 372.435 81.5984 372.193 82.0893C371.951 82.5802 371.375 82.7729 370.905 82.5198L364.264 78.9362C363.795 78.6831 363.611 78.08 363.852 77.5891ZM377.136 84.7563C377.378 84.2654 377.954 84.0727 378.423 84.3258L385.065 87.9094C385.534 88.1625 385.718 88.7656 385.476 89.2565C385.234 89.7474 384.658 89.9401 384.189 89.687L377.547 86.1034C377.078 85.8503 376.894 85.2472 377.136 84.7563ZM390.419 91.9235C390.661 91.4326 391.237 91.2399 391.706 91.493L398.348 95.0766C398.817 95.3297 399.001 95.9329 398.76 96.4237C398.518 96.9146 397.941 97.1073 397.472 96.8542L390.83 93.2706C390.361 93.0175 390.177 92.4144 390.419 91.9235ZM403.702 99.0907C403.944 98.5999 404.521 98.4071 404.99 98.6602L411.631 102.244C412.101 102.497 412.285 103.1 412.043 103.591C411.801 104.082 411.225 104.275 410.755 104.021L404.114 100.438C403.645 100.185 403.461 99.5816 403.702 99.0907ZM416.986 106.258C417.228 105.767 417.804 105.574 418.273 105.827L421.594 107.619C421.912 107.791 422.112 108.134 422.112 108.508V112.394C422.112 112.946 421.684 113.394 421.156 113.394C420.628 113.394 420.2 112.946 420.2 112.394V109.117L417.397 107.605C416.928 107.352 416.744 106.749 416.986 106.258ZM421.156 119.166C421.684 119.166 422.112 119.613 422.112 120.166V127.937C422.112 128.489 421.684 128.937 421.156 128.937C420.628 128.937 420.2 128.489 420.2 127.937V120.166C420.2 119.613 420.628 119.166 421.156 119.166ZM421.156 134.709C421.684 134.709 422.112 135.157 422.112 135.709V143.48C422.112 144.033 421.684 144.48 421.156 144.48C420.628 144.48 420.2 144.033 420.2 143.48V135.709C420.2 135.157 420.628 134.709 421.156 134.709ZM421.156 150.252C421.684 150.252 422.112 150.7 422.112 151.252V159.024C422.112 159.576 421.684 160.024 421.156 160.024C420.628 160.024 420.2 159.576 420.2 159.024V151.252C420.2 150.7 420.628 150.252 421.156 150.252ZM421.156 165.796C421.684 165.796 422.112 166.243 422.112 166.795V174.567C422.112 175.119 421.684 175.567 421.156 175.567C420.628 175.567 420.2 175.119 420.2 174.567V166.795C420.2 166.243 420.628 165.796 421.156 165.796ZM421.156 181.339C421.684 181.339 422.112 181.787 422.112 182.339V190.11C422.112 190.663 421.684 191.11 421.156 191.11C420.628 191.11 420.2 190.663 420.2 190.11V182.339C420.2 181.787 420.628 181.339 421.156 181.339ZM421.156 196.882C421.684 196.882 422.112 197.33 422.112 197.882V205.654C422.112 206.206 421.684 206.654 421.156 206.654C420.628 206.654 420.2 206.206 420.2 205.654V197.882C420.2 197.33 420.628 196.882 421.156 196.882ZM421.156 212.425C421.684 212.425 422.112 212.873 422.112 213.425V221.197C422.112 221.749 421.684 222.197 421.156 222.197C420.628 222.197 420.2 221.749 420.2 221.197V213.425C420.2 212.873 420.628 212.425 421.156 212.425ZM421.156 227.969C421.684 227.969 422.112 228.417 422.112 228.969V236.74C422.112 237.293 421.684 237.74 421.156 237.74C420.628 237.74 420.2 237.293 420.2 236.74V228.969C420.2 228.417 420.628 227.969 421.156 227.969ZM421.156 243.512C421.684 243.512 422.112 243.96 422.112 244.512V252.284C422.112 252.836 421.684 253.284 421.156 253.284C420.628 253.284 420.2 252.836 420.2 252.284V244.512C420.2 243.96 420.628 243.512 421.156 243.512ZM421.156 259.055C421.684 259.055 422.112 259.503 422.112 260.055V267.827C422.112 268.379 421.684 268.827 421.156 268.827C420.628 268.827 420.2 268.379 420.2 267.827V260.055C420.2 259.503 420.628 259.055 421.156 259.055ZM421.156 274.599C421.684 274.599 422.112 275.047 422.112 275.599V283.37C422.112 283.923 421.684 284.37 421.156 284.37C420.628 284.37 420.2 283.923 420.2 283.37V275.599C420.2 275.047 420.628 274.599 421.156 274.599ZM421.156 290.142C421.684 290.142 422.112 290.59 422.112 291.142V294.404L424.958 295.863C425.432 296.106 425.628 296.705 425.396 297.201C425.164 297.697 424.591 297.902 424.117 297.659L420.736 295.926C420.408 295.758 420.2 295.41 420.2 295.028V291.142C420.2 290.59 420.628 290.142 421.156 290.142ZM430.442 299.787C430.674 299.291 431.247 299.086 431.721 299.328L438.484 302.794C438.958 303.037 439.154 303.636 438.922 304.132C438.689 304.628 438.117 304.833 437.643 304.59L430.88 301.125C430.406 300.882 430.21 300.283 430.442 299.787ZM443.968 306.718C444.2 306.222 444.773 306.017 445.247 306.26L452.009 309.726C452.483 309.969 452.68 310.568 452.447 311.064C452.215 311.56 451.643 311.765 451.169 311.522L444.406 308.056C443.932 307.813 443.736 307.214 443.968 306.718ZM457.494 313.65C457.726 313.154 458.298 312.948 458.772 313.191L465.535 316.657C466.009 316.9 466.205 317.499 465.973 317.995C465.741 318.491 465.169 318.696 464.695 318.453L457.932 314.988C457.458 314.745 457.262 314.146 457.494 313.65ZM471.02 320.581C471.252 320.085 471.824 319.88 472.298 320.123L479.061 323.589C479.535 323.831 479.731 324.43 479.499 324.926C479.267 325.422 478.695 325.628 478.221 325.385L471.458 321.919C470.984 321.676 470.788 321.077 471.02 320.581ZM484.546 327.513C484.778 327.017 485.35 326.811 485.824 327.054L492.587 330.52C493.061 330.763 493.257 331.362 493.025 331.858C492.793 332.354 492.22 332.559 491.746 332.316L484.984 328.85C484.51 328.608 484.313 328.009 484.546 327.513ZM498.071 334.444C498.304 333.948 498.876 333.743 499.35 333.986L506.113 337.451C506.587 337.694 506.783 338.293 506.551 338.789C506.319 339.285 505.746 339.491 505.272 339.248L498.509 335.782C498.035 335.539 497.839 334.94 498.071 334.444ZM511.597 341.375C511.83 340.879 512.402 340.674 512.876 340.917L519.639 344.383C520.113 344.626 520.309 345.225 520.077 345.721C519.845 346.217 519.272 346.422 518.798 346.179L512.035 342.713C511.561 342.47 511.365 341.871 511.597 341.375ZM525.123 348.307C525.355 347.811 525.928 347.606 526.402 347.849L533.165 351.314C533.639 351.557 533.835 352.156 533.603 352.652C533.371 353.148 532.798 353.353 532.324 353.111L525.561 349.645C525.087 349.402 524.891 348.803 525.123 348.307ZM538.649 355.238C538.881 354.742 539.454 354.537 539.928 354.78L546.691 358.246C547.165 358.489 547.361 359.088 547.129 359.584C546.896 360.08 546.324 360.285 545.85 360.042L539.087 356.576C538.613 356.333 538.417 355.734 538.649 355.238ZM552.175 362.17C552.407 361.674 552.98 361.469 553.454 361.712L560.217 365.177C560.69 365.42 560.887 366.019 560.654 366.515C560.422 367.011 559.85 367.216 559.376 366.973L552.613 363.508C552.139 363.265 551.943 362.666 552.175 362.17ZM565.701 369.101C565.933 368.605 566.505 368.4 566.979 368.643L573.742 372.109C574.216 372.352 574.412 372.951 574.18 373.447C573.948 373.943 573.376 374.148 572.902 373.905L566.139 370.439C565.665 370.196 565.469 369.597 565.701 369.101ZM579.227 376.033C579.459 375.537 580.031 375.332 580.505 375.574L587.268 379.04C587.742 379.283 587.938 379.882 587.706 380.378C587.474 380.874 586.902 381.079 586.428 380.836L579.665 377.371C579.191 377.128 578.995 376.529 579.227 376.033ZM592.753 382.964C592.985 382.468 593.557 382.263 594.031 382.506L600.794 385.972C601.268 386.215 601.464 386.814 601.232 387.31C601 387.806 600.427 388.011 599.954 387.768L593.191 384.302C592.717 384.059 592.521 383.46 592.753 382.964ZM606.279 389.896C606.511 389.4 607.083 389.194 607.557 389.437L614.32 392.903C614.794 393.146 614.99 393.745 614.758 394.241C614.526 394.737 613.953 394.942 613.479 394.699L606.716 391.234C606.242 390.991 606.046 390.392 606.279 389.896ZM619.804 396.827C620.037 396.331 620.609 396.126 621.083 396.369L624.464 398.102C624.938 398.345 625.135 398.944 624.902 399.44C624.67 399.936 624.098 400.141 623.624 399.898L620.242 398.165C619.768 397.922 619.572 397.323 619.804 396.827Z" fill="black"/>
</svg>
