<svg width="553" height="382" viewBox="0 0 553 382" fill="none" xmlns="http://www.w3.org/2000/svg">
<path opacity="0.3" fill-rule="evenodd" clip-rule="evenodd" d="M0 0.955C0 0.427568 0.391132 0 0.873617 0H4.36428C4.84676 0 5.2379 0.427568 5.2379 0.955C5.2379 1.48243 4.84676 1.91 4.36428 1.91H0.873617C0.391132 1.91 0 1.48243 0 0.955ZM10.472 0.955C10.472 0.427568 10.8631 0 11.3456 0H18.3269C18.8094 0 19.2005 0.427568 19.2005 0.955C19.2005 1.48243 18.8094 1.91 18.3269 1.91H11.3456C10.8631 1.91 10.472 1.48243 10.472 0.955ZM24.4346 0.955C24.4346 0.427568 24.8258 0 25.3082 0H32.2896C32.7721 0 33.1632 0.427568 33.1632 0.955C33.1632 1.48243 32.7721 1.91 32.2896 1.91H25.3082C24.8258 1.91 24.4346 1.48243 24.4346 0.955ZM38.3973 0.955C38.3973 0.427568 38.7884 0 39.2709 0H46.2522C46.7347 0 47.1258 0.427568 47.1258 0.955C47.1258 1.48243 46.7347 1.91 46.2522 1.91H39.2709C38.7884 1.91 38.3973 1.48243 38.3973 0.955ZM52.3599 0.955C52.3599 0.427568 52.751 0 53.2335 0H60.2149C60.6973 0 61.0885 0.427568 61.0885 0.955C61.0885 1.48243 60.6973 1.91 60.2149 1.91H53.2335C52.751 1.91 52.3599 1.48243 52.3599 0.955ZM66.3226 0.955C66.3226 0.427568 66.7137 0 67.1962 0H74.1775C74.66 0 75.0511 0.427568 75.0511 0.955C75.0511 1.48243 74.66 1.91 74.1775 1.91H67.1962C66.7137 1.91 66.3226 1.48243 66.3226 0.955ZM80.2852 0.955C80.2852 0.427568 80.6763 0 81.1588 0H88.1401C88.6226 0 89.0137 0.427568 89.0137 0.955C89.0137 1.48243 88.6226 1.91 88.1401 1.91H81.1588C80.6763 1.91 80.2852 1.48243 80.2852 0.955ZM94.2478 0.955C94.2478 0.427568 94.639 0 95.1215 0H102.103C102.585 0 102.976 0.427568 102.976 0.955C102.976 1.48243 102.585 1.91 102.103 1.91H95.1215C94.639 1.91 94.2478 1.48243 94.2478 0.955ZM108.21 0.955C108.21 0.427568 108.602 0 109.084 0H116.065C116.548 0 116.939 0.427568 116.939 0.955C116.939 1.48243 116.548 1.91 116.065 1.91H109.084C108.602 1.91 108.21 1.48243 108.21 0.955ZM122.173 0.955C122.173 0.427568 122.564 0 123.047 0H130.028C130.511 0 130.902 0.427568 130.902 0.955C130.902 1.48243 130.511 1.91 130.028 1.91H123.047C122.564 1.91 122.173 1.48243 122.173 0.955ZM136.136 0.955C136.136 0.427568 136.527 0 137.009 0H143.991C144.473 0 144.864 0.427568 144.864 0.955C144.864 1.48243 144.473 1.91 143.991 1.91H137.009C136.527 1.91 136.136 1.48243 136.136 0.955ZM150.098 0.955C150.098 0.427568 150.49 0 150.972 0H157.953C158.436 0 158.827 0.427568 158.827 0.955C158.827 1.48243 158.436 1.91 157.953 1.91H150.972C150.49 1.91 150.098 1.48243 150.098 0.955ZM164.061 0.955C164.061 0.427568 164.452 0 164.935 0H171.916C172.399 0 172.79 0.427568 172.79 0.955C172.79 1.48243 172.399 1.91 171.916 1.91H164.935C164.452 1.91 164.061 1.48243 164.061 0.955ZM178.024 0.955C178.024 0.427568 178.415 0 178.897 0H185.879C186.361 0 186.752 0.427568 186.752 0.955C186.752 1.48243 186.361 1.91 185.879 1.91H178.897C178.415 1.91 178.024 1.48243 178.024 0.955ZM191.986 0.955C191.986 0.427568 192.378 0 192.86 0H196.351C196.494 0 196.635 0.03852 196.761 0.112166L199.909 1.94556C200.335 2.19357 200.496 2.77197 200.269 3.23746C200.043 3.70294 199.513 3.87924 199.088 3.63123L196.132 1.91H192.86C192.378 1.91 191.986 1.48243 191.986 0.955ZM205.023 6.00613C205.25 5.54064 205.779 5.36434 206.205 5.61235L212.501 9.27915C212.926 9.52715 213.088 10.1056 212.861 10.571C212.634 11.0365 212.105 11.2128 211.679 10.9648L205.383 7.29802C204.958 7.05001 204.796 6.47161 205.023 6.00613ZM217.614 13.3397C217.841 12.8742 218.37 12.6979 218.796 12.9459L225.092 16.6127C225.518 16.8607 225.679 17.4391 225.452 17.9046C225.225 18.3701 224.696 18.5464 224.27 18.2984L217.975 14.6316C217.549 14.3836 217.388 13.8052 217.614 13.3397ZM230.206 20.6733C230.433 20.2078 230.962 20.0315 231.388 20.2795L237.683 23.9463C238.109 24.1943 238.27 24.7727 238.043 25.2382C237.817 25.7037 237.287 25.88 236.862 25.632L230.566 21.9652C230.14 21.7172 229.979 21.1388 230.206 20.6733ZM242.797 28.0069C243.024 27.5414 243.553 27.3651 243.979 27.6131L250.274 31.2799C250.7 31.5279 250.862 32.1063 250.635 32.5718C250.408 33.0373 249.879 33.2136 249.453 32.9656L243.157 29.2988C242.731 29.0508 242.57 28.4724 242.797 28.0069ZM255.388 35.3405C255.615 34.875 256.144 34.6987 256.57 34.9467L262.866 38.6135C263.292 38.8615 263.453 39.4399 263.226 39.9054C262.999 40.3709 262.47 40.5471 262.044 40.2991L255.749 36.6324C255.323 36.3843 255.161 35.8059 255.388 35.3405ZM267.98 42.674C268.207 42.2086 268.736 42.0323 269.161 42.2803L275.457 45.9471C275.883 46.1951 276.044 46.7735 275.817 47.2389C275.59 47.7044 275.061 47.8807 274.636 47.6327L268.34 43.9659C267.914 43.7179 267.753 43.1395 267.98 42.674ZM280.571 50.0076C280.798 49.5421 281.327 49.3658 281.753 49.6138L288.048 53.2806C288.474 53.5286 288.636 54.107 288.409 54.5725C288.182 55.038 287.653 55.2143 287.227 54.9663L280.931 51.2995C280.505 51.0515 280.344 50.4731 280.571 50.0076ZM293.162 57.3412C293.389 56.8757 293.918 56.6994 294.344 56.9474L300.64 60.6142C301.066 60.8622 301.227 61.4406 301 61.9061C300.773 62.3716 300.244 62.5479 299.818 62.2999L293.522 58.6331C293.097 58.3851 292.935 57.8067 293.162 57.3412ZM305.754 64.6748C305.98 64.2093 306.51 64.033 306.935 64.281L313.231 67.9478C313.657 68.1958 313.818 68.7742 313.591 69.2397C313.364 69.7052 312.835 69.8815 312.409 69.6335L306.114 65.9667C305.688 65.7187 305.527 65.1403 305.754 64.6748ZM318.345 72.0084C318.572 71.5429 319.101 71.3666 319.527 71.6146L325.822 75.2814C326.248 75.5294 326.409 76.1078 326.183 76.5733C325.956 77.0388 325.427 77.2151 325.001 76.9671L318.705 73.3003C318.279 73.0523 318.118 72.4738 318.345 72.0084ZM330.936 79.3419C331.163 78.8765 331.692 78.7002 332.118 78.9482L338.414 82.615C338.839 82.863 339.001 83.4414 338.774 83.9069C338.547 84.3723 338.018 84.5486 337.592 84.3006L331.296 80.6338C330.871 80.3858 330.709 79.8074 330.936 79.3419ZM343.528 86.6755C343.754 86.21 344.284 86.0337 344.709 86.2818L351.005 89.9485C351.431 90.1966 351.592 90.775 351.365 91.2404C351.138 91.7059 350.609 91.8822 350.183 91.6342L343.888 87.9674C343.462 87.7194 343.301 87.141 343.528 86.6755ZM356.119 94.0091C356.346 93.5436 356.875 93.3673 357.301 93.6153L363.596 97.2821C364.022 97.5301 364.183 98.1085 363.957 98.574C363.73 99.0395 363.201 99.2158 362.775 98.9678L356.479 95.301C356.053 95.053 355.892 94.4746 356.119 94.0091ZM368.71 101.343C368.937 100.877 369.466 100.701 369.892 100.949L373.04 102.782C373.325 102.948 373.503 103.272 373.503 103.625V107.336C373.503 107.864 373.112 108.291 372.629 108.291C372.147 108.291 371.755 107.864 371.755 107.336V104.198L369.07 102.635C368.645 102.387 368.483 101.808 368.71 101.343ZM372.629 113.803C373.112 113.803 373.503 114.231 373.503 114.758V122.18C373.503 122.707 373.112 123.135 372.629 123.135C372.147 123.135 371.755 122.707 371.755 122.18V114.758C371.755 114.231 372.147 113.803 372.629 113.803ZM372.629 128.647C373.112 128.647 373.503 129.075 373.503 129.602V137.024C373.503 137.551 373.112 137.979 372.629 137.979C372.147 137.979 371.755 137.551 371.755 137.024V129.602C371.755 129.075 372.147 128.647 372.629 128.647ZM372.629 143.491C373.112 143.491 373.503 143.918 373.503 144.446V151.868C373.503 152.395 373.112 152.823 372.629 152.823C372.147 152.823 371.755 152.395 371.755 151.868V144.446C371.755 143.918 372.147 143.491 372.629 143.491ZM372.629 158.335C373.112 158.335 373.503 158.762 373.503 159.29V166.712C373.503 167.239 373.112 167.667 372.629 167.667C372.147 167.667 371.755 167.239 371.755 166.712V159.29C371.755 158.762 372.147 158.335 372.629 158.335ZM372.629 173.179C373.112 173.179 373.503 173.606 373.503 174.134V181.556C373.503 182.083 373.112 182.511 372.629 182.511C372.147 182.511 371.755 182.083 371.755 181.556V174.134C371.755 173.606 372.147 173.179 372.629 173.179ZM372.629 188.022C373.112 188.022 373.503 188.45 373.503 188.977V196.399C373.503 196.927 373.112 197.354 372.629 197.354C372.147 197.354 371.755 196.927 371.755 196.399V188.977C371.755 188.45 372.147 188.022 372.629 188.022ZM372.629 202.866C373.112 202.866 373.503 203.294 373.503 203.821V211.243C373.503 211.771 373.112 212.198 372.629 212.198C372.147 212.198 371.755 211.771 371.755 211.243V203.821C371.755 203.294 372.147 202.866 372.629 202.866ZM372.629 217.71C373.112 217.71 373.503 218.138 373.503 218.665V226.087C373.503 226.615 373.112 227.042 372.629 227.042C372.147 227.042 371.755 226.615 371.755 226.087V218.665C371.755 218.138 372.147 217.71 372.629 217.71ZM372.629 232.554C373.112 232.554 373.503 232.982 373.503 233.509V240.931C373.503 241.458 373.112 241.886 372.629 241.886C372.147 241.886 371.755 241.458 371.755 240.931V233.509C371.755 232.982 372.147 232.554 372.629 232.554ZM372.629 247.398C373.112 247.398 373.503 247.826 373.503 248.353V255.775C373.503 256.302 373.112 256.73 372.629 256.73C372.147 256.73 371.755 256.302 371.755 255.775V248.353C371.755 247.826 372.147 247.398 372.629 247.398ZM372.629 262.242C373.112 262.242 373.503 262.669 373.503 263.197V270.619C373.503 271.146 373.112 271.574 372.629 271.574C372.147 271.574 371.755 271.146 371.755 270.619V263.197C371.755 262.669 372.147 262.242 372.629 262.242ZM372.629 277.086C373.112 277.086 373.503 277.513 373.503 278.041V281.165L376.229 282.673C376.659 282.911 376.832 283.485 376.614 283.956C376.396 284.427 375.87 284.615 375.44 284.377L372.235 282.604C371.941 282.441 371.755 282.112 371.755 281.752V278.041C371.755 277.513 372.147 277.086 372.629 277.086ZM381.465 286.64C381.683 286.169 382.209 285.981 382.639 286.219L389.05 289.765C389.48 290.003 389.653 290.578 389.435 291.048C389.217 291.519 388.692 291.707 388.261 291.469L381.85 287.923C381.42 287.685 381.248 287.11 381.465 286.64ZM394.287 293.732C394.505 293.262 395.03 293.073 395.461 293.311L401.871 296.857C402.302 297.096 402.474 297.67 402.256 298.141C402.038 298.611 401.513 298.8 401.082 298.562L394.672 295.015C394.241 294.777 394.069 294.203 394.287 293.732ZM407.108 300.825C407.326 300.354 407.851 300.165 408.282 300.404L414.692 303.95C415.123 304.188 415.295 304.763 415.077 305.233C414.86 305.704 414.334 305.892 413.904 305.654L407.493 302.108C407.062 301.87 406.89 301.295 407.108 300.825ZM419.929 307.917C420.147 307.446 420.673 307.258 421.103 307.496L427.514 311.042C427.944 311.28 428.117 311.855 427.899 312.325C427.681 312.796 427.155 312.984 426.725 312.746L420.314 309.2C419.884 308.962 419.711 308.387 419.929 307.917ZM432.75 315.009C432.968 314.539 433.494 314.35 433.924 314.588L440.335 318.135C440.765 318.373 440.938 318.947 440.72 319.418C440.502 319.888 439.977 320.077 439.546 319.839L433.135 316.293C432.705 316.054 432.533 315.48 432.75 315.009ZM445.572 322.102C445.789 321.631 446.315 321.443 446.746 321.681L453.156 325.227C453.587 325.465 453.759 326.04 453.541 326.51C453.323 326.981 452.798 327.169 452.367 326.931L445.957 323.385C445.526 323.147 445.354 322.572 445.572 322.102ZM458.393 329.194C458.611 328.723 459.136 328.535 459.567 328.773L465.977 332.319C466.408 332.557 466.58 333.132 466.362 333.603C466.145 334.073 465.619 334.262 465.188 334.023L458.778 330.477C458.347 330.239 458.175 329.665 458.393 329.194ZM471.214 336.286C471.432 335.816 471.957 335.627 472.388 335.865L478.799 339.412C479.229 339.65 479.401 340.224 479.184 340.695C478.966 341.166 478.44 341.354 478.01 341.116L471.599 337.57C471.169 337.332 470.996 336.757 471.214 336.286ZM484.035 343.379C484.253 342.908 484.779 342.72 485.209 342.958L491.62 346.504C492.05 346.742 492.223 347.317 492.005 347.787C491.787 348.258 491.261 348.446 490.831 348.208L484.42 344.662C483.99 344.424 483.817 343.849 484.035 343.379ZM496.856 350.471C497.074 350 497.6 349.812 498.03 350.05L504.441 353.596C504.872 353.834 505.044 354.409 504.826 354.88C504.608 355.35 504.083 355.539 503.652 355.301L497.242 351.754C496.811 351.516 496.639 350.942 496.856 350.471ZM509.678 357.563C509.896 357.093 510.421 356.904 510.852 357.143L517.262 360.689C517.693 360.927 517.865 361.501 517.647 361.972C517.429 362.443 516.904 362.631 516.473 362.393L510.063 358.847C509.632 358.609 509.46 358.034 509.678 357.563ZM522.499 364.656C522.717 364.185 523.242 363.997 523.673 364.235L530.084 367.781C530.514 368.019 530.686 368.594 530.469 369.064C530.251 369.535 529.725 369.723 529.295 369.485L522.884 365.939C522.453 365.701 522.281 365.126 522.499 364.656ZM535.32 371.748C535.538 371.278 536.064 371.089 536.494 371.327L542.905 374.873C543.335 375.112 543.508 375.686 543.29 376.157C543.072 376.627 542.546 376.816 542.116 376.578L535.705 373.031C535.275 372.793 535.102 372.219 535.32 371.748ZM548.141 378.841C548.359 378.37 548.885 378.181 549.315 378.42L552.521 380.193C552.951 380.431 553.124 381.005 552.906 381.476C552.688 381.947 552.162 382.135 551.732 381.897L548.526 380.124C548.096 379.886 547.924 379.311 548.141 378.841Z" fill="black"/>
</svg>
