<svg width="551" height="436" viewBox="0 0 551 436" fill="none" xmlns="http://www.w3.org/2000/svg">
<path opacity="0.3" fill-rule="evenodd" clip-rule="evenodd" d="M550.897 0.508001C550.669 0.040192 550.139 -0.136434 549.713 0.113496L546.602 1.9386C546.176 2.18854 546.015 2.77038 546.243 3.23819C546.47 3.706 547 3.88262 547.426 3.63269L550.537 1.80758C550.963 1.55765 551.124 0.975811 550.897 0.508001ZM541.563 5.98333C541.336 5.51552 540.806 5.33889 540.38 5.58882L534.157 9.23904C533.731 9.48897 533.571 10.0708 533.798 10.5386C534.026 11.0064 534.556 11.1831 534.982 10.9331L541.204 7.28291C541.63 7.03298 541.791 6.45114 541.563 5.98333ZM529.119 13.2838C528.891 12.8159 528.361 12.6393 527.935 12.8893L521.713 16.5395C521.287 16.7894 521.126 17.3712 521.354 17.8391C521.581 18.3069 522.111 18.4835 522.537 18.2336L528.759 14.5833C529.185 14.3334 529.346 13.7516 529.119 13.2838ZM516.674 20.5842C516.447 20.1164 515.917 19.9398 515.491 20.1897L509.268 23.8399C508.842 24.0898 508.681 24.6717 508.909 25.1395C509.137 25.6073 509.667 25.7839 510.093 25.534L516.315 21.8838C516.741 21.6338 516.902 21.052 516.674 20.5842ZM504.23 27.8846C504.002 27.4168 503.472 27.2402 503.046 27.4901L496.824 31.1403C496.398 31.3903 496.237 31.9721 496.464 32.4399C496.692 32.9077 497.222 33.0844 497.648 32.8344L503.87 29.1842C504.296 28.9343 504.457 28.3524 504.23 27.8846ZM491.785 35.1851C491.557 34.7173 491.028 34.5406 490.601 34.7906L484.379 38.4408C483.953 38.6907 483.792 39.2725 484.02 39.7404C484.248 40.2082 484.777 40.3848 485.203 40.1349L491.426 36.4846C491.852 36.2347 492.013 35.6529 491.785 35.1851ZM479.34 42.4855C479.113 42.0177 478.583 41.8411 478.157 42.091L471.935 45.7412C471.509 45.9911 471.348 46.573 471.575 47.0408C471.803 47.5086 472.333 47.6852 472.759 47.4353L478.981 43.7851C479.407 43.5352 479.568 42.9533 479.34 42.4855ZM466.896 49.7859C466.668 49.3181 466.138 49.1415 465.712 49.3914L459.49 53.0416C459.064 53.2916 458.903 53.8734 459.131 54.3412C459.358 54.809 459.888 54.9857 460.314 54.7357L466.537 51.0855C466.963 50.8356 467.124 50.2537 466.896 49.7859ZM454.451 57.0864C454.224 56.6186 453.694 56.4419 453.268 56.6919L447.046 60.3421C446.62 60.592 446.459 61.1739 446.686 61.6417C446.914 62.1095 447.444 62.2861 447.87 62.0362L454.092 58.386C454.518 58.136 454.679 57.5542 454.451 57.0864ZM442.007 64.3868C441.779 63.919 441.249 63.7424 440.823 63.9923L434.601 67.6425C434.175 67.8924 434.014 68.4743 434.242 68.9421C434.469 69.4099 434.999 69.5865 435.425 69.3366L441.648 65.6864C442.074 65.4365 442.234 64.8546 442.007 64.3868ZM429.562 71.6872C429.335 71.2194 428.805 71.0428 428.379 71.2927L422.156 74.943C421.73 75.1929 421.57 75.7747 421.797 76.2425C422.025 76.7103 422.555 76.887 422.981 76.6371L429.203 72.9868C429.629 72.7369 429.79 72.1551 429.562 71.6872ZM417.118 78.9877C416.89 78.5199 416.36 78.3432 415.934 78.5932L409.712 82.2434C409.286 82.4933 409.125 83.0752 409.353 83.543C409.58 84.0108 410.11 84.1874 410.536 83.9375L416.758 80.2873C417.184 80.0373 417.345 79.4555 417.118 78.9877ZM404.673 86.2881C404.446 85.8203 403.916 85.6437 403.49 85.8936L397.267 89.5438C396.841 89.7938 396.68 90.3756 396.908 90.8434C397.136 91.3112 397.666 91.4879 398.092 91.2379L404.314 87.5877C404.74 87.3378 404.901 86.7559 404.673 86.2881ZM392.229 93.5886C392.001 93.1207 391.471 92.9441 391.045 93.194L384.823 96.8443C384.397 97.0942 384.236 97.676 384.463 98.1438C384.691 98.6117 385.221 98.7883 385.647 98.5384L391.869 94.8881C392.295 94.6382 392.456 94.0564 392.229 93.5886ZM379.784 100.889C379.556 100.421 379.027 100.245 378.601 100.494L372.378 104.145C371.952 104.395 371.791 104.976 372.019 105.444C372.247 105.912 372.776 106.089 373.202 105.839L379.425 102.189C379.851 101.939 380.012 101.357 379.784 100.889ZM367.339 108.189C367.112 107.722 366.582 107.545 366.156 107.795L359.934 111.445C359.508 111.695 359.347 112.277 359.574 112.745C359.802 113.213 360.332 113.389 360.758 113.139L366.98 109.489C367.406 109.239 367.567 108.657 367.339 108.189ZM354.895 115.49C354.667 115.022 354.137 114.845 353.711 115.095L347.489 118.746C347.063 118.995 346.902 119.577 347.13 120.045C347.357 120.513 347.887 120.69 348.313 120.44L354.536 116.789C354.962 116.54 355.123 115.958 354.895 115.49ZM342.45 122.79C342.223 122.322 341.693 122.146 341.267 122.396L335.045 126.046C334.619 126.296 334.458 126.878 334.685 127.346C334.913 127.813 335.443 127.99 335.869 127.74L342.091 124.09C342.517 123.84 342.678 123.258 342.45 122.79ZM330.006 130.091C329.778 129.623 329.248 129.446 328.822 129.696L322.6 133.346C322.174 133.596 322.013 134.178 322.241 134.646C322.468 135.114 322.998 135.29 323.424 135.041L329.647 131.39C330.073 131.14 330.234 130.559 330.006 130.091ZM317.561 137.391C317.334 136.923 316.804 136.747 316.378 136.997L310.156 140.647C309.73 140.897 309.569 141.479 309.796 141.946C310.024 142.414 310.554 142.591 310.98 142.341L317.202 138.691C317.628 138.441 317.789 137.859 317.561 137.391ZM305.117 144.692C304.889 144.224 304.359 144.047 303.933 144.297L297.711 147.947C297.285 148.197 297.124 148.779 297.352 149.247C297.579 149.715 298.109 149.891 298.535 149.641L304.758 145.991C305.184 145.741 305.344 145.159 305.117 144.692ZM292.672 151.992C292.445 151.524 291.915 151.348 291.489 151.597L285.266 155.248C284.84 155.498 284.68 156.079 284.907 156.547C285.135 157.015 285.665 157.192 286.091 156.942L292.313 153.292C292.739 153.042 292.9 152.46 292.672 151.992ZM280.228 159.292C280 158.825 279.47 158.648 279.044 158.898L272.822 162.548C272.396 162.798 272.235 163.38 272.463 163.848C272.69 164.316 273.22 164.492 273.646 164.242L279.868 160.592C280.295 160.342 280.455 159.76 280.228 159.292ZM267.783 166.593C267.556 166.125 267.026 165.948 266.6 166.198L260.377 169.849C259.951 170.098 259.791 170.68 260.018 171.148C260.246 171.616 260.776 171.793 261.202 171.543L267.424 167.892C267.85 167.642 268.011 167.061 267.783 166.593ZM255.339 173.893C255.111 173.425 254.581 173.249 254.155 173.499L247.933 177.149C247.507 177.399 247.346 177.981 247.574 178.449C247.801 178.916 248.331 179.093 248.757 178.843L254.979 175.193C255.405 174.943 255.566 174.361 255.339 173.893ZM242.894 181.194C242.667 180.726 242.137 180.549 241.711 180.799L235.488 184.449C235.062 184.699 234.901 185.281 235.129 185.749C235.357 186.217 235.887 186.393 236.313 186.143L242.535 182.493C242.961 182.243 243.122 181.661 242.894 181.194ZM230.45 188.494C230.222 188.026 229.692 187.85 229.266 188.1L223.044 191.75C222.618 192 222.457 192.582 222.685 193.049C222.912 193.517 223.442 193.694 223.868 193.444L230.09 189.794C230.516 189.544 230.677 188.962 230.45 188.494ZM218.005 195.795C217.778 195.327 217.248 195.15 216.822 195.4L210.599 199.05C210.173 199.3 210.012 199.882 210.24 200.35C210.468 200.818 210.998 200.994 211.424 200.744L217.646 197.094C218.072 196.844 218.233 196.262 218.005 195.795ZM205.561 203.095C205.333 202.627 204.803 202.451 204.377 202.7L198.155 206.351C197.729 206.601 197.568 207.182 197.796 207.65C198.023 208.118 198.553 208.295 198.979 208.045L205.201 204.395C205.627 204.145 205.788 203.563 205.561 203.095ZM193.116 210.395C192.888 209.928 192.359 209.751 191.933 210.001L185.71 213.651C185.284 213.901 185.123 214.483 185.351 214.951C185.579 215.418 186.108 215.595 186.534 215.345L192.757 211.695C193.183 211.445 193.344 210.863 193.116 210.395ZM180.672 217.696C180.444 217.228 179.914 217.051 179.488 217.301L173.266 220.951C172.84 221.201 172.679 221.783 172.906 222.251C173.134 222.719 173.664 222.895 174.09 222.646L180.312 218.995C180.738 218.745 180.899 218.164 180.672 217.696ZM168.227 224.996C167.999 224.528 167.469 224.352 167.043 224.602L160.821 228.252C160.395 228.502 160.234 229.084 160.462 229.551C160.69 230.019 161.219 230.196 161.645 229.946L167.868 226.296C168.294 226.046 168.455 225.464 168.227 224.996ZM155.782 232.297C155.555 231.829 155.025 231.652 154.599 231.902L151.488 233.727C151.203 233.894 151.025 234.22 151.025 234.574L151.025 238.184C151.025 238.714 151.417 239.144 151.9 239.144C152.383 239.144 152.774 238.714 152.774 238.184L152.774 235.15L155.423 233.596C155.849 233.346 156.01 232.764 155.782 232.297ZM151.9 244.442C151.417 244.442 151.025 244.872 151.025 245.403L151.025 252.622C151.025 253.152 151.417 253.582 151.9 253.582C152.383 253.582 152.774 253.152 152.774 252.622L152.774 245.403C152.774 244.872 152.383 244.442 151.9 244.442ZM151.9 258.88C151.417 258.88 151.025 259.31 151.025 259.84L151.025 267.059C151.025 267.59 151.417 268.02 151.9 268.02C152.383 268.02 152.774 267.59 152.774 267.059L152.774 259.84C152.774 259.31 152.383 258.88 151.9 258.88ZM151.9 273.318C151.417 273.318 151.025 273.748 151.025 274.278L151.025 281.497C151.025 282.027 151.417 282.457 151.9 282.457C152.383 282.457 152.774 282.027 152.774 281.497L152.774 274.278C152.774 273.748 152.383 273.318 151.9 273.318ZM151.9 287.756C151.417 287.756 151.025 288.186 151.025 288.716L151.025 295.935C151.025 296.465 151.417 296.895 151.9 296.895C152.383 296.895 152.774 296.465 152.774 295.935L152.774 288.716C152.774 288.186 152.383 287.756 151.9 287.756ZM151.9 302.193C151.417 302.193 151.025 302.623 151.025 303.154L151.025 310.373C151.025 310.903 151.417 311.333 151.9 311.333C152.383 311.333 152.774 310.903 152.774 310.373L152.774 303.154C152.774 302.623 152.383 302.193 151.9 302.193ZM151.9 316.631C151.417 316.631 151.025 317.061 151.025 317.591L151.025 324.81C151.025 325.341 151.417 325.771 151.9 325.771C152.383 325.771 152.774 325.341 152.774 324.81L152.774 317.591C152.774 317.061 152.383 316.631 151.9 316.631ZM151.9 331.069C151.417 331.069 151.025 331.499 151.025 332.029L151.025 339.248C151.025 339.779 151.417 340.208 151.9 340.208C152.383 340.208 152.774 339.779 152.774 339.248L152.774 332.029C152.774 331.499 152.383 331.069 151.9 331.069ZM151.9 345.507C151.417 345.507 151.025 345.937 151.025 346.467L151.025 349.489L148.355 350.992C147.925 351.234 147.755 351.812 147.975 352.284C148.195 352.756 148.722 352.943 149.152 352.701L152.299 350.931C152.591 350.767 152.774 350.437 152.774 350.076L152.774 346.467C152.774 345.937 152.383 345.507 151.9 345.507ZM143.239 354.949C143.019 354.477 142.492 354.29 142.062 354.532L135.769 358.072C135.339 358.314 135.169 358.893 135.39 359.365C135.61 359.837 136.137 360.023 136.567 359.781L142.859 356.241C143.289 355.999 143.459 355.421 143.239 354.949ZM130.654 362.029C130.433 361.557 129.906 361.37 129.476 361.612L123.184 365.152C122.754 365.394 122.584 365.973 122.804 366.445C123.024 366.917 123.551 367.104 123.981 366.862L130.274 363.322C130.704 363.08 130.874 362.501 130.654 362.029ZM118.068 369.109C117.848 368.637 117.321 368.451 116.891 368.692L110.598 372.233C110.168 372.474 109.998 373.053 110.219 373.525C110.439 373.997 110.966 374.184 111.396 373.942L117.689 370.402C118.119 370.16 118.288 369.581 118.068 369.109ZM105.483 376.189C105.263 375.717 104.735 375.531 104.306 375.773L98.0129 379.313C97.583 379.555 97.4131 380.133 97.6334 380.605C97.8536 381.077 98.3806 381.264 98.8105 381.022L105.103 377.482C105.533 377.24 105.703 376.662 105.483 376.189ZM92.8974 383.27C92.6771 382.798 92.1501 382.611 91.7202 382.853L85.4275 386.393C84.9976 386.635 84.8277 387.214 85.0479 387.686C85.2682 388.158 85.7952 388.344 86.2251 388.102L92.5178 384.562C92.9477 384.32 93.1177 383.742 92.8974 383.27ZM80.312 390.35C80.0918 389.878 79.5647 389.691 79.1348 389.933L72.8421 393.473C72.4123 393.715 72.2423 394.294 72.4625 394.766C72.6828 395.238 73.2098 395.425 73.6397 395.183L79.9324 391.643C80.3623 391.401 80.5323 390.822 80.312 390.35ZM67.7266 397.43C67.5063 396.958 66.9793 396.772 66.5494 397.013L60.2568 400.554C59.8268 400.795 59.6569 401.374 59.8772 401.846C60.0974 402.318 60.6244 402.505 61.0543 402.263L67.347 398.723C67.7769 398.481 67.9468 397.902 67.7266 397.43ZM55.1412 404.51C54.9209 404.038 54.3939 403.852 53.964 404.094L47.6713 407.634C47.2414 407.876 47.0715 408.454 47.2917 408.926C47.512 409.398 48.039 409.585 48.469 409.343L54.7616 405.803C55.1915 405.561 55.3614 404.983 55.1412 404.51ZM42.5558 411.591C42.3356 411.119 41.8085 410.932 41.3786 411.174L35.086 414.714C34.656 414.956 34.4861 415.535 34.7063 416.007C34.9266 416.479 35.4536 416.665 35.8835 416.423L42.1762 412.883C42.6061 412.641 42.7761 412.063 42.5558 411.591ZM29.9704 418.671C29.7501 418.199 29.2231 418.012 28.7932 418.254L22.5005 421.794C22.0706 422.036 21.9007 422.615 22.1209 423.087C22.3411 423.559 22.8682 423.746 23.2981 423.504L29.5908 419.964C30.0207 419.722 30.1906 419.143 29.9704 418.671ZM17.385 425.751C17.1648 425.279 16.6377 425.093 16.2078 425.334L9.91506 428.875C9.48518 429.116 9.31526 429.695 9.53554 430.167C9.75575 430.639 10.2828 430.826 10.7127 430.584L17.0054 427.044C17.4353 426.802 17.6052 426.223 17.385 425.751ZM4.79958 432.832C4.5793 432.359 4.05226 432.173 3.62239 432.415L0.476029 434.185C0.0461585 434.427 -0.123824 435.005 0.0964514 435.477C0.316666 435.949 0.843766 436.136 1.27364 435.894L4.41994 434.124C4.84987 433.882 5.01979 433.304 4.79958 432.832Z" fill="black"/>
</svg>
