<svg width="28" height="22" viewBox="0 0 28 22" fill="none" xmlns="http://www.w3.org/2000/svg">
<path d="M27.2913 3.69C27.1735 3.22919 26.9478 2.80298 26.6329 2.44654C26.318 2.09011 25.9228 1.81366 25.48 1.64C21.195 -0.0149953 14.375 4.7549e-06 14 4.7549e-06C13.625 4.7549e-06 6.805 -0.0149953 2.52 1.64C2.0772 1.81366 1.68204 2.09011 1.36712 2.44654C1.05219 2.80298 0.826532 3.22919 0.70875 3.69C0.385 4.9375 0 7.2175 0 11C0 14.7825 0.385 17.0625 0.70875 18.31C0.826356 18.771 1.05194 19.1975 1.36687 19.5542C1.68181 19.9108 2.07706 20.1875 2.52 20.3613C6.625 21.945 13.05 22 13.9175 22H14.0825C14.95 22 21.3787 21.945 25.48 20.3613C25.9229 20.1875 26.3182 19.9108 26.6331 19.5542C26.9481 19.1975 27.1736 18.771 27.2913 18.31C27.615 17.06 28 14.7825 28 11C28 7.2175 27.615 4.9375 27.2913 3.69ZM18.2775 11.4163L12.2775 15.4163C12.2022 15.4665 12.1146 15.4954 12.0242 15.4997C11.9338 15.5041 11.8438 15.4839 11.764 15.4411C11.6842 15.3984 11.6175 15.3348 11.571 15.2571C11.5245 15.1794 11.4999 15.0905 11.5 15V7C11.4999 6.90946 11.5245 6.8206 11.571 6.74291C11.6175 6.66522 11.6842 6.60161 11.764 6.55888C11.8438 6.51614 11.9338 6.49588 12.0242 6.50027C12.1146 6.50465 12.2022 6.5335 12.2775 6.58375L18.2775 10.5838C18.3461 10.6294 18.4023 10.6913 18.4412 10.7639C18.4801 10.8365 18.5005 10.9176 18.5005 11C18.5005 11.0824 18.4801 11.1635 18.4412 11.2361C18.4023 11.3087 18.3461 11.3706 18.2775 11.4163Z" fill="black"/>
</svg>
